<svg xmlns="http://www.w3.org/2000/svg" viewBox="0 0 193.31 83.88"><defs><style>.cls-1{fill:#1d1d1b;}.cls-2{fill:tan;opacity:0.08;}</style></defs><g id="Layer_2" data-name="Layer 2"><g id="Layer_1-2" data-name="Layer 1"><path class="cls-1" d="M119.5,53.13a23.24,23.24,0,0,0,1.17-4.77,26.86,26.86,0,0,0,.1-4.91,31.92,31.92,0,0,0-2.33-9.52,46.06,46.06,0,0,0-11.2-16A42.81,42.81,0,0,0,90.52,8.14a36.82,36.82,0,0,0-4.77-1,21.75,21.75,0,0,0-2.41-.31L80.9,6.67c-.81-.06-1.62,0-2.44,0A19.72,19.72,0,0,0,76,6.9l-2.43.31-2.39.5A47.41,47.41,0,0,0,62,10.84a52,52,0,0,0-8.53,4.83A46.42,46.42,0,0,0,39.8,29.61a41.6,41.6,0,0,0-3.85,9c-1,3.13-1.9,6.3-3.16,9.35A60.06,60.06,0,0,1,22.17,64.59,86.6,86.6,0,0,1,7.43,77.76l-4,2.86A23.73,23.73,0,0,0,1.5,82.11a2.79,2.79,0,0,0-.68.79c0,.12,0,.12,0,.13a.46.46,0,0,0,.29,0,8.53,8.53,0,0,0,2.21-.7c.75-.31,1.49-.66,2.23-1L10,79.25a127.32,127.32,0,0,1,18.44-7.18,85.34,85.34,0,0,1,19.5-3.4,72.25,72.25,0,0,1,19.73,1.59c3.22.68,6.4,1.54,9.63,1.94a36.66,36.66,0,0,0,9.76-.08,61.88,61.88,0,0,0,18.81-5.46,33.34,33.34,0,0,0,8.11-5.5A21.87,21.87,0,0,0,119.5,53.13Zm.09,0a22.32,22.32,0,0,1-5.51,8.12A35.16,35.16,0,0,1,106,66.89a61.89,61.89,0,0,1-18.84,5.8,37.44,37.44,0,0,1-9.92.22c-3.31-.36-6.52-1.18-9.73-1.81A74.7,74.7,0,0,0,48,69.61C34.88,70.32,22.2,74.45,10.35,80l-4.46,2.1c-.75.34-1.5.69-2.27,1a8.71,8.71,0,0,1-2.49.73,1.13,1.13,0,0,1-.88-.26A.91.91,0,0,1,0,83.09a1,1,0,0,1,.09-.49A3.22,3.22,0,0,1,1,81.53c.65-.57,1.32-1,2-1.53l4-2.82A85.72,85.72,0,0,0,21.79,64.26,59.55,59.55,0,0,0,32.45,47.85c2.6-6,3.65-12.68,7-18.42a47.06,47.06,0,0,1,13.62-14.2,54.51,54.51,0,0,1,8.56-5A46.86,46.86,0,0,1,71,7l2.43-.52,2.47-.32a18.7,18.7,0,0,1,2.48-.2c.83,0,1.66-.12,2.49-.06l2.5.12a23.15,23.15,0,0,1,2.47.31,35.15,35.15,0,0,1,4.86,1.08,42.3,42.3,0,0,1,16.89,10.17,46.49,46.49,0,0,1,11,16.29,33.37,33.37,0,0,1,2.26,9.59,27.18,27.18,0,0,1-.13,4.94A23.18,23.18,0,0,1,119.59,53.16Z"/><path class="cls-2" d="M153.71,76.33c7.64-.47,15.39-1,22.71-3.39A21.28,21.28,0,0,0,184,68.78a15.4,15.4,0,0,0,3.5-4.87,18.55,18.55,0,0,0,1.45-5.35c.57-1.9,1-3.82,1.43-5.76.27-1.15.49-2.3.65-3.46.25-1.48.45-3,.6-4.45l-.48-2.29A98.54,98.54,0,0,0,188.8,33c-2-6.49-5-13.2-10-18.06-4.21-4.16-9.73-6.7-15.4-8.16A32.08,32.08,0,0,0,151,5.91c-1.66.25-1.17.23-.22,2.12.6,1.19,1.21,2.36,1.86,3.52l3.93-1.6c-3.32-1.35-6.77-2.49-10.17-3.63L139.31,4q-14.3-8.64-7.9,8.73l3.13-5.55L128,13.92l5.92-3.16q-6.56,3.2-13.05,6.52a40.76,40.76,0,0,0-6.44,4,18.48,18.48,0,0,0-6.15,8.1c-1.08,2.94-1.46,6.08-2.39,9.06A37.9,37.9,0,0,1,100.22,49l5.37-4c-3.37,2.28-6.78,4.51-10.06,6.93-2.58,1.89-5.06,3.9-7.63,5.81-9.56,7.09-19.36,13.84-29.24,20.47h.2c13.72-.94,27.37-2.59,41.1-3.35,3.49-.19,7-.44,10.48-.29s6.91-.24,10.39.08c2.23.21,4.43.57,6.64,1A78.74,78.74,0,0,0,137,77a142.67,142.67,0,0,0,16.15-.18,2.38,2.38,0,0,0-.66-.37c-.86-.41-1.72-.81-2.59-1.2s-2.33-1.37-3.32-1.42c-7.79-.42-15.57-.38-23.34-1.17a73.64,73.64,0,0,0-9-.49q-3,.14-5.9.23a13.3,13.3,0,0,1-4.07.22c-1.47-.06-3-.18-4.42-.35A41.61,41.61,0,0,1,94,71.43l-2.88-.77a3.72,3.72,0,0,0-4.62.32,38.55,38.55,0,0,1-7.92,2.63,119.58,119.58,0,0,1-19.7,4.58l7.22-.88a94.36,94.36,0,0,0,11.49-7.7q4.65-3.36,9.13-6.94c3.73-2.93,7.55-5.84,11-9.08a65.16,65.16,0,0,0,8.53-8.89l-6.12,4.23.11.06c.29.16,3-2.07,3.07-2.12.73-.53,2.45-1.39,3-2.24,1.65-2.69,3.22-5.44,4.62-8.27,1-1.92,1.66-3.94,2.58-5.87a19.63,19.63,0,0,1,7-8.29q2.12-1.39,4.2-2.84l3.33-1.9a12,12,0,0,1,5.06-4.66,15.79,15.79,0,0,1,4.44-2.12l2.57-.81a62.3,62.3,0,0,1,6.41,0,14.3,14.3,0,0,1,6.21,1.72c.41.24,3.9-1.67,3.93-1.6q-1.43-3.22-6.09-3.4l5.39,3.25c5.46.7,10.79,3,15.6,5.56a22.89,22.89,0,0,1,6.5,5.06,13.29,13.29,0,0,1,2.08,2.74,13.63,13.63,0,0,1,2.38,5,66.85,66.85,0,0,1,3,7.47A49.73,49.73,0,0,1,187,44a47.77,47.77,0,0,1,.33,5.07,23.38,23.38,0,0,1-1.44,6.45l-1,3.38-1.31,3.62A9.25,9.25,0,0,1,180.24,66,43.61,43.61,0,0,1,176,68.65a25.85,25.85,0,0,1-6.35,2.09c-7,1.42-14.33,1.11-21.4,1a2.66,2.66,0,0,0,.53.53c.72.62,1.43,1.23,2.16,1.84C151.22,74.32,153.13,76.37,153.71,76.33Z"/><path class="cls-2" d="M154,75.53c7.59-.51,15.3-1,22.58-3.4A21.67,21.67,0,0,0,184.21,68a15.2,15.2,0,0,0,3.56-4.87,18.59,18.59,0,0,0,1.48-5.41q.85-2.87,1.42-5.79a34.37,34.37,0,0,0,.65-3.48c.25-1.48.44-3,.58-4.47l-.47-2.32A96.43,96.43,0,0,0,189.06,32C187,25.51,184,18.82,179,14a33.23,33.23,0,0,0-15.43-8.1A31.69,31.69,0,0,0,151.18,5c-1.72.27-1.12.29,0,2.2.64,1.14,1.28,2.27,2,3.38l3.48-1.39a84.8,84.8,0,0,0-8.32-3.59L142.54,3.4q-11.46-7.86-7.29,7.4l3.88-5.86-7.23,6.89,4.87-3.29a50.23,50.23,0,0,1-12.15,6.23,54.68,54.68,0,0,0-6.9,3.53c-3.27,2-6.44,4.6-8.26,8.08-1.43,2.74-1.87,5.83-2.63,8.77a30.15,30.15,0,0,1-7.15,13.2l.52-.42c-3.62,2.55-7.08,5.28-10.62,7.94-10,7.48-20.29,14.56-30.66,21.52h.17c9-.59,18.09-1.3,27.1-2.27,4.67-.5,9.34-.71,14-1a103.34,103.34,0,0,1,10.41-.34c3.46.15,6.89-.25,10.36.06,2.22.2,4.42.55,6.61,1a83.2,83.2,0,0,0,9.56,1.31A147.65,147.65,0,0,0,153.32,76a1.9,1.9,0,0,0-.54-.34l-2.13-1.07a9.59,9.59,0,0,0-2.73-1.27c-5.24-.25-10.49-.21-15.72-.49-3.28-.18-6.51-.58-9.76-1a55,55,0,0,0-6.91-.37c-2,.05-4,.12-5.93.22a16.36,16.36,0,0,1-4.52.24c-3.06-.16-6.16-.09-9.21-.39l-4.34-.68a5.94,5.94,0,0,0-5.26.3C77.89,73.7,69.21,75.3,60.64,77l4.77-.82C72.54,71.68,79.33,66.8,86,61.65c4.11-3.17,8.29-6.29,12.14-9.78,2.54-2.31,5.34-4.72,7.23-7.63l-5,3.79.12,0c.29.13,2.42-1.83,2.5-1.89a10.84,10.84,0,0,0,2.42-2c1.64-2.72,3.2-5.48,4.57-8.35,1-2,1.69-4.13,2.65-6.15A20.77,20.77,0,0,1,120,20.94c2.43-1.63,5-2.88,7.52-4.26,1.74-1.2,3.52-2.32,5.36-3.35A32.4,32.4,0,0,0,138,9.89,22.34,22.34,0,0,1,147.06,9a14.35,14.35,0,0,1,6.06,1.61c.35.2,3.48-1.39,3.48-1.39-.95-2.44-.48-.65-5.94-3.56l5.28,3a44,44,0,0,1,17.19,6.62,21.48,21.48,0,0,1,6.16,5.47l2,3,1.39,3.47a60.74,60.74,0,0,1,3.42,9.16,58.77,58.77,0,0,1,1.41,8,37.79,37.79,0,0,1,.28,4.51c-.26,1.36-.56,2.7-.9,4-.26,1.07-.53,2.14-.84,3.2-.93,3.45-1.77,7.12-4.89,9.27a5.89,5.89,0,0,0-2.1,1.21,7.83,7.83,0,0,1-1.84,1.16A22.48,22.48,0,0,1,170.92,70c-6.95,1.45-14.16,1.34-21.22,1.29a18,18,0,0,1,2.11,2.17C152,73.65,153.57,75.56,154,75.53Z"/><path class="cls-2" d="M154.19,76.15c7.66-.46,15.42-.93,22.75-3.37,4.82-1.61,9-4.45,11.14-9.13a18.41,18.41,0,0,0,1.37-5.4,58.69,58.69,0,0,0,1.4-5.71,33.08,33.08,0,0,0,.64-3.44c.25-1.47.44-3,.58-4.45l-.47-2.3a87.43,87.43,0,0,0-2.34-9.58c-2.09-6.47-5.08-13.17-10-18-4.19-4.15-9.7-6.67-15.35-8.1a31.89,31.89,0,0,0-12.37-.87c-1.64.25-1.12.26-.21,2.11.59,1.19,1.19,2.36,1.84,3.51l4.18-1.61c-3.4-1.4-6.87-2.65-10.32-3.89l-7.27-2.57Q125-5.92,131.93,12.49l3.44-5.64-6.84,6.88,6.06-3.09q-6.68,3.07-13.18,6.47a41.63,41.63,0,0,0-6.46,4,18.47,18.47,0,0,0-6.11,8.08c-1.07,2.92-1.46,6.05-2.41,9a38.56,38.56,0,0,1-5.68,10.57l5.37-3.91c-3.39,2.29-6.8,4.53-10.1,7-2.57,1.88-5,3.89-7.61,5.79C78.86,64.7,69.07,71.45,59.19,78.08h.2c13.72-1,27.37-2.57,41.09-3.34,3.49-.19,7-.43,10.5-.3s6.89-.24,10.36.09c2.22.21,4.41.58,6.6,1a81.05,81.05,0,0,0,9.56,1.31,141.24,141.24,0,0,0,16.2-.19,3.19,3.19,0,0,0-.72-.41l-2.8-1.34c-.87-.42-2.53-1.56-3.58-1.62-5.27-.29-10.53-.25-15.81-.46-3.28-.14-6.51-.51-9.77-.88a52.28,52.28,0,0,0-6.86-.33l-5.91.23a14.26,14.26,0,0,1-4.51.21,72.27,72.27,0,0,1-8.92-1l-3.55-1a3.6,3.6,0,0,0-4.47.27A62.87,62.87,0,0,1,79,73.05a97.71,97.71,0,0,1-19.61,5l7.23-1A98.22,98.22,0,0,0,78.1,69.38q4.64-3.36,9.13-6.89c4.14-3.23,8.35-6.4,12.18-10,2.57-2.41,5.45-4.93,7.35-8l-6.12,4.18.11.06c.32.16,3-2,3.06-2.1.73-.51,2.47-1.38,3-2.22,1.64-2.7,3.2-5.45,4.59-8.3,1-1.93,1.66-4,2.59-5.91a19.72,19.72,0,0,1,7.1-8.33c1.41-.93,2.82-1.86,4.22-2.81l3.35-1.88a14.32,14.32,0,0,1,5-4.64,12.46,12.46,0,0,1,4.29-2.15l2.55-.83a60.71,60.71,0,0,1,6.47,0,14.28,14.28,0,0,1,6.24,1.78c.45.28,4.12-1.73,4.18-1.61-1.11-2.33-3.37-3.53-6.78-3.62l6.11,3.61a47,47,0,0,1,16.9,6.88,21.28,21.28,0,0,1,6,5.58l1.87,3,1.34,3.53A57.77,57.77,0,0,1,186,38a50.46,50.46,0,0,1,1.14,8,33.64,33.64,0,0,1,0,4.49c-.18,2.25-1.29,4.89-2,7-1.14,3.31-2.18,6.65-5.38,8.51a5,5,0,0,0-2.15,1.07,7.72,7.72,0,0,1-1.85,1.06,24.64,24.64,0,0,1-6.27,2c-6.89,1.32-14.13.85-21.1.63a3.19,3.19,0,0,0,.56.6c.75.71,1.51,1.41,2.26,2.1s1.52,1.4,2.29,2.08A3.24,3.24,0,0,0,154.19,76.15Z"/><path class="cls-2" d="M154.9,77c12.41-.79,32.85-1.31,35.5-17.13.66-4,1.77-7.81,2.29-11.8L193,45.2Q192.52,42.59,192,40a67.73,67.73,0,0,0-3.06-10.55,45.77,45.77,0,0,0-6-11.31A34.53,34.53,0,0,0,158.68,5.61a32,32,0,0,0-6.49.07c-.4.05-.79.11-1.19.19-.78,0-.86.39-.23,1,.62,1.27,1.29,2.51,2,3.72l0-1.52c-1.54-.59-2.92.15-4.41.68l-3.13,1.1c-3.11.63-6.25,1.11-9.4,1.44a53.67,53.67,0,0,0-19.38,8.11c-3.48,2.42-6.29,5.33-7.76,9.36a62.79,62.79,0,0,0-1.75,6.9,36.45,36.45,0,0,1-6,12.79l1.81-1.27c-2.59,1-5.16,3.27-7.33,4.92C83.72,62,71.61,70.43,59.37,78.58c-.15.1.17.07.17.07,9.07-.27,18.15-.41,27.2-1.19,4.92-.42,9.82-1,14.73-1.47a80.39,80.39,0,0,1,10.16-.68c3.43.06,6.81-.33,10.24,0,2.22.2,4.4.55,6.59,1a84.79,84.79,0,0,0,9.65,1.33,147.83,147.83,0,0,0,16.17-.16,10.33,10.33,0,0,1-1.91-.81,7.08,7.08,0,0,0-2-.66c-7-.23-14.09-.09-21.1-.89-2.86-.32-5.69-.82-8.56-1a62.78,62.78,0,0,0-8.23.08c-2.52.16-5.16.28-7.68.57-5,.58-9.88,1.46-14.83,2.09q-4.33.6-8.7,1l-10.57.35q-5.83,2.06-3.44-3.65,4-2.71,7.91-5.5C84.57,62.38,94,55.75,102.72,48.28l-1.92,1.18.11.07c.22.12,1.78-1.12,1.88-1.28a42.89,42.89,0,0,0,4.39-8.38c.55-1.52,1-3.07,1.41-4.63a37.57,37.57,0,0,1,1.9-6.31l6.09-7.5a32.94,32.94,0,0,1,4.64-2.93c6-3.35,13.24-6.18,20.18-6a6.49,6.49,0,0,0,1.46,0l5-2.14a8.38,8.38,0,0,1,4.91.3,8.31,8.31,0,0,0,0-1.52c-.16-.4-.32-.8-.47-1.2-.63-.88-.23-1.33,1.21-1.34a37.83,37.83,0,0,1,3.84,0l2.59.18a35.35,35.35,0,0,1,14.85,5.73c10.1,6.73,15,20.58,16.21,31.86a19.92,19.92,0,0,1-1,9.55,50.67,50.67,0,0,1-2.74,9.15A17.94,17.94,0,0,1,180.14,70a29.2,29.2,0,0,1-9.9,3.2,113.79,113.79,0,0,1-18.36,1.07,13.93,13.93,0,0,1,1.46,1.41C153.52,75.83,154.53,77,154.9,77Z"/><path class="cls-2" d="M154.51,76.5c7.65-.48,15.41-1,22.73-3.42a21.84,21.84,0,0,0,7.61-4.19A15.21,15.21,0,0,0,188.38,64a18.45,18.45,0,0,0,1.4-5.41q.84-2.84,1.4-5.73a33.76,33.76,0,0,0,.64-3.45c.25-1.47.45-3,.59-4.44l-.49-2.28c-.69-3.2-1.37-6.43-2.35-9.55-2-6.47-5-13.18-9.95-18-4.2-4.14-9.69-6.65-15.34-8.11A32.2,32.2,0,0,0,151.89,6c-1.58.23-1.17.22-.3,2,.57,1.18,1.15,2.33,1.77,3.48l3.08-2c-2.83-1.13-5.83-1.94-8.74-2.78l-6-1.68q-11.11-6.61-9.33,7.59L136,9a86.75,86.75,0,0,1-14.32,8.38,41.9,41.9,0,0,0-6.45,4,18.74,18.74,0,0,0-6.15,8.07c-1.09,2.94-1.49,6.07-2.45,9.05A39.13,39.13,0,0,1,101,49l4.45-3.16c-3.11,2-6.17,4-9.12,6.2-2.06,1.57-4.09,3.18-6.17,4.73-10,7.49-20.27,14.59-30.65,21.53h.16c9.1-.52,18.2-1,27.26-2.1,4.64-.54,9.3-.9,14-1.18a103.5,103.5,0,0,1,10.42-.28c3.45.13,6.87-.26,10.33.07,2.22.21,4.42.57,6.61,1a78.87,78.87,0,0,0,9.55,1.32,140.87,140.87,0,0,0,16.18-.2,2.73,2.73,0,0,0-.64-.37l-2.53-1.22C150,75,148.56,74,147.6,73.9c-7.79-.43-15.58-.35-23.34-1.15a71,71,0,0,0-7.84-.5q-2,0-4,.12-3.41.06-6.79.36c-3.17-.23-6.24-.92-9.37-1.39l-1.4-.2-3.7-.53A34.45,34.45,0,0,1,79.05,75q-9.39,2-18.91,3.19l5.35-.62c7.16-4.47,14-9.34,20.65-14.48,4.15-3.18,8.37-6.29,12.29-9.76A49.6,49.6,0,0,0,106,45.61L100.9,49,101,49c.27.15,2.47-1.62,2.55-1.68a9.38,9.38,0,0,0,2.46-1.8,70.35,70.35,0,0,0,5.47-10.6c1.09-2.78,2-5.64,3.67-8.12,1.9-2.79,4.56-4.65,7.38-6.43,2.2-1.4,4.5-2.47,6.6-4,1.15-.9,2.35-1.75,3.57-2.55a5.71,5.71,0,0,0,3.44-4.9l-3.82,3.76,5.91-2.07a15.17,15.17,0,0,1,5.95-.82c3.18,0,6.4.08,9.17,1.75.26.15,3.12-1.89,3.08-2-.89-2-.68-.66-5.15-2.95l4.47,2.54a40.36,40.36,0,0,1,18.06,6.47,22.44,22.44,0,0,1,6.35,5.66l2,3.05,1.43,3.61A57.1,57.1,0,0,1,187,37.29a52,52,0,0,1,1.25,8.22,34.25,34.25,0,0,1,.12,4.64c-.31,1.34-.67,2.68-1.08,4-.29,1.05-.61,2.1-1,3.14-1.09,3.43-2.18,7.11-5.38,9.18a5.89,5.89,0,0,0-2.22,1.15,7.68,7.68,0,0,1-1.88,1.09,24.43,24.43,0,0,1-6.3,2.09c-7,1.33-14.21,1.09-21.27.94a2.6,2.6,0,0,0,.51.54c.68.64,1.36,1.27,2,1.89C152.1,74.4,154,76.53,154.51,76.5Z"/><path class="cls-2" d="M154.66,75.46c7.54-.56,15.22-1.12,22.45-3.49,4.84-1.59,8.94-4.44,11.26-9A18.64,18.64,0,0,0,190,57.33c.52-3.1,1.37-6.13,1.85-9.24.24-1.48.43-3,.57-4.45l-.48-2.34a93.89,93.89,0,0,0-2.4-9.62c-2.1-6.47-5.12-13.19-10-18A33.69,33.69,0,0,0,164,5.45a33.43,33.43,0,0,0-12.63-1c-1.68.24-1.28.23-.08,2.07a33,33,0,0,0,2.12,3l1.3-1.37a9.4,9.4,0,0,0-4.43-.79,57.59,57.59,0,0,0-6.06.13,48.57,48.57,0,0,1-12,4.28l-3.69,1.14a51.59,51.59,0,0,0-8.92,4c-5.19,2.9-9.54,6.51-11.39,12.3-.73,2.25-1.21,4.57-1.82,6.86a28.23,28.23,0,0,1-2.26,6,21.54,21.54,0,0,1-3.85,5.61l1.89-1.43c-3.33,2.39-6.61,4.83-9.89,7.31C81.52,61.77,70.38,69.46,59.14,77h.11c13-.85,26-1.07,38.9-2.37a109.67,109.67,0,0,1,12.54-.92c4.37.07,8.75-.31,13.1.25,2.13.28,4.24.73,6.36,1.11,7.84,1.42,15.73,1.14,23.65.81a9.56,9.56,0,0,1-1.61-.78,5.29,5.29,0,0,0-1.68-.65c-7-.19-14,0-21-.87-3.71-.45-7.32-1.19-11.07-1.28-3.51-.08-7,.43-10.46.47a65,65,0,0,0-7.1.6c-2.6.33-5.2.7-7.8,1a110,110,0,0,1-13,.74c-1.58,0-11.49.18-11.51,0l.33-3q5.16-3.6,10.25-7.29c5.88-4.3,11.8-8.61,17.43-13.24a62.86,62.86,0,0,0,6.33-5.77l-2.57,1.88h.27c.28.13,2.38-1.88,2.5-2.09a59.37,59.37,0,0,0,5.33-10.89c1.36-3.84,2.54-7.88,5.25-11,3.42-4,8.34-6.56,13.07-8.6,2.85-1.24,5.78-2.3,8.74-3.26L139,10.85a10.64,10.64,0,0,0,2.76-1.77l-2.4.86c4.58-1.1,9.7-2.37,14.11-.4.16.07,1.36-1.19,1.3-1.37A6.75,6.75,0,0,1,154.31,7c0-.52-.14-.3.38-.42,1.09-.25,3.59.38,4.54.56A40.86,40.86,0,0,1,164,8.28a39.88,39.88,0,0,1,13.76,7.46,21.72,21.72,0,0,1,3.54,4.11,12.82,12.82,0,0,1,2.63,5.07,60.09,60.09,0,0,1,3.75,9.32,64.42,64.42,0,0,1,1.72,8.26,19.72,19.72,0,0,1,.26,6c-.47,2.65-1,5.34-1.58,8a19.57,19.57,0,0,1-2.11,6.25,18.25,18.25,0,0,1-5,4.79,21.67,21.67,0,0,1-6,2.85c-7.38,2.26-15.3,2.25-22.93,2.29a18.51,18.51,0,0,1,1.23,1.45C153.43,74.25,154.35,75.48,154.66,75.46Z"/><path class="cls-2" d="M153.57,76.75c7.6-.49,15.31-1,22.59-3.37a21.69,21.69,0,0,0,7.61-4.13,16.43,16.43,0,0,0,3.61-4.82,19.32,19.32,0,0,0,1.74-5.59c.58-3.06,1.4-6,1.89-9.12.25-1.47.46-2.94.6-4.43l-.47-2.3a96.85,96.85,0,0,0-2.34-9.65c-2.05-6.49-5.07-13.26-10-18.11A33.66,33.66,0,0,0,163.33,7a32,32,0,0,0-12.44-.9c-1.62.25-1.22.21-.22,2.06.62,1.16,1.27,2.3,2,3.43L155,9.51A45.59,45.59,0,0,0,147.87,7L143,5.63q-8.92-5.41-8.16,6.26l3.3-4.29-6.68,5.34,4.14-2.45-14.94,7a41.35,41.35,0,0,0-6.43,4,18.72,18.72,0,0,0-6.17,8.1c-1.1,2.94-1.48,6.08-2.42,9.07A38.68,38.68,0,0,1,100,49.25L104.28,46C99.56,49.24,95,52.62,90.41,56.09,80.05,63.93,69.33,71.31,58.53,78.53h.16c12.29-.68,24.53-2.18,36.83-2.68,4.56-.18,9.13-.83,13.69-.78.65,0,1.3,0,2,0a61.33,61.33,0,0,1,16,.95l2.08.39c7.81,1.41,15.71,1.12,23.61.77a12.59,12.59,0,0,1-2.6-1.07,10.25,10.25,0,0,0-2.66-.93c-7.79-.35-15.57-.31-23.33-1.22-2.56-.3-5.09-.57-7.66-.62-3.83-.06-7.59.45-11.4.53s-7.86.44-11.73-.07l-2.67-.42a8.16,8.16,0,0,0-5.62,0c-2.78.48-5.55,1.06-8.29,1.76a129,129,0,0,1-17.79,3.19l5.24-.66a102.51,102.51,0,0,0,11.51-7.64q4.64-3.33,9.16-6.83c3.71-2.86,7.58-5.63,11.09-8.75a61.56,61.56,0,0,0,8.64-8.82l-4.87,3.5.11.06c.24.14,2.4-1.71,2.45-1.75a9.64,9.64,0,0,0,2.35-1.87,86,86,0,0,0,4.49-8.35c.93-2,1.59-4.1,2.46-6.13a19.9,19.9,0,0,1,6.88-8.87,73.08,73.08,0,0,1,7.4-4.43q2.58-1.73,5.31-3.2c2.14-1.17,4.24-2.4,6.31-3.71a24,24,0,0,1,9-.86,13.25,13.25,0,0,1,5.92,1.5A9,9,0,0,0,155,9.51c0-.11-.29-.56-.24-.7s1.83,0,2.23.1a41.91,41.91,0,0,1,11.27,3.34,45.73,45.73,0,0,1,5.8,3,23.43,23.43,0,0,1,6.41,6.18,12.54,12.54,0,0,1,2.64,5.06L185,30.35a47.23,47.23,0,0,1,2.78,9.16,54,54,0,0,1,1,7.61,15.36,15.36,0,0,1-.49,4.72c-.66,2.8-1.43,5.61-2.29,8.36a14.56,14.56,0,0,1-2.58,5.14l-3.17,2.56a12.79,12.79,0,0,1-2.86,1.81A24.92,24.92,0,0,1,170.85,72c-7.1,1.46-14.42,1.41-21.64,1.34a13.57,13.57,0,0,1,2.13,1.76C151.62,75.33,153.07,76.78,153.57,76.75Z"/><path class="cls-2" d="M154.88,76.25c7.61-.49,15.34-1,22.63-3.39a21.71,21.71,0,0,0,7.62-4.15,15.94,15.94,0,0,0,3.56-4.88,18.56,18.56,0,0,0,1.51-5.46q.84-2.85,1.4-5.76c.27-1.15.48-2.3.64-3.46.25-1.48.45-3,.59-4.45l-.47-2.31A98.58,98.58,0,0,0,190,32.8c-2-6.48-5.06-13.21-9.95-18.07A37.27,37.27,0,0,0,152,5.45c-1.64.22-1.2.19-.19,2,.61,1.09,1.23,2.17,1.92,3.22l1.62-2.07A19.69,19.69,0,0,0,150.07,7l-3.44-.69q-5.7-2.94-7.2,3.92l1.8-2.3-4.83,3.73,2.63-.91c-5.79,1.8-11.7,3.48-17.13,6.24-3.89,2-7.79,4.44-10.46,8-2,2.57-2.78,5.53-3.55,8.61-.36,1.56-.75,3.11-1.18,4.65a31.41,31.41,0,0,1-5.51,10.56l3-2.31c-4.3,2.92-8.4,6-12.56,9.14C81.22,63.37,70.54,70.77,59.73,78l.11,0c8.92-.54,17.81-1.39,26.74-1.82,4.91-.24,9.81-.59,14.72-1a104.74,104.74,0,0,1,11.06-.55c3.21.06,6.35-.3,9.56,0,2.22.21,4.41.56,6.6,1a83,83,0,0,0,9.55,1.31,145.19,145.19,0,0,0,16.16-.16,1.68,1.68,0,0,0-.5-.29c-.67-.32-1.34-.62-2-.92a9.17,9.17,0,0,0-2.58-1.08c-5.24-.26-10.48-.24-15.71-.52-3.27-.17-6.5-.58-9.75-1a56.12,56.12,0,0,0-6.86-.39c-3.49,0-6.94.6-10.42.64-3.11,0-6.17.46-9.26.67-4,.28-8.07.3-12.08.25a21.56,21.56,0,0,0-9,.94q-6.3,1.32-12.66,2.19l.44,0C71,72.76,77.79,68,84.5,62.91c4.13-3.11,8.34-6.15,12.33-9.45a65.46,65.46,0,0,0,7.6-7.1l-3.34,2.32.11.06c.36.18,3.1-2.1,3.35-2.52a60.56,60.56,0,0,0,4.39-8.46c.87-2.14,1.46-4.37,2.29-6.52a27.92,27.92,0,0,1,2.2-4.66,18.5,18.5,0,0,1,4.86-5,46.91,46.91,0,0,1,7.51-4.44A56.44,56.44,0,0,1,131,14.82a53.05,53.05,0,0,0,8.89-4.28L142,9.68a34.89,34.89,0,0,1,6.21-.38,12.28,12.28,0,0,1,5.51,1.35,7.07,7.07,0,0,0,1.62-2.07,9.8,9.8,0,0,1-.39-.9c0-.4-.16-.08.32-.22,1-.27,3.73.44,4.54.61a43.34,43.34,0,0,1,4.77,1.23,39.59,39.59,0,0,1,13.88,7.75A22.45,22.45,0,0,1,182,21.28a13.45,13.45,0,0,1,2.59,5.23,57.18,57.18,0,0,1,3.57,9.5,55.46,55.46,0,0,1,1.41,8.39,19.67,19.67,0,0,1-.06,6.08c-.6,2.6-1.28,5.24-2.08,7.78a18.3,18.3,0,0,1-2.56,5.82A4.76,4.76,0,0,1,182.76,66l-3.21,2.35a22.74,22.74,0,0,1-6,2.44c-7.3,1.91-15.15,1.68-22.62,1.57a17.36,17.36,0,0,1,1.92,2C153,74.51,154.46,76.27,154.88,76.25Z"/><path class="cls-2" d="M154,75.93c8.49-.62,17.6-1.14,25.49-4.71a17.27,17.27,0,0,0,7.83-6.71,21.2,21.2,0,0,0,2.16-7.2,56.36,56.36,0,0,0,1.23-5.74c.31-1.69.58-3.37.8-5.07.43-3.33.48-2.2-.18-5.24-1.59-7.31-3.65-14.65-7.62-21.08a30.17,30.17,0,0,0-8-9.15,34.5,34.5,0,0,0-9.58-4.82A38.59,38.59,0,0,0,151.8,4.38a11.29,11.29,0,0,0-2,.26c-.87.1-.89.47,0,1.11a21.55,21.55,0,0,0,2.81,3.64l.6-1c-1.21-.61-2.13-.39-3.46-.1-3.34.74-6.66,1.51-10.06,1.92a58.93,58.93,0,0,0-19.46,5.91c-5.37,2.74-10.37,6.44-12.67,12.2a55.17,55.17,0,0,0-1.84,6.84,37.7,37.7,0,0,1-6.08,12.75L101.69,46c-1.53.67-2.86,2.09-4.25,3.1C95.71,50.4,94,51.7,92.3,53,81.21,61.43,69.75,69.36,58.18,77.11c-.11,0-.11.08,0,.07q11.34-.72,22.69-.67c1.75-.12,3.5-.26,5.25-.43,4.84-.42,9.69-.81,14.53-1.29a83.15,83.15,0,0,1,9.85-.68c3.47.07,6.91-.31,10.39,0,2.2.22,4.37.59,6.54,1A80.31,80.31,0,0,0,137,76.48a144.67,144.67,0,0,0,16.13-.13,6.25,6.25,0,0,0-1.35-.52c-7.05.13-14.14.4-21.15-.61-4.5-.65-8.9-1.7-13.48-1.75a122.14,122.14,0,0,0-15.76,1,213,213,0,0,1-27.19,1.72c-3.3,0-10.72,2-6.78-3.68q1.42-.93,2.79-1.95,3.76-2.62,7.47-5.32c5.57-4.06,11.2-8.11,16.56-12.45a87.21,87.21,0,0,0,7-6.17l-2.33,1.62c2.29-.74,3.63-3.22,4.71-5.16A53.21,53.21,0,0,0,107,35.34a59.27,59.27,0,0,1,3.29-8.48c3.81-7.07,12.65-11.11,19.83-13.55q3.39-1.11,6.85-1.94c2-.36,4-.64,6-.84a17.36,17.36,0,0,1,6.56-1.62,6.88,6.88,0,0,1,3,.48c.16,0,.65-.83.6-1a15.92,15.92,0,0,1-.55-1.6c-.13-.6-.28-.58.34-.76a8.13,8.13,0,0,1,2.46.07,43.56,43.56,0,0,1,18,5.73l2.94,2a16.12,16.12,0,0,1,4.82,5.71,51,51,0,0,1,5.73,10.67c1.78,4.83,3.44,10.09,3.44,15.26,0,5-1.19,10.12-2.46,14.94-1.08,4.11-2.39,5.24-5.26,7.55a20.8,20.8,0,0,1-7.43,4c-7.15,2.17-14.59,2.71-22,3.12C153.1,75.13,153.72,76,154,75.93Z"/><path class="cls-2" d="M153.27,76.17c7.62-.44,15.33-.92,22.64-3.3,4.81-1.56,8.9-4.37,11.23-8.92a19.24,19.24,0,0,0,1.67-5.5c.56-3.11,1.44-6.14,1.94-9.27.26-1.47.46-3,.6-4.45l-.46-2.32a94.48,94.48,0,0,0-2.37-9.66c-2.07-6.48-5.09-13.21-10-18.06A33.56,33.56,0,0,0,163,6.47a31.81,31.81,0,0,0-12.43-.88c-1.64.25-1.28.24-.2,2.12.67,1.16,1.38,2.27,2.13,3.38l2.57-1.75a48.23,48.23,0,0,0-6.69-3l-4.56-1.74q-8.82-6.13-6.23,5.7l1.2-5.2-4.11,6.39L139.21,8l-11.64,6-3.64,1.42a51.83,51.83,0,0,0-6.88,3.52c-3.64,2.27-7,5.17-8.78,9.17C107,30.91,106.55,34,105.72,37a38.46,38.46,0,0,1-6,11.73l4.17-3.47c-4.61,3.42-9.22,6.84-13.8,10.31C79.77,63.4,69.05,70.77,58.26,78h.17c8.11-.49,16.18-1.4,24.29-1.93,4.16-.26,8.33-.47,12.49-.68,4.57-.22,9.17-.9,13.74-.83l2,.05a60.82,60.82,0,0,1,16,.94L129,76c7.81,1.42,15.71,1.12,23.6.78a10.67,10.67,0,0,1-2.33-1,9.18,9.18,0,0,0-2.39-.84c-7.8-.32-15.57-.26-23.32-1.24a73.13,73.13,0,0,0-8.87-.71c-3.57,0-7.11.41-10.67.52-3.09.1-6.18.38-9.27.34-3.8-.06-7.55-.61-11.35-.63a16.86,16.86,0,0,0-8.11,1.17,152.79,152.79,0,0,1-16.44,3.3L64.33,77A245.59,245.59,0,0,0,85,62.47c3.7-2.86,7.55-5.63,11-8.76A56.46,56.46,0,0,0,104.43,45l-4.79,3.7.12.07c.24.12,2.35-1.82,2.4-1.85a10.3,10.3,0,0,0,2.3-2,115.25,115.25,0,0,0,6.69-13.56c1.5-3.45,3.36-6.64,6.41-8.95,4.75-3.58,10.34-6.13,15.63-8.78a11.41,11.41,0,0,1,8.86-4,35.15,35.15,0,0,1,4.59,0,14.09,14.09,0,0,1,5.9,1.54,8.53,8.53,0,0,0,2.57-1.75,4.51,4.51,0,0,0-.38-.73c-.26-.14-.22-.18.13-.12l.86.07A40.71,40.71,0,0,1,165.5,11c4.93,1.91,10.09,4.48,13.47,8.67l2.2,3c.72,1.82,1.53,3.61,2.41,5.36A44.11,44.11,0,0,1,187,37.3q.75,3.23,1.21,6.5c.17,1.23.29,2.47.36,3.71a7.16,7.16,0,0,1-.46,3.65c-.5,2.22-1,4.44-1.55,6.64a16.24,16.24,0,0,1-2.4,6.18c-1.33,1.93-3.47,3.3-5.41,4.61a20.75,20.75,0,0,1-6.15,2.6c-7.48,2-15.45,1.9-23.13,1.84a12.22,12.22,0,0,1,1.87,1.63C151.54,74.85,152.82,76.19,153.27,76.17Z"/><path class="cls-2" d="M154.54,75.59C162,75,169.71,74.33,176.9,72c4.78-1.57,9-4.45,11.27-9a19.74,19.74,0,0,0,1.63-5.76c.51-3.11,1.34-6.16,1.81-9.29.25-1.48.44-3,.57-4.45l-.48-2.36a85.57,85.57,0,0,0-2.45-9.64c-2.15-6.46-5.18-13.17-10.11-18-4.27-4.19-9.81-6.73-15.54-8.23A31.91,31.91,0,0,0,151,4.3c-1.67.25-1.29.24,0,2.05a19.49,19.49,0,0,0,2.25,2.79l.81-1.09A4.77,4.77,0,0,0,150.6,8c-3.41.76-6.82,1.54-10.29,2a58.76,58.76,0,0,0-19.51,5.88c-5.37,2.73-10.4,6.41-12.69,12.17a55.62,55.62,0,0,0-1.87,6.83,38.68,38.68,0,0,1-6.07,12.78l2-1.75a31,31,0,0,0-4.12,3c-2.08,1.51-4.12,3.09-6.17,4.64C81.08,61.62,70,69.31,58.77,76.81c-.11,0-.1.08,0,.07q7.74-.61,15.52-.61,3.54.12,7.08,0c5.61-.33,11.25-1,16.85-1.56a108.72,108.72,0,0,1,12.74-1c3.45.08,6.84-.3,10.28,0,2.93.26,5.78.86,8.66,1.39,7.82,1.43,15.69,1.13,23.59.82-.23,0-1.42-.85-2-.85-6.63,0-13.24.17-19.84-.59-4.11-.47-8.13-1.42-12.27-1.66-6.51-.37-13,.43-19.49,1.23-2.4.3-4.8.56-7.21.83l-6.21.7-11.76.25c-5.1,0-9.6,1.93-6.85-3.66,0,.07,10-7,10.25-7.25,5.57-4.05,11.14-8.13,16.53-12.4a81.09,81.09,0,0,0,7-6.08l-2.21,1.49a7.1,7.1,0,0,0,2.74-2,44.08,44.08,0,0,0,3.25-5.76,32.92,32.92,0,0,0,1.6-3.83c1.2-3.28,2.11-6.7,3.78-9.78a19.64,19.64,0,0,1,4.46-5.39c5.31-4.68,12.4-7.44,19.12-9.24l3.41-.86q3-.54,6.12-.84a17.4,17.4,0,0,1,6.34-1.61,6.38,6.38,0,0,1,3,.52c.17,0,.87-.92.81-1.09-.15-.49-.4-1-.5-1.49s-.24-.51.38-.63a9.56,9.56,0,0,1,2.5.19,42.47,42.47,0,0,1,5.48,1.08,43.44,43.44,0,0,1,12.39,5.4,26.91,26.91,0,0,1,6.58,6.15,8.43,8.43,0,0,1,2,3.26q1.26,2.8,2.71,5.52a60.47,60.47,0,0,1,4.29,15.14c.14.8.26,1.6.34,2.4a6.74,6.74,0,0,1-.28,3.66c-.41,2.24-.74,4.5-1.18,6.73-1.22,6.14-3.22,9.93-7.66,12.9a21.85,21.85,0,0,1-6.41,3c-7,2-14.4,2.36-21.67,2.68C153.37,74,154,75.64,154.54,75.59Z"/><path class="cls-2" d="M154,77.17c8.1-.5,16.5-1,24.14-4,4.63-1.83,8.69-4.88,10.49-9.68a50.58,50.58,0,0,0,1.59-6.42c.69-2.9,1.23-5.83,1.66-8.78a6.55,6.55,0,0,0,.12-4c-.27-1.35-.54-2.71-.82-4.06a79.13,79.13,0,0,0-2.43-8.71,44,44,0,0,0-8.08-14.76,32.18,32.18,0,0,0-17-9.85,36.69,36.69,0,0,0-12-.91,3.65,3.65,0,0,0-1.47.3c-.84.2-.64.78.57,1.73.6,1.07,1.2,2.13,1.85,3.17l.67-2a8.25,8.25,0,0,0-4.33-.44,47.68,47.68,0,0,0-5.82.72,35.1,35.1,0,0,1-9.55,3.65q-2.79.66-5.5,1.58a56.47,56.47,0,0,0-7.22,3c-5.22,2.76-10.59,6.36-12.64,12.19a51.81,51.81,0,0,0-1.51,5.66,36.77,36.77,0,0,1-6.39,14l2.87-2.16c-4.33,2.8-8.37,5.87-12.5,9-10.4,7.8-21.09,15.2-31.9,22.41a.74.74,0,0,0,.39,0c13.83-.74,27.63-1.31,41.41-2.68a102.29,102.29,0,0,1,10.64-.65c3.29,0,6.52-.29,9.81,0,2.93.24,5.79.83,8.67,1.34,7.87,1.39,15.78,1.14,23.74.78a10.15,10.15,0,0,1-2-.78,8.08,8.08,0,0,0-2.08-.64c-5.29-.16-10.58-.12-15.86-.44-3.53-.21-7-.71-10.52-1.14a58.19,58.19,0,0,0-11.43-.22c-3.84.27-7.66.51-11.49,1-4.48.56-9,1.37-13.5,1.48-8.19.19-16.31.52-24.46,1.47h.4c7.12-4.47,14-9.27,20.71-14.31,3.74-2.8,7.57-5.53,11.21-8.47a98.37,98.37,0,0,0,9-8.15l-3.23,2.16.11.07c.31.18,3-2,3.24-2.36a57.63,57.63,0,0,0,5.88-12.85c1-3.26,2-6.68,4.36-9.28,3.19-3.55,7.47-5.94,11.78-7.87a78.36,78.36,0,0,1,8.7-3.26l3.5-1a8.78,8.78,0,0,0,2.8-1.86l-1.76.6c4.22-1.1,9.63-2.65,13.79-.56a6.51,6.51,0,0,0,.67-2c-.15-.42-.36-.84-.51-1.26s-.19-.31.06-.59,2.24-.08,2.7-.07a41.32,41.32,0,0,1,4.31.39,37.11,37.11,0,0,1,14.28,5.35,28,28,0,0,1,5.78,4.79l4.29,6.71a40.85,40.85,0,0,1,2.72,5.85,52.25,52.25,0,0,1,2.32,7.45,38.37,38.37,0,0,1,1.3,8l-1.1,8.1-.85,3.59-1.9,5.63a8.35,8.35,0,0,1-2.81,3.62,23.47,23.47,0,0,1-11.23,6c-7.14,1.73-14.63,1.71-21.92,1.73A11.65,11.65,0,0,1,152.27,76C152.51,76.14,153.58,77.2,154,77.17Z"/><path class="cls-2" d="M154.85,75.51c7.58-.5,15.28-1,22.56-3.4,4.81-1.58,9-4.42,11.21-9a18.49,18.49,0,0,0,1.53-5.54q.82-2.86,1.36-5.81c.26-1.15.47-2.3.62-3.47.25-1.47.44-3,.58-4.45l-.48-2.33a93,93,0,0,0-2.38-9.61c-2.09-6.48-5.11-13.2-10-18a33.91,33.91,0,0,0-15.44-8.2,33.6,33.6,0,0,0-12.66-1c-1.66.23-1.24.21-.09,2a35.75,35.75,0,0,0,2.05,3l1.22-1.51a8.63,8.63,0,0,0-4.4-.49c-1.42.08-2.82.22-4.23.4a26,26,0,0,0-10.14,3c-6.22,1.7-12.41,3.39-17.91,6.93a25.2,25.2,0,0,0-7.1,6.1,19.88,19.88,0,0,0-3,6.36c-.54,1.92-1,3.86-1.48,5.78a37,37,0,0,1-5.75,11.63L103,46.1c-3.52,2.49-7,5.06-10.41,7.66C81.86,61.89,70.77,69.59,59.54,77.08c-.11,0-.11.07,0,.07,11.82-.73,23.68-.89,35.48-2.05,4.64-.46,9.31-1.1,14-1.24a113.17,113.17,0,0,1,22.59,1.55c7.44,1.27,15,.92,22.51.6a9.55,9.55,0,0,1-1.81-.9,6.24,6.24,0,0,0-1.87-.76c-7-.23-14.06,0-21-.89-4.68-.58-9.21-1.37-14-1.2q-7.9.28-15.74,1.28c-2.23.29-4.46.62-6.69.92a124,124,0,0,1-12.93.88c-2.8,0-5.6.1-8.4.13a25.67,25.67,0,0,0-3,0q-.85-3.83,3-5,3.8-2.66,7.55-5.37c6.25-4.54,12.56-9.08,18.5-14a61.63,61.63,0,0,0,5.4-4.94L100.64,48h.26c.27.13,2.28-1.73,2.39-1.92a57.27,57.27,0,0,0,4.41-8.43c.61-1.54,1.07-3.12,1.6-4.69,1.49-4.34,3.33-8.47,7-11.44A40.31,40.31,0,0,1,125,16.07l10.48-3.9a15,15,0,0,0,3.57-1l3.52-1.67a33.59,33.59,0,0,1,4.58-.61,12.39,12.39,0,0,1,6.5.74,3.82,3.82,0,0,0,1.22-1.51,6.39,6.39,0,0,1-.44-1.2c0-.53-.14-.3.38-.42,1.12-.25,3.66.4,4.63.59a40.18,40.18,0,0,1,4.8,1.22,39.74,39.74,0,0,1,13.85,7.62,21.92,21.92,0,0,1,3.53,4.16,13.1,13.1,0,0,1,2.63,5.14A59.09,59.09,0,0,1,188,34.61a60.1,60.1,0,0,1,1.62,8.29,19.51,19.51,0,0,1,.16,6.05c-.5,2.63-1.08,5.31-1.74,7.9A21.12,21.12,0,0,1,185.8,63a18,18,0,0,1-5,4.62,21.12,21.12,0,0,1-5.94,2.75c-7.34,2.17-15.23,2.11-22.8,2.11A17.54,17.54,0,0,1,153.41,74C153.53,74.17,154.53,75.53,154.85,75.51Z"/><path class="cls-2" d="M154.43,77.4C162,76.91,169.82,76.48,177,74c4.15-1.42,8.52-3.79,10.78-7.74,2.79-4.85,3.48-10.75,4.35-16.2a31,31,0,0,0,.6-4.54,58.09,58.09,0,0,0-1.44-7,61.8,61.8,0,0,0-6.46-16.75,30.88,30.88,0,0,0-14.63-13,35.73,35.73,0,0,0-14.91-3.1,16.49,16.49,0,0,0-5.68.7c-.05,0-.06,0,0,.06.64,1.49,1.36,2.92,2.12,4.35l-.22-1.11c-2.23-1-4.88.92-7,1.6l-3,.85a59.24,59.24,0,0,0-6.24.54,52.3,52.3,0,0,0-19.41,8.11,19.63,19.63,0,0,0-7.7,9.36c-1.07,3-1.45,6.13-2.31,9.15a35.73,35.73,0,0,1-5.44,10.55l1.69-1.21a12.91,12.91,0,0,0-3,1.84c-2.07,1.41-4,3-6.06,4.45-11.15,8.36-22.6,16.32-34.2,24.05-.13.09.16.07.16.07a374.81,374.81,0,0,0,39.34-2.23,105.79,105.79,0,0,1,12.82-1c3.43.06,6.81-.3,10.25,0,2.92.24,5.77.83,8.65,1.34,7.83,1.39,15.69,1.14,23.61.81.35,0-.88-.39-.72-.33a8.2,8.2,0,0,0-2.21-.63c-7.41-.12-14.85,0-22.21-1a77.4,77.4,0,0,0-12.43-1.11,154.66,154.66,0,0,0-17.47,1.57c-6.9.93-13.78,1.53-20.73,1.9-3.82.2-7.64.39-11.46.55l.07-4q4-2.72,7.93-5.49Q77.83,67,81.21,64.5c7-5.07,14.08-10,20.64-15.65l-1.76,1h.29c.21.12,1.67-1.06,1.76-1.21a42.4,42.4,0,0,0,4.36-8.37c.65-1.87,1.16-3.77,1.64-5.69a43.17,43.17,0,0,1,1.55-5.24c1.59-4.14,5.24-7.39,8.94-9.62a55.72,55.72,0,0,1,8.43-4.12,38.72,38.72,0,0,1,5.44-1.85l6.62-1a4.32,4.32,0,0,0,4.25-.64,10.57,10.57,0,0,1,3.73-1.46,8.5,8.5,0,0,1,4.72.19,9,9,0,0,0-.22-1.11c-.2-.49-.39-1-.59-1.46l-.35-.8,1.39-.92,1.65-.15a29.64,29.64,0,0,1,3.4-.07,28.16,28.16,0,0,1,5.47.7,36.15,36.15,0,0,1,12.81,5.39c5.33,3.51,8.83,8.77,11.4,14.54a60.89,60.89,0,0,1,4.36,14.77,32.2,32.2,0,0,1,.74,5.44,32,32,0,0,1-1.11,5.95c-1.47,6.71-3.74,13.92-10,17.59a14.86,14.86,0,0,1-7.57,2.36A27.66,27.66,0,0,1,164.52,75c-4.17.42-8.32.45-12.51.49a12.43,12.43,0,0,1,1.16,1C153.37,76.66,154.11,77.42,154.43,77.4Z"/><path class="cls-2" d="M153.71,76.24c7.49-.65,15.16-1.26,22.35-3.6,4.78-1.55,9.1-4.43,11.36-9,1.5-3.05,2-6.46,2.6-9.77.53-2.74,1-5.51,1.31-8.29a10.43,10.43,0,0,0-.31-3.8,86.66,86.66,0,0,0-2.47-9.7c-2.15-6.48-5.19-13.2-10.13-18a33.33,33.33,0,0,0-15.61-8.21A32.24,32.24,0,0,0,150.33,5c-1.68.27-1.28.25-.05,2.12.68,1,1.39,2.06,2.16,3l1.18-1.35c-1.74-1-3.84-.85-5.8-.85-1.54,0-3.07,0-4.6.09a15.38,15.38,0,0,0-5.36,2.44l2.54-.87c-6.22,1.91-12.6,3.37-18.54,6.1-4.4,2-9.28,4.73-12.13,8.79a24.91,24.91,0,0,0-3.54,8.65c-.49,2-.94,3.92-1.59,5.83a38.9,38.9,0,0,1-5,9.23l2.7-2.39C87.9,57,73.08,67.47,58,77.57h.12c9.05-.6,18.1-.9,27.15-1.34,5-.25,9.88-.73,14.81-1.22A99.42,99.42,0,0,1,111,74.4c2.25-.15,4.51-.22,6.77-.18a48.68,48.68,0,0,1,5,.41c2.85.37,5.65,1.05,8.49,1.48,7.09,1.06,14.27.73,21.4.45-.29,0-1.63-.86-2.28-.87-5.28,0-10.57.1-15.85-.26-3.22-.23-6.37-.7-9.55-1.2a58.8,58.8,0,0,0-9.28-.79c-2.71,0-5.4.31-8.1.38-3.82.1-7.63.71-11.41,1.16-2.27.27-4.53.52-6.79.77q-5,.06-9.91,0c-3.8,0-7.61,0-11.41-.07a44.58,44.58,0,0,0-6.18,1l.47,0c7.09-4.5,13.9-9.32,20.6-14.38,4.12-3.11,8.31-6.15,12.24-9.5a67,67,0,0,0,7.17-6.82l-3.22,2.43a.25.25,0,0,1,.36,0c.27.15,2.94-2.42,3.07-2.64a62.64,62.64,0,0,0,5.37-10.78c1.21-3.32,2.3-6.91,4.5-9.75,2.62-3.39,6.3-5.73,10.08-7.67A76.35,76.35,0,0,1,131,13.83l6.9-2.41a8.74,8.74,0,0,0,2.72-1.77l-2.54.88c4.65-1.07,9.81-2.3,14.32-.35.16.06,1.24-1.17,1.18-1.35-.13-.35-.81-1.55-.64-1.86.08-.16,1.2,0,1.33,0a29.73,29.73,0,0,1,3.26.32,44.51,44.51,0,0,1,9.81,2.66,39.79,39.79,0,0,1,6,2.88,26.35,26.35,0,0,1,6.76,6A38.37,38.37,0,0,1,184,25.6,47.89,47.89,0,0,1,187.13,33,66.28,66.28,0,0,1,189,39.79c.23,1,.42,2,.57,3a10.19,10.19,0,0,1-.13,5.28,34.6,34.6,0,0,1-.69,5.75,15.61,15.61,0,0,1-2.93,7.49,8.8,8.8,0,0,1-3.51,6.4,9.17,9.17,0,0,1-2,1.45,14.06,14.06,0,0,1-7.47,2.54,26.75,26.75,0,0,1-8.61,2.09c-4.13.48-8.24.66-12.39.83,0,0,.89.86.9.87S153.45,76.26,153.71,76.24Z"/><path class="cls-2" d="M155.36,76.15a134,134,0,0,0,15.22-1.61,39.64,39.64,0,0,0,10.33-3,20.73,20.73,0,0,0,5.59-3.9,16.58,16.58,0,0,0,3.35-5.24,16,16,0,0,0,1-4.48l.93-3.9q.54-2.62.92-5.27c.25-1.48.44-3,.58-4.45a55.77,55.77,0,0,0-1.47-6.88,63.66,63.66,0,0,0-3.52-10.77c-3-6.86-7.28-13.33-14-17a39.3,39.3,0,0,0-15.26-4.78,23.5,23.5,0,0,0-7.71.21c-1.16.31-.74.24.13,1.82a28.86,28.86,0,0,0,1.64,2.72l0-1.09c-1.54-.93-3.2-.9-5-.94-2.22,0-4.44.06-6.66.17l-5.49,4s-7.41,1.82-7.34,1.79a48.13,48.13,0,0,0-12,6,22.21,22.21,0,0,0-6.21,6.16,21.15,21.15,0,0,0-2.6,6.66c-.57,2.37-1.06,4.76-1.85,7.08A36.74,36.74,0,0,1,101,48.71l1-.75a4.91,4.91,0,0,0-1.39.74,54.65,54.65,0,0,0-5.11,3.54c-11.69,8.91-23.79,17.27-36,25.44,0,0,0,.06,0,.07a107.39,107.39,0,0,0,15.84-.36q6-.3,12-.79c4.88-.37,9.73-.94,14.6-1.46a90.15,90.15,0,0,1,10.51-.67c3.29,0,6.52-.3,9.82,0,2.93.24,5.78.84,8.67,1.36,7.85,1.42,15.77,1.15,23.71.79-.25,0-.89-.45-1.17-.56a5.77,5.77,0,0,0-1.85-.73c-7-.16-14.14.09-21.15-.83-3.71-.49-7.3-1.15-11-1.3s-7.43.33-11.16.49a62.25,62.25,0,0,0-6.92.85c-2.13.33-4.27.69-6.41,1-4.23.66-8.48,1-12.76,1.29l-6.95.41q-9.14,4.33-8.51-3.72l5.45-3.76q3.54-2.45,7-5c5.6-4,11.2-8,16.66-12.22,1.35-1,2.73-2,4.1-3.07l.8-.6c.6-.45.65-.5.16-.15.17.1,1-.62,1.06-.74a44.15,44.15,0,0,0,4.49-8.27,67.15,67.15,0,0,0,2.06-7A30,30,0,0,1,111,26.29c1.55-2.83,4.3-5.08,6.93-6.83a33.63,33.63,0,0,1,4.84-2.86,29.22,29.22,0,0,1,7.1-2.76A32.37,32.37,0,0,1,137.1,12a12.79,12.79,0,0,0,1-.8c2.4-1.91,5.48-2,8.43-2.22a15.25,15.25,0,0,1,6.62.61c.09,0,.06-1,0-1.09L152.7,7.2c-.62-.93-.18-1.38,1.33-1.34a35.7,35.7,0,0,1,15.21,3,38.71,38.71,0,0,1,6.17,3.35,24,24,0,0,1,5.69,5A63.77,63.77,0,0,1,187.16,28,53.35,53.35,0,0,1,191,42.31c.65,4.92-.29,9.61-1.46,14.37a17.78,17.78,0,0,1-2.79,7.45,38.58,38.58,0,0,1-4.62,4.24c-3.18,2.28-7,3.33-10.77,4-6,1.11-12.18,1.17-18.29,1.23.05,0,1.08,1.3,1.09,1.31S155.07,76.17,155.36,76.15Z"/><path class="cls-2" d="M154.42,75.68c7.64-.45,15.4-.92,22.72-3.35a21.65,21.65,0,0,0,7.62-4.16,15.53,15.53,0,0,0,3.55-4.93,18.69,18.69,0,0,0,1.43-5.44Q190.6,55,191.16,52a31.42,31.42,0,0,0,.64-3.46c.25-1.49.45-3,.58-4.47l-.48-2.31a98.73,98.73,0,0,0-2.38-9.59c-2.08-6.5-5.09-13.18-10-18-4.21-4.13-9.71-6.62-15.37-8a31.84,31.84,0,0,0-12.4-.86c-1.65.25-1.11.27-.14,2.12.61,1.15,1.22,2.28,1.89,3.39l3.22-1.56A80.66,80.66,0,0,0,148.47,6l-5.66-2q-11.09-7.2-7,6.82l3.62-5.41-7,6.52,4.51-3Q129.42,13,121.61,16.6a41.71,41.71,0,0,0-6.43,4,18.52,18.52,0,0,0-6.11,8.05c-1.08,2.92-1.48,6-2.43,9A39.57,39.57,0,0,1,101,48.24L105.11,45c-4.68,3.28-9.24,6.64-13.79,10.09C81,63,70.25,70.33,59.45,77.56h.16c13.73-.85,27.39-2.4,41.11-3.21A104.22,104.22,0,0,1,111.17,74c3.46.13,6.89-.25,10.35.06,2.23.21,4.42.56,6.61,1a81.05,81.05,0,0,0,9.56,1.31,143,143,0,0,0,16.17-.17,2.12,2.12,0,0,0-.57-.36q-1.14-.6-2.28-1.17c-.68-.35-2.06-1.36-2.92-1.41-5.23-.27-10.46-.23-15.7-.5-3.28-.17-6.53-.56-9.79-.92a55.42,55.42,0,0,0-6.94-.33q-3,.1-5.94.25a16,16,0,0,1-4.52.25c-3-.16-6.06-.19-9.06-.54l-4-.64a5.1,5.1,0,0,0-5.13.55,35.65,35.65,0,0,1-8.64,2.35Q69.81,75.82,61,77.2l4.41-.7C72.57,72,79.37,67.15,86.05,62c3.7-2.85,7.49-5.63,11-8.69a54.56,54.56,0,0,0,8.54-8.58l-4.76,3.43.11.05c.29.13,2.31-1.65,2.39-1.71a9.86,9.86,0,0,0,2.3-1.83,88.05,88.05,0,0,0,4.54-8.39c.94-2,1.63-4.17,2.56-6.22A20.42,20.42,0,0,1,120,21.16a78,78,0,0,1,7.53-4.32q2.61-1.75,5.37-3.27A35.78,35.78,0,0,0,138.43,10a23.09,23.09,0,0,1,9-.78,13.86,13.86,0,0,1,6,1.61c.31.18,3.24-1.52,3.22-1.56-.9-2.27-.52-.66-5.51-3.35l4.87,2.8a41.65,41.65,0,0,1,17.72,6.67,22,22,0,0,1,6.17,5.6l1.95,3,1.39,3.55a58.11,58.11,0,0,1,3.34,9.23,57.94,57.94,0,0,1,1.29,8.07,34.41,34.41,0,0,1,.19,4.54c-.27,1.35-.59,2.69-.95,4-.26,1.06-.56,2.12-.89,3.16-1,3.41-1.93,7-5.07,9a5.55,5.55,0,0,0-2.1,1.16,7.44,7.44,0,0,1-1.84,1.14A23.15,23.15,0,0,1,171,70c-6.94,1.39-14.13,1.19-21.16,1.08a18.15,18.15,0,0,1,2.22,2.35C152.29,73.63,154,75.71,154.42,75.68Z"/><path class="cls-2" d="M154,76.61c7.64-.48,15.41-1,22.73-3.41A21.5,21.5,0,0,0,184.32,69a15.3,15.3,0,0,0,3.49-4.89,18.64,18.64,0,0,0,1.43-5.37c.57-1.89,1-3.81,1.42-5.74.27-1.14.48-2.29.64-3.45q.39-2.2.6-4.44l-.48-2.28c-.67-3.2-1.35-6.44-2.33-9.57-2-6.48-5-13.2-9.93-18-4.2-4.16-9.72-6.69-15.38-8.15a32.13,32.13,0,0,0-12.38-.93c-1.6.24-1.18.22-.28,2.05.58,1.19,1.17,2.36,1.8,3.52l3.5-1.93c-3.11-1.22-6.37-2.18-9.56-3.14l-6.66-2q-12.82-7.57-8.47,8.16l3.17-4.63-6.53,5.91.63-.32c-7.7,3.43-17.26,7.22-20.43,15.78-1.09,2.94-1.48,6.09-2.43,9.07a39,39,0,0,1-5.66,10.56l5-3.6c-3.3,2.19-6.58,4.28-9.76,6.62-2.55,1.89-5,3.88-7.59,5.78C78.64,65.12,68.85,71.86,59,78.48l.19,0c9.13-.53,18.27-1,27.36-2.14q6.92-.84,13.87-1.25c3.45-.2,6.94-.37,10.39-.23s6.91-.24,10.38.09c2.23.21,4.43.57,6.63,1a80.6,80.6,0,0,0,9.55,1.31,142.82,142.82,0,0,0,16.16-.19,2.38,2.38,0,0,0-.66-.37l-2.59-1.18c-.83-.37-2.32-1.35-3.31-1.4-7.79-.42-15.58-.37-23.35-1.16a75.08,75.08,0,0,0-7.8-.49q-2,0-4,.12-3.72.1-7.43.25a82.55,82.55,0,0,1-8.69-1.62L94.45,71l-3.32-.59a31.16,31.16,0,0,1-11.94,4.68,171.46,171.46,0,0,1-19.51,3.25l6.07-.63A100.4,100.4,0,0,0,77.25,70q4.64-3.35,9.15-6.86c4.15-3.22,8.38-6.36,12.25-9.92a47.16,47.16,0,0,0,7.47-7.93l-5.75,3.84.11.06c.28.16,2.81-1.87,2.88-1.92.68-.47,2.32-1.27,2.8-2.05a77.77,77.77,0,0,0,5.54-10.49,45.81,45.81,0,0,1,3.15-7,20.87,20.87,0,0,1,6.35-6.06,47.41,47.41,0,0,1,6.38-3.85q3.35-3.24,7-6.22l-6,2.51a83.52,83.52,0,0,0,9.12-3.34,10.83,10.83,0,0,1,5.94-.93c3.24,0,6.49.2,9.31,1.89.31.19,3.52-1.9,3.5-1.93-.85-2-2.71-3-5.58-3.05l4.88,2.79c5.63.55,11.15,2.86,16.1,5.5a23.5,23.5,0,0,1,6.62,5.14A13.42,13.42,0,0,1,180.57,23,13.68,13.68,0,0,1,183,28a63.73,63.73,0,0,1,3,7.54,48.74,48.74,0,0,1,1.58,8.48,49.05,49.05,0,0,1,.3,5.14c0,2.16-.88,4.46-1.5,6.48l-1,3.37L184,62.66a9.58,9.58,0,0,1-3.42,3.62A39,39,0,0,1,176.33,69,26.43,26.43,0,0,1,170,71.06c-7,1.42-14.34,1.11-21.42,1a2.66,2.66,0,0,0,.53.53l2.15,1.82C151.52,74.62,153.43,76.65,154,76.61Z"/><path class="cls-2" d="M153.48,75.79c7.6-.45,15.31-.92,22.6-3.3a21.68,21.68,0,0,0,7.63-4.12,15.92,15.92,0,0,0,3.57-4.8,18.53,18.53,0,0,0,1.56-5.44,58.21,58.21,0,0,0,1.41-5.83c.27-1.15.48-2.3.64-3.47.25-1.48.45-3,.59-4.45L191,42.06a93.25,93.25,0,0,0-2.36-9.63c-2.07-6.48-5.09-13.2-10-18a33.41,33.41,0,0,0-15.44-8.21,31.7,31.7,0,0,0-12.41-.89c-1.62.25-1.3.26-.2,2.13.69,1.17,1.43,2.28,2.21,3.39l2.94-1.64a57.27,57.27,0,0,0-6.88-3.32l-4.7-2Q134.88-3,137.83,9.9l1.31-5.67-4.2,6.93,4.76-3.84-8.17,4.86,3.84-1.59c-6.07,2.41-12.52,4.47-18.1,7.94-3.63,2.26-7,5.16-8.76,9.15-1.24,2.85-1.72,5.93-2.56,8.91a38.62,38.62,0,0,1-6,11.75l4.23-3.59c-15,11.36-30.1,22.43-45.72,32.89h.17c9-.55,17.86-1.55,26.81-2.15,4.77-.31,9.56-.45,14.32-.78,3.74-.26,7.4-.56,11.14-.48,3.21.07,6.36-.3,9.58,0,2.22.2,4.41.55,6.61,1a80.58,80.58,0,0,0,9.55,1.3,147.3,147.3,0,0,0,16.14-.13,11.76,11.76,0,0,1-2.45-1.1,9.27,9.27,0,0,0-2.5-1c-5.25-.24-10.51-.21-15.76-.52-3.25-.19-6.45-.6-9.68-1a57.35,57.35,0,0,0-6.8-.43c-3.49,0-7,.51-10.44.54-2.46,0-4.91.19-7.37.25-4.44.11-8.74-.88-13.15-.8a17,17,0,0,0-8,1.31,153,153,0,0,1-16.55,3.61l4.62-.81A250.07,250.07,0,0,0,85.36,61.93c3.7-2.85,7.53-5.62,11-8.75a53.13,53.13,0,0,0,8.35-8.74l-4.85,3.84.11.06c.26.12,2.38-1.88,2.44-1.92a10.51,10.51,0,0,0,2.33-2A94.67,94.67,0,0,0,109.26,36c.8-1.72,1.45-3.5,2.23-5.23,1.56-3.45,3.5-6.62,6.6-8.9,4.8-3.54,10.4-6.06,15.7-8.76a10.18,10.18,0,0,1,8.45-4,32.38,32.38,0,0,1,4.62,0,14.44,14.44,0,0,1,6,1.61c.27.15,3-1.53,2.94-1.64-.26-.76-.13-.53-1.13-1.08l.55.35a25.18,25.18,0,0,1,5.23,1.08,62.35,62.35,0,0,1,10.85,4.34,24,24,0,0,1,6.67,5,14,14,0,0,1,2.21,2.75,12.39,12.39,0,0,1,2.47,5,69.21,69.21,0,0,1,3.18,7.47,52.54,52.54,0,0,1,1.83,8.43c.25,1.71.45,3.43.54,5.17.11,2.17-.71,4.49-1.22,6.56-.59,2.39-1,5.15-2,7.4a10,10,0,0,1-3.28,4,32.6,32.6,0,0,1-4.24,3A24.9,24.9,0,0,1,171,71c-7,1.58-14.36,1.41-21.49,1.34a14.45,14.45,0,0,1,1.93,1.81C151.67,74.29,153,75.82,153.48,75.79Z"/><path class="cls-2" d="M153.58,76.88c5-.42,10-.85,15-1.75a40.3,40.3,0,0,0,10.36-3c4.57-2.27,8-5.46,9.47-10.39A89.7,89.7,0,0,0,191,49.26a30.76,30.76,0,0,0,.58-4.52c-.25-1.28-.51-2.55-.79-3.82-.33-1.59-.7-3.17-1.12-4.74-.31-1.13-.68-2.44-1-3.56a49.93,49.93,0,0,0-7.44-15c-3.88-5-9.35-8.35-15.3-10.39a34,34,0,0,0-15.13-1.74l-1.17.19c-1.17.22-1,.87.43,2,.64,1,1.29,2.07,2,3.06l.88-1.52c-1.73-1-3.8-.7-5.73-.59-1.51.07-3,.19-4.51.36a12.35,12.35,0,0,0-4.89,2.24l1.73-.59c-6,1.82-12.06,3.2-17.74,5.82-4.4,2-9.27,4.74-12.12,8.8a24,24,0,0,0-3.45,8.62,56.36,56.36,0,0,1-1.6,5.86,39.7,39.7,0,0,1-5.08,9.25l3.08-2.53C98.59,49,94.8,52,91,54.91c-10.76,8.16-21.88,15.83-33.1,23.34l.11,0c9.06-.55,18.13-.8,27.19-1.32,4.94-.29,9.86-.77,14.78-1.26a99.44,99.44,0,0,1,10.9-.63q3.38-.24,6.75-.18a48.67,48.67,0,0,1,5,.4c2.85.37,5.65,1,8.49,1.47,7.09,1.06,14.27.73,21.41.44.32,0-.76-.36-.61-.3a6.92,6.92,0,0,0-1.9-.57c-5.3,0-10.61.07-15.9-.3-3.2-.22-6.34-.68-9.51-1.16a60.6,60.6,0,0,0-6.58-.67c-3.44-.15-6.83.24-10.26.32-3.05.07-6.08.5-9.11.87-4.66.56-9.26,1.08-14,1.23-3.6.14-7.19.18-10.79.12a43.57,43.57,0,0,0-12.27.81l.45,0C69.19,73,76,68.23,82.73,63.15c3.31-2.5,6.69-4.93,9.93-7.53a89.11,89.11,0,0,0,9.9-9.13L99.3,49l.11.06c.31.18,3-2.26,3.26-2.67A60.1,60.1,0,0,0,108,35.68c1.18-3.25,2.07-6.8,4.14-9.63,2.52-3.43,6.13-5.8,9.86-7.75a71.78,71.78,0,0,1,8.48-3.7l6.93-2.34a8.54,8.54,0,0,0,2.69-1.75l-2.13.7c4.11-1,9.75-2.37,14-.52a3.55,3.55,0,0,0,.88-1.52c-.14-.4-.83-1.57-.66-1.95s2.4-.11,2.79-.1a38.26,38.26,0,0,1,19.55,6.3c5,3.31,8.1,8.44,10.65,13.79A37.32,37.32,0,0,1,190,49.12l-1,4.92c-1.13,5.66-2.83,11.6-7.81,15.16-8.17,5.85-20,5.68-29.81,6.06.06,0,1,.84,1,.87S153.29,76.91,153.58,76.88Z"/><path class="cls-2" d="M153.79,75.79c7.64-.44,15.39-.91,22.71-3.33a21.68,21.68,0,0,0,7.59-4.16,15.2,15.2,0,0,0,3.53-4.89A19,19,0,0,0,189.06,58q.85-2.85,1.44-5.77a31.19,31.19,0,0,0,.65-3.47c.26-1.48.45-3,.59-4.46L191.27,42c-.67-3.22-1.37-6.47-2.36-9.61-2.06-6.49-5.11-13.18-10-18-4.2-4.17-9.73-6.71-15.41-8.14a31.73,31.73,0,0,0-12.42-.83c-1.7.27-1.12.28-.1,2.19.63,1.18,1.26,2.34,1.95,3.48L157,9.69C153.74,8.22,150.32,7,147,5.7l-7.08-2.59q-14.31-9.28-8.33,9.17l3.84-5.56-7.29,6.8,5.06-2.39C127,13.91,119.9,16.5,114.51,20.8a18.45,18.45,0,0,0-6.11,8.1c-1.06,2.92-1.43,6-2.37,9a34.38,34.38,0,0,1-5.82,10.53l5.31-3.93C99.57,48.67,93.83,53,88,57.28c-9.56,7.1-19.37,13.84-29.24,20.49H59c9-.64,18.09-1.39,27.11-2.37,4.65-.51,9.3-.73,14-1a104.11,104.11,0,0,1,10.45-.29c3.47.16,6.92-.23,10.39.09,2.23.2,4.42.56,6.62,1a81.05,81.05,0,0,0,9.56,1.31,140.71,140.71,0,0,0,16.17-.17,3.18,3.18,0,0,0-.64-.38c-.84-.41-1.67-.83-2.51-1.23s-2.27-1.43-3.21-1.48c-7.79-.42-15.57-.36-23.33-1.18a72.52,72.52,0,0,0-9.08-.51c-2,.09-4,.16-5.93.22a13.35,13.35,0,0,1-4.08.22c-2.84-.15-5.65-.48-8.48-.73a10.92,10.92,0,0,1-2.83-.5l-4.81-1.09c-1.56.57-3.12,1.1-4.7,1.6Q71.43,75,59,77.7l7.26-1.16C73.35,72,80.16,67.1,86.81,61.88c3.71-2.92,7.49-5.82,11-9,2.94-2.72,6.1-5.47,8.41-8.77l-6,4.34.12.06c.32.15,2.9-2.11,3-2.17.74-.56,2.37-1.43,2.89-2.29,1.64-2.71,3.2-5.46,4.62-8.29,1-1.94,1.7-4,2.67-5.92a20.25,20.25,0,0,1,7.24-8.3q2.11-1.36,4.22-2.76l3.33-1.84a17.6,17.6,0,0,1,5-4.51,10.77,10.77,0,0,1,4.35-2.18l2.6-.78c2.13-.13,4.27-.15,6.4-.07a14.62,14.62,0,0,1,6.25,1.7c.44.26,4.08-1.49,4.12-1.39-.95-2.3-3.09-3.49-6.43-3.6l5.76,3.43A47.05,47.05,0,0,1,173,16.23a21.13,21.13,0,0,1,6,5.46l1.9,2.95,1.36,3.47a58.14,58.14,0,0,1,3.35,9.14,55.57,55.57,0,0,1,1.3,8,35.49,35.49,0,0,1,.18,4.49c-.27,1.34-.6,2.67-1,4-.26,1.06-.56,2.1-.9,3.14-1,3.4-2,6.89-5.16,8.88A5.45,5.45,0,0,0,178,66.87a7.08,7.08,0,0,1-1.85,1.1,23.44,23.44,0,0,1-6.26,2.1c-7,1.34-14.19,1.11-21.25,1a2.57,2.57,0,0,0,.5.54q1,1,2,1.89C151.4,73.7,153.25,75.83,153.79,75.79Z"/><path class="cls-2" d="M153.76,77.27A136.72,136.72,0,0,0,169,75.68a39.94,39.94,0,0,0,10.36-3,17.65,17.65,0,0,0,9-9.14c1.61-3.73,2-8,2.76-12a31.54,31.54,0,0,0,.87-6.17,41,41,0,0,0-1.46-6.92A62.85,62.85,0,0,0,187,27.57c-2-4.53-4.44-9-8-12.52A32.61,32.61,0,0,0,164.74,7.2,34.91,34.91,0,0,0,151.14,6a3.57,3.57,0,0,0-1.48.31q-1.26.32.57,1.74c.58,1,1.18,2.06,1.82,3.07l.39-1.68c-1-.47-.87-.43-2.24-.25q-3.52.78-7,1.65-4.17,1.06-8.39,1.92c-6.15,1.43-12.45,3.5-17.78,7-4.84,3.14-8.46,6.87-10,12.54-.5,1.91-.88,3.86-1.38,5.78a36.79,36.79,0,0,1-5.76,11.59l2.84-2.13c-4,2.25-7.67,5.34-11.31,8.09-10.78,8.14-21.9,15.82-33.13,23.32a.67.67,0,0,0,.37,0c9-.46,17.95-.55,26.9-1.23,4.94-.37,9.86-.88,14.78-1.38a97.56,97.56,0,0,1,10.52-.66c3.29,0,6.52-.29,9.82,0,2.92.24,5.77.83,8.65,1.34,7.82,1.39,15.71,1.14,23.62.8.37,0-.92-.41-.76-.36a9.34,9.34,0,0,0-2.35-.7c-5.33-.09-10.67,0-16-.36-3.19-.21-6.3-.65-9.44-1.1a60.66,60.66,0,0,0-9.23-.62c-2.66,0-5.3.33-8,.43-3.31.13-6.59.65-9.87,1.08-4.1.53-8.18,1-12.31,1.34a75,75,0,0,1-11,.38,60.25,60.25,0,0,0-12.66.56h.37c7.11-4.49,14-9.29,20.71-14.31,3.75-2.8,7.57-5.52,11.21-8.46a98.7,98.7,0,0,0,8.86-7.86l-2.94,1.9.26,0c.28.18,2.77-1.87,3-2.24a56.06,56.06,0,0,0,5.85-12.85c1.27-4.14,2.67-8.13,6-11.09,6.2-5.52,14.23-8.13,22.06-10.33Q140.84,12,145,11c2.48-.59,4.69-1,7.09.07a6.57,6.57,0,0,0,.42-1.63c-.16-.4-.29-.8-.45-1.2-.28-.66-.44-.7-.11-1.06a4,4,0,0,1,1.46-.12A12.67,12.67,0,0,1,155.59,7,34.33,34.33,0,0,1,162.8,8a37.61,37.61,0,0,1,7.42,2.55l3.14,1.66,8.6,7.77a59.46,59.46,0,0,1,3.88,7.37,53.7,53.7,0,0,1,3.29,9.37c1.27,4.86,2.09,9.76,1.05,14.74-1.25,6-2.36,12.68-7.22,17a24.3,24.3,0,0,1-9.76,4.85c-7.17,2-14.87,2-22.23,2a10.14,10.14,0,0,1,1.35,1.08C152.55,76.48,153.39,77.29,153.76,77.27Z"/></g></g></svg>