<svg xmlns="http://www.w3.org/2000/svg" viewBox="0 0 163.88 28.66"><defs><style>.cls-1{fill:tan;opacity:0.08;}</style></defs><g id="Layer_2" data-name="Layer 2"><g id="Layer_1-2" data-name="Layer 1"><path class="cls-1" d="M71.77,22.68l12.72-1.92,13-1.53a11.47,11.47,0,0,1,3.65-.4,29.69,29.69,0,0,0,10.33-.89q9.72-1,19.46-1.73t19.48-1.5q13,4,9.26-6.25l-.39-.06a328.38,328.38,0,0,1-36-1.89Q111.09,6,99,5.61,88,4.84,77,4.37q-7.91-.27-15.81,0A435.86,435.86,0,0,0,1.85,9.71a6,6,0,0,0,1.55.63c1.4.46,2.81.92,4.22,1.36,1.77.56,3.53,1.11,5.3,1.65,1.21.4,2.44.76,3.68,1.07l13.31,1.66-.35,0Q40,18.76,50.33,21.84a103.63,103.63,0,0,1,17.82,6.37,3.16,3.16,0,0,0-.47-1.16c-.71-1.39-1.44-2.78-2.19-4.15S64,20.15,63.24,18.78a3.51,3.51,0,0,0-.71-1C42.3,15,22.14,12,1.85,9.71L17,14.47c8.59-.89,17.18-1.78,25.79-2.49a244.76,244.76,0,0,1,30.39-1.09A61.49,61.49,0,0,1,87,12.53a120.29,120.29,0,0,1,13.78,5,40,40,0,0,0,13.76-3.23A130.23,130.23,0,0,1,160.16,14L145.1,8.4q-19.48,1.42-39,3.11A48.75,48.75,0,0,1,85.52,13a16.36,16.36,0,0,0-2.7-.2q-12.22.13-24.43.9a5.93,5.93,0,0,0,1.33,1q2.61,1.82,5.27,3.57t5.3,3.52A6.13,6.13,0,0,0,71.77,22.68Z"/><path class="cls-1" d="M72.51,20.91,85,18.86l12.93-1.52a11.48,11.48,0,0,1,3.6-.39,29.52,29.52,0,0,0,10.34-.88q9.72-1,19.47-1.72t19.46-1.5q12.65,4,9.56-6.14L160,6.65a320,320,0,0,1-36.1-2l-24.24-1q-11-.9-22.09-1.33Q69.62,2,61.69,2.34A451.31,451.31,0,0,0,2.29,7.81a5.05,5.05,0,0,0,1.47.52c1.34.36,2.68.71,4,1a63.09,63.09,0,0,0,8.53,2.07,200.58,200.58,0,0,1,27,3.89q14.57,2.21,29.2,3.78a2.16,2.16,0,0,0-.86-.55C70.55,18,69.4,17.47,68.25,17s-3-1.69-4.45-1.85c-20.4-2.27-40.72-5-61.12-7.27l14,3.63C35.4,9.39,54.31,6.9,73.14,7.34A66.12,66.12,0,0,1,87.3,8.69a85.15,85.15,0,0,1,14.79,5.21,37.4,37.4,0,0,0,14.45-2.65,140.56,140.56,0,0,1,44,.9L148,6.81q-19.5,1.41-39,3.09a42.88,42.88,0,0,1-20.65,1.5,14.62,14.62,0,0,0-2.64-.21q-12.06.18-24.07,1.14a4.58,4.58,0,0,0,1.06,1q2.12,1.74,4.26,3.42t4.31,3.37A4.45,4.45,0,0,0,72.51,20.91Z"/><path class="cls-1" d="M73,22.39l12.65-1.94,12.95-1.56a12.58,12.58,0,0,1,3.67-.41,30.29,30.29,0,0,0,10.35-.89q9.7-1,19.44-1.74t19.46-1.5q12.85,4,9.42-6.33L160.47,8A295.5,295.5,0,0,1,124.4,6.29q-12.08-.41-24.13-.92-11-.87-22-1.35-7.92-.25-15.84,0A437.48,437.48,0,0,0,3.08,9.38a6.6,6.6,0,0,0,1.6.61c1.44.44,2.89.88,4.34,1.3l5.44,1.6c1.25.38,2.52.72,3.79,1a93.35,93.35,0,0,1,27.3,5.35,106.31,106.31,0,0,1,25.68,8.47,3.89,3.89,0,0,0-.69-1.18c-1-1.41-2-2.8-3-4.19s-2-2.77-3-4.14a3.86,3.86,0,0,0-.9-1c-20-2.67-40-5.56-60.12-7.77L18.68,14c8.63-.9,17.26-1.77,25.9-2.47a246.41,246.41,0,0,1,30.61-1.07,60.71,60.71,0,0,1,14.06,1.71A56.89,56.89,0,0,1,103.32,18a19.25,19.25,0,0,0,12.19-2.26,162.81,162.81,0,0,1,45.73-2.13l-16.57-6q-19.42,1.47-38.85,2.87A49.15,49.15,0,0,1,85.09,12.2,16.42,16.42,0,0,0,82.38,12q-11.86-.32-23.73,0a7.17,7.17,0,0,0,1.43,1.2q2.79,2.1,5.63,4.16t5.68,4.1A7.47,7.47,0,0,0,73,22.39Z"/><path class="cls-1" d="M74.65,24.21,87,22.13l13-1.58a17.09,17.09,0,0,1,4-.28,54.29,54.29,0,0,0,9.91-1q9.72-1.05,19.48-1.77T152.91,16q13,4,9.2-6.09l-.22,0A112.81,112.81,0,0,1,127.74,6.2Q114.3,4.89,100.85,4c-13-.67-26-.53-39,0A501.5,501.5,0,0,0,3.34,9.87c-.4.07.51.34.55.35a20,20,0,0,0,2.65.53c18.91,2.86,38,4.82,57,6.82.64.06-.1-.36-.4-.39-19.87-2.12-39.7-4.49-59.48-7.3l3.21.88q18.93-3,38-4.68c18.56-1.69,37.37-2.67,56-1.71l12.57.85a89,89,0,0,0,33.68,6.91l6.78.3-19.52,1.48L115,15.46c-19.72,1.65-14,1.89-22.26,1.75l-1.26,0Q79.27,17.88,67.1,19a2,2,0,0,0,.71.66q1.47,1.08,3,2.1t3,2A2,2,0,0,0,74.65,24.21Z"/><path class="cls-1" d="M73.56,23.06l12.75-1.94,13-1.57a11.93,11.93,0,0,1,3.67-.41,29.69,29.69,0,0,0,10.33-.89q9.7-1,19.45-1.74T152.22,15q13,4,9.33-6.39l-.39-.06A343.17,343.17,0,0,1,125,6.93q-11.93-.28-23.84-1.14Q90,4.64,78.85,4.35,70.92,4.17,63,4.5A468,468,0,0,0,3.78,9.91a3.82,3.82,0,0,0,1.26.5c1.14.35,2.29.69,3.44,1a55.23,55.23,0,0,0,7.33,2,168,168,0,0,1,27.58,5.1,227,227,0,0,1,27.38,7.35A2.66,2.66,0,0,0,70.2,25Q69,23.34,67.71,21.75c-.84-1.06-1.69-2.12-2.56-3.16a2.46,2.46,0,0,0-.77-.77C44.29,15.21,24.24,12.33,4.13,9.93l12,3.52C35,11.36,54,9.18,73.05,9.06a94,94,0,0,1,14.8.69A51.24,51.24,0,0,1,105.06,15,14.74,14.74,0,0,0,118,14.51a118.5,118.5,0,0,1,44-.2l-14.8-5.77q-19.5,1.44-39,3.11a45,45,0,0,1-20.63,1.51,15.07,15.07,0,0,0-2.68-.22q-12.15.08-24.29.84a5.78,5.78,0,0,0,1.28,1.08c1.69,1.24,3.39,2.48,5.1,3.7S70.4,21,72.12,22.2A6.17,6.17,0,0,0,73.56,23.06Z"/><path class="cls-1" d="M73.74,20.49l12.38-2,12.94-1.55a16.53,16.53,0,0,1,4-.26,38.71,38.71,0,0,0,9.92-1q9.75-1,19.51-1.76t19.44-1.49q12.74,4,9.39-6l-.22,0-21.21-1L127.11,3.6c-13.2-1.93-9.65-1.64-19.43-2.3A381.66,381.66,0,0,0,67.23.79,523.58,523.58,0,0,0,3,6.78a2,2,0,0,0,.92.3c.83.17,1.67.33,2.51.47,1.76.32,3.54.69,5.33.85q11,.93,22,1.88Q48,11.74,62.16,13.5c.44.06-.69-.56-.51-.47a6,6,0,0,0-1.78-.67A247.76,247.76,0,0,0,34.81,9.88Q19.36,8.65,4,6.82L11.76,8.4C30.44,6,49.19,4,68,2.75c8.39-.54,17-1.27,25.41-1l35.64,4.33a77.92,77.92,0,0,0,32.39,5.66L154,8.62q-19.49,1.4-38.94,3a57.35,57.35,0,0,1-22,1.66,11.37,11.37,0,0,0-1.43,0q-12.36,1-24.76,1.19a1.92,1.92,0,0,0,.63.73c.89.82,1.79,1.62,2.7,2.41S72,19.19,72.93,20A2.08,2.08,0,0,0,73.74,20.49Z"/><path class="cls-1" d="M71.46,23.6q12.67-2.19,25.47-3.47a8.85,8.85,0,0,1,3-.42l-.33,0c7.59.75,5.73-.43,21.06-1.76l19.41-1.6Q163.27,24.46,159,9.58l-.31,0A293.5,293.5,0,0,1,124,7.92L99.71,5.27a328.93,328.93,0,0,0-39.09-.5,483.42,483.42,0,0,0-59.1,5.54,3.36,3.36,0,0,0,1.17.48c1.07.33,2.14.66,3.21,1a56.55,56.55,0,0,0,6.85,1.9,116.05,116.05,0,0,1,25.1,5.44,135.94,135.94,0,0,1,21.43,6.65c.16.06,1.86-7,1.56-7-19.67-2.82-39.28-5.93-59-8.41l11.23,3.35C31.82,11.53,50.6,9.55,69.46,8.62c12-.6,24.25-1.09,36,1.65a116.21,116.21,0,0,0,17.07,4.58,252.74,252.74,0,0,1,37,.07l-11.8-3.72c-19.59,1.5-39.15,3.07-58.71,4.9l.34,0c-.89-.09-1.8-.22-2.7-.26H85.42q-12.24.47-24.47,1.3A3.63,3.63,0,0,0,62,18q2.05,1.3,4.14,2.57T70.29,23A3.51,3.51,0,0,0,71.46,23.6Z"/><path class="cls-1" d="M74.39,22.48,87,20.53l13-1.55a11.06,11.06,0,0,1,3.58-.38,27.8,27.8,0,0,0,10.35-.88q9.74-1,19.49-1.74t19.46-1.5q12.88,4,9.36-6.26l-.31,0A286.13,286.13,0,0,1,127,6.66q-12.1-1.49-24.2-2.91a296.48,296.48,0,0,0-34.12-.57A507.66,507.66,0,0,0,4.33,9a2.14,2.14,0,0,0,.92.34l2.5.58c1.76.39,3.54.85,5.33,1.07q16.64,2.48,33.37,4.23Q57.16,16.53,67.94,17c.62,0,.25-.07.06-.26-.4-.42-2.08-.58-2.66-.64C45,14.12,24.83,11.5,4.59,9l8.74,2c20.41-2.54,41-4.73,61.51-5.51Q82.76,5,90.68,5.28A86.66,86.66,0,0,1,107.6,6.73q9.25,2.71,18.23,6.24a348.79,348.79,0,0,1,36.72.8L150.78,9.24c-19.59,1.48-39.15,3-58.72,4.79l.35.05c-.83-.13-1.88-.34-2.7-.39l-1.23,0q-12,.26-24,1a3.65,3.65,0,0,0,1,.93q1.95,1.57,3.91,3.12c1.31,1,2.62,2.05,4,3.06A3.92,3.92,0,0,0,74.39,22.48Z"/><path class="cls-1" d="M72.59,21.64a248.87,248.87,0,0,1,25-3.74,8.22,8.22,0,0,1,3.69-.22,52.76,52.76,0,0,0,20-2q19.43-1.68,38.88-3l.11-.05-.16-4.88-.1,0c-2.49-.42-20.06-3.54-22.53-3.84L123.46,2.64,110,1.32A391.52,391.52,0,0,0,69.6.73,531.33,531.33,0,0,0,.74,7.06c-.8.13,2.13.65,1.76.57a48.15,48.15,0,0,0,5.3.92c10.36.9,20.7,1.88,31,3.2,12.36,1.59,5.68.76,22.49,2.71.08,0,.14-.33.08-.34-20-2.22-40-4.85-60-7L7.8,8.55Q26.52,5.91,45.31,4C63,2.15,80.76.49,98.56,1.12c10.76.38,21.42,1.5,32.12,2.67Q142,1.44,137.88,13l-19.33,1.54a81.73,81.73,0,0,1-20.85,2c-.53,0-1.06,0-1.59,0l-1.1.17q-12.67,1.7-25.44,2.65S71,20.65,71,20.64C71.26,20.85,72.13,21.72,72.59,21.64Z"/><path class="cls-1" d="M71.14,22.54Q83.68,20.17,96.38,19a8.81,8.81,0,0,1,3-.4l-.31,0c7.56.78,6-.46,21-1.77l19.4-1.59q23.16,8.13,19-6.64l-.28,0a299.76,299.76,0,0,1-34.68-1.86L99.12,4A332.24,332.24,0,0,0,60,3.53,491.1,491.1,0,0,0,.9,9.14a3.91,3.91,0,0,0,1.28.49q1.73.51,3.48,1a59.47,59.47,0,0,0,7.39,1.93,178.93,178.93,0,0,1,25.36,4.53A104.58,104.58,0,0,1,61.18,24c.1,0,0-3.34,0-3.26s0-3.19-.39-3.24c-19.8-3-39.6-5.94-59.49-8.3L13.4,12.57c18.71-2.12,37.45-4.16,56.26-5.08,11.82-.59,23.86-.9,35.5,1.69a89.78,89.78,0,0,0,17.16,4.13,217,217,0,0,1,36.67.47L148.4,10.24c-19.61,1.48-39.18,3.06-58.76,4.9l.31,0c-.87-.09-1.76-.22-2.64-.25H86.07q-12.24.57-24.47,1.37a3,3,0,0,0,.92.77q1.88,1.27,3.76,2.5c1.25.83,2.52,1.65,3.79,2.45A3.18,3.18,0,0,0,71.14,22.54Z"/><path class="cls-1" d="M73.7,20.85a158.25,158.25,0,0,1,24.86-3.94,7.37,7.37,0,0,1,3.32-.25,46.43,46.43,0,0,0,20.24-1.92q19.44-1.66,38.9-3l.15,0-.3-5L140.11,4.37c-4.44-.63-9.24-1.62-13.68-2.16C117.61,1.13,108.6.62,99.72.27,90.24-.11,80.75,0,71.27.21A520.61,520.61,0,0,0,2.2,6.43c-.66.11,1.1.41,1.23.43a56.46,56.46,0,0,0,5.63.93c17.66,1.47,35.2,3.84,52.8,5.86.5,0,0-.38-.25-.41C42,11,22.45,8.57,2.83,6.48L9.69,7.84q16.76-2.32,33.6-4C60.57,2.06,78,.62,95.36.74q5.81-.09,11.6.34a203.1,203.1,0,0,1,49.55,8L137,11.24q-14.79,1-29.52,2.56a28.72,28.72,0,0,1-11,.95l-1.28-.07-1.15.1q-12.33,1-24.63,2.41s2,1.95,2,2C71.69,19.37,73.18,21,73.7,20.85Z"/><path class="cls-1" d="M72.72,24.72l12.33-2,13-1.58a17,17,0,0,1,4-.26,77,77,0,0,0,9.92-1q9.72-1.05,19.48-1.77t19.46-1.5q13,3.95,9-5.9l-.22,0-20.65-1-13-2.25a238.63,238.63,0,0,0-26.4-2.52,432.07,432.07,0,0,0-44.08.4A528.63,528.63,0,0,0,2.08,10.76c-.71.12,1.8.73,1.51.64a34.48,34.48,0,0,0,4.59,1.11A203.78,203.78,0,0,0,30.63,15q15.27,1.27,30.5,2.91c.46.05.13-.16,0-.26-.25-.29-1.43-.3-1.8-.34Q30.67,14.5,2.08,10.76l6.1,1.75Q27.05,9.87,46,8.06,57.44,7,68.88,6.24q7.74-.53,15.51-.62A247.61,247.61,0,0,1,114,6.43L127.8,9a23.64,23.64,0,0,0,16.75,4.11l7,.1-19.51,1.48-19.38,1.57c-17,1.43-14.15,1.8-22.24,1.81C82,18.07,73,19.23,64.57,19.9a2.18,2.18,0,0,0,.79.62c1.06.66,2.12,1.31,3.2,1.94s2.15,1.26,3.24,1.87A2,2,0,0,0,72.72,24.72Z"/><path class="cls-1" d="M74.36,20.83l12.4-2L99.7,17.26a16.65,16.65,0,0,1,4-.28,29.65,29.65,0,0,0,9.93-.95q9.73-1,19.49-1.75t19.46-1.5q12.72,4,9.46-6.11l-.24,0-21.45-.73L127.52,4.22l-12.86-2-12.75-1A433.93,433.93,0,0,0,53,1.88c-16.43,1-32.8,2.59-49.05,5.19-.69.11,1.16.43,1.31.46,2,.38,4,.84,6,1,17.21,1.59,34.38,3.29,51.55,5.28.47.06-.8-.62-.59-.51a6.8,6.8,0,0,0-2-.79q-12.45-1.68-25-2.26Q19.85,9,4.61,7.13l7.27,1.49c15.64-2.07,31.31-3.76,47-4.95,9.88-.75,19.75-1.29,29.66-1.45a123.85,123.85,0,0,1,40.73,5.29,86,86,0,0,0,32.76,4.55l-8.3-3.54q-19.49,1.41-38.94,3a54.08,54.08,0,0,1-22,1.6,7,7,0,0,0-1.45,0q-12.12.6-24.22,1.39a2.15,2.15,0,0,0,.67.77c.92.86,1.86,1.7,2.81,2.54s1.9,1.66,2.86,2.48A2.25,2.25,0,0,0,74.36,20.83Z"/><path class="cls-1" d="M73.44,25Q86,22.87,98.65,21.56l2.9-.35a50.54,50.54,0,0,0,20.8-1.87q19.44-1.69,38.91-3l.2,0-.49-5-.16,0Q142.89,9.14,125,6.86a229.36,229.36,0,0,0-25.91-2C86,4.26,73,4.2,60,4.69A464.24,464.24,0,0,0,1.87,10.48c-.31,0,.22.27.18.25a9,9,0,0,0,1.78.39,228.19,228.19,0,0,0,29.57,4q14.9,1.89,29.83,3.45c.09,0,.36-.22.17-.24C43.09,16,22.78,13.62,2.57,10.53l2,.65a461.67,461.67,0,0,1,101.2-5.74q9.66.4,19.23,1.76l15.38,1.89q28.51,4,5.33,5.36a229.59,229.59,0,0,1-29.61,3l-20.2,2.09q-1.06,0-2.13-.12l-1.17.08Q80,20.74,67.44,21.44a1.22,1.22,0,0,0,.56.49c.77.5,1.56,1,2.35,1.45C70.86,23.69,72.68,25.15,73.44,25Z"/><path class="cls-1" d="M72,22.36a150.69,150.69,0,0,1,24.55-3.91q1.44-.22,2.91-.33a49.19,49.19,0,0,0,20.79-1.86q19.42-1.68,38.89-3l.16,0-.35-4.85L138.3,6c-19.46-2.65-6.93-1.59-20.56-2.79A418.16,418.16,0,0,0,64.41,2,531.86,531.86,0,0,0,.29,8.05a2,2,0,0,0,.93.35c.84.22,1.69.42,2.54.61a43.18,43.18,0,0,0,5.4,1.14Q19.77,11.37,30.42,12q14.78,1.17,29.5,3a.13.13,0,0,0,.07-.26,3.14,3.14,0,0,0-1-.26q-14.28-1.7-28.6-3Q15.47,9.72.55,8l8.87,2.1q18.81-2.46,37.7-4.35Q58.25,4.67,69.39,3.85c10.1-.74,20.4-1.4,30.53-1.2l11.9.45a238.33,238.33,0,0,1,34.77,5.63l7.94,1.75-19.84,2.41-19.36,1.55a63,63,0,0,1-20.65,2c-.56,0-1.13-.06-1.7-.08-8.57.42-17.32,1.66-25.84,2.62.11,0,2.26,1.77,2.32,1.81C69.8,21.07,71.37,22.49,72,22.36Z"/><path class="cls-1" d="M75.45,22.2l12.49-2,13-1.58a17,17,0,0,1,4-.25,57.09,57.09,0,0,0,9.91-1q9.72-1.05,19.49-1.77t19.45-1.5q12.84,4,9.32-6.08l-.19,0a130.05,130.05,0,0,1-35.26-4.32Q114.5,2.94,101.37,2c-12.91-.65-25.86-.52-38.76,0A498.42,498.42,0,0,0,4,7.85c-.5.08,1,.41.8.37a252,252,0,0,0,31,4.17q14.3,1.84,28.63,3.29c.35,0,.4-.3,0-.34C44.81,13.2,25.19,10.93,5.67,8l1.6.51q21-3.3,42.21-5Q64.14,2.3,78.85,2q8.18-.24,16.34.08,9.34.1,18.65,1.1l13.72.89a82.07,82.07,0,0,0,29.07,6.16l-.29.37q-19.47,1.39-38.94,3L96.65,15.46a8.9,8.9,0,0,0-1.45-.14c-.44,0-.88,0-1.33,0Q81.65,16.15,69.42,17a1.51,1.51,0,0,0,.54.64c.78.71,1.56,1.4,2.36,2.08C72.64,20,74.78,22.3,75.45,22.2Z"/><path class="cls-1" d="M73.37,21.27l12.76-1.89,13-1.53a11.56,11.56,0,0,1,3.61-.42A30.47,30.47,0,0,0,113,16.55q9.74-1,19.47-1.72T152,13.33q12.75,4,9.5-6.29L161.12,7a320.33,320.33,0,0,1-36.25-1.91q-12-.42-24.1-1-11-1-22.09-1.41-7.94-.23-15.85.1A458.14,458.14,0,0,0,3.54,8.24a4.59,4.59,0,0,0,1.36.48c1.24.33,2.47.65,3.71,1a59.88,59.88,0,0,0,7.89,1.87,226.5,226.5,0,0,1,27.55,4q14.72,2.25,29.52,3.69c.33.09.35,0,.06-.14a18.91,18.91,0,0,0-2.15-1c-1.39-.59-2.79-1.17-4.19-1.74a20.9,20.9,0,0,0-2.21-.83c-20.42-2.22-40.76-5-61.17-7.27l13,3.31c10-1.12,20-2.18,30.05-3,5.77-.48,11.54-.88,17.33-1.12a91.5,91.5,0,0,1,9.37-.13A71.76,71.76,0,0,1,88.09,8.43l-.29-.09a45.52,45.52,0,0,1,12.46,4.18,10.64,10.64,0,0,0,8.63,1.5l8.37-2.32a132.66,132.66,0,0,1,44.47.92L148.26,6.81q-19.5,1.41-39,3.08a41.49,41.49,0,0,1-20.63,1.45A14.54,14.54,0,0,0,86,11.1q-12.08.13-24.13.87A4.79,4.79,0,0,0,63,13.05c1.49,1.25,3,2.48,4.51,3.7s3,2.45,4.57,3.65A4.83,4.83,0,0,0,73.37,21.27Z"/><path class="cls-1" d="M72.5,23.35l12.71-2,13-1.56a11.9,11.9,0,0,1,3.66-.4,29.74,29.74,0,0,0,10.34-.89q9.7-1,19.45-1.75t19.47-1.5q13.08,4,9.19-6.32l-.39-.05a337.3,337.3,0,0,1-36-1.69q-12-.37-24-1.07-11.09-1-22.2-1.36-7.92-.21-15.84.09A459.79,459.79,0,0,0,2.62,10.26,4.63,4.63,0,0,0,4,10.83c1.26.42,2.53.83,3.79,1.22,2.62.83,5.34,2,8.06,2.43A126.8,126.8,0,0,1,43,20.31a138.31,138.31,0,0,1,24.16,8.35,2.87,2.87,0,0,0-.32-1.13c-.52-1.36-1.07-2.72-1.63-4.07s-1.11-2.71-1.69-4.05a3,3,0,0,0-.57-1C43,15.65,23,12.67,3,10.3l13.23,4.22c18.75-2,37.66-4.27,56.55-4.1a81.29,81.29,0,0,1,14.44,1,61.07,61.07,0,0,1,16.07,5.1,18.5,18.5,0,0,0,13.21-1.36,122.7,122.7,0,0,1,44.37-.56L145.82,9.1q-19.48,1.44-39,3.12a48.85,48.85,0,0,1-20.64,1.54,16.35,16.35,0,0,0-2.7-.19q-12.24.15-24.44.92a5.89,5.89,0,0,0,1.33,1q2.63,1.78,5.28,3.53c1.77,1.17,3.54,2.33,5.33,3.47A5.81,5.81,0,0,0,72.5,23.35Z"/><path class="cls-1" d="M71.68,21.77l12.18-2.14,12.91-1.52a11.12,11.12,0,0,1,3.54-.36,27,27,0,0,0,10.36-.88q9.74-1,19.5-1.73t19.46-1.5q12.7,4,9.43-6.05l-.31,0a348.92,348.92,0,0,1-35.27-1.72q-12-.7-23.93-2.13a306.6,306.6,0,0,0-39-.93A483.68,483.68,0,0,0,1.39,8.39a4.46,4.46,0,0,0,1.38.49c1.25.34,2.5.67,3.76,1a64.47,64.47,0,0,0,8,2A151.3,151.3,0,0,1,33.7,14.68q16.88,3.13,33.55,7.22a1.41,1.41,0,0,0-.43-.68c-.64-.76-1.29-1.51-2-2.25-.4-.45-1.85-2.6-2.65-2.7C42.07,13.53,22,10.71,1.76,8.4l13.12,3.43C33.61,9.75,52.39,7.64,71.23,7A142.29,142.29,0,0,1,86,7a70.89,70.89,0,0,1,19.53,3.53,24.5,24.5,0,0,0,14.93,2.62,132,132,0,0,1,38.94-.26L148.15,8.85c-19.6,1.48-39.17,3-58.74,4.82l.33,0a29.91,29.91,0,0,0-3.27-.32,55.86,55.86,0,0,0-6.84.25q-9,.31-17.89,1a3.4,3.4,0,0,0,1,.85q2,1.44,3.91,2.83c1.31.94,2.62,1.87,4,2.78A3.55,3.55,0,0,0,71.68,21.77Z"/><path class="cls-1" d="M71.6,23.78A175.2,175.2,0,0,1,96.25,20a23.89,23.89,0,0,1,2.93-.34A50.11,50.11,0,0,0,120,17.75q19.42-1.7,38.89-3l.17,0-.42-4.84-.14,0Q141.2,8,124.06,5.24q-13.15-1.44-26.38-2c-14.59-.56-29.21-.18-43.79.63A512.53,512.53,0,0,0,0,9.5a1.74,1.74,0,0,0,.8.34c.73.21,1.47.41,2.2.6a36.59,36.59,0,0,0,4.71,1.11A174.45,174.45,0,0,0,29,13.31q15.35,1.49,30.66,3.26c.71.08-.13-.37-.44-.4C39.55,14,19.88,11.85.23,9.47l7.7,2C21.76,9.64,35.61,8,49.5,6.64c18.42-1.77,36.86-3.3,55.37-2.46q9.6.3,19.14,1.4l30.24,6.14a277.91,277.91,0,0,1-29.88,3.53q-14.94,1.09-29.83,2.85a25.13,25.13,0,0,0-3.36,0c-8.29.75-16.57,1.6-24.85,2.46a1,1,0,0,0,.48.45c.68.44,1.37.87,2.06,1.29C69.3,22.58,70.94,23.9,71.6,23.78Z"/><path class="cls-1" d="M71.94,21.51,84.7,19.64l13-1.53a12.21,12.21,0,0,1,3.62-.41,31.24,31.24,0,0,0,10.34-.87q9.72-1,19.47-1.72t19.46-1.5q12.78,4,9.47-6.23l-.39-.07A311,311,0,0,1,123.4,5.23q-12.27-.62-24.55-.79Q88,3.93,77.18,3.35c-5.26-.21-10.51-.24-15.77-.06A431.72,431.72,0,0,0,2,8.63a6.28,6.28,0,0,0,1.63.61c1.48.45,3,.88,4.46,1.31q2.78.81,5.57,1.59c1.28.38,2.57.73,3.88,1a104.09,104.09,0,0,1,27.05,4.66q13.88,2.74,27.49,6.6a3.31,3.31,0,0,0-.84-1c-1.14-1.09-2.3-2.16-3.46-3.23s-2.34-2.13-3.52-3.18a3.59,3.59,0,0,0-1-.75C43,13.75,22.74,10.87,2.43,8.68L18,13.21c8.6-.89,17.21-1.8,25.83-2.5C53.86,9.9,63.93,9.24,74,10a47.31,47.31,0,0,1,13.27,2.33A89.15,89.15,0,0,0,98.93,17q7.3-2.6,14.74-4.82a142.68,142.68,0,0,1,46.64.72l-14.7-6q-19.49,1.42-39,3.1A45.56,45.56,0,0,1,86,11.48a15.84,15.84,0,0,0-2.66-.23q-12.13.09-24.27.82a5.77,5.77,0,0,0,1.27,1.09q2.5,1.9,5.05,3.77c1.68,1.24,3.38,2.48,5.09,3.7A5.62,5.62,0,0,0,71.94,21.51Z"/><path class="cls-1" d="M72.47,25a182.4,182.4,0,0,1,24.91-3.85,7.29,7.29,0,0,1,3.33-.29A49.53,49.53,0,0,0,120.9,19q19.44-1.69,38.9-3l.21,0-.65-5-.17,0q-23.92-3.86-48.07-5.62-12.28-1-24.62-1.12-16-.09-32,.84A522.62,522.62,0,0,0,1.07,10.66c-.67.11,1.61.67,1.32.59a28.93,28.93,0,0,0,4.09,1c10.61,1.29,21.27,2,31.88,3.3s9,1.06,22.22,2.48c.58.06.61-.28,0-.34-19.84-2.2-39.73-4.49-59.54-7l5.41,1.56Q25.19,9.46,44,7.54C62.32,5.65,80.76,4.24,99.17,5l25.24,1.76a191.9,191.9,0,0,0,22.23,4.74L154,12.77l-20.39,2.66L114.24,17a62.79,62.79,0,0,1-20.48,2q-.9-.06-1.8-.09c-8.6.27-17.35,1.5-25.91,2.44a1.36,1.36,0,0,0,.61.5q1.25.77,2.52,1.47C69.69,23.65,71.7,25.18,72.47,25Z"/></g></g></svg>