<svg xmlns="http://www.w3.org/2000/svg" viewBox="0 0 149.1 164.5"><defs><style>.cls-1{fill:#1d1d1b;}.cls-2{fill:tan;opacity:0.08;}</style></defs><g id="Layer_2" data-name="Layer 2"><g id="Layer_1-2" data-name="Layer 1"><path class="cls-1" d="M10.1,156.28a11.5,11.5,0,0,0,5.68,3.22,22.61,22.61,0,0,0,6.62.38c4.44-.28,8.86-1,13.3-1.49s8.88-1,13.34-1.32,8.93-.46,13.41-.44a180.64,180.64,0,0,1,26.78,1.87c4.43.66,8.83,1.5,13.21,2.19s8.82,1.21,12.88-.07a17.7,17.7,0,0,0,2.94-1.18c.47-.25.91-.56,1.36-.84a11,11,0,0,0,1.33-.89,13.83,13.83,0,0,0,4.12-4.72,30.51,30.51,0,0,0,2.29-6.08c.62-2.11,1.14-4.28,1.66-6.44,2.07-8.67,4-17.4,6.24-26s4.5-17.29,6.85-25.91l3.49-12.92c.55-2.16,1.11-4.32,1.6-6.49a56.64,56.64,0,0,0,1.15-6.56,13.81,13.81,0,0,0-.58-6.44,2.53,2.53,0,0,0-.35-.72l-.4-.69c-.31-.44-.7-.82-1-1.23a9.51,9.51,0,0,0-2.69-1.75,14.94,14.94,0,0,0-6.41-1,40.57,40.57,0,0,0-6.57.83c-4.37.86-8.67,2.08-13.11,2.84a28.35,28.35,0,0,1-6.78.46,16.5,16.5,0,0,1-1.72-.22,10.84,10.84,0,0,1-1.69-.47A8.8,8.8,0,0,1,104,52.33a8.89,8.89,0,0,1-2.12-2.86,11.63,11.63,0,0,1-.94-3.4,23.66,23.66,0,0,1,.39-6.84c.83-4.46,2.21-8.73,3.21-13a41.35,41.35,0,0,0,1.06-6.47,14.58,14.58,0,0,0-.78-6.23,9.43,9.43,0,0,0-4-4.55,15.26,15.26,0,0,0-5.94-2,20,20,0,0,0-6.37.17A17.24,17.24,0,0,0,82.6,9.34a14.26,14.26,0,0,0-4.39,4.39,24.2,24.2,0,0,0-2.56,5.88c-1.25,4.17-1.89,8.6-2.91,13a39.68,39.68,0,0,1-4.88,12.78,25.66,25.66,0,0,1-4.49,5.32L62,51.83a6.38,6.38,0,0,1-1.75.88c-1.11.4-2.21.71-3.31,1a132.72,132.72,0,0,1-13.28,2.42C34.78,57.33,25.88,58.19,17,58.8l.88-.83L14.68,82.66l-3.26,24.68c-1,8.24-2,16.48-2.79,24.74-.36,4.13-.71,8.26-.85,12.4a53.38,53.38,0,0,0,.11,6.2A8.69,8.69,0,0,0,10.1,156.28Zm-.15.14a8.91,8.91,0,0,1-2.31-5.71,54.19,54.19,0,0,1-.17-6.24c.1-4.15.41-8.29.74-12.43q1-12.42,2.29-24.8l2.66-24.76,2.78-24.75L16,57l.79-.06c8.88-.78,17.77-1.56,26.57-2.81a128.23,128.23,0,0,0,13-2.41,30.15,30.15,0,0,0,3.1-.93,4.27,4.27,0,0,0,1.23-.6l1.21-1a23.51,23.51,0,0,0,4.11-4.89,39.24,39.24,0,0,0,4.64-12.12c1-4.29,1.69-8.73,3-13.11a25.61,25.61,0,0,1,2.82-6.34,16.12,16.12,0,0,1,5-5,18.7,18.7,0,0,1,6.57-2.42,21.61,21.61,0,0,1,7-.15,16.51,16.51,0,0,1,6.64,2.3,11.18,11.18,0,0,1,4.59,5.44,15.94,15.94,0,0,1,.79,6.95A41.6,41.6,0,0,1,106,26.55c-1.08,4.37-2.51,8.6-3.37,12.92a22.8,22.8,0,0,0-.46,6.46,10.4,10.4,0,0,0,.79,3,7.79,7.79,0,0,0,1.81,2.51,7.69,7.69,0,0,0,2.66,1.61,11.09,11.09,0,0,0,1.52.45c.53.07,1,.2,1.6.22a27.73,27.73,0,0,0,6.54-.36c4.38-.68,8.7-1.84,13.11-2.65a44.23,44.23,0,0,1,6.7-.79,15.73,15.73,0,0,1,6.7,1.12,10.22,10.22,0,0,1,2.88,1.9c.37.45.79.86,1.12,1.33l.44.76a2.93,2.93,0,0,1,.37.78A14.38,14.38,0,0,1,149,62.6a103.93,103.93,0,0,1-2.71,13.15l-3.4,13c-2.29,8.63-4.41,17.3-6.44,26s-3.86,17.42-5.79,26.15c-.51,2.18-1,4.36-1.64,6.53a31.87,31.87,0,0,1-2.4,6.43,15.48,15.48,0,0,1-4.56,5.31,12.71,12.71,0,0,1-1.45,1c-.49.31-1,.64-1.48.92a19.42,19.42,0,0,1-3.25,1.32,20.3,20.3,0,0,1-6.91.8,57.84,57.84,0,0,1-6.75-.78c-4.43-.75-8.79-1.62-13.18-2.33a188.91,188.91,0,0,0-26.56-2.42,201.9,201.9,0,0,0-26.7,1.19c-4.43.47-8.85,1.14-13.32,1.39a22.51,22.51,0,0,1-6.7-.43A11.75,11.75,0,0,1,10,156.42Z"/><path class="cls-1" d="M10,157.65a13.1,13.1,0,0,0,5.13,3.27,19,19,0,0,0,6.1.66c4.12-.2,8.21-.89,12.31-1.43a203.17,203.17,0,0,1,24.76-2.1,191.4,191.4,0,0,1,24.87,1.06c2.06.21,4.12.51,6.18.79s4.1.65,6.14,1c4.08.68,8.15,1.5,12.18,1.78l1.52.09,1.49-.05a19.29,19.29,0,0,0,3-.32A11.91,11.91,0,0,0,115,162a9.43,9.43,0,0,0,1.39-.46,16.64,16.64,0,0,0,2.63-1.33,15.92,15.92,0,0,0,4.5-3.75,18.56,18.56,0,0,0,2.74-5.22,118.62,118.62,0,0,0,3.17-11.89l2.84-12.09q2.87-12.08,6-24.09l6.51-24c1.06-4,2.12-8,2.88-12,.2-1,.32-2,.47-3a22.32,22.32,0,0,0,.14-3,8.67,8.67,0,0,0-1.86-5.57,14.85,14.85,0,0,0-4.84-3.59,26.17,26.17,0,0,0-5.78-2,47.89,47.89,0,0,0-12.25-1,73.94,73.94,0,0,0-12.23,1.52,41.83,41.83,0,0,0-5.9,1.64,7.16,7.16,0,0,0-1.27.61c-.07.05-.14.14-.1.07a.35.35,0,0,0,0-.34s-.07-.05,0,0a2.44,2.44,0,0,0,.58.19,23.42,23.42,0,0,0,3,.41c4.09.34,8.23.44,12.36.53s8.26.1,12.4.11,8.27,0,12.4-.1h1.43s.16,0-.05,0c-1.18,1.28-.4.63-.66.94a.61.61,0,0,0,.07.34.53.53,0,0,0,.37.29l-.38,0-.77-.05-3.09-.17-6.19-.29q-12.39-.54-24.8-.85c-16.53-.41-33.07-.38-49.61-.21l.45-.11h0l-.1.06-.21.11-.36.17c-.24.11-.47.19-.71.29-.47.16-.93.33-1.39.47-.93.28-1.86.51-2.78.75-1.86.42-3.71.81-5.57,1.13C46.75,57.06,43,57.57,39.29,58s-7.48.86-11.22,1.21-7.48.62-11.23.91l.78-1.34c.16,1,0,.3.08.54v.17l0,.2,0,.38-.1.77-.19,1.55-.39,3.08-.79,6.17L14.54,84l-3.25,24.67c-1,8.23-2.18,16.45-3,24.7-.39,4.13-.75,8.26-.8,12.41A44,44,0,0,0,7.81,152,10.91,10.91,0,0,0,10,157.65Zm-.14.13A11,11,0,0,1,7.56,152a44.73,44.73,0,0,1-.38-6.23c0-4.16.34-8.3.7-12.43.74-8.27,1.63-16.53,2.52-24.78l2.67-24.75,1.38-12.37.69-6.19.35-3.09.18-1.54.08-.78.05-.38,0-.2v-.17a4.72,4.72,0,1,1,.08.5l.78-1.34q5.6-.48,11.18-1T39,56c3.71-.47,7.41-1,11.07-1.66,1.84-.32,3.65-.7,5.45-1.12a23,23,0,0,0,5.1-1.69l.2-.11h.25c8.28-.06,16.57-.23,24.85-.12s16.57.23,24.85.48,16.55.57,24.82,1l6.21.37,3.1.22.78.06.39,0a1.21,1.21,0,0,1,.77.32,1.54,1.54,0,0,1,.26.36c-.24.32.73-.33-.58,1a.89.89,0,0,1-.24,0h-1.48c-4.15,0-8.29,0-12.43-.07S124.12,55,120,54.85s-8.28-.3-12.43-.7a25.59,25.59,0,0,1-3.15-.48,3.13,3.13,0,0,1-.88-.33,1.24,1.24,0,0,1-.3-.28.73.73,0,0,1,0-.71,1.4,1.4,0,0,1,.44-.48,7.17,7.17,0,0,1,1.52-.72,41,41,0,0,1,6.08-1.6,73.88,73.88,0,0,1,12.4-1.37A50,50,0,0,1,136,49.26,26.85,26.85,0,0,1,142,51.33a15.76,15.76,0,0,1,5,3.78,9.36,9.36,0,0,1,2,6,27.38,27.38,0,0,1-.12,3.14c-.15,1-.27,2.07-.46,3.09-.74,4.09-1.77,8.11-2.81,12.11-4.29,16-8.3,32.05-11.84,48.21l-2.65,12.13a123.14,123.14,0,0,1-3.16,12.1,20.32,20.32,0,0,1-3,5.72,17.41,17.41,0,0,1-5,4.2,18.24,18.24,0,0,1-2.89,1.47,10.41,10.41,0,0,1-1.55.51,14.62,14.62,0,0,1-1.58.4,22,22,0,0,1-3.22.32l-1.6,0-1.59-.11c-4.22-.33-8.28-1.2-12.35-1.92s-8.13-1.41-12.22-2a188.36,188.36,0,0,0-24.68-1.59,185.92,185.92,0,0,0-24.72,1.63c-4.1.5-8.2,1.16-12.35,1.33a19.24,19.24,0,0,1-6.18-.71A13.35,13.35,0,0,1,9.84,157.78Z"/><path class="cls-1" d="M2.34,157.24a11.31,11.31,0,0,0,5.81,3.49A22.65,22.65,0,0,0,15,161c4.6-.44,9.17-1.32,13.76-2a199.85,199.85,0,0,1,27.75-2.51,188.16,188.16,0,0,1,27.87,1.38c4.62.59,9.21,1.38,13.78,2a58.21,58.21,0,0,0,6.81.55l1.68-.08.84,0,.82-.14,1.63-.27,1.58-.48a8.1,8.1,0,0,0,.79-.26l.75-.34c.49-.24,1-.46,1.49-.71.93-.62,1.93-1.15,2.79-1.83a43.32,43.32,0,0,0,4.75-4.82,39.43,39.43,0,0,0,6.85-11.7c3.29-8.55,4-17.88,4.9-27.09.43-4.62.91-9.25,1.63-13.85s1.6-9.17,2.7-13.69,2.4-9,3.88-13.4c.74-2.2,1.52-4.39,2.3-6.57s1.56-4.37,2.17-6.59a13.84,13.84,0,0,0,.6-6.69,7.4,7.4,0,0,0-4.27-4.79,14.34,14.34,0,0,0-6.64-1,39.73,39.73,0,0,0-6.82,1c-4.51,1-9,2.31-13.55,3.2a31.71,31.71,0,0,1-7,.7,14.11,14.11,0,0,1-3.57-.55A9.56,9.56,0,0,1,102,48.63a9.44,9.44,0,0,1-2.27-2.94,11.7,11.7,0,0,1-1-3.55A24.44,24.44,0,0,1,99.33,35c1-4.62,2.47-9,3.6-13.48a41.06,41.06,0,0,0,1.23-6.7,14.38,14.38,0,0,0-.72-6.46,9.24,9.24,0,0,0-4.2-4.59A16,16,0,0,0,93,2a21.3,21.3,0,0,0-6.61.45A17.83,17.83,0,0,0,80.3,5a15.42,15.42,0,0,0-4.51,4.66,26.44,26.44,0,0,0-2.71,6.11c-1.37,4.32-2.12,8.91-3.29,13.46a41.41,41.41,0,0,1-5.4,13.14,27.67,27.67,0,0,1-4.74,5.45l-1.38,1.14a5.07,5.07,0,0,1-1,.56l-.87.35c-1.14.42-2.28.75-3.42,1.06-4.56,1.2-9.15,2-13.76,2.74-9.2,1.42-18.44,2.5-27.69,3.31l.87-.84L4.75,106.76c-1.17,8.46-2.39,16.91-3.35,25.4C.93,136.4.52,140.65.34,144.91a52.22,52.22,0,0,0,.11,6.38C.67,153.37,1,155.58,2.34,157.24Zm-.16.13c-1.39-1.72-1.75-4-2-6.05A51,51,0,0,1,0,144.9c.14-4.28.52-8.54,1-12.79q1.31-12.75,2.84-25.47L7,81.22c1.06-8.48,2.27-16.94,3.43-25.4l.1-.75.78-.09c9.21-1,18.43-2,27.55-3.44C43.46,50.8,48,50,52.43,48.82c1.1-.3,2.19-.62,3.22-1l.74-.3a4.58,4.58,0,0,0,.54-.28l1.29-1.07a25.91,25.91,0,0,0,4.36-5,41,41,0,0,0,5.14-12.47c1.17-4.43,1.94-9,3.4-13.55a28.8,28.8,0,0,1,3-6.56,17.4,17.4,0,0,1,5.13-5.23A19.66,19.66,0,0,1,85.94.56,23,23,0,0,1,93.15.11a17.47,17.47,0,0,1,7,2.09,11.76,11.76,0,0,1,2.94,2.33,11.13,11.13,0,0,1,2,3.21,16.15,16.15,0,0,1,.74,7.26,44.51,44.51,0,0,1-1.37,7c-1.21,4.52-2.79,8.89-3.77,13.36a23.14,23.14,0,0,0-.61,6.7,10.27,10.27,0,0,0,.8,3.16,8.13,8.13,0,0,0,1.92,2.55,8.37,8.37,0,0,0,2.83,1.54,12.79,12.79,0,0,0,3.28.54,30.16,30.16,0,0,0,6.8-.58c4.53-.81,9-2.09,13.57-3a43.83,43.83,0,0,1,7-.94,15.06,15.06,0,0,1,7,1.14,9.71,9.71,0,0,1,1.56.9c.25.17.46.39.7.58a4.77,4.77,0,0,1,.65.62,7.13,7.13,0,0,1,1.72,3.17,14.48,14.48,0,0,1-.64,7c-1.33,4.48-3,8.8-4.43,13.21S140,80.77,139,85.28a170.33,170.33,0,0,0-3.87,27.46c-.35,4.63-.68,9.27-1.32,13.9a65.14,65.14,0,0,1-3.21,13.69,41.23,41.23,0,0,1-7.09,12.24,44.31,44.31,0,0,1-5,5.1c-1,.76-2,1.34-3,2-.53.28-1.09.52-1.64.79l-.82.38c-.28.12-.58.19-.87.29l-1.75.53-1.8.3-.89.13-.9,0-1.8.07a60.54,60.54,0,0,1-7-.64c-4.62-.67-9.17-1.5-13.75-2.13a193.62,193.62,0,0,0-27.65-1.95,193.13,193.13,0,0,0-27.7,1.91c-4.59.63-9.16,1.47-13.8,1.89a22.6,22.6,0,0,1-7-.31A11.43,11.43,0,0,1,2.18,157.37Z"/><path class="cls-2" d="M116.25,138.12a59.15,59.15,0,0,1-2.85,7.51,20.53,20.53,0,0,1-3.8,5.48l.21-.2-2.39,1.93,8-5-10.78,6.39,9-4.75-11.15,5.12,9.33-3.65-11.34,3.7,9.64-2.6-11.43,2.41,9.89-1.62c-14.52,1.61-7.08.33-16.17,2.47-2.84.67-5.68,1.28-8.54,1.84a49.21,49.21,0,0,1-11.92.91c-3-.14-6.07-.16-9.11-.24a169.79,169.79,0,0,1-23.72-2,69.23,69.23,0,0,1-12.28-2.93l-4.11-1.7a27.51,27.51,0,0,1-12.08-10.42l3.6,6.14L9.5,138.7l3.08,6.38-3.87-8.36,3.4,8.88L8.25,132.27l1.17,9.27-1.76-.64,1.58-.9c.36-.23,1.27-.64,1.47-1.08a4.94,4.94,0,0,0,.37-4.88,64.28,64.28,0,0,1-.22-13.66c0-7.12,0-14.24.2-21.36a158.61,158.61,0,0,1,1.2-17.42l.93-5.87a35.23,35.23,0,0,1,7.65-16.79L15.9,63.53l8-7.18L16.64,61.8l9.76-5.86-8,4,11.51-4.72-8.1,2.37L34.4,54.49l-6.79.88a71.93,71.93,0,0,1,20-.87c3,.32,6.09.78,9.11,1.36q12.87,5.72,13.16-14.57a68.09,68.09,0,0,1,21.1-30.52l-9.36,1,14.7.12-9.13-1.67,13.53,4.66-8.29-4.09,9.13,6-7-5,7.6,7.39-5.71-6L102,21.87l-4.36-7L99.92,21l-1.6-4.37,2.08,10.75L99,19l-1,14.92,1.64-9.19-2.9,12.17,2.45-8.23c-1.46,4.53-3.36,9.74-4.67,14.59a29.05,29.05,0,0,0-1,6.15c-.13,2.87.57,6.3,2.47,8.55a14,14,0,0,0,7.32,4.5c6.25,1.73,13,.23,19.1-1.46,3-.82,6-1.74,9-2.46,3.56-.85,6.95-1.52,10.61-.42l-8-3.49,9.59,4.72-8.36-4.65,8.75,6.07-7.33-5.35,4.28,11.87-1.5-9.71-1.55,13.15,2-8.88c-2.66,6.82-5.71,13.49-8.64,20.2a79.64,79.64,0,0,0-3.09,8.39c-2.41,7.78-3.55,15.72-5,23.72a176.78,176.78,0,0,1-6.55,24.43,4.09,4.09,0,0,0,.83-.78c1-1,1.94-2.09,2.89-3.14s1.92-2.12,2.87-3.18a4.31,4.31,0,0,0,.69-.9c2.27-8.21,4.3-16.47,5.9-24.83.62-3.2,1.5-6.32,2.08-9.53.68-3.76,1.42-7.49,2.39-11.19,1.59-6.06,3.77-12,5.18-18.06l-4.79,8.49c2.57-3.23,5.11-6.46,7.85-9.53a8.57,8.57,0,0,0,2.17-3.85c.39-1.86-1.09-2.86-2.48-3.65a55.45,55.45,0,0,0-7-3.83,18.83,18.83,0,0,0-4.45-.44,38.06,38.06,0,0,0-6.83.35,77.26,77.26,0,0,1-12.15.79c-3.55-.1-8-.56-10.48-3.35-2.19-2.41-2.57-5.75-2.92-8.84a36.08,36.08,0,0,1,.37-7.41c.25-2.68.61-5.31.76-8l-2.73,9.22,5-11.37.8-2.87.28-2.75-.42-2.57a3.61,3.61,0,0,0-.8-.66c-2.39-1.78-6.05-5.27-7.94-5.57a49.12,49.12,0,0,0-5.82-.31c-1,0-2-.13-3.07-.09-1.4.06-1.32.28-3.47,1l9.36-1c-1.88-.18-3.77-.28-5.66-.3-1.34,0-3.31,1-4.5,1.36S78.17,12.57,77,13a3.31,3.31,0,0,0-.91.38q-7.29,13.88-15.85,27Q59,56,47.61,52.53a67,67,0,0,0-13.43.54A38.08,38.08,0,0,0,25,55.58a22.5,22.5,0,0,0-11,9.5,35.58,35.58,0,0,0-4.93,13l-.67,5.55q-.26,6.24-.79,12.44c-.45,7.53-.48,15.09-.42,22.63A136,136,0,0,1,7,138a2.54,2.54,0,0,0,.65,2.9l3.05-2,0-1.43-3,3.32c3.57,4,6.88,8.11,11.28,11.27a46.61,46.61,0,0,0,13.83,6.55c7.42,2.23,15.27,3,23,3.3a159.25,159.25,0,0,0,20.84-.59c4.08-.38,8.15-.87,12.2-1.51a55.07,55.07,0,0,0,9.52-2.4c5.14-1.84,9.85-4.69,14.56-7.42a19.08,19.08,0,0,0,3.47-2.67c1-1.24,2.07-2.46,3.17-3.63a13.41,13.41,0,0,0,2-2.55,54.26,54.26,0,0,0,4.34-8,4.06,4.06,0,0,0-1,.45c-1.28.64-2.56,1.28-3.83,1.94s-2.54,1.31-3.81,2A4.61,4.61,0,0,0,116.25,138.12Z"/><path class="cls-2" d="M116.52,137a56.64,56.64,0,0,1-2.73,7.37,21,21,0,0,1-3.82,5.51l.7-.65-2.93,2.42,6.53-4.36-9.37,5.81,7.53-4.12-9.67,4.51,7.9-3.21L98.94,153.3l8.56-1.46a45.31,45.31,0,0,0-12.34,1.69c-2.27.58-4.55,1.12-6.84,1.6-3.7.78-7.42,1.45-11.14,2.12h1c-8-.68-16-.51-24-1a141.82,141.82,0,0,1-14.83-1.62c-10.4-1.72-19.24-4.33-27-12.95l5.32,6.87-6.8-9.05L16,147.43l-7-12,3.85,8.65L8.5,132.16l2.3,9.11L8.83,130l1,9.4c-.76,0-1.13.24-1.11.76,0-.08.86-.68,1-.81.41-.38,1.13-.86,1.36-1.39a5.63,5.63,0,0,0,.43-5.11,92.12,92.12,0,0,1-.23-13.8c0-7.13,0-14.25.18-21.37a156,156,0,0,1,1.2-17.42l.95-5.88a35.23,35.23,0,0,1,7.66-16.73l-3.31,2.91,6.37-5.48-7.2,5,9.66-5.38L19,58.23,30.2,54,24,55.55,37.47,53l3.07-.11a73.53,73.53,0,0,1,9.49.62,53.52,53.52,0,0,1,7.29,1.29Q65.6,59,66.32,48,75.83,28.59,85.41,9.22l-7.94,2.2,9.94-1.87-7.26,1.07L93.84,10l-7.27-.71,10,1.39-7.76-2,10.13,3.18L91.69,8.94l9.24,4.66L94.28,9.69l7.62,5.84L96.49,11l6,7L98.2,12.79l1.3,2.6-.3-.74a27.44,27.44,0,0,1,.48,13.19l.31-5.23c-1.32,7.7-3.77,13.62-5.47,20.7A20.31,20.31,0,0,0,94,51c.84,5.74,5.57,9.62,11.13,10.58,5.82,1,11.84-.2,17.46-1.72,3-.82,6-1.74,9.06-2.47,3.55-.86,6.92-1.57,10.58-.5l-6.54-3.13,8.12,4.32L137,54l7.21,5.57-5.7-4.73,4.9,7.63-3.22-5.91a15,15,0,0,1-.07,4.59l.14-.78-3.81,11.24,2.74-6.23c-3.5,7.1-7.47,14-10,21.5-2.82,8.42-4.18,17-5.71,25.71A181.72,181.72,0,0,1,117,137.26a3,3,0,0,0,.68-.64c.78-.87,1.55-1.75,2.32-2.63s2.54-2.32,2.83-3.41c2.22-8.22,4.26-16.48,5.81-24.85.6-3.21,1.46-6.36,2.06-9.57.7-3.73,1.46-7.44,2.48-11.1,1.66-5.94,3.93-11.66,5.65-17.58L135,74.16a49.25,49.25,0,0,1,6.25-7.9c.42-3.1.8-6.19,1.15-9.29,0-.34-3.66-1.9-3.71-1.92-.87-.42-2.72-1.71-3.8-1.72a45,45,0,0,0-7.69.39c-2.58.43-5.14.9-7.72,1.31a50.58,50.58,0,0,1-8,.79c-2.52,0-6.06-.29-8.32-1.64a10.32,10.32,0,0,1-4.17-4.53,18.52,18.52,0,0,1-1.25-6,35.43,35.43,0,0,1,.78-8.89c.36-2,.71-4,1-6.09l-2.3,6.94c1.86-4.21,4.09-8.39,5.28-12.85.38-1.44.57-1.18.07-2.18-1.69-3.42-3.7-6.66-5.7-9.91a3,3,0,0,0-.84-.3c-1.07-.29-2.15-.57-3.23-.84s-3-1.12-4.12-.93A29.24,29.24,0,0,0,82.7,9.93L69.5,25.74Q61.73,38.55,55,51.89a68.87,68.87,0,0,0-8.1-.74,62.54,62.54,0,0,0-13,.6,34.35,34.35,0,0,0-5,1.06,28.08,28.08,0,0,0-11,6.33l7.72-4.34c-1.23.1-1.08,0-2,.58-1.63,1-3.21,2.19-4.79,3.31A21.57,21.57,0,0,0,17,60.1c-2.68,2.34-4.27,6.17-5.5,9.42A48,48,0,0,0,8.75,82.1c-.11,3.09-.28,6.18-.53,9.26q-.41,5-.48,10l-.08,7.46c0,5.64.1,11.29.38,16.92L8,136a5.35,5.35,0,0,0,.7,4.12l2.37-2.3a20.33,20.33,0,0,0-.21-4.41c-.18-.9-.36-1.8-.55-2.7.27-1.25-.08-1.76-1-1.52a47.22,47.22,0,0,0-.14,5c0,1.33,0,2.65,0,4a4.14,4.14,0,0,0,.08,1l6.7,8.22a7.2,7.2,0,0,0,1.26,1.08,39.54,39.54,0,0,0,5,3.5,55.68,55.68,0,0,0,18.05,6.3A122.48,122.48,0,0,0,65.69,160c5.81-.14,11.59-.6,17.36-1.3a80.69,80.69,0,0,0,14.59-3l4.4-1.54,4.59-1.73c1.34-.74,2.61-1.65,3.89-2.49a33.85,33.85,0,0,0,4.58-3.16l2-2.45,2.07-2.47c2.19-2.81,3.62-6.3,5.06-9.52a2.84,2.84,0,0,0-.86.41c-1,.59-2.05,1.18-3.06,1.79s-2,1.22-3,1.84A2.82,2.82,0,0,0,116.52,137Z"/><path class="cls-2" d="M117.08,137.85a61,61,0,0,1-2.9,7.51,18.6,18.6,0,0,1-6,7.24l8-4.77L105.3,154l9.1-4.5-11.21,4.86,9.38-3.44-11.37,3.48,9.65-2.44-11.44,2.24,9.89-1.48c-11,1.1-8,.29-13.85,1.76q-5.37,1.36-10.82,2.43a42.93,42.93,0,0,1-10.42,1c-2.86-.14-5.72-.2-8.58-.26a202.76,202.76,0,0,1-20.76-1.29,97.91,97.91,0,0,1-12.61-2.24l-4.73-1.43a31,31,0,0,1-14.7-10l4.66,6-6.13-8.17,5.52,8.53L9.47,136.5l4.23,9.32L8.94,133.29l2.63,9.85L9.72,130.59,9.92,141l1.65-20.89V111c0-6.58.15-13.16.54-19.73.26-4.34.65-8.65,1.34-12.94a34.28,34.28,0,0,1,1.13-5.58,31.79,31.79,0,0,1,4.6-11.17l-.16.25,2.6-3.19-6.82,6.6,9.89-9.15-8.1,6.51,10.57-6.89-9,5,12.42-5.64-9.95,3.36,14.49-4.13-9.45,1.51,12.2-1.74-7.8.55a79.8,79.8,0,0,1,22.53.23q3.81.53,7.55,1.43l2.78.62L70.69,41a120.37,120.37,0,0,1,18-30.79L78.48,12.29l12.11-1.6-9.45.86L97,11.66,86.76,9.87l12.61,3-10-3.26L102.8,17l-8.64-6.1L103,22.19,97.92,14,102,24.27l-3.13-8.46L101.07,27l-1.43-8.51L100,29.86l.17-8.54L98.67,33.58l1.82-9.42L97.43,36.54l2.64-8.34c-1.51,4.53-3.52,9.8-4.84,14.69a29.25,29.25,0,0,0-1,6.16c-.13,2.87.56,6.3,2.44,8.56a13.94,13.94,0,0,0,7.28,4.58c6.3,1.8,13,.3,19.19-1.39,5.86-1.62,11.61-3.63,17.75-3.55l-.29,0,2,.62-8.66-4,10.23,5.24-9-5.23,9.31,6.59-7.88-5.9,5,12.74-1.8-10.33L138.51,70.4l2-9.1-3.6,11.24,3.5-8.13c-3.7,7.75-8,15.28-10.74,23.45-2.81,8.44-4.17,17-5.71,25.76a181.86,181.86,0,0,1-6.61,24.71,4.1,4.1,0,0,0,.85-.76c1-1,2-2,3-3.06s2-2.06,3-3.1a4.68,4.68,0,0,0,.73-.87c2.15-8.2,4.26-16.46,5.8-24.8a53.87,53.87,0,0,1,1.55-6.62q1-5.93,2.31-11.78c1.39-5.85,3.21-11.61,5.05-17.33L138,72.28l3.58-5a19.67,19.67,0,0,0,2.09-2.38c.69-.89,2-2.63,1.73-3.85-.47-2.25-2.85-3.07-4.59-4.08a37.5,37.5,0,0,0-5.93-3.31l-4.22-.33a20.13,20.13,0,0,0-4,.12c-2.44.23-4.83.62-7.27.82-4.19.33-8.45.78-12.54-.47-1.65-.51-3.47-1-4.66-2.33a12.39,12.39,0,0,1-2.17-3.76c-.15-1.18-.32-2.35-.51-3.53a9.29,9.29,0,0,1-.23-2.73,42.27,42.27,0,0,1,.54-7.63,52.6,52.6,0,0,1,2.54-8.53c2.13-6-.64-5.49-5.14-13.6a4.28,4.28,0,0,0-1.12-.28c-1.42-.27-2.85-.52-4.27-.77s-2.85-.49-4.28-.72a4.45,4.45,0,0,0-1.15-.12,29.4,29.4,0,0,0-5.63,1.76l10.87-1q-3-.35-5.91-.4c-1.52-.06-3.77,1-5.12,1.45s-2.69.82-4,1.25a3.76,3.76,0,0,0-1,.41Q68.37,26.82,60,39.73l-7.14,12.7L50,52.24a67.88,67.88,0,0,0-14.32.38c-10.54,1.5-19.1,6.22-23.61,16.84a43.44,43.44,0,0,0-2.85,9.47A89.16,89.16,0,0,0,8.4,90.59L8,96.93c-.46,7.52-.44,15.08-.36,22.6a161.56,161.56,0,0,1-.07,19.31,3.56,3.56,0,0,0,1.58,3l2.35-3.12a20.67,20.67,0,0,0-.23-4.45c-.18-.85-.36-1.71-.55-2.56.22-1.2-.11-1.66-1-1.39-.18,0,0,5.58,0,5.49,0,1.45.06,2.89.11,4.34a4.45,4.45,0,0,0,.11,1.15c1.77,2,5.1,6.34,7.11,8.09a39.67,39.67,0,0,0,4.67,3.49,50.28,50.28,0,0,0,17.06,6.69c13.29,2.76,27.38,2.67,40.84,1.24,3.91-.41,7.89-.8,11.74-1.6a69.68,69.68,0,0,0,7.9-2.11c5.11-1.67,9.8-4.48,14.5-7.05a16,16,0,0,0,4.54-4c1.41-1.67,2.9-3.24,4.14-5a57.46,57.46,0,0,0,4.33-8,4.38,4.38,0,0,0-1,.43l-3.82,1.9c-1.27.63-2.53,1.28-3.79,1.93A4.12,4.12,0,0,0,117.08,137.85Z"/><path class="cls-2" d="M116.87,139.31a23.56,23.56,0,0,1-2.58,6.9,14.27,14.27,0,0,1-5.94,7.57l2.12-1.23c-1.55.83-10.52,2.1-14.78,3-3.62.74-7.27,1.41-10.91,2.1a43.18,43.18,0,0,1-10.34.91c-2.85-.15-5.69-.21-8.53-.3-6.92-.23-13.82-.54-20.69-1.41a97.09,97.09,0,0,1-12.55-2.27L28,153.11q-16.63-4.7-17.65-22L9.38,134c.61-.47.77,3.53.72,2.74a20.59,20.59,0,0,0,1.47,2,7.25,7.25,0,0,0,1-4.77,74.31,74.31,0,0,0,.55-13.75c0-7-.1-14,.06-21A149.84,149.84,0,0,1,14.22,82l.91-5.82a38.62,38.62,0,0,1,5.1-13.61l-1.17,1.59,3.74-4.76-2.59,2.72,5.39-5-3,2.43A48.41,48.41,0,0,1,53.7,55.89q5.05.77,10,2l.16,0C71.57,42.33,79.34,26.76,87,11.16l-4.1,2.17,8.44-1.53-3.57.45,10.32.41-4.87-1.15,6.86,2.3-4.21-1.69,6.21,3.42-3.86-2.31q7.56,6.61,2,15.52a39.64,39.64,0,0,1-3.47,12.4A37.58,37.58,0,0,0,95,47.28c-.89,5,0,10.89,4.39,14,5.67,4,12.41,3.73,18.92,2.55,7.92-1.44,15.26-5.36,23.43-5.39l-2.52-.59,4.54,1.18-4.88-1.82,6,2.83-4.21-2.25,2.59,5.05L143,64.34l-7.09,12.33-1.77,2.91a70.53,70.53,0,0,0-6.26,16.74c-1.55,6.17-2.43,12.42-3.57,18.66a190.82,190.82,0,0,1-6.49,24.47,12.37,12.37,0,0,1,1.44-1.26c.34-.34,1.14-.91,1.29-1.43a194.47,194.47,0,0,0,5.72-22.68A208,208,0,0,1,131.68,89a62.16,62.16,0,0,1,3.15-8.24c1.74-3.77,3.91-7.33,5.89-11l-1.3,2.2c1-1.23,2.08-2.41,3.19-3.55a21.37,21.37,0,0,0,2.68-3.1,5.78,5.78,0,0,0,1-3.34c-.15-2.75-4.94-4.14-7-4.71a14.59,14.59,0,0,0-5.27,0c-3.06.44-6.06,1.33-9.06,2-7.2,1.74-16.48,4.06-23.23-.43-7-4.67-5.16-13.76-3-20.58,1-3.16,2.18-6.06,3.48-9.11s3.22-7.57,1.74-11.06c-2.88-6.78-10.88-6.77-17-7-.63,0-1.67.74-2.17,1s-1.8.69-2.06,1.19q-5.55,11.3-12.09,22A48.51,48.51,0,0,1,53.65,54.84l-4.88-.46a45.72,45.72,0,0,0-6.3-.16,46.86,46.86,0,0,0-15.31,2.61l4.21-1c-1,.19-4.27.06-5.88,1.16-.76.52-1.48,1.17-2.18,1.76a23.86,23.86,0,0,0-3.43,3.53c-5,6.34-6.26,15-6.92,22.76-.47,5.52-.68,11-.71,16.57q-.06,5.82.07,11.62a133.69,133.69,0,0,1-2.22,23.49l1.47,2.06a21.81,21.81,0,0,0,0-4.12c-.09-.84-.21-1.68-.34-2.52.29-1.12,0-1.56-.88-1.31-.31,0-1,2.92-1,3.14a22.39,22.39,0,0,0,7.25,13.26c5,4.52,11.51,7.26,18,8.75,10.33,2.38,20.88,2.87,31.44,3.2,5.75.19,11.67.58,17.37-.37q3.93-.69,7.83-1.53c3.22-.41,6.42-.89,9.62-1.45a24.32,24.32,0,0,0,4.67-.46,14.1,14.1,0,0,0,5.51-2.88,29.5,29.5,0,0,0,4.7-5,40.57,40.57,0,0,0,4.66-9.51s-1.8.61-1.81.61C118.4,138.58,117,139,116.87,139.31Z"/><path class="cls-2" d="M117.51,138.26a62.41,62.41,0,0,1-2.94,7.48,18.66,18.66,0,0,1-6,7.24l5.42-3.09-8.24,4.53,7.53-3.44-9.65,3.82,7.7-2.49-9.69,2.55,7.85-1.59c-14.93,2.2-6.79,0-13.51,1.69-3.6.89-7.22,1.7-10.86,2.4a44,44,0,0,1-10.31,1c-2.89-.14-5.77-.19-8.66-.24a205.64,205.64,0,0,1-20.76-1.29,97.41,97.41,0,0,1-12.6-2.22L28,153.17a31.31,31.31,0,0,1-14.79-10l2.43,3.23L11.75,141l3.89,6.3L9.83,136.94,13,144.46,9.28,133.69l1.83,8Q9.19,139,9,140.44c0,.05,1.46-.6,1.43-.59.29-.14,1.17-.43,1.33-.78l.7-1.49a66.42,66.42,0,0,1-.51-12c.07-7.54-.06-15.08.11-22.62.32-14.74.13-31.7,9.92-44l-5.71,5.74,8.79-8.33-6.92,5.63,11.09-6.37L21.7,59l9.47-3.65L22.4,58.21l13.3-3.57-8.37,1.28,11.12-1.49-6.93.48a78.16,78.16,0,0,1,21.61.36q3.79.52,7.53,1.43l2.76.62,7.65-15.87Q78.6,26,86.24,10.53l-8.6,3,10.59-2.63-8,1.79,11-1.63L82.87,12l11.95-.68-9.12-.28,11.87,1-9.13-1.63,11.48,2.88-8.9-3,12.31,7.09-7.45-5.32,7.33,7.36-5.42-5.82,4.5,7.22L99,15.5l2.19,10.72-.9-6V30.41l.24-7.32L99,34l1.65-8L97.79,37l1.92-5.72c-2,5.7-4.83,12-5.14,18.21-.15,2.87.52,6.32,2.39,8.6a14,14,0,0,0,7.28,4.62c6.33,1.82,13.08.32,19.28-1.39,3-.83,6-1.77,9-2.51,3.55-.86,6.94-1.57,10.6-.46l-7.84-3.49,9.41,4.72-8.13-4.64L145.07,61l-7-5.31,5.33,10.22-2.75-7.79-.2,10.23.41-7.41L139,70.16l1.78-7-3.53,9.81,3.08-6.76c-3.63,7.25-7.74,14.36-10.31,22.08-2.82,8.42-4.18,17-5.73,25.73a181.66,181.66,0,0,1-6.56,24.68,2.82,2.82,0,0,0,.73-.6c.86-.83,1.71-1.66,2.55-2.51s1.69-1.68,2.52-2.53a3.25,3.25,0,0,0,.61-.73c2.23-8.26,4.31-16.56,5.9-25,.6-3.18,1.47-6.31,2.06-9.5.69-3.76,1.44-7.49,2.45-11.18,1.66-6.11,4-12,5.48-18.18l-4.27,7.07c2.53-3.21,5-6.41,7.75-9.46a10.49,10.49,0,0,0,2.08-3c.84-2.21-.47-3.42-2.16-4.41C141.32,57.4,139.21,56,137,55c-1.05-.5-.92-.29-2.73-.45a31.9,31.9,0,0,0-7.5.13,115.38,115.38,0,0,1-12.29,1.46c-3.3.13-7.19-.12-10.22-1.61a9.06,9.06,0,0,1-3.32-3.1c-1.14-1.65-1.26-3.46-1.58-5.37a22.33,22.33,0,0,1-.11-5.66c.45-4.79,1-9.6,1.52-14.39L99,34.23a68.39,68.39,0,0,0,4.19-9.92,12.5,12.5,0,0,0,.71-4.16,48.39,48.39,0,0,0-6.1-8.06,53,53,0,0,0-8.61-1.63c-2.28-.32-4.28.42-6.41,1.15-1.73.6-3.53,1.11-5.2,1.87l-.22.13Q70.08,27.4,61.52,40.46l-7.09,12.7-2.76-.22a65.47,65.47,0,0,0-7.8-.32A57.48,57.48,0,0,0,32,54.08a30.79,30.79,0,0,0-8.86,3.59c-3.11,1.86-5.42,4.84-7.55,7.74l-1.94,3.73a41.28,41.28,0,0,0-2.8,9A63.6,63.6,0,0,0,10,86.63c-.16,3.11-.37,6.23-.61,9.34-.41,7.51-.4,15-.32,22.57a120.31,120.31,0,0,1-.31,19.17A2.4,2.4,0,0,0,9,140.44l2.76-1.37a19.32,19.32,0,0,0-.23-4.43c-.18-.85-.36-1.7-.55-2.55.21-1.17-.12-1.62-1-1.34-.22,0-.28,4.51-.27,4.46-.05,1.18-.09,2.35-.11,3.53a2.7,2.7,0,0,0,0,.94c5.37,7.19,3.83,6.24,7.31,9.29a41.57,41.57,0,0,0,3.37,2.67,45.24,45.24,0,0,0,14.54,6.55c8.22,2.24,17,2.89,25.53,3a186.41,186.41,0,0,0,20.87-.79,87.52,87.52,0,0,0,16.21-2.85,93.52,93.52,0,0,0,13-5.16A19.8,19.8,0,0,0,116,148.9a13.12,13.12,0,0,0,2.25-2.56l2.15-2.41a47.57,47.57,0,0,0,5.25-9.4,2.86,2.86,0,0,0-.89.31l-3.23,1.45-3.21,1.5A2.73,2.73,0,0,0,117.51,138.26Z"/><path class="cls-2" d="M116.28,136.91a22.85,22.85,0,0,1-2.53,6.78,14.33,14.33,0,0,1-5.84,7.53l3.41-2.36-5.87,3.59,3.72-1.91-5.83,2.34,4-1.39L101.36,153l4.19-.88q-3.85.3-7.72.44c-2.26.56-4.54,1.07-6.82,1.53-4.41.92-8.82,1.76-13.26,2.53l2.74.1c-6.26-.39-12.51-.48-18.77-.68-9.7-.32-19.91-.79-29.18-3.39l-4.72-1.41a35.2,35.2,0,0,1-13-7.84l3.21,3.34-5.17-5.55,3.62,4.47L11.39,139l3.21,4.78-5.46-11.6,1.29,5.7.11-8.83L9.17,135.7a8.31,8.31,0,0,1,.17,1.79,2.93,2.93,0,0,0,1.88.15,12.86,12.86,0,0,0,1-9.18q-.16-9.57-.17-19.15,0-8.09.22-16.18-3.09-21.78,9.62-36l-3.33,3L25,54.55l-4.9,3.37c13.85-7.93,28.62-5.66,43-2.38l.14,0q11.52-23.37,23-46.74l-4.79,1.75,7.09-1.45-4.43.77L94.7,9.57,90.34,9l7.09,1.3L93.27,8.88l6.19,2.52L95.75,9.51l5.76,3.64L98.3,10.8l4.75,4.67-2.6-2.8c4.84,9.2-1.29,18-4.27,26.08a32.08,32.08,0,0,0-2,7.57c-.48,4.56.4,9.67,4.38,12.58a19.32,19.32,0,0,0,8.83,3.36,31.85,31.85,0,0,0,10.11-.61,101.37,101.37,0,0,0,11.59-3.18c4.5-1.35,9.2-3,14-1.68l-3.78-1.68,5,2.67-3.39-2.19L144.74,59l-2.29-2.19a6.69,6.69,0,0,1,.84,4.34c-.4,3.45-5.45,9.22-8,13.1-3.94,5.9-6.27,12.77-8,19.59-1.84,7.1-2.66,14.39-4.13,21.56a201,201,0,0,1-5.87,21.4c0,.11,0,.16.08.06a9.52,9.52,0,0,0,1.08-1.2,7.73,7.73,0,0,0,1.71-2.21A208.44,208.44,0,0,0,126,109c1-6,2.37-12,3.89-17.93a70.54,70.54,0,0,1,4.43-13.19,58.36,58.36,0,0,1,3.32-6.06,41.15,41.15,0,0,1,4.54-5.65c1.29-1.44,2.76-3,3.28-4.86.86-3.13-1.9-4.44-3.82-5.33a9.33,9.33,0,0,0-4.87-1.27,41.9,41.9,0,0,0-10.08,2c-2.83.79-5.75,1.85-8.64,2.35a49.17,49.17,0,0,1-7.46.7c-5.19.1-11.18-2.19-13.55-7.12-1.17-2.42-1.1-5.45-.94-8a14.73,14.73,0,0,1,1-5.73L98,35.91c1.24-3.57,3-6.93,4.37-10.42a20.46,20.46,0,0,0,1.32-4.38,12.54,12.54,0,0,0,0-4.1c-.22-1.25,0-1-.47-1.66a19.13,19.13,0,0,0-2.65-2.75A15.67,15.67,0,0,0,97.1,10c-.78-.35-1.63-.58-2.43-.85a13.27,13.27,0,0,0-1.73-.53c-1.45-.27-4.67.42-6,.64l4.53-.16-5.16-.28a7.81,7.81,0,0,0-2.5.77c-.34.12-2.2.53-2.44,1Q75.91,21.67,69.9,32.46A46.17,46.17,0,0,1,53.52,52.15a66.28,66.28,0,0,0-7.3-.7,50.48,50.48,0,0,0-6.39-.1,41.39,41.39,0,0,0-9.77,1.36,28.86,28.86,0,0,0-6.57,3l2.74-1.37c-1,.09-1.06,0-1.74.4-1.12.63-2.21,1.49-3.26,2.22a21,21,0,0,0-6.18,7.89A35.68,35.68,0,0,0,12,73.71a121.1,121.1,0,0,0-1.6,17.63c-.25,6-.21,12-.09,18q.09,6.18.36,12.35a60.82,60.82,0,0,0-1.29,15.77l1.88.15a23,23,0,0,0,0-4.47c-.11-.94-.25-1.87-.43-2.79.3-1.26,0-1.77-1-1.54-.1,0-.94,6.32-.58,6.94,2.55,4.29,3.91,7.2,7.5,10.35a38.91,38.91,0,0,0,11.93,6.94c7.79,3,16.28,3.93,24.52,4.44a188.75,188.75,0,0,0,21.8.09,92.39,92.39,0,0,0,11.27-1c5.61-1,11.18-2.31,16.71-3.67l-4.69-.18c2.41.22,4.94.91,7.28-.09a29.86,29.86,0,0,0,3.36-1.77,26.47,26.47,0,0,0,6.9-6.9,47.6,47.6,0,0,0,4.66-9.57,17.16,17.16,0,0,1-2.14,1.17C118,135.73,116.42,136.43,116.28,136.91Z"/><path class="cls-2" d="M116.07,138.57a59.51,59.51,0,0,1-2.91,7.47,18.4,18.4,0,0,1-6,7.26l6.46-3.94-9.28,5.38,7.33-3.59-9.46,4,7.51-2.61-9.5,2.67,7.66-1.68A48.28,48.28,0,0,0,97,154.65c-1.59.35-3.17.74-4.75,1.17Q87,157,81.79,158c-5.62,1-11.4.51-17.08.39a203.47,203.47,0,0,1-23.27-1.6c-4.78-.65-10.31-1.52-14.81-3.34l-10.41-5.6a25,25,0,0,1-7-8.66l1.42,3.11L8.43,137.2l2,5.89L8,135.46l1.48,6L8,134.49l.9,6,.39-9.2-.58,1.62c-1.08,4-1.46,3.65-1.4,5.85a6.41,6.41,0,0,0,2.83.68,10.72,10.72,0,0,0,.72-8.53q0-9.68,0-19.33-.06-8,.25-16a76.32,76.32,0,0,1,9.64-36.2l-4.24,4,7.3-6.61-5.12,3.88,7.58-4.29L21,58.94l10.82-3.63-4.89.9L34.23,55l-3.33.39C43,54.21,51,55.23,61.69,57.61l.2,0q11.46-23.29,23-46.55l-6.09,2.69,7.18-2L81.27,13,90,11.56l-6.17.82,9.55-.61-6.81-.16,9.52.84L89.2,11.18l8.68,2.33-6.06-2,8.07,3.72-5.75-2.94L99,15.71l-2.87-2.15,2.69,3L97.5,15a25.36,25.36,0,0,1,.2,18.78l1.21-6.64L96.38,37.37l2-6.51c-1.52,4.6-3.38,9.44-4.52,14.23a20.46,20.46,0,0,0-.57,7.71c.87,5.75,5.67,9.74,11.26,10.67,12.21,2,23.26-5.43,35.27-5.29l-2-.45,3.83,1-6.88-2.53,7.89,3.47-6.08-3,3,2-1.69-1.26,5,6.92-3.58-5.58c0,.05-.2,4.66-.18,4.14l.09-.79-3.39,11.24L138.44,67c-3.39,7.17-7.34,14.09-9.86,21.63-2.81,8.41-4.16,17-5.69,25.69A180.3,180.3,0,0,1,116.34,139a2.94,2.94,0,0,0,.69-.63c.8-.84,1.58-1.7,2.36-2.56s1.57-1.72,2.34-2.59a3.07,3.07,0,0,0,.56-.74c2.19-8.25,4.23-16.54,5.78-24.94.59-3.18,1.5-6.29,2.1-9.48.69-3.73,1.44-7.45,2.44-11.12,1.63-6,3.93-11.77,5.47-17.77l-3.76,6.78a97.38,97.38,0,0,1,7.07-8.63,12.52,12.52,0,0,0,2.38-3.14c.71-1.44.89-2.94-.35-4.19a3.11,3.11,0,0,0-.69-.44,42.58,42.58,0,0,0-6.11-3,44.67,44.67,0,0,0-6.58-.36,31.65,31.65,0,0,0-4.54.57c-2.11.36-4.24.56-6.37.79a47.21,47.21,0,0,1-8.32.4c-4.3-.31-8.55-1-11.27-4.67-2.24-3-2.64-7.14-2.45-10.84.2-4.07,1.17-8.07,1.59-12.12l-2.2,7.08c2-4.44,4.71-9.29,5.79-14.22.51-2.34.47-6.15-1.72-7.79a31,31,0,0,0-4.32-2.29c-4.87-2.5-3.56-1.49-11.31-2-.87-.06-2.47.95-3.18,1.26-.48.21-2.76.85-3.09,1.46l-8,14.73L62.4,42,54.89,54.72l-5.16-.67a72.67,72.67,0,0,0-13.11-.17,39.22,39.22,0,0,0-11.38,2.48,18.91,18.91,0,0,0-2.15,1,15.6,15.6,0,0,0-3.71,3,21.7,21.7,0,0,0-4.46,5.15,35.88,35.88,0,0,0-3.5,8.39A53.34,53.34,0,0,0,9.74,84.74c-.31,4.25-.66,8.5-.83,12.76-.2,5-.24,10-.22,15,0,2.84,0,5.67.08,8.5q.2,7.51-.3,15l2.06-4.6Q6,134.76,7.31,138.78l2.83.68,0-1.41-2.89.47c2,3.21,3.76,6.33,6.38,9a37.9,37.9,0,0,0,7.42,5.81c8,4.95,17.82,6.7,27.05,7.51a176.58,176.58,0,0,0,25.92.28,106.18,106.18,0,0,0,17.59-2.22,73.28,73.28,0,0,0,15.5-5.42c2.61-1.27,5-2.28,7.1-4.39a8.77,8.77,0,0,0,1.23-1.42c1-1.25,2.1-2.48,3.2-3.68a56.11,56.11,0,0,0,5.28-9.3,2.89,2.89,0,0,0-.87.33c-1,.49-2.09,1-3.13,1.49l-3.11,1.54A3,3,0,0,0,116.07,138.57Z"/><path class="cls-2" d="M117.64,138.07a57.36,57.36,0,0,1-2.77,7.3,17.44,17.44,0,0,1-6.06,7.27l3.67-2.22L106,154.09l4.72-2.2a33.92,33.92,0,0,1-12,2.13,82.31,82.31,0,0,1-22.32,3.85c-4,0-8-.24-12-.35-5.43-.14-10.85-.39-16.25-1A89.53,89.53,0,0,1,24.47,151a31.58,31.58,0,0,1-10.81-8.35l2.83,3.61-4.32-5.78,3.09,4.77L9.91,133.66l1.3,5.76,0-8.95-1.33,6.95c0,.13-.13,1-.13,1.28a4.48,4.48,0,0,0,2.34.17,10.58,10.58,0,0,0,.67-8.86q-.07-9.58-.08-19.18,0-8.06.26-16.1-2.51-20.91,9.6-36.07L18,63.42l7.67-7.33L20,60.72l8.13-5-5.83,3.15L31.57,55,25,57l8.65-2.39L27,56l9.07-1.75-5.49.7,14.76-.93a55,55,0,0,1,6,.56c4.13.52,8.14,1.36,12.2,2.26l.21,0q11.46-23.34,23-46.64L80,13l7.68-2L82.56,12.2l9.23-1.42-6.61.77,10-.53-6.59-.26,9.31,1-7.13-1.52,9.51,2.75-6.66-2.47,8.13,4-5.58-3.19,7.08,5.43L98.38,12.6l4.76,5.74-3-3.78L101,30.33l.74-5c-1.64,6.58-4.38,12.69-6,19.2a20.4,20.4,0,0,0-.62,7.7C95.88,58,100.66,62,106.27,63c5.93,1,12-.21,17.71-1.8,5.88-1.65,11.6-3.76,17.77-3.71l-.78-.17,2.61.74-6.12-2.59,7.68,3.78-6.28-3.57,6.75,5-5.14-4,4.22,4.68-3.17-3.69.81,1.55-.26-.63a16.9,16.9,0,0,1-2.47,11.57l1.81-4.58c-3,6.15-6.78,11.91-9.47,18.23-3.57,8.41-5.35,17.53-6.8,26.5a189.65,189.65,0,0,1-7.08,28,1.61,1.61,0,0,0,.52-.42c.58-.58,1.15-1.17,1.72-1.76s1.87-1.56,2.09-2.33c1.93-6.84,3.81-13.71,5.19-20.68,1.11-5.59,2.21-11.18,3.39-16.75a99.42,99.42,0,0,1,7.24-22.07,21.72,21.72,0,0,1,1.45-2.79,9.55,9.55,0,0,1,2.89-4.22c3-3.2,1.47-1.91,1.24-9.26,0-.39-3.37-1.57-3.47-1.61-.87-.37-2.52-1.42-3.56-1.41a40.82,40.82,0,0,0-7.65.58c-2.06.41-4.11.87-6.18,1.27-5.73,1.1-11.65,2.25-17.38.45a10.1,10.1,0,0,1-5.4-3.67,12.72,12.72,0,0,1-1.79-5.48,22.79,22.79,0,0,1,.17-7.09l1.48-6,1.47-6.58-1.76,5.29q2-4.17,3.65-8.49a16.5,16.5,0,0,0,1-5.6,1.59,1.59,0,0,0-.39-.61q-2.91-3.7-5.85-7.39c-.45-.57-3.21-.79-3.74-.9-.92-.2-2.76-.91-3.78-.7l-1.77.37.79-.11-2.86-.09c-1,0-2.66.93-3.52,1.27-.48.2-3.08.85-3.43,1.48q-5.49,10.79-11.89,21-4,6.35-7.55,13-1.28,9.27-9.1,5.8l-5-.26a56.24,56.24,0,0,0-11.8.88c-3.77.75-8.09,1.9-11.11,4.42-3.29,2.76-6.23,5.75-8,9.71a43.16,43.16,0,0,0-2.27,6.5,71.24,71.24,0,0,0-1.74,13.67c-1.06,15.87-.28,31.7-.73,47.59l.15-.59a3.75,3.75,0,0,0-1,3.95l2.34.17a21.34,21.34,0,0,0-.11-4.52c-.14-.89-.31-1.77-.5-2.65.25-1.2-.08-1.66-1-1.4-.13,0-.9,6.53-.52,7.16,1.75,2.92,3.09,5.84,5.42,8.26A33.27,33.27,0,0,0,21,150.35a45.4,45.4,0,0,0,12.68,5.75c8.12,2.33,16.73,3,25.13,3.34a195.59,195.59,0,0,0,21.79-.37,81.23,81.23,0,0,0,10.53-1.43c2.91-.58,5.8-1.24,8.69-1.92,3.58-.84,5-.93,7.59-2.09a24.47,24.47,0,0,0,6.45-3.82,34.1,34.1,0,0,0,4.39-5,55.9,55.9,0,0,0,5.23-9.46,1.51,1.51,0,0,0-.64.21q-1.16.51-2.31,1.05C120.18,136.76,117.82,137.54,117.64,138.07Z"/><path class="cls-2" d="M114.88,137.09a25,25,0,0,1-2.63,6.88,14,14,0,0,1-3.53,5.63l2.18-2-7,5.19,3.3-1.77-5.4,2.17,3.51-1.27-4.79,1.17,3-.61q-3.59.2-7.19.31c-2.27.56-4.54,1.07-6.83,1.53-4.42.93-8.84,1.77-13.29,2.53l2.4.11c-9.2-.65-18.42-.5-27.62-1.18a113.33,113.33,0,0,1-20-3c-7.87-2-14.1-5.31-19.65-11.54l1.42,1.95-2.9-4.15,1.78,3L8.25,129.34l-.92,3.89a.87.87,0,0,1,.71,1c.09.56.15,1.13.19,1.7,0,.15,1,1.12,1.08,1,1.5-3,1.7-5,2.28-9.18q-.06-9.48-.48-19-.11-6,0-12a147.81,147.81,0,0,1,1.5-20,50.86,50.86,0,0,1,1.73-8.16A27.35,27.35,0,0,1,24,54.42L21.8,55.73,30,53.54a32.78,32.78,0,0,1,3.41-.44,58.92,58.92,0,0,1,7.15-.24,104.64,104.64,0,0,1,21.68,3.35.18.18,0,0,0,.2,0C70.31,40.55,78,24.78,85.63,9l-1.35.52q19.34-.67,17.59,11.28a27.36,27.36,0,0,1-2.93,8.43,89.94,89.94,0,0,0-5.39,12.81c-1.36,4.46-1.85,9.29.43,13.5,3.55,6.54,11.82,8.24,18.7,7.44a69.57,69.57,0,0,0,12.1-2.77c5.22-1.57,10.09-3.33,15.62-3.4l-.79-.19,3.47,1.61-.67-.5c2.29,3,.61,5.23-1.28,7.63-1.49,1.9-3.25,3.54-4.8,5.38a45.88,45.88,0,0,0-7,12c-4.13,9.79-5.57,20.3-7.39,30.69a174.4,174.4,0,0,1-6.3,23.66c-.14.43.83-.82.69-.65a8.12,8.12,0,0,0,1.63-2.2,194.68,194.68,0,0,0,5.93-24.73c.81-5.08,1.91-10.17,3-15.18.73-3.3,1.65-6.52,2.68-9.74a30.67,30.67,0,0,1,2.27-5.79l3-5.67A31.61,31.61,0,0,1,139,68.54c2.22-2.18,7.74-6.31,4.84-10-1.44-1.81-4.13-2.38-6.27-2.25-4.72.29-9.28,2-13.8,3.3l-3.47,1-8.52,1.26-8.08-1.14a9,9,0,0,1-6.89-6.81,7.17,7.17,0,0,1-3.17-6.47,13,13,0,0,1,.13-2.92A34.19,34.19,0,0,1,97.23,33.4c2-4.21,4.75-8,5.42-12.75A8,8,0,0,0,101,13.91a13.73,13.73,0,0,0-4.41-3.41c-3.24-1.66-7.51-1.42-11-1.58-.26,0-1.23.27-1.35.52L76.77,24.83A42.94,42.94,0,0,1,62.45,47.39q-2.81,8.53-9.07,6.43c-1.53-.29-3.08-.52-4.63-.71a74.72,74.72,0,0,0-15.82-.4A38.12,38.12,0,0,0,26.13,54a11.29,11.29,0,0,0-3,.79,14.3,14.3,0,0,0-4.22,3.6,31.6,31.6,0,0,0-6.77,14.85c-1.76,9.42-1.89,19.11-1.76,28.66.08,5.46.52,11,.32,16.44a26.86,26.86,0,0,1-1.11,8.22q2.82,7.35-1.67,8.29a34.63,34.63,0,0,0,1.45,4.49,30.57,30.57,0,0,0,7,7.95,41.64,41.64,0,0,0,14,7A93.23,93.23,0,0,0,50.5,157.5a194,194,0,0,0,22.1.25,92.41,92.41,0,0,0,11.4-1c5.65-1,11.26-2.31,16.83-3.65l-4.15-.22c2.5.26,5.19,1,7.57-.17a21.94,21.94,0,0,0,3-1.67,32.69,32.69,0,0,0,4.34-3.83c3.32-3.36,5-8.09,6.68-12.41a15.17,15.17,0,0,1-1.73,1C116.19,136.08,115,136.64,114.88,137.09Z"/><path class="cls-2" d="M115.69,137.76a59.06,59.06,0,0,1-2.91,7.48,20.67,20.67,0,0,1-3.81,5.5l.68-.63-2.91,2.41,6.32-4.22L103.92,154l7.26-3.93-9.4,4.31,7.56-3-8.91,2.82,7.17-1.84-8.93,1.72,7.36-1a37.32,37.32,0,0,0-11.78,1.39c-2.28.59-4.56,1.13-6.86,1.62-3.69.77-7.39,1.43-11.1,2.09l.91,0c-9.53-.87-19.12-.49-28.67-1.32A108.56,108.56,0,0,1,31,154.09a41.31,41.31,0,0,1-15.11-7,25,25,0,0,1-7-8.65l2.33,5.08-3.12-7,2.29,6.43-2.83-9.68,1.16,7.13Q6.88,137,7,138.65a5.94,5.94,0,0,0,2.7.19,6.45,6.45,0,0,0,.7-5.05q.15-7,0-13.93c0-7.08,0-14.16.15-21.24a157.87,157.87,0,0,1,1.17-17.39l.92-5.89a29.52,29.52,0,0,1,7.66-16.78L18,60.7,23.41,56,18.2,59.62l7.66-4-5.2,2.3,8.65-3-3.07.71L43.16,54a55.22,55.22,0,0,1,6,.57c4.12.55,8.12,1.38,12.18,2.29l.18,0Q73,33.59,84.55,10.33l-5.7,2.3,6.91-1.74-4.39,1L93,11l-5.7-.34,8.42,1-6.18-1.43,8,2.5-5.4-2.09,7.42,3.77-5.07-2.87L100.23,16l-3.72-3,1.75,2.17-.39-.58c2.33,5.86.78,11.17-.33,17.36l1-5c-1.54,5.83-3.7,11.52-5.11,17.38a21.94,21.94,0,0,0-.63,6.2,12.38,12.38,0,0,0,2.31,7,13.7,13.7,0,0,0,7.24,4.62c5.65,1.69,12.06.92,17.71-.45,6.83-1.66,14-5.64,21.21-3.69l-5.66-2.15L142.35,59,137,56.11l4.16,3-2.69-2,4.06,4.25-3.31-3.71c1.14,2.34-2,12.47-1.65,11.21l1.3-4.86-6.59,14.08-1.61,3.43c-.92,2.07-1.71,4.18-2.43,6.33-2.81,8.4-4.17,17-5.69,25.68A178.47,178.47,0,0,1,116,138.19a2.63,2.63,0,0,0,.65-.64c.75-.86,1.49-1.73,2.22-2.6s2.42-2.31,2.71-3.39c2.2-8.23,4.22-16.49,5.75-24.86.59-3.2,1.48-6.33,2.09-9.53.7-3.72,1.46-7.41,2.48-11.06,1.63-5.83,3.89-11.41,5.69-17.17L134,75.18a98.58,98.58,0,0,1,7.1-8.67,12.68,12.68,0,0,0,2.36-3.14c.7-1.43.85-2.89-.37-4.13a2.87,2.87,0,0,0-.61-.42A32.06,32.06,0,0,0,137,56a53.18,53.18,0,0,0-6.6-.39,30.12,30.12,0,0,0-4.53.64c-4.76.9-9.93,1.81-14.77,1.5-4.64-.29-9.07-1.05-12.2-4.8a8.33,8.33,0,0,1-2-4.44,32.87,32.87,0,0,1-.51-6.64c.24-4,1.26-7.93,1.85-11.88L96.1,36.65c1.5-3.31,3.14-6.59,4.46-10A21,21,0,0,0,102.05,21c.25-2.69-.41-5.59-2.83-7a30.63,30.63,0,0,0-4.63-2.54,27.46,27.46,0,0,0-4.26-.85,55.77,55.77,0,0,0-5.78-.27,9.56,9.56,0,0,0-3,1.06c-.42.16-2.6.71-2.89,1.26L70.8,27.44,62.72,41.11,55.31,54.05l-5.2-.75a75,75,0,0,0-13.23-.39,43.61,43.61,0,0,0-11.7,2.31,20.34,20.34,0,0,0-5.1,2.9c-5,3.52-7.67,9.23-9.32,14.95A52.71,52.71,0,0,0,9.1,84c-.29,4.26-.65,8.51-.82,12.78-.48,12.78.06,25.57-.09,38.36l.52-1.38Q6.13,136,7,138.65l2.7.19c0-.77.07-1.54.1-2.3.26-1.57-.54-2.75-2.4-3.52a2,2,0,0,0,0,.8c.14,1,.3,2,.46,3a13.39,13.39,0,0,0,.72,3.75c4.2,7.74,11.71,12.88,19.87,15.86,7.92,2.89,16.69,3.87,25.07,4.23a167.58,167.58,0,0,0,22.63-.43,106.89,106.89,0,0,0,15.53-2.28c5.52-1.33,11.43-3,16.23-6.06a63.37,63.37,0,0,0,5.8-3.92,24.66,24.66,0,0,0,4.22-5,65.91,65.91,0,0,0,5.24-9.45,2.9,2.9,0,0,0-.84.38l-3,1.67-3,1.72A2.8,2.8,0,0,0,115.69,137.76Z"/><path class="cls-2" d="M115.67,136.74a51.51,51.51,0,0,1-2.35,6.94,21.18,21.18,0,0,1-3.76,5.51l2-1.87-6.88,5.05,3.09-1.61-4.56,1.77,2.71-.92a75.41,75.41,0,0,1-8.75.77c-2.27.54-4.55,1.05-6.84,1.5q-6.6,1.37-13.24,2.53l3.61.13c-9.6-.57-19.24-.48-28.83-1.19a132,132,0,0,1-15-1.86A65.75,65.75,0,0,1,27.18,151a35.11,35.11,0,0,1-13-7.87l1.88,2-3.83-4.19,2.53,3.22L8.52,131.82l.92,4.89.51-7.93-1.58,5.51c.54.45.43,1.57.5,2.25,0,.24,1.45.83,1.52.68a8.44,8.44,0,0,0,1-5.34,65,65,0,0,0,.37-14.15c-.06-8.26-.27-16.56.08-24.82.27-6.39.44-13,1.92-19.28l3-9.76a22.77,22.77,0,0,1,7.83-9.65l-3.7,2.33c13.5-6.65,28.2-4.22,42-1H63Q74.58,32.15,86,8.64L83.11,9.79l14.16.37L94.78,9.11,101.09,13l-1.5-1.23L102.28,15l-.73-.95a11.56,11.56,0,0,1,1,5.49,36.56,36.56,0,0,1-4,11.93,77.07,77.07,0,0,0-4.11,10.22c-1.18,3.91-1.83,8.24-.33,12.18,1.78,4.66,6.26,7.35,11,8.32a30,30,0,0,0,12.16-.34,113.11,113.11,0,0,0,11.58-3.28c5.13-1.6,10.2-3.66,15.4-.64l-2-1.37,2.67,2.83L143.68,58c.52,3.46-.73,5.71-2.93,8.5-1.25,1.58-2.72,3-4,4.54a49.23,49.23,0,0,0-7.37,13.33c-3.62,9.45-4.87,19.41-6.7,29.29a185,185,0,0,1-6.2,23.12c-.13.4.79-.74.66-.58a7.64,7.64,0,0,0,1.54-2,203,203,0,0,0,6-24.77,182.88,182.88,0,0,1,5-22.8,54.54,54.54,0,0,1,4.61-10.9,28.18,28.18,0,0,1,4.8-6.75c2.12-2.11,5.1-4.45,6-7.45a7.53,7.53,0,0,0,.29-1.75,20.49,20.49,0,0,0-2.61-3.07c-3.41-2.19-7.62-1.26-11.29-.29-2.26.6-4.48,1.31-6.7,2-1.19.38-2.38.74-3.58,1.08a19.8,19.8,0,0,1-5.71,1.05,21,21,0,0,1-11.4-.55l-3.52-1.61-6.06-9.79,0-2.87c.2-4.69,2.06-9.36,4.14-13.52s5-8.77,4.91-13.67c-.09-3.57-2.36-6.31-5.37-8a24.11,24.11,0,0,0-2.9-1.39,5.85,5.85,0,0,0-2.21-.36c-2.39-.18-4.79-.08-7.19-.16-.43,0-2.68.7-2.91,1.16Q77.58,21.21,71.74,32.45A43.51,43.51,0,0,1,55,52.93q-3.6-.65-7.23-1a49.88,49.88,0,0,0-6.35-.38,49.23,49.23,0,0,0-9.85.7l-2.6.56a17.28,17.28,0,0,0-5.18,2L25.71,54c-1.6.14-2.6.93-3.95,1.81-3.92,2.56-6.42,7.26-8,11.54-2.61,6.91-2.92,14.75-3.22,22-.25,5.94-.2,11.88,0,17.83q.15,6.1.45,12.2Q9.72,128,8.87,136.54l1.52.68a22.58,22.58,0,0,0,.1-4.27c-.09-.93-.21-1.86-.34-2.78.35-1.27,0-1.79-.94-1.57-.19,0-1.11,5.25-.85,5.8,1.65,3.54,2.7,6.17,5.25,9a33.81,33.81,0,0,0,10.12,7.46c7.14,3.57,15.17,4.93,23,5.75a181.8,181.8,0,0,0,26.91.64,88.34,88.34,0,0,0,11.26-1c5.59-1,11.15-2.25,16.68-3.51l-4.07-.23c2.6.25,5.38.93,7.81-.31a17.82,17.82,0,0,0,3.74-2.47c1.06-.91,2.21-1.81,3.19-2.83,3.22-3.39,4.94-8,6.59-12.29a16.22,16.22,0,0,1-1.66,1C116.93,135.79,115.8,136.32,115.67,136.74Z"/><path class="cls-2" d="M116.17,139.34a56,56,0,0,1-2.65,7.31,17,17,0,0,1-6.08,7.3l3.58-2.08-6.4,3.52,4.53-2a30,30,0,0,1-11.86,1.89,80.65,80.65,0,0,1-22.36,3.81c-3.28-.08-6.56-.23-9.84-.31a105.42,105.42,0,0,1-18.73-1.86A56.06,56.06,0,0,1,27,153.76C18.41,150.66,7,143.35,9,131.64l-.94,3.22c.16-.26.53,2.06.54,2.18,0,.33,1.75,2,1.7,2.1a7,7,0,0,0,.81-4.7q.55-6.89.66-13.8c.14-8.31-.18-16.62.19-24.93.28-6.41.57-12.94,1.91-19.23l1.27-5.25A29.62,29.62,0,0,1,21.57,59.7l-2.5,2.46,5.31-4.77-2.89,2.15A38.65,38.65,0,0,1,47.3,56.21a56.41,56.41,0,0,1,15.14,2h.16Q74.24,34.94,85.79,11.58l-4,2.1,8.33-1.52-3.54.45L96.87,13l-5-1.08,6.91,2.22-4.39-1.66,5.58,3-3.36-1.91c7.22,6.46,2.92,17.23.38,24.22-1.14,3.15-2.51,6.2-3.11,9.53-.84,4.7-.28,9.44,3.22,13,5.21,5.23,13.14,5.11,19.92,3.81,7.82-1.5,15.29-5.2,23.36-5.23L136.47,58l6,1.44-5.24-1.78,6.35,2.78-4.61-2.26,2.4,2.3L141,60c.95,2.94-2.63,11.13-2.82,11.67l1.65-4.25-3.44,6.78,1.3-2.22a91.93,91.93,0,0,0-7.16,13.19c-3.51,8.42-5.31,17.51-6.73,26.48a182.44,182.44,0,0,1-7.06,28,1.45,1.45,0,0,0,.51-.41c.58-.57,1.14-1.15,1.7-1.73s1.84-1.53,2.06-2.29a252.61,252.61,0,0,0,5.91-24.88c.55-3.17,1.43-6.3,2-9.47.7-3.73,1.45-7.43,2.5-11.07a89.45,89.45,0,0,1,3.62-10.44c1.35-3.18,2.71-6.35,4.12-9.5l-2.7,4.37c1.8-2.16,3.57-4.28,5.54-6.29a12.32,12.32,0,0,0,2.4-3.12,3.47,3.47,0,0,0-.28-4.19,7.17,7.17,0,0,0-1.54-1.2,19.53,19.53,0,0,0-4-1.47,14,14,0,0,0-6.08-.28c-4.28.53-8.5,1.71-12.75,2.42-5,.84-10.51,1.17-15.3-.65a12.39,12.39,0,0,1-4.75-3.13A9.87,9.87,0,0,1,97,50.87c-1.17-6,.67-11.59,2-17.39l-1.82,4.35c1.45-3.21,3-6.43,4.33-9.72a17.75,17.75,0,0,0,1.69-7,8.85,8.85,0,0,0-3.94-6.91c-3.77-2.62-9.15-2.48-13.48-2.58a6,6,0,0,0-2.1,1c-.4.2-1.74.66-2,1.15Q76.11,25.08,69.5,35.88A47.19,47.19,0,0,1,52.25,55.3l-4.79-.46a44.12,44.12,0,0,0-6.19-.2,48.18,48.18,0,0,0-15.13,2.3l3.2-.72a27.54,27.54,0,0,1-4.67.83l-.12,0A9.17,9.17,0,0,0,23,58.22a23,23,0,0,0-6.42,7.41,40.14,40.14,0,0,0-4.27,13.78A170.51,170.51,0,0,0,10.9,98.3c-.13,6.61-.05,13.23,0,19.84A62.45,62.45,0,0,1,9.88,133,10.16,10.16,0,0,0,8.63,137l1.71,2.19a21.41,21.41,0,0,0,0-4.16c-.11-.82-.24-1.65-.37-2.47.26-1.09,0-1.52-.87-1.28-.34,0-1.14,3.29-1,3.71a33.75,33.75,0,0,0,1.56,5.47,22.72,22.72,0,0,0,2.64,4.28c4.26,5.83,11.18,9.5,17.91,11.66a84.91,84.91,0,0,0,15.31,3.06,182.48,182.48,0,0,0,23.72,1.14,100.92,100.92,0,0,0,15.55-.81c2.68-.43,5.38-1,8-1.56,4-.85,8.64-1.42,12.34-2.84a23.27,23.27,0,0,0,5.89-3c5.24-3.94,8.23-9.48,10.83-15.35a20.73,20.73,0,0,1-2.86,1.09C118.67,138.17,116.32,138.87,116.17,139.34Z"/><path class="cls-2" d="M116.73,137.17a22.25,22.25,0,0,1-2.52,6.79,14.4,14.4,0,0,1-5.86,7.54l3.25-2.18a28.13,28.13,0,0,1-13.28,3.51q-3.41.82-6.85,1.5c-4.42.9-8.83,1.74-13.28,2.49l2.54.11c-8.46-.56-16.94-.49-25.4-1a137.9,137.9,0,0,1-17.32-2,65.28,65.28,0,0,1-9.74-2.48,35.29,35.29,0,0,1-13-7.84l3.07,3.17-5-5.37,3.47,4.25L9.61,132.4,10.93,138l.07-8.72-1.3,6.65a9.9,9.9,0,0,1,.12,1.78c0,.19,1.82.38,1.91.16l.63-1.36a111.57,111.57,0,0,0,.27-12.8q-.09-4.78-.09-9.57a153.62,153.62,0,0,1,9.82-56.73l-4.25,4,7.31-6.52-5.11,3.72,7.6-4.09-5.09,2.33,8.54-3-3,.7A62.21,62.21,0,0,1,47.18,53,112.78,112.78,0,0,1,63.5,55.75l.15,0q11.54-23.36,23-46.71L81.37,11l7.56-1.64L84,10.31l11.11-.48L90.2,9.25l7.66,1.27L93.12,9.08l6.73,2.56L95.58,9.59l6.31,3.78-3.72-2.6,5.24,4.89-3-3.14c7.15,12.19-5.44,24-5.89,35.6-.19,5,1.71,9.36,6.15,12a18.93,18.93,0,0,0,9.13,2.64A46.25,46.25,0,0,0,120,61.37c3.23-.73,6.37-1.76,9.54-2.71,4.49-1.35,9.22-3,14-1.67l-4.31-1.91L144.68,58l-3.9-2.47,4.9,4.19-3.29-3c2.48,4.15.55,5.36-1.82,9.7a44.32,44.32,0,0,1-4.84,8.12L134,77.39a71.32,71.32,0,0,0-6.29,16.74c-2,7.49-2.78,15.18-4.38,22.73a201.85,201.85,0,0,1-5.63,20.22c0,.11,0,.16.08.07A7.72,7.72,0,0,0,118.8,136c.51-.56,1.47-1.33,1.7-2.09a196,196,0,0,0,5.74-23.39c.43-2.65,1-5.06,1.57-7.82a156.8,156.8,0,0,1,4.55-18.61,54.89,54.89,0,0,1,4-9.24c1.44-2.6,3.17-5,4.62-7.63l-1.65,2.63c1.73-2,3.64-3.84,5.17-6,2.23-3.08,1.13-2.78-.86-6.89-.25-.51-2-1-2.42-1.22a8.48,8.48,0,0,0-2.52-1c-4.81-.29-9.25,1-13.86,2.31a57.57,57.57,0,0,1-10.55,2.31c-2.91.24-5.84.44-8.66-.42s-5.77-2.4-7.44-5.11a14.77,14.77,0,0,1-1.77-6.15c-.47-4,.85-7.89,2.1-11.61,1-3.13,2.38-6,3.65-9s2.43-6.35,1.86-9.8c-.21-1.25,0-1.09-.53-1.75a20.41,20.41,0,0,0-2.2-2.26A12.2,12.2,0,0,0,96.59,10a35.4,35.4,0,0,0-3.42-1.05c-2.25-.46-2.89.23-6.44.74l5.52-.28-5.57-.3a8.74,8.74,0,0,0-2.78.87c-.36.13-2.44.59-2.69,1.08Q73.94,25.51,65.84,39.56q-.87,17-12.5,12.58a82.91,82.91,0,0,0-9.59-.68,50.63,50.63,0,0,0-11.12,1A37.32,37.32,0,0,0,27.48,54a20.29,20.29,0,0,0-3.67,2.11l2.88-1.55c-1.05.09-1.07,0-1.77.44-1.17.71-2.3,1.64-3.4,2.46a21.67,21.67,0,0,0-6.11,8c-4,8.14-4.21,17.58-4.58,26.45-.25,6-.23,12-.11,18.08q.1,6.18.35,12.38a48.56,48.56,0,0,0-1.25,15.34l1.91.16a23.33,23.33,0,0,0,0-4.5c-.12-.92-.27-1.85-.45-2.77.28-1.24,0-1.75-1-1.51-.11,0-.86,6.28-.5,6.9a64.48,64.48,0,0,0,3.85,6.52A26.72,26.72,0,0,0,17,146.12a38.63,38.63,0,0,0,11.8,7c6.93,2.67,14.45,3.67,21.81,4.29a192.13,192.13,0,0,0,22.51.47A98,98,0,0,0,84.75,157c6.13-.95,12.23-2.36,18.28-3.74l-3.52-.21c2.62.21,4.74.64,7.1-.49,1-.46,1.92-.92,2.83-1.46,5.9-3.55,8.92-10.16,11.36-16.27a15.78,15.78,0,0,1-2.09,1.06C118.43,136.08,116.86,136.73,116.73,137.17Z"/><path class="cls-2" d="M116.42,139.69a27.75,27.75,0,0,1-2.81,7,15.14,15.14,0,0,1-6,7.61l2-1.17s-13.6,2.72-17.11,3.37l-8.59,1.6a49.65,49.65,0,0,1-11.86.79c-3-.14-6.09-.21-9.13-.33a180.86,180.86,0,0,1-23.7-2.14,75.08,75.08,0,0,1-7.53-1.56l-12.11-5.09c-5.9-3.84-11.94-11.25-9.95-18.5l-.41,1.14a3.33,3.33,0,0,1,1.32,3.88,7.7,7.7,0,0,0,.54,1.71c3-5.25,1.46-12.22,1.45-17.72,0-8.24,0-16.53.32-24.75l.37-7Q11.93,69.41,25.37,57.27l-1.64,1.22C36,53.32,50.6,55.7,63,58.53h.12Q75,35.28,86.53,11.88l-2.27,1.35,15.3,1.15L96.66,13l3.63,2.31-1.45-1q6.6,7.07,1,15.38a53.22,53.22,0,0,1-3.79,11.92,28.42,28.42,0,0,0-2.17,9.1c-.16,5.06,1.78,9.31,6.24,11.94,6.47,3.82,14.45,2.76,21.41.91,6.47-1.72,12.69-4.38,19.47-4.44l-2.8-.51,4.48,1-3.39-1.15,4.91,2.24L141,59.07q4.56,5.51-1,10.26a59.2,59.2,0,0,1-4.93,7.86,53,53,0,0,0-3.43,6.28c-3.27,6.94-5,14.53-6.47,22-.89,4.68-1.51,9.41-2.49,14.07a199.64,199.64,0,0,1-5.64,20.24c-.13.38.83-.63.72-.52.45-.44,1.57-1.23,1.75-1.86,1.77-5.92,3.56-11.87,4.81-17.93.69-3.36,1.21-6.76,1.89-10.12,1.65-8.11,2.87-16.43,5.89-24.18A69.89,69.89,0,0,1,135.47,78c1.42-2.67,3.27-5.17,4.8-7.78l-1.55,2.3c1.91-2.14,4.42-4.22,5.88-6.71,1-1.67,1.4-3.36.05-5-1.13-1.38-3.32-2-5-2.39a15.05,15.05,0,0,0-4.92,0c-4.38.47-8.63,2.17-12.94,3-7.91,1.57-19,3-24.17-4.87-4-6.14-1.12-14.29,1.24-20.56,1.78-4.72,5.19-9.6,4.9-14.88A9.53,9.53,0,0,0,97.24,13c-3.46-1.28-7.1-1.13-10.76-1.2a5.16,5.16,0,0,0-2.27,1.35Q78.53,24.87,72,36.17A42.65,42.65,0,0,1,54.41,56.05c-2.24-.32-4.49-.57-6.74-.73-.76-.07-1.51-.14-2.27-.19a70.92,70.92,0,0,0-9.78.25,39.1,39.1,0,0,0-5.18.71,24.05,24.05,0,0,1-2.82.65,11.56,11.56,0,0,1-2.19.31A10.58,10.58,0,0,0,23,59c-4.73,4.14-7.12,10-8.44,16a117.29,117.29,0,0,0-2.23,21.49c-.24,8,.23,16-.21,24L10.85,135a7.08,7.08,0,0,0-.33,1.11l.54,1.88c0-.87.08-1.74.09-2.62-.24-1.51-.51-3-.82-4.52l0-.07c-.77,0-.83-.06-1.22.69a6.92,6.92,0,0,0-.32,3.66,14.28,14.28,0,0,0,1.42,4.67C15.26,150.46,27.1,154.85,38,156.91c11.79,2.22,23.9,2.48,35.86,2.63a30.8,30.8,0,0,0,5.43.06c2.18-.32,4.36-.69,6.52-1.13A66,66,0,0,1,94.65,157a22.37,22.37,0,0,1,6-.79,15.76,15.76,0,0,0,6.64-1.31,18.87,18.87,0,0,0,5.41-4.41c3.17-3.5,5-7.67,6.81-12l-1.59.49C117.73,139.07,116.52,139.38,116.42,139.69Z"/><path class="cls-2" d="M115.05,137.38a42.15,42.15,0,0,1-2,5.59,19.82,19.82,0,0,1-4.4,7.09l2.11-1.89L106.3,152l4.21-3-6.63,4.21,4.56-2.51-6.67,2.94,4.79-1.86-6.77,1.95,5-1.21L98,153.55l5.16-.61c-2.26.11-4.73,0-7,.32q-5.34,1.38-10.77,2.37a33.24,33.24,0,0,1-8.83,1.42,167.75,167.75,0,0,1-16.78-.23,177.56,177.56,0,0,1-19.13-1.51c-7-1-14.24-2.51-20.51-6A27.27,27.27,0,0,1,8.53,137.59L9.65,140l-1.9-4.44,1.54,4.63L8,130.06l-1,4.48.23-.55-.26.49c.66.31.54,1.39.6,2.05,0,.3,1.54,1.26,1.57,1.19a9.18,9.18,0,0,0,1.08-5.18,53,53,0,0,0,.5-14c0-8.26-.25-16.57.11-24.83.27-6.41.56-12.94,1.9-19.24L14,69.25A27.54,27.54,0,0,1,23.57,55.1l-2.92,1.8c12.93-5.87,27.66-3.49,41-.37h.1Q73.54,33.15,85,9.64l-2.48,1.09,13.59.4-2.5-1,5.58,3.3-1.13-.9a8.62,8.62,0,0,1,3,6.8,22.3,22.3,0,0,1-.86,5.31c-1.3,4.9-3.76,9.63-5.55,14.39s-3.37,10.47-1.43,15.46c1.31,3.36,4,5.46,7.1,7,4.94,2.41,10.6,1.94,15.8.93,3.92-.77,7.7-2,11.53-3.06,2.16-.67,4.34-1.24,6.54-1.74a10.89,10.89,0,0,1,8.7,1.12l-2.44-1.5c3.52,3.44.23,7.4-1.63,10.15-1.08,1.6-2.25,3.12-3.36,4.7a58.15,58.15,0,0,0-7.63,15.13,138.62,138.62,0,0,0-5.19,22.42,176.7,176.7,0,0,1-7,28,1.18,1.18,0,0,0,.44-.42c.48-.59,1-1.18,1.42-1.78a8.48,8.48,0,0,0,1.69-2.33,210.58,210.58,0,0,0,5.62-23.39c.76-4.63,1.83-9.27,2.77-13.88,1.49-7.37,3.53-14.77,7.16-21.42a27.49,27.49,0,0,1,4.24-6,36.55,36.55,0,0,0,4.24-4.73c1.27-1.92,1.35-4.12-.66-5.42a14,14,0,0,0-5.63-2.05,7.12,7.12,0,0,0-2.75.15,47.22,47.22,0,0,0-5.85,1.25c-3.5.84-7.15,1.9-10.72,2.43-4.24.64-9.23,1-13.3-.54-3.56-1.31-7.38-3.35-8.77-7.13-2.48-6.78,0-14.09,2.28-20.54l-.61,1.6c3.08-6,9-15.92,1.35-21.16a18.78,18.78,0,0,0-4.35-2.16c-2.78-1-6.39-.49-9.23-.57a5.28,5.28,0,0,0-2.49,1.09L74.79,26,66.85,41.15,53.72,54l-4.83-.68A71.67,71.67,0,0,0,34,53c-4.36.38-9.21.94-12.89,3.49a19.78,19.78,0,0,0-4.6,5.05,32.57,32.57,0,0,0-5.18,13.17A145.9,145.9,0,0,0,9.54,99.92c0,5.27.12,10.55.27,15.82a35.56,35.56,0,0,1-1,12q-.64,4.38-1.25,8.78l1.57,1.19c.06-.69.11-1.39.15-2.08.28-1.48-.42-2.64-2.13-3.47a1.22,1.22,0,0,0,0,.57c0,.49.11,1,.17,1.48a13.6,13.6,0,0,0,.46,3.13c6,15.12,23.94,19.52,38.43,21a173.81,173.81,0,0,0,30.86.19c2.76-.22,5.47-.41,8.2-.89a149.41,149.41,0,0,0,16.8-4.19H97.71c4.83.1,4.44.89,7.11-.57,1.1-.6,2.23-1.17,3.28-1.85a9.86,9.86,0,0,0,2.49-2.25c.84-.75,1.65-1.52,2.44-2.32,3.23-3.51,5.12-7.9,7-12.22a1.35,1.35,0,0,0-.57.26q-1,.6-2,1.23C117.09,136,115.23,136.81,115.05,137.38Z"/><path class="cls-2" d="M117.08,138.18a42,42,0,0,1-2.54,7.07l-16.2,8.45a5.83,5.83,0,0,0-2.49.46c-5.87,1.17-11.75,2.31-17.66,3.29l1.63,0c-7.34-.53-14.68-.52-22-.93-4.86-.27-9.75-.62-14.57-1.36l-5-.84q-19.07-2.69-27.28-24.59l-1,4c.33-.29.64,2.68.65,2.8a6.49,6.49,0,0,0,1.44,1.33,7.71,7.71,0,0,0,1.07-5.1,55.49,55.49,0,0,0,.41-13.87c-.06-8.26-.25-16.57.09-24.83.27-6.41.54-12.94,1.9-19.23l1.28-5.23a29.2,29.2,0,0,1,6.43-11.58l-3,3L26,55.8l-3.39,2.61,23.47-4.69a55.45,55.45,0,0,1,6,.6c4.13.56,8.14,1.42,12.2,2.35h.13Q76,33.28,87.55,9.84l-3.93,1.83,12.35-1-3.9-.43,6.64,1.16-3.78-1.19,5.86,2.38L97.4,10.88l5.42,3.46-2.91-2.1,4,4L102,14.18c4.47,9.59-1.68,17.94-5,26a36.64,36.64,0,0,0-1.94,6.18c-1,4.62-.08,9.45,3.25,12.81,4.79,4.83,12.11,5.09,18.41,4a89.34,89.34,0,0,0,11.8-3.07c5.11-1.62,10.39-3.78,15.81-2.26l-3.49-1.46,4.72,2.51-3.13-2,3.6,3.28-2.1-2.1c1.22,3.54.59,5.07-.5,8.41l.39-1c-3.2,4.41-6.92,8.33-9.69,13-4.48,7.64-6.55,16.86-8.19,25.45-.9,4.72-1.49,9.48-2.48,14.17a188.59,188.59,0,0,1-5.68,20.2c0-.08,1.24-.83,1.38-1.29a173.83,173.83,0,0,0,6.27-24.9,170.52,170.52,0,0,1,5-22.93A54.32,54.32,0,0,1,135.31,78a36.22,36.22,0,0,1,5.4-7.69c2.12-2.2,5-4.62,5.94-7.69.67-2.14,0-3.51-2.37-4.88-3.17-1.84-6.32-2-9.89-1.24-4.3.86-8.44,2.42-12.65,3.64-5.08,1.47-11.15,2.62-16.36,1.07l-3.23-1.27q-6.39-4.14-6.23-10.45a12.46,12.46,0,0,1,.07-3A10.48,10.48,0,0,1,97,42a68.23,68.23,0,0,1,3.29-8.37,82.24,82.24,0,0,0,3.77-8.21c1.36-4.09,1.76-9.13-2.11-11.91a17.23,17.23,0,0,0-4.28-2.64c-.78-.27-1.57-.54-2.37-.76-2-.56-1.78-.09-5.49.22l3.23-.18c-1.84-.18-3.68-.29-5.53-.32a6,6,0,0,0-2.07.82c-.36.16-1.76.56-2,1Q78,22.89,71.82,33.74A46.8,46.8,0,0,1,55.07,53.55l-5-.56a50.48,50.48,0,0,0-6.51-.26,46,46,0,0,0-16,2.71l4.27-.95c-5,.95-4.65.16-7.46,2.35-.61.48-1.23,1-1.8,1.49L17.93,64.4a7.69,7.69,0,0,0-1.1,2.31A40.28,40.28,0,0,0,13.67,78.5c-.61,5.06-.92,10.17-1.06,15.26-.18,6.12-.08,12.24.07,18.36l.25,8.38q-1.14,8-2.32,16l1.44,1.4a22.24,22.24,0,0,0,.07-4.16c-.09-.89-.2-1.78-.32-2.67.34-1.22,0-1.7-.91-1.43-.32,0-1.06,3.69-.93,4.13a29.27,29.27,0,0,0,2.47,6.39A25,25,0,0,0,19.78,148a42.71,42.71,0,0,0,15.45,6.57c10.21,2.29,20.62,2.74,31,3,3.89.11,7.78.07,11.68.1a15.42,15.42,0,0,0,5.2-.48c4.06-.86,8.14-1.59,12.25-2.22a40.31,40.31,0,0,1,8-.53,10.21,10.21,0,0,0,2.34-.3c7.36-2.17,10.68-10.34,13.12-16.75C118.85,137.37,117.22,137.75,117.08,138.18Z"/><path class="cls-2" d="M117.27,137.22a59.06,59.06,0,0,1-2.77,7.38,18.56,18.56,0,0,1-6,7.26l6.23-3.91-9.06,5.37,7.14-3.65-9.27,4,7.44-2.76-8.81,2.63,7.08-1.71-8.85,1.6,7.3-1a36,36,0,0,0-11.72,1.34q-3.41.87-6.84,1.59c-3.69.77-7.4,1.44-11.12,2.1h.93c-8-.66-15.94-.46-23.9-.95A142,142,0,0,1,40.16,155a75.07,75.07,0,0,1-7.57-1.51A34.42,34.42,0,0,1,13.08,142l5.08,6.43-6.58-8.63,4.9,7.47L9.67,135.69,13.38,144,9.15,132.43l2.29,8.82-1.95-11,1,9.19c-.76.06-1.13.36-1.13.9,0-.07.85-.66,1-.79.4-.37,1.12-.84,1.35-1.36a5.61,5.61,0,0,0,.43-5.1A87.66,87.66,0,0,1,12,119.34c0-7.13,0-14.26.17-21.38a154.2,154.2,0,0,1,1.2-17.45l.94-5.87A35.22,35.22,0,0,1,22,57.89l-6.17,5.72,9.25-8.3-7.37,5.5L27.56,55,19.5,59,31,54.29,23,56.55,33.13,53.9l-6.6,1.29,9-1.62-4.45.49a66.11,66.11,0,0,1,13.69-.74,77.14,77.14,0,0,1,8.17.82q16.59,8.45,18-13.76Q78.5,24.9,86.16,9.46l-8.47,2.46L88.11,9.83,80.35,11.1,91,10l-7.93.44L97.32,11,88.93,9l10.75,3.2-7.82-3,9.8,4.79L94.32,9.65l9.24,9.13-5-6,2.91,5.39-1.75-3.34.6,14.46.44-6.51-3,13,1.18-3.43c-1.85,5.12-4.15,10.39-4.44,15.91-.14,2.84.51,6.27,2.35,8.53a14,14,0,0,0,7.19,4.6c6.28,1.86,13.07.45,19.25-1.24,3-.82,6-1.75,9.07-2.49,3.54-.87,6.93-1.59,10.58-.51l-7.62-3.73,10.17,6.74-6.64-5.45,5.57,8.47-3.72-6.68.48,1.81-.17-.8a43.75,43.75,0,0,1-.41,6.76l.33-3.59-2,8.41,1.72-6.27-3.47,9L140,65.77c-4,7.77-8.22,15.23-10.83,23.58-2.42,7.76-3.61,15.7-5,23.68a180.36,180.36,0,0,1-6.52,24.49,2.52,2.52,0,0,0,.67-.59c.77-.8,1.52-1.61,2.28-2.42.61-.67,2.5-2.16,2.78-3.17,2.26-8.29,4.34-16.62,5.9-25.07l1.45-6.29,1.16-6.13c.72-3.55,1.58-7,2.61-10.52s2.19-6.85,3.45-10.22c1-2.56,1.67-5.2,2.46-7.83L137.16,72q2.64-3.24,5.49-6.31a18.72,18.72,0,0,0,1.92-2.33l.79-1.54a1.89,1.89,0,0,0-.15-2.45A2.86,2.86,0,0,0,144,57.93c-1.55-1-3.16-2-4.75-3a14.61,14.61,0,0,0-2.08-1.17c-1.79-.68-3.76-.48-5.63-.42-5.59.17-11,2.07-16.61,2.43-4.34.27-9.39.12-12.94-2.73-2-1.59-2.69-3.86-3.07-6.21a27.83,27.83,0,0,1-.07-8.45,55.7,55.7,0,0,1,3.34-12.54c.47-1.2,1.64-3.3,1.25-4.44a23.93,23.93,0,0,0-1.75-3.33c-1.31-2.42-2.7-4.75-4.11-7.12a3.1,3.1,0,0,0-.9-.31c-1.17-.29-2.33-.57-3.5-.84s-3.28-1.17-4.45-.94a42.21,42.21,0,0,0-5.85,1.51,86.07,86.07,0,0,0-17,22.14q-3.93,6.28-7.26,12.9-.47,8.07-6.27,6.22A45.49,45.49,0,0,0,47,51.3a63.43,63.43,0,0,0-9.14.31c-4.31.46-9.1,1.23-12.83,3.62-2.13,1.37-4.14,3-6.15,4.54a16.11,16.11,0,0,0-3.77,4.35c-3.53,5.52-5,12.16-5.5,18.6-.34,4.1-.51,8.26-.73,12.38-.25,4.77-.29,9.56-.31,14.34,0,7.35.41,14.68.26,22a25.27,25.27,0,0,0,.09,6.73,2.69,2.69,0,0,0,.51,2.15l2.35-2.25a20.58,20.58,0,0,0-.22-4.44c-.18-.9-.36-1.79-.55-2.68.25-1.25-.1-1.75-1-1.49a43.1,43.1,0,0,0-.11,4.93c0,1.3,0,2.6,0,3.9a3.56,3.56,0,0,0,.09,1c2.45,3,4.66,6.58,7.69,9.09a38.07,38.07,0,0,0,5,3.48,55.62,55.62,0,0,0,17.86,6.36A124.2,124.2,0,0,0,65.78,160c5.79-.1,11.55-.5,17.3-1.13a84.16,84.16,0,0,0,14.58-2.8l4.43-1.43,4.62-1.61c1.51-.76,3-1.77,4.4-2.66a30.93,30.93,0,0,0,4.37-2.85,39.2,39.2,0,0,0,4.18-4.89c2.2-2.8,3.63-6.27,5.08-9.48a2.6,2.6,0,0,0-.83.34l-3,1.58q-1.47.79-2.94,1.62A2.75,2.75,0,0,0,117.27,137.22Z"/><path class="cls-2" d="M116.62,138.51a59.4,59.4,0,0,1-2.84,7.49,18.44,18.44,0,0,1-6,7.24l7.56-4.35-10.4,5.78,8.53-4L102.83,155l8.71-2.94-10.7,3,8.89-1.94-10.66,1.75,9-1c-10.44.63-7.27-.15-12.9,1.25-3.6.9-7.21,1.72-10.85,2.42a43.35,43.35,0,0,1-10.41,1c-2.85-.15-5.7-.19-8.55-.25A205.63,205.63,0,0,1,44.63,157,99.8,99.8,0,0,1,32,154.78l-4.72-1.41a29.09,29.09,0,0,1-16.25-12.11l3.23,5.5-4.36-7.61,2.78,5.73-3.57-7.71,3,8L8.65,132.69l1,8.43c-1-1-1.53-1.19-1.66-.53,0,0,1.59-.58,1.57-.57.28-.12,1.31-.41,1.48-.76a4.88,4.88,0,0,0,.4-4.86,67.87,67.87,0,0,1-.18-13.67c0-7.12,0-14.23.18-21.35A155.83,155.83,0,0,1,12.68,82l.93-5.87A38.76,38.76,0,0,1,18.8,62.31l-.56.78,3-3.79-5.7,5.54,8.78-8.14-6.87,5.41,9.37-5.83-7,3.76,10.53-4.45-7.86,2.48,12.39-3.22-8.2,1.2,11-1.42L33.07,55a73.38,73.38,0,0,1,19.31.5,76.69,76.69,0,0,1,7.55,1.43l2.77.62,7.59-15.85Q77.82,26.2,85.46,10.79L77,13.84l10.46-2.66L79.53,13l10.89-1.67-8.25,1L94,11.56,85,11.35l11.83.93-9.12-1.54,13.47,4.54-8.3-4,9.1,5.94-7-4.87,7.61,7.31-5.69-5.93,5.56,8.55-4.31-6.9,2.3,6.09-1.55-4.29,1.69,9.11-1.06-6.68L98.31,34.27l1.62-8.82L97.07,37.23l2.42-7.83c-1.45,4.4-3.35,9.46-4.62,14.17a28.73,28.73,0,0,0-1,6.18c-.14,2.88.54,6.32,2.45,8.6a14,14,0,0,0,7.34,4.55c6.29,1.74,13,.22,19.17-1.49,5.89-1.63,11.62-3.62,17.8-3.51l-1-.26,2.81.85-8-3.4L144,59.72l-8.38-4.57,8.73,6L137,55.86l5.72,10.28-3.24-8.5.23,10.92.23-8.33-3.43,13,3.27-7.59c-4,8.32-8.53,16.31-11.28,25.15-2.42,7.78-3.55,15.73-5,23.73A183.57,183.57,0,0,1,117,139a3.9,3.9,0,0,0,.81-.71c.95-.94,1.9-1.89,2.84-2.86s1.88-1.92,2.8-2.89a3.62,3.62,0,0,0,.69-.82c2.19-8.27,4.24-16.58,5.84-25,.61-3.19,1.49-6.3,2.07-9.5.68-3.77,1.42-7.51,2.39-11.2,1.6-6.11,3.82-12.06,5.17-18.22l-4.57,8a65.29,65.29,0,0,1,7.07-8.64,16.73,16.73,0,0,0,2-2.35,6.72,6.72,0,0,0,1.15-3.11c0-1.31-1-1.95-1.89-2.47-1.48-.87-3-1.67-4.51-2.48a26.24,26.24,0,0,0-3.19-1.68,5.13,5.13,0,0,0-2.34-.24,23.85,23.85,0,0,0-3.38-.18,53.57,53.57,0,0,0-7,.66,72.64,72.64,0,0,1-9.32.68,25.86,25.86,0,0,1-6.89-.84,10.4,10.4,0,0,1-4.91-2.43,9.45,9.45,0,0,1-2.45-5,38.31,38.31,0,0,1-.65-6.58c.12-1.53.26-3.07.41-4.6s.34-3.23.6-4.83c.83-2.47,2.16-4.71,2.88-7.24.44-1.57,1.43-5.35.28-6.77l-.19-.19q-4.11-3.11-8.36-6a3.77,3.77,0,0,0-1-.11l-3.78-.11c-1.26,0-2.53,0-3.79-.06a3.35,3.35,0,0,0-1,.06,97,97,0,0,0-24,29.58q-1.3,15.65-12.67,12.18a65,65,0,0,0-13.37.56,37.14,37.14,0,0,0-10.17,3,21.87,21.87,0,0,0-3.05,1.65l-6.55,7c-1.75,2.07-2.86,5.61-3.74,8.21A41.75,41.75,0,0,0,9.29,83.72Q9,89.92,8.47,96.11c-.39,7.53-.48,15.09-.39,22.64A121.43,121.43,0,0,1,7.73,138,2.08,2.08,0,0,0,8,140.59l3.05-1.33a19,19,0,0,0-.23-4.4c-.18-.84-.37-1.67-.56-2.51.21-1.14-.12-1.58-1-1.32-.23,0-.39,4.59-.39,4.53-.08,1.2-.14,2.4-.2,3.59a3.08,3.08,0,0,0,0,1c1.32,1.75,5.09,7.31,6.65,8.79a36.81,36.81,0,0,0,4.64,3.71,49.37,49.37,0,0,0,17.09,7c13.27,2.95,27.4,2.95,40.89,1.72,3.94-.36,8-.67,11.84-1.41a74.36,74.36,0,0,0,7.94-2c5.26-1.6,10.16-4.27,15-6.81a15.73,15.73,0,0,0,4.55-3.93,64.94,64.94,0,0,0,4.18-5,55.67,55.67,0,0,0,4.31-8,3.72,3.72,0,0,0-1,.37c-1.22.56-2.44,1.12-3.66,1.7s-2.43,1.15-3.64,1.74A3.56,3.56,0,0,0,116.62,138.51Z"/><path class="cls-2" d="M115.88,137.31a58.9,58.9,0,0,1-2.8,7.4,18.45,18.45,0,0,1-6,7.27l6.39-4.38-9.22,5.82,7.38-4.11-9.51,4.5,7.73-3.17-11.51,3,8.32-1.39a43,43,0,0,0-12.08,1.62c-2.27.59-4.56,1.13-6.85,1.62-3.69.77-7.39,1.44-11.1,2.09l1,0c-8.74-.74-17.52-.44-26.27-1.09a130.31,130.31,0,0,1-15-1.87,65.59,65.59,0,0,1-9.76-2.5,31.2,31.2,0,0,1-14.75-10l2.53,3.43-4-5.61,3.24,5.38L9.17,138l2.75,5.6L8.38,136l3,7.8-3.54-11,1.57,8q-2-3.2-1.88-1.59s2.47-.32,2.65-.71a6.14,6.14,0,0,0,.61-5.16q-.09-6.93-.14-13.87c0-7.12,0-14.23.2-21.35A159.43,159.43,0,0,1,12,80.75l.92-5.87a34.81,34.81,0,0,1,7.62-16.76l-2.73,2.44,5.79-5-6,4.17,8.46-4.58-5.94,2.66,7.53-3-6.16,2.06,8-2.42L26,55.24a62.84,62.84,0,0,1,21.2-1.51,132.46,132.46,0,0,1,14.36,2.56l.19,0Q73.27,33,84.8,9.77l-6.54,2.39,8.66-2.06-6.09,1.25,12.39-.89L87,10l9,1.1L89.2,9.52l9.11,2.82L92,9.87l7.85,4-5.4-3.13,6.92,5.38-4.84-4,3.62,4.35L97.94,13.7q3.74,9.06-.29,18.83L99,26.26c-1.57,5.77-3.8,11.63-5.22,17.51a20.39,20.39,0,0,0-.57,7.7c.85,5.74,5.61,9.68,11.17,10.66,5.81,1,12.14.17,17.76-1.49,5.84-1.72,11.42-3.77,17.57-3.73l-.76-.15,2.59.71-6-2.42,7,3.35-5.65-3.14,5.72,4.15-4.18-3.18,5,5.32L139.37,57l.71,1.32-.3-.67c.38,3-2.7,13.71-2.22,11.8l1.65-6.11-6.66,14.22-1.62,3.42c-.92,2.08-1.72,4.18-2.44,6.33-2.81,8.4-4.17,17-5.69,25.68a180.44,180.44,0,0,1-6.55,24.7,2.76,2.76,0,0,0,.66-.66c.75-.87,1.49-1.76,2.23-2.65s2.42-2.34,2.72-3.45c2.2-8.22,4.21-16.48,5.75-24.85.59-3.19,1.49-6.33,2.1-9.52.7-3.72,1.46-7.42,2.5-11.06,1.65-5.83,3.92-11.4,5.74-17.16l-3.69,6.34A105.39,105.39,0,0,1,141.32,66a10.08,10.08,0,0,0,2.71-3.9,3.32,3.32,0,0,0-.75-3.36,4.67,4.67,0,0,0-1.16-.74A43.51,43.51,0,0,0,137,55.17c-2.53-1-7.2-.44-9.75,0-4.77.83-9.64,2-14.49,2-4.53-.05-9.13-.58-12.64-3.68a8.83,8.83,0,0,1-2.88-5.53,29.55,29.55,0,0,1-.48-6.64c.33-4,1.3-8,1.9-11.93L96.41,36.1a115.22,115.22,0,0,0,5-11.4,16.18,16.18,0,0,0,1-5.63,8,8,0,0,0-.57-2.73c-1.56-2-3.89-4.55-5.8-5.27A36.12,36.12,0,0,0,91.78,10c-4-.94-3.46-.39-9.29.87l5-1L84.8,9.77c-1,0-2.51.78-3.41,1.1-.42.15-3,.72-3.32,1.3Q72.61,23.09,66.28,33.51,62.35,40,58.73,46.66c-4.71,8.43-1,6.45-9.06,5.72a74,74,0,0,0-13.23-.2,53.16,53.16,0,0,0-6.77,1,26,26,0,0,0-2.86.84c-3.48,1.23-4.5,2.27-8.39,4.77l6.45-3.56c-2.27.24-4,2-5.83,3.26a18.81,18.81,0,0,0-5.3,6.37A40,40,0,0,0,9.66,75.82a63.65,63.65,0,0,0-.89,8.59c-.16,3.13-.38,6.25-.64,9.36-.37,7.47-.43,15-.3,22.43L8,125q-3.18,7.53-.52,14.19l2.65-.71.06-1.44L7.51,139c3,3.72,5.57,7.45,9.34,10.42A45.4,45.4,0,0,0,34,157.54a108,108,0,0,0,23.15,2.75,160.81,160.81,0,0,0,21.72-.83,107.82,107.82,0,0,0,13.71-2.21,91.59,91.59,0,0,0,10.87-3.47,26.67,26.67,0,0,0,5.5-2.88,47.47,47.47,0,0,0,5.34-3.76,44.77,44.77,0,0,0,4.08-4.94,54.42,54.42,0,0,0,5.14-9.42,3,3,0,0,0-.84.4c-1,.58-2,1.17-3,1.77s-2,1.2-3,1.81A2.74,2.74,0,0,0,115.88,137.31Z"/><path class="cls-2" d="M115.08,138.28c-2,6-3.49,10.24-8.87,14.72l4.41-2.95-6.83,4.13,4.69-2.37-6.82,2.8,4.82-1.68-6.81,1.78,4.92-1-8,.55a13,13,0,0,0-5.09,1.07c-3.53.8-7,1.57-10.61,2.22-6.2,1.13-12.86.47-19.13.29a183.39,183.39,0,0,1-21.2-1.59l-5.05-.84-13.74-4.18A27.55,27.55,0,0,1,7.57,136.41l.86,2.94-.64-8.63-1,3.27c.47,0,.71.3.71.82s.12,1,.15,1.55A12.5,12.5,0,0,0,9,138c1.31-2.82,1.52-5,1.87-8.67q-.15-9.5-.13-19-.06-6.06.1-12.1a149.8,149.8,0,0,1,1.54-20.08A52,52,0,0,1,14.1,70,29.46,29.46,0,0,1,20.6,58.5l-1,.89,3.88-3.27-2,1.26c12.5-5.21,27.44-2.79,40,.12h.1C69.51,41.92,77.26,26.28,85,10.61l-2.16,1.07L98,13.32l-2.46-1.26q5,2.8,5,7.84a30.81,30.81,0,0,1-.7,5.15C98.77,30.16,96.36,35.1,94.53,40s-3.38,10.43-1.38,15.48c1.31,3.34,4,5.47,7.12,7,4.88,2.41,10.57,1.84,15.71.84,7.87-1.53,15.39-5.11,23.49-5.18l-1.62-.33,4.79,1.9-2.78-1.55q2.7,5.85-1.85,10.3a73.35,73.35,0,0,1-4.36,7.07,48.18,48.18,0,0,0-2.73,4.91,88.52,88.52,0,0,0-6.68,20.71c-1.09,5.36-1.75,10.79-2.83,16.15a193.51,193.51,0,0,1-5.91,21.39,1.41,1.41,0,0,0,.47-.44c.53-.6,1-1.21,1.55-1.83a8.89,8.89,0,0,0,1.86-2.4,242,242,0,0,0,5.82-24.74c.55-3.2,1.4-6.36,2-9.54.7-3.7,1.45-7.38,2.5-11a92.07,92.07,0,0,1,8-18.92l-2.52,3.57c1.64-1.89,3.25-3.8,5-5.61a15.75,15.75,0,0,0,3.13-3.89c.72-1.48.93-2.85-.37-4.18-2.35-2.38-6.2-2.7-9.29-2.29-4.36.57-8.67,1.8-13,2.64a47.7,47.7,0,0,1-9.53.89,19.74,19.74,0,0,1-7.29-1,14.58,14.58,0,0,1-4.46-2.39l-2.59-2.41a11.89,11.89,0,0,1-1.71-4.79C94,44.54,95.76,39,97.4,33.48l-1.51,3.59c2.12-4.53,4.85-9.22,6-14.18a9,9,0,0,0-3.52-9.58c-4-2.9-8.73-2.58-13.43-2.72a4.5,4.5,0,0,0-2.16,1.07q-5.66,11.65-11.87,23a28.83,28.83,0,0,1-10.75,14q-3.81,8.69-11.4,5.77l-4-.41a64.1,64.1,0,0,0-7.47-.15,60.61,60.61,0,0,0-8.06.8c-.74.13-1.47.32-2.19.5l-2.18.58a2,2,0,0,0-1.25.16,7.76,7.76,0,0,0-1.92,1.21,22.78,22.78,0,0,0-5.5,6.29c-4.5,7.79-5.37,17.14-5.82,26-.7,13.6-.14,27.27.07,40.87l.25-.73a16.09,16.09,0,0,0-2.91,6.75L9,138c.07-.9.12-1.81.16-2.71A5,5,0,0,0,7,133a8.57,8.57,0,0,1,0,1.55,11,11,0,0,0,.26,2.37,23.83,23.83,0,0,0,7.05,10.82,40.86,40.86,0,0,0,15.35,8.38c6.65,2.06,13.69,2.86,20.6,3.41a174.65,174.65,0,0,0,24.21.16,93.85,93.85,0,0,0,11.94-1.25q5.33-1,10.57-2.44a68.27,68.27,0,0,0,7-2.14,8.13,8.13,0,0,0,2.64-1,29.74,29.74,0,0,0,4.41-2.95,30.55,30.55,0,0,0,4.3-5,54.29,54.29,0,0,0,5-9.51,1.3,1.3,0,0,0-.6.23c-.71.37-1.41.75-2.11,1.14C117.33,136.92,115.27,137.74,115.08,138.28Z"/><path class="cls-2" d="M116.47,137.38a59.5,59.5,0,0,1-2.89,7.52,18.29,18.29,0,0,1-6,7.24l7.78-5-10.61,6.45,8.87-4.84-11,5.21,9.27-3.78-13,3.62,10-1.81A60,60,0,0,0,95,154c-2.29.59-4.58,1.13-6.89,1.62-3.69.78-7.41,1.45-11.12,2.12l1.13.05c-8-.76-16-.55-24-1a144.18,144.18,0,0,1-14.81-1.62q-3.81-.57-7.55-1.51a46.2,46.2,0,0,1-8.84-3.12l.26.13L19.4,148.6l.25.14-5.38-4.25,3.55,3.74-5.52-5.95,5.94,7.38-7.43-9.55,5.7,8.52L8.91,136l4.28,9.33L8.37,132.78l2.6,9.81-2.29-12,1.19,10.13-1.32.47c0-.15.83-.86,1-1.05a8.06,8.06,0,0,0,1.34-1.75c1.56-3.87.45-.59,0-8.48q.12-7.43.08-14.86,0-6.48.1-13A182.91,182.91,0,0,1,12.42,80.8l.94-5.87A35.4,35.4,0,0,1,21,58.18L15.65,63l8.45-7.38-7.85,5.64L30.31,54.4l-8.73,2.43,10.58-2.71-6.95,1.33,9.36-1.67-4.7.52a71.89,71.89,0,0,1,17.82-.52,68.86,68.86,0,0,1,9.46,1.56l5.15,1L70,40.57Q77.56,25.12,85.2,9.7l-9,2.63L87.1,10.07l-8.28,1.4L90,10.22l-8.48.54,14.83.41L87.31,9.23l11.44,3.16L90.18,9.28l12.06,7.17L95,10.91l7.21,7.54-5.36-6,4.47,7.36L97.92,14l2,9.05-.67-4.25.18,10.62,0-7.89L98.15,32.36l1.33-8.06L96.84,36.06l2.24-7.88c-1.39,4.48-3.16,9.51-4.42,14.24a29.36,29.36,0,0,0-1,6.17c-.14,2.86.54,6.29,2.43,8.54a13.86,13.86,0,0,0,7.24,4.49c6.24,1.75,13,.32,19.08-1.34,3-.82,6-1.73,9-2.45,3.55-.84,6.94-1.54,10.59-.46l-7.74-3.6,9.33,4.81-8-4.74L144,60,137,54.57l5.41,10.32-2.93-8.37V67.36l.28-8-1.72,9.87,1.7-7.82-3.48,10.68,3.07-7.72c-3.8,8.39-8.31,16.46-11.05,25.29-2.42,7.79-3.56,15.73-5,23.73a182.3,182.3,0,0,1-6.57,24.51,3.89,3.89,0,0,0,.8-.77c1-1,1.88-2.05,2.81-3.09s1.86-2.07,2.78-3.12a4.1,4.1,0,0,0,.67-.88c2.17-8.25,4.19-16.55,5.79-24.93.61-3.2,1.48-6.34,2.07-9.55.69-3.75,1.43-7.48,2.41-11.16,1.59-6,3.77-11.9,5.09-18l-4.38,8.25c2.55-3.23,5.07-6.46,7.77-9.56a8.43,8.43,0,0,0,2.12-3.81c.38-1.79-1.06-2.82-2.39-3.62a52.75,52.75,0,0,0-6.7-3.91,18.36,18.36,0,0,0-4.52-.46,36.71,36.71,0,0,0-6.87.5,71.35,71.35,0,0,1-12.28,1.11c-3.61-.07-8-.54-10.65-3.32-2.28-2.42-2.66-5.8-3-8.94a37.81,37.81,0,0,1,.4-7.43c.26-2.67.61-5.27.75-8l-2.5,8.84c1.53-3.45,5-9.74,5.69-14.24.81-5.4-.9-4.25-6-10.67a3.34,3.34,0,0,0-1-.3c-1.25-.29-2.52-.57-3.78-.84s-2.53-.53-3.79-.78a3.25,3.25,0,0,0-1-.13,28.89,28.89,0,0,0-5.77,1.6,116.86,116.86,0,0,0-20.91,28.5Q59.34,55.07,47.87,51.51l-5.06-.13a48,48,0,0,0-15.24,2.25c-4.43,1.5-8,4.49-11.47,7.61a17.35,17.35,0,0,0-2.56,3.45,35,35,0,0,0-3.61,8.24C8,79.38,8.09,86,7.6,92.69c-.63,8.55-.74,17.14-.6,25.72a189.17,189.17,0,0,1,.07,19.2,4.67,4.67,0,0,0,1.48,3.61l2.35-2.91v-1.44l-2.32,4.25c3.33,3.22,6.5,6.79,10.3,9.48a48.15,48.15,0,0,0,12.86,6.34,82.14,82.14,0,0,0,19.79,3.58,148.1,148.1,0,0,0,19.65.16c9.21-.52,18.71-1.29,27.52-4.24q4.61-1.77,9.12-3.78a51.4,51.4,0,0,0,10.52-8.52c3.29-3.55,5.32-7.61,7.36-11.95a3.87,3.87,0,0,0-1,.47c-1.23.66-2.45,1.34-3.66,2s-2.44,1.37-3.64,2.07A4.57,4.57,0,0,0,116.47,137.38Z"/><path class="cls-2" d="M115.62,139.29c-2,6-3.32,10.18-8.76,14.64l4.08-2.43L104,155.37l4.21-1.91a29.65,29.65,0,0,1-11.38,1.78,9.77,9.77,0,0,0-4.86,1q-4.29.92-8.59,1.74c-7,1.34-14,.83-21,.61a176,176,0,0,1-23.72-2,70.66,70.66,0,0,1-12.28-3C17.84,150.55,5.64,143,8.51,131.21l-.83,2.32c.66-.61,1,2.65,1,2.83s1.12,1.95,1.07,2.06a8.84,8.84,0,0,0,1.18-4.62,38.05,38.05,0,0,0,.54-13.55c0-7.06-.05-14.13.12-21.18A147,147,0,0,1,12.69,81.9c1.35-9.63,3.2-17.66,11.55-24.85l-1.9,1.32a16.54,16.54,0,0,1,5.41-1.57,29.21,29.21,0,0,1,9.46-1.49c8.46-.33,16.33,1,24.83,3h.12Q73.95,35,85.52,11.52l-2.58,1.41,15.58,1.21-3.13-1.41,3.71,2.33L97.49,14a8.45,8.45,0,0,1,3.29,6.17l0,2.46c-.34,6.54-3.35,12.57-5.63,18.63-1.95,5.2-3.39,11.34-.48,16.48a13.54,13.54,0,0,0,8.16,6.18,24.7,24.7,0,0,0,11.81.53,87.29,87.29,0,0,0,11.69-2.83c4.6-1.38,9-2.68,13.79-2.71l-3-.6,4.66,1.07L138,58.1l5.21,2.37-3.57-1.8q3.3,5.65-1.14,10.39a41.06,41.06,0,0,1-4.36,7.69,63.39,63.39,0,0,0-3.34,6.31c-3.21,7-5,14.59-6.45,22.1-.9,4.73-1.49,9.52-2.5,14.23a201.87,201.87,0,0,1-5.67,20.21,1.09,1.09,0,0,0,.47-.38c.53-.54,1-1.08,1.55-1.63s1.65-1.44,1.86-2.17a238,238,0,0,0,5.89-24.82c.55-3.18,1.4-6.32,2-9.5.69-3.71,1.44-7.4,2.48-11a106.08,106.08,0,0,1,8-19.44L136.14,74c1.53-1.81,3-3.62,4.67-5.33A15.93,15.93,0,0,0,144,64.77a2.8,2.8,0,0,0,.51-1.58,1.44,1.44,0,0,0-.33-1.68c-.59-1.16-.3-.81-1.31-1.58-3-2.31-7.26-2.21-10.8-1.62-4.46.74-8.86,1.86-13.32,2.63-5,.87-11.25,1.26-16-1.12a14.43,14.43,0,0,1-4.94-4,11.32,11.32,0,0,1-1.74-4.51c-1.24-5.83.64-11.51,2.17-17.11l-1.3,3c2.21-4.86,5.77-10.69,5.81-16.23a8.54,8.54,0,0,0-4.44-7.21,17.22,17.22,0,0,0-9-2l1.63-.06a53.17,53.17,0,0,0-5.5-.28,5.86,5.86,0,0,0-2.59,1.42q-5.66,11.63-12.13,22.8A29.6,29.6,0,0,1,59.85,49.47Q56,57.93,48.47,55.19l-4.22-.35a70.67,70.67,0,0,0-9.76.25,46.7,46.7,0,0,0-7,1.15c-1.16.28-2.71.24-3.74.91-4,2.59-6.64,6.62-8.57,10.89a41.21,41.21,0,0,0-2.67,9.81,114.46,114.46,0,0,0-1.4,15.46c-.25,6.31-.2,12.61-.16,18.92l0,8.66a77.43,77.43,0,0,1-2.32,15.4l1.07,2.05c.05-.89.15-1.85.11-2.75l-.32-2.2c.55-1.9.19-2.73-1.05-2.49-.31,0-.95,2.39-.93,2.6a22.23,22.23,0,0,0,1.11,6,23.69,23.69,0,0,0,4.11,6.44c4.11,4.95,10.31,8,16.26,10a77.71,77.71,0,0,0,15.2,3.13c4.16.56,8.37.81,12.56,1,7.57.34,15.1.22,22.67,0a61.54,61.54,0,0,0,10.08-1.54c2.25-.45,4.51-.92,6.76-1.41a32.7,32.7,0,0,0,7.93-1.71,23.15,23.15,0,0,0,5.76-3c5.26-3.93,8.18-9.55,10.77-15.42a22.51,22.51,0,0,1-2.63,1C117.89,138.16,115.77,138.82,115.62,139.29Z"/></g></g></svg>