<svg xmlns="http://www.w3.org/2000/svg" xmlns:xlink="http://www.w3.org/1999/xlink" viewBox="0 0 442.3 442.3"><defs><style>.cls-1,.cls-4,.cls-5,.cls-74,.cls-75{fill:none;}.cls-2{clip-path:url(#clip-path);}.cls-3{fill:#fff;}.cls-4,.cls-5{stroke:#1d1d1b;}.cls-4,.cls-5,.cls-74,.cls-75,.cls-76{stroke-miterlimit:10;}.cls-4{stroke-width:0.66px;}.cls-5{stroke-width:0.44px;}.cls-6{opacity:0.08;}.cls-7{clip-path:url(#clip-path-4);}.cls-8{fill:#eedac2;}.cls-9{clip-path:url(#clip-path-5);}.cls-10{clip-path:url(#clip-path-6);}.cls-11{clip-path:url(#clip-path-7);}.cls-12{clip-path:url(#clip-path-8);}.cls-13{clip-path:url(#clip-path-9);}.cls-14{clip-path:url(#clip-path-10);}.cls-15{clip-path:url(#clip-path-11);}.cls-16{clip-path:url(#clip-path-12);}.cls-17{clip-path:url(#clip-path-13);}.cls-18{clip-path:url(#clip-path-14);}.cls-19{clip-path:url(#clip-path-15);}.cls-20{clip-path:url(#clip-path-16);}.cls-21{clip-path:url(#clip-path-17);}.cls-22{clip-path:url(#clip-path-18);}.cls-23{clip-path:url(#clip-path-19);}.cls-24{clip-path:url(#clip-path-20);}.cls-25{clip-path:url(#clip-path-21);}.cls-26{clip-path:url(#clip-path-22);}.cls-27{clip-path:url(#clip-path-23);}.cls-28{clip-path:url(#clip-path-24);}.cls-29{clip-path:url(#clip-path-25);}.cls-30{clip-path:url(#clip-path-26);}.cls-31{clip-path:url(#clip-path-27);}.cls-32{clip-path:url(#clip-path-28);}.cls-33{clip-path:url(#clip-path-29);}.cls-34{clip-path:url(#clip-path-30);}.cls-35{clip-path:url(#clip-path-31);}.cls-36{clip-path:url(#clip-path-32);}.cls-37{clip-path:url(#clip-path-33);}.cls-38{clip-path:url(#clip-path-34);}.cls-39{clip-path:url(#clip-path-35);}.cls-40{clip-path:url(#clip-path-36);}.cls-41{clip-path:url(#clip-path-37);}.cls-42{clip-path:url(#clip-path-38);}.cls-43{clip-path:url(#clip-path-39);}.cls-44{clip-path:url(#clip-path-40);}.cls-45{clip-path:url(#clip-path-41);}.cls-46{clip-path:url(#clip-path-42);}.cls-47{clip-path:url(#clip-path-43);}.cls-48{clip-path:url(#clip-path-44);}.cls-49{clip-path:url(#clip-path-45);}.cls-50{clip-path:url(#clip-path-46);}.cls-51{clip-path:url(#clip-path-47);}.cls-52{clip-path:url(#clip-path-48);}.cls-53{clip-path:url(#clip-path-49);}.cls-54{clip-path:url(#clip-path-50);}.cls-55{clip-path:url(#clip-path-51);}.cls-56{clip-path:url(#clip-path-52);}.cls-57{clip-path:url(#clip-path-53);}.cls-58{clip-path:url(#clip-path-54);}.cls-59{clip-path:url(#clip-path-55);}.cls-60{clip-path:url(#clip-path-56);}.cls-61{clip-path:url(#clip-path-57);}.cls-62{clip-path:url(#clip-path-58);}.cls-63{clip-path:url(#clip-path-59);}.cls-64{clip-path:url(#clip-path-60);}.cls-65{clip-path:url(#clip-path-61);}.cls-66{clip-path:url(#clip-path-62);}.cls-67{clip-path:url(#clip-path-63);}.cls-68{clip-path:url(#clip-path-64);}.cls-69{clip-path:url(#clip-path-65);}.cls-70{clip-path:url(#clip-path-66);}.cls-71{clip-path:url(#clip-path-67);}.cls-72{clip-path:url(#clip-path-68);}.cls-73{clip-path:url(#clip-path-69);}.cls-74,.cls-75,.cls-76{stroke:tan;}.cls-74{stroke-width:12.3px;}.cls-75,.cls-76{stroke-width:12px;}.cls-76{fill:tan;}</style><clipPath id="clip-path" transform="translate(-65.35 -124.35)"><rect class="cls-1" width="546" height="721"/></clipPath><clipPath id="clip-path-4" transform="translate(-65.35 -124.35)"><rect class="cls-1" x="177.59" y="298.21" width="226.09" height="119.91"/></clipPath><clipPath id="clip-path-5" transform="translate(-65.35 -124.35)"><rect class="cls-1" x="177.98" y="296.75" width="226.22" height="119.95"/></clipPath><clipPath id="clip-path-6" transform="translate(-65.35 -124.35)"><rect class="cls-1" x="178.55" y="297.99" width="226.07" height="119.85"/></clipPath><clipPath id="clip-path-7" transform="translate(-65.35 -124.35)"><rect class="cls-1" x="178.87" y="298.99" width="227.07" height="120.14"/></clipPath><clipPath id="clip-path-8" transform="translate(-65.35 -124.35)"><rect class="cls-1" x="179.04" y="298.41" width="226.07" height="119.94"/></clipPath><clipPath id="clip-path-9" transform="translate(-65.35 -124.35)"><rect class="cls-1" x="177.92" y="296.27" width="226.97" height="120.17"/></clipPath><clipPath id="clip-path-10" transform="translate(-65.35 -124.35)"><rect class="cls-1" x="177.31" y="298.94" width="226.16" height="119.86"/></clipPath><clipPath id="clip-path-11" transform="translate(-65.35 -124.35)"><rect class="cls-1" x="179.4" y="298.06" width="226.34" height="119.9"/></clipPath><clipPath id="clip-path-12" transform="translate(-65.35 -124.35)"><rect class="cls-1" x="176.09" y="296.24" width="227.35" height="121.01"/></clipPath><clipPath id="clip-path-13" transform="translate(-65.35 -124.35)"><rect class="cls-1" x="176.71" y="297.99" width="226.25" height="119.93"/></clipPath><clipPath id="clip-path-14" transform="translate(-65.35 -124.35)"><rect class="cls-1" x="177.14" y="295.94" width="227.18" height="120.61"/></clipPath><clipPath id="clip-path-15" transform="translate(-65.35 -124.35)"><rect class="cls-1" x="177.76" y="299.4" width="226.65" height="120.13"/></clipPath><clipPath id="clip-path-16" transform="translate(-65.35 -124.35)"><rect class="cls-1" x="178.51" y="296.58" width="226.95" height="120.16"/></clipPath><clipPath id="clip-path-17" transform="translate(-65.35 -124.35)"><rect class="cls-1" x="178.26" y="299.33" width="227.2" height="120.55"/></clipPath><clipPath id="clip-path-18" transform="translate(-65.35 -124.35)"><rect class="cls-1" x="176.15" y="297.01" width="226.85" height="120.59"/></clipPath><clipPath id="clip-path-19" transform="translate(-65.35 -124.35)"><rect class="cls-1" x="179.12" y="297.46" width="227.33" height="120.28"/></clipPath><clipPath id="clip-path-20" transform="translate(-65.35 -124.35)"><rect class="cls-1" x="178.89" y="297.08" width="226.15" height="119.99"/></clipPath><clipPath id="clip-path-21" transform="translate(-65.35 -124.35)"><rect class="cls-1" x="178.08" y="298.75" width="226.1" height="119.81"/></clipPath><clipPath id="clip-path-22" transform="translate(-65.35 -124.35)"><rect class="cls-1" x="177.08" y="297.43" width="226.17" height="119.87"/></clipPath><clipPath id="clip-path-23" transform="translate(-65.35 -124.35)"><rect class="cls-1" x="176.03" y="298.03" width="227.05" height="120.68"/></clipPath><clipPath id="clip-path-24" transform="translate(-65.35 -124.35)"><rect class="cls-1" x="177.82" y="297.36" width="226.11" height="119.91"/></clipPath><clipPath id="clip-path-25" transform="translate(-65.35 -124.35)"><rect class="cls-1" x="176.93" y="299.08" width="227.11" height="120.5"/></clipPath><clipPath id="clip-path-26" transform="translate(-65.35 -124.35)"><rect class="cls-1" x="249.97" y="247.14" width="44.09" height="52.03"/></clipPath><clipPath id="clip-path-27" transform="translate(-65.35 -124.35)"><rect class="cls-1" x="250.45" y="245.69" width="44.3" height="51.9"/></clipPath><clipPath id="clip-path-28" transform="translate(-65.35 -124.35)"><rect class="cls-1" x="250.99" y="246.99" width="44.77" height="51.79"/></clipPath><clipPath id="clip-path-29" transform="translate(-65.35 -124.35)"><rect class="cls-1" x="251.03" y="246.86" width="37.45" height="53.14"/></clipPath><clipPath id="clip-path-30" transform="translate(-65.35 -124.35)"><rect class="cls-1" x="251.42" y="247.37" width="42.8" height="51.82"/></clipPath><clipPath id="clip-path-31" transform="translate(-65.35 -124.35)"><rect class="cls-1" x="250.56" y="244.87" width="41.64" height="52.13"/></clipPath><clipPath id="clip-path-32" transform="translate(-65.35 -124.35)"><rect class="cls-1" x="249.6" y="247.69" width="41.49" height="51.89"/></clipPath><clipPath id="clip-path-33" transform="translate(-65.35 -124.35)"><rect class="cls-1" x="251.72" y="246.71" width="41.39" height="51.94"/></clipPath><clipPath id="clip-path-34" transform="translate(-65.35 -124.35)"><rect class="cls-1" x="248.65" y="245.08" width="40.2" height="52.35"/></clipPath><clipPath id="clip-path-35" transform="translate(-65.35 -124.35)"><rect class="cls-1" x="249.13" y="246.79" width="42.23" height="51.88"/></clipPath><clipPath id="clip-path-36" transform="translate(-65.35 -124.35)"><rect class="cls-1" x="249.72" y="244.63" width="40.99" height="52.25"/></clipPath><clipPath id="clip-path-37" transform="translate(-65.35 -124.35)"><rect class="cls-1" x="249.94" y="247.53" width="38.54" height="52.76"/></clipPath><clipPath id="clip-path-38" transform="translate(-65.35 -124.35)"><rect class="cls-1" x="251.1" y="245.19" width="41.47" height="52.1"/></clipPath><clipPath id="clip-path-39" transform="translate(-65.35 -124.35)"><rect class="cls-1" x="250.04" y="247.36" width="36.51" height="53.23"/></clipPath><clipPath id="clip-path-40" transform="translate(-65.35 -124.35)"><rect class="cls-1" x="248.6" y="245.92" width="40.65" height="52.08"/></clipPath><clipPath id="clip-path-41" transform="translate(-65.35 -124.35)"><rect class="cls-1" x="251.1" y="245.5" width="38.44" height="53.2"/></clipPath><clipPath id="clip-path-42" transform="translate(-65.35 -124.35)"><rect class="cls-1" x="251.33" y="246.16" width="43.89" height="51.69"/></clipPath><clipPath id="clip-path-43" transform="translate(-65.35 -124.35)"><rect class="cls-1" x="250.47" y="247.77" width="43.28" height="51.77"/></clipPath><clipPath id="clip-path-44" transform="translate(-65.35 -124.35)"><rect class="cls-1" x="249.53" y="246.33" width="43.27" height="51.7"/></clipPath><clipPath id="clip-path-45" transform="translate(-65.35 -124.35)"><rect class="cls-1" x="248.45" y="246.94" width="39.53" height="52.25"/></clipPath><clipPath id="clip-path-46" transform="translate(-65.35 -124.35)"><rect class="cls-1" x="250.22" y="246.31" width="44.87" height="51.97"/></clipPath><clipPath id="clip-path-47" transform="translate(-65.35 -124.35)"><rect class="cls-1" x="249.21" y="247.45" width="37.99" height="52.83"/></clipPath><clipPath id="clip-path-48" transform="translate(-65.35 -124.35)"><rect class="cls-1" x="288.54" y="246.79" width="31.2" height="53.04"/></clipPath><clipPath id="clip-path-49" transform="translate(-65.35 -124.35)"><rect class="cls-1" x="291.2" y="246.13" width="29" height="52.05"/></clipPath><clipPath id="clip-path-50" transform="translate(-65.35 -124.35)"><rect class="cls-1" x="289" y="245.38" width="31.71" height="54.13"/></clipPath><clipPath id="clip-path-51" transform="translate(-65.35 -124.35)"><rect class="cls-1" x="295.25" y="251.29" width="26.57" height="49.56"/></clipPath><clipPath id="clip-path-52" transform="translate(-65.35 -124.35)"><rect class="cls-1" x="290.48" y="246.85" width="30.87" height="53.13"/></clipPath><clipPath id="clip-path-53" transform="translate(-65.35 -124.35)"><rect class="cls-1" x="295.78" y="248.85" width="25.09" height="49.3"/></clipPath><clipPath id="clip-path-54" transform="translate(-65.35 -124.35)"><rect class="cls-1" x="290.27" y="249.63" width="29.02" height="50.61"/></clipPath><clipPath id="clip-path-55" transform="translate(-65.35 -124.35)"><rect class="cls-1" x="293.5" y="247.88" width="28.6" height="51.67"/></clipPath><clipPath id="clip-path-56" transform="translate(-65.35 -124.35)"><rect class="cls-1" x="297.09" y="252.54" width="21.72" height="46.39"/></clipPath><clipPath id="clip-path-57" transform="translate(-65.35 -124.35)"><rect class="cls-1" x="290.8" y="249.18" width="27.97" height="50.14"/></clipPath><clipPath id="clip-path-58" transform="translate(-65.35 -124.35)"><rect class="cls-1" x="296.93" y="250.61" width="23.07" height="48.42"/></clipPath><clipPath id="clip-path-59" transform="translate(-65.35 -124.35)"><rect class="cls-1" x="293" y="251.89" width="26.99" height="49.13"/></clipPath><clipPath id="clip-path-60" transform="translate(-65.35 -124.35)"><rect class="cls-1" x="295.47" y="248.12" width="26.12" height="50.26"/></clipPath><clipPath id="clip-path-61" transform="translate(-65.35 -124.35)"><rect class="cls-1" x="295.28" y="253.29" width="25.45" height="48.11"/></clipPath><clipPath id="clip-path-62" transform="translate(-65.35 -124.35)"><rect class="cls-1" x="294.76" y="251.69" width="23.69" height="47.31"/></clipPath><clipPath id="clip-path-63" transform="translate(-65.35 -124.35)"><rect class="cls-1" x="297.24" y="250.14" width="25.18" height="49.65"/></clipPath><clipPath id="clip-path-64" transform="translate(-65.35 -124.35)"><rect class="cls-1" x="291.54" y="245.75" width="29.66" height="52.79"/></clipPath><clipPath id="clip-path-65" transform="translate(-65.35 -124.35)"><rect class="cls-1" x="289.1" y="247.32" width="31.15" height="52.97"/></clipPath><clipPath id="clip-path-66" transform="translate(-65.35 -124.35)"><rect class="cls-1" x="291.02" y="247.98" width="28.12" height="50.71"/></clipPath><clipPath id="clip-path-67" transform="translate(-65.35 -124.35)"><rect class="cls-1" x="294.13" y="252.82" width="24.18" height="47.27"/></clipPath><clipPath id="clip-path-68" transform="translate(-65.35 -124.35)"><rect class="cls-1" x="289.22" y="245.66" width="30.7" height="53.17"/></clipPath><clipPath id="clip-path-69" transform="translate(-65.35 -124.35)"><rect class="cls-1" x="293.31" y="252.77" width="25.96" height="48.31"/></clipPath></defs><g id="Layer_2" data-name="Layer 2"><g id="Layer_1-2" data-name="Layer 1"><g id="basket.v1.nude"><g class="cls-2"><g class="cls-2"><g class="cls-2"><path class="cls-3" d="M391.12,414.46H188c-.18-1.65-3.08-28.31-3.26-30-4.74-43.59-9.07-83.65-9.46-87.19H405.44q-7.15,58.59-14.32,117.17" transform="translate(-65.35 -124.35)"/><path class="cls-4" d="M391.12,414.46H188c-.18-1.65-3.08-28.31-3.26-30-4.74-43.59-9.07-83.65-9.46-87.19H405.44Q398.29,355.88,391.12,414.46Z" transform="translate(-65.35 -124.35)"/><line class="cls-5" x1="136.23" y1="173.47" x2="148.94" y2="290.64"/><line class="cls-4" x1="308.27" y1="173.48" x2="295.55" y2="290.65"/><line class="cls-4" x1="170.3" y1="173.47" x2="176.65" y2="290.65"/><line class="cls-4" x1="275.59" y1="173.47" x2="269.23" y2="290.65"/><line class="cls-4" x1="204.81" y1="173.5" x2="208.68" y2="290.62"/><line class="cls-4" x1="242.7" y1="173.5" x2="238.83" y2="290.62"/><g class="cls-6"><g class="cls-7"><path class="cls-8" d="M177.58,308.67q8,48,16.1,95.89l4.23-12.17c-.38.65-.74,1.31-1.09,2q-3,5.92-6,11.84a3,3,0,0,1-.11.32,5.62,5.62,0,0,0,2.15,3.78l3,1.91,3.87,1.53a54.11,54.11,0,0,0,9.2,1.84c3.65.47,7.41.71,11.09.86,8.9.38,17.89.23,26.81.09,10.87-.16,21.74-.44,32.61-.46,11.91,0,23.82.24,35.73.72,9.3.38,18.6.93,27.9,1.19,7.58.22,15.28.3,22.77-.93,5.18-.85,10.07-2.49,14.13-5.68a23,23,0,0,0,5-5.58,3.72,3.72,0,0,0,1.24-2.65,23.51,23.51,0,0,0,.33-2.34c.56-4.59,1.27-9.15,2-13.7.91-5.48,1.55-11,2.25-16.49,1.22-9.7,2.55-19.41,3.45-29.14.47-5.16.87-10.27,1.78-15.4a176.18,176.18,0,0,1,7.68-27.77,4.29,4.29,0,0,0-.95.85c-1.11,1.14-2.22,2.28-3.31,3.44s-2.19,2.31-3.27,3.47a4.65,4.65,0,0,0-.79,1c-2.41,8.59-4.52,17.24-6.06,26a66.71,66.71,0,0,0-1.2,10.54,11.79,11.79,0,0,1-.76,6.31c-.28,1.7-.59,3.4-.9,5.1-.33,2.19-.66,4.39-1,6.58-.77,5.25-1.41,10.52-2.12,15.78-.37,2.74-.76,5.49-1.17,8.23-.57,2.49-1.17,5-1.8,7.44a61.08,61.08,0,0,1-3.6,8.52,13,13,0,0,1-5.41,5.92,32.77,32.77,0,0,1-11.55,3.5c-5.64.81-11.45,1-17.14,1.29-8,.44-15.93-.38-23.88-.85-7.69-.46-15.38-.9-23.08-1.15-12-.4-24.08-.23-36.12,0-10.05.19-20.12.67-30.12-.5a108.31,108.31,0,0,0-12.05-1.34,24.64,24.64,0,0,1-9.77-2,14.88,14.88,0,0,1-5.88-3,27.72,27.72,0,0,0-3.24-3.07c-1.33-1.62-1.54-4.06-1.36-6l-6,11.09a2.88,2.88,0,0,1,2.52-.79,5.17,5.17,0,0,0,.55-1.25q.86-2.38,1.7-4.8t1.64-4.82a4.62,4.62,0,0,0,.34-1.3c-2.7-16-5.57-32-8.07-48l-2.4-15.93q-1-15.1-1.88-30.22a5,5,0,0,0-.93,1q-1.6,2.06-3.17,4.12t-3.13,4.16a5.41,5.41,0,0,0-.75,1.15" transform="translate(-65.35 -124.35)"/></g></g><g class="cls-6"><g class="cls-9"><path class="cls-8" d="M178,307.29c5.45,31.86,10.68,63.76,16.07,95.63l3.06-9.51c-.28.5-.56,1-.83,1.51s-5.23,9.54-5.2,10.17a5.24,5.24,0,0,0,2.11,3.68,19.67,19.67,0,0,0,6.67,3.31c6.41,2.12,13.51,2.72,20.25,3,4.28.19,8.59.1,12.87.11,4.68,0,9.35,0,14,0,10.89-.17,21.77-.48,32.66-.51q17.86,0,35.71.71c9.3.37,18.58.93,27.88,1.2,7.59.23,15.3.29,22.81-.92,5.19-.84,10.1-2.45,14.19-5.61a23,23,0,0,0,5.12-5.58,4.11,4.11,0,0,0,1.31-2.68,17.25,17.25,0,0,0,.4-2.37c1.43-10.12,2.93-20.23,4.19-30.37,1.21-9.71,2.56-19.42,3.44-29.16.46-5.16.86-10.27,1.77-15.39a176.27,176.27,0,0,1,7.72-27.74,4,4,0,0,0-1,.81c-1.14,1.09-2.26,2.2-3.37,3.31s-2.23,2.22-3.33,3.34a4.09,4.09,0,0,0-.81,1c-2.43,8.61-4.56,17.29-6.12,26.08a63.38,63.38,0,0,0-1.21,10.54,11.42,11.42,0,0,1-.74,6.29q-.43,2.55-.9,5.07-.48,3.28-1,6.55c-.75,5.24-1.38,10.5-2,15.75-.3,2.77-.61,5.54-.95,8.3-.42,2.57-.88,5.13-1.36,7.68a54.11,54.11,0,0,1-3.21,8.53,14,14,0,0,1-4.92,6,28.52,28.52,0,0,1-11.2,4,152.35,152.35,0,0,1-17.08,1.49c-8,.47-15.93-.34-23.89-.81-7.68-.45-15.36-.89-23.05-1.14-12-.39-24.08-.23-36.12.05-10.1.24-20.22.85-30.31,0a89,89,0,0,0-12.43-.8,30.44,30.44,0,0,1-10.61-1.49,14.88,14.88,0,0,1-6.82-2.92c-1.22-1.08-2.46-2.13-3.75-3.14-1.45-1.64-1.74-4.11-1.59-6.15q-2.44,4.4-4.91,8.79a3,3,0,0,1,2.48-1,3.16,3.16,0,0,0,.44-1c.44-1.28.88-2.56,1.3-3.85s.84-2.57,1.24-3.86a3,3,0,0,0,.23-1.05c-2.71-16-5.53-32-8.1-48q-1.26-8-2.51-16-1.43-15.21-2.54-30.43a3.45,3.45,0,0,0-.73.84c-.83,1.11-1.64,2.23-2.45,3.36s-1.61,2.26-2.4,3.4a3.14,3.14,0,0,0-.55,1" transform="translate(-65.35 -124.35)"/></g></g><g class="cls-6"><g class="cls-10"><path class="cls-8" d="M178.55,308.35q7.9,48,16,95.9,2.22-5.94,4.45-11.89-3.53,7.59-7,15.19l-.12.32a11.18,11.18,0,0,0,4.81,4,29,29,0,0,0,8.21,2.63c7.26,1.5,14.81,1.71,22.21,1.8,17.75.21,35.51-.5,53.26-.52q17.83,0,35.66.73c9.3.37,18.59.94,27.88,1.18,5.38.14,10.76.23,16.13-.15s11.21-1.15,16.19-3.52a24.6,24.6,0,0,0,6.14-4.13,25.16,25.16,0,0,0,4.67-6.18,27.8,27.8,0,0,0,.53-3.41c.17-1.5.35-3,.55-4.51,1.42-10.64,3-21.26,4.35-31.91,1-8,2.3-16.06,2.78-24.1a124.26,124.26,0,0,1,2.14-16.73A182.7,182.7,0,0,1,404.61,298a5.73,5.73,0,0,0-1,1c-1.19,1.35-2.38,2.7-3.55,4.06s-2.35,2.72-3.51,4.09a5.21,5.21,0,0,0-.85,1.14c-2.4,8.54-4.49,17.13-6.17,25.82a56.18,56.18,0,0,0-1.33,10.4,11.61,11.61,0,0,1-.79,6.29c-.31,1.7-.62,3.4-.95,5.09-.34,2.19-.7,4.38-1.06,6.56-.81,5.23-1.48,10.47-2.27,15.7-.42,2.72-.85,5.42-1.32,8.13q-.93,3.63-2,7.23a58.34,58.34,0,0,1-3.71,7.83,13.09,13.09,0,0,1-5.21,5.3,33.31,33.31,0,0,1-11.2,3.38c-5.62.87-11.44,1.05-17.12,1.38-8,.45-15.91-.39-23.86-.89-7.64-.48-15.28-1-22.93-1.31-12-.53-24-.33-36-.12-10,.18-19.93.58-29.85-.59a101,101,0,0,0-11.77-1.25,26,26,0,0,1-9.54-1.85,16.76,16.76,0,0,1-5.71-2.73,22.45,22.45,0,0,0-3.18-2.73c-1.36-1.53-1.48-4-1.31-5.85q-3.19,5.49-6.37,11a2.91,2.91,0,0,1,2.5-.82,4.87,4.87,0,0,0,.59-1.24q.94-2.4,1.85-4.81c.62-1.61,1.22-3.21,1.81-4.83a5,5,0,0,0,.38-1.31c-2.71-16-5.61-32-8.1-48l-2.37-15.91q-.93-15-1.8-30.08a5.2,5.2,0,0,0-1,1q-1.68,2-3.33,4.06t-3.29,4.09a4.71,4.71,0,0,0-.79,1.15" transform="translate(-65.35 -124.35)"/></g></g><g class="cls-6"><g class="cls-11"><path class="cls-8" d="M178.88,310.3q2.46,11.56,4.25,23.26,2,12,4,24,4,24,8.12,48.05l1.89-5.12c-.43.42-.83.83-1.21,1.28a27.22,27.22,0,0,0-3,4.31c-.87,1.64-.6,2.76.57,4.28a15.68,15.68,0,0,0,7.52,4.76,52.78,52.78,0,0,0,9.47,2.14c8.06,1.11,16.34.83,24.45.72,23.15-.33,46.27-1.19,69.42-.58,11.49.3,22.95.92,34.42,1.38a186,186,0,0,0,24.65-.16c5.41-.5,10.79-1.53,15.52-4.15a23.7,23.7,0,0,0,5.88-4.57,19.64,19.64,0,0,0,3.59-4.73l.51-2.16c.93-4.47,1.56-9,2.09-13.56.72-6.11,1.48-12.21,2.2-18.32,1.08-9.22,2.31-18.44,3.23-27.68.47-4.69.71-9.39,1.37-14.06,1.47-10.34,4.65-20.43,8.11-30.31.2-.57-1.2,1.22-1,1-.56.69-1.1,1.39-1.64,2.08a9.54,9.54,0,0,0-.8,1.12c-3.69,11.74-7.1,23.81-7.8,36.08a18,18,0,0,1-.56,6.25c-.23,1.75-.48,3.5-.74,5.24q-1,7.28-1.9,14.54c-1.47,11.83-2.25,23.81-6.48,35.14a46.17,46.17,0,0,1-2.26,5.34,8.55,8.55,0,0,1-3.57,3.68,30.88,30.88,0,0,1-12.38,4.92c-5.65,1.07-11.56,1.22-17.29,1.54-8,.43-16-.29-23.95-.72-7.68-.41-15.37-.81-23.06-1-12-.37-24-.26-35.94,0-10.17.26-20.38,1-30.55.68a81.67,81.67,0,0,0-12.61-.18,53.28,53.28,0,0,1-11.63-.65,19.18,19.18,0,0,1-8.6-2.3c-1.77-1-3.5-2-5.21-3a6.07,6.07,0,0,1-2.31-6.15l-2.7,3.69a2.42,2.42,0,0,1,2.33-.71c.37,0,1-2.41,1.08-2.52.23-.62.93-1.87.81-2.6-2.71-16-5.45-32-8.12-48l-2.64-16q-1.92-15.09-3.6-30.2c0,.07-2.05,1.91-2.07,1.92-.19.2-1.94,1.65-1.85,2.11" transform="translate(-65.35 -124.35)"/></g></g><g class="cls-6"><g class="cls-12"><path class="cls-8" d="M179,308.83q7.78,48,16,95.86l4-10.15c-1.47,2.52-2.83,5.08-4.17,7.66-.4.77-.81,1.54-1.16,2.33q-2.86,2.89-.42,4.9a5.52,5.52,0,0,0,2.37,2c4.95,3.26,11.36,4.14,17.26,4.72,8.23.79,16.47.74,24.73.73,11.53,0,23.05-.39,34.57-.52q18-.19,36.07.36c10,.32,20,.87,30,1.26,8.19.33,16.45.64,24.62-.14,5.41-.52,10.81-1.56,15.49-4.23a22.8,22.8,0,0,0,5.8-4.64c1.48-1.64,3.26-3.61,3.61-5.78.66-4.06,1-8.18,1.61-12.26.94-6,1.79-12.07,2.55-18.13,1.26-10,2.62-20,3.59-30,.53-5.58.91-11.1,1.89-16.64a176.29,176.29,0,0,1,7.71-27.77,4.31,4.31,0,0,0-.9.86c-1,1.15-2.06,2.31-3.08,3.47s-2,2.34-3,3.52a3.73,3.73,0,0,0-.73,1,259.84,259.84,0,0,0-6,25.9,68.8,68.8,0,0,0-1.22,10.5,12.64,12.64,0,0,1-.75,6.34c-1,3.81-1.35,7.87-1.93,11.75-.78,5.25-1.43,10.52-2.18,15.78-.39,2.75-.81,5.49-1.24,8.23q-.91,3.72-1.92,7.43a64.21,64.21,0,0,1-3.78,8.43,13.63,13.63,0,0,1-5.42,5.92,32.55,32.55,0,0,1-11.38,3.53c-5.61.84-11.41,1-17.07,1.34-8,.46-15.91-.37-23.87-.84-7.68-.46-15.36-.9-23.05-1.16-12-.4-24-.22-36.07,0-10,.2-20,.7-30-.35a87.12,87.12,0,0,0-12-1.06,28.93,28.93,0,0,1-9.91-1.61,19.07,19.07,0,0,1-6.15-2.55,20.56,20.56,0,0,0-3.55-2.59c-1.59-1.49-1.81-3.88-1.64-5.86q-2.85,4.54-5.72,9.08a2.72,2.72,0,0,1,2.47-.81,3.71,3.71,0,0,0,.53-1.05c.57-1.36,1.13-2.73,1.67-4.11s1.09-2.74,1.61-4.12a3.27,3.27,0,0,0,.33-1.12c-2.7-16-5.56-32-8.09-48l-2.43-15.93q-1.15-15-2.07-30.08a4.07,4.07,0,0,0-.87.84c-1,1.11-2,2.24-3,3.37s-2,2.27-3,3.41a3.69,3.69,0,0,0-.7,1" transform="translate(-65.35 -124.35)"/></g></g><g class="cls-6"><g class="cls-13"><path class="cls-8" d="M177.92,307.69q2.55,11.42,4.27,23,1.91,12,4,24l8.13,48q.72-2.46,1.45-4.92a23.88,23.88,0,0,0-3.45,5,3.62,3.62,0,0,0-.68,2.78c.43,2.12,2.74,4,4.59,5.06a33.8,33.8,0,0,0,8,3c7.44,1.9,15.41,1.9,23.06,1.83,22.36-.19,44.69-1.2,67-.92,12.3.16,24.58.71,36.87,1.28,8.86.4,17.73.89,26.6.46,5.74-.28,11.51-.84,16.88-2.88a24.79,24.79,0,0,0,6.49-3.6,16.44,16.44,0,0,0,4.07-3.95l2.22-3.34a24.79,24.79,0,0,0,1-4.89q.56-3.5,1-7c.79-6,1.4-11.94,2.09-17.9,1.26-10.69,2.7-21.36,3.74-32.06.45-4.68.7-9.37,1.39-14,1.51-10.37,4.67-20.45,8.16-30.37a2.11,2.11,0,0,0-.69.57c-.78.78-1.54,1.56-2.3,2.36s-2.48,2.07-2.79,3.09a257.25,257.25,0,0,0-6.33,25.9,46.58,46.58,0,0,0-1.23,10.51,79.67,79.67,0,0,1-1,8.72c-1.33,8.34-2.37,16.73-3.19,25.13-.86,8.8-1,17.71-4.08,26.16-1.13,3.11-2.16,5.55-4.83,7.79a25.28,25.28,0,0,1-9.89,4.77,70.21,70.21,0,0,1-13.65,1.79c-3.55.31-7.11.51-10.68.62q-5.88-.24-11.76-.56c-19-1-37.93-1.87-57-1.55q-8.47.15-16.95.48l-15.41.63-7,0a84.66,84.66,0,0,0-12.74,0c-8.3.18-17.68,0-24.62-4.9-2.76-2-4.83-4.7-4.25-8.13q-1.26,1.93-2.5,3.87a2.57,2.57,0,0,1,2.26-.79c.35,0,.82-2.32.86-2.43a6.93,6.93,0,0,0,.59-2.49q-3.39-20-6.77-40-2.1-11.94-3.73-23.95-2.57-15.25-4.05-30.64a1,1,0,0,0-.43.41c-.46.58-.9,1.17-1.33,1.76-.23.31-1.64,1.8-1.54,2.33" transform="translate(-65.35 -124.35)"/></g></g><g class="cls-6"><g class="cls-14"><path class="cls-8" d="M177.31,309.14c5.14,32,10.56,63.92,16,95.87l3.18-10.1c-.36.59-.71,1.18-1,1.79s-5.2,9.71-5.16,10.36c.25,3.93,5.44,6.09,8.86,7.22,6.39,2.12,13.57,2.67,20.3,3,8.91.4,17.93.2,26.85.05,10.87-.19,21.74-.49,32.62-.52q17.87,0,35.7.69c9.3.38,18.58.93,27.88,1.2,7.58.22,15.29.29,22.79-.92,5.17-.83,10.08-2.42,14.17-5.56a23.16,23.16,0,0,0,5.14-5.51,4.15,4.15,0,0,0,1.34-2.66,21.82,21.82,0,0,0,.47-2.41c.8-4.65,1.63-9.26,2.23-13.93q1.06-8.22,2.05-16.44c1.17-9.7,2.49-19.39,3.4-29.12.49-5.16.81-10.3,1.74-15.42a183.33,183.33,0,0,1,7.66-27.76,2.06,2.06,0,0,0-.68.6q-1.16,1.23-2.28,2.49c-.7.78-2.43,2.18-2.75,3.27a249.7,249.7,0,0,0-6.28,25.79,49.15,49.15,0,0,0-1.21,10.53,78,78,0,0,1-1,8.76c-1.36,8.41-2.37,16.86-3.38,25.31-.65,5.42-1.08,10.95-2.48,16.26a62.45,62.45,0,0,1-4.65,12.23,12.25,12.25,0,0,1-2.07,3.18,21.33,21.33,0,0,1-5.5,3.42,36.51,36.51,0,0,1-11.26,2.8c-5.15.55-10.3.85-15.47,1.12-8,.43-16-.34-23.95-.79-10.65-.6-21.31-1.16-32-1.31-10.46-.14-20.94.07-31.4.31-8.81.2-17.67.65-26.46-.15a103.5,103.5,0,0,0-12.56-1.1,27.06,27.06,0,0,1-10.63-1.93,13.24,13.24,0,0,1-6.65-3.31,27,27,0,0,0-3.6-3.32c-1.43-1.66-1.75-4.19-1.62-6.24q-2.41,4.49-4.84,9a2.78,2.78,0,0,1,2.51-.83c.49-.05,1.7-4.93,1.72-5,.43-1.33.84-2.66,1.23-4a3.12,3.12,0,0,0,.23-1.08c-2.7-16-5.54-32-8.08-48l-2.46-15.95q-1.38-15.14-2.07-30.3a3.62,3.62,0,0,0-.77.84c-.88,1.1-1.75,2.22-2.61,3.34s-1.71,2.25-2.56,3.39a3.36,3.36,0,0,0-.59.95" transform="translate(-65.35 -124.35)"/></g></g><g class="cls-6"><g class="cls-15"><path class="cls-8" d="M179.4,308.74c5.48,31.82,10.69,63.68,16.08,95.51q1.29-3.62,2.59-7.23c-.34.46-.68.9-1,1.38s-4.55,7.5-4.53,7.91c.18,3.89,5.34,6.19,8.69,7.36a48.89,48.89,0,0,0,9.23,2,111.48,111.48,0,0,0,11.41.9c8.92.31,17.92.05,26.84-.12,22.79-.46,45.52-.77,68.31.14,9.29.37,18.57.93,27.87,1.19,7.59.22,15.3.29,22.81-.92,5.19-.84,10.12-2.46,14.2-5.64a22.83,22.83,0,0,0,5.12-5.59,4.1,4.1,0,0,0,1.32-2.7,22.05,22.05,0,0,0,.41-2.41c1.46-10.08,2.9-20.14,4.14-30.24,1.19-9.69,2.51-19.38,3.4-29.1.47-5.16.84-10.28,1.76-15.4a178.55,178.55,0,0,1,7.68-27.76,2.78,2.78,0,0,0-.74.71c-.84,1-1.67,1.94-2.48,2.93s-1.64,2-2.44,3a2.61,2.61,0,0,0-.57.84c-2.19,7.59-4,15.18-5.54,22.91q-.84,4-1.45,8.1c-.27,3.35-.45,6.69-.54,10.05l.06-.25a75,75,0,0,0-1.86,10.2q-.82,5.53-1.56,11.08c-1.2,9.18-1.61,18.8-4.91,27.58a60.46,60.46,0,0,1-3.49,8,14,14,0,0,1-7,6.05c-7.25,3.33-15.54,3.3-23.42,3.88q-4,.34-8.09.45-5.88-.29-11.74-.65c-7.14-.41-14.27-.85-21.42-1.17q-17.8-.81-35.6-.42c-8.28.16-16.56.5-24.84.68a128.65,128.65,0,0,1-14.16-.16l-6-.52q-6.14.09-12.28-.15a87.52,87.52,0,0,1-9.64-1.95A16.26,16.26,0,0,1,202,407c-1-.71-2-1.39-3.08-2a6.7,6.7,0,0,1-1.88-6c-1.35,2.08-2.7,4.15-4,6.23a2.77,2.77,0,0,1,2.44-.86c.46-.05,1.44-3.53,1.49-3.66.3-.82,1.4-2.75,1.23-3.74-2.71-16-5.49-32-8.1-48l-2.55-16q-1.74-15.09-2.62-30.25a2.09,2.09,0,0,0-.67.58c-.74.8-1.48,1.6-2.2,2.41s-1.45,1.62-2.16,2.44a2.14,2.14,0,0,0-.5.71" transform="translate(-65.35 -124.35)"/></g></g><g class="cls-6"><g class="cls-16"><path class="cls-8" d="M176.1,307.91c5.83,31.66,10.92,63.46,16.29,95.2l.91-3.7a11.54,11.54,0,0,0-2.64,3.34,6.31,6.31,0,0,0-1.11,2.45c-.14,2.14,1.91,3.82,3.51,5a22.1,22.1,0,0,0,7.47,3.59,61.92,61.92,0,0,0,13.11,2.25c4.15.29,8.3.32,12.45.32,10.78,0,21.55-.44,32.33-.71,13.15-.33,26.31-.44,39.47-.22,12.95.23,25.87,1,38.8,1.48a188.8,188.8,0,0,0,24.72-.18c5.92-.55,12.35-1.71,17.25-5.08a25.47,25.47,0,0,0,6.83-6.94c1.3-1.93,1-1.11,1.41-2.83.31-1.33.51-2.6.7-4,.78-5.6,1.31-11.22,1.86-16.84,1.19-12,2.68-24,4-35.94.48-4.47.74-8.94,1.2-13.41a128,128,0,0,1,2.81-16,182.72,182.72,0,0,1,6-19.42c.16-.45-1,.72-.86.58-.56.51-1.84,1.39-2.08,2.11a222.18,222.18,0,0,0-6.9,25.71,46.1,46.1,0,0,0-1.34,10.62,15.74,15.74,0,0,1-.32,5.52,17,17,0,0,0-.45,3.1c-.72,5.67-1.41,11.34-2,17-1,9.42-1.47,18.88-2.45,28.3-.61,5.87-1,12.82-5.15,17.65a23.34,23.34,0,0,1-10.56,6.55,55.33,55.33,0,0,1-14,2.31,210.71,210.71,0,0,1-22.62,0c-19-.81-37.94-1.68-56.95-1.52-10.86.1-21.72.45-32.58.82-6.77.23-13.54.26-20.32.25a95.15,95.15,0,0,1-12.52-.55,24.59,24.59,0,0,1-10.46-2.44c-4.29-1.93-10.86-5.87-9.8-11.41l-1.89,3,2.31-.75c.4,0,1-3.42.91-3.69q-4.05-24-8.12-48l-2.7-16q-2.55-15.47-4.29-31c0,.1-1.15,1.6-1.19,1.66-.2.33-1,1.32-.94,1.79" transform="translate(-65.35 -124.35)"/></g></g><g class="cls-6"><g class="cls-17"><path class="cls-8" d="M176.71,308.34q8,47.87,16,95.72l2.71-9.69a88.41,88.41,0,0,0-4.15,8.18c-.35.71-.71,1.41-1,2.14a7.25,7.25,0,0,0-.55,1.47c-.3,2,2.07,3.73,3.57,4.7,4.82,3.1,11.23,4.18,16.94,4.81,8.28.92,16.54.84,24.87.88,11.53.06,23-.42,34.58-.55,12-.15,24.06-.07,36.09.31,10,.32,20,.87,30,1.27a186.15,186.15,0,0,0,24.66-.14c5.39-.5,10.76-1.51,15.48-4.09a22.8,22.8,0,0,0,5.84-4.49c1.51-1.62,3.26-3.52,3.74-5.67a114.38,114.38,0,0,0,2.33-12.68c.66-6,1.39-12.07,2.11-18.1,1.17-10,2.51-20,3.51-30,.55-5.57.85-11.12,1.85-16.66A182.65,182.65,0,0,1,403,298a2.14,2.14,0,0,0-.71.59c-.81.8-1.6,1.61-2.39,2.44s-1.57,1.64-2.34,2.47a2.23,2.23,0,0,0-.55.72,254.57,254.57,0,0,0-6.33,25.9,47.4,47.4,0,0,0-1.21,10.54,77.49,77.49,0,0,1-1,8.73c-1.35,8.38-2.35,16.8-3.26,25.23-1,9.73-1.38,19.76-6.16,28.68a11.92,11.92,0,0,1-2,3,20.56,20.56,0,0,1-5.36,3.62,34.39,34.39,0,0,1-11.19,3c-5.14.62-10.3.91-15.47,1.19-8,.44-16-.33-24-.77-10.65-.59-21.31-1.16-32-1.31-10.48-.14-21,.06-31.43.32-8.86.22-17.76.73-26.61,0a101,101,0,0,0-12.77-.93,29,29,0,0,1-11.06-1.81,12.85,12.85,0,0,1-7.1-3.46q-1.81-1.87-3.77-3.62a5.84,5.84,0,0,1-1.36-3.76,4.72,4.72,0,0,1-.25-2.65l-4.41,8.74a2.89,2.89,0,0,1,2.5-.88c.47-.05,1.46-4.73,1.49-4.81.36-1.28.7-2.56,1-3.84a3.12,3.12,0,0,0,.18-1c-2.71-16-5.52-32-8.09-48q-1.26-8-2.51-16-1.55-15.19-2.41-30.45a2.91,2.91,0,0,0-.69.83c-.78,1.09-1.55,2.2-2.3,3.32s-1.51,2.22-2.25,3.34a3.08,3.08,0,0,0-.51.94" transform="translate(-65.35 -124.35)"/></g></g><g class="cls-6"><g class="cls-18"><path class="cls-8" d="M177.14,307.55c5.9,31.64,10.94,63.42,16.3,95.13l1-3.52a13.38,13.38,0,0,0-2.68,3.27,5.15,5.15,0,0,0-1.12,2.36,6.2,6.2,0,0,0,2,3.91,20,20,0,0,0,6.53,3.93c3.72,1.58,8.41,2.22,12.45,2.56s8.1.5,12.17.5c10.46,0,20.91-.33,31.36-.65,12.91-.38,25.82-.57,38.74-.41,12.28.15,24.55.7,36.82,1.25,8,.37,16.12.89,24.15.57a73.51,73.51,0,0,0,15.74-1.84c5.72-1.48,10.77-4.29,14.33-8.79l2.25-3.37a25.16,25.16,0,0,0,.74-3.53c.36-2.21.66-4.43,1-6.65.79-5.93,1.32-11.88,2-17.83,1.19-10.89,2.61-21.76,3.75-32.66.54-5.16.72-10.35,1.51-15.49,1.6-10.38,4.68-20.41,8.18-30.35a1.43,1.43,0,0,0-.56.41c-.61.59-1.22,1.18-1.82,1.78s-1.93,1.56-2.18,2.37a238.5,238.5,0,0,0-6.57,25.84,43.28,43.28,0,0,0-1.26,10.5,21.29,21.29,0,0,1-.54,6.28c-1,7.81-2.14,15.6-2.93,23.44q-.63,6.22-1.06,12.46a128,128,0,0,1-1.55,15.38,45.48,45.48,0,0,1-2.31,8.2c-1.36,3.39-5,6.15-8.33,7.85a36.57,36.57,0,0,1-12.11,3.31,135.59,135.59,0,0,1-22.7.9c-18-.7-36-1.87-54-1.85-11.29,0-22.58.31-33.86.78-4.9.26-9.81.45-14.71.54l-6-.1q-6.48.23-13,.19-5.94-.25-11.81-1c-4.81-1.05-15.3-5.57-13.91-12.38l-1.9,2.78,2.28-.79c.41-.05,1-3.25,1-3.52l-8.13-48-2.7-16q-2.59-15.45-4.24-31c0,.07-1.21,1.56-1.24,1.61-.21.3-1.1,1.29-1,1.74" transform="translate(-65.35 -124.35)"/></g></g><g class="cls-6"><g class="cls-19"><path class="cls-8" d="M177.76,310.08q8.06,47.85,16.09,95.7l2.46-7.35a11.46,11.46,0,0,0-1.13,1.49c-.25.43-4.34,7.44-4.32,7.87.24,4,5.36,6.21,8.79,7.41,6.54,2.29,13.85,2.87,20.77,3.1,4.24.15,8.51,0,12.76-.06,4.67,0,9.33-.05,14-.15,22.79-.48,45.51-.78,68.29.13,9.29.37,18.58.92,27.88,1.19,7.58.21,15.29.28,22.79-.93,5.2-.83,10.13-2.43,14.24-5.58a25.35,25.35,0,0,0,5.34-5.56,3.9,3.9,0,0,0,1.4-2.7,23.32,23.32,0,0,0,.46-2.47c.78-4.69,1.55-9.36,2.13-14.07q1-8.24,2-16.49c1.11-9.64,2.42-19.28,3.34-28.94.5-5.16.77-10.32,1.71-15.43a184.36,184.36,0,0,1,7.63-27.73c.19-.54-1.16,1.08-1,.87-.54.62-1.07,1.25-1.59,1.88a9.4,9.4,0,0,0-.77,1,224,224,0,0,0-6.57,25.5,54.6,54.6,0,0,0-1.31,10.63,17.4,17.4,0,0,1-.54,6.27c-.23,1.74-.48,3.48-.74,5.22-.66,4.83-1.27,9.67-1.87,14.52-.85,6.95-1.25,14.08-2.57,21a101.26,101.26,0,0,1-3.83,14.48,45.47,45.47,0,0,1-2.27,5.57,8.14,8.14,0,0,1-3.74,3.73A32.54,32.54,0,0,1,364.8,415c-5.7,1-11.64,1.15-17.42,1.44-8,.41-16-.31-24-.73-7.7-.41-15.4-.81-23.1-1.05-12-.38-24-.29-36,0-10.22.22-20.53,1-30.76.37a89.32,89.32,0,0,0-12.77-.61,34.87,34.87,0,0,1-11.37-1.33,15.44,15.44,0,0,1-7.81-3c-1.44-1.17-2.93-2.28-4.46-3.35a7.41,7.41,0,0,1-2-6.35l-3.78,6.21a2.75,2.75,0,0,1,2.51-.8c.41,0,1.33-3.54,1.36-3.64.29-.86,1.27-2.71,1.1-3.71-2.71-16-5.49-32-8.1-48l-2.55-16q-1.72-15.12-2.76-30.29a1.85,1.85,0,0,0-.62.56c-.7.77-1.38,1.55-2.06,2.33s-1.35,1.57-2,2.37a1.86,1.86,0,0,0-.46.69" transform="translate(-65.35 -124.35)"/></g></g><g class="cls-6"><g class="cls-20"><path class="cls-8" d="M178.52,308q2.58,11.42,4.28,23,1.9,12,4,24,4.06,24,8.12,48l1.59-5a24.41,24.41,0,0,0-3.78,5.34c-.92,1.68-.7,2.77.49,4.35,3.11,4.14,9.17,5.59,14.18,6.6,8.88,1.78,18.15,1.29,27.18,1.17,23.19-.29,46.34-1.19,69.54-.58,10.35.27,20.7.78,31,1.24,8.55.38,17.2.87,25.74.2,5.47-.44,11.16-1.13,16.14-3.45a24.92,24.92,0,0,0,6.17-4.07c.87-.93,1.73-1.87,2.59-2.81.74-1.11,1.48-2.22,2.21-3.33a30.32,30.32,0,0,0,1.12-6.48c.32-2.36.63-4.73,1-7.1.77-5.37,1.41-10.75,2-16.13,1.27-10.68,2.71-21.36,3.75-32.06.54-5.58.87-11.11,1.87-16.65a179.89,179.89,0,0,1,7.69-27.75,2.29,2.29,0,0,0-.7.61c-.8.84-1.58,1.68-2.36,2.53s-2.52,2.21-2.84,3.3a256.36,256.36,0,0,0-6.26,25.87,48.9,48.9,0,0,0-1.23,10.5,79.91,79.91,0,0,1-1,8.73c-1.35,8.35-2.4,16.75-3.28,25.15-.57,5.41-.78,11-1.84,16.33a52.88,52.88,0,0,1-3.81,11.94,12.73,12.73,0,0,1-3.92,5.09,27,27,0,0,1-11.43,4.94c-5.56,1.16-11.43,1.33-17.09,1.68a46.12,46.12,0,0,1-8.39.13c-3-.13-6-.28-8.93-.46-9.88-.54-19.76-1.13-29.65-1.44-12-.38-24-.25-36,.1-7.88.24-15.76.72-23.64.91q-6.48.13-12.94-.27-6.33.31-12.67.34a45.79,45.79,0,0,1-14.83-2.88,28.29,28.29,0,0,1-5.24-3.35,7.15,7.15,0,0,1-2.17-6.31l-2.58,3.81a2.55,2.55,0,0,1,2.26-.79c.37,0,.89-2.32.93-2.44a6.63,6.63,0,0,0,.66-2.51q-3.39-20-6.77-40-2.1-11.94-3.71-23.94-2.53-15.22-4-30.57a1.07,1.07,0,0,0-.46.41q-.72.85-1.41,1.74c-.22.27-1.75,1.79-1.64,2.3" transform="translate(-65.35 -124.35)"/></g></g><g class="cls-6"><g class="cls-21"><path class="cls-8" d="M178.27,310.51q7.95,47.82,16,95.6.8-2.42,1.57-4.83a21.69,21.69,0,0,0-3.87,5.18,3.51,3.51,0,0,0-.3,3.34l1.66,2.22,2.81,2a31.35,31.35,0,0,0,8.15,2.93c7.41,1.82,15.31,1.88,22.91,1.85,9.36,0,18.72-.26,28.07-.5,5.43-.14,10.87-.27,16.3-.34l44.35.58,7.75.33c8.61.39,17.24.95,25.87,1,7.07,0,14.41-.13,21.28-1.86a26.88,26.88,0,0,0,13.13-7.2c1.6-1.66,3.4-3.57,3.94-5.78.47-1.91.79-3.85,1.13-5.79,1.61-9.16,2.61-18.37,3.69-27.6,1.13-9.69,2.44-19.38,3.35-29.1.49-5.17.73-10.34,1.7-15.46.72-3.81,1.53-7.59,2.5-11.34,1.44-5.54,3.25-10.91,5.16-16.33.14-.39-.76.64-.62.48a6.61,6.61,0,0,0-1.29,1.74q-2.37,6.62-4.16,13.4-1.53,5.94-2.64,12a33.45,33.45,0,0,0-1.21,7.62q-.36,3.88-.49,7.78c-.91,7-1.77,14.05-2.63,21.07-.69,5.62-1.33,11.23-2,16.85a89.63,89.63,0,0,1-1.89,12.07q-1.41,5.64-3.26,11.17-1.18,5.54-7.75,7.28a16.5,16.5,0,0,1-10.14,5.35q-3.94.66-7.92,1c-16.09,1.28-32.17-.18-48.25-.84q-22.09-.9-44.18-.34c-5.41.13-10.81.31-16.21.48q-7.33.34-14.66.27a107.78,107.78,0,0,0-13-.24l-12.08-.77a26,26,0,0,1-12.31-4.5,9.32,9.32,0,0,1-3.65-3.24,7.54,7.54,0,0,1-.78-4.66L192,406.83a2.45,2.45,0,0,1,2.35-.72c.34,0,.89-2.28.92-2.38a6.37,6.37,0,0,0,.65-2.45q-3.37-20-6.77-40-2.08-11.92-3.71-23.91a212.76,212.76,0,0,1-3.47-30.7c0,.09-1.9,1.83-1.93,1.86-.21.22-1.8,1.56-1.72,2" transform="translate(-65.35 -124.35)"/></g></g><g class="cls-6"><g class="cls-22"><path class="cls-8" d="M176.16,308c5.43,31.86,10.74,63.74,16.13,95.6q.74-3.06,1.46-6.13a17.62,17.62,0,0,0-2.63,4.23,13.28,13.28,0,0,0-1.76,3.88,4,4,0,0,0,1.19,2.84,13.57,13.57,0,0,0,5.59,4c6.2,2.75,13,3.49,19.82,3.91,4.23.26,8.45.24,12.68.2,5.74-.06,11.47-.07,17.21-.21,10.88-.27,21.76-.6,32.66-.65q17.83-.08,35.67.66c10.24.41,20.47,1,30.72,1.27a138,138,0,0,0,15.75-.47c5.42-.49,10.81-1.5,15.57-4.07a23.27,23.27,0,0,0,6-4.55c1.57-1.68,3.37-3.62,3.9-5.82a115.24,115.24,0,0,0,2.23-14.87q1.76-16.45,3.66-32.89c.58-4.9,1.17-9.79,1.62-14.7.17-1.82.28-3.65.43-5.47,1.07-13.1,4.26-24.29,9-37.7a.88.88,0,0,0-.46.3c-.5.47-1,.94-1.46,1.42s-1.51,1.22-1.73,1.89a230.72,230.72,0,0,0-6.71,25.61q-.54,2.59-1,5.22c-.13,2.85-.33,5.7-.58,8.55s-.6,5.58-1,8.39q-1.77,13.28-2.9,26.61c-.45,5.38-.74,10.8-1.57,16.13a68.63,68.63,0,0,1-2.25,10.23q-1.38,6.81-10.59,7.83a23.69,23.69,0,0,1-18.35,6.19,98,98,0,0,1-16.25.28c-6.65-.27-13.29-.65-19.93-1q-30.17-1.43-60.28-.55c-7.61.21-15.23.66-22.84.55q-3.19-.21-6.39-.31a114.67,114.67,0,0,1-19.24-1c-5-1.12-11.11-3.24-14.56-7.29a9.19,9.19,0,0,1-2.3-6.84l-2.83,5.23a2.86,2.86,0,0,1,2.47-.86c.35,0,.85-3,.87-3a9.12,9.12,0,0,0,.59-3.1q-3.37-20-6.76-40-2.1-11.94-3.68-23.93a267.55,267.55,0,0,1-3.64-31.14,1.42,1.42,0,0,0-.46.54c-.48.73-1,1.46-1.41,2.21-.28.44-1.76,2.2-1.64,2.88" transform="translate(-65.35 -124.35)"/></g></g><g class="cls-6"><g class="cls-23"><path class="cls-8" d="M179.12,309.28c6.1,31.61,11.06,63.42,16.43,95.15.3-.86.61-1.73.92-2.6a12.11,12.11,0,0,0-3.27,3.31,3.19,3.19,0,0,0-.3,3.08l1.7,2.23,2.85,2c3.13,1.95,7.29,2.71,10.93,3.34a99.93,99.93,0,0,0,17.55,1c20.28-.08,40.53-1.09,60.81-1.07,11.67,0,23.34.33,35,.83,9.89.42,19.83,1.16,29.74,1.14,11.07,0,24.32-.13,32.79-7.87.88-.94,1.75-1.89,2.62-2.84.75-1.12,1.49-2.24,2.24-3.35a25.13,25.13,0,0,0,1-5c.77-4.82,1.34-9.66,1.9-14.5,1.32-11.48,2.72-22.95,4.05-34.43.72-6.24,1.35-12.48,2.13-18.72a62.78,62.78,0,0,1,1.65-11.15q.6-3,1.42-5.92c1.43-5.54,3.25-10.92,5.15-16.35.06-.16.06-.2-.1-.07a11.42,11.42,0,0,0-1.53,1.74c-.74.9-2.07,2-2.42,3.15-1.6,5.17-2.63,8.36-3.89,13.6A154.72,154.72,0,0,0,395,333.17q-.33,5.77-.93,11.53c-.18,1.33-.38,2.66-.58,4-.6,3.92-1.08,7.86-1.58,11.79q-1,8.16-1.88,16.34c-.65,6.38-1.18,13-3.06,19.14a45.36,45.36,0,0,1-3.11,8.2c-1.69,3.19-5.32,5.55-8.69,7-4.34,1.92-9.27,2.64-14,3.08-4.91.46-10.14.88-15.06.88-3.92-.15-7.84-.32-11.77-.54-4.58-.25-9.17-.48-13.75-.72-11.37-.56-22.73-.94-34.12-.88-8.63,0-17.25.27-25.86.6-5.1.21-10.19.45-15.28.69q-6.44.27-12.88,0c-9.43.14-19.25,1.83-28.37-1.28-4.1-1.4-10.87-4.07-9.29-9.4l-1.62,1.74,2.38-.86c.39,0,1-2.41,1-2.66-5.34-31.59-11.07-63.13-15.4-94.85,0-.06-1.16,1.06-1.14,1-.17.18-1,.88-.93,1.22" transform="translate(-65.35 -124.35)"/></g></g><g class="cls-6"><g class="cls-24"><path class="cls-8" d="M178.89,307.61c5.37,31.88,10.62,63.78,16,95.66l3.3-9.23A39.38,39.38,0,0,0,192,405.39a4.28,4.28,0,0,0,2.09,3.71c4,3.58,10.6,4.69,15.79,5.43,8,1.14,16.06,1,24.1,1.05,9.88,0,19.74-.21,29.62-.37,11.85-.21,23.7-.26,35.55,0,10.74.23,21.46.74,32.19,1.22,8,.37,16.06.83,24.09.6a69.36,69.36,0,0,0,15.68-1.84,26.65,26.65,0,0,0,11.65-6,25.41,25.41,0,0,0,4.73-6.17,36.85,36.85,0,0,0,.76-4.78c1.33-10.37,2.92-20.7,4.2-31.07.65-5.34,1.31-10.68,1.94-16,.48-4.06,1-8.14,1.3-12.22a124.67,124.67,0,0,1,2.13-16.76A183.19,183.19,0,0,1,405,297.08a4.67,4.67,0,0,0-1,.86q-1.68,1.74-3.35,3.5c-1.12,1.17-2.22,2.35-3.32,3.54a4.24,4.24,0,0,0-.8,1c-2.4,8.6-4.5,17.26-6.05,26a65.47,65.47,0,0,0-1.22,10.52,11.78,11.78,0,0,1-.76,6.31q-.44,2.55-.91,5.09-.5,3.29-1,6.57c-.77,5.23-1.4,10.48-2.07,15.73q-.51,4.13-1.08,8.24-.76,3.78-1.6,7.54a57.93,57.93,0,0,1-3.44,8.27,13.92,13.92,0,0,1-5,5.78,29.07,29.07,0,0,1-11.06,3.81,161.42,161.42,0,0,1-17,1.47,55.5,55.5,0,0,1-11.16-.06q-6.35-.37-12.7-.77c-7.68-.45-15.36-.89-23-1.15-12-.39-24.06-.21-36.09.07-10,.24-20.09.82-30.12,0a82.13,82.13,0,0,0-12.24-.77,31.59,31.59,0,0,1-10.42-1.36,16.63,16.63,0,0,1-6.71-2.62c-1.21-1-2.46-2-3.77-2.85-1.55-1.57-1.82-4-1.64-6q-2.52,4.17-5.05,8.35a2.88,2.88,0,0,1,2.45-.91,3.18,3.18,0,0,0,.47-1c.47-1.24.94-2.48,1.39-3.73s.9-2.49,1.34-3.74a2.83,2.83,0,0,0,.25-1c-2.7-16-5.53-32-8.09-48q-1.24-8-2.5-15.95-1.37-15.13-2.45-30.3a3.16,3.16,0,0,0-.76.79c-.87,1.05-1.72,2.11-2.56,3.17s-1.69,2.13-2.52,3.21a3.13,3.13,0,0,0-.58.91" transform="translate(-65.35 -124.35)"/></g></g><g class="cls-6"><g class="cls-25"><path class="cls-8" d="M178.08,309.11q8,48,16.07,95.9,2.1-5.64,4.18-11.29-3.41,7.33-6.8,14.68l-.12.3a10.75,10.75,0,0,0,4.83,4.06,29.84,29.84,0,0,0,8.26,2.57c7.26,1.46,14.79,1.67,22.19,1.74,17.76.19,35.5-.52,53.26-.53q17.88,0,35.72.72c9.29.37,18.59.95,27.89,1.18,5.37.14,10.76.23,16.12-.15s11.16-1.16,16.13-3.52a24.38,24.38,0,0,0,6.12-4.1,25.54,25.54,0,0,0,4.62-6.12c.21-1.11.37-2.23.48-3.35.16-1.49.34-3,.54-4.46.69-5.07,1.63-10.11,2.33-15.18.76-5.6,1.46-11.2,2.16-16.81,1-8,2.27-16,2.77-24.07A126.61,126.61,0,0,1,397,323.9a183.42,183.42,0,0,1,7.22-25.15,3.9,3.9,0,0,0-.89.83q-1.56,1.67-3.08,3.36t-3,3.39a3.59,3.59,0,0,0-.73,1,262.61,262.61,0,0,0-6.07,25.92,66.59,66.59,0,0,0-1.2,10.52,12.37,12.37,0,0,1-.75,6.33,113.46,113.46,0,0,0-1.91,11.74c-.77,5.26-1.42,10.54-2.14,15.81-.38,2.76-.77,5.52-1.19,8.27q-.87,3.76-1.85,7.51a59.81,59.81,0,0,1-3.78,8.61,13.52,13.52,0,0,1-5.58,6,33.34,33.34,0,0,1-11.62,3.5c-5.64.81-11.45,1-17.14,1.29-8,.44-15.92-.38-23.88-.85-7.69-.45-15.38-.89-23.08-1.15-12-.4-24.06-.24-36.09,0-10,.19-20.08.68-30.06-.48a102.67,102.67,0,0,0-12-1.3,25.63,25.63,0,0,1-9.74-1.93,16.88,16.88,0,0,1-5.89-2.85,18.48,18.48,0,0,0-3.32-2.78c-1.45-1.54-1.64-4-1.48-5.94l-6.06,10.35a2.86,2.86,0,0,1,2.52-.83,4.12,4.12,0,0,0,.56-1.18q.9-2.28,1.75-4.57t1.69-4.58a4.59,4.59,0,0,0,.36-1.25c-2.71-16-5.59-32-8.1-48q-1.22-8-2.41-15.92-1-15-1.9-30.1a4.42,4.42,0,0,0-.92,1c-1.08,1.27-2.14,2.54-3.2,3.83s-2.11,2.57-3.15,3.87a4.36,4.36,0,0,0-.75,1.08" transform="translate(-65.35 -124.35)"/></g></g><g class="cls-6"><g class="cls-26"><path class="cls-8" d="M177.08,307.74q8,47.83,16,95.67l2.76-9.73c-.33.56-.65,1.12-.93,1.71s-4.84,9.47-4.79,10.15c.26,3.89,5.38,5.94,8.75,7.08,6.42,2.18,13.53,2.84,20.3,3.16,4.29.2,8.61.1,12.9.11,4.67,0,9.34,0,14-.06,10.89-.2,21.77-.51,32.65-.55q17.87,0,35.71.69c9.29.37,18.57.93,27.86,1.2,7.59.23,15.31.28,22.82-.92,5.17-.83,10.08-2.42,14.18-5.55a23.3,23.3,0,0,0,5.15-5.53,4.06,4.06,0,0,0,1.33-2.65,19,19,0,0,0,.44-2.37c1.56-10.13,3-20.26,4.2-30.43,1.16-9.7,2.48-19.39,3.39-29.11.48-5.16.83-10.28,1.75-15.41a180.05,180.05,0,0,1,7.67-27.77,2.82,2.82,0,0,0-.81.68c-.94.92-1.86,1.84-2.77,2.78s-1.83,1.87-2.73,2.82a2.8,2.8,0,0,0-.64.81c-2.5,8.59-4.6,17.22-6.23,26a49.32,49.32,0,0,0-1.2,10.55,11.4,11.4,0,0,1-.66,6.34c-.27,1.7-.56,3.39-.86,5.09-.31,2.19-.62,4.39-1,6.58-.72,5.26-1.32,10.55-1.89,15.83q-.4,4.2-.87,8.38-.56,3.94-1.22,7.87a57.14,57.14,0,0,1-3.13,9.33c-1.3,2.93-2.52,5.05-5.34,6.94a30,30,0,0,1-11.82,4.23,159.68,159.68,0,0,1-17.22,1.42c-8,.46-16-.33-23.94-.78-7.69-.44-15.39-.86-23.09-1.11-12-.39-24.09-.25-36.13,0-10.2.24-20.49,1-30.68.16a94.1,94.1,0,0,0-12.67-.89,29,29,0,0,1-11-1.72,12.8,12.8,0,0,1-7-3.35q-1.8-1.83-3.71-3.55a5.8,5.8,0,0,1-1.33-3.73,4.82,4.82,0,0,1-.23-2.63l-4.49,8.81a2.94,2.94,0,0,1,2.48-.91c.49-.07,1.49-4.73,1.52-4.83.36-1.28.72-2.57,1.06-3.85a3.22,3.22,0,0,0,.18-1.05c-2.71-16-5.52-32-8.09-48q-1.26-8-2.51-16-1.51-15.19-2.41-30.43a3.25,3.25,0,0,0-.7.83c-.78,1.11-1.55,2.23-2.3,3.35s-1.52,2.24-2.26,3.38a3,3,0,0,0-.51.94" transform="translate(-65.35 -124.35)"/></g></g><g class="cls-6"><g class="cls-27"><path class="cls-8" d="M176,309.13c5.57,31.83,10.8,63.72,16.19,95.58.58-2.25,1.15-4.51,1.72-6.76a23,23,0,0,0-3.15,5.26c-.47.92-1.54,2.52-1.55,3.54a5.89,5.89,0,0,0,2.08,3.89l2.88,2,3.75,1.64a46.75,46.75,0,0,0,12.09,2.54c4,.39,7.93.64,11.93.68,23.36.22,46.69-1,70.06-.73,12.3.15,24.57.7,36.86,1.26,8,.37,16.12.88,24.17.59a76.57,76.57,0,0,0,15.78-1.8,26.86,26.86,0,0,0,14.54-8.66l2.33-3.33a30.05,30.05,0,0,0,.79-3.6c.41-2.33.77-4.66,1.12-7,.88-5.84,1.43-11.71,2.07-17.57,1.2-10.9,2.56-21.79,3.72-32.69.55-5.18.69-10.41,1.46-15.56,1.56-10.35,4.7-20.4,8.18-30.29.16-.44-.94.69-.79.54-.51.51-1.59,1.31-1.82,2a211.81,211.81,0,0,0-6.26,22.69q-.85,3.93-1.59,7.87c-.23,2.66-.39,5.31-.47,8-.12,3.06-.67,6.06-1.05,9.1q-.65,5.18-1.24,10.37c-1,8.26-1.73,16.54-2.61,24.81-.4,3.69-1,7.33-1.68,11a73,73,0,0,1-2.84,10.32q-10.53,11-24.67,11.3-7.41.69-14.85.82-4.38-.14-8.76-.35c-8.19-.38-16.37-.85-24.56-1.18-17.55-.69-35.08-.69-52.63-.23-7.6.2-15.26.67-22.86.43q-6.65-.54-13.32-.45l-12.21-1.23c-6.81-1.38-16.95-6.31-16-14.27l-3.11,5.91a2.8,2.8,0,0,1,2.5-.83c.37,0,1-3.28,1-3.35.23-.9.89-2.43.72-3.41-2.71-16-5.46-32-8.11-48l-2.61-16q-2-15.3-3.24-30.67a1.45,1.45,0,0,0-.51.56c-.54.76-1.07,1.53-1.58,2.31-.28.42-2,2.34-1.86,3" transform="translate(-65.35 -124.35)"/></g></g><g class="cls-6"><g class="cls-28"><path class="cls-8" d="M177.82,307.79q8,47.94,16,95.86,1.92-5.72,3.83-11.44-3.3,6.66-6.74,13.26a2,2,0,0,0,.18,1.92,11,11,0,0,0,4.83,3.89,33.48,33.48,0,0,0,8.12,2.54c7.22,1.52,14.71,1.78,22.09,1.87,9.43.12,18.85,0,28.27-.14,22.87-.43,45.67-.29,68.51.74,8.63.38,17.26.93,25.9,1,6.35,0,12.91-.06,19.13-1.39,5-1.07,9.82-3,13.52-6.45a25.67,25.67,0,0,0,4.71-6.11,39.88,39.88,0,0,0,.73-4.72c.62-4.82,1.45-9.59,2.16-14.39.83-5.53,1.44-11.1,2.13-16.64.67-5.36,1.36-10.72,2-16.08.49-4.06,1.08-8.15,1.32-12.23a123.24,123.24,0,0,1,2.14-16.77,182.28,182.28,0,0,1,7.25-25.13,5.26,5.26,0,0,0-1,.9l-3.62,3.62q-1.8,1.83-3.58,3.67a4.76,4.76,0,0,0-.87,1c-2.39,8.63-4.49,17.31-6,26.11a65.59,65.59,0,0,0-1.22,10.54,11.24,11.24,0,0,1-.76,6.29q-.45,2.53-.93,5.07-.5,3.27-1,6.54c-.77,5.24-1.4,10.5-2.08,15.74q-.51,4.13-1.08,8.23-.78,3.73-1.65,7.47a53.66,53.66,0,0,1-3.48,8.2,13.26,13.26,0,0,1-5.11,5.58,30.72,30.72,0,0,1-11.23,3.56c-5.61.86-11.41,1-17.07,1.36-8,.46-15.92-.37-23.88-.85-7.68-.46-15.36-.9-23.06-1.15-12-.4-24.08-.22-36.13,0-10,.2-20.11.72-30.12-.35a98.1,98.1,0,0,0-12.11-1.17,25.73,25.73,0,0,1-10-1.87,14.61,14.61,0,0,1-6.06-3,30.14,30.14,0,0,0-3.27-3,4.79,4.79,0,0,1-1.16-3.39,5.17,5.17,0,0,1-.23-2.64l-5.85,10.68a3,3,0,0,1,2.52-.91,4,4,0,0,0,.52-1.2c.55-1.53,1.09-3.08,1.61-4.62s1-3.1,1.55-4.65a4.31,4.31,0,0,0,.31-1.26c-2.7-16-5.57-32-8.1-48q-1.2-8-2.42-15.94-1.12-15.18-2-30.36a4.7,4.7,0,0,0-.87,1c-1,1.33-2,2.67-3,4s-2,2.69-2.92,4.05a4.73,4.73,0,0,0-.7,1.13" transform="translate(-65.35 -124.35)"/></g></g><g class="cls-6"><g class="cls-29"><path class="cls-8" d="M176.93,310.19c5.61,31.83,10.82,63.73,16.21,95.6.69-2.25,1.37-4.5,2.06-6.75a24.72,24.72,0,0,0-3,4.63c-.48.82-1,1.64-1.41,2.5-.81,1.75-.7,2.77.59,4.41,1.81,2.31,4.7,3.77,7.56,4.73a56.16,56.16,0,0,0,9.34,2.22c8,1.19,16.31,1,24.41.88,23.18-.21,46.31-1.14,69.49-.53,11.42.3,22.82.91,34.24,1.37,6.69.27,13.36.49,20.06.18,5.76-.26,11.55-.83,16.94-2.85A25.44,25.44,0,0,0,380,413a17.09,17.09,0,0,0,4.16-3.93l2.3-3.29a26.55,26.55,0,0,0,1-5.06c.44-2.51.89-5,1.25-7.54.85-5.83,1.49-11.7,2.16-17.55,1.22-10.69,2.63-21.37,3.7-32.07.47-4.71.67-9.44,1.32-14.13a123.7,123.7,0,0,1,3-13.92c1.43-5.54,3.25-10.92,5.16-16.34.15-.42-.87.7-.72.53a7.21,7.21,0,0,0-1.6,1.94q-2.37,6.64-4.15,13.46-1.47,6-2.67,12a32.71,32.71,0,0,0-1.17,7.71q-.33,3.86-.43,7.71c-1.07,7-1.85,14-2.7,21-.5,4.18-1,8.37-1.41,12.56a116.5,116.5,0,0,1-2.39,16.09c-.92,3.72-1.84,7.45-3.08,11.09q-2.43,9.14-14.37,11.65a30.33,30.33,0,0,1-5.42,1.12c-13.09,1.89-26.33,1.23-39.49.56-16.87-.86-33.7-1.43-50.6-1.24-8.32.09-16.64.39-25,.57q-13.86-.27-27.72-.37a42.1,42.1,0,0,1-11.89-1.24,18.79,18.79,0,0,1-9.82-4.19q-1.71-1.29-3.39-2.63a8,8,0,0,1-2.08-6.61q-1.68,2.85-3.34,5.7a2.71,2.71,0,0,1,2.51-.79c.39,0,1.14-3.26,1.16-3.34.26-.84,1.06-2.46.9-3.41-2.71-16-5.48-32-8.11-48l-2.59-16q-1.87-15.18-3.08-30.41a1.55,1.55,0,0,0-.56.52c-.61.73-1.21,1.46-1.79,2.2-.26.32-2.24,2.26-2.14,2.87" transform="translate(-65.35 -124.35)"/></g></g><g class="cls-6"><g class="cls-30"><path class="cls-8" d="M285.3,247.14a8.56,8.56,0,0,0-4.23,1.18,13.38,13.38,0,0,0-4.22,2.71,38.36,38.36,0,0,0-7,8.52l-1.72,3a100.72,100.72,0,0,0-8.7,14.12l-3.61,7.36A134.63,134.63,0,0,0,250,299.17a5,5,0,0,0,1.24-.59q2.26-1.26,4.5-2.55c1.5-.85,3-1.72,4.47-2.59a5.24,5.24,0,0,0,1.13-.77,168.55,168.55,0,0,1,8.46-17,61.56,61.56,0,0,1,4.1-6.53,26.49,26.49,0,0,1,7.29-8.2l-.33.11a5.59,5.59,0,0,0,3.64-1.83,9.13,9.13,0,0,1,2.71-1.38,26,26,0,0,0,2.76-1.17,7.4,7.4,0,0,1,4.12-.1,5,5,0,0,0-.84-1.06q-1.7-1.87-3.44-3.73t-3.48-3.69a4.86,4.86,0,0,0-1-.92" transform="translate(-65.35 -124.35)"/></g></g><g class="cls-6"><g class="cls-31"><path class="cls-8" d="M285.7,245.69a8.27,8.27,0,0,0-4.21,1.19,12.81,12.81,0,0,0-4.16,2.74,39.29,39.29,0,0,0-6.9,8.46L268.67,261a86.81,86.81,0,0,0-8.8,14.14l-3.6,7.35a136.58,136.58,0,0,0-5.82,15.09,3.89,3.89,0,0,0,1-.56q1.84-1.17,3.67-2.37l3.62-2.42a3.81,3.81,0,0,0,.91-.72,171.28,171.28,0,0,1,8.61-17.46,68.79,68.79,0,0,1,4.17-6.75,27.91,27.91,0,0,1,7.63-8.71l-.28.12a9.05,9.05,0,0,0,4.26-2.07,12.33,12.33,0,0,1,3.18-1.44c1.05-.35,2.09-.73,3.11-1.14a8.53,8.53,0,0,1,4.4,0,4.35,4.35,0,0,0-.87-.95c-1.18-1.12-2.36-2.22-3.56-3.32s-2.38-2.19-3.59-3.28a4.51,4.51,0,0,0-1-.8" transform="translate(-65.35 -124.35)"/></g></g><g class="cls-6"><g class="cls-32"><path class="cls-8" d="M286.33,247a8.39,8.39,0,0,0-4.23,1.16,13.21,13.21,0,0,0-4.2,2.68,38.27,38.27,0,0,0-7,8.44c-.59,1-1.17,2-1.75,3a92,92,0,0,0-8.76,14.1A181.87,181.87,0,0,0,251,298.78a4.87,4.87,0,0,0,1.24-.59l4.47-2.52,4.43-2.57a5.24,5.24,0,0,0,1.13-.77,167.79,167.79,0,0,1,8.47-17.11,61.62,61.62,0,0,1,4.1-6.58,26.61,26.61,0,0,1,7.39-8.28l-.33.11a6.49,6.49,0,0,0,3.85-1.83,10.07,10.07,0,0,1,2.88-1.33c1-.33,1.94-.69,2.89-1.09a8.13,8.13,0,0,1,4.24,0,5,5,0,0,0-.9-1c-1.23-1.23-2.46-2.45-3.71-3.66s-2.49-2.43-3.75-3.63a4.82,4.82,0,0,0-1.06-.9" transform="translate(-65.35 -124.35)"/></g></g><g class="cls-6"><g class="cls-33"><path class="cls-8" d="M286.05,246.87a7.85,7.85,0,0,0-3.91,1.39,12.5,12.5,0,0,0-3.86,2.89,46,46,0,0,0-7.52,8.63,163.65,163.65,0,0,0-10.43,17.59l-3.57,7.42A139.46,139.46,0,0,0,251,300c0-.05,1.55-.88,1.59-.91.35-.24,1.27-.68,1.43-1.12a159.78,159.78,0,0,1,9.28-22l8.8-15.29c1-1,1.94-2,2.85-3.07a34.45,34.45,0,0,1,6.41-5.81l2.25-1.42a9.86,9.86,0,0,1,4.84-1.16,15.09,15.09,0,0,0-1.12-1.28c-.11-.12-1-1.19-1.31-1.11" transform="translate(-65.35 -124.35)"/></g></g><g class="cls-6"><g class="cls-34"><path class="cls-8" d="M286.67,247.37a8.26,8.26,0,0,0-4.12,1.21,13,13,0,0,0-4.07,2.71,40.27,40.27,0,0,0-7,8.32c-3.66,5.66-7.53,11.1-10.6,17.09-1.2,2.45-2.41,4.91-3.61,7.37a136,136,0,0,0-5.84,15.12,3.6,3.6,0,0,0,1-.46c1.22-.68,2.44-1.36,3.65-2.05s2.42-1.39,3.62-2.1a3.31,3.31,0,0,0,.91-.64,178,178,0,0,1,8.19-17.49c1.22-2.34,2.54-4.64,4-6.87a31.53,31.53,0,0,1,7.25-9.15l-.26.11a8.16,8.16,0,0,0,4-2.38,12.15,12.15,0,0,1,3.09-1.77l3-1.37a8.21,8.21,0,0,1,4.34-.25,3.19,3.19,0,0,0-.71-.85c-1-1-2-2-3-2.94s-2-1.94-3-2.9a3.31,3.31,0,0,0-.87-.71" transform="translate(-65.35 -124.35)"/></g></g><g class="cls-6"><g class="cls-35"><path class="cls-8" d="M286.08,244.88a7.75,7.75,0,0,0-4.06,1.23,12.31,12.31,0,0,0-4,2.76,40.15,40.15,0,0,0-7.43,8.32A193.46,193.46,0,0,0,260,274.45l-3.61,7.39A136.71,136.71,0,0,0,250.56,297a1.14,1.14,0,0,0,.55-.3c.62-.47,1.23-.94,1.83-1.42s1.93-1.22,2.21-1.92a99.82,99.82,0,0,1,4.71-11.1,111.46,111.46,0,0,1,5.62-10.85q2.11-3.63,4.22-7.26a33.78,33.78,0,0,1,8.95-9.2,33,33,0,0,1,6.64-3.75l2.19-.93a9.56,9.56,0,0,1,4.72-.31,1.94,1.94,0,0,0-.57-.61c-.79-.68-1.59-1.36-2.4-2-.23-.19-2.57-2.56-3.15-2.44" transform="translate(-65.35 -124.35)"/></g></g><g class="cls-6"><g class="cls-36"><path class="cls-8" d="M284.85,247.69a8.23,8.23,0,0,0-4.12,1.18,12.9,12.9,0,0,0-4.11,2.71,38.1,38.1,0,0,0-7.05,8.39c-3.6,5.68-7.48,11.13-10.54,17.12l-3.6,7.37a138.67,138.67,0,0,0-5.83,15.12,3.27,3.27,0,0,0,1-.49c1.17-.71,2.34-1.42,3.49-2.15s2.32-1.45,3.47-2.19a3.33,3.33,0,0,0,.86-.66,174,174,0,0,1,8.24-17.42c1.22-2.32,2.54-4.59,4-6.81a32.78,32.78,0,0,1,7.25-9.14l-.25.11a6.43,6.43,0,0,0,3.74-2.28,11.15,11.15,0,0,1,2.89-1.78c1-.44,1.89-.93,2.8-1.46a6.7,6.7,0,0,1,4-.37,2.53,2.53,0,0,0-.57-.82c-.8-1-1.61-1.93-2.44-2.89-.11-.13-2.71-3.64-3.23-3.54" transform="translate(-65.35 -124.35)"/></g></g><g class="cls-6"><g class="cls-37"><path class="cls-8" d="M287.14,246.71a8,8,0,0,0-4.11,1.16,12.06,12.06,0,0,0-4,2.68,40.92,40.92,0,0,0-7.28,8.29,178.48,178.48,0,0,0-10.56,17.25c-1.2,2.46-2.4,4.93-3.61,7.39a136.74,136.74,0,0,0-5.84,15.17,1.62,1.62,0,0,0,.68-.34c.8-.5,1.59-1,2.37-1.55.55-.37,2.6-1.36,2.89-2.09a179.88,179.88,0,0,1,9.95-21.59l4.11-7.23a40.15,40.15,0,0,1,8.38-8.93,24.82,24.82,0,0,1,6.08-3.78l2.18-.86a9.67,9.67,0,0,1,4.75-.19,1.83,1.83,0,0,0-.55-.63c-.77-.73-1.55-1.45-2.34-2.15-.21-.19-2.52-2.7-3.08-2.6" transform="translate(-65.35 -124.35)"/></g></g><g class="cls-6"><g class="cls-38"><path class="cls-8" d="M284.22,245.08a7.94,7.94,0,0,0-4.1,1.22,12.58,12.58,0,0,0-4.08,2.78,40.4,40.4,0,0,0-7.37,8.43,191.58,191.58,0,0,0-10.56,17.35c-1.21,2.46-2.41,4.92-3.62,7.39a141.78,141.78,0,0,0-5.84,15.18.9.9,0,0,0,.49-.28c.53-.42,1.06-.85,1.57-1.29s1.62-1.12,1.88-1.77A104,104,0,0,1,257.27,283a109.1,109.1,0,0,1,5.58-10.86l4.17-7.26a39.37,39.37,0,0,1,8.71-9.5,34.44,34.44,0,0,1,6.4-4.08l2.13-1.07a8.5,8.5,0,0,1,4.6-.52,1.35,1.35,0,0,0-.41-.55c-.59-.62-1.2-1.23-1.81-1.83-.15-.15-1.95-2.3-2.42-2.21" transform="translate(-65.35 -124.35)"/></g></g><g class="cls-6"><g class="cls-39"><path class="cls-8" d="M284.44,246.79a8.14,8.14,0,0,0-4.15,1.18,12.52,12.52,0,0,0-4.14,2.72,37.84,37.84,0,0,0-7,8.4c-3.59,5.69-7.48,11.12-10.55,17.11l-3.6,7.35a136.66,136.66,0,0,0-5.83,15.12,3.6,3.6,0,0,0,1-.54c1.16-.76,2.32-1.53,3.46-2.31s2.3-1.55,3.43-2.35a3.26,3.26,0,0,0,.86-.7,169.37,169.37,0,0,1,8.47-17.41,76,76,0,0,1,4.09-6.74,30.42,30.42,0,0,1,7.48-8.9l-.26.11a6.73,6.73,0,0,0,3.88-2.1,11.07,11.07,0,0,1,3-1.59,22.26,22.26,0,0,0,2.84-1.33,6.83,6.83,0,0,1,4.05-.25,3.2,3.2,0,0,0-.64-.88c-.9-1-1.8-2.07-2.71-3.09s-1.83-2-2.76-3.05a3.4,3.4,0,0,0-.81-.75" transform="translate(-65.35 -124.35)"/></g></g><g class="cls-6"><g class="cls-40"><path class="cls-8" d="M285.36,244.63a7.91,7.91,0,0,0-4.09,1.22,12.52,12.52,0,0,0-4,2.76,41.12,41.12,0,0,0-7.46,8.37,186.46,186.46,0,0,0-10.57,17.33c-1.21,2.46-2.42,4.93-3.62,7.39a137.79,137.79,0,0,0-5.86,15.18.84.84,0,0,0,.46-.25c.5-.4,1-.8,1.49-1.22s1.52-1,1.76-1.66a105.32,105.32,0,0,1,4.71-11.2,110.63,110.63,0,0,1,5.63-10.93,36.25,36.25,0,0,1,8-11.61,11.52,11.52,0,0,1,3.92-4.41,36.14,36.14,0,0,1,8-5l2.22-1a9.42,9.42,0,0,1,4.77-.39,1.52,1.52,0,0,0-.48-.56c-.69-.62-1.39-1.24-2.1-1.84-.2-.18-2.23-2.31-2.76-2.21" transform="translate(-65.35 -124.35)"/></g></g><g class="cls-6"><g class="cls-41"><path class="cls-8" d="M284.78,247.54a7.86,7.86,0,0,0-3.86,1.45,12.7,12.7,0,0,0-3.81,3,44.2,44.2,0,0,0-7.32,8.4,181.22,181.22,0,0,0-10.5,17.39l-3.57,7.39a139,139,0,0,0-5.78,15.16,1.42,1.42,0,0,0,.65-.29c.76-.46,1.5-.93,2.24-1.41.51-.32,2.48-1.24,2.74-1.91a194,194,0,0,1,9.52-21.51l3.88-7.25a66.18,66.18,0,0,1,7.75-9.4,32.81,32.81,0,0,1,5.55-4.43c.65-.43,1.29-.87,1.93-1.31a7.64,7.64,0,0,1,4.28-1s-1.76-2.24-1.75-2.22-1.6-2.15-2-2.05" transform="translate(-65.35 -124.35)"/></g></g><g class="cls-6"><g class="cls-42"><path class="cls-8" d="M286.71,245.19a8,8,0,0,0-4.09,1.2,12.29,12.29,0,0,0-4,2.71,41.41,41.41,0,0,0-7.42,8.3,175.84,175.84,0,0,0-10.6,17.31c-1.2,2.47-2.41,4.93-3.62,7.4a139.82,139.82,0,0,0-5.86,15.18,1.08,1.08,0,0,0,.53-.27c.58-.42,1.16-.86,1.72-1.3s1.82-1.11,2.08-1.76a98.92,98.92,0,0,1,4.65-11.12A109.08,109.08,0,0,1,265.64,272l4.18-7.31a33.46,33.46,0,0,1,8.87-9.53,31.42,31.42,0,0,1,6.72-4l2.28-.9a10.08,10.08,0,0,1,4.88-.27,1.63,1.63,0,0,0-.54-.57c-.76-.65-1.52-1.29-2.3-1.92-.24-.19-2.45-2.41-3-2.3" transform="translate(-65.35 -124.35)"/></g></g><g class="cls-6"><g class="cls-43"><path class="cls-8" d="M285,247.37a10.67,10.67,0,0,0-5.35,2,39.07,39.07,0,0,0-5.3,4.8,54.42,54.42,0,0,0-4.67,6.07,177.35,177.35,0,0,0-10.37,17.59,169.33,169.33,0,0,0-9.26,22.61c-.12.37.84-.35.77-.3.42-.28,1.68-.89,1.85-1.38a172.49,172.49,0,0,1,9.12-21.95l3.9-7.16a40,40,0,0,1,5.58-9q1-1.2,1.89-2.4a18.57,18.57,0,0,1,4.79-4.64,9.25,9.25,0,0,1,4.89-3.74,7.47,7.47,0,0,1,3.71-.8c-.18,0-1-1.87-1.55-1.74" transform="translate(-65.35 -124.35)"/></g></g><g class="cls-6"><g class="cls-44"><path class="cls-8" d="M284.05,245.92a8,8,0,0,0-4.15,1.17,12.79,12.79,0,0,0-4.13,2.74,39.93,39.93,0,0,0-7.12,8.42c-3.71,5.67-7.54,11.22-10.62,17.23l-3.6,7.38A138.2,138.2,0,0,0,248.6,298a1.68,1.68,0,0,0,.66-.38c.76-.56,1.52-1.14,2.26-1.72s2.41-1.48,2.75-2.29a176.1,176.1,0,0,1,10.27-21.54l4.2-7.09a59.56,59.56,0,0,1,8.51-8.44,28.85,28.85,0,0,1,5.67-3.53l2-1a7.6,7.6,0,0,1,4.35-.43,1.78,1.78,0,0,0-.47-.66c-.66-.76-1.34-1.5-2-2.25-.13-.14-2.21-2.82-2.7-2.73" transform="translate(-65.35 -124.35)"/></g></g><g class="cls-6"><g class="cls-45"><path class="cls-8" d="M286.84,245.5a10.9,10.9,0,0,0-5.39,2l-2.62,2.07a42.82,42.82,0,0,0-6.55,7.12,126.58,126.58,0,0,0-9.74,15.53,104,104,0,0,0-5.63,11.09,139,139,0,0,0-5.8,15.28c-.1.3.58-.18.51-.15.29-.15,1-.58,1.11-.89a166.31,166.31,0,0,1,7.72-18.79,75.13,75.13,0,0,1,3.9-7.29q3.31-5.94,7.09-11.65c1.41-1.71,2.9-3.38,4.47-5a17.58,17.58,0,0,1,9.66-6.56,8.73,8.73,0,0,1,4-.56s-1.27-1.23-1.26-1.22c-.17-.14-1.09-1.11-1.44-1" transform="translate(-65.35 -124.35)"/></g></g><g class="cls-6"><g class="cls-46"><path class="cls-8" d="M286.7,246.16a8.24,8.24,0,0,0-4.21,1.16,12.63,12.63,0,0,0-4.13,2.68,40,40,0,0,0-6.94,8.34l-1.8,2.88a86.62,86.62,0,0,0-8.84,14.17c-1.21,2.45-2.41,4.91-3.61,7.36a136.41,136.41,0,0,0-5.84,15.1,3.28,3.28,0,0,0,1-.49q1.74-1.07,3.45-2.16c1.15-.72,2.28-1.45,3.42-2.2a3,3,0,0,0,.85-.66,175.18,175.18,0,0,1,8.45-17.59q1.88-3.53,4.1-6.87a30.67,30.67,0,0,1,7.52-9.09l-.25.13a10.37,10.37,0,0,0,4.33-2.3,13.22,13.22,0,0,1,3.31-1.62q1.59-.62,3.21-1.2a9.14,9.14,0,0,1,4.53-.05,4,4,0,0,0-.82-.87c-1.11-1-2.22-2-3.35-3s-2.25-2-3.39-3a3.77,3.77,0,0,0-1-.72" transform="translate(-65.35 -124.35)"/></g></g><g class="cls-6"><g class="cls-47"><path class="cls-8" d="M286,247.77a8.41,8.41,0,0,0-4.23,1.12,12.93,12.93,0,0,0-4.22,2.63,37.4,37.4,0,0,0-7,8.41l-1.75,3A91,91,0,0,0,259.93,277l-3.61,7.37a138.17,138.17,0,0,0-5.85,15.13,4.36,4.36,0,0,0,1.16-.53c1.4-.75,2.79-1.52,4.17-2.29s2.77-1.55,4.14-2.35a4.18,4.18,0,0,0,1.05-.7,167.42,167.42,0,0,1,10.17-20.59,28.9,28.9,0,0,1,6.78-9.28,6.15,6.15,0,0,1,4.35-3.31l1.59-1.34a13.64,13.64,0,0,1,3.82-2l1.85-.84a7.72,7.72,0,0,1,4.21-.17,3.88,3.88,0,0,0-.74-.94q-1.51-1.66-3.06-3.31c-1-1.1-2.06-2.19-3.11-3.27a3.85,3.85,0,0,0-.9-.81" transform="translate(-65.35 -124.35)"/></g></g><g class="cls-6"><g class="cls-48"><path class="cls-8" d="M285,246.33a8.14,8.14,0,0,0-4.21,1.12,12.8,12.8,0,0,0-4.19,2.67,37.87,37.87,0,0,0-7,8.38C266,264.18,262,269.59,259,275.57q-1.8,3.68-3.61,7.35a138.35,138.35,0,0,0-5.83,15.1,3.47,3.47,0,0,0,1-.56c1.19-.8,2.36-1.6,3.53-2.42s2.34-1.63,3.5-2.46a3.37,3.37,0,0,0,.86-.73A167.62,167.62,0,0,1,267,274.43a70.64,70.64,0,0,1,4.17-6.71,29.41,29.41,0,0,1,7.63-8.78l-.28.12a7.59,7.59,0,0,0,4.07-2,11.93,11.93,0,0,1,3.06-1.45,30.94,30.94,0,0,0,2.94-1.16,7.56,7.56,0,0,1,4.19,0,3.84,3.84,0,0,0-.74-.92c-1-1.08-2-2.15-3.08-3.22s-2.07-2.13-3.11-3.18a3.59,3.59,0,0,0-.91-.78" transform="translate(-65.35 -124.35)"/></g></g><g class="cls-6"><g class="cls-49"><path class="cls-8" d="M283.72,246.94a8,8,0,0,0-4.1,1.21,12.77,12.77,0,0,0-4.1,2.76,40.24,40.24,0,0,0-7.13,8.47,194.9,194.9,0,0,0-10.54,17.28q-1.8,3.69-3.59,7.38a139,139,0,0,0-5.81,15.15,1.66,1.66,0,0,0,.68-.36c.78-.53,1.55-1.07,2.31-1.63.59-.42,2.51-1.41,2.82-2.19a184.09,184.09,0,0,1,10-21.43l4-7.12a93.29,93.29,0,0,1,8.07-8.69,26.8,26.8,0,0,1,5.38-3.94l1.94-1.12a7.42,7.42,0,0,1,4.31-.6c-.1,0-2-2.65-2-2.66s-1.82-2.59-2.24-2.51" transform="translate(-65.35 -124.35)"/></g></g><g class="cls-6"><g class="cls-50"><path class="cls-8" d="M285.51,246.31a8.41,8.41,0,0,0-4.23,1.19,12.8,12.8,0,0,0-4.2,2.73,37,37,0,0,0-7,8.51c-.57,1-1.14,2-1.72,3a96.34,96.34,0,0,0-8.71,14.09l-3.6,7.35a137.11,137.11,0,0,0-5.83,15.1,4.83,4.83,0,0,0,1.22-.62q2.2-1.31,4.38-2.64t4.35-2.69a4.8,4.8,0,0,0,1.1-.79,164.75,164.75,0,0,1,8.63-17.09,58.38,58.38,0,0,1,4.18-6.54,26.16,26.16,0,0,1,7.5-8.17l-.33.12a6.82,6.82,0,0,0,3.91-1.77,10.32,10.32,0,0,1,2.88-1.27,24.65,24.65,0,0,0,2.87-1,7.94,7.94,0,0,1,4.19,0,5.49,5.49,0,0,0-.93-1.06c-1.24-1.27-2.5-2.52-3.77-3.77s-2.53-2.49-3.81-3.72a5.31,5.31,0,0,0-1.08-.93" transform="translate(-65.35 -124.35)"/></g></g><g class="cls-6"><g class="cls-51"><path class="cls-8" d="M284.08,247.45a7.87,7.87,0,0,0-3.88,1.45,12.7,12.7,0,0,0-3.84,3,43.94,43.94,0,0,0-7.35,8.44,184.62,184.62,0,0,0-10.46,17.42L255,285.12a138.85,138.85,0,0,0-5.76,15.16,1.27,1.27,0,0,0,.61-.28c.69-.43,1.37-.88,2.05-1.33.49-.33,2.25-1.17,2.49-1.82a193.66,193.66,0,0,1,9.5-21.55l3.87-7.26a68.34,68.34,0,0,1,7.68-9.65,35.72,35.72,0,0,1,5.57-4.64l1.94-1.39a7.68,7.68,0,0,1,4.28-1.1s-1.48-2-1.45-2-1.34-1.91-1.67-1.83" transform="translate(-65.35 -124.35)"/></g></g><path class="cls-4" d="M328.89,297l-11.36.36Q304.45,272.18,291.36,247l5.69-2.58Q313,270.71,328.89,297Z" transform="translate(-65.35 -124.35)"/><path class="cls-4" d="M250.57,297l11.36.36Q275,272.18,288.1,247l-5.69-2.58Z" transform="translate(-65.35 -124.35)"/><g class="cls-6"><g class="cls-52"><path class="cls-8" d="M298.43,254.84l2.24.44-.29-.17,1.76,1.19-8.76-8.17,11.1,11.92-7.23-9.2,8.61,13.8-5.09-9.42c4,8.21,8.24,16.29,12.07,24.56l-.14-.3,2.76,6.86c0-.1-.08-.21-.11-.31.8,2.33,1.59,4.66,2.39,7l-.09-.32,2,7.11a4.64,4.64,0,0,0,.06-1.29c0-1.63-.07-3.26-.13-4.89s-.11-3.26-.19-4.88a4.1,4.1,0,0,0-.15-1.3c-4.12-10.05-8.75-19.81-15.26-28.75a19.19,19.19,0,0,0-7.06-6.94c-1.73-1.44-3.49-2.86-5.27-4.24-1.15-.84-.82-.49-3.12-.75a4.71,4.71,0,0,0,1,.92c1.29,1.08,2.58,2.15,3.89,3.2s2.61,2.12,3.93,3.17a4.9,4.9,0,0,0,1.1.76" transform="translate(-65.35 -124.35)"/></g></g><g class="cls-6"><g class="cls-53"><path class="cls-8" d="M299,253.5l2.16.38-.24-.16,1.92,1.28-7-7.41,9,10.89q-2.43-3.6-4.87-7.18L305.2,260l-4.06-7.49q2.83,6.3,5.66,12.61a102.84,102.84,0,0,1,4.8,9.56,176.87,176.87,0,0,1,6.5,16.67c0-.09-.05-.17-.08-.25l2,7a2.69,2.69,0,0,0,.1-1c0-1.27,0-2.54,0-3.82s.32-3.49-.19-4.83c-4.56-12.16-9.82-24.61-18.16-35a50.24,50.24,0,0,0-3.85-4.65c-1.87-1.81-4.17-2.37-6.71-2.73a3.29,3.29,0,0,0,.74.84c1,1,2,2,3.06,2.93s2.05,1.94,3.1,2.9a3.58,3.58,0,0,0,.89.7" transform="translate(-65.35 -124.35)"/></g></g><g class="cls-6"><g class="cls-54"><path class="cls-8" d="M299.38,254.61l2.23.43-.31-.21,2,1.39-9.5-9.39,11.5,12.9-7.52-10.09,7.69,11.47-5.95-9.72q5.44,10.94,11.23,21.7c-.06-.1-.11-.21-.16-.31l3.1,6.72a3.05,3.05,0,0,0-.13-.32,104.92,104.92,0,0,1,3.9,10.2,97.45,97.45,0,0,1,3.05,10.13,4.62,4.62,0,0,0,.11-1.34c0-1.68,0-3.36,0-5s0-3.36,0-5a4.61,4.61,0,0,0-.1-1.34,129.44,129.44,0,0,0-5.93-13.37,118.22,118.22,0,0,0-7.43-12.65c-2.19-2.73-4.62-5.33-7-8A58.28,58.28,0,0,0,296,248c-2-1.78-4.36-2.32-7-2.66a6.2,6.2,0,0,0,1,1l4.09,3.67c1.36,1.22,2.74,2.43,4.12,3.63a6,6,0,0,0,1.16.89" transform="translate(-65.35 -124.35)"/></g></g><g class="cls-6"><g class="cls-55"><path class="cls-8" d="M300.71,256l3.64,1.43-4.44-4.3a49.74,49.74,0,0,1,8.56,14.71q2.58,4.72,4.72,9.63a160.38,160.38,0,0,1,8.24,23.26c.17.6.27-1.7.25-1.38.05-.88.09-1.77.11-2.66a8,8,0,0,0,0-1.38,128.74,128.74,0,0,0-4.92-13.62q-2.85-6.63-6.18-13.06c-3.78-7.34-3.91-9.05-8-13.11a28.62,28.62,0,0,0-3-2.89c-1.47-1.06-2.64-1.1-4.39-1.37a1.44,1.44,0,0,0,.5.57c.7.64,1.41,1.28,2.13,1.9.54.47,2,2.12,2.83,2.27" transform="translate(-65.35 -124.35)"/></g></g><g class="cls-6"><g class="cls-56"><path class="cls-8" d="M299.86,255.12l2.25.44-.29-.18,2,1.38-8.52-8.47,10.56,12-6.64-9.11,6.87,10.58L301,253q7.07,13.29,13.24,27l-.12-.28c.92,2.27,1.83,4.55,2.74,6.82l-.09-.28A133.17,133.17,0,0,1,321,300a3.54,3.54,0,0,0,.13-1.17c.06-1.47.1-2.93.13-4.4s.06-2.94.07-4.41a3.56,3.56,0,0,0-.08-1.17c-3.55-9-7.37-18.09-12.93-26.22a85.55,85.55,0,0,0-6.11-7.72,63.63,63.63,0,0,0-4.77-5.36c-2-1.81-4.34-2.35-7-2.69a4.82,4.82,0,0,0,.91.95q1.83,1.65,3.69,3.29t3.72,3.25a4.8,4.8,0,0,0,1.06.79" transform="translate(-65.35 -124.35)"/></g></g><g class="cls-6"><g class="cls-57"><path class="cls-8" d="M300.29,253.55l3.43,1.24q-1.44-1.6-2.87-3.22a48.58,48.58,0,0,1,6.94,13.57q2.43,4.8,4.58,9.71a162.68,162.68,0,0,1,8.16,23.21c.15.53.22-1.42.21-1.12a10.67,10.67,0,0,0,0-3.29c-1.43-4.53-2.88-9-4.67-13.47s-3.84-8.71-5.88-13c-1.07-2.26-2.15-4.51-3.23-6.77l-2-4.17c-.35-.59-.75-1.14-1.16-1.7a19.2,19.2,0,0,0-2.92-3.45A5.76,5.76,0,0,0,299,249.8c-1.53-.8-.84-.51-3.2-1a1.24,1.24,0,0,0,.39.56c.58.63,1.16,1.26,1.76,1.88.36.37,1.65,2.16,2.36,2.26" transform="translate(-65.35 -124.35)"/></g></g><g class="cls-6"><g class="cls-58"><path class="cls-8" d="M298.16,255.54l2.19.4-.25-.11,1.71,1.16-6.52-5.58,7.25,6.74-6-6,8.92,13.11-4.09-7.39q2.92,6.42,6.29,12.64a100.25,100.25,0,0,1,4.62,9.57,175.16,175.16,0,0,1,6.88,20c.09.32,0,.25.12,0v-.79c0-.92-.08-1.85-.13-2.78-.07-1.42-.15-2.85-.24-4.28a6.77,6.77,0,0,0-.22-1.84A174.32,174.32,0,0,0,310.08,271a118.18,118.18,0,0,0-7.54-12.33c.91,2.12,1.81,4.24,2.72,6.37-1.65-4.09-1.39-6.36-3.92-8.7-1.23-1.14-2.53-2.22-3.8-3.32a30.93,30.93,0,0,0-2.72-2.25c-1.45-.95-2.88-1-4.55-1.16a3,3,0,0,0,.76.7c1,.79,2.05,1.58,3.1,2.35s2.08,1.56,3.14,2.32a2.8,2.8,0,0,0,.89.54" transform="translate(-65.35 -124.35)"/></g></g><g class="cls-6"><g class="cls-59"><path class="cls-8" d="M300.54,254.69l2.21.41-.23-.14,1.71,1.16-4.64-5,8.85,15.32q2.64,4.69,4.79,9.61a159.05,159.05,0,0,1,8.36,23.45,2,2,0,0,0,.15-.84c.06-1,.11-2.11.15-3.16s.42-2.91,0-4a165.42,165.42,0,0,0-11.68-26.4,77.58,77.58,0,0,0-6.64-10.08A35,35,0,0,0,300,250.7a14.22,14.22,0,0,0-1.92-1.42,11.57,11.57,0,0,0-4.56-1.4,2.74,2.74,0,0,0,.66.78c.91.92,1.83,1.82,2.76,2.72s1.86,1.79,2.8,2.67a3,3,0,0,0,.82.64" transform="translate(-65.35 -124.35)"/></g></g><g class="cls-6"><g class="cls-60"><path class="cls-8" d="M299,254.31l4.39,3.58a20.79,20.79,0,0,1,1.32,3.52c.5,1.58.93,3.2,1.5,4.76l2.91,6.33q1.43,3.18,2.87,6.34a152.27,152.27,0,0,1,6.68,20c.1.36.16-.83.16-.64a6.25,6.25,0,0,0-.16-1.83,161.17,161.17,0,0,0-8.38-22.5,87.19,87.19,0,0,1-5-12.39,27.47,27.47,0,0,0-1.13-3.27,9.66,9.66,0,0,0-2.35-3.41c-.23-.21-.48-.43-.73-.63-1.65-1.31-1.78-1.17-3.82-1.65-.38-.09.43.65.34.56.3.3,1,1.11,1.44,1.2" transform="translate(-65.35 -124.35)"/></g></g><g class="cls-6"><g class="cls-61"><path class="cls-8" d="M297.91,254.79l3.53,1.37L295.66,251l6.52,6.33L297,251.75l6.24,7.53-4.62-6,5.43,8.16-4-6.39q2.92,5.61,5.55,11.35a103.48,103.48,0,0,1,4.77,9.54,161.28,161.28,0,0,1,8.32,23.17c.09.3,0,.22.13,0v-.72q-.06-1.27-.15-2.55c-.09-1.31-.17-2.63-.28-3.94a6.45,6.45,0,0,0-.24-1.69A180.42,180.42,0,0,0,309.78,271q-3.86-7.44-8.12-14.69a2.29,2.29,0,0,0-.62-.7c-1.65-1.64-3.42-3.25-5.23-4.74-1.44-1.19-3.15-1.42-5-1.65a2.37,2.37,0,0,0,.67.67c.92.75,1.86,1.5,2.79,2.23s1.88,1.48,2.84,2.2a2.53,2.53,0,0,0,.81.51" transform="translate(-65.35 -124.35)"/></g></g><g class="cls-6"><g class="cls-62"><path class="cls-8" d="M299.87,253.57l3.45,1.36-2.26-2.39c4.84,5.7,20.6,52.69,18.71,45.8.11.39.2-.92.19-.71a6.48,6.48,0,0,0-.09-2.06A169.42,169.42,0,0,0,314.12,279c-2.44-5.83-5.4-11.52-7.59-17.43-.39-1.06-.61-2.21-1.1-3.23-.38-.79-.88-1.55-1.32-2.3a16.2,16.2,0,0,0-2.45-3.17c-1.35-1.41-2.84-1.81-4.73-2.24a20.53,20.53,0,0,1,1.37,1.57c.3.3,1,1.31,1.57,1.39" transform="translate(-65.35 -124.35)"/></g></g><g class="cls-6"><g class="cls-63"><path class="cls-8" d="M299.13,256.41l2.14.37-.7-.4,2.15,1.46-5.07-4.26,5.85,5.51-4.59-4.64,5.6,6.63-4-5,4.14,6.22-2.75-4.39q2.55,5.08,4.89,10.27a105,105,0,0,1,4.76,9.56,160.53,160.53,0,0,1,8.29,23.19c.21.73.14-2.21.15-1.8,0-1.15-.05-2.31-.09-3.46a15.36,15.36,0,0,0-.11-1.79,174.55,174.55,0,0,0-6.69-16.55,179.46,179.46,0,0,0-8.6-15.82q1.13,3,2.26,6.06c-1.05-3.19-1.42-7.13-3.95-9.8a33.91,33.91,0,0,0-2.7-2.39,23.42,23.42,0,0,0-2.79-2.29,9.46,9.46,0,0,0-4.32-1.18,1.67,1.67,0,0,0,.57.55c.8.62,1.6,1.22,2.41,1.81s2.16,2,3.15,2.16" transform="translate(-65.35 -124.35)"/></g></g><g class="cls-6"><g class="cls-64"><path class="cls-8" d="M300.46,253.44l3.7,1.47L302,252.47a47.79,47.79,0,0,1,6.34,12.88q2.48,4.78,4.63,9.71a162.58,162.58,0,0,1,8.18,23.23c.15.55.25-1.51.23-1.2a10.86,10.86,0,0,0,.06-3.55A132.16,132.16,0,0,0,316.7,280q-2.77-6.63-6-13.09c-2.38-4.92-3.69-8.37-6.48-12.31a31.23,31.23,0,0,0-2.29-3.09,8.28,8.28,0,0,0-2.06-1.71,9,9,0,0,0-4.43-1.65,1.6,1.6,0,0,0,.44.63c.64.71,1.29,1.42,1.95,2.12.41.44,1.81,2.43,2.6,2.57" transform="translate(-65.35 -124.35)"/></g></g><g class="cls-6"><g class="cls-65"><path class="cls-8" d="M299.74,256.66l2.16.37-.54-.28,2,1.37L299.72,255a51.21,51.21,0,0,1,7.8,13.43q2.52,4.76,4.67,9.67a161.23,161.23,0,0,1,8.23,23.2c.16.55.2-1.52.2-1.21a12,12,0,0,0-.07-3.54,172.26,172.26,0,0,0-7.75-20,130.71,130.71,0,0,0-7.58-14.75c.63,1.48,1.25,3,1.88,4.46-1-3.71-2-7-5.07-9.62a29.24,29.24,0,0,0-2.34-2c-1.67-1.17-2.44-1.14-4.41-1.44a.94.94,0,0,0,.4.44q.85.69,1.74,1.35c.54.4,1.56,1.45,2.32,1.58" transform="translate(-65.35 -124.35)"/></g></g><g class="cls-6"><g class="cls-66"><path class="cls-8" d="M298.36,254.65l2,.29-.45-.23,1.81,1.23-2.84-2.6a70.38,70.38,0,0,1,6.76,12.84q2.4,4.76,4.54,9.62a163.85,163.85,0,0,1,8.17,23.1c.15.55.1-1.53.12-1.21a14.2,14.2,0,0,0-.3-3.51,178.32,178.32,0,0,0-7.49-19.44c-2.23-4.82-4.35-9.76-6.94-14.42l1.38,3.4c-.83-3.31-1.77-6.49-4.42-9a21.65,21.65,0,0,0-1.81-1.63c-1.54-1.15-2.26-1.1-4.11-1.4a.72.72,0,0,0,.3.39c.46.4.93.8,1.41,1.19s1.27,1.29,1.89,1.38" transform="translate(-65.35 -124.35)"/></g></g><g class="cls-6"><g class="cls-67"><path class="cls-8" d="M301.42,254.56l3.71,1.49-2.65-3a46,46,0,0,1,6.81,13.57q2.44,4.81,4.6,9.76A158.3,158.3,0,0,1,322,299.71c.12.42.27-1,.25-.77a6.65,6.65,0,0,0,.09-2.31,131.58,131.58,0,0,0-4.5-13.76q-2.68-6.75-5.85-13.3-2.82-5.93-5.49-11.92a8.94,8.94,0,0,0-.69-1.08,32.85,32.85,0,0,0-2.25-3,10.69,10.69,0,0,0-6.32-3.41,1.14,1.14,0,0,0,.36.53c.53.6,1.08,1.19,1.63,1.77.36.39,1.5,2,2.19,2.12" transform="translate(-65.35 -124.35)"/></g></g><g class="cls-6"><g class="cls-68"><path class="cls-8" d="M299.7,253.73l2.23.44-.25-.17,2,1.35-5.56-6,6.67,7.49-5.89-7.43c6.5,9,10.61,19.22,15.17,29.11,0-.08-.07-.16-.11-.25.92,2.27,1.83,4.53,2.74,6.8l-.09-.25q1.18,3.46,2.38,6.92c0-.08-.05-.16-.08-.25.66,2.35,1.33,4.7,2,7a2.71,2.71,0,0,0,.14-1c.05-1.3.08-2.59.11-3.89s.05-2.58.05-3.88a2.57,2.57,0,0,0-.09-1c-3.38-9-7.07-18.05-12.29-26.32a107.44,107.44,0,0,0-6.28-8.73,52.39,52.39,0,0,0-4-5c-1.89-1.89-4.36-2.5-7-2.9a4,4,0,0,0,.78.91c1.06,1.07,2.12,2.12,3.2,3.17s2.15,2.1,3.24,3.14a4.07,4.07,0,0,0,.94.76" transform="translate(-65.35 -124.35)"/></g></g><g class="cls-6"><g class="cls-69"><path class="cls-8" d="M299,255.3l2.26.45-.3-.17,1.77,1.2-8.74-8.11L305,260.54l-7.2-9.13q4.28,6.85,8.56,13.72l-5-9.32c4,8.18,8.18,16.22,12,24.46l-.13-.3c.92,2.28,1.83,4.57,2.75,6.85,0-.1-.07-.2-.11-.31l2.39,7-.09-.31c.66,2.36,1.33,4.73,2,7.09a4.41,4.41,0,0,0,.09-1.26c0-1.58,0-3.17,0-4.76s-.05-3.17-.09-4.75a4.1,4.1,0,0,0-.13-1.26,145.5,145.5,0,0,0-13.12-25.9,51.48,51.48,0,0,0-5.72-7.21,68.88,68.88,0,0,0-5.1-5.3c-2-1.73-4.32-2.22-6.94-2.52a4.62,4.62,0,0,0,1,.91q1.92,1.61,3.87,3.18c1.3,1.05,2.6,2.1,3.92,3.13a4.6,4.6,0,0,0,1.1.76" transform="translate(-65.35 -124.35)"/></g></g><g class="cls-6"><g class="cls-70"><path class="cls-8" d="M298.32,254.2l3.49,1.31-5.9-5.67,7.63,8.72c-1.55-2.12-3.09-4.25-4.64-6.38q2.73,4.29,5.45,8.57l-4-6.74q3.3,7.59,7.19,14.92,2.54,4.68,4.58,9.58a173.08,173.08,0,0,1,6.85,20c.09.3,0,.22.13,0s0-.48,0-.73c0-.86-.07-1.72-.11-2.59-.07-1.33-.14-2.66-.22-4a6.7,6.7,0,0,0-.21-1.72c-2.06-5.52-4.23-10.94-6.83-16.26-1.58-3.23-3.14-6.42-5-9.54l-3.69-6a23.2,23.2,0,0,0-1.15-2.07,45.89,45.89,0,0,0-4.78-4.78,14.39,14.39,0,0,0-1.68-1.53A9.92,9.92,0,0,0,291,248a2.62,2.62,0,0,0,.69.72c1,.84,1.9,1.67,2.87,2.48s1.93,1.64,2.9,2.44a2.81,2.81,0,0,0,.84.58" transform="translate(-65.35 -124.35)"/></g></g><g class="cls-6"><g class="cls-71"><path class="cls-8" d="M298.17,255.78l1.95.26-.49-.23,1.81,1.21-3.28-2.73L302,258.8,300.73,257q2.4,5.12,4.64,10.28,2.49,4.72,4.62,9.6A160.45,160.45,0,0,1,318.21,300c.18.62.07-1.78.09-1.42a16.31,16.31,0,0,0-.39-4.13c-1.86-5.5-3.84-10.92-6.25-16.24s-5-10.54-7.66-15.77c.48,1.46.95,2.92,1.42,4.38-1.07-4-1.83-8.16-5.18-11.05a24.8,24.8,0,0,0-2.09-1.72c-1.57-1.07-2.17-1-4-1.21a.84.84,0,0,0,.36.39c.51.41,1,.8,1.57,1.19s1.42,1.28,2.11,1.38" transform="translate(-65.35 -124.35)"/></g></g><g class="cls-6"><g class="cls-72"><path class="cls-8" d="M298.56,253.93l2.24.44-.29-.18,2,1.37-8.46-8.46q5.25,6,10.52,12L298,250l6.86,10.59q-2.61-4.4-5.21-8.8c4.43,9,9.12,17.94,13.34,27l-.13-.28q1.38,3.42,2.77,6.84l-.12-.29,2.4,7-.09-.31,2,7.1a3.89,3.89,0,0,0,.08-1.23c0-1.55,0-3.1-.07-4.64s-.07-3.1-.13-4.64a3.91,3.91,0,0,0-.14-1.23c-4.72-11.81-10.07-23.51-18.59-33.41a61.57,61.57,0,0,0-4.74-5.36c-2-1.8-4.41-2.32-7-2.66a4.51,4.51,0,0,0,.91.94c1.21,1.11,2.43,2.2,3.67,3.29s2.46,2.17,3.7,3.25a5.13,5.13,0,0,0,1.06.79" transform="translate(-65.35 -124.35)"/></g></g><g class="cls-6"><g class="cls-73"><path class="cls-8" d="M298.5,256.43l2.16.39-.6-.31,2.09,1.41L298,254.55l5,4.74-3.66-3.69q2,2.47,4,4.93c-.87-1.1-1.72-2.2-2.58-3.31q1.33,2.13,2.69,4.26c-.49-.8-1-1.61-1.45-2.41q2.06,4.59,4.13,9.18,2.58,4.68,4.7,9.56A160.4,160.4,0,0,1,319.14,301c.19.67.1-1.94.12-1.56q-.06-1.5-.15-3a11.59,11.59,0,0,0-.14-1.55c-1.93-5.56-4-11-6.46-16.42s-5.23-10.59-8.13-15.81l1.82,5.1c-.79-2.77-1.26-5.66-2.71-8.22a11.28,11.28,0,0,0-2.91-3.13,33.69,33.69,0,0,0-2.65-2.12c-1.75-1.17-2.58-1.17-4.62-1.49a1.22,1.22,0,0,0,.47.46c.68.5,1.35,1,2,1.47s1.8,1.57,2.68,1.73" transform="translate(-65.35 -124.35)"/></g></g><line class="cls-4" x1="111.76" y1="195.65" x2="338.07" y2="195.16"/><line class="cls-4" x1="118.42" y1="251.09" x2="331.2" y2="250.64"/><line class="cls-4" x1="114.34" y1="219.94" x2="334.2" y2="219.47"/></g></g></g></g><rect class="cls-74" x="6.15" y="6.15" width="430" height="430"/><path class="cls-75" d="M294.71,203.11c-76.28-2-141.35,51.4-153.2,120.94-13.95,81.87,49.51,164.69,135,169.18,78.35,4.11,148.9-59,152.91-141.66" transform="translate(-65.35 -124.35)"/><polygon class="cls-76" points="227.65 101.65 227.65 56.47 262.55 79.06 227.65 101.65"/></g></g></svg>