<svg xmlns="http://www.w3.org/2000/svg" xmlns:xlink="http://www.w3.org/1999/xlink" viewBox="0 0 269.44 244.8"><defs><style>.cls-1{fill:#eedac2;opacity:0.08;}.cls-1,.cls-2{isolation:isolate;}</style></defs><g id="Layer_2" data-name="Layer 2"><g id="Layer_1-2" data-name="Layer 1"><path d="M65.24,99.3c1.6,11.4,2.9,22.7,3.9,34.2.5,5.7.9,11.4,1.4,17.1s1.2,11.4,1.9,17.1c1.4,11.4,2.6,22.8,3.8,34.2s2.1,22.8,2.9,34.3H79c-1.5-11.4-2.8-22.7-4.1-34.1s-2.2-22.8-3.1-34.2c-.5-5.7-1-11.4-1.6-17.1s-1.4-11.4-2-17.1c-1.2-11.4-2.3-22.8-3-34.3Z" transform="translate(-24.44)"/><path d="M252.84,99.3c-.7,11.4-1.8,22.9-3,34.3-.7,5.7-1.4,11.4-2,17.1s-1.1,11.4-1.6,17.1c-.9,11.4-2,22.8-3.1,34.2s-2.5,22.8-4.1,34.1h-.1c.8-11.4,1.8-22.9,2.9-34.3s2.4-22.8,3.8-34.2c.7-5.7,1.3-11.4,1.9-17.1s.9-11.4,1.4-17.1c1.1-11.4,2.3-22.8,3.9-34.2Z" transform="translate(-24.44)"/><path d="M102.44,99.3c1,11.4,1.7,22.8,2.2,34.2.2,5.7.3,11.4.6,17.1s.6,11.4,1,17.1q1.2,17.1,2.1,34.2c.5,11.4.9,22.8,1.1,34.2h-.1c-1-11.4-1.7-22.8-2.3-34.2s-1.1-22.8-1.4-34.2c-.2-5.7-.4-11.4-.7-17.1s-.8-11.4-1.2-17.1c-.7-11.4-1.1-22.8-1.3-34.2Z" transform="translate(-24.44)"/><path d="M217.24,99.3c-.2,11.4-.6,22.8-1.3,34.2-.4,5.7-.9,11.4-1.2,17.1s-.6,11.4-.7,17.1c-.3,11.4-.8,22.8-1.4,34.2s-1.4,22.8-2.3,34.2h-.1c.2-11.4.6-22.8,1.1-34.2s1.2-22.8,2.1-34.2c.4-5.7.8-11.4,1-17.1s.4-11.4.6-17.1c.5-11.4,1.2-22.8,2.2-34.2Z" transform="translate(-24.44)"/><path d="M140,99.3q1.2,17.1,1.5,34.2c.1,5.7.1,11.4.2,17.1s.4,11.4.7,17.1c.6,11.4,1,22.8,1.4,34.2s.5,22.8.5,34.2h-.1c-.7-11.4-1.2-22.8-1.7-34.2-.3-11.4-.6-22.8-.7-34.2-.1-5.7-.2-11.4-.4-17.1s-.6-11.4-.8-17.1c-.4-11.4-.7-22.8-.6-34.2Z" transform="translate(-24.44)"/><path d="M181.34,99.3c.1,11.4-.2,22.8-.6,34.2-.3,5.7-.6,11.4-.8,17.1s-.3,11.4-.4,17.1c-.1,11.4-.4,22.8-.7,34.2s-.9,22.8-1.7,34.2H177c0-11.4.2-22.8.5-34.2s.8-22.8,1.4-34.2c.3-5.7.5-11.4.7-17.1s.1-11.4.2-17.1c.3-11.4.7-22.8,1.5-34.2Z" transform="translate(-24.44)"/><path class="cls-1" d="M26.17,114.9q9.34,55.95,18.78,112c1.61-4.7,3.33-9.5,4.94-14.2-.43.8-.86,1.5-1.29,2.3l-7.08,13.8c0,.1-.11.2-.11.4a6.66,6.66,0,0,0,2.47,4.4c1.18.7,2.36,1.5,3.43,2.2l4.51,1.8a56.41,56.41,0,0,0,10.73,2.1c4.29.6,8.69.8,13,1,10.41.4,20.92.3,31.33.1,12.77-.2,25.43-.5,38.2-.5,14,0,27.91.3,41.86.8,10.84.4,21.78,1.1,32.62,1.4,8.91.3,17.92.3,26.61-1.1,6-1,11.81-2.9,16.53-6.6a27,27,0,0,0,5.9-6.5,4.5,4.5,0,0,0,1.5-3.1,21,21,0,0,0,.43-2.7c.65-5.4,1.51-10.7,2.36-16,1.08-6.4,1.83-12.8,2.69-19.3,1.39-11.3,3-22.7,4.07-34,.54-6,1.08-12,2-18a200.12,200.12,0,0,1,9-32.4,5.14,5.14,0,0,0-1.08,1c-1.28,1.3-2.57,2.7-3.86,4s-2.57,2.7-3.86,4.1a10.84,10.84,0,0,0-1,1.1c-2.79,10-5.26,20.1-7.08,30.4a80.45,80.45,0,0,0-1.4,12.3,13.44,13.44,0,0,1-.85,7.4c-.33,2-.65,4-1.08,6-.43,2.6-.75,5.1-1.18,7.7-.86,6.1-1.61,12.3-2.47,18.4-.42,3.2-.85,6.4-1.39,9.6-.64,2.9-1.4,5.8-2.15,8.7a75.15,75.15,0,0,1-4.18,9.9,15.61,15.61,0,0,1-6.33,6.9c-4.08,2.3-8.91,3.4-13.52,4.1a191.51,191.51,0,0,1-20.07,1.5c-9.34.5-18.67-.4-27.9-1-9-.5-18-1-27.05-1.3-14.05-.5-28.22-.3-42.28,0-11.8.2-23.5.8-35.2-.6a131,131,0,0,0-14-1.6A27.56,27.56,0,0,1,61.37,229a17.17,17.17,0,0,1-6.87-3.6,40.9,40.9,0,0,0-3.75-3.6c-1.51-1.9-1.83-4.7-1.61-7-2.36,4.3-4.62,8.6-7,13a3.12,3.12,0,0,1,2.9-.9,3.71,3.71,0,0,0,.64-1.5c.65-1.9,1.29-3.7,2-5.6s1.29-3.7,1.93-5.6a7.06,7.06,0,0,0,.43-1.5C47,194,43.56,175.3,40.66,156.6c-1-6.2-1.82-12.4-2.79-18.6-.75-11.8-1.5-23.5-2.25-35.3a11.69,11.69,0,0,0-1.08,1.2c-1.28,1.6-2.47,3.2-3.75,4.8s-2.47,3.2-3.65,4.8A4.25,4.25,0,0,0,26.17,114.9Z" transform="translate(-24.44)"/><path class="cls-1" d="M26.71,113.2c6.44,37.2,12.45,74.5,18.78,111.7L49,213.8l-1,1.8c-.42.7-6.11,11.1-6.11,11.9a6,6,0,0,0,2.47,4.3c2,1.8,5.15,3,7.83,3.9,7.51,2.5,15.77,3.2,23.72,3.5,5,.2,10.08.1,15,.1,5.47,0,11,0,16.42-.1,12.77-.2,25.43-.6,38.2-.6,13.95,0,27.9.3,41.75.8,10.83.4,21.78,1.1,32.62,1.4,8.91.3,17.92.3,26.72-1.1,6.12-1,11.8-2.9,16.63-6.6a27.24,27.24,0,0,0,6-6.5,4.5,4.5,0,0,0,1.5-3.1,11.54,11.54,0,0,0,.43-2.8c1.72-11.8,3.44-23.6,4.94-35.5,1.4-11.3,3-22.7,4-34,.54-6,1-12,2-18,1.93-11.1,5.26-21.7,9-32.4-.42.3-.75.6-1.18.9-1.28,1.3-2.68,2.6-4,3.9l-3.86,3.9a5.11,5.11,0,0,0-1,1.1c-2.79,10.1-5.36,20.2-7.19,30.5a69.59,69.59,0,0,0-1.39,12.3,13.35,13.35,0,0,1-.86,7.4c-.32,2-.64,3.9-1.07,5.9-.32,2.6-.75,5.1-1.18,7.6-.86,6.1-1.61,12.3-2.36,18.4-.33,3.2-.75,6.5-1.08,9.7l-1.61,9a66.13,66.13,0,0,1-3.75,10,15.7,15.7,0,0,1-5.8,7c-3.86,2.6-8.48,3.9-13.09,4.7-6.55,1.1-13.31,1.3-20,1.7-9.34.5-18.67-.4-27.9-.9-9-.5-18-1-26.94-1.3-14-.5-28.22-.3-42.28.1-11.8.3-23.61,1-35.41,0a100.69,100.69,0,0,0-14.49-.9,35,35,0,0,1-12.45-1.7,17,17,0,0,1-7.94-3.4c-1.39-1.3-2.89-2.5-4.4-3.7-1.71-1.9-2-4.8-1.82-7.2-1.93,3.4-3.86,6.8-5.8,10.3a3.42,3.42,0,0,1,2.9-1.1,4.11,4.11,0,0,0,.54-1.2c.53-1.5,1.07-3,1.5-4.5s1-3,1.5-4.5a4.45,4.45,0,0,0,.32-1.2c-3.21-18.7-6.43-37.4-9.44-56.1q-1.44-9.3-2.9-18.6c-1.07-11.8-2.14-23.7-3-35.5a4.14,4.14,0,0,0-.86,1l-2.9,3.9c-1,1.3-1.93,2.6-2.79,4A1.47,1.47,0,0,0,26.71,113.2Z" transform="translate(-24.44)"/><path class="cls-1" d="M27.35,114.5q9.34,56,18.78,112c1.72-4.6,3.44-9.3,5.15-13.9-2.79,5.9-5.47,11.8-8.26,17.7,0,.1-.11.3-.11.4a13.08,13.08,0,0,0,5.58,4.7,35,35,0,0,0,9.66,3.1c8.48,1.7,17.28,2,26,2.1,20.82.2,41.53-.6,62.35-.6,13.95,0,27.79.3,41.74.8,10.84.4,21.79,1.1,32.63,1.4a169.9,169.9,0,0,0,18.88-.2c6.44-.5,13.1-1.3,19-4.1a31.55,31.55,0,0,0,7.19-4.8,26.21,26.21,0,0,0,5.47-7.2,24.55,24.55,0,0,0,.65-4c.21-1.8.42-3.5.64-5.3,1.61-12.4,3.54-24.8,5-37.3,1.18-9.3,2.69-18.8,3.22-28.1a146.79,146.79,0,0,1,2.47-19.5,213.27,213.27,0,0,1,8.48-29.3,4.36,4.36,0,0,0-1.18,1.2c-1.4,1.6-2.79,3.1-4.19,4.7s-2.79,3.2-4.08,4.8a5.17,5.17,0,0,0-1,1.3c-2.79,10-5.26,20-7.19,30.1a65.84,65.84,0,0,0-1.5,12.1,13,13,0,0,1-1,7.3c-.32,2-.75,4-1.07,5.9-.43,2.6-.86,5.1-1.29,7.7-1,6.1-1.72,12.2-2.68,18.3-.54,3.2-1,6.3-1.51,9.5L263,213.7a71.23,71.23,0,0,1-4.29,9.1,14.63,14.63,0,0,1-6.12,6.2,37.17,37.17,0,0,1-13.09,3.9c-6.55,1-13.41,1.2-20.07,1.6-9.33.5-18.56-.4-27.9-1-8.91-.6-17.92-1.1-26.83-1.5-14.05-.6-28.11-.4-42.06-.1-11.7.2-23.29.7-34.88-.7A125.2,125.2,0,0,0,74,229.7a28.41,28.41,0,0,1-11.16-2.2,19.27,19.27,0,0,1-6.65-3.2,27.61,27.61,0,0,0-3.76-3.2c-1.61-1.8-1.71-4.6-1.5-6.8-2.47,4.3-4.93,8.6-7.4,12.8a3.33,3.33,0,0,1,2.89-1,3.73,3.73,0,0,0,.65-1.5c.75-1.9,1.5-3.7,2.14-5.6s1.4-3.8,2.15-5.6a7.69,7.69,0,0,0,.43-1.5c-3.22-18.7-6.55-37.4-9.44-56.1-1-6.2-1.83-12.4-2.79-18.6-.75-11.7-1.4-23.4-2.15-35.1a4.36,4.36,0,0,0-1.18,1.2c-1.29,1.6-2.58,3.2-3.86,4.7l-3.87,4.8A6.09,6.09,0,0,0,27.35,114.5Z" transform="translate(-24.44)"/><path class="cls-1" d="M27.68,116.7c1.93,9,3.54,18.1,4.93,27.2,1.5,9.4,3.11,18.7,4.72,28.1,3.22,18.7,6.33,37.4,9.55,56.1q1.14-3,2.26-6a17.45,17.45,0,0,0-1.4,1.5,26.9,26.9,0,0,0-3.54,5c-1.07,1.9-.75,3.2.65,5,2,2.7,5.47,4.5,8.79,5.6a60.94,60.94,0,0,0,11.06,2.5c9.44,1.3,19.1,1,28.65.8,27-.4,54.09-1.4,81.24-.7,13.41.4,26.82,1.1,40.24,1.6,9.66.4,19.21.7,28.86-.2,6.34-.6,12.67-1.8,18.14-4.8a29.14,29.14,0,0,0,6.87-5.3,21.08,21.08,0,0,0,4.18-5.5c.22-.8.43-1.7.65-2.5,1.07-5.2,1.82-10.6,2.47-15.8.85-7.1,1.71-14.3,2.57-21.4,1.29-10.8,2.68-21.5,3.76-32.3.53-5.5.86-11,1.61-16.4,1.71-12.1,5.47-23.9,9.44-35.4.22-.7-1.39,1.4-1.18,1.1l-1.93,2.4a14.66,14.66,0,0,0-1,1.3c-4.29,13.7-8.26,27.8-9.12,42.1a20.84,20.84,0,0,1-.64,7.3c-.32,2-.54,4.1-.86,6.1-.75,5.7-1.5,11.3-2.25,17-1.72,13.8-2.69,27.8-7.62,41a45.73,45.73,0,0,1-2.69,6.2,9.78,9.78,0,0,1-4.18,4.3,35.43,35.43,0,0,1-14.49,5.7c-6.65,1.2-13.52,1.4-20.17,1.8-9.34.5-18.68-.3-28-.8-9-.5-18-.9-26.94-1.2-14.06-.4-28-.3-42.06,0-11.92.3-23.83,1.2-35.74.8a103.28,103.28,0,0,0-14.7-.2A68.82,68.82,0,0,1,66.2,238a21.89,21.89,0,0,1-10.09-2.7c-2-1.1-4.08-2.3-6.11-3.5a7.08,7.08,0,0,1-2.69-7.2c-1.07,1.4-2.14,2.9-3.11,4.3a2.68,2.68,0,0,1,2.68-.8c.43,0,1.18-2.8,1.29-2.9a7.78,7.78,0,0,0,1-3c-3.22-18.7-6.33-37.4-9.45-56.1-1.07-6.2-2-12.5-3.11-18.7-1.5-11.7-2.9-23.5-4.18-35.3,0,.1-2.36,2.2-2.36,2.3C29.71,114.5,27.68,116.2,27.68,116.7Z" transform="translate(-24.44)"/><path class="cls-1" d="M27.89,115q9.18,56,18.67,111.9c1.5-4,3.11-7.9,4.62-11.9-1.72,2.9-3.33,5.9-4.83,8.9-.43.9-1,1.8-1.4,2.7-2.25,2.3-2.36,4.2-.53,5.7a7,7,0,0,0,2.79,2.4c5.79,3.8,13.3,4.8,20.17,5.5,9.66.9,19.32.9,29,.9,13.52,0,26.93-.5,40.45-.6,14.06-.2,28.12,0,42.18.4,11.69.4,23.39,1,35.09,1.5,9.55.4,19.21.7,28.76-.2,6.33-.6,12.66-1.8,18.13-4.9a26.37,26.37,0,0,0,6.76-5.4c1.72-1.9,3.87-4.2,4.19-6.8.75-4.8,1.18-9.6,1.93-14.3,1.07-7,2-14.1,3-21.2,1.51-11.7,3.12-23.3,4.19-35,.64-6.5,1.07-13,2.25-19.4a199.11,199.11,0,0,1,9-32.4,5.14,5.14,0,0,0-1.08,1c-1.18,1.3-2.46,2.7-3.64,4.1s-2.37,2.7-3.55,4.1a3.54,3.54,0,0,0-.85,1.2c-2.79,10-5.26,20-7.09,30.2a79,79,0,0,0-1.39,12.3,15.7,15.7,0,0,1-.86,7.4c-1.18,4.4-1.61,9.2-2.25,13.7-1,6.1-1.72,12.3-2.58,18.4-.43,3.2-1,6.4-1.5,9.6q-1.12,4.35-2.26,8.7a67.06,67.06,0,0,1-4.4,9.8,15.49,15.49,0,0,1-6.33,6.9c-4,2.3-8.69,3.4-13.3,4.1-6.55,1-13.31,1.2-20,1.6-9.34.5-18.68-.4-27.9-1-9-.5-17.93-1.1-26.94-1.4-14.06-.5-28.12-.3-42.17,0-11.7.2-23.4.8-35.09-.4a109.58,109.58,0,0,0-14.06-1.2A35.12,35.12,0,0,1,63.52,230a22.46,22.46,0,0,1-7.19-3,24.24,24.24,0,0,0-4.19-3c-1.82-1.7-2.14-4.5-1.93-6.8-2.25,3.5-4.51,7.1-6.65,10.6a3,3,0,0,1,2.89-.9,3.24,3.24,0,0,0,.65-1.2L49,220.9,51,216.1a6,6,0,0,0,.43-1.3c-3.22-18.7-6.54-37.4-9.44-56.1q-1.46-9.3-2.9-18.6c-.86-11.7-1.72-23.4-2.36-35.1a4.85,4.85,0,0,0-1.07,1l-3.55,3.9c-1.18,1.3-2.36,2.6-3.43,4A10.48,10.48,0,0,0,27.89,115Z" transform="translate(-24.44)"/><path class="cls-1" d="M26.6,113.7c1.93,8.9,3.65,17.8,4.94,26.8,1.5,9.4,3,18.7,4.72,28.1,3.22,18.7,6.33,37.4,9.55,56.1.54-1.9,1.18-3.8,1.72-5.7a27.4,27.4,0,0,0-4.08,5.8,4.08,4.08,0,0,0-.75,3.3c.54,2.5,3.22,4.7,5.36,5.9a37.8,37.8,0,0,0,9.45,3.5c8.69,2.2,18,2.2,26.93,2.1,26.19-.2,52.26-1.4,78.45-1.1,14.38.2,28.76.8,43.14,1.5,10.41.5,20.71,1,31.12.5,6.76-.3,13.52-1,19.74-3.4a30.9,30.9,0,0,0,7.62-4.2,19.88,19.88,0,0,0,4.73-4.6l2.57-3.9a36.1,36.1,0,0,0,1.18-5.7c.43-2.7.86-5.4,1.18-8.2,1-7,1.61-13.9,2.47-20.9,1.5-12.5,3.11-24.9,4.4-37.4.54-5.5.86-10.9,1.61-16.4,1.82-12.1,5.47-23.9,9.55-35.5a2.4,2.4,0,0,0-.75.7c-.86.9-1.83,1.8-2.68,2.8-.76.8-2.9,2.4-3.22,3.6a294.14,294.14,0,0,0-7.41,30.2,52.49,52.49,0,0,0-1.39,12.3,84.31,84.31,0,0,1-1.18,10.2c-1.51,9.7-2.79,19.5-3.76,29.3-1,10.3-1.18,20.7-4.83,30.5-1.29,3.6-2.47,6.5-5.69,9.1a29.93,29.93,0,0,1-11.59,5.6c-5.15,1.4-10.62,1.7-16,2.1-4.18.4-8.37.6-12.44.7-4.62-.2-9.23-.4-13.74-.7-22.21-1.2-44.43-2.2-66.64-1.8-6.65.1-13.2.3-19.85.6-6,.2-12,.5-18,.7H94.85a92.78,92.78,0,0,0-14.91,0c-9.66.2-20.72,0-28.76-5.7-3.22-2.3-5.69-5.5-4.94-9.5l-2.9,4.5a3.16,3.16,0,0,1,2.69-.9c.42-.1,1-2.7,1-2.8.22-.8.86-2.1.65-2.9-2.69-15.6-5.26-31.2-8-46.8-1.61-9.3-3.11-18.6-4.4-28-2-11.9-3.54-23.8-4.72-35.8a1.22,1.22,0,0,0-.53.5,25,25,0,0,0-1.51,2.1C28.1,111.3,26.49,113.1,26.6,113.7Z" transform="translate(-24.44)"/><path class="cls-1" d="M25.85,115.4c6,37.3,12.34,74.6,18.67,111.9,1.29-3.9,2.47-7.9,3.76-11.8a20.18,20.18,0,0,0-1.18,2.1c-.43.8-6.12,11.3-6,12.1.32,4.6,6.33,7.1,10.41,8.4,7.51,2.5,15.88,3.1,23.71,3.5,10.41.5,20.93.2,31.45.1,12.77-.2,25.43-.6,38.2-.6,13.95,0,27.9.3,41.74.8,10.84.4,21.79,1.1,32.63,1.4,8.9.3,17.92.3,26.72-1.1,6-1,11.8-2.8,16.52-6.5a28.83,28.83,0,0,0,6-6.4,4.64,4.64,0,0,0,1.61-3.1,25.11,25.11,0,0,0,.54-2.8c1-5.4,1.93-10.8,2.58-16.3.85-6.4,1.61-12.8,2.36-19.2,1.39-11.3,2.89-22.6,4-34,.53-6,1-12,2-18a223.66,223.66,0,0,1,8.9-32.4,2.51,2.51,0,0,0-.75.7c-.86,1-1.82,1.9-2.68,2.9s-2.79,2.5-3.22,3.8a268.06,268.06,0,0,0-7.3,30.1,53.72,53.72,0,0,0-1.39,12.3c-.22,3.4-.65,6.8-1.18,10.2-1.61,9.8-2.79,19.7-4,29.6-.75,6.3-1.29,12.8-2.9,19a70.82,70.82,0,0,1-5.47,14.3,12.88,12.88,0,0,1-2.47,3.7,26.15,26.15,0,0,1-6.44,4,42.47,42.47,0,0,1-13.2,3.3c-6,.6-12,1-18.14,1.3-9.33.5-18.67-.4-28-.9-12.45-.7-24.9-1.4-37.46-1.5-12.23-.2-24.46.1-36.7.4-10.3.2-20.71.8-31-.2a119.81,119.81,0,0,0-14.7-1.3,31.18,31.18,0,0,1-12.45-2.3,16.32,16.32,0,0,1-7.83-3.9A37.78,37.78,0,0,0,49,225.1c-1.72-1.9-2-4.9-1.93-7.3-1.93,3.5-3.76,7-5.69,10.5a3.35,3.35,0,0,1,2.9-1c.54-.1,1.93-5.8,2-5.9.53-1.6,1-3.1,1.39-4.7a2.52,2.52,0,0,0,.22-1.3c-3.22-18.7-6.44-37.4-9.45-56.1q-1.44-9.3-2.89-18.6c-1.08-11.8-1.83-23.6-2.36-35.4a3.74,3.74,0,0,0-.86,1c-1.08,1.3-2,2.6-3,3.9s-2,2.6-3,3.9A4.74,4.74,0,0,1,25.85,115.4Z" transform="translate(-24.44)"/><path class="cls-1" d="M28.32,114.9c6.44,37.2,12.55,74.4,18.78,111.5,1-2.8,2-5.6,3-8.4-.43.5-.75,1-1.18,1.6s-5.36,8.8-5.26,9.2c.22,4.5,6.23,7.2,10.2,8.6a56.34,56.34,0,0,0,10.84,2.4,119,119,0,0,0,13.3,1c10.41.4,20.93.1,31.45-.1,26.61-.5,53.22-.9,79.94.2,10.84.4,21.79,1.1,32.63,1.4,8.9.3,17.92.3,26.72-1.1,6.12-1,11.8-2.9,16.63-6.6a27.45,27.45,0,0,0,6-6.5,4.53,4.53,0,0,0,1.5-3.2,25.11,25.11,0,0,0,.54-2.8c1.72-11.8,3.43-23.5,4.83-35.3,1.39-11.3,2.9-22.6,4-34,.54-6,1-12,2-18a212,212,0,0,1,9-32.4,3.28,3.28,0,0,0-.86.8c-1,1.1-1.93,2.3-2.89,3.4s-1.93,2.3-2.9,3.5a2,2,0,0,0-.64,1c-2.58,8.9-4.73,17.7-6.44,26.8-.65,3.1-1.18,6.3-1.72,9.5q-.48,5.85-.64,11.7a.37.37,0,0,1,.1-.3,74.24,74.24,0,0,0-2.14,11.9c-.65,4.3-1.29,8.6-1.83,12.9-1.39,10.7-1.93,21.9-5.79,32.2a80.68,80.68,0,0,1-4.08,9.4c-1.82,3.3-4.51,5.4-8.16,7.1-8.47,3.9-18.13,3.9-27.36,4.5-3.11.3-6.33.4-9.44.5-4.62-.2-9.13-.5-13.74-.8-8.37-.5-16.74-1-25-1.4-13.85-.6-27.8-.8-41.64-.5-9.66.2-19.42.6-29.08.8a151.61,151.61,0,0,1-16.53-.2l-7-.6c-4.83.1-9.55,0-14.38-.2a82.7,82.7,0,0,1-11.27-2.3,19.09,19.09,0,0,1-4.72-2.6c-1.18-.8-2.36-1.6-3.65-2.4a8,8,0,0,1-2.26-7.1c-1.6,2.4-3.11,4.9-4.72,7.3a3.35,3.35,0,0,1,2.9-1c.54-.1,1.72-4.1,1.72-4.3.32-1,1.61-3.2,1.39-4.4-3.22-18.7-6.44-37.4-9.44-56.1-1-6.2-2-12.4-3-18.6-1.39-11.7-2.36-23.5-3.11-35.3a2.51,2.51,0,0,0-.75.7c-.86.9-1.72,1.9-2.57,2.8s-1.72,1.9-2.58,2.9A1.88,1.88,0,0,0,28.32,114.9Z" transform="translate(-24.44)"/><path class="cls-1" d="M24.46,114c6.86,37,12.77,74.1,19.1,111.2.32-1.4.75-2.9,1.07-4.3a12.62,12.62,0,0,0-3.11,3.9,7.17,7.17,0,0,0-1.29,2.9c-.21,2.5,2.25,4.5,4.08,5.9A25.57,25.57,0,0,0,53,237.8a66.46,66.46,0,0,0,15.35,2.6c4.83.3,9.65.4,14.59.4,12.66,0,25.22-.5,37.77-.8,15.35-.4,30.8-.5,46.15-.3,15.13.3,30.26,1.1,45.39,1.7,9.66.4,19.32.7,29-.2,7-.6,14.48-2,20.17-5.9a29.25,29.25,0,0,0,7.94-8.1c1.5-2.3,1.18-1.3,1.61-3.3.32-1.6.65-3,.86-4.6.86-6.5,1.5-13.1,2.15-19.7,1.39-14,3.11-28,4.61-42,.54-5.2.86-10.4,1.4-15.6a135.12,135.12,0,0,1,3.32-18.6,216,216,0,0,1,7-22.7c.21-.5-1.18.8-1,.7-.64.6-2.14,1.6-2.47,2.5a243.17,243.17,0,0,0-8,30,52.27,52.27,0,0,0-1.61,12.4,18.55,18.55,0,0,1-.43,6.4,21.31,21.31,0,0,0-.54,3.6c-.86,6.6-1.61,13.2-2.36,19.9-1.18,11-1.72,22.1-2.9,33.1-.75,6.9-1.18,15-6,20.6a26.82,26.82,0,0,1-12.34,7.6c-5.36,1.8-10.84,2.3-16.42,2.7a234.27,234.27,0,0,1-26.5,0c-22.22-.9-44.43-2-66.64-1.8-12.67.1-25.44.5-38.1,1-7.94.3-15.88.3-23.82.3a118,118,0,0,1-14.6-.6,30.26,30.26,0,0,1-12.23-2.8c-5-2.3-12.66-6.9-11.48-13.3-.76,1.2-1.51,2.3-2.26,3.5.86-.3,1.83-.6,2.69-.9.42,0,1.18-4,1.07-4.3-3.22-18.7-6.33-37.4-9.55-56.1-1.08-6.2-2.15-12.5-3.11-18.7-2-12-3.65-24.1-5-36.2a13.24,13.24,0,0,1-1.39,1.9C25.31,112.3,24.35,113.4,24.46,114Z" transform="translate(-24.44)"/><path class="cls-1" d="M25.21,114.5q9.33,56,18.78,111.8c1.07-3.8,2.14-7.5,3.22-11.3a86.61,86.61,0,0,0-4.83,9.5A17.94,17.94,0,0,0,41.2,227a8,8,0,0,0-.65,1.7c-.32,2.3,2.36,4.4,4.19,5.5,5.69,3.6,13.09,4.9,19.85,5.6,9.66,1.1,19.32,1,29.08,1,13.52.1,26.94-.5,40.46-.6,14.06-.2,28.11-.1,42.28.4,11.7.4,23.39,1,35.09,1.5,9.66.4,19.21.7,28.87-.2,6.33-.6,12.55-1.8,18.13-4.8a26.23,26.23,0,0,0,6.87-5.3c1.83-1.9,3.87-4.1,4.4-6.6a142,142,0,0,0,2.68-14.8c.76-7.1,1.61-14.1,2.47-21.1,1.4-11.7,2.9-23.3,4.08-35,.64-6.5,1-13,2.15-19.5a212,212,0,0,1,9-32.4,2.94,2.94,0,0,0-.86.7c-1,.9-1.82,1.9-2.79,2.8l-2.79,2.9a1.59,1.59,0,0,0-.64.8,296.77,296.77,0,0,0-7.41,30.2,53.72,53.72,0,0,0-1.39,12.3,84.31,84.31,0,0,1-1.18,10.2c-1.61,9.8-2.79,19.6-3.86,29.5-1.19,11.4-1.61,23.1-7.19,33.5a16.48,16.48,0,0,1-2.37,3.6,25.58,25.58,0,0,1-6.22,4.2,39.52,39.52,0,0,1-13.09,3.5c-6,.7-12,1.1-18.14,1.4-9.33.5-18.67-.4-28-.9-12.44-.7-24.89-1.4-37.45-1.5-12.23-.2-24.47.1-36.81.4-10.41.3-20.81.9-31.12,0a124.63,124.63,0,0,0-14.91-1.1,35.7,35.7,0,0,1-13-2.1,15.42,15.42,0,0,1-8.26-4,57.74,57.74,0,0,0-4.4-4.2,6.81,6.81,0,0,1-1.61-4.4,5.05,5.05,0,0,1-.32-3.1q-2.58,5.1-5.15,10.2a3.33,3.33,0,0,1,2.89-1c.54-.1,1.72-5.5,1.72-5.6.43-1.5.86-3,1.18-4.5a4.61,4.61,0,0,0,.22-1.2c-3.22-18.7-6.44-37.4-9.45-56.1q-1.44-9.3-2.9-18.6c-1.18-11.8-2.14-23.7-2.79-35.6a3.89,3.89,0,0,0-.85,1c-.86,1.3-1.83,2.6-2.69,3.9s-1.71,2.6-2.68,3.9A1.66,1.66,0,0,0,25.21,114.5Z" transform="translate(-24.44)"/><path class="cls-1" d="M25.74,113.5c6.87,36.9,12.77,74,19.11,111.1.42-1.4.75-2.7,1.18-4.1a15.51,15.51,0,0,0-3.12,3.8,6.13,6.13,0,0,0-1.28,2.8c0,1.7,1.18,3.4,2.36,4.6,1.93,2,5,3.5,7.62,4.6,4.4,1.8,9.87,2.6,14.59,3s9.44.6,14.27.6c12.24,0,24.47-.4,36.7-.8,15.13-.5,30.27-.7,45.29-.5,14.38.2,28.76.8,43,1.5,9.45.4,18.89,1,28.22.7a81.61,81.61,0,0,0,18.46-2.2c6.66-1.7,12.56-5,16.74-10.3.86-1.3,1.72-2.6,2.69-3.9a27.17,27.17,0,0,0,.85-4.1c.43-2.6.76-5.2,1.08-7.8,1-6.9,1.5-13.9,2.36-20.8,1.39-12.7,3-25.4,4.4-38.1.64-6,.86-12.1,1.82-18.1,1.83-12.1,5.48-23.8,9.55-35.4a2.8,2.8,0,0,0-.64.5c-.75.7-1.4,1.4-2.15,2.1s-2.25,1.8-2.57,2.8a291.78,291.78,0,0,0-7.73,30.2,52.56,52.56,0,0,0-1.5,12.3,27.82,27.82,0,0,1-.64,7.3c-1.19,9.1-2.47,18.2-3.44,27.4-.54,4.8-.86,9.7-1.29,14.5-.43,6-.64,12-1.82,18a60.64,60.64,0,0,1-2.68,9.6c-1.61,4-5.91,7.2-9.77,9.2a45.61,45.61,0,0,1-14.16,3.9,168,168,0,0,1-26.51,1.1c-21-.8-42.07-2.2-63.21-2.2-13.2,0-26.4.4-39.6.9-5.68.3-11.48.5-17.17.6-2.36,0-4.72-.1-7.08-.1-5,.2-10.09.3-15.13.2q-6.91-.3-13.84-1.2c-5.58-1.2-17.92-6.5-16.31-14.5-.76,1.1-1.51,2.2-2.26,3.2.86-.3,1.83-.6,2.69-.9.42-.1,1.18-3.8,1.18-4.1-3.22-18.7-6.34-37.4-9.56-56.1-1.07-6.2-2.14-12.5-3.21-18.7-2-12-3.65-24.1-4.94-36.2,0,.1-1.4,1.8-1.5,1.9S25.64,113,25.74,113.5Z" transform="translate(-24.44)"/><path class="cls-1" d="M26.39,116.5q9.49,56,18.78,111.8c1-2.9,1.93-5.7,2.89-8.6a18.9,18.9,0,0,0-1.28,1.7c-.33.5-5.05,8.7-5.05,9.2.32,4.6,6.23,7.2,10.31,8.6,7.61,2.7,16.2,3.4,24.25,3.6,4.93.2,10,0,14.91-.1,5.48,0,11-.1,16.42-.2,26.62-.6,53.23-.9,79.84.1,10.84.4,21.79,1.1,32.63,1.4,8.9.3,17.92.3,26.72-1.1,6.11-1,11.8-2.8,16.63-6.5a28.17,28.17,0,0,0,6.22-6.5,4.65,4.65,0,0,0,1.61-3.2,26.84,26.84,0,0,0,.54-2.9c.86-5.5,1.82-10.9,2.47-16.4.75-6.4,1.61-12.8,2.36-19.3,1.29-11.3,2.79-22.5,3.86-33.8.54-6,.86-12,2-18a213.64,213.64,0,0,1,8.91-32.4c.21-.6-1.4,1.3-1.18,1-.65.7-1.29,1.5-1.83,2.2a8,8,0,0,0-.85,1.2,282.11,282.11,0,0,0-7.73,29.8,59.41,59.41,0,0,0-1.5,12.4,20.85,20.85,0,0,1-.65,7.3c-.21,2-.53,4.1-.86,6.1-.75,5.6-1.5,11.3-2.14,17-1,8.1-1.5,16.4-3,24.5a115.69,115.69,0,0,1-4.5,16.9,48.13,48.13,0,0,1-2.69,6.5,8.86,8.86,0,0,1-4.4,4.3,39.27,39.27,0,0,1-15,5.7c-6.65,1.2-13.63,1.3-20.39,1.7-9.34.5-18.67-.4-28-.9q-13.51-.75-27-1.2c-14.06-.4-28.12-.3-42.17,0-11.92.3-24,1.1-35.95.4a106.48,106.48,0,0,0-14.92-.7,39.84,39.84,0,0,1-13.31-1.6,18.38,18.38,0,0,1-9.12-3.5,63.23,63.23,0,0,0-5.26-3.9,8.73,8.73,0,0,1-2.36-7.4c-1.5,2.4-2.9,4.8-4.4,7.2a3,3,0,0,1,2.9-.9c.54,0,1.61-4.1,1.61-4.2.32-1,1.5-3.2,1.29-4.3-3.22-18.7-6.44-37.4-9.45-56.1-1-6.2-2-12.4-3-18.7q-2.1-17.7-3.22-35.4a2.4,2.4,0,0,0-.75.7c-.86.9-1.61,1.8-2.36,2.7s-1.61,1.8-2.36,2.8C26.71,115.9,26.49,116.2,26.39,116.5Z" transform="translate(-24.44)"/><path class="cls-1" d="M27.35,114.1c2,8.9,3.65,17.8,5,26.8,1.5,9.4,3,18.7,4.72,28.1,3.22,18.7,6.33,37.4,9.55,56.1.64-1.9,1.29-3.9,1.82-5.8a25.71,25.71,0,0,0-4.4,6.2c-1.07,2-.85,3.2.54,5.1,3.65,4.8,10.73,6.5,16.63,7.7,10.41,2.1,21.25,1.5,31.77,1.4,27.15-.3,54.19-1.4,81.34-.7,12.13.3,24.25.9,36.38,1.4,10,.4,20.07,1,30.15.2,6.44-.5,13.1-1.3,18.89-4a31,31,0,0,0,7.19-4.7c1-1.1,2-2.2,3-3.3l2.57-3.9c.86-2.4,1-5.1,1.29-7.6.32-2.8.75-5.5,1.18-8.3.86-6.3,1.61-12.5,2.36-18.8,1.5-12.5,3.22-24.9,4.4-37.4.64-6.5,1-13,2.15-19.4a215.17,215.17,0,0,1,9-32.4,2.94,2.94,0,0,0-.86.7c-1,1-1.82,2-2.79,2.9s-2.89,2.6-3.32,3.9a293.59,293.59,0,0,0-7.3,30.2,52,52,0,0,0-1.4,12.3c-.21,3.4-.64,6.8-1.18,10.2-1.61,9.7-2.79,19.6-3.86,29.4-.64,6.3-.86,12.8-2.15,19.1a57.35,57.35,0,0,1-4.5,13.9,15.63,15.63,0,0,1-4.62,6,32.46,32.46,0,0,1-13.41,5.8c-6.55,1.4-13.42,1.6-20,2a53.18,53.18,0,0,1-9.77.2c-3.43-.2-7-.3-10.41-.5-11.59-.6-23.07-1.3-34.66-1.7-14.06-.4-28.11-.3-42.07.1-9.22.3-18.45.8-27.68,1.1q-7.58.15-15.13-.3c-4.94.2-9.88.4-14.81.4a54.11,54.11,0,0,1-17.39-3.4,30.91,30.91,0,0,1-6.11-3.9A8.47,8.47,0,0,1,47,221.8c-1,1.5-2,3-3,4.5a3.14,3.14,0,0,1,2.68-.9c.43-.1,1.07-2.7,1.07-2.8.22-.8,1-2.1.75-2.9-2.68-15.6-5.25-31.2-7.94-46.8-1.61-9.3-3.11-18.6-4.29-27.9-1.93-11.9-3.54-23.7-4.72-35.7a1.25,1.25,0,0,0-.54.5c-.53.7-1.07,1.3-1.61,2C29,111.7,27.14,113.5,27.35,114.1Z" transform="translate(-24.44)"/><path class="cls-1" d="M27,117q9.34,55.8,18.78,111.6c.64-1.9,1.18-3.8,1.83-5.6a24.85,24.85,0,0,0-4.51,6,3.9,3.9,0,0,0-.32,3.9c.64.9,1.28,1.7,1.93,2.6,1.07.8,2.14,1.6,3.32,2.4a38.39,38.39,0,0,0,9.56,3.4c8.69,2.1,17.92,2.2,26.82,2.2,11,0,21.9-.3,32.84-.6,6.33-.2,12.66-.3,19.1-.4,17.28.2,34.56.5,51.94.7,3,.1,6,.3,9,.4,10.08.4,20.17,1.1,30.26,1.2,8.26,0,16.85-.2,24.89-2.2,5.91-1.5,11.27-4.1,15.35-8.4,1.82-1.9,4-4.2,4.61-6.7a68.05,68.05,0,0,0,1.29-6.8c1.93-10.7,3-21.5,4.29-32.2,1.29-11.3,2.9-22.6,4-34,.53-6,.85-12.1,2-18.1.86-4.4,1.83-8.9,2.9-13.2,1.72-6.5,3.76-12.7,6-19.1.22-.5-.86.7-.75.6a6.48,6.48,0,0,0-1.5,2c-1.83,5.2-3.44,10.4-4.83,15.7-1.18,4.6-2.25,9.3-3.11,14a35.91,35.91,0,0,0-1.4,8.9c-.32,3-.43,6.1-.54,9.1-1.07,8.2-2,16.4-3.11,24.6-.75,6.6-1.5,13.1-2.36,19.7a106,106,0,0,1-2.25,14.1c-1.07,4.4-2.36,8.7-3.86,13-1,4.3-4,7.1-9,8.5a19,19,0,0,1-11.91,6.2c-3.11.5-6.12.9-9.23,1.2-18.78,1.5-37.67-.2-56.45-1-17.27-.7-34.44-.8-51.72-.4-6.33.1-12.66.4-19,.6-5.69.3-11.49.4-17.17.3a127.53,127.53,0,0,0-15.14-.3L65.45,240a29.89,29.89,0,0,1-14.38-5.3,10.84,10.84,0,0,1-4.29-3.8,8.55,8.55,0,0,1-.86-5.4c-1,1.4-1.93,2.7-2.9,4.1a3.08,3.08,0,0,1,2.79-.9c.43,0,1.07-2.7,1.07-2.8a8.38,8.38,0,0,0,.76-2.9c-2.69-15.6-5.26-31.2-8-46.8-1.61-9.3-3.11-18.6-4.29-27.9a253.35,253.35,0,0,1-4.08-35.8c0,.1-2.25,2.1-2.25,2.2C28.75,114.9,26.92,116.5,27,117Z" transform="translate(-24.44)"/><path class="cls-1" d="M24.56,114.1q9.5,55.8,18.89,111.6c.54-2.4,1.18-4.8,1.72-7.2a21.19,21.19,0,0,0-3.11,4.9,14.05,14.05,0,0,0-2,4.5,4.69,4.69,0,0,0,1.39,3.3A15.57,15.57,0,0,0,48,235.8c7.29,3.2,15.24,4.1,23.18,4.6,4.93.3,9.87.3,14.81.2,6.76-.1,13.41-.1,20.17-.2,12.77-.3,25.43-.7,38.2-.8,14-.1,27.8.2,41.75.8,12,.5,23.93,1.2,36,1.5a162.74,162.74,0,0,0,18.46-.6c6.33-.6,12.66-1.8,18.24-4.8a25,25,0,0,0,7-5.3c1.83-2,4-4.2,4.62-6.8a136.44,136.44,0,0,0,2.57-17.4c1.4-12.8,2.79-25.6,4.3-38.4.64-5.7,1.39-11.4,1.93-17.2.21-2.1.32-4.3.53-6.4,1.29-15.3,4.94-28.4,10.52-44a1.1,1.1,0,0,0-.54.4l-1.71,1.6a8.28,8.28,0,0,0-2,2.2A267.38,267.38,0,0,0,278,135.1c-.42,2-.85,4.1-1.18,6.1-.1,3.3-.42,6.7-.64,10s-.75,6.5-1.18,9.8c-1.39,10.3-2.58,20.7-3.43,31.1-.54,6.3-.86,12.6-1.83,18.8a75.72,75.72,0,0,1-2.68,11.9c-1.07,5.3-5.26,8.3-12.45,9.1a27.27,27.27,0,0,1-21.46,7.2,109.63,109.63,0,0,1-19,.3c-7.72-.3-15.56-.8-23.28-1.1q-35.25-1.65-70.51-.6c-8.9.2-17.81.8-26.72.6-2.47-.2-4.93-.3-7.51-.4a142,142,0,0,1-22.54-1.2c-5.9-1.3-13-3.8-17.06-8.5a11.1,11.1,0,0,1-2.68-8c-1.07,2-2.25,4.1-3.33,6.1a3.35,3.35,0,0,1,2.9-1c.43,0,1-3.5,1-3.5a14,14,0,0,0,.75-3.6c-2.69-15.6-5.26-31.2-7.94-46.8-1.61-9.3-3.12-18.6-4.3-27.9a319.23,319.23,0,0,1-4.29-36.4,2.92,2.92,0,0,0-.54.6c-.53.9-1.07,1.7-1.61,2.6C26.17,111.2,24.46,113.3,24.56,114.1Z" transform="translate(-24.44)"/><path class="cls-1" d="M28,115.6c7.08,36.9,13,74.1,19.21,111.1.32-1,.75-2,1.07-3a17,17,0,0,0-3.86,3.9,3.59,3.59,0,0,0-.33,3.6c.65.9,1.29,1.7,2,2.6,1.08.8,2.26,1.6,3.33,2.4,3.65,2.3,8.48,3.2,12.77,3.9,6.76,1.2,13.74,1.2,20.5,1.2,23.71-.1,47.43-1.3,71.14-1.3,13.63,0,27.26.4,41,1,11.59.5,23.18,1.4,34.77,1.3,13,0,28.43-.2,38.31-9.2,1.07-1.1,2-2.2,3.11-3.3l2.57-3.9a35.09,35.09,0,0,0,1.19-5.8c.85-5.6,1.61-11.3,2.25-16.9,1.5-13.4,3.22-26.8,4.72-40.2.86-7.3,1.61-14.6,2.47-21.9a66.69,66.69,0,0,1,1.93-13q.65-3.45,1.61-6.9c1.72-6.5,3.76-12.8,6-19.1.11-.2.11-.2-.11-.1-.75.6-1.18,1.4-1.82,2-.86,1-2.47,2.4-2.79,3.7-1.83,6-3.11,9.8-4.51,15.9a184.13,184.13,0,0,0-4.08,20c-.21,4.5-.64,9-1.07,13.5-.21,1.6-.43,3.1-.64,4.7-.76,4.6-1.29,9.2-1.83,13.8-.86,6.4-1.5,12.7-2.14,19.1-.76,7.5-1.4,15.1-3.55,22.4a51.9,51.9,0,0,1-3.64,9.6c-1.94,3.7-6.23,6.5-10.2,8.2-5,2.2-10.84,3.1-16.42,3.6s-11.8,1-17.6,1l-13.73-.6c-5.37-.3-10.73-.6-16.1-.8-13.31-.7-26.61-1.1-39.92-1-10.09.1-20.17.3-30.26.7-6,.3-11.91.5-17.92.8-5,.2-10.09.2-15,0-11,.2-22.53,2.1-33.16-1.5-4.83-1.6-12.66-4.7-10.84-11-.64.7-1.28,1.4-1.93,2,1-.3,1.83-.7,2.79-1,.43-.1,1.18-2.8,1.18-3.1-6.22-36.9-13-73.7-18-110.8a7,7,0,0,0-1.29,1.2C28.86,114.4,27.89,115.2,28,115.6Z" transform="translate(-24.44)"/><path class="cls-1" d="M27.78,113.6c6.33,37.2,12.45,74.5,18.78,111.7l3.87-10.8a44.94,44.94,0,0,0-7.3,13.2A4.79,4.79,0,0,0,45.6,232c4.61,4.2,12.44,5.5,18.45,6.3,9.34,1.3,18.78,1.2,28.23,1.2,11.59,0,23.07-.2,34.66-.4,13.84-.2,27.69-.3,41.64,0,12.55.3,25.11.9,37.66,1.4,9.34.4,18.78,1,28.23.7a86.69,86.69,0,0,0,18.35-2.1,30.24,30.24,0,0,0,13.63-7,29.22,29.22,0,0,0,5.58-7.2,32.33,32.33,0,0,0,.85-5.6c1.51-12.1,3.44-24.2,4.94-36.3.75-6.2,1.5-12.5,2.25-18.7.54-4.7,1.18-9.5,1.51-14.3A152.14,152.14,0,0,1,284,130.4a214.69,214.69,0,0,1,8.48-29.3,10.46,10.46,0,0,0-1.18,1c-1.29,1.4-2.68,2.7-4,4.1s-2.57,2.7-3.86,4.1a6.3,6.3,0,0,0-1,1.2c-2.79,10-5.26,20.2-7.08,30.4a68.69,68.69,0,0,0-1.4,12.3,13.44,13.44,0,0,1-.85,7.4c-.33,2-.65,4-1.08,5.9-.43,2.6-.75,5.1-1.18,7.7-.86,6.1-1.61,12.2-2.47,18.4-.43,3.2-.85,6.4-1.28,9.6-.54,2.9-1.18,5.9-1.83,8.8a64.27,64.27,0,0,1-4.08,9.7,16.34,16.34,0,0,1-5.79,6.7c-3.76,2.5-8.48,3.7-13,4.5-6.54,1.1-13.3,1.3-20,1.7a63.64,63.64,0,0,1-13.09-.1l-14.91-.9c-9-.5-17.93-1-26.94-1.3-14.06-.5-28.12-.3-42.17.1-11.7.3-23.5,1-35.2,0A85.5,85.5,0,0,0,76,231.5a38.8,38.8,0,0,1-12.24-1.6,19.58,19.58,0,0,1-7.83-3.1,45.87,45.87,0,0,0-4.4-3.3c-1.83-1.8-2.15-4.6-1.93-7-1.93,3.3-4,6.5-5.91,9.8a3.42,3.42,0,0,1,2.9-1.1,3.53,3.53,0,0,0,.54-1.1c.54-1.4,1.07-2.9,1.61-4.4s1.07-2.9,1.61-4.4a2.57,2.57,0,0,0,.32-1.2c-3.22-18.7-6.44-37.4-9.44-56.1q-1.46-9.3-2.9-18.6-1.61-17.7-2.9-35.4a7.15,7.15,0,0,0-.86.9c-1,1.2-2,2.5-3,3.7s-1.93,2.5-2.9,3.7A3.19,3.19,0,0,0,27.78,113.6Z" transform="translate(-24.44)"/><path class="cls-1" d="M26.82,115.4q9.33,55.95,18.78,112c1.61-4.4,3.22-8.8,4.93-13.2-2.68,5.7-5.26,11.4-7.94,17.1,0,.1-.11.2-.11.4a12.15,12.15,0,0,0,5.69,4.7,31.79,31.79,0,0,0,9.66,3c8.48,1.7,17.28,1.9,26,2,20.82.2,41.53-.6,62.35-.6,13.95,0,27.9.3,41.74.8,10.84.4,21.79,1.1,32.63,1.4a169.9,169.9,0,0,0,18.88-.2c6.44-.5,13.09-1.4,18.89-4.1a28.59,28.59,0,0,0,7.19-4.8,29.23,29.23,0,0,0,5.36-7.1c.22-1.3.43-2.6.54-3.9.22-1.7.43-3.5.65-5.2.75-5.9,1.93-11.8,2.68-17.7.86-6.5,1.72-13.1,2.57-19.6,1.18-9.3,2.69-18.7,3.22-28.1A150.42,150.42,0,0,1,283,132.7a203.73,203.73,0,0,1,8.48-29.4,4.85,4.85,0,0,0-1.07,1c-1.18,1.3-2.37,2.6-3.65,3.9s-2.36,2.6-3.54,4a4.19,4.19,0,0,0-.86,1.1c-2.79,10-5.26,20.1-7.09,30.3a80.43,80.43,0,0,0-1.39,12.3,14.43,14.43,0,0,1-.86,7.4c-1.18,4.4-1.61,9.2-2.25,13.7-.86,6.1-1.61,12.3-2.47,18.5-.43,3.2-.86,6.4-1.4,9.6-.64,2.9-1.39,5.9-2.14,8.8a70.47,70.47,0,0,1-4.4,10.1c-1.72,3.1-3.33,5.2-6.55,7-4.08,2.3-8.9,3.4-13.63,4.1-6.54.9-13.41,1.1-20.06,1.5-9.34.5-18.68-.4-27.91-1-9-.5-18-1-27-1.3-14.06-.5-28.11-.3-42.28,0-11.7.2-23.5.8-35.2-.6a109.48,109.48,0,0,0-14.06-1.5,29.53,29.53,0,0,1-11.37-2.3,20.45,20.45,0,0,1-6.87-3.3,29.85,29.85,0,0,0-3.86-3.3c-1.72-1.8-1.93-4.7-1.72-6.9-2.36,4-4.72,8.1-7.08,12.1a3.55,3.55,0,0,1,3-1,3.33,3.33,0,0,0,.65-1.4c.64-1.8,1.39-3.5,2-5.3s1.28-3.6,1.93-5.4a8.46,8.46,0,0,0,.43-1.5c-3.22-18.7-6.55-37.4-9.45-56.1-1-6.2-1.82-12.4-2.79-18.6l-2.25-35.1a5.31,5.31,0,0,0-1.07,1.1c-1.29,1.5-2.47,3-3.76,4.5s-2.47,3-3.65,4.5A2.71,2.71,0,0,0,26.82,115.4Z" transform="translate(-24.44)"/><path class="cls-1" d="M25.64,113.8Q35,169.6,44.42,225.5q1.61-5.7,3.22-11.4a17.81,17.81,0,0,0-1.08,2c-.43.8-5.69,11.1-5.58,11.9.32,4.5,6.33,6.9,10.2,8.3,7.51,2.5,15.77,3.3,23.71,3.7,5,.2,10.09.1,15.13.1,5.48,0,11,0,16.42-.1,12.77-.2,25.44-.6,38.21-.6,13.95,0,27.9.2,41.74.8,10.84.4,21.68,1.1,32.62,1.4,8.91.3,17.92.3,26.72-1.1,6-1,11.81-2.8,16.64-6.5a27.45,27.45,0,0,0,6-6.5,4.72,4.72,0,0,0,1.61-3.1,21.38,21.38,0,0,0,.53-2.8c1.83-11.8,3.54-23.7,4.94-35.5,1.39-11.3,2.9-22.6,4-34,.54-6,1-12,2-18a212,212,0,0,1,9-32.4,6.78,6.78,0,0,0-1,.8c-1.08,1.1-2.15,2.2-3.22,3.2l-3.22,3.3a5.42,5.42,0,0,0-.75.9c-2.9,10-5.37,20.1-7.3,30.4a53.17,53.17,0,0,0-1.39,12.3,13.41,13.41,0,0,1-.76,7.4c-.32,2-.64,4-1,5.9-.32,2.6-.75,5.1-1.08,7.7-.85,6.1-1.5,12.3-2.25,18.5-.32,3.3-.64,6.5-1,9.8-.43,3.1-1,6.1-1.4,9.2a77.91,77.91,0,0,1-3.65,10.9c-1.5,3.4-2.9,5.9-6.22,8.1a35,35,0,0,1-13.85,4.9c-6.65,1.1-13.52,1.3-20.17,1.7-9.34.5-18.67-.4-28-.9-9-.5-18-1-27-1.3-14.06-.5-28.22-.3-42.28,0-11.91.3-23.93,1.1-35.84.2a105.39,105.39,0,0,0-14.81-1,33.37,33.37,0,0,1-12.88-2,15.29,15.29,0,0,1-8.26-3.9c-1.4-1.4-2.9-2.8-4.4-4.1a6.48,6.48,0,0,1-1.51-4.4,6,6,0,0,1-.32-3.1c-1.72,3.4-3.54,6.9-5.26,10.3a3.41,3.41,0,0,1,2.9-1.1c.54-.1,1.72-5.5,1.72-5.6l1.29-4.5a5,5,0,0,0,.21-1.2c-3.22-18.7-6.44-37.4-9.44-56.1q-1.45-9.3-2.9-18.6c-1.18-11.8-2.15-23.7-2.79-35.5a3.93,3.93,0,0,0-.86,1c-1,1.3-1.82,2.6-2.68,3.9s-1.83,2.6-2.69,3.9A1.67,1.67,0,0,0,25.64,113.8Z" transform="translate(-24.44)"/><path class="cls-1" d="M24.46,115.4c6.54,37.2,12.66,74.4,19,111.6.64-2.6,1.4-5.3,2-7.9a27.4,27.4,0,0,0-3.65,6.1c-.54,1.1-1.82,2.9-1.82,4.1,0,1.7,1.18,3.3,2.46,4.5,1.08.8,2.26,1.6,3.33,2.3,1.5.6,2.9,1.3,4.4,1.9a56.52,56.52,0,0,0,14.17,3c4.61.5,9.33.7,14,.8,27.36.3,54.62-1.2,82-.9,14.38.2,28.76.8,43.14,1.5,9.45.4,18.89,1,28.33.7a87.64,87.64,0,0,0,18.46-2.1c6.76-1.7,12.66-4.9,17-10.1.85-1.3,1.82-2.6,2.68-3.9a28.89,28.89,0,0,0,1-4.2c.43-2.7.86-5.4,1.29-8.2,1.08-6.8,1.72-13.7,2.47-20.5,1.4-12.7,3-25.4,4.4-38.2.64-6,.86-12.2,1.72-18.2,1.82-12.1,5.47-23.8,9.55-35.4.21-.5-1.07.8-1,.6a9,9,0,0,0-2.14,2.3,255,255,0,0,0-7.3,26.5c-.64,3.1-1.29,6.1-1.83,9.2-.32,3.1-.42,6.2-.53,9.3-.11,3.6-.75,7.1-1.18,10.6-.54,4-1,8.1-1.5,12.1-1.18,9.6-2,19.3-3,29a127,127,0,0,1-1.93,12.8,90.2,90.2,0,0,1-3.33,12c-8.26,8.6-17.81,13-28.86,13.2-5.8.5-11.59.9-17.39,1-3.43-.1-6.87-.2-10.3-.4-9.55-.4-19.1-1-28.76-1.4-20.5-.8-41-.8-61.6-.3-8.91.2-17.81.8-26.72.5-5.15-.4-10.41-.6-15.56-.5-4.72-.5-9.55-1-14.27-1.4-7.94-1.6-19.85-7.4-18.78-16.7-1.18,2.3-2.47,4.6-3.65,6.9a3.35,3.35,0,0,1,2.9-1c.43,0,1.18-3.8,1.18-3.9.32-1.1,1.07-2.8.86-4-3.22-18.7-6.44-37.4-9.45-56.1-1-6.2-2-12.5-3-18.7-1.61-11.9-2.79-23.9-3.76-35.8a4.44,4.44,0,0,0-.64.7c-.65.9-1.29,1.8-1.83,2.7S24.24,114.6,24.46,115.4Z" transform="translate(-24.44)"/><path class="cls-1" d="M26.49,113.8q9.35,56,18.78,111.9c1.51-4.5,3-8.9,4.51-13.4-2.57,5.2-5.26,10.3-7.94,15.5a2.35,2.35,0,0,0,.21,2.2,13,13,0,0,0,5.69,4.5,39.17,39.17,0,0,0,9.55,3c8.48,1.8,17.17,2.1,25.87,2.2,11,.1,22.1,0,33.05-.2,26.72-.5,53.44-.3,80.16.9,10.09.5,20.17,1.1,30.26,1.1,7.41,0,15.13-.1,22.43-1.6,5.9-1.3,11.48-3.5,15.78-7.5a27.55,27.55,0,0,0,5.47-7.1,49.83,49.83,0,0,0,.86-5.5c.75-5.6,1.71-11.2,2.57-16.8,1-6.5,1.72-13,2.47-19.4s1.61-12.5,2.36-18.8c.54-4.7,1.29-9.5,1.5-14.3a150.42,150.42,0,0,1,2.47-19.6A214.69,214.69,0,0,1,291,101.6a5.44,5.44,0,0,0-1.18,1l-4.19,4.2c-1.39,1.4-2.79,2.8-4.18,4.3a10.5,10.5,0,0,0-1.07,1.2c-2.79,10.1-5.26,20.2-7.09,30.5a68.67,68.67,0,0,0-1.39,12.3,12.9,12.9,0,0,1-.86,7.3c-.32,2-.75,3.9-1.07,5.9-.43,2.6-.75,5.1-1.18,7.6-.86,6.1-1.61,12.3-2.47,18.4l-1.29,9.6c-.64,2.9-1.29,5.8-1.93,8.7a67.75,67.75,0,0,1-4.08,9.6,15.05,15.05,0,0,1-6,6.5c-3.86,2.4-8.58,3.5-13.09,4.2-6.55,1-13.31,1.2-20,1.6-9.34.5-18.67-.4-27.9-1-9-.5-18-1.1-26.94-1.4-14.06-.5-28.22-.3-42.28,0-11.8.2-23.5.8-35.2-.4a135.73,135.73,0,0,0-14.16-1.4,30.14,30.14,0,0,1-11.59-2.2,16.5,16.5,0,0,1-7.08-3.5A31.44,31.44,0,0,0,51,221.1a6.13,6.13,0,0,1-1.39-4,7.47,7.47,0,0,1-.33-3.1c-2.25,4.2-4.61,8.3-6.86,12.5a3.39,3.39,0,0,1,2.89-1.1,5.62,5.62,0,0,0,.65-1.4l1.93-5.4c.64-1.8,1.18-3.6,1.82-5.4a3.7,3.7,0,0,0,.33-1.5c-3.22-18.7-6.55-37.4-9.45-56.1-1-6.2-1.93-12.4-2.79-18.6-.86-11.8-1.71-23.6-2.36-35.4a4,4,0,0,0-1.07,1.2c-1.18,1.6-2.36,3.1-3.44,4.7s-2.25,3.1-3.43,4.7A6.77,6.77,0,0,0,26.49,113.8Z" transform="translate(-24.44)"/><path class="cls-1" d="M25.42,116.6c6.55,37.2,12.66,74.4,19,111.6.75-2.6,1.61-5.3,2.36-7.9a26.2,26.2,0,0,0-3.54,5.4c-.54,1-1.19,1.9-1.61,2.9-1,2.1-.86,3.2.64,5.2,2.15,2.7,5.47,4.4,8.8,5.5a69.42,69.42,0,0,0,11,2.6c9.44,1.4,19.1,1.1,28.54,1,27.15-.2,54.19-1.3,81.34-.6,13.42.4,26.72,1.1,40,1.6,7.83.3,15.67.6,23.5.2,6.76-.3,13.52-1,19.85-3.3a31.6,31.6,0,0,0,7.73-4.2,18.6,18.6,0,0,0,4.83-4.6c.86-1.3,1.82-2.6,2.68-3.8a27.43,27.43,0,0,0,1.18-5.9c.54-2.9,1.08-5.9,1.51-8.8,1-6.8,1.71-13.7,2.46-20.5,1.4-12.5,3.12-24.9,4.3-37.4.53-5.5.75-11,1.5-16.5A148.4,148.4,0,0,1,285,122.8c1.72-6.5,3.76-12.7,6-19.1.21-.5-1,.8-.86.6-.54.6-1.61,1.5-1.82,2.3-1.83,5.2-3.44,10.4-4.83,15.7-1.18,4.6-2.15,9.3-3.11,14a37.45,37.45,0,0,0-1.4,9c-.21,3-.43,6-.54,9-1.28,8.2-2.14,16.4-3.11,24.6-.53,4.9-1.18,9.8-1.61,14.7A139.3,139.3,0,0,1,271,212.4a133,133,0,0,1-3.65,12.9c-1.93,7.1-7.51,11.6-16.84,13.6a33.81,33.81,0,0,1-6.34,1.3c-15.34,2.2-30.79,1.4-46.25.7-19.74-1-39.38-1.7-59.23-1.4-9.77.1-19.43.5-29.19.7-10.84-.2-21.57-.4-32.41-.4a50.47,50.47,0,0,1-14-1.4,21.75,21.75,0,0,1-11.48-4.9c-1.29-1-2.69-2-4-3.1a9.42,9.42,0,0,1-2.47-7.7c-1.29,2.2-2.58,4.4-3.87,6.7a3.12,3.12,0,0,1,2.9-.9c.43,0,1.29-3.8,1.4-3.9.32-1,1.28-2.9,1.07-4-3.22-18.7-6.44-37.4-9.44-56.1-1-6.2-2-12.4-3-18.7-1.5-11.8-2.68-23.7-3.65-35.5a3.75,3.75,0,0,0-.64.6c-.75.8-1.4,1.7-2.15,2.6C27.68,113.6,25.31,115.9,25.42,116.6Z" transform="translate(-24.44)"/><path class="cls-1" d="M154,37.7a8.84,8.84,0,0,0-4.7,1.6,16.46,16.46,0,0,0-4.8,3.5,47.86,47.86,0,0,0-8,10.9c-.6,1.3-1.3,2.6-1.9,3.8A113,113,0,0,0,125,74.4c-1.3,2.9-2.6,5.9-4,8.8a149.23,149.23,0,0,0-6.3,18.1,5.56,5.56,0,0,0,1.7-.9c2-1.2,4.1-2.5,6.1-3.7s4.1-2.5,6.1-3.8a5.83,5.83,0,0,0,1.5-1.1,200.07,200.07,0,0,1,9.5-19.8,58,58,0,0,1,4.6-7.5,25.91,25.91,0,0,1,8.2-8.9c-.2,0-.3.1-.5.1a4.75,4.75,0,0,0,3.9-1.7,7.92,7.92,0,0,1,2.8-1.3,14.76,14.76,0,0,0,2.9-1.2,6.35,6.35,0,0,1,4.3,0,5.83,5.83,0,0,0-1.1-1.5c-1.6-1.8-3.1-3.7-4.7-5.5l-4.8-5.4A3.23,3.23,0,0,0,154,37.7Z" transform="translate(-24.44)"/><path class="cls-1" d="M154.54,35.6a8.84,8.84,0,0,0-4.7,1.6,15.12,15.12,0,0,0-4.7,3.6,48.7,48.7,0,0,0-7.8,10.8c-.6,1.2-1.3,2.5-1.9,3.7a101.8,101.8,0,0,0-9.8,16.9c-1.3,2.9-2.6,5.9-3.9,8.8a143.5,143.5,0,0,0-6.3,18.1,6.38,6.38,0,0,0,1.4-.8c1.7-1.2,3.3-2.3,5-3.5s3.3-2.4,4.9-3.6a3.18,3.18,0,0,0,1.2-1.1,191.9,191.9,0,0,1,9.7-20.5,76.82,76.82,0,0,1,4.7-7.8,27.87,27.87,0,0,1,8.7-9.7c-.1.1-.3.1-.4.2a8.57,8.57,0,0,0,4.8-2,10.71,10.71,0,0,1,3.5-1.4,18.54,18.54,0,0,0,3.3-1.2,8.36,8.36,0,0,1,4.7.1,5.26,5.26,0,0,0-1.2-1.4c-1.6-1.6-3.2-3.3-4.9-4.9s-3.3-3.2-4.9-4.8A5.26,5.26,0,0,0,154.54,35.6Z" transform="translate(-24.44)"/><path class="cls-1" d="M155.34,37.4a8.84,8.84,0,0,0-4.7,1.6,14.82,14.82,0,0,0-4.7,3.5A46.89,46.89,0,0,0,138,53.3c-.6,1.3-1.3,2.5-1.9,3.8a97.42,97.42,0,0,0-9.7,16.9c-1.3,2.9-2.6,5.9-3.9,8.8a161.8,161.8,0,0,0-6.4,18.1,5.56,5.56,0,0,0,1.7-.9c2-1.2,4.1-2.5,6.1-3.7s4-2.5,6-3.8a5.83,5.83,0,0,0,1.5-1.1,214.88,214.88,0,0,1,9.5-20,58.74,58.74,0,0,1,4.7-7.5,26.14,26.14,0,0,1,8.4-9.1c-.2,0-.3.1-.5.1a5.89,5.89,0,0,0,4.2-1.7,11.37,11.37,0,0,1,3-1.3,16.29,16.29,0,0,0,3.1-1.1,7.69,7.69,0,0,1,4.5.2,4.71,4.71,0,0,0-1.3-1.5l-5.1-5.4c-1.7-1.8-3.4-3.6-5.2-5.3A4.66,4.66,0,0,0,155.34,37.4Z" transform="translate(-24.44)"/><path class="cls-1" d="M155.24,37.5a9.89,9.89,0,0,0-4.4,1.7,13.94,13.94,0,0,0-4.4,3.6,60.36,60.36,0,0,0-8.7,10.9,222.69,222.69,0,0,0-11.6,21.5c-1.3,3-2.6,6-3.9,8.9a171.27,171.27,0,0,0-6.2,18.3c0-.1,2.1-1.3,2.1-1.4.5-.4,1.7-1,1.9-1.7,1-3,1.9-5.9,2.9-8.9,2.8-7.4,5.9-14.7,9.3-21.8a68.87,68.87,0,0,1,4.9-9.3,20,20,0,0,1,4.7-7.1c2.8-3,5.4-6.3,8.7-8.7a12.26,12.26,0,0,1,4-1.9,8.57,8.57,0,0,1,4.2-.5L157,39C157.14,39.2,155.74,37.4,155.24,37.5Z" transform="translate(-24.44)"/><path class="cls-1" d="M155.94,38.1a8.51,8.51,0,0,0-4.6,1.6,14.42,14.42,0,0,0-4.6,3.5,48,48,0,0,0-7.9,10.6c-.7,1.2-1.3,2.4-2,3.7a98.78,98.78,0,0,0-9.8,17c-1.3,3-2.6,5.9-4,8.9a169.21,169.21,0,0,0-6.4,18.1,3.69,3.69,0,0,0,1.4-.7c1.7-1,3.3-2,4.9-3s3.3-2.1,4.9-3.1a3.78,3.78,0,0,0,1.2-.9,222.14,222.14,0,0,1,9.1-20.6,63,63,0,0,1,4.5-8,31.43,31.43,0,0,1,8.2-10.3c-.1.1-.2.1-.4.2a7.4,7.4,0,0,0,4.4-2.4,10.62,10.62,0,0,1,3.3-1.8,30.9,30.9,0,0,0,3.2-1.4,8,8,0,0,1,4.6-.1,4,4,0,0,0-1-1.2l-4-4.3c-1.4-1.4-2.7-2.9-4.1-4.3A1.72,1.72,0,0,0,155.94,38.1Z" transform="translate(-24.44)"/><path class="cls-1" d="M155.14,34.4a8.73,8.73,0,0,0-4.5,1.6,15.54,15.54,0,0,0-4.5,3.6,50.8,50.8,0,0,0-8.5,10.5c-.6,1.2-1.3,2.3-1.9,3.5a97.27,97.27,0,0,0-9.9,17.5c-1.3,3-2.7,5.9-4,8.9a163.41,163.41,0,0,0-6.4,18.2,1.16,1.16,0,0,0,.7-.5c.8-.7,1.7-1.4,2.5-2.1s2.6-1.8,3-2.8A212.2,212.2,0,0,1,131,70.9q2.1-4.35,4.5-8.7a45.75,45.75,0,0,1,8.7-12.6,5.55,5.55,0,0,0-.8.6,39.72,39.72,0,0,0,3.5-2,38.16,38.16,0,0,1,5.8-3.7c1.9-.8,3.7-1.6,5.6-2.4a9.82,9.82,0,0,1,5.1-.2,3.45,3.45,0,0,0-.8-.9l-3.3-3c-1.1-1-2.2-2-3.3-2.9A2,2,0,0,0,155.14,34.4Z" transform="translate(-24.44)"/><path class="cls-1" d="M153.44,38.5a8.51,8.51,0,0,0-4.6,1.6,16,16,0,0,0-4.7,3.5,46.72,46.72,0,0,0-8,10.7c-.6,1.2-1.3,2.5-1.9,3.7a115.21,115.21,0,0,0-9.8,17c-1.3,2.9-2.6,5.9-4,8.8a169.21,169.21,0,0,0-6.4,18.1,5.39,5.39,0,0,0,1.3-.7c1.6-1,3.2-2.1,4.7-3.2s3.1-2.1,4.7-3.2a10.59,10.59,0,0,0,1.2-1,221.16,221.16,0,0,1,9.2-20.5,61.78,61.78,0,0,1,4.5-7.9,32.79,32.79,0,0,1,8.2-10.3c-.1.1-.2.1-.3.2a6.11,6.11,0,0,0,4.1-2.3,8.72,8.72,0,0,1,3.1-1.8,16.41,16.41,0,0,0,2.9-1.6,6.11,6.11,0,0,1,4.2-.3,4.18,4.18,0,0,0-.8-1.2l-3.3-4.2c-1.1-1.4-2.3-2.8-3.4-4.2A2.26,2.26,0,0,0,153.44,38.5Z" transform="translate(-24.44)"/><path class="cls-1" d="M156.54,37.1a9.3,9.3,0,0,0-4.6,1.5,13.72,13.72,0,0,0-4.5,3.5,52.1,52.1,0,0,0-8.2,10.5c-4.1,6.9-8.4,13.6-11.8,20.9-1.3,3-2.6,5.9-4,8.9a163.41,163.41,0,0,0-6.4,18.2,2.62,2.62,0,0,0,.9-.5l3.2-2.3c1.1-.8,2.1-1.6,3.1-2.4a2.7,2.7,0,0,0,.8-.7A215.87,215.87,0,0,1,136,69c1.5-2.9,3.1-5.8,4.6-8.7a44.72,44.72,0,0,1,9.7-10.2,26.23,26.23,0,0,1,6.8-4.1l2.4-.9a9.2,9.2,0,0,1,5.2,0,1.76,1.76,0,0,0-.8-.9l-3.2-3.2c-1.1-1-2.2-2.1-3.3-3.1A1.42,1.42,0,0,0,156.54,37.1Z" transform="translate(-24.44)"/><path class="cls-1" d="M152.54,34.7a8.51,8.51,0,0,0-4.6,1.6,14.72,14.72,0,0,0-4.6,3.6,50.84,50.84,0,0,0-8.4,10.7c-4.1,7-8.3,13.7-11.8,21.1-1.3,3-2.6,5.9-4,8.9a163.41,163.41,0,0,0-6.4,18.2,1.61,1.61,0,0,0,.7-.4c.7-.6,1.4-1.3,2.1-1.9s2.2-1.6,2.5-2.6a167.55,167.55,0,0,1,7.1-17.7,150.09,150.09,0,0,1,15.2-25.9,3,3,0,0,1-.7.5,30.24,30.24,0,0,0,3.3-2.1,35,35,0,0,1,5.5-4c1.8-.9,3.6-1.8,5.4-2.8a8.23,8.23,0,0,1,4.9-.5,1.56,1.56,0,0,0-.6-.8c-.8-.9-1.6-1.8-2.5-2.7C155.74,37.7,153.14,34.5,152.54,34.7Z" transform="translate(-24.44)"/><path class="cls-1" d="M152.84,37.2a8.24,8.24,0,0,0-4.6,1.6,14.82,14.82,0,0,0-4.7,3.5,49,49,0,0,0-8,10.7c-.6,1.2-1.3,2.5-1.9,3.7a102.7,102.7,0,0,0-9.8,17c-1.3,2.9-2.6,5.9-4,8.8a161.8,161.8,0,0,0-6.4,18.1,3.53,3.53,0,0,0,1.3-.8c1.6-1.1,3.1-2.3,4.7-3.4s3.1-2.3,4.7-3.5a10.59,10.59,0,0,0,1.2-1,223.68,223.68,0,0,1,9.5-20.5,76,76,0,0,1,4.6-7.8,29.92,29.92,0,0,1,8.5-9.9c-.1.1-.2.1-.4.2a6.12,6.12,0,0,0,4.3-2.1,13,13,0,0,1,3.1-1.6,10.32,10.32,0,0,0,3-1.4,6.34,6.34,0,0,1,4.3-.2,3.81,3.81,0,0,0-.9-1.3c-1.2-1.5-2.5-3-3.7-4.5s-2.5-3-3.8-4.5A2.59,2.59,0,0,0,152.84,37.2Z" transform="translate(-24.44)"/><path class="cls-1" d="M154.14,34a7.93,7.93,0,0,0-4.5,1.6,14.32,14.32,0,0,0-4.5,3.6,50.75,50.75,0,0,0-8.5,10.6c-4.1,6.9-8.4,13.7-11.8,21.1-1.3,3-2.7,5.9-4,8.9a163.41,163.41,0,0,0-6.4,18.2c.2-.1.5-.2.6-.4.7-.6,1.4-1.2,2-1.8a8.2,8.2,0,0,0,2.4-2.5,161.54,161.54,0,0,1,7.2-17.8A153.71,153.71,0,0,1,142,49.3a3,3,0,0,1-.7.5c3.1-2,6.1-4.4,9.3-6.1l5.7-2.7a9.19,9.19,0,0,1,5.2-.3,2.7,2.7,0,0,0-.7-.8c-.9-.9-1.9-1.8-2.9-2.7s-1.9-1.8-2.9-2.6Z" transform="translate(-24.44)"/><path class="cls-1" d="M153.34,38.3a8.23,8.23,0,0,0-4.2,2,14.19,14.19,0,0,0-4.2,3.9,61.18,61.18,0,0,0-8.4,10.6c-4.1,7-8.3,13.8-11.7,21.1-1.3,3-2.6,5.9-3.9,8.9a186,186,0,0,0-6.3,18.2,3.55,3.55,0,0,0,.9-.4l3-2.1c1-.7,2-1.4,3-2.2a2.34,2.34,0,0,0,.7-.7A258.73,258.73,0,0,1,132.64,72l4.2-8.7a83.91,83.91,0,0,1,8.8-10.9,44.31,44.31,0,0,1,6.2-5.1c.7-.5,1.4-1,2-1.5a6.55,6.55,0,0,1,4.5-1l-2.4-3.3C155.94,41.3,153.74,38.1,153.34,38.3Z" transform="translate(-24.44)"/><path class="cls-1" d="M155.94,34.9a7.93,7.93,0,0,0-4.5,1.6,15.2,15.2,0,0,0-4.5,3.5,50.8,50.8,0,0,0-8.5,10.5c-.7,1.2-1.3,2.3-2,3.5a104.65,104.65,0,0,0-9.9,17.6c-1.3,3-2.7,5.9-4,8.9a163.41,163.41,0,0,0-6.4,18.2,1.61,1.61,0,0,0,.7-.4c.8-.6,1.6-1.3,2.3-1.9s2.4-1.7,2.8-2.6c2.8-7.5,5.7-14.8,9.2-22q2.1-4.5,4.5-8.7a52.81,52.81,0,0,1,8.6-12.9,3.51,3.51,0,0,1-.8.5,23.94,23.94,0,0,0,3.4-2.1,33.5,33.5,0,0,1,5.9-3.9,59.6,59.6,0,0,1,5.8-2.5,10.6,10.6,0,0,1,5.3-.1,5.5,5.5,0,0,0-.7-.9c-1-1-2.1-1.9-3.2-2.8s-2.1-1.8-3.2-2.8A1,1,0,0,0,155.94,34.9Z" transform="translate(-24.44)"/><path class="cls-1" d="M153.74,38.2a12.42,12.42,0,0,0-6,2.6,42.53,42.53,0,0,0-6,6,70.37,70.37,0,0,0-4.2,5.8,190.06,190.06,0,0,0-12.7,23.5,220.79,220.79,0,0,0-10.1,27.1c-.2.5,1.1-.5,1-.5.6-.4,2.3-1.3,2.5-2.1a223.64,223.64,0,0,1,9.9-26.2c1.4-2.9,2.8-5.8,4.3-8.7a51.81,51.81,0,0,1,6.2-11c.7-1,1.5-2,2.2-3a19.2,19.2,0,0,1,5.4-5.6,9,9,0,0,1,5.6-4.4A7.51,7.51,0,0,1,156,41c.2,0-1.1-1.6-1-1.6C154.94,39.3,154.14,38.1,153.74,38.2Z" transform="translate(-24.44)"/><path class="cls-1" d="M152.34,35.9a8.51,8.51,0,0,0-4.6,1.6A16,16,0,0,0,143,41a50.23,50.23,0,0,0-8.1,10.7c-.7,1.2-1.3,2.4-2,3.6a105.42,105.42,0,0,0-9.8,17.3c-1.3,3-2.6,5.9-4,8.9a169.21,169.21,0,0,0-6.4,18.1,2.36,2.36,0,0,0,.9-.6c1-.8,2-1.7,3.1-2.5s2-1.7,3-2.6a2.7,2.7,0,0,0,.7-.8,202.27,202.27,0,0,1,11.5-25.6c1.6-2.8,3.1-5.6,4.7-8.4a73.35,73.35,0,0,1,9.8-9.5,12.42,12.42,0,0,1,2.3-1.7,14.71,14.71,0,0,1,3.9-2.1l2.1-1.2a7.26,7.26,0,0,1,4.6-.4,2.07,2.07,0,0,0-.6-1c-.9-1.1-1.8-2.2-2.8-3.3s-1.9-2.2-2.8-3.2A3,3,0,0,0,152.34,35.9Z" transform="translate(-24.44)"/><path class="cls-1" d="M156.14,35.3a11,11,0,0,0-5.9,2.7c-1,.9-1.9,1.8-2.9,2.7a54.79,54.79,0,0,0-7.6,9.1,149.6,149.6,0,0,0-10.9,19.1,135.23,135.23,0,0,0-6.2,13.4,189.77,189.77,0,0,0-6.3,18.4c-.1.4.8-.3.7-.2.4-.3,1.3-.9,1.5-1.4A196.3,196.3,0,0,1,127,76.6a89.55,89.55,0,0,1,4.3-8.8c2.4-4.8,5-9.5,7.9-14.1a62,62,0,0,1,5.3-6.2,19.22,19.22,0,0,1,11.2-8,9.38,9.38,0,0,1,4.4-.5l-1.8-1.9C157.94,36.7,156.64,35.2,156.14,35.3Z" transform="translate(-24.44)"/><path class="cls-1" d="M155.94,36.3a9.67,9.67,0,0,0-4.7,1.5,14.45,14.45,0,0,0-4.7,3.5,50.87,50.87,0,0,0-7.8,10.6c-.7,1.2-1.3,2.4-2,3.6a87.24,87.24,0,0,0-9.8,17c-1.3,2.9-2.6,5.9-4,8.8a161.8,161.8,0,0,0-6.4,18.1,5.39,5.39,0,0,0,1.3-.7c1.6-1,3.1-2.1,4.7-3.2s3.1-2.2,4.6-3.3a5.24,5.24,0,0,0,1.1-1c2.9-7.1,5.9-14,9.5-20.8a79,79,0,0,1,4.6-8,31.26,31.26,0,0,1,8.6-10.2c-.1.1-.2.1-.4.2a10.1,10.1,0,0,0,4.9-2.3,11.66,11.66,0,0,1,3.6-1.6c1.2-.4,2.3-.8,3.5-1.2a9.07,9.07,0,0,1,4.9.1,6.89,6.89,0,0,0-1.1-1.3c-1.5-1.5-3-3-4.6-4.4s-3.1-2.9-4.6-4.4A4,4,0,0,0,155.94,36.3Z" transform="translate(-24.44)"/><path class="cls-1" d="M154.94,38.6a8,8,0,0,0-4.7,1.5,14.52,14.52,0,0,0-4.8,3.4,46,46,0,0,0-8,10.7c-.6,1.3-1.3,2.5-1.9,3.8a98.3,98.3,0,0,0-9.7,17c-1.3,2.9-2.6,5.9-4,8.8a169.21,169.21,0,0,0-6.4,18.1,4.81,4.81,0,0,0,1.6-.8c1.9-1.1,3.8-2.2,5.7-3.4s3.8-2.3,5.6-3.5a7.1,7.1,0,0,0,1.4-1,215.84,215.84,0,0,1,9.2-20.2,59.5,59.5,0,0,1,4.5-7.7,28.87,28.87,0,0,1,8.1-9.6c-.1,0-.3.1-.4.1a5.16,5.16,0,0,0,4-2.1,8.7,8.7,0,0,1,3-1.6c1-.4,2-.8,3-1.3a6.94,6.94,0,0,1,4.5,0,7.1,7.1,0,0,0-1-1.4l-4.2-4.8-4.2-4.8A7.41,7.41,0,0,0,154.94,38.6Z" transform="translate(-24.44)"/><path class="cls-1" d="M153.54,36.5a8,8,0,0,0-4.7,1.5,14.83,14.83,0,0,0-4.8,3.5,43.61,43.61,0,0,0-7.9,10.7c-.6,1.2-1.3,2.5-1.9,3.7a98.78,98.78,0,0,0-9.8,17c-1.3,2.9-2.6,5.9-4,8.8A161.8,161.8,0,0,0,114,99.8a10,10,0,0,0,1.4-.8l4.8-3.6c1.6-1.2,3.2-2.4,4.7-3.6a6.28,6.28,0,0,0,1.2-1.1,201.52,201.52,0,0,1,9.7-20.5,76.82,76.82,0,0,1,4.7-7.8,28.89,28.89,0,0,1,8.7-9.7c-.5.2-1,.3-1.6.5a9,9,0,0,0,5.7-2.2,12.15,12.15,0,0,1,3.3-1.4,16.59,16.59,0,0,0,3.1-1.2,7.33,7.33,0,0,1,4.4.1,6.42,6.42,0,0,0-1-1.3c-1.4-1.6-2.8-3.2-4.2-4.7s-2.8-3.1-4.3-4.7A2.37,2.37,0,0,0,153.54,36.5Z" transform="translate(-24.44)"/><path class="cls-1" d="M151.94,37.4a8.51,8.51,0,0,0-4.6,1.6,14.72,14.72,0,0,0-4.6,3.6,47.7,47.7,0,0,0-8.1,10.8c-4,7-8.3,13.7-11.7,21-1.3,3-2.6,5.9-3.9,8.9a162.91,162.91,0,0,0-6.3,18.2,4.05,4.05,0,0,0,.9-.5c1.1-.8,2.1-1.6,3.1-2.4s2.1-1.6,3.1-2.5a1.78,1.78,0,0,0,.7-.8,239,239,0,0,1,11-25.5c1.5-2.8,3-5.7,4.5-8.5,2.9-3.4,6-6.7,9.2-9.9a32.36,32.36,0,0,1,5.9-4.4c.7-.4,1.4-.9,2.1-1.3a7.33,7.33,0,0,1,4.6-.6,4.05,4.05,0,0,0-.5-.9c-.7-1-1.5-2-2.3-3C154.84,41,152.44,37.3,151.94,37.4Z" transform="translate(-24.44)"/><path class="cls-1" d="M154.34,36.5a8.84,8.84,0,0,0-4.7,1.6,16.46,16.46,0,0,0-4.8,3.5,44.67,44.67,0,0,0-7.9,10.9c-.6,1.3-1.3,2.5-1.9,3.8a108.23,108.23,0,0,0-9.6,16.9c-1.3,2.9-2.6,5.9-3.9,8.8a143.5,143.5,0,0,0-6.3,18.1,7,7,0,0,0,1.7-.9l6-3.9c2-1.3,3.9-2.6,5.9-4a4.43,4.43,0,0,0,1.5-1.2,166.85,166.85,0,0,1,9.8-19.9,52.08,52.08,0,0,1,4.8-7.4,25.84,25.84,0,0,1,8.5-8.9c-.2,0-.3.1-.5.1a6,6,0,0,0,4.3-1.6,9.43,9.43,0,0,1,3-1.2,9.77,9.77,0,0,0,3-1.1,7.33,7.33,0,0,1,4.4.2,10.1,10.1,0,0,0-1.3-1.6c-1.7-1.8-3.4-3.7-5.1-5.5s-3.5-3.6-5.2-5.5A12.49,12.49,0,0,1,154.34,36.5Z" transform="translate(-24.44)"/><path class="cls-1" d="M152.44,38.2a8.23,8.23,0,0,0-4.2,2,14.54,14.54,0,0,0-4.3,3.9,54.31,54.31,0,0,0-8.4,10.7A241.65,241.65,0,0,0,123.94,76c-1.3,3-2.6,5.9-3.9,8.9a186,186,0,0,0-6.3,18.2,2,2,0,0,0,.8-.4c.9-.6,1.9-1.3,2.8-2,.7-.5,3-1.7,3.4-2.7a270.79,270.79,0,0,1,10.4-25.7c1.4-2.9,2.8-5.8,4.2-8.8A87,87,0,0,1,144,52.2a16.66,16.66,0,0,1,2.3-2.3,18.46,18.46,0,0,1,3.9-3c.7-.5,1.4-1.1,2.1-1.6a7.29,7.29,0,0,1,4.5-1.2s-2.1-3-2-3C154.64,40.8,152.84,38,152.44,38.2Z" transform="translate(-24.44)"/><image class="cls-2" width="475" height="567" transform="translate(102.21) scale(0.24)" xlink:href="../../../../Desktop/4BDCBAC5F33D22B.png"/><image class="cls-2" width="475" height="567" transform="translate(58.22 0.06) scale(0.24)" xlink:href="../../../../Desktop/4BDCBAC5F33D22E.png"/><path class="cls-1" d="M173.14,51.5c.8.2,1.6.4,2.3.6l-1.5-1.2c.9.8,1.9,1.6,2.8,2.4-3.6-3.7-7.3-7.3-10.9-11L177,54.4c-3.3-3.9-6.6-7.8-9.9-11.8,4.2,7,8.3,13.9,12.5,20.9-2.2-4.7-4.3-9.3-6.5-14,3.1,8.1,6.5,16.1,10.1,23.9,2.2,5.1,4.1,10.3,5.8,15.6-.1-.2-.1-.3-.2-.5.8,2.8,1.6,5.5,2.4,8.3,0-.2-.1-.3-.1-.5.7,2.8,1.3,5.6,2,8.4a6.08,6.08,0,0,0,.1-1.9c0-2.4-.1-4.8-.1-7.1s-.1-4.8-.2-7.1a6.15,6.15,0,0,0-.2-1.9,146.35,146.35,0,0,0-6.3-15.4c-2.3-5-4.9-9.9-7.6-14.6a21.29,21.29,0,0,0-3.9-5.7c-2.9-3-5.8-6.1-8.9-9-1.9-1.8-3.9-2.1-6.5-2.4a5.35,5.35,0,0,0,1.3,1.3l5.3,4.7c1.8,1.6,3.6,3.1,5.4,4.6A6.1,6.1,0,0,0,173.14,51.5Z" transform="translate(-24.44)"/><path class="cls-1" d="M173.84,49.5c.8.2,1.5.3,2.3.5-.1-.1-.2-.2-.3-.2l1.7,1.4c-3-3.6-6-7.1-9-10.7,3.7,5.1,7.3,10.1,11,15.2-2.3-3.9-4.6-7.7-6.9-11.6,3,7.9,6.3,15.7,9.8,23.4,1.7,3.7,3.2,7.4,4.6,11.3a220.93,220.93,0,0,1,6.9,23.7,7.72,7.72,0,0,0,.2-1.5c0-1.9.1-3.7.1-5.6V89.8a7.57,7.57,0,0,0-.1-1.5,244.15,244.15,0,0,0-12.5-30.5,58.5,58.5,0,0,0-5.5-9,68.21,68.21,0,0,0-5.1-6.9c-2-2.2-4.7-2.8-7.5-3.2a4,4,0,0,0,1,1.2c1.4,1.4,2.8,2.9,4.2,4.3l4.2,4.2A1.94,1.94,0,0,0,173.84,49.5Z" transform="translate(-24.44)"/><path class="cls-1" d="M174.44,51.1c.8.2,1.6.4,2.3.5-.1-.1-.3-.2-.4-.3.6.5,1.1,1,1.7,1.5-4.1-4.5-8.2-9-12.4-13.5,4.8,6,9.5,12.1,14.3,18.1-3.3-5-6.6-10-9.9-14.9,3.6,6.8,7.2,13.7,10.8,20.5-2.2-5-4.4-10-6.5-15,4.6,10.9,9.1,21.9,13.4,33-.1-.2-.1-.3-.2-.5.9,2.7,1.9,5.4,2.8,8.1,0-.2-.1-.3-.1-.5,1.7,5.3,3.1,10.7,4.3,16.2a12.25,12.25,0,0,0,.2-1.9c.1-2.5.1-4.9.1-7.4V87.6a13.4,13.4,0,0,0-.1-2c-4.1-10.8-8.4-21.4-15.3-30.9-1.8-2.4-3.7-4.8-5.6-7.2-1.8-2.2-3.7-5-5.7-7-2.2-2.1-4.9-2.7-7.8-3a6.73,6.73,0,0,0,1.4,1.5c1.8,1.8,3.7,3.6,5.6,5.4s3.7,3.6,5.6,5.3A4,4,0,0,0,174.44,51.1Z" transform="translate(-24.44)"/><path class="cls-1" d="M176.24,53.2c.8.2,1.5.3,2.3.5l-.9-.6,2.2,1.9c-2-2.1-4-4.3-5.9-6.4,2.2,2.6,4.3,5.2,6.5,7.8-1.7-2.3-3.4-4.5-5.1-6.8l6,9.3c-1.4-2.4-2.8-4.7-4.2-7.1,1.6,3.3,3.2,6.5,4.8,9.8-1-2.2-2-4.4-3-6.7,1.2,3.1,2.3,6.3,3.5,9.4-.7-2.3-1.5-4.6-2.2-6.8.9,3.4,1.9,6.7,2.9,10.1,1.7,3.7,3.3,7.5,4.7,11.3a197.66,197.66,0,0,1,8.1,27.2c.2.9.4-2.5.4-2,.1-1.3.2-2.6.2-3.9a6.7,6.7,0,0,0,0-2,220.59,220.59,0,0,0-8.1-23.7c-2.5-6-4.9-12.1-8.2-17.8.8,2.5,1.7,5,2.5,7.5-1-3.7-.8-7.3-3-10.1-1.3-1.6-2.8-3.2-4.2-4.7a17,17,0,0,0-1.9-1.9,9.15,9.15,0,0,0-4.5-1.4,2.7,2.7,0,0,0,.7.8c1,.9,1.9,1.9,2.9,2.8l3,2.7A.64.64,0,0,0,176.24,53.2Z" transform="translate(-24.44)"/><path class="cls-1" d="M175,51.9l2.4.6c-.1-.1-.3-.2-.4-.3.6.5,1.2,1,1.7,1.5-3.7-4.1-7.4-8.1-11.1-12.2,4.4,5.6,8.7,11.2,13.1,16.8-2.9-4.5-5.8-9-8.8-13.5,3.2,6.3,6.4,12.7,9.6,19-1.9-4.5-3.7-9-5.6-13.4,4.2,10.4,8.3,20.8,12.4,31.3-.1-.1-.1-.3-.2-.4.9,2.7,1.8,5.4,2.8,8.1,0-.1-.1-.3-.1-.4.8,2.7,1.6,5.5,2.4,8.2,0-.1-.1-.3-.1-.4.7,2.8,1.3,5.5,2,8.3a5,5,0,0,0,.2-1.7c.1-2.1.2-4.3.2-6.4s.1-4.3.2-6.4a4.88,4.88,0,0,0-.1-1.7,150.51,150.51,0,0,0-6.2-15.7c-2.3-5.1-4.8-10.1-7.6-15-1.7-2.5-3.6-4.9-5.4-7.3-2.1-2.6-4-5.6-6.4-7.9-2.2-2.1-4.9-2.7-7.8-3.1a8.06,8.06,0,0,0,1.2,1.4c1.7,1.6,3.3,3.2,5,4.8l5.1,4.8C174,51.2,174.54,51.6,175,51.9Z" transform="translate(-24.44)"/><path class="cls-1" d="M175.74,49.7c1.1.5,2.2.9,3.3,1.4-1.6-2-3.1-4-4.7-5.9,1.7,2.4,3.5,4.8,5.2,7.2-1.2-1.8-2.3-3.6-3.5-5.5,1.4,2.7,2.9,5.4,4.3,8-.9-1.8-1.8-3.7-2.7-5.5,1.1,2.8,2.2,5.6,3.3,8.3-.7-1.9-1.3-3.7-2-5.6,1.1,3.8,2.1,7.7,3,11.5q2.4,5.7,4.5,11.4a215.58,215.58,0,0,1,8,27.1c.2.8.3-2.1.3-1.6.1-1.4.5-3.4.1-4.8-1.8-6.6-3.8-13.1-6.2-19.6-3-8.1-6.2-16.2-9.4-24.2.7,2,1.4,4.1,2.2,6.1-.4-2-.6-4.2-1.6-6a50.41,50.41,0,0,0-3.1-4.9,9.28,9.28,0,0,0-2.7-2.9c-1.8-1.3-2.4-1.3-4.5-1.7a2.18,2.18,0,0,0,.5.8c.8.9,1.6,1.9,2.4,2.8s1.7,1.8,2.5,2.7C175.24,49.4,175.44,49.6,175.74,49.7Z" transform="translate(-24.44)"/><path class="cls-1" d="M172.74,52.5c.8.2,1.5.3,2.3.5-1-.8-2-1.5-3-2.3,1.4,1.2,2.9,2.4,4.3,3.5-2.9-2.7-5.8-5.5-8.8-8.2,3.1,3.2,6.1,6.4,9.2,9.6-2.7-3-5.3-6-8-9,3.5,5.9,6.9,11.8,10.4,17.7-1.7-3.7-3.5-7.3-5.2-11,2.2,5.8,4.6,11.5,7.2,17.2a119.85,119.85,0,0,1,4.6,11.2,213.63,213.63,0,0,1,6.8,23.3c.1.4.1.4.2,0a22.62,22.62,0,0,0-.1-5.2c-.1-2.1-.2-4.2-.3-6.2a8.31,8.31,0,0,0-.3-2.7,231.8,231.8,0,0,0-9.1-22.6,151.06,151.06,0,0,0-7.7-14.3c1.1,3.1,2.2,6.3,3.3,9.4l-3.6-10.5a5.24,5.24,0,0,0-1-1.1l-4.2-3.6c-1.4-1.2-2.8-2.4-4.2-3.5a8.34,8.34,0,0,0-1.2-.8,21.05,21.05,0,0,0-2.5-.2,4.74,4.74,0,0,0,1,1c1.4,1.2,2.8,2.3,4.2,3.5s2.8,2.3,4.3,3.4A8,8,0,0,0,172.74,52.5Z" transform="translate(-24.44)"/><path class="cls-1" d="M176,51.3c.8.2,1.5.3,2.3.5-.1-.1-.2-.1-.3-.2a21,21,0,0,0,1.7,1.4c-2.7-3.3-5.5-6.6-8.2-9.9,3.4,4.8,6.8,9.6,10.1,14.4-2-3.5-4.1-7.1-6.1-10.6,2.1,4.2,4.1,8.3,6.2,12.5-1.4-3-2.7-6.1-4.1-9.1q3.45,8.7,6.6,17.4c1.6,4.4,3.2,8.7,4.9,13a220.38,220.38,0,0,1,6.8,23.7,2.54,2.54,0,0,0,.2-1.2c.1-1.5.2-3.1.3-4.6s.6-4.2.1-5.9a240.9,240.9,0,0,0-12-30.9,68.48,68.48,0,0,0-6.2-10.8c-1.5-2.1-2.9-4.6-4.8-6.5a17.33,17.33,0,0,0-2.1-1.7,11,11,0,0,0-5.1-1.6,3.13,3.13,0,0,0,.9,1.1c1.2,1.3,2.5,2.7,3.8,4s2.5,2.6,3.8,3.9A4.15,4.15,0,0,0,176,51.3Z" transform="translate(-24.44)"/><path class="cls-1" d="M173.64,50.5c.7.2,1.4.3,2.1.5l-1.5-1.2,2.7,2.4c-.6-.7-1.3-1.4-1.9-2.1,2.5,3.5,3,6.1,3.7,10a42.58,42.58,0,0,0,1,4.9c1.4,5.1,3.8,10,5.6,15a233,233,0,0,1,6.5,23.1c.2.7.3.1.3-.3a7.62,7.62,0,0,0-.2-3,239.72,239.72,0,0,0-8.3-26.1c-1.7-4.5-3.1-9.1-4.6-13.6.2.8.4,1.6.6,2.3-.3-3.3-.3-7.4-2.4-10.3-.5-.6-1-1.2-1.6-1.8a9.72,9.72,0,0,0-4.9-2.8c-.6-.2.7,1.1.6.9C171.94,49,172.94,50.3,173.64,50.5Z" transform="translate(-24.44)"/><path class="cls-1" d="M172.34,51.4c.7.2,1.5.3,2.2.5l-1.1-.8c.8.7,1.6,1.3,2.4,2-2.6-2.6-5.2-5.1-7.8-7.7,2.7,3,5.5,6,8.2,9-2.3-2.8-4.6-5.5-6.9-8.3,2.8,4.4,5.5,8.9,8.3,13.3-1.7-3.2-3.4-6.3-5.1-9.5,1.8,4.1,3.7,8.2,5.5,12.2-1.3-3-2.6-6.1-3.9-9.1,1.5,4.2,3.1,8.3,4.7,12.5a121.66,121.66,0,0,1,4.8,11.2,211.57,211.57,0,0,1,8.2,27.1c.1.4.1.3.2,0v-1.1c0-1.2-.1-2.5-.1-3.7l-.3-5.7a7.15,7.15,0,0,0-.3-2.5c-2.1-6.1-3-9-5.4-14.9-1.1-2.5-2.1-4.9-3.2-7.4a131.81,131.81,0,0,0-7.2-14.6c1.2,3.9,2.4,7.7,3.6,11.6-1.5-6.2-.4-9.7-3.7-13.3-1.5-1.6-3-3.1-4.5-4.6-1-1-2.1-2.2-3.2-3.1-1.5-1.1-3.2-1.2-5-1.4a4.3,4.3,0,0,0,.9,1c1.3,1.1,2.5,2.2,3.8,3.3s2.6,2.2,3.9,3.2A3.92,3.92,0,0,0,172.34,51.4Z" transform="translate(-24.44)"/><path class="cls-1" d="M175.14,49.7c.7.1,1.4.2,2,.3-.2-.1-.3-.2-.5-.3.6.5,1.2,1,1.8,1.6l-3-3.6c1.2,1.7,2.4,3.5,3.7,5.2-.7-1.1-1.4-2.2-2-3.3,1.5,4.8,2.9,9.7,4.2,14.6a324.17,324.17,0,0,1,12.1,38.5c.1.6.3-1.3.3-1a10.07,10.07,0,0,0-.1-3c-3.5-13.8-8.3-27.3-13.2-40.7.2,1.1.4,2.2.7,3.3a38.16,38.16,0,0,0-.9-5.9,16.74,16.74,0,0,0-2.3-5.3c-.7-.9-1.4-1.8-2.1-2.6-1.5-1.6-2.7-1.7-4.7-2.2a.86.86,0,0,0,.3.6c.5.6,1.1,1.2,1.6,1.8C173.34,48,174.44,49.6,175.14,49.7Z" transform="translate(-24.44)"/><path class="cls-1" d="M174,53.8c.7.2,1.5.3,2.2.5l-2.3-1.7c1,.8,2,1.6,3,2.5l-6.7-6.4c2.9,3.6,5.8,7.2,8.6,10.8-1.7-2.5-3.5-5-5.2-7.5,1.6,2.9,3.3,5.8,4.9,8.7-1.2-2.2-2.3-4.4-3.5-6.5,1.6,3.6,3.2,7.2,4.7,10.8-1.1-2.6-2.2-5.1-3.2-7.7,1.3,3.7,2.6,7.3,3.9,11,1.8,3.7,3.3,7.4,4.8,11.2a211.57,211.57,0,0,1,8.2,27.1c.1.4.1.2.2,0a2.77,2.77,0,0,1,.1-.9v-3c0-1.6,0-3.1-.1-4.7a6.48,6.48,0,0,0-.2-2c-2.1-6.4-4.2-12.8-6.8-19-1-2.5-2.1-5-3.2-7.5-1.6-3.8-3.5-7.5-5.5-11.2.9,3.3,1.9,6.5,2.8,9.8-.3-1.8-.6-9.5-3-12.6a40.76,40.76,0,0,0-3.6-3.6,29.84,29.84,0,0,0-3.7-3.4c-1.6-1.1-2.8-1.1-4.7-1.3a3,3,0,0,0,.8.8l3.3,2.7c1.1.9,2.2,1.7,3.3,2.6A4.05,4.05,0,0,0,174,53.8Z" transform="translate(-24.44)"/><path class="cls-1" d="M175.84,49.4c1.2.6,2.5,1.2,3.7,1.8-1.7-2.2-3.4-4.5-5.1-6.7,2,2.7,3.9,5.5,5.9,8.2-1.3-2.1-2.6-4.2-3.9-6.2,1.6,2.9,3.1,5.8,4.7,8.8-1-2.1-2-4.2-3.1-6.3,1.2,3,2.4,6,3.7,9-.8-2.1-1.5-4.2-2.3-6.3q1.8,6.15,3.3,12.3c1.6,3.8,3.1,7.6,4.5,11.5a200.09,200.09,0,0,1,8,27.1c.2.8.4-2.2.4-1.8.1-1.1.1-2.3.2-3.4V95.6q-2.1-8.1-4.8-15.9c-1.9-5.2-3.9-10.3-5.9-15.4-2.4-6.3-3-9.3-5.9-14a32.92,32.92,0,0,0-3-4.6,11.5,11.5,0,0,0-2.3-2.1,10,10,0,0,0-4.9-2,1.8,1.8,0,0,0,.6.9c.9,1.1,1.8,2.1,2.7,3.1s1.8,2.1,2.7,3.1A2.7,2.7,0,0,0,175.84,49.4Z" transform="translate(-24.44)"/><path class="cls-1" d="M174.94,54.1c.7.2,1.5.3,2.2.5-1-.8-2.1-1.6-3.1-2.4,1.3,1.1,2.7,2.2,4,3.4-1.5-1.4-2.9-2.9-4.4-4.3,1.8,2.1,3.7,4.2,5.5,6.3l-4.2-5.1c1.5,2.2,2.9,4.4,4.4,6.6-.9-1.5-1.8-3-2.8-4.5,1.5,3.6,3,7.3,4.5,10.9-.6-1.8-1.2-3.7-1.8-5.5.8,2.9,1.6,5.7,2.4,8.6,1.6,3.8,3.2,7.6,4.6,11.4a216,216,0,0,1,8.1,27.1c.2.8.3-2.2.3-1.8,0-1.1.1-2.3.1-3.4a10.87,10.87,0,0,0-.1-1.8c-1.9-6.6-3.9-13.1-6.4-19.5s-5.1-12.9-7.8-19.3c.5,2.2.9,4.4,1.4,6.6-.5-2.9-.8-9.1-3.1-12a16,16,0,0,0-2.6-2.6,32,32,0,0,0-2.7-2.5,9.3,9.3,0,0,0-4.6-1.5.9.9,0,0,0,.6.6c.8.7,1.6,1.3,2.4,2C172.44,52.4,173.84,53.9,174.94,54.1Z" transform="translate(-24.44)"/><path class="cls-1" d="M173.14,51.3l2,.3-.6-.3c.5.4.9.8,1.4,1.2-1.1-1.2-2.2-2.4-3.4-3.6,1.4,1.8,2.9,3.6,4.3,5.4-.9-1.3-1.9-2.5-2.8-3.8,1.9,4.9,3.6,9.8,5,14.8,1.5,3.7,3,7.5,4.4,11.3a209.33,209.33,0,0,1,8,27c.2.8.2-2.2.2-1.8a21.55,21.55,0,0,0-.3-5.1c-1.8-6.4-3.8-12.7-6.2-18.9s-4.7-12.5-7-18.7c.3,1.5.6,3.1.9,4.6-.4-2.8-.7-8.1-2.6-11-.6-.8-1.3-1.5-1.9-2.2a20.82,20.82,0,0,0-2.1-2.1,7.06,7.06,0,0,0-4.2-1.4,2.09,2.09,0,0,0,.4.6c.6.6,1.3,1.2,2,1.8C171,49.7,172.24,51.2,173.14,51.3Z" transform="translate(-24.44)"/><path class="cls-1" d="M177.24,51.1c1.2.6,2.5,1.2,3.7,1.8l-4.3-5.5c1.7,2.4,3.4,4.7,5,7.1-1-1.7-2.1-3.4-3.1-5.1,1.3,2.6,2.6,5.1,4,7.7l-2.4-5.1c1,2.6,2,5.2,3,7.9-.6-1.7-1.1-3.3-1.7-5,1,3.6,1.9,7.2,2.6,10.9,1.6,3.8,3.1,7.7,4.5,11.5a213.65,213.65,0,0,1,8,27.3c.1.6.4-1.4.4-1.1a13,13,0,0,0,.2-3.4,155.9,155.9,0,0,0-4.5-16.2c-1.8-5.3-3.8-10.5-5.8-15.7s-3.8-10.3-5.7-15.5c-.2-.4-.5-.7-.7-1.1a49.45,49.45,0,0,0-3.5-4.5c-1.6-1.8-3.3-2.1-5.4-2.7a2.18,2.18,0,0,0,.5.8c.7.9,1.5,1.7,2.2,2.6C174.74,48.5,176.24,50.8,177.24,51.1Z" transform="translate(-24.44)"/><path class="cls-1" d="M174.84,49.9c.8.2,1.6.4,2.3.6l-.3-.3c.6.5,1.2,1,1.7,1.5L169,40.1c3.8,5.4,7.6,10.7,11.4,16.1-2.4-4.1-4.8-8.3-7.2-12.4,2.4,4.7,4.8,9.4,7.1,14.1-1.6-3.6-3.3-7.1-4.9-10.7,4.3,10.8,8.4,21.6,12.6,32.5,0-.1-.1-.2-.1-.4.9,2.7,1.8,5.3,2.8,8,0-.1-.1-.2-.1-.4.8,2.7,1.6,5.4,2.4,8.2,0-.1-.1-.2-.1-.4.7,2.8,1.3,5.5,2,8.3a3.89,3.89,0,0,0,.2-1.5c.1-1.9.2-3.8.2-5.7s.1-3.8.1-5.7a3.81,3.81,0,0,0-.1-1.5c-1.7-5.3-3.6-10.6-5.8-15.7s-4.5-10.2-7.1-15.1c-1.7-3-3.7-5.9-5.7-8.8a66.05,66.05,0,0,0-5.3-7.4c-2.1-2.3-4.9-3-7.8-3.4a4.49,4.49,0,0,0,1.1,1.3c1.4,1.6,2.9,3.1,4.4,4.6s2.9,3.1,4.4,4.6A7.41,7.41,0,0,0,174.84,49.9Z" transform="translate(-24.44)"/><path class="cls-1" d="M173.94,52.2c.8.2,1.6.4,2.3.6a14.31,14.31,0,0,0-1.5-1.1c.9.8,1.9,1.6,2.8,2.4l-10.9-10.9,11.2,12.1-9.9-11.7c4.1,6.9,8.3,13.8,12.4,20.8-2.1-4.6-4.3-9.2-6.4-13.8,3,8.1,6.4,16,10.1,23.8,2.1,5.1,4.1,10.3,5.7,15.6,0-.1-.1-.3-.1-.4.8,2.7,1.6,5.5,2.4,8.2,0-.2-.1-.3-.1-.5.7,2.8,1.3,5.6,2,8.4a5.46,5.46,0,0,0,.1-1.8V97c0-2.3,0-4.6-.1-6.9a5.54,5.54,0,0,0-.2-1.8,148,148,0,0,0-6.3-15.5c-2.3-5-4.9-9.9-7.7-14.7a23,23,0,0,0-4.1-5.9c-2.9-3-5.8-6.1-8.8-9-1.9-1.8-3.9-2.1-6.5-2.4a5.35,5.35,0,0,0,1.3,1.3l5.3,4.7c1.8,1.5,3.6,3.1,5.4,4.6A7.93,7.93,0,0,1,173.94,52.2Z" transform="translate(-24.44)"/><path class="cls-1" d="M172.94,50.5c.7.1,1.4.3,2.2.4-.4-.3-.7-.6-1.1-.9.8.7,1.6,1.4,2.4,2-2.6-2.8-5.3-5.6-7.9-8.4,2.8,3.2,5.5,6.4,8.3,9.6-2.3-3-4.7-6-7-8.9l9.3,17.7c-1.4-3.5-2.8-7-4.3-10.5A124,124,0,0,0,181,68.2c1.7,3.7,3.2,7.4,4.6,11.3a238.48,238.48,0,0,1,6.8,23.3c.1.4,0,.3.2,0v-1.1c0-1.3-.1-2.5-.1-3.8-.1-1.9-.1-3.9-.2-5.8a6.88,6.88,0,0,0-.3-2.5c-1.7-5.2-3.5-10.3-5.6-15.3s-4.3-9.6-6.4-14.5c-1.1-2.5-2.2-5.1-3.4-7.6a1.79,1.79,0,0,0-.5-.7c-2-2.6-4.5-4.9-6.7-7.3a8.69,8.69,0,0,0-1.7-1.6c-1.4-1-3.2-1.1-4.8-1.3a4.81,4.81,0,0,0,.9,1.1l3.9,3.6c1.3,1.2,2.6,2.4,4,3.6A4.7,4.7,0,0,0,172.94,50.5Z" transform="translate(-24.44)"/><path class="cls-1" d="M172.74,52.8l2,.3c-.9-.7-1.9-1.4-2.8-2.1,1.2,1,2.4,2,3.6,2.9-1.3-1.3-2.6-2.5-3.9-3.8,1.4,1.6,2.7,3.2,4.1,4.8-1-1.2-2-2.5-2.9-3.7,1,1.6,2,3.2,3,4.7-.5-.9-1.1-1.8-1.6-2.8,1.6,4.5,3.1,9,4.6,13.5,1.6,3.7,3.1,7.5,4.5,11.3a214.6,214.6,0,0,1,8.1,27c.2.9.1-2.6.2-2.1-.1-1.3-.1-2.7-.2-4a14.92,14.92,0,0,0-.2-2.1,388.5,388.5,0,0,0-13.8-37.3c.5,2.2,1,4.3,1.5,6.5-.4-2.5-.7-9.1-2.8-11.9a16.66,16.66,0,0,0-2.3-2.3,25,25,0,0,0-2.4-2.2c-1.5-1-2.4-1-4.2-1.2a2.65,2.65,0,0,0,.5.6c.7.6,1.5,1.2,2.2,1.8S171.84,52.7,172.74,52.8Z" transform="translate(-24.44)"/><path class="cls-1" d="M173.34,50.1l2.4.6c-.1-.1-.3-.2-.4-.3l1.8,1.5c-3.7-4.1-7.4-8.1-11-12.2,4.3,5.6,8.7,11.2,13,16.8L170.44,43c4.5,9.6,8.9,19.3,13.3,29,2.1,5.1,4.1,10.3,5.8,15.6,0-.1-.1-.3-.1-.4.8,2.7,1.6,5.5,2.4,8.2,0-.1-.1-.3-.1-.4.7,2.8,1.3,5.6,2,8.4a5.46,5.46,0,0,0,.1-1.8V94.8c0-2.3-.1-4.5-.1-6.8a5.54,5.54,0,0,0-.2-1.8c-1.8-5.3-3.8-10.4-6.1-15.5s-4.7-10-7.4-14.8a83,83,0,0,0-5.1-7c-2-2.6-3.9-5.6-6.3-7.9-2.2-2.1-5-2.7-7.9-3.1a8.06,8.06,0,0,0,1.2,1.4c1.7,1.6,3.3,3.2,5,4.8l5.1,4.8A2.56,2.56,0,0,0,173.34,50.1Z" transform="translate(-24.44)"/><path class="cls-1" d="M173.24,53.8c.8.2,1.5.3,2.3.5-1.7-1.3-3.5-2.6-5.2-3.9,2,1.6,4,3.2,6,4.9-1.7-1.5-3.4-3.1-5-4.6,2.1,2.2,4.1,4.4,6.2,6.7-1.6-1.8-3.2-3.7-4.8-5.5,1.2,1.7,2.4,3.5,3.7,5.2-.7-1.1-1.5-2.2-2.2-3.3,1,1.9,2,3.8,3,5.8l-1.8-3.6c1.5,4.1,2.9,8.3,4.4,12.4,1.7,3.7,3.3,7.4,4.7,11.2a199.19,199.19,0,0,1,8.1,27c.1.3.1.3.2,0a8.85,8.85,0,0,0,0-2.3c0-1.5-.1-2.9-.1-4.4a17.85,17.85,0,0,0-.2-2.3,297.27,297.27,0,0,0-14.7-37.7c.7,2.8,1.5,5.5,2.2,8.3-.2-1.4-.7-7.9-1.9-10.6a10.4,10.4,0,0,0-2.6-3.6c-1.3-1.2-2.6-2.5-4-3.7-1.8-1.5-3.2-1.7-5.5-2a2.34,2.34,0,0,0,.7.7l2.8,2.2C170.44,51.9,171.94,53.5,173.24,53.8Z" transform="translate(-24.44)"/><path d="M38.54,125.1c20.6-.5,41.1-.6,61.7-.6,10.3.1,20.6.2,30.8.2s20.6-.1,30.8-.2c20.6-.2,41.1-.5,61.7-.4s41.1.1,61.7.4v.1c-20.6.4-41.1.7-61.7.7s-41.1,0-61.7-.2c-10.3-.1-20.6-.1-30.8-.1s-20.6.3-30.8.4c-20.6.1-41.1.1-61.7-.3Z" transform="translate(-24.44)"/><path d="M45.84,189.8c19.3-.5,38.7-.6,58-.6,9.7.1,19.3.2,29,.2s19.3-.1,29-.2c19.3-.2,38.7-.5,58-.4s38.7.1,58,.4v.1c-19.3.4-38.7.7-58,.7s-38.7,0-58-.2c-9.7-.1-19.3-.1-29-.1s-19.3.3-29,.4c-19.3.1-38.7.1-58-.3Z" transform="translate(-24.44)"/><path d="M41.34,153.5c20-.5,39.9-.6,59.9-.6,10,.1,20,.2,30,.2s20-.1,30-.2c20-.2,39.9-.5,59.9-.4s40,.1,59.9.4v.1c-20,.4-39.9.7-59.9.7s-40,0-59.9-.2c-10-.1-20-.1-30-.1s-20,.3-30,.4c-20,.1-40,.1-59.9-.3Z" transform="translate(-24.44)"/><path d="M37.44,101.24c-.14,0,.89,19.34,2.44,39.82.5,6.58,1.06,13.16,1.51,19.86s.88,13.27,1.27,19.85c2,34.23,1.62,37.88,2.29,39.36l.27.46C61,245.93,161,240.16,161,240.16c49.68,0,58.38-7.62,84.26-4.95,16.82,1.73,22.42,5.91,27.62,1.29,6.22-5.52,2.82-15.55,3.39-35.6.49-16.8,3.05-15.64,7.31-45.4a498.36,498.36,0,0,0,4.87-54s-.52,13.64-2.62,33.2c-4.88,45.5-9.82,43.47-9.56,66.2.21,17.84,3.4,31.54-3.39,35.6-2.64,1.58-5.1.69-11.67-.14-.43-.05-9.5-.12-27.63-.26-24.66-.19-41.61,4.47-72.58,4.06-16.52-.23-40.51-2.93-88.49-8.3h-.05s-19.9.1-27.24-11.27c-4-6.27-.87-10.75-2.17-39.94-.48-10.94-1.36-19.86-1.44-19.85s1.89,36.07,2,36.07-1.1-25.55-3.12-55.92C39.15,121.47,37.58,101.23,37.44,101.24Z" transform="translate(-24.44)"/></g></g></svg>