<?xml version="1.0" encoding="utf-8"?>
<!-- Generator: Adobe Illustrator 24.3.0, SVG Export Plug-In . SVG Version: 6.00 Build 0)  -->
<svg version="1.1" id="Layer_1" xmlns="http://www.w3.org/2000/svg" xmlns:xlink="http://www.w3.org/1999/xlink" x="0px" y="0px"
	 viewBox="0 0 595.3 841.9" style="enable-background:new 0 0 595.3 841.9;" xml:space="preserve">
<style type="text/css">
	.st0{fill:#FFFFFF;stroke:#000000;stroke-miterlimit:10;}
	.st1{font-family:'AndaleMono';}
	.st2{font-size:23px;}
	.st3{opacity:0.1624;fill:#CC9E7F;enable-background:new    ;}
</style>
<path class="st0" d="M-9.4,199.4"/>
<text transform="matrix(1.3851 0 0 1 364.2393 371.7599)" class="st1 st2">rosso</text>
<g>
	<g>
		<g>
			<g>
				<path class="st3" d="M362.2,357.4c0-2.1-0.5-4.1-1.3-6c-0.5-1-1-1.9-1.5-2.9c-1.6-2.7-4.8-5.5-7.6-6.9
					c-6.7-3.3-15.7-2.1-21.4,2.7c-6.8,5.7-9.6,14.2-10.6,22.7c-1.1,8.8-0.6,18.9,4.3,26.5c4.2,6.5,11.6,9.7,19.1,10.7
					c3.6,0.5,7.6,0.3,11-1c2.6-1,5.4-2.6,7.1-4.8c3.7-5.1,1.6-13.1-1.5-17.9c-1.8-2.8-4-5.1-6.7-7.1c-1.7-1.5-3.7-2.6-5.9-3.3
					c-2.8-1.1-5.7-1.7-8.7-1.7c0.1,0.3,0.3,0.6,0.6,0.8c0.6,0.6,1.2,1.3,1.8,1.9c0.7,0.8,1.5,1.6,2.2,2.3c0.5,0.6,1,1.1,1.6,1.6
					c2.6,1.7,6.1,3.3,8.1,5.8c1.4,1.8,2.8,4.7,2.8,7.1c0,0.6-0.1,1.2-0.1,1.8c0.3,0.9,0.4,1.8,0.2,2.7c-0.5,1.5-1.5,2.6-2.8,3.4
					c-1.9,1.3-3.6,2.1-5.9,2.4c-3.2,0.4-6.6-1-9.5-2.2c-2.8-1.2-5.6-3.3-7.5-5.8c-1-1.1-1.7-2.4-2.2-3.8c-0.7-1.4-1.1-3-1.2-4.6
					c-0.3-1.3-0.6-2.5-0.9-3.8c-0.5-2.7-0.6-5.4-0.3-8.1c0.2-1.4,0.3-2.7,0.5-4.1c0.8-1.6,1.4-3.2,2-4.8c1-2.7,2.3-5.3,4.1-7.6
					c1.3-1.5,2.8-2.8,4.5-3.9c0.9-0.4,1.8-0.7,2.7-1.1c2.5-1,4.2-1,6.8-0.4c2.5,0.5,3.9,1.3,5.6,3.2c1.7,1.7,2.4,3.4,3.1,5.7
					c0.7,2.5,0.9,4.7,0.6,7.3c0.3-0.2,0.6-0.4,0.8-0.6c0.9-0.9,1.9-1.8,2.8-2.7c0.9-0.9,1.8-1.8,2.7-2.7
					C361.8,358,362.1,357.7,362.2,357.4z"/>
				<path class="st3" d="M362.8,355.5c0-2.1-0.5-4-1.3-5.9c-0.5-1-1-1.9-1.5-2.9c-1.7-2.8-4.8-5.6-7.7-7c-6.7-3.3-15.9-2.1-21.5,2.8
					c-6.5,5.7-9.2,14.2-10.2,22.5c-1.1,8.8-0.9,18.7,4,26.4c4.2,6.6,11.3,9.8,18.8,10.9c3.6,0.5,7.7,0.5,11.1-0.8
					c2.6-0.9,5.6-2.6,7.4-4.8c3.9-5.1,2-13.5-1.3-18.3c-1.9-2.8-4.3-5.1-7-7.1c-1.8-1.5-3.8-2.5-6-3.2c-2.8-1-5.8-1.6-8.8-1.6
					c0.2,0.3,0.4,0.7,0.6,0.9c0.9,1.1,1.8,2.2,2.7,3.2c1,1.2,2.2,3.1,3.6,4c2.5,1.7,5.7,3.2,7.7,5.6c1.4,1.7,3,4.6,2.9,6.9
					c-0.1,0.5-0.1,1.1-0.2,1.6c0.3,0.7,0.4,1.4,0.3,2.1c-0.1,1.4-0.7,2.8-1.8,3.7c-1.1,0.5-2.2,1.1-3.2,1.9
					c-0.7,0.3-1.4,0.5-2.1,0.8c-1.7,0.6-3.3,0.6-5,0c-2.1-0.2-4.1-0.7-6.1-1.5c-5.7-2.4-10.4-6.8-11.6-13.1
					c-0.6-3.3-1.5-6.4-1.6-9.8c-0.1-2.7,0.3-5.4,1.4-7.9c0.5-2.5,1.4-4.8,2.6-7c1.6-3,3.5-5.4,6.3-7.4c0.7-0.5,1.4-1,2-1.4
					c1.2-0.4,2.5-0.9,3.7-1.3c4.1-1.5,9.4-0.1,12.2,3.3c1.5,1.8,2.2,4,2.4,6.3c0.3,2.2-0.1,4-0.8,6.2c0.3-0.2,0.7-0.5,0.9-0.8
					c1.1-1,2.2-2.1,3.2-3.1c1.1-1,2.1-2.1,3.2-3.1C362.4,356.1,362.6,355.8,362.8,355.5z"/>
				<path class="st3" d="M364.7,358.6c-0.1-2.1-0.5-4.1-1.3-6c-0.5-1-1-1.9-1.5-2.9c-1.6-2.6-4.8-5.4-7.6-6.7
					c-6.6-3.1-15.4-2-21,2.6c-6.8,5.5-9.7,13.8-10.9,22.2c-1.2,8.9-1,19.2,4.1,27c4.4,6.7,11.7,9.9,19.4,10.9
					c6.2,0.8,14.5-0.5,18.3-6.1c3.8-5.5,1.4-13.2-2.1-18.1c-1.9-2.7-4.1-4.9-6.8-6.8c-1.7-1.4-3.6-2.4-5.7-3.1
					c-2.7-1-5.5-1.6-8.3-1.7c0.1,0.3,0.3,0.5,0.5,0.7c0.5,0.5,1,1.1,1.5,1.6c1,1.1,2,2.4,3.2,3.3c2.6,1.9,5.2,3.7,7.1,6.4
					c1.3,1.9,2.2,4.3,2.5,6.5c0.5,3,1.1,6.4-2.2,8c-0.8,0.4-1.6,0.8-2.3,1.4c-1,0.5-2,0.7-3,0.8c-1.1,0.2-2.1,0.2-3.2,0.1
					c-0.9-0.4-1.7-0.7-2.6-1.1c-1.6-0.3-3.1-0.8-4.6-1.6c-1.4-0.6-2.7-1.3-3.9-2.2c-2.2-1.7-4.4-4.3-5.3-6.9c-0.3-1-0.5-2-0.8-3
					c-0.9-2.5-1.5-5.1-1.8-7.7c-0.3-4.6,0.6-9.1,2-13.5c0.9-2.9,2.1-5.6,4-8.1c2-2.6,4.3-4.2,7.2-5.4c4.9-2,10.9-1.3,14.4,3
					c3.1,3.7,3.8,9.1,3.3,13.8c0.3-0.2,0.6-0.4,0.9-0.7c1-0.9,2-1.9,3-2.8c1-1,2-1.9,2.9-2.9C364.3,359.2,364.5,358.9,364.7,358.6z"
					/>
				<path class="st3" d="M364.8,357.1c0-2.1-0.5-4.1-1.3-6c-0.5-1-1-1.9-1.5-2.9c-1.7-2.8-4.8-5.5-7.7-6.9c-6.6-3.2-15.4-1.9-21,2.9
					c-6.6,5.6-9.5,13.7-10.7,22c-1.3,8.9-1,18.9,3.9,26.7c4.3,6.7,11.5,10.1,19.3,11.1c3.6,0.5,7.8,0.3,11.3-1c2.6-1,5.5-2.6,7.2-5
					c3.8-5.4,1.7-13.4-1.8-18.4c-1.9-2.7-4.2-4.9-7-6.9c-1.8-1.4-3.7-2.4-5.9-3.1c-2.7-1-5.6-1.5-8.5-1.6c0.1,0.3,0.3,0.6,0.5,0.8
					c0.5,0.7,1.1,1.3,1.7,2c1.1,1.3,2.2,3,3.6,4.1c2.5,1.9,5.2,3.8,7,6.4c1.3,1.9,2.3,4.4,2.5,6.7c0.3,2.8,0.9,6.7-2.4,7.9
					c-0.8,0.3-1.6,0.7-2.3,1.2c-0.9,0.4-1.9,0.7-2.9,0.7c-1,0.2-2.1,0.2-3.2,0c-0.9-0.3-1.9-0.6-2.8-0.9c-3.2-1-6-1.7-8.7-3.8
					c-2.3-1.7-4.6-4.5-5.5-7.2c-0.3-1-0.5-2.1-0.8-3.1c-0.9-2.6-1.5-5.2-1.7-7.9c-0.2-4.7,0.8-9.2,2.4-13.7c1.1-2.9,2.3-5.5,4.4-7.8
					c1.4-1.5,2.9-2.7,4.6-3.7c0.9-0.3,1.8-0.6,2.7-1c2.7-0.9,4.6-1.2,7.4-0.5c2.5,0.6,4.9,1.8,6.5,3.8c1.6,1.9,2.7,4.2,3,6.7
					c0.3,2.3-0.1,4.3-0.8,6.6c0.4-0.2,0.7-0.5,0.9-0.8c1.1-1,2.2-2.1,3.3-3.2c1.1-1.1,2.2-2.1,3.3-3.2
					C364.3,357.7,364.6,357.4,364.8,357.1z"/>
				<path class="st3" d="M361.3,355c0-2.1-0.5-4-1.3-5.9c-0.5-1-1-1.9-1.5-2.9c-1.7-2.8-4.8-5.6-7.7-7.1c-6.8-3.3-16-2.2-21.7,2.9
					c-6.6,5.8-9.2,14.3-10.3,22.8c-1.1,8.6-0.6,18.7,4.2,26.2c4.2,6.5,11.3,9.6,18.7,10.7c3.6,0.5,7.5,0.5,11-0.7
					c2.6-0.9,5.5-2.5,7.3-4.7c4.1-5,2.3-13.3-1-18.3c-1.9-2.9-4.2-5.3-7-7.3c-1.8-1.5-3.8-2.6-6.1-3.3c-2.9-1.1-5.9-1.6-8.9-1.5
					c0.2,0.3,0.4,0.7,0.7,0.9c0.9,1.1,1.9,2.2,2.8,3.3c1,1.2,2.3,3.2,3.7,4c2.6,1.6,5.9,2.9,8,5.1c1.5,1.6,3.4,4.5,3.5,6.9
					c0,0.5-0.1,1.1-0.1,1.6c0.4,1,0.6,2.1,0.5,3.2c-0.3,1.7-1,3-2.4,3.9c-2,1.4-3.8,2.4-6.2,2.8c-3.3,0.6-7-0.7-10.1-2
					c-3-1.2-6.6-3.5-8.7-6c-1.1-1.3-1.9-2.7-2.5-4.3c-0.9-1.5-1.3-3.2-1.2-5c-0.3-1.3-0.5-2.6-0.8-3.9c-0.4-2.8-0.4-5.5,0.2-8.3
					c0.3-1.4,0.5-2.8,0.8-4.1c0.9-1.5,1.6-3.1,2.3-4.7c1.2-2.6,2.5-5.1,4.5-7.2c1.3-1.3,2.8-2.5,4.4-3.6c0.9-0.3,1.7-0.7,2.6-1
					c2.6-1,4.5-1.4,7.3-0.8c2.3,0.5,4.2,1.6,5.8,3.4c1.5,1.8,2.1,3.7,2.5,6c0.4,2.2,0.1,4-0.5,6.2c0.3-0.2,0.6-0.4,0.8-0.7
					c1-0.9,2-1.9,2.9-2.8c1-0.9,1.9-1.9,2.9-2.9C360.9,355.5,361.1,355.3,361.3,355z"/>
				<path class="st3" d="M362.4,359.3c0-2.1-0.4-4.1-1.2-6c-0.5-1-1-1.9-1.5-2.9c-1.6-2.7-4.7-5.5-7.4-6.9
					c-6.6-3.3-15.5-2.3-21.2,2.4c-7,5.6-9.9,14.1-11,22.7c-1.1,8.8-0.8,19.1,4.3,26.7c4.4,6.6,11.6,9.7,19.4,10.6
					c3.6,0.4,7.7,0.2,11.2-1.1c2.6-1,5.4-2.6,7-4.9c3.6-5.1,1-13.1-2-17.8c-1.8-2.7-3.9-5-6.5-7c-1.7-1.5-3.6-2.6-5.7-3.3
					c-2.7-1.1-5.6-1.7-8.5-1.8c0.1,0.3,0.3,0.5,0.5,0.6c0.5,0.5,1,1,1.5,1.5c1,1,2,2.4,3.3,3.2c2.8,1.8,5.8,3.4,8,6
					c1.5,1.8,2.5,4.6,2.7,6.9c-0.2,0.9-0.1,1.8,0.2,2.6c0.2,0.6,0.3,1.3,0.1,2c-0.6,1.9-2.2,3.1-3.8,4c-1.9,1.2-3.8,1.8-6,1.9
					c-0.8,0-1.5,0-2.3-0.1c-1.4-0.7-2.8-1.2-4.3-1.7c-5.5-2-11.1-6.4-11.8-12.6c-0.1-1.7-0.5-3.4-1.2-5.1c-0.2-1.3-0.3-2.6-0.5-3.9
					c-0.1-2.7,0.1-5.4,0.4-8.1c0.4-1,0.8-2.1,1.2-3.1c1.2-3.4,2.1-6.6,4.3-9.6c1.9-2.6,4.2-4.4,7.1-5.7c4.7-2,10.1-1.1,13.6,2.6
					c1.4,1.5,2.4,3,3,4.9c0.4,1.2,0.7,2.4,1,3.6c0.3,1.7,0.3,3.4,0,5.1c0.3-0.1,0.5-0.3,0.7-0.6c0.8-0.8,1.6-1.6,2.4-2.4
					C359.7,362.1,362.5,359.9,362.4,359.3z"/>
				<path class="st3" d="M360.8,357.3c-0.1-2-0.5-4-1.3-5.9c-0.5-1-1-1.9-1.5-2.9c-1.7-2.8-4.7-5.6-7.6-7c-6.7-3.4-16-2.3-21.7,2.6
					c-6.7,5.8-9.5,14.4-10.4,22.9c-1,8.8-0.6,18.8,4.4,26.5c4.2,6.4,11.6,9.6,19.1,10.5c6.2,0.8,13.8-0.5,17.8-5.9
					c3.7-4.9,1.9-12.8-1.1-17.7c-1.8-2.8-4-5.2-6.6-7.2c-1.7-1.6-3.7-2.7-6-3.4c-2.8-1.1-5.8-1.7-8.9-1.7c0.2,0.3,0.4,0.6,0.6,0.8
					c0.9,0.9,1.7,1.8,2.6,2.7c1,1,2.1,2.6,3.4,3.3c2.7,1.5,6.1,2.9,8.2,5.2c1.5,1.6,3.3,4.7,3.2,7c-0.1,0.6-0.1,1.1-0.2,1.7
					c0.4,0.9,0.5,1.8,0.4,2.8c-0.4,1.6-1.4,2.7-2.7,3.7c-2,1.5-3.8,2.4-6.3,2.7c-3.2,0.4-6.6-1.1-9.6-2.4c-2.8-1.2-5.9-3.5-7.8-6
					c-0.9-1.2-1.6-2.5-2-3.9c-0.7-1.5-1-3-1-4.7c-0.3-1.3-0.6-2.5-0.8-3.8c-0.4-2.7-0.5-5.3-0.1-8c0.2-1.3,0.4-2.7,0.6-4
					c0.8-1.5,1.5-3.1,2.1-4.6c1-2.6,2.3-5,4-7.2c1.3-1.4,2.6-2.6,4.2-3.8c0.8-0.4,1.7-0.7,2.5-1.1c2.4-1.1,3.8-1.2,6.5-0.9
					c2.5,0.4,3.9,1,5.8,2.7c1.8,1.6,2.7,3.2,3.4,5.5c0.8,2.5,1.1,4.5,0.9,7.2c0.3-0.1,0.5-0.3,0.7-0.6c0.8-0.8,1.6-1.6,2.4-2.3
					C358,360.2,360.8,358,360.8,357.3z"/>
				<path class="st3" d="M364.4,355.1c0-2.1-0.5-4.1-1.3-6c-0.5-1-1-1.9-1.5-2.9c-1.7-2.8-4.9-5.6-7.8-6.9c-6.6-3.1-15.9-2-21.3,3
					c-6.3,5.7-9.1,13.9-10.2,22.1c-1.3,8.9-1.1,18.6,3.7,26.4c4.1,6.7,11.3,10,18.9,11.2c3.6,0.6,7.8,0.4,11.3-0.8
					c2.7-0.9,5.8-2.6,7.6-4.9c1.9-2.5,2.4-6.4,1.9-9.5c-0.5-3.3-1.6-6.3-3.6-9s-4.3-5-7.1-7c-1.8-1.4-3.8-2.5-6-3.2
					c-2.8-1-5.7-1.5-8.7-1.5c0.2,0.3,0.4,0.7,0.6,0.9c0.9,1.1,1.8,2.2,2.7,3.3c1,1.3,2.2,3.1,3.5,4.1c2.3,1.8,5.6,3.5,7.3,6
					c1.2,1.8,2.3,3.9,2.5,6.1c0.1,0.8,0.1,1.6-0.1,2.4c0.1,0.4,0.2,0.9,0.3,1.3c0.3,2.5-1.3,3.6-3.2,4.9c-1.7,1.2-3.6,2.1-5.8,2.2
					c-1.7-0.3-3.4-0.5-5.2-0.8c-1.8-0.3-3.4-0.8-5-1.6c-2.6-1.1-4.8-2.6-6.8-4.6c-1.1-1.2-2-2.5-2.6-4c-0.9-1.5-1.4-3.1-1.5-4.8
					c-0.8-3.5-1.6-6.7-1.3-10.4c0.3-4.6,1.8-9,3.8-13.1c1.5-3,3.6-6,6.5-8c0.7-0.4,1.4-0.8,2.1-1.3c1.6-0.4,3.2-0.9,4.8-1.5
					c4-0.6,8.9,0.9,11.6,4c1.4,1.6,1.8,4.3,2,6.3c0.2,2.3-0.2,4.1-1,6.3c0.4-0.2,0.7-0.5,1-0.8c1.2-1.1,2.4-2.3,3.6-3.5
					s2.4-2.3,3.5-3.5C363.9,355.8,364.2,355.5,364.4,355.1z"/>
				<path class="st3" d="M363.4,356.9c0-2.1-0.4-4.1-1.3-6c-0.5-1-1-1.9-1.5-2.9c-1.6-2.8-4.8-5.6-7.7-7c-6.6-3.2-15.6-1.9-21.2,2.8
					c-6.6,5.7-9.4,14-10.6,22.3c-1.2,8.8-0.9,18.9,4,26.6c4.3,6.6,11.5,9.8,19.1,10.9c3.7,0.5,7.7,0.3,11.2-1
					c2.6-0.9,5.7-2.6,7.3-4.9c1.8-2.5,2.2-6.4,1.6-9.3c-0.5-3.2-1.6-6.1-3.4-8.8c-1.9-2.8-4.2-5.1-6.9-7.1c-1.7-1.5-3.7-2.5-5.9-3.2
					c-2.8-1.1-5.7-1.6-8.7-1.6c0.1,0.3,0.3,0.6,0.6,0.8c0.6,0.7,1.2,1.3,1.8,2c1.2,1.3,2.4,3.1,3.8,4.1c2.6,1.8,5.8,3.6,7.7,6.1
					c1.4,1.8,2.6,4.6,2.7,7c0,0.6,0,1.2-0.1,1.9c0.3,0.9,0.4,1.7,0.1,2.6c-0.4,1.4-1.3,2.5-2.6,3.1c-0.9,0.4-1.7,0.8-2.4,1.4
					c-1,0.5-2.1,0.8-3.2,0.9c-1.1,0.2-2.3,0.3-3.4,0.2c-1-0.3-1.9-0.7-2.9-1c-3.2-1.1-6.1-2.1-8.8-4.3c-2.2-1.9-4.5-4.7-5.3-7.5
					c-0.2-1.1-0.4-2.1-0.7-3.2c-0.8-2.6-1.3-5.2-1.5-7.9c-0.1-4.6,1-9,2.7-13.3c1.1-2.8,2.4-5.3,4.4-7.5c1.4-1.4,2.9-2.6,4.5-3.7
					c0.9-0.4,1.8-0.7,2.7-1.1c2.6-1,4.7-1.2,7.4-0.6c2.4,0.6,4.2,1.7,5.8,3.6c1.6,1.9,2.6,3.9,3.1,6.3c0.4,2.4,0.2,4.3-0.4,6.7
					c0.3-0.2,0.6-0.4,0.9-0.7c1-1,2.1-2,3.1-3s2-2,3-3C363,357.5,363.2,357.2,363.4,356.9z"/>
				<path class="st3" d="M360.4,356.2c0-2.1-0.4-4.1-1.2-6c-0.5-1-1-2-1.5-3c-1.6-2.8-4.8-5.7-7.6-7.1c-6.8-3.4-16-2.1-21.7,2.9
					c-6.7,5.8-9.3,14.3-10.3,22.8c-1,8.8-0.7,18.6,4.3,26.3c4.2,6.5,11.3,9.5,18.8,10.5c3.6,0.5,7.5,0.4,10.9-0.8
					c2.6-1,5.4-2.5,7.1-4.7c3.9-4.9,2.2-13-0.9-17.9c-1.8-2.9-4.1-5.3-6.9-7.4c-1.8-1.6-3.8-2.7-6.1-3.4c-2.9-1.1-5.9-1.7-9-1.6
					c0.2,0.3,0.4,0.6,0.7,0.9c0.9,1,1.8,2,2.8,3c1,1.1,2.3,2.9,3.6,3.7c2.7,1.5,6,2.8,8.2,5c1.4,1.3,2.2,2.9,2.7,4.8
					c0.8,1.2,1,2.5,0.7,3.9c0.1,0.5,0.3,1,0.4,1.4c0.2,0.9,0.1,1.7-0.2,2.4c-0.5,1.8-1.8,2.8-3.3,3.8c-2,1.4-4.2,2.1-6.6,2.3
					c-2.4-0.3-4.8-0.9-7-1.8c-1.7-0.5-3.3-1.3-4.9-2.3c-2.3-1.5-4.4-3.3-5.9-5.6c-1-1.3-1.7-2.8-2.1-4.4c-0.2-1.8-0.5-3.5-0.9-5.2
					c-0.7-3.4-0.8-6.7-0.4-10.1c-0.1-2.1,0.4-3.9,1.4-5.6c0.8-1.6,1.5-3.1,2.1-4.8c1.5-3,3.2-5.6,5.9-7.7c0.7-0.5,1.4-1.1,2.1-1.6
					c1.2-0.5,2.4-1,3.7-1.5c2-0.7,3.8-0.6,5.8-0.2c2.4,0.5,3.4,1.3,5.1,3.1c1.7,1.8,2.1,2.9,2.9,5.2c0.2,0.7,0.5,1.5,0.7,2.2
					c0.4,1.6,0.4,3.3,0.1,5c0.3-0.1,0.5-0.3,0.8-0.6c0.9-0.8,1.7-1.6,2.6-2.5c0.9-0.8,1.7-1.7,2.5-2.5
					C360.1,356.7,360.3,356.4,360.4,356.2z"/>
			</g>
		</g>
	</g>
	<g>
		<path d="M342.9,372.9c3.6-1.1,7.5-1,11.1,0.5c3.5,1.4,6.6,4.3,8,7.9c1.5,3.6,1.5,7.7,0.5,11.4c-0.5,1.9-1.3,3.7-2.3,5.3
			c-1,1.6-2.2,3.2-3.7,4.5c-1.4,1.3-3.2,2.3-5.1,2.9c-1.9,0.5-3.9,0.4-5.8,0.1c-3.8-0.7-7.2-2.4-10.3-4.4
			c-6.2-4.1-11.4-9.7-14.8-16.4c-1.6-3.4-2.8-7.1-2.9-10.9s0.7-7.6,2.1-11.1s3.4-6.8,5.8-9.7c2.4-2.9,5.2-5.5,8.4-7.6
			c3.2-2.1,6.7-3.8,10.5-4.5c1.9-0.3,4-0.3,6,0.3c2,0.7,3.6,2,4.8,3.4c1.3,1.5,2.3,3.1,3.1,4.9c0.8,1.8,1.2,3.7,1.3,5.6
			c0.2,3.8-0.8,7.6-2.7,10.8l-0.2-0.1c1.4-3.4,2.1-7.1,1.7-10.6c-0.2-1.8-0.8-3.5-1.5-5.1c-0.8-1.6-1.8-3.1-3-4.4s-2.6-2.3-4.2-2.8
			s-3.3-0.4-5-0.1c-3.4,0.6-6.7,2.3-9.7,4.2c-5.9,4-10.9,9.6-13.7,16.3c-1.4,3.3-2.2,6.9-2.3,10.4c-0.1,3.6,0.8,7.2,2.3,10.5
			s3.5,6.4,5.9,9.2c2.4,2.7,5.2,5.2,8.4,7.1c3.1,1.9,6.6,3.4,10.1,3.8c1.8,0.2,3.6,0.2,5.2-0.3s3.1-1.5,4.4-2.7
			c2.5-2.4,4.5-5.6,5.4-9s1-7.1-0.2-10.4s-3.8-6-7-7.5c-1.6-0.8-3.4-1.3-5.2-1.5c-1.8-0.2-3.6-0.1-5.5,0.2L342.9,372.9z"/>
	</g>
</g>
</svg>
