<svg xmlns="http://www.w3.org/2000/svg" width="618.334" height="605.334" viewBox="0 0 618.334 605.334">
  <g id="Group_1370" data-name="Group 1370" transform="translate(-1151.333 -297.333)">
    <g id="Rectangle_557" data-name="Rectangle 557" transform="translate(1152 298)" fill="none" stroke="#aaaf89" stroke-linecap="round" stroke-linejoin="bevel" stroke-width="5">
      <rect width="617" height="604" rx="79" stroke="none"/>
      <rect x="2.5" y="2.5" width="612" height="599" rx="76.5" fill="none"/>
    </g>
    <text id="CREATE_NEW_ORDER" data-name="CREATE NEW ORDER" transform="translate(1302 794)" fill="#707070" font-size="35" font-family="AndaleMono, Andale Mono" style="mix-blend-mode: darken;isolation: isolate"><tspan x="0" y="0">CREATE NEW ORDER</tspan></text>
    <g id="Ellipse_4" data-name="Ellipse 4" transform="translate(1283 362)" fill="#fff" stroke="#aaaf89" stroke-width="5">
      <ellipse cx="177.5" cy="178" rx="177.5" ry="178" stroke="none"/>
      <ellipse cx="177.5" cy="178" rx="175" ry="175.5" fill="none"/>
    </g>
    <g id="trolleyv3.darkergreen.sketched_copy" data-name="trolleyv3.darkergreen.sketched copy" transform="translate(1193.13 213.347)" opacity="0.555">
      <g id="Group_1075" data-name="Group 1075" transform="translate(309.766 413.824)">
        <g id="Group_1074" data-name="Group 1074">
          <g id="Group_1073" data-name="Group 1073">
            <path id="Path_672" data-name="Path 672" d="M336,439.6a13.571,13.571,0,0,0-3.9,5.8,14.113,14.113,0,0,0,.5,9.9,17.027,17.027,0,0,0,5.4,5.6c1.2.7,2.3,1.3,3.5,2a19.923,19.923,0,0,0,7.5,2,11.04,11.04,0,0,0,5.6-1.9,5.115,5.115,0,0,0,3.5-4.6,13.32,13.32,0,0,0,.7-5.6,13.677,13.677,0,0,0-.8-5.3,5.649,5.649,0,0,0-2.6-4.4,12.017,12.017,0,0,0-4.5-2.9,10.641,10.641,0,0,0-5.6,0,14.661,14.661,0,0,0-5.4,1.6,12.311,12.311,0,0,0-6,4.5c.1-.1,6.2,2.6,6.2,2.6,1.6.7,3.3,1.3,4.9,2a6.943,6.943,0,0,0,1.3.5c3.8-1.2,7.7-2.4,11.5-3.6-3.4,1.3-6.8,2.6-10.1,3.8.2,0,2.3.1,1.7.7a4.441,4.441,0,0,1-2-.1,13.028,13.028,0,0,1-1.5-1c-.3,0-.6.1-.9.1-1.6-.3-1.4-2.5-1.3-3.6-2.8,3.4-5.6,6.9-8.4,10.3,1.2-1.4,7.7-13.1,13.9-13.2a.6.6,0,0,1-.4-.1c.6.1,1.2.2,1.7.3l-1.5-.6c-1.9-.7-3.8-1.5-5.7-2.2l-5.7-2.1C337,439.9,336.5,439.8,336,439.6Z" transform="translate(-330.37 -436.553)" fill="#aaaf89" opacity="0.108"/>
            <path id="Path_673" data-name="Path 673" d="M336.5,438.1a14.325,14.325,0,0,0-4.1,5.9,13.055,13.055,0,0,0,.6,9.7,19.294,19.294,0,0,0,5.3,5.7c1.2.7,2.3,1.4,3.5,2.1a20.234,20.234,0,0,0,7.5,2.2,11.29,11.29,0,0,0,5.7-1.8,4.854,4.854,0,0,0,3.5-4.4,11.9,11.9,0,0,0,.7-5.6,15.521,15.521,0,0,0-.8-5.6,6.405,6.405,0,0,0-2.6-4.7,12.305,12.305,0,0,0-4.4-3,11.022,11.022,0,0,0-5.7-.1,12.856,12.856,0,0,0-5.4,1.5,13.29,13.29,0,0,0-6,4.5c.4.2.8.3,1.2.5,1.5.5,3,1.1,4.5,1.6s3,1,4.6,1.5a5.637,5.637,0,0,0,1.2.4,1.608,1.608,0,0,0,1.6.4,1,1,0,0,1,1.1.4c-.3-3.6-.6-7.2-.8-10.8-3.9,9.1-3.2,13.4,2,12.9.3.2.7.3,1,.5,1.2,1.4-1.1,1.5-1.9,1.4a3.581,3.581,0,0,1-2.5-1.1,2.119,2.119,0,0,1-1.9-.6c-2.2-1.6-1.9-3.9-1.5-6.2-2.9,2.5-5.9,5-8.8,7.4,3.2-2.6,6.4-5.3,9.6-7.9-3.5,1.6-6.9,3.2-10.4,4.8,3.9-1.7,7.8-3.4,11.8-5.1a3.759,3.759,0,0,1,1.4-1.4,7.35,7.35,0,0,1,3.6-1.2c-.5-.2-.9-.3-1.4-.5-1.8-.5-3.5-1-5.3-1.5s-3.6-1-5.3-1.5A12.447,12.447,0,0,0,336.5,438.1Z" transform="translate(-330.37 -436.553)" fill="#aaaf89" opacity="0.108"/>
            <path id="Path_674" data-name="Path 674" d="M337,439.4a13.785,13.785,0,0,0-4,5.8,13.3,13.3,0,0,0,.5,9.8,19.833,19.833,0,0,0,5.3,5.5c1.2.7,2.3,1.3,3.5,2a22.191,22.191,0,0,0,7.6,2.2,11.29,11.29,0,0,0,5.7-1.8c2.1-.6,3.2-2.1,3.5-4.5a13.268,13.268,0,0,0,.6-5.6,15.951,15.951,0,0,0-.9-5.3,6.187,6.187,0,0,0-2.6-4.5,12.846,12.846,0,0,0-4.3-3,13.215,13.215,0,0,0-5.6,0,13.64,13.64,0,0,0-5.3,1.6,12.517,12.517,0,0,0-5.9,4.5c.1-.1,6.4,2.9,6.3,2.9,1.7.8,3.3,1.5,5,2.2a5.782,5.782,0,0,0,1.4.5c-2.6-.8-3.7-2.3-3-4.5-2.8,3.4-5.6,6.9-8.3,10.3,3.8-4.1,7.6-8.3,11.4-12.4a1.9,1.9,0,0,1,1.1-.7,6.467,6.467,0,0,1,3.1-.1l-1.5-.6c-1.9-.7-3.9-1.4-5.8-2-1.9-.7-3.9-1.3-5.8-2A17.771,17.771,0,0,1,337,439.4Z" transform="translate(-330.37 -436.553)" fill="#aaaf89" opacity="0.108"/>
            <path id="Path_675" data-name="Path 675" d="M336.4,440a13.283,13.283,0,0,0-3.1,7.4,34.4,34.4,0,0,0-.3,4.6,7.591,7.591,0,0,0,1.7,5.2,21.966,21.966,0,0,0,11.8,9.6c1.4.3,2.8.7,4.2,1a14.013,14.013,0,0,0,7.6-3.2c2.8-2.8,4-8.3,3.9-12a18.66,18.66,0,0,0-1.7-7.6,12.106,12.106,0,0,0-4.6-4.1c-1.5-.2-3-.5-4.6-.7a28.062,28.062,0,0,0-9.1,1.1,12.836,12.836,0,0,0-7.2,3.9c-.3.2.9-.2.7-.1,2.3-.8,4.7-1.6,7-2.4a.9.9,0,0,0-.5.1,27.951,27.951,0,0,1,10.4.2,19.964,19.964,0,0,1,6.3,1.9c-.9-1.2-1.9-2.4-2.8-3.5,1.2,1.7,2.5,3.4,3.7,5.1-.4-.9-.8-1.9-1.1-2.8.6,1.6,1.2,3.3,1.9,4.9,0-1.1-.1-2.3-.1-3.4-.5,5.8-1.8,19.1-11.1,18.9-3.8-.1-7.4-2.8-9.8-5.5a14.636,14.636,0,0,1-2.9-4.4c-1.3-2.7-1.2-5.2.5-7.4a6.766,6.766,0,0,1,1.4-3.1,5.552,5.552,0,0,1,2.5-1.8,15.954,15.954,0,0,1-2.3-1A23.393,23.393,0,0,0,336.4,440Z" transform="translate(-330.37 -436.553)" fill="#aaaf89" opacity="0.108"/>
            <path id="Path_676" data-name="Path 676" d="M336.7,437.3A13.426,13.426,0,0,0,333,443a14.482,14.482,0,0,0,.3,9.2,22.916,22.916,0,0,0,5.1,6.9c1.2.9,2.4,1.9,3.6,2.8a19.124,19.124,0,0,0,8,3.1,8.569,8.569,0,0,0,5.6-1.6,5.83,5.83,0,0,0,3.8-4.6,15.136,15.136,0,0,0,1.3-6.3,17.81,17.81,0,0,0-.3-6.5,6.936,6.936,0,0,0-2.5-5.4,10.269,10.269,0,0,0-4.2-3.2,13.885,13.885,0,0,0-6.4-.3,17.08,17.08,0,0,0-6.2,1.5,14.612,14.612,0,0,0-6.6,4.3c.2,0,.5.1.7,0a12.1,12.1,0,0,0,1.9-.1c1.3-.1,2.7-.1,4-.2a34.9,34.9,0,0,1,7.2-.5,16.307,16.307,0,0,1,6.9,2.4c-.1-.2-.1-.5-.2-.7.9,3.3,1.5,6.4.9,9.8a11.972,11.972,0,0,1-1.2,4.2,9.341,9.341,0,0,1-5.6,5.4c1.4.3,2.9.6,4.3,1-1.9-.5-3.9-1-5.8-1.5.1.1.2.1.3.2a51.948,51.948,0,0,1-5.2-5.3c-.8-1.1-1.6-2.2-2.3-3.3a6.078,6.078,0,0,1-1-7.5c.6-2.8.5-4,2.4-5.6a9.3,9.3,0,0,1,3.9-1.8l-.9-.3c-1.1-.3-2.3-.6-3.4-.8C340.9,438.2,337.1,437,336.7,437.3Z" transform="translate(-330.37 -436.553)" fill="#aaaf89" opacity="0.108"/>
            <path id="Path_677" data-name="Path 677" d="M337.6,439.2a13.655,13.655,0,0,0-3.1,15.1c1.4,3.7,5.1,6.6,8.4,8.7a22.306,22.306,0,0,0,7.9,3,10.465,10.465,0,0,0,5.9-2,5.438,5.438,0,0,0,3.7-4.7,14.4,14.4,0,0,0,.9-5.8,15.951,15.951,0,0,0-.7-5.7,8.028,8.028,0,0,0-2.5-4.8,11.623,11.623,0,0,0-4-3.3,13.972,13.972,0,0,0-6.1-.2,16.451,16.451,0,0,0-5.8,1.4,17.1,17.1,0,0,0-6.5,4.1s2.6.2,2,.2l4.8.3h5.4a5.918,5.918,0,0,1,2.9.7,2.546,2.546,0,0,1,2.1,2.1,2.611,2.611,0,0,1,1,2.9,1.491,1.491,0,0,0,.2,1.7,1.594,1.594,0,0,1,.4,1.2,2.75,2.75,0,0,1-.5,2.3l-1.2,1.5c-.6.4-1.3.7-1.9,1.1-.7-.2-1.4-.3-2.1-.5-.8-.4-1.6-.9-2.4-1.3-.6-.3-1.2-.5-1.8-.8a7.774,7.774,0,0,1-2.6-2.5c-1.5-2.1-1.7-3.9-1.9-6.5a3.508,3.508,0,0,0-.5.8c.4-.6.9-1.2,1.3-1.7a3.039,3.039,0,0,1-.7.5c.7-.5,1.4-.9,2.1-1.4a4.573,4.573,0,0,1,1.4-1.7,7.7,7.7,0,0,1,3.6-1.5,2.994,2.994,0,0,0-1-.4c-1.3-.4-2.5-.8-3.8-1.2C342.2,440.7,337.9,438.9,337.6,439.2Z" transform="translate(-330.37 -436.553)" fill="#aaaf89" opacity="0.108"/>
            <path id="Path_678" data-name="Path 678" d="M334.9,437.6a13.446,13.446,0,0,0-4.3,8.6,14.95,14.95,0,0,0,.7,6.6,23.226,23.226,0,0,0,5.2,6.8,17.913,17.913,0,0,0,5.6,3.8,15.464,15.464,0,0,0,5.9,2.1,10.466,10.466,0,0,0,6.8-2.4,6.548,6.548,0,0,0,2.6-4.1,24.171,24.171,0,0,0,2.1-9.1c0-2.5-.2-6.3-1.5-8.4a13.63,13.63,0,0,0-2.4-2.4,9.734,9.734,0,0,0-7.5-2.2,26.857,26.857,0,0,0-9.3,1.7,12.723,12.723,0,0,0-6.9,4.4,8.571,8.571,0,0,0,1.3-.3c1-.3,2-.5,3-.8a35.957,35.957,0,0,1,11.7-2,28.152,28.152,0,0,1,8.6,1.4l-1-1c.6.7,1.3,1.3,1.9,2-.5-.8-.9-1.6-1.4-2.3l2.1,3.9a19.524,19.524,0,0,1-.2-2.3,42.356,42.356,0,0,1-2.1,14.6,21.625,21.625,0,0,1-4.6,7.9c1.1-.3,2.1-.6,3.2-.9-2.8.3-5.5.7-8.3,1,.5.3.9.7,1.4,1a43.889,43.889,0,0,1-8.3-7.8c-2-2.6-6-8.3-3.7-11.7.5-.6,1-1.3,1.6-1.9.3-.5.6-1,.9-1.4a7.194,7.194,0,0,1,4.2-2.6,6.886,6.886,0,0,0-.8-.3c-1-.3-1.9-.6-2.9-.8C338.4,438.5,335.1,437.3,334.9,437.6Z" transform="translate(-330.37 -436.553)" fill="#aaaf89" opacity="0.108"/>
            <path id="Path_679" data-name="Path 679" d="M335.4,439.4a14.874,14.874,0,0,0-4.2,5.7,13.322,13.322,0,0,0,.5,9.8c1.5,3.7,5.4,6.4,8.7,8.2a16.991,16.991,0,0,0,7.6,2.1,11.96,11.96,0,0,0,5.6-1.8A4.642,4.642,0,0,0,357,459a12.6,12.6,0,0,0,.7-5.4,16.075,16.075,0,0,0-3-9.9,10.629,10.629,0,0,0-3.7-3.6,11.445,11.445,0,0,0-5.8-.3,16.838,16.838,0,0,0-5.8,1.3,15.447,15.447,0,0,0-6.4,4.3l2.8.4c2.2.3,4.4.6,6.5.9,1.1.1,2.1.3,3.2.4a2.787,2.787,0,0,1,1.8-.1c1.7.2,2.6,1.1,3.8,2.2,0-.8-.1-1.6-.1-2.4a24.387,24.387,0,0,1-.3,6.6.955.955,0,0,1,1.1.9c.1,1.5-2.2,2.3-3.2,2.2a5.586,5.586,0,0,1-2.8-1.3,3.25,3.25,0,0,0-2.4-1,5.294,5.294,0,0,1-2.4-2.7,7.654,7.654,0,0,1-.2-4.5c-2.8,2.4-5.5,4.7-8.3,7.1,3-2.5,6-5,8.9-7.4-3.3,1.4-6.5,2.8-9.8,4.3,3.7-1.5,7.3-3,11-4.5a2.758,2.758,0,0,1,1.2-1.4A6.154,6.154,0,0,1,347,444a6.116,6.116,0,0,0-1.2-.5c-1.6-.6-3.1-1.2-4.7-1.8s-3.1-1.2-4.7-1.8C336.3,439.6,335.8,439.5,335.4,439.4Z" transform="translate(-330.37 -436.553)" fill="#aaaf89" opacity="0.108"/>
            <path id="Path_680" data-name="Path 680" d="M335.4,440.6a15.047,15.047,0,0,0-2.7,15.6c1.4,3.9,5.2,6.7,8.6,8.8a19.928,19.928,0,0,0,7.9,2.6,10.728,10.728,0,0,0,5.7-2.1,6.164,6.164,0,0,0,3.8-4.7,13.8,13.8,0,0,0,1.3-6c.3-3.7-.1-7.6-2.5-10.5a8.787,8.787,0,0,0-3.4-2.9,17.565,17.565,0,0,0-6.8-.7,19.686,19.686,0,0,0-6.8,1,12.491,12.491,0,0,0-7.2,4.1,4.514,4.514,0,0,1,1.3-.3,28.552,28.552,0,0,1,14.7-1.8,23.207,23.207,0,0,1,7.7,2.5c-.9-1.5-1.8-2.9-2.6-4.4,1,1.9,2.1,3.7,3.1,5.6-.3-1.3-.6-2.7-1-4,.4,1.9.8,3.8,1.2,5.6.2-.9.3-1.8.5-2.7-1,4.6-1.8,9.3-5.2,12.8-1.4,2.2-3.2,2.8-5.4,1.9l-4.8-2.1a10.629,10.629,0,0,1-3.6-3.7c-1.6-2.3-1.5-4.8.2-7.4a5.207,5.207,0,0,1,3.3-4,2.506,2.506,0,0,0-.7-.4c-.9-.4-1.9-.9-2.9-1.3C339,442.2,335.6,440.4,335.4,440.6Z" transform="translate(-330.37 -436.553)" fill="#aaaf89" opacity="0.108"/>
            <path id="Path_681" data-name="Path 681" d="M337.2,438.3a13.789,13.789,0,0,0-2.9,15.2,20.547,20.547,0,0,0,5,6c1.1.8,2.3,1.6,3.4,2.4a21.159,21.159,0,0,0,7.7,2.9,10.833,10.833,0,0,0,5.8-1.9,5.292,5.292,0,0,0,3.7-4.5,13.459,13.459,0,0,0,.9-5.6,15.149,15.149,0,0,0-.7-5.6,8.172,8.172,0,0,0-2.4-4.8,10.446,10.446,0,0,0-3.9-3.3,13.524,13.524,0,0,0-6-.2,16.838,16.838,0,0,0-5.8,1.3,15.8,15.8,0,0,0-6.4,4,12.232,12.232,0,0,1,1.7.3c1.6.2,3.3.5,4.9.7,2.2.3,4.3.6,6.4.7a6.311,6.311,0,0,1,2.3.8,2.5,2.5,0,0,1,1.7,2.2,2.867,2.867,0,0,1,.7,2.9c-.4.7-.3,1.1.2,1.4a.67.67,0,0,1,.4.7,1.42,1.42,0,0,1-.4,1.6,5.161,5.161,0,0,1-3.1,1.8c-1.6.1-3-1.2-4.3-1.9-.6-.2-1.1-.5-1.7-.7a5.894,5.894,0,0,1-2.3-2.4c-1.3-2.1-1.4-3.9-1.4-6.3-.6.7-1.1,1.4-1.7,2,.8-1,1.7-2,2.5-3-.7.5-1.4.9-2.2,1.4,1.2-.7,2.4-1.5,3.6-2.2a3.435,3.435,0,0,1,1.3-1.6,6.609,6.609,0,0,1,3.4-1.5,3.582,3.582,0,0,0-1.1-.4c-1.4-.4-2.7-.8-4.1-1.2C342.3,439.6,337.5,437.9,337.2,438.3Z" transform="translate(-330.37 -436.553)" fill="#aaaf89" opacity="0.108"/>
            <path id="Path_682" data-name="Path 682" d="M335.2,440.1a13.283,13.283,0,0,0-3.9,5.8,14.374,14.374,0,0,0,.5,9.8c1.5,3.7,5.3,6.5,8.7,8.3a18.964,18.964,0,0,0,7.7,2.2,10.5,10.5,0,0,0,5.7-1.9,4.981,4.981,0,0,0,3.5-4.6,15.217,15.217,0,0,0,.8-5.6c0-3.6-.7-7.1-3-10a10.927,10.927,0,0,0-3.8-3.6,15.205,15.205,0,0,0-6-.3,15.441,15.441,0,0,0-5.9,1.4,16.448,16.448,0,0,0-6.7,4.3,3.083,3.083,0,0,0,1,.1c.9.1,1.7.1,2.6.2,1.8.1,3.7.3,5.5.3h2.6a5.073,5.073,0,0,1,2.4-.4c1.9,0,3.2.8,4.8,1.9,0-.3-.1-.5-.1-.8a20.9,20.9,0,0,1,0,5,2.221,2.221,0,0,1,1,2,4.368,4.368,0,0,1-3.4,3.7,5.63,5.63,0,0,1-3-1.2,5.035,5.035,0,0,0-2.6-1.1,5.455,5.455,0,0,1-2.6-2.8,7.29,7.29,0,0,1-.5-4.6,6.469,6.469,0,0,1-.9.8,16.6,16.6,0,0,0,1.4-1.3c-3,1.3-6,2.7-8.9,4,3.3-1.4,6.7-2.9,10-4.3a2.9,2.9,0,0,1,.9-1.5,4.345,4.345,0,0,1,2.9-1.3,3.7,3.7,0,0,0-1.1-.5c-1.4-.6-2.8-1.2-4.1-1.8C340.4,442.2,335.5,439.8,335.2,440.1Z" transform="translate(-330.37 -436.553)" fill="#aaaf89" opacity="0.108"/>
            <path id="Path_683" data-name="Path 683" d="M334.8,438.4a13.373,13.373,0,0,0-3.4,15.2c1.5,4,5.2,7.1,8.7,9.3a19.941,19.941,0,0,0,7.8,2.9,7.8,7.8,0,0,0,5.2-1.5,6.367,6.367,0,0,0,3.8-4.7,16.976,16.976,0,0,0,1.7-6.6,18.3,18.3,0,0,0,0-6.6,6.673,6.673,0,0,0-2.3-5.2,9.254,9.254,0,0,0-3.8-3,17.89,17.89,0,0,0-6.9-.4,22.9,22.9,0,0,0-6.8,1.4,12.345,12.345,0,0,0-6.9,4.5,7.989,7.989,0,0,1,1.9-.2c1.5-.2,2.9-.4,4.4-.6a50.327,50.327,0,0,1,8.7-.9,12.308,12.308,0,0,1,3.8.4,17.527,17.527,0,0,1,5.8,1.7c-1.2-1.9-2.5-3.8-3.7-5.7,1.3,2.6,2.6,5.3,3.9,7.9v-.4a55.119,55.119,0,0,1-2.3,9.1,13.388,13.388,0,0,1-1.6,3.7,13.928,13.928,0,0,1-3.9,5.1c1.7-.1,3.4-.3,5.2-.4l-6.6.3c1.3.4,2.6.8,3.9,1.3-2.6-1.4-5.2-2.9-7.8-4.3-.7-.9-1.5-1.8-2.2-2.7-.7-1.1-1.4-2.2-2-3.2a5.766,5.766,0,0,1-.8-6.8c.5-2,.6-3.5,2.1-4.9a6.974,6.974,0,0,1,3.3-1.7,3.552,3.552,0,0,0-.9-.4c-1.2-.4-2.3-.8-3.5-1.2C339.1,439.8,335.1,438.1,334.8,438.4Z" transform="translate(-330.37 -436.553)" fill="#aaaf89" opacity="0.108"/>
            <path id="Path_684" data-name="Path 684" d="M335.9,440.6a11.54,11.54,0,0,0-2.7,4.5,20.16,20.16,0,0,0-1,7.3,13.347,13.347,0,0,0,2.8,7.1,23.024,23.024,0,0,0,8.8,7c3.3,1.6,6.7,2.7,10.3,1.1l3.6-2.1c.8-1.3,1.6-2.5,2.5-3.8a20.333,20.333,0,0,0,1.7-10.6c-.1-.9,0-2.5-.2-3.5a7.837,7.837,0,0,0-.9-2.1,38.543,38.543,0,0,0-2.9-4.3c-.1-.1-.2-.1-.2-.2a9.433,9.433,0,0,0-2.3-1c-1.7-.2-3.4-.3-5-.5-1.7.1-3.4.3-5.1.4-8.8,1-6.7.3-12.3,4.9-.2.1-.1,1-.1,1a14.168,14.168,0,0,1,8.8-4.9c-.4.1-.8.3-1.3.4a36.567,36.567,0,0,1,17.4,0,18.89,18.89,0,0,0-2.5-1.1c1.4,1.4,2.9,2.7,4.3,4.1-.5-.6-1-1.2-1.5-1.7,1.2,1.8,2.3,3.7,3.5,5.5-.3-.8-.7-1.6-1-2.4a22.188,22.188,0,0,1-2.9,15.3,15.519,15.519,0,0,1-3.9,5.3c1.1-.2,2.3-.4,3.4-.5-4.7-.6-9.5-1.3-14.2-1.9-.9-.7-1.9-1.5-2.8-2.2-.8-.9-1.7-1.9-2.5-2.8a7.581,7.581,0,0,1-2.1-7.3c0-2.6-.4-4.3.9-6.5a5.9,5.9,0,0,1,2.8-2.6l-1.7-.8C337.6,441.3,336,440.4,335.9,440.6Z" transform="translate(-330.37 -436.553)" fill="#aaaf89" opacity="0.108"/>
            <path id="Path_685" data-name="Path 685" d="M335.7,437.2A13.165,13.165,0,0,0,332,443a14.784,14.784,0,0,0,.2,9.3,21.638,21.638,0,0,0,5.2,6.8c1.2.9,2.4,1.9,3.6,2.8a20.922,20.922,0,0,0,7.9,3.2,7.766,7.766,0,0,0,5.3-1.6,6.967,6.967,0,0,0,4-4.8,15.828,15.828,0,0,0,1.7-6.7,16.825,16.825,0,0,0-.1-6.7,6.7,6.7,0,0,0-2.5-5.2,10.092,10.092,0,0,0-4-3.1,17.317,17.317,0,0,0-6.8-.2,18.8,18.8,0,0,0-6.6,1.6,14.132,14.132,0,0,0-6.8,4.4c.2-.2,1.9.1,2.3.1a20.453,20.453,0,0,0,3.5,0,49.48,49.48,0,0,1,9.4-1.3,16.166,16.166,0,0,1,3.8.2,17.154,17.154,0,0,1,5.8,1.5c-1.3-1.9-2.7-3.7-4-5.6,1.4,2.1,2.9,4.1,4.3,6.2-.6-1.5-1.2-3-1.7-4.5.6,1.9,1.2,3.7,1.8,5.6.1-1.1.2-2.1.4-3.2a89.213,89.213,0,0,1-2.5,12.5,12.57,12.57,0,0,1-1.5,3.8,15.33,15.33,0,0,1-3.7,5.4c.4-.1.9-.2,1.3-.3-1.1.2-2.1.4-3.2.6.9.1,1.8.3,2.8.4-1.6-.3-3.3-.6-4.9-.9.4.3.7.6,1.1.9a46.142,46.142,0,0,1-7.6-7.7c-1.9-2.6-5.6-8.2-3.3-11.6.5-.6,1.1-1.2,1.6-1.8.3-.5.6-.9.9-1.4a8.2,8.2,0,0,1,4.3-2.5c-.3-.1-.5-.2-.8-.3-1.1-.3-2.1-.5-3.2-.8C339.6,438.1,336,436.9,335.7,437.2Z" transform="translate(-330.37 -436.553)" fill="#aaaf89" opacity="0.108"/>
            <path id="Path_686" data-name="Path 686" d="M336.8,440.1a14.64,14.64,0,0,0-3.8,6,14.135,14.135,0,0,0,.6,9.9,17.769,17.769,0,0,0,5.2,5.7c1.2.7,2.3,1.4,3.5,2.1a21.037,21.037,0,0,0,7.8,2.1,10.181,10.181,0,0,0,5.6-1.9,5.228,5.228,0,0,0,3.5-4.6,11.642,11.642,0,0,0,.7-5.5,13.267,13.267,0,0,0-.9-5.2,6.463,6.463,0,0,0-2.6-4.3,12.178,12.178,0,0,0-4.2-2.9,11.806,11.806,0,0,0-5.6-.2,14.739,14.739,0,0,0-5.4,1.3,14.5,14.5,0,0,0-6.1,4.3c.1,0,.2.1.3.1,3.7,1.2,7.4,2.5,11.1,3.7a.849.849,0,0,1,.8-.7,1.612,1.612,0,0,1,1.7.9.965.965,0,0,1,.3,1.4c-.1.4-.3.9-.4,1.3.4.4,2.2-.9,2.3.5.1.6-.5.8-1.1.8H348l-1.8-.9H345l-1.2-.6c-1.5-1.2-1-3.5-.7-5l-.2.2a4.349,4.349,0,0,1,.7-.6c-2.7,1.1-5.4,2.3-8.1,3.4,3-1.2,6.1-2.5,9.1-3.7a3.072,3.072,0,0,1,1-1.5,5.445,5.445,0,0,1,3-1.3,6.116,6.116,0,0,0-1.2-.5c-1.6-.6-3.1-1.2-4.7-1.8s-3.1-1.2-4.7-1.8A1.693,1.693,0,0,0,336.8,440.1Z" transform="translate(-330.37 -436.553)" fill="#aaaf89" opacity="0.108"/>
            <path id="Path_687" data-name="Path 687" d="M335.7,438.6a13.785,13.785,0,0,0-4,5.8,14.086,14.086,0,0,0,.5,9.9,18.383,18.383,0,0,0,5.4,5.7c1.2.7,2.3,1.4,3.5,2.1a22.308,22.308,0,0,0,7.5,2.2,11.04,11.04,0,0,0,5.6-1.9,4.865,4.865,0,0,0,3.4-4.5,13.32,13.32,0,0,0,.7-5.6,13.9,13.9,0,0,0-.8-5.4,6.2,6.2,0,0,0-2.6-4.6,9.588,9.588,0,0,0-9.9-3.2,13.72,13.72,0,0,0-5.5,1.5,13.05,13.05,0,0,0-6.1,4.5,6.116,6.116,0,0,0,1.2.5c1.6.6,3.2,1.1,4.7,1.6,1.6.5,3.2,1.1,4.8,1.6a4.95,4.95,0,0,0,1.3.4.98.98,0,0,0,1.2.3q.45-.3.9.3c-.2-3.6-.5-7.1-.7-10.7-4,9-3.4,13.2,1.8,12.4.3.1.7.3,1,.4,1.3,1.3-1.1,1.3-1.8,1.3a2.94,2.94,0,0,1-2.3-1.2,2.016,2.016,0,0,1-1.8-.6c-2.1-1.6-1.6-4-1.1-6.2-3.1,2.7-6.3,5.4-9.4,8.2,3.4-2.9,6.9-5.7,10.3-8.6l-11.1,5.4,12.6-5.7a2.73,2.73,0,0,1,1.2-.9,6.147,6.147,0,0,1,3.3-.3,7.837,7.837,0,0,0-1.4-.5c-1.8-.6-3.7-1.2-5.5-1.8s-3.7-1.2-5.5-1.8A3.507,3.507,0,0,0,335.7,438.6Z" transform="translate(-330.37 -436.553)" fill="#aaaf89" opacity="0.108"/>
          </g>
        </g>
      </g>
      <g id="Group_1078" data-name="Group 1078" transform="translate(209.565 413.824)">
        <g id="Group_1077" data-name="Group 1077">
          <g id="Group_1076" data-name="Group 1076">
            <path id="Path_688" data-name="Path 688" d="M223.2,439.6a13.571,13.571,0,0,0-3.9,5.8,14.113,14.113,0,0,0,.5,9.9,17.027,17.027,0,0,0,5.4,5.6c1.2.7,2.3,1.3,3.5,2a19.923,19.923,0,0,0,7.5,2,11.04,11.04,0,0,0,5.6-1.9,5.115,5.115,0,0,0,3.5-4.6,13.319,13.319,0,0,0,.7-5.6,13.676,13.676,0,0,0-.8-5.3,5.649,5.649,0,0,0-2.6-4.4,12.017,12.017,0,0,0-4.5-2.9,10.641,10.641,0,0,0-5.6,0,14.661,14.661,0,0,0-5.4,1.6,12.311,12.311,0,0,0-6,4.5c.1-.1,6.2,2.6,6.2,2.6,1.6.7,3.3,1.3,4.9,2a6.943,6.943,0,0,0,1.3.5c3.8-1.2,7.7-2.4,11.5-3.6-3.4,1.3-6.8,2.6-10.1,3.8.2,0,2.3.1,1.7.7a4.441,4.441,0,0,1-2-.1,13.028,13.028,0,0,1-1.5-1c-.3,0-.6.1-.9.1-1.6-.3-1.4-2.5-1.3-3.6-2.8,3.4-5.6,6.9-8.4,10.3,1.2-1.4,7.7-13.1,13.9-13.2a.6.6,0,0,1-.4-.1c.6.1,1.2.2,1.7.3l-1.5-.6c-1.9-.7-3.8-1.5-5.7-2.2l-5.7-2.1C224.3,439.9,223.8,439.8,223.2,439.6Z" transform="translate(-217.57 -436.553)" fill="#aaaf89" opacity="0.108"/>
            <path id="Path_689" data-name="Path 689" d="M223.8,438.1a14.325,14.325,0,0,0-4.1,5.9,13.055,13.055,0,0,0,.6,9.7,19.294,19.294,0,0,0,5.3,5.7c1.2.7,2.3,1.4,3.5,2.1a20.234,20.234,0,0,0,7.5,2.2,11.29,11.29,0,0,0,5.7-1.8,4.854,4.854,0,0,0,3.5-4.4,11.9,11.9,0,0,0,.7-5.6,15.52,15.52,0,0,0-.8-5.6,6.405,6.405,0,0,0-2.6-4.7,12.3,12.3,0,0,0-4.4-3,11.022,11.022,0,0,0-5.7-.1,12.856,12.856,0,0,0-5.4,1.5,13.29,13.29,0,0,0-6,4.5c.4.2.8.3,1.2.5,1.5.5,3,1.1,4.5,1.6s3,1,4.6,1.5a5.637,5.637,0,0,0,1.2.4,1.608,1.608,0,0,0,1.6.4,1,1,0,0,1,1.1.4c-.3-3.6-.6-7.2-.8-10.8-3.9,9.1-3.2,13.4,2,12.9.3.2.7.3,1,.5,1.2,1.4-1.1,1.5-1.9,1.4a3.58,3.58,0,0,1-2.5-1.1,2.119,2.119,0,0,1-1.9-.6c-2.2-1.6-1.9-3.9-1.5-6.2-2.9,2.5-5.9,5-8.8,7.4,3.2-2.6,6.4-5.3,9.6-7.9-3.5,1.6-6.9,3.2-10.4,4.8,3.9-1.7,7.8-3.4,11.8-5.1a3.759,3.759,0,0,1,1.4-1.4,7.35,7.35,0,0,1,3.6-1.2c-.5-.2-.9-.3-1.4-.5-1.8-.5-3.5-1-5.3-1.5s-3.6-1-5.3-1.5C224.7,438.3,224.2,438.2,223.8,438.1Z" transform="translate(-217.57 -436.553)" fill="#aaaf89" opacity="0.108"/>
            <path id="Path_690" data-name="Path 690" d="M224.2,439.4a13.785,13.785,0,0,0-4,5.8,13.3,13.3,0,0,0,.5,9.8,19.833,19.833,0,0,0,5.3,5.5c1.2.7,2.3,1.3,3.5,2a22.191,22.191,0,0,0,7.6,2.2,11.29,11.29,0,0,0,5.7-1.8c2.1-.6,3.2-2.1,3.5-4.5a13.268,13.268,0,0,0,.6-5.6,15.951,15.951,0,0,0-.9-5.3,6.186,6.186,0,0,0-2.6-4.5,12.845,12.845,0,0,0-4.3-3,13.215,13.215,0,0,0-5.6,0,13.64,13.64,0,0,0-5.3,1.6,12.517,12.517,0,0,0-5.9,4.5c.1-.1,6.4,2.9,6.3,2.9,1.7.8,3.3,1.5,5,2.2a5.782,5.782,0,0,0,1.4.5c-2.6-.8-3.7-2.3-3-4.5-2.8,3.4-5.6,6.9-8.3,10.3,3.8-4.1,7.6-8.3,11.4-12.4a1.9,1.9,0,0,1,1.1-.7,6.467,6.467,0,0,1,3.1-.1l-1.5-.6c-1.9-.7-3.9-1.4-5.8-2-1.9-.7-3.9-1.3-5.8-2C225.3,439.6,224.7,439.5,224.2,439.4Z" transform="translate(-217.57 -436.553)" fill="#aaaf89" opacity="0.108"/>
            <path id="Path_691" data-name="Path 691" d="M223.6,440a13.282,13.282,0,0,0-3.1,7.4,34.4,34.4,0,0,0-.3,4.6,7.591,7.591,0,0,0,1.7,5.2,21.966,21.966,0,0,0,11.8,9.6c1.4.3,2.8.7,4.2,1a14.013,14.013,0,0,0,7.6-3.2c2.8-2.8,4-8.3,3.9-12a18.66,18.66,0,0,0-1.7-7.6,12.106,12.106,0,0,0-4.6-4.1c-1.5-.2-3-.5-4.6-.7a28.062,28.062,0,0,0-9.1,1.1,12.836,12.836,0,0,0-7.2,3.9c-.3.2.9-.2.7-.1,2.3-.8,4.7-1.6,7-2.4a.9.9,0,0,0-.5.1,27.951,27.951,0,0,1,10.4.2,19.964,19.964,0,0,1,6.3,1.9c-.9-1.2-1.9-2.4-2.8-3.5,1.2,1.7,2.5,3.4,3.7,5.1-.4-.9-.8-1.9-1.1-2.8.6,1.6,1.2,3.3,1.9,4.9,0-1.1-.1-2.3-.1-3.4-.5,5.8-1.8,19.1-11.1,18.9-3.8-.1-7.4-2.8-9.8-5.5a14.636,14.636,0,0,1-2.9-4.4c-1.3-2.7-1.2-5.2.5-7.4a6.766,6.766,0,0,1,1.4-3.1,5.552,5.552,0,0,1,2.5-1.8,15.955,15.955,0,0,1-2.3-1A17.022,17.022,0,0,0,223.6,440Z" transform="translate(-217.57 -436.553)" fill="#aaaf89" opacity="0.108"/>
            <path id="Path_692" data-name="Path 692" d="M224,437.3a13.426,13.426,0,0,0-3.7,5.7,14.482,14.482,0,0,0,.3,9.2,22.916,22.916,0,0,0,5.1,6.9c1.2.9,2.4,1.9,3.6,2.8a19.124,19.124,0,0,0,8,3.1,8.569,8.569,0,0,0,5.6-1.6,5.83,5.83,0,0,0,3.8-4.6,15.136,15.136,0,0,0,1.3-6.3,17.81,17.81,0,0,0-.3-6.5,6.936,6.936,0,0,0-2.5-5.4,10.269,10.269,0,0,0-4.2-3.2,13.885,13.885,0,0,0-6.4-.3,17.08,17.08,0,0,0-6.2,1.5,14.612,14.612,0,0,0-6.6,4.3c.2,0,.5.1.7,0a12.1,12.1,0,0,0,1.9-.1c1.3-.1,2.7-.1,4-.2a34.9,34.9,0,0,1,7.2-.5,16.307,16.307,0,0,1,6.9,2.4c-.1-.2-.1-.5-.2-.7.9,3.3,1.5,6.4.9,9.8a11.972,11.972,0,0,1-1.2,4.2,9.341,9.341,0,0,1-5.6,5.4c1.4.3,2.9.6,4.3,1-1.9-.5-3.9-1-5.8-1.5.1.1.2.1.3.2a51.946,51.946,0,0,1-5.2-5.3c-.8-1.1-1.6-2.2-2.3-3.3a6.078,6.078,0,0,1-1-7.5c.6-2.8.5-4,2.4-5.6a9.3,9.3,0,0,1,3.9-1.8l-.9-.3c-1.1-.3-2.3-.6-3.4-.8C228.1,438.2,224.3,437,224,437.3Z" transform="translate(-217.57 -436.553)" fill="#aaaf89" opacity="0.108"/>
            <path id="Path_693" data-name="Path 693" d="M224.8,439.2a13.655,13.655,0,0,0-3.1,15.1c1.4,3.7,5.1,6.6,8.4,8.7a22.306,22.306,0,0,0,7.9,3,10.465,10.465,0,0,0,5.9-2,5.438,5.438,0,0,0,3.7-4.7,14.4,14.4,0,0,0,.9-5.8,15.951,15.951,0,0,0-.7-5.7,8.028,8.028,0,0,0-2.5-4.8,11.623,11.623,0,0,0-4-3.3,13.972,13.972,0,0,0-6.1-.2,16.451,16.451,0,0,0-5.8,1.4,17.1,17.1,0,0,0-6.5,4.1s2.6.2,2,.2l4.8.3h5.4a5.918,5.918,0,0,1,2.9.7,2.546,2.546,0,0,1,2.1,2.1,2.611,2.611,0,0,1,1,2.9,1.491,1.491,0,0,0,.2,1.7,1.594,1.594,0,0,1,.4,1.2,2.75,2.75,0,0,1-.5,2.3l-1.2,1.5c-.6.4-1.3.7-1.9,1.1-.7-.2-1.4-.3-2.1-.5-.8-.4-1.6-.9-2.4-1.3-.6-.3-1.2-.5-1.8-.8a7.774,7.774,0,0,1-2.6-2.5c-1.5-2.1-1.7-3.9-1.9-6.5a3.508,3.508,0,0,0-.5.8c.4-.6.9-1.2,1.3-1.7a3.039,3.039,0,0,1-.7.5c.7-.5,1.4-.9,2.1-1.4a4.573,4.573,0,0,1,1.4-1.7,7.7,7.7,0,0,1,3.6-1.5,3,3,0,0,0-1-.4c-1.3-.4-2.5-.8-3.8-1.2C229.5,440.7,225.1,438.9,224.8,439.2Z" transform="translate(-217.57 -436.553)" fill="#aaaf89" opacity="0.108"/>
            <path id="Path_694" data-name="Path 694" d="M222.1,437.6a13.446,13.446,0,0,0-4.3,8.6,14.95,14.95,0,0,0,.7,6.6,23.227,23.227,0,0,0,5.2,6.8,17.913,17.913,0,0,0,5.6,3.8,15.464,15.464,0,0,0,5.9,2.1,10.466,10.466,0,0,0,6.8-2.4,6.548,6.548,0,0,0,2.6-4.1,24.17,24.17,0,0,0,2.1-9.1c0-2.5-.2-6.3-1.5-8.4a13.629,13.629,0,0,0-2.4-2.4,9.734,9.734,0,0,0-7.5-2.2,26.858,26.858,0,0,0-9.3,1.7,12.723,12.723,0,0,0-6.9,4.4,8.572,8.572,0,0,0,1.3-.3c1-.3,2-.5,3-.8a35.957,35.957,0,0,1,11.7-2,28.152,28.152,0,0,1,8.6,1.4l-1-1c.6.7,1.3,1.3,1.9,2-.5-.8-.9-1.6-1.4-2.3l2.1,3.9a19.524,19.524,0,0,1-.2-2.3,42.356,42.356,0,0,1-2.1,14.6,21.625,21.625,0,0,1-4.6,7.9c1.1-.3,2.1-.6,3.2-.9-2.8.3-5.5.7-8.3,1,.5.3.9.7,1.4,1a43.889,43.889,0,0,1-8.3-7.8c-2-2.6-6-8.3-3.7-11.7.5-.6,1-1.3,1.6-1.9.3-.5.6-1,.9-1.4a7.194,7.194,0,0,1,4.2-2.6,6.884,6.884,0,0,0-.8-.3c-1-.3-1.9-.6-2.9-.8C225.7,438.5,222.4,437.3,222.1,437.6Z" transform="translate(-217.57 -436.553)" fill="#aaaf89" opacity="0.108"/>
            <path id="Path_695" data-name="Path 695" d="M222.6,439.4a14.874,14.874,0,0,0-4.2,5.7,13.322,13.322,0,0,0,.5,9.8c1.5,3.7,5.4,6.4,8.7,8.2a16.991,16.991,0,0,0,7.6,2.1,11.96,11.96,0,0,0,5.6-1.8,4.642,4.642,0,0,0,3.4-4.4,12.6,12.6,0,0,0,.7-5.4,16.076,16.076,0,0,0-3-9.9,10.629,10.629,0,0,0-3.7-3.6,11.445,11.445,0,0,0-5.8-.3,16.838,16.838,0,0,0-5.8,1.3,15.447,15.447,0,0,0-6.4,4.3l2.8.4c2.2.3,4.4.6,6.5.9,1.1.1,2.1.3,3.2.4a2.787,2.787,0,0,1,1.8-.1c1.7.2,2.6,1.1,3.8,2.2,0-.8-.1-1.6-.1-2.4a24.387,24.387,0,0,1-.3,6.6.955.955,0,0,1,1.1.9c.1,1.5-2.2,2.3-3.2,2.2a5.586,5.586,0,0,1-2.8-1.3,3.25,3.25,0,0,0-2.4-1,5.294,5.294,0,0,1-2.4-2.7,7.654,7.654,0,0,1-.2-4.5c-2.8,2.4-5.5,4.7-8.3,7.1,3-2.5,6-5,8.9-7.4-3.3,1.4-6.5,2.8-9.8,4.3,3.7-1.5,7.3-3,11-4.5a2.758,2.758,0,0,1,1.2-1.4,6.154,6.154,0,0,1,3.2-1.1,6.117,6.117,0,0,0-1.2-.5c-1.6-.6-3.1-1.2-4.7-1.8s-3.1-1.2-4.7-1.8C223.5,439.6,223.1,439.5,222.6,439.4Z" transform="translate(-217.57 -436.553)" fill="#aaaf89" opacity="0.108"/>
            <path id="Path_696" data-name="Path 696" d="M222.6,440.6a15.047,15.047,0,0,0-2.7,15.6c1.4,3.9,5.2,6.7,8.6,8.8a19.928,19.928,0,0,0,7.9,2.6,10.728,10.728,0,0,0,5.7-2.1,6.164,6.164,0,0,0,3.8-4.7,13.8,13.8,0,0,0,1.3-6c.3-3.7-.1-7.6-2.5-10.5a8.787,8.787,0,0,0-3.4-2.9,17.565,17.565,0,0,0-6.8-.7,19.687,19.687,0,0,0-6.8,1,12.491,12.491,0,0,0-7.2,4.1,4.514,4.514,0,0,1,1.3-.3,28.552,28.552,0,0,1,14.7-1.8,23.207,23.207,0,0,1,7.7,2.5c-.9-1.5-1.8-2.9-2.6-4.4,1,1.9,2.1,3.7,3.1,5.6-.3-1.3-.6-2.7-1-4,.4,1.9.8,3.8,1.2,5.6.2-.9.3-1.8.5-2.7-1,4.6-1.8,9.3-5.2,12.8-1.4,2.2-3.2,2.8-5.4,1.9l-4.8-2.1a10.629,10.629,0,0,1-3.6-3.7c-1.6-2.3-1.5-4.8.2-7.4a5.207,5.207,0,0,1,3.3-4,2.506,2.506,0,0,0-.7-.4c-.9-.4-1.9-.9-2.9-1.3C226.2,442.2,222.8,440.4,222.6,440.6Z" transform="translate(-217.57 -436.553)" fill="#aaaf89" opacity="0.108"/>
            <path id="Path_697" data-name="Path 697" d="M224.4,438.3a13.789,13.789,0,0,0-2.9,15.2,20.547,20.547,0,0,0,5,6c1.1.8,2.3,1.6,3.4,2.4a21.159,21.159,0,0,0,7.7,2.9,10.833,10.833,0,0,0,5.8-1.9,5.292,5.292,0,0,0,3.7-4.5,13.46,13.46,0,0,0,.9-5.6,15.149,15.149,0,0,0-.7-5.6,8.172,8.172,0,0,0-2.4-4.8,10.446,10.446,0,0,0-3.9-3.3,13.524,13.524,0,0,0-6-.2,16.838,16.838,0,0,0-5.8,1.3,15.8,15.8,0,0,0-6.4,4,12.231,12.231,0,0,1,1.7.3c1.6.2,3.3.5,4.9.7,2.2.3,4.3.6,6.4.7a6.311,6.311,0,0,1,2.3.8,2.5,2.5,0,0,1,1.7,2.2,2.866,2.866,0,0,1,.7,2.9c-.4.7-.3,1.1.2,1.4a.67.67,0,0,1,.4.7,1.42,1.42,0,0,1-.4,1.6,5.161,5.161,0,0,1-3.1,1.8c-1.6.1-3-1.2-4.3-1.9-.6-.2-1.1-.5-1.7-.7a5.894,5.894,0,0,1-2.3-2.4c-1.3-2.1-1.4-3.9-1.4-6.3-.6.7-1.1,1.4-1.7,2,.8-1,1.7-2,2.5-3-.7.5-1.4.9-2.2,1.4,1.2-.7,2.4-1.5,3.6-2.2a3.435,3.435,0,0,1,1.3-1.6,6.609,6.609,0,0,1,3.4-1.5,3.582,3.582,0,0,0-1.1-.4c-1.4-.4-2.7-.8-4.1-1.2C229.5,439.6,224.8,437.9,224.4,438.3Z" transform="translate(-217.57 -436.553)" fill="#aaaf89" opacity="0.108"/>
            <path id="Path_698" data-name="Path 698" d="M222.5,440.1a13.283,13.283,0,0,0-3.9,5.8,14.374,14.374,0,0,0,.5,9.8c1.5,3.7,5.3,6.5,8.7,8.3a18.964,18.964,0,0,0,7.7,2.2,10.5,10.5,0,0,0,5.7-1.9,4.981,4.981,0,0,0,3.5-4.6,15.218,15.218,0,0,0,.8-5.6c0-3.6-.7-7.1-3-10a10.927,10.927,0,0,0-3.8-3.6,15.205,15.205,0,0,0-6-.3,15.441,15.441,0,0,0-5.9,1.4,16.448,16.448,0,0,0-6.7,4.3,3.083,3.083,0,0,0,1,.1c.9.1,1.7.1,2.6.2,1.8.1,3.7.3,5.5.3h2.6a5.073,5.073,0,0,1,2.4-.4c1.9,0,3.2.8,4.8,1.9,0-.3-.1-.5-.1-.8a20.9,20.9,0,0,1,0,5,2.221,2.221,0,0,1,1,2,4.368,4.368,0,0,1-3.4,3.7,5.63,5.63,0,0,1-3-1.2,5.035,5.035,0,0,0-2.6-1.1,5.455,5.455,0,0,1-2.6-2.8,7.29,7.29,0,0,1-.5-4.6,6.47,6.47,0,0,1-.9.8,16.6,16.6,0,0,0,1.4-1.3c-3,1.3-6,2.7-8.9,4,3.3-1.4,6.7-2.9,10-4.3a2.9,2.9,0,0,1,.9-1.5,4.345,4.345,0,0,1,2.9-1.3,3.7,3.7,0,0,0-1.1-.5c-1.4-.6-2.8-1.2-4.1-1.8C227.7,442.2,222.8,439.8,222.5,440.1Z" transform="translate(-217.57 -436.553)" fill="#aaaf89" opacity="0.108"/>
            <path id="Path_699" data-name="Path 699" d="M222,438.4a13.373,13.373,0,0,0-3.4,15.2c1.5,4,5.2,7.1,8.7,9.3a19.941,19.941,0,0,0,7.8,2.9,7.8,7.8,0,0,0,5.2-1.5,6.367,6.367,0,0,0,3.8-4.7,16.976,16.976,0,0,0,1.7-6.6,18.3,18.3,0,0,0,0-6.6,6.673,6.673,0,0,0-2.3-5.2,9.254,9.254,0,0,0-3.8-3,17.89,17.89,0,0,0-6.9-.4,22.9,22.9,0,0,0-6.8,1.4,12.344,12.344,0,0,0-6.9,4.5,7.989,7.989,0,0,1,1.9-.2c1.5-.2,2.9-.4,4.4-.6a50.327,50.327,0,0,1,8.7-.9,12.308,12.308,0,0,1,3.8.4,17.527,17.527,0,0,1,5.8,1.7c-1.2-1.9-2.5-3.8-3.7-5.7,1.3,2.6,2.6,5.3,3.9,7.9v-.4a55.116,55.116,0,0,1-2.3,9.1,13.389,13.389,0,0,1-1.6,3.7,13.928,13.928,0,0,1-3.9,5.1c1.7-.1,3.4-.3,5.2-.4l-6.6.3c1.3.4,2.6.8,3.9,1.3-2.6-1.4-5.2-2.9-7.8-4.3-.7-.9-1.5-1.8-2.2-2.7-.7-1.1-1.4-2.2-2-3.2a5.766,5.766,0,0,1-.8-6.8c.5-2,.6-3.5,2.1-4.9a6.974,6.974,0,0,1,3.3-1.7,3.552,3.552,0,0,0-.9-.4c-1.2-.4-2.3-.8-3.5-1.2C226.3,439.8,222.3,438.1,222,438.4Z" transform="translate(-217.57 -436.553)" fill="#aaaf89" opacity="0.108"/>
            <path id="Path_700" data-name="Path 700" d="M223.1,440.6a11.54,11.54,0,0,0-2.7,4.5,20.161,20.161,0,0,0-1,7.3,13.346,13.346,0,0,0,2.8,7.1,23.024,23.024,0,0,0,8.8,7c3.3,1.6,6.7,2.7,10.3,1.1l3.6-2.1c.8-1.3,1.6-2.5,2.5-3.8a20.332,20.332,0,0,0,1.7-10.6c-.1-.9,0-2.5-.2-3.5a7.837,7.837,0,0,0-.9-2.1,38.541,38.541,0,0,0-2.9-4.3c-.1-.1-.2-.1-.2-.2a9.432,9.432,0,0,0-2.3-1c-1.7-.2-3.4-.3-5-.5-1.7.1-3.4.3-5.1.4-8.8,1-6.7.3-12.3,4.9-.2.1-.1,1-.1,1a14.168,14.168,0,0,1,8.8-4.9c-.4.1-.8.3-1.3.4a36.567,36.567,0,0,1,17.4,0,18.891,18.891,0,0,0-2.5-1.1c1.4,1.4,2.9,2.7,4.3,4.1-.5-.6-1-1.2-1.5-1.7,1.2,1.8,2.3,3.7,3.5,5.5-.3-.8-.7-1.6-1-2.4a22.188,22.188,0,0,1-2.9,15.3,15.519,15.519,0,0,1-3.9,5.3c1.1-.2,2.3-.4,3.4-.5-4.7-.6-9.5-1.3-14.2-1.9-.9-.7-1.9-1.5-2.8-2.2-.8-.9-1.7-1.9-2.5-2.8a7.581,7.581,0,0,1-2.1-7.3c0-2.6-.4-4.3.9-6.5a5.9,5.9,0,0,1,2.8-2.6l-1.7-.8C224.8,441.3,223.3,440.4,223.1,440.6Z" transform="translate(-217.57 -436.553)" fill="#aaaf89" opacity="0.108"/>
            <path id="Path_701" data-name="Path 701" d="M222.9,437.2a13.165,13.165,0,0,0-3.7,5.8,14.784,14.784,0,0,0,.2,9.3,21.638,21.638,0,0,0,5.2,6.8c1.2.9,2.4,1.9,3.6,2.8a20.922,20.922,0,0,0,7.9,3.2,7.766,7.766,0,0,0,5.3-1.6,6.967,6.967,0,0,0,4-4.8,15.828,15.828,0,0,0,1.7-6.7,16.825,16.825,0,0,0-.1-6.7,6.7,6.7,0,0,0-2.5-5.2,10.092,10.092,0,0,0-4-3.1,17.317,17.317,0,0,0-6.8-.2,18.8,18.8,0,0,0-6.6,1.6,14.132,14.132,0,0,0-6.8,4.4c.2-.2,1.9.1,2.3.1a20.453,20.453,0,0,0,3.5,0,49.48,49.48,0,0,1,9.4-1.3,16.166,16.166,0,0,1,3.8.2,17.154,17.154,0,0,1,5.8,1.5c-1.3-1.9-2.7-3.7-4-5.6,1.4,2.1,2.9,4.1,4.3,6.2-.6-1.5-1.2-3-1.7-4.5.6,1.9,1.2,3.7,1.8,5.6.1-1.1.2-2.1.4-3.2a89.209,89.209,0,0,1-2.5,12.5,12.571,12.571,0,0,1-1.5,3.8,15.33,15.33,0,0,1-3.7,5.4c.4-.1.9-.2,1.3-.3-1.1.2-2.1.4-3.2.6.9.1,1.8.3,2.8.4-1.6-.3-3.3-.6-4.9-.9.4.3.7.6,1.1.9a46.142,46.142,0,0,1-7.6-7.7c-1.9-2.6-5.6-8.2-3.3-11.6.5-.6,1.1-1.2,1.6-1.8.3-.5.6-.9.9-1.4a8.2,8.2,0,0,1,4.3-2.5c-.3-.1-.5-.2-.8-.3-1.1-.3-2.1-.5-3.2-.8C226.9,438.1,223.3,436.9,222.9,437.2Z" transform="translate(-217.57 -436.553)" fill="#aaaf89" opacity="0.108"/>
            <path id="Path_702" data-name="Path 702" d="M224,440.1a14.64,14.64,0,0,0-3.8,6,14.135,14.135,0,0,0,.6,9.9,17.769,17.769,0,0,0,5.2,5.7c1.2.7,2.3,1.4,3.5,2.1a21.037,21.037,0,0,0,7.8,2.1,10.181,10.181,0,0,0,5.6-1.9,5.228,5.228,0,0,0,3.5-4.6,11.642,11.642,0,0,0,.7-5.5,13.267,13.267,0,0,0-.9-5.2,6.463,6.463,0,0,0-2.6-4.3,12.178,12.178,0,0,0-4.2-2.9,11.806,11.806,0,0,0-5.6-.2,14.739,14.739,0,0,0-5.4,1.3,14.5,14.5,0,0,0-6.1,4.3c.1,0,.2.1.3.1,3.7,1.2,7.4,2.5,11.1,3.7a.849.849,0,0,1,.8-.7,1.612,1.612,0,0,1,1.7.9.965.965,0,0,1,.3,1.4c-.1.4-.3.9-.4,1.3.4.4,2.2-.9,2.3.5.1.6-.5.8-1.1.8h-2.1l-1.8-.9h-1.2l-1.2-.6c-1.5-1.2-1-3.5-.7-5l-.2.2a4.349,4.349,0,0,1,.7-.6c-2.7,1.1-5.4,2.3-8.1,3.4,3-1.2,6.1-2.5,9.1-3.7a3.072,3.072,0,0,1,1-1.5,5.445,5.445,0,0,1,3-1.3,6.117,6.117,0,0,0-1.2-.5c-1.6-.6-3.1-1.2-4.7-1.8s-3.1-1.2-4.7-1.8A1.525,1.525,0,0,0,224,440.1Z" transform="translate(-217.57 -436.553)" fill="#aaaf89" opacity="0.108"/>
            <path id="Path_703" data-name="Path 703" d="M223,438.6a13.785,13.785,0,0,0-4,5.8,14.086,14.086,0,0,0,.5,9.9,18.382,18.382,0,0,0,5.4,5.7c1.2.7,2.3,1.4,3.5,2.1a22.308,22.308,0,0,0,7.5,2.2,11.04,11.04,0,0,0,5.6-1.9,4.865,4.865,0,0,0,3.4-4.5,13.319,13.319,0,0,0,.7-5.6,13.9,13.9,0,0,0-.8-5.4,6.2,6.2,0,0,0-2.6-4.6,9.588,9.588,0,0,0-9.9-3.2,13.72,13.72,0,0,0-5.5,1.5,13.05,13.05,0,0,0-6.1,4.5,6.117,6.117,0,0,0,1.2.5c1.6.6,3.2,1.1,4.7,1.6,1.6.5,3.2,1.1,4.8,1.6a4.951,4.951,0,0,0,1.3.4.98.98,0,0,0,1.2.3q.45-.3.9.3c-.2-3.6-.5-7.1-.7-10.7-4,9-3.4,13.2,1.8,12.4.3.1.7.3,1,.4,1.3,1.3-1.1,1.3-1.8,1.3a2.94,2.94,0,0,1-2.3-1.2,2.016,2.016,0,0,1-1.8-.6c-2.1-1.6-1.6-4-1.1-6.2-3.1,2.7-6.3,5.4-9.4,8.2,3.4-2.9,6.9-5.7,10.3-8.6l-11.1,5.4,12.6-5.7a2.73,2.73,0,0,1,1.2-.9,6.147,6.147,0,0,1,3.3-.3,7.837,7.837,0,0,0-1.4-.5c-1.8-.6-3.7-1.2-5.5-1.8s-3.7-1.2-5.5-1.8A3.506,3.506,0,0,0,223,438.6Z" transform="translate(-217.57 -436.553)" fill="#aaaf89" opacity="0.108"/>
          </g>
        </g>
      </g>
      <g id="Group_1081" data-name="Group 1081" transform="translate(120.87 231.653)">
        <g id="Group_1080" data-name="Group 1080">
          <g id="Group_1079" data-name="Group 1079">
            <path id="Path_704" data-name="Path 704" d="M126.5,234.7a13.571,13.571,0,0,0-3.9,5.8,14.113,14.113,0,0,0,.5,9.9,17.027,17.027,0,0,0,5.4,5.6c1.2.7,2.3,1.3,3.5,2a19.923,19.923,0,0,0,7.5,2,11.04,11.04,0,0,0,5.6-1.9,5.115,5.115,0,0,0,3.5-4.6,13.319,13.319,0,0,0,.7-5.6,13.676,13.676,0,0,0-.8-5.3,5.649,5.649,0,0,0-2.6-4.4,12.017,12.017,0,0,0-4.5-2.9,10.641,10.641,0,0,0-5.6,0,14.661,14.661,0,0,0-5.4,1.6,12.311,12.311,0,0,0-6,4.5c.1-.1,6.2,2.6,6.2,2.6,1.6.7,3.3,1.3,4.9,2a6.944,6.944,0,0,0,1.3.5c3.8-1.2,7.7-2.4,11.5-3.6-3.4,1.3-6.8,2.6-10.1,3.8.2,0,2.3.1,1.7.7a4.441,4.441,0,0,1-2-.1,13.03,13.03,0,0,1-1.5-1c-.3,0-.6.1-.9.1-1.6-.3-1.4-2.5-1.3-3.6-2.8,3.4-5.6,6.9-8.4,10.3,1.2-1.4,7.7-13.1,13.9-13.2a.6.6,0,0,1-.4-.1c.6.1,1.2.2,1.7.3l-1.5-.6c-1.9-.7-3.8-1.5-5.7-2.2l-5.7-2.1C127.6,235,127.1,234.9,126.5,234.7Z" transform="translate(-120.87 -231.653)" fill="#aaaf89" opacity="0.108"/>
            <path id="Path_705" data-name="Path 705" d="M127.1,233.2a14.325,14.325,0,0,0-4.1,5.9,13.055,13.055,0,0,0,.6,9.7,19.294,19.294,0,0,0,5.3,5.7c1.2.7,2.3,1.4,3.5,2.1a22.49,22.49,0,0,0,7.5,2.3,11.29,11.29,0,0,0,5.7-1.8,4.854,4.854,0,0,0,3.5-4.4,11.9,11.9,0,0,0,.7-5.6,15.52,15.52,0,0,0-.8-5.6,6.405,6.405,0,0,0-2.6-4.7,12.3,12.3,0,0,0-4.4-3,11.022,11.022,0,0,0-5.7-.1,12.856,12.856,0,0,0-5.4,1.5,13.29,13.29,0,0,0-6,4.5c.4.2.8.3,1.2.5,1.5.5,3,1.1,4.5,1.6s3,1,4.6,1.5a5.637,5.637,0,0,0,1.2.4,1.608,1.608,0,0,0,1.6.4,1,1,0,0,1,1.1.4c-.3-3.6-.6-7.2-.8-10.8-3.9,9.1-3.2,13.4,2,12.9.3.2.7.3,1,.5,1.2,1.4-1.1,1.5-1.9,1.4a3.58,3.58,0,0,1-2.5-1.1,2.119,2.119,0,0,1-1.9-.6c-2.2-1.6-1.9-3.9-1.5-6.2-2.9,2.5-5.9,5-8.8,7.4,3.2-2.6,6.4-5.3,9.6-7.9-3.5,1.6-6.9,3.2-10.4,4.8,3.9-1.7,7.8-3.4,11.8-5.1a3.759,3.759,0,0,1,1.4-1.4,7.35,7.35,0,0,1,3.6-1.2c-.5-.2-.9-.3-1.4-.5-1.8-.5-3.5-1-5.3-1.5s-3.6-1-5.3-1.5A9.039,9.039,0,0,0,127.1,233.2Z" transform="translate(-120.87 -231.653)" fill="#aaaf89" opacity="0.108"/>
            <path id="Path_706" data-name="Path 706" d="M127.5,234.5a13.785,13.785,0,0,0-4,5.8,13.3,13.3,0,0,0,.5,9.8,19.833,19.833,0,0,0,5.3,5.5c1.2.7,2.3,1.3,3.5,2a22.191,22.191,0,0,0,7.6,2.2,11.29,11.29,0,0,0,5.7-1.8c2.1-.6,3.2-2.1,3.5-4.5a13.268,13.268,0,0,0,.6-5.6,15.951,15.951,0,0,0-.9-5.3,6.186,6.186,0,0,0-2.6-4.5,12.845,12.845,0,0,0-4.3-3,13.215,13.215,0,0,0-5.6,0,13.639,13.639,0,0,0-5.3,1.6,12.517,12.517,0,0,0-5.9,4.5c.1-.1,6.4,2.9,6.3,2.9,1.7.8,3.3,1.5,5,2.2a5.783,5.783,0,0,0,1.4.5c-2.6-.8-3.7-2.3-3-4.5-2.8,3.4-5.6,6.9-8.3,10.3,3.8-4.1,7.6-8.3,11.4-12.4a1.9,1.9,0,0,1,1.1-.7,6.468,6.468,0,0,1,3.1-.1l-1.5-.6c-1.9-.7-3.9-1.4-5.8-2-1.9-.7-3.9-1.3-5.8-2A9.432,9.432,0,0,1,127.5,234.5Z" transform="translate(-120.87 -231.653)" fill="#aaaf89" opacity="0.108"/>
            <path id="Path_707" data-name="Path 707" d="M126.9,235.1a13.282,13.282,0,0,0-3.1,7.4,34.4,34.4,0,0,0-.3,4.6,7.591,7.591,0,0,0,1.7,5.2,21.966,21.966,0,0,0,11.8,9.6c1.4.3,2.8.7,4.2,1a14.013,14.013,0,0,0,7.6-3.2c2.8-2.8,4-8.3,3.9-12a18.66,18.66,0,0,0-1.7-7.6,12.106,12.106,0,0,0-4.6-4.1c-1.5-.2-3-.5-4.6-.7a28.062,28.062,0,0,0-9.1,1.1,12.836,12.836,0,0,0-7.2,3.9c-.3.2.9-.2.7-.1,2.3-.8,4.7-1.6,7-2.4a.9.9,0,0,0-.5.1,27.951,27.951,0,0,1,10.4.2,19.964,19.964,0,0,1,6.3,1.9c-.9-1.2-1.9-2.4-2.8-3.5,1.2,1.7,2.5,3.4,3.7,5.1-.4-.9-.8-1.9-1.1-2.8.6,1.6,1.2,3.3,1.9,4.9,0-1.1-.1-2.3-.1-3.4-.5,5.8-1.8,19.1-11.1,18.9-3.8-.1-7.4-2.8-9.8-5.5a14.637,14.637,0,0,1-2.9-4.4c-1.3-2.7-1.2-5.2.5-7.4a6.766,6.766,0,0,1,1.4-3.1,5.552,5.552,0,0,1,2.5-1.8,15.955,15.955,0,0,1-2.3-1A13.368,13.368,0,0,0,126.9,235.1Z" transform="translate(-120.87 -231.653)" fill="#aaaf89" opacity="0.108"/>
            <path id="Path_708" data-name="Path 708" d="M127.3,232.4a13.426,13.426,0,0,0-3.7,5.7,14.481,14.481,0,0,0,.3,9.2,22.916,22.916,0,0,0,5.1,6.9c1.2.9,2.4,1.9,3.6,2.8a19.124,19.124,0,0,0,8,3.1,8.569,8.569,0,0,0,5.6-1.6,5.83,5.83,0,0,0,3.8-4.6,15.136,15.136,0,0,0,1.3-6.3,17.81,17.81,0,0,0-.3-6.5,6.936,6.936,0,0,0-2.5-5.4,10.269,10.269,0,0,0-4.2-3.2,13.885,13.885,0,0,0-6.4-.3,17.08,17.08,0,0,0-6.2,1.5,14.612,14.612,0,0,0-6.6,4.3c.2,0,.5.1.7,0a12.1,12.1,0,0,0,1.9-.1c1.3-.1,2.7-.1,4-.2a34.9,34.9,0,0,1,7.2-.5,16.307,16.307,0,0,1,6.9,2.4c-.1-.2-.1-.5-.2-.7.9,3.3,1.5,6.4.9,9.8a11.972,11.972,0,0,1-1.2,4.2,9.341,9.341,0,0,1-5.6,5.4c1.4.3,2.9.6,4.3,1-1.9-.5-3.9-1-5.8-1.5.1.1.2.1.3.2a51.945,51.945,0,0,1-5.2-5.3c-.8-1.1-1.6-2.2-2.3-3.3a6.078,6.078,0,0,1-1-7.5c.6-2.8.5-4,2.4-5.6a9.3,9.3,0,0,1,3.9-1.8l-.9-.3c-1.1-.3-2.3-.6-3.4-.8C131.4,233.3,127.6,232.1,127.3,232.4Z" transform="translate(-120.87 -231.653)" fill="#aaaf89" opacity="0.108"/>
            <path id="Path_709" data-name="Path 709" d="M128.1,234.3a13.655,13.655,0,0,0-3.1,15.1c1.4,3.7,5.1,6.6,8.4,8.7a22.306,22.306,0,0,0,7.9,3,10.465,10.465,0,0,0,5.9-2,5.438,5.438,0,0,0,3.7-4.7,14.4,14.4,0,0,0,.9-5.8,15.951,15.951,0,0,0-.7-5.7,8.028,8.028,0,0,0-2.5-4.8,11.623,11.623,0,0,0-4-3.3,13.972,13.972,0,0,0-6.1-.2,16.451,16.451,0,0,0-5.8,1.4,17.1,17.1,0,0,0-6.5,4.1s2.6.2,2,.2l4.8.3h5.4a5.918,5.918,0,0,1,2.9.7,2.546,2.546,0,0,1,2.1,2.1,2.611,2.611,0,0,1,1,2.9,1.491,1.491,0,0,0,.2,1.7,1.594,1.594,0,0,1,.4,1.2,2.75,2.75,0,0,1-.5,2.3l-1.2,1.5c-.6.4-1.3.7-1.9,1.1-.7-.2-1.4-.3-2.1-.5-.8-.4-1.6-.9-2.4-1.3-.6-.3-1.2-.5-1.8-.8a7.774,7.774,0,0,1-2.6-2.5c-1.5-2.1-1.7-3.9-1.9-6.5a3.509,3.509,0,0,0-.5.8c.4-.6.9-1.2,1.3-1.7a3.039,3.039,0,0,1-.7.5c.7-.5,1.4-.9,2.1-1.4a4.573,4.573,0,0,1,1.4-1.7,7.7,7.7,0,0,1,3.6-1.5,3,3,0,0,0-1-.4c-1.3-.4-2.5-.8-3.8-1.2C132.8,235.8,128.4,234,128.1,234.3Z" transform="translate(-120.87 -231.653)" fill="#aaaf89" opacity="0.108"/>
            <path id="Path_710" data-name="Path 710" d="M125.4,232.7a13.446,13.446,0,0,0-4.3,8.6,14.95,14.95,0,0,0,.7,6.6,23.227,23.227,0,0,0,5.2,6.8,17.913,17.913,0,0,0,5.6,3.8,15.464,15.464,0,0,0,5.9,2.1,10.466,10.466,0,0,0,6.8-2.4,6.548,6.548,0,0,0,2.6-4.1A24.17,24.17,0,0,0,150,245c0-2.5-.2-6.3-1.5-8.4a13.63,13.63,0,0,0-2.4-2.4,9.733,9.733,0,0,0-7.5-2.2,26.858,26.858,0,0,0-9.3,1.7,12.723,12.723,0,0,0-6.9,4.4,8.572,8.572,0,0,0,1.3-.3c1-.3,2-.5,3-.8a35.957,35.957,0,0,1,11.7-2,28.152,28.152,0,0,1,8.6,1.4l-1-1c.6.7,1.3,1.3,1.9,2-.5-.8-.9-1.6-1.4-2.3l2.1,3.9a19.524,19.524,0,0,1-.2-2.3,42.356,42.356,0,0,1-2.1,14.6,21.625,21.625,0,0,1-4.6,7.9c1.1-.3,2.1-.6,3.2-.9-2.8.3-5.5.7-8.3,1,.5.3.9.7,1.4,1a43.889,43.889,0,0,1-8.3-7.8c-2-2.6-6-8.3-3.7-11.7.5-.6,1-1.3,1.6-1.9.3-.5.6-1,.9-1.4a7.194,7.194,0,0,1,4.2-2.6,6.89,6.89,0,0,0-.8-.3c-1-.3-1.9-.6-2.9-.8C129,233.6,125.7,232.4,125.4,232.7Z" transform="translate(-120.87 -231.653)" fill="#aaaf89" opacity="0.108"/>
            <path id="Path_711" data-name="Path 711" d="M125.9,234.5a14.874,14.874,0,0,0-4.2,5.7,13.322,13.322,0,0,0,.5,9.8c1.5,3.7,5.4,6.4,8.7,8.2a16.991,16.991,0,0,0,7.6,2.1,11.96,11.96,0,0,0,5.6-1.8,4.642,4.642,0,0,0,3.4-4.4,12.6,12.6,0,0,0,.7-5.4,16.076,16.076,0,0,0-3-9.9,10.629,10.629,0,0,0-3.7-3.6,11.445,11.445,0,0,0-5.8-.3,16.838,16.838,0,0,0-5.8,1.3,15.448,15.448,0,0,0-6.4,4.3l2.8.4c2.2.3,4.4.6,6.5.9,1.1.1,2.1.3,3.2.4a2.787,2.787,0,0,1,1.8-.1c1.7.2,2.6,1.1,3.8,2.2,0-.8-.1-1.6-.1-2.4a24.387,24.387,0,0,1-.3,6.6.955.955,0,0,1,1.1.9c.1,1.5-2.2,2.3-3.2,2.2a5.586,5.586,0,0,1-2.8-1.3,3.25,3.25,0,0,0-2.4-1,5.294,5.294,0,0,1-2.4-2.7,7.654,7.654,0,0,1-.2-4.5c-2.8,2.4-5.5,4.7-8.3,7.1,3-2.5,6-5,8.9-7.4-3.3,1.4-6.5,2.8-9.8,4.3,3.7-1.5,7.3-3,11-4.5a2.758,2.758,0,0,1,1.2-1.4,6.154,6.154,0,0,1,3.2-1.1,6.118,6.118,0,0,0-1.2-.5c-1.6-.6-3.1-1.2-4.7-1.8s-3.1-1.2-4.7-1.8C126.8,234.7,126.4,234.6,125.9,234.5Z" transform="translate(-120.87 -231.653)" fill="#aaaf89" opacity="0.108"/>
            <path id="Path_712" data-name="Path 712" d="M125.9,235.8a15.047,15.047,0,0,0-2.7,15.6c1.4,3.9,5.2,6.7,8.6,8.8a19.928,19.928,0,0,0,7.9,2.6,10.728,10.728,0,0,0,5.7-2.1,6.164,6.164,0,0,0,3.8-4.7,13.8,13.8,0,0,0,1.3-6c.3-3.7-.1-7.6-2.5-10.5a8.788,8.788,0,0,0-3.4-2.9,17.565,17.565,0,0,0-6.8-.7,19.687,19.687,0,0,0-6.8,1,12.491,12.491,0,0,0-7.2,4.1,4.515,4.515,0,0,1,1.3-.3,28.552,28.552,0,0,1,14.7-1.8,23.207,23.207,0,0,1,7.7,2.5c-.9-1.5-1.8-2.9-2.6-4.4,1,1.9,2.1,3.7,3.1,5.6-.3-1.3-.6-2.7-1-4,.4,1.9.8,3.8,1.2,5.6.2-.9.3-1.8.5-2.7-1,4.6-1.8,9.3-5.2,12.8-1.4,2.2-3.2,2.8-5.4,1.9l-4.8-2.1a10.629,10.629,0,0,1-3.6-3.7c-1.6-2.3-1.5-4.8.2-7.4a5.207,5.207,0,0,1,3.3-4,2.506,2.506,0,0,0-.7-.4c-.9-.4-1.9-.9-2.9-1.3C129.5,237.3,126.1,235.6,125.9,235.8Z" transform="translate(-120.87 -231.653)" fill="#aaaf89" opacity="0.108"/>
            <path id="Path_713" data-name="Path 713" d="M127.7,233.4a13.789,13.789,0,0,0-2.9,15.2,20.547,20.547,0,0,0,5,6c1.1.8,2.3,1.6,3.4,2.4a21.159,21.159,0,0,0,7.7,2.9,10.833,10.833,0,0,0,5.8-1.9,5.292,5.292,0,0,0,3.7-4.5,13.46,13.46,0,0,0,.9-5.6,15.149,15.149,0,0,0-.7-5.6,8.172,8.172,0,0,0-2.4-4.8,10.446,10.446,0,0,0-3.9-3.3,13.524,13.524,0,0,0-6-.2,16.838,16.838,0,0,0-5.8,1.3,15.8,15.8,0,0,0-6.4,4,12.232,12.232,0,0,1,1.7.3c1.6.2,3.3.5,4.9.7,2.2.3,4.3.6,6.4.7a6.31,6.31,0,0,1,2.3.8,2.5,2.5,0,0,1,1.7,2.2,2.866,2.866,0,0,1,.7,2.9c-.4.7-.3,1.1.2,1.4a.67.67,0,0,1,.4.7,1.42,1.42,0,0,1-.4,1.6,5.161,5.161,0,0,1-3.1,1.8c-1.6.1-3-1.2-4.3-1.9-.6-.2-1.1-.5-1.7-.7a5.894,5.894,0,0,1-2.3-2.4c-1.3-2.1-1.4-3.9-1.4-6.3-.6.7-1.1,1.4-1.7,2,.8-1,1.7-2,2.5-3-.7.5-1.4.9-2.2,1.4,1.2-.7,2.4-1.5,3.6-2.2a3.435,3.435,0,0,1,1.3-1.6,6.609,6.609,0,0,1,3.4-1.5,3.582,3.582,0,0,0-1.1-.4c-1.4-.4-2.7-.8-4.1-1.2C132.8,234.7,128.1,233,127.7,233.4Z" transform="translate(-120.87 -231.653)" fill="#aaaf89" opacity="0.108"/>
            <path id="Path_714" data-name="Path 714" d="M125.8,235.2a13.283,13.283,0,0,0-3.9,5.8,14.374,14.374,0,0,0,.5,9.8c1.5,3.7,5.3,6.5,8.7,8.3a18.964,18.964,0,0,0,7.7,2.2,10.5,10.5,0,0,0,5.7-1.9,4.981,4.981,0,0,0,3.5-4.6,15.218,15.218,0,0,0,.8-5.6c0-3.6-.7-7.1-3-10a10.927,10.927,0,0,0-3.8-3.6,15.206,15.206,0,0,0-6-.3,15.441,15.441,0,0,0-5.9,1.4,16.448,16.448,0,0,0-6.7,4.3,3.083,3.083,0,0,0,1,.1c.9.1,1.7.1,2.6.2,1.8.1,3.7.3,5.5.3h2.6a5.073,5.073,0,0,1,2.4-.4c1.9,0,3.2.8,4.8,1.9,0-.3-.1-.5-.1-.8a20.9,20.9,0,0,1,0,5,2.221,2.221,0,0,1,1,2,4.368,4.368,0,0,1-3.4,3.7,5.63,5.63,0,0,1-3-1.2,5.035,5.035,0,0,0-2.6-1.1,5.455,5.455,0,0,1-2.6-2.8,7.29,7.29,0,0,1-.5-4.6,6.47,6.47,0,0,1-.9.8,16.6,16.6,0,0,0,1.4-1.3c-3,1.3-6,2.7-8.9,4,3.3-1.4,6.7-2.9,10-4.3a2.9,2.9,0,0,1,.9-1.5,4.345,4.345,0,0,1,2.9-1.3,3.7,3.7,0,0,0-1.1-.5c-1.4-.6-2.8-1.2-4.1-1.8C131,237.3,126.1,234.9,125.8,235.2Z" transform="translate(-120.87 -231.653)" fill="#aaaf89" opacity="0.108"/>
            <path id="Path_715" data-name="Path 715" d="M125.3,233.5a13.373,13.373,0,0,0-3.4,15.2c1.5,4,5.2,7.1,8.7,9.3a19.941,19.941,0,0,0,7.8,2.9,7.8,7.8,0,0,0,5.2-1.5,6.367,6.367,0,0,0,3.8-4.7,16.976,16.976,0,0,0,1.7-6.6,18.3,18.3,0,0,0,0-6.6,6.673,6.673,0,0,0-2.3-5.2,9.254,9.254,0,0,0-3.8-3,17.89,17.89,0,0,0-6.9-.4,22.9,22.9,0,0,0-6.8,1.4,12.344,12.344,0,0,0-6.9,4.5,7.987,7.987,0,0,1,1.9-.2c1.5-.2,2.9-.4,4.4-.6a50.327,50.327,0,0,1,8.7-.9,12.308,12.308,0,0,1,3.8.4,17.527,17.527,0,0,1,5.8,1.7c-1.2-1.9-2.5-3.8-3.7-5.7,1.3,2.6,2.6,5.3,3.9,7.9V241a55.116,55.116,0,0,1-2.3,9.1,13.388,13.388,0,0,1-1.6,3.7,13.928,13.928,0,0,1-3.9,5.1c1.7-.1,3.4-.3,5.2-.4l-6.6.3c1.3.4,2.6.8,3.9,1.3-2.6-1.4-5.2-2.9-7.8-4.3-.7-.9-1.5-1.8-2.2-2.7-.7-1.1-1.4-2.2-2-3.2a5.766,5.766,0,0,1-.8-6.8c.5-2,.6-3.5,2.1-4.9a6.974,6.974,0,0,1,3.3-1.7,3.552,3.552,0,0,0-.9-.4c-1.2-.4-2.3-.8-3.5-1.2C129.6,234.9,125.6,233.2,125.3,233.5Z" transform="translate(-120.87 -231.653)" fill="#aaaf89" opacity="0.108"/>
            <path id="Path_716" data-name="Path 716" d="M126.4,235.7a11.54,11.54,0,0,0-2.7,4.5,20.161,20.161,0,0,0-1,7.3,13.346,13.346,0,0,0,2.8,7.1,23.024,23.024,0,0,0,8.8,7c3.3,1.6,6.7,2.7,10.3,1.1l3.6-2.1c.8-1.3,1.6-2.5,2.5-3.8a20.333,20.333,0,0,0,1.7-10.6c-.1-.9,0-2.5-.2-3.5a7.837,7.837,0,0,0-.9-2.1,38.545,38.545,0,0,0-2.9-4.3c-.1-.1-.2-.1-.2-.2a9.432,9.432,0,0,0-2.3-1c-1.7-.2-3.4-.3-5-.5-1.7.1-3.4.3-5.1.4-8.8,1-6.7.3-12.3,4.9-.2.1-.1,1-.1,1a14.168,14.168,0,0,1,8.8-4.9c-.4.1-.8.3-1.3.4a36.567,36.567,0,0,1,17.4,0,18.889,18.889,0,0,0-2.5-1.1c1.4,1.4,2.9,2.7,4.3,4.1-.5-.6-1-1.2-1.5-1.7,1.2,1.8,2.3,3.7,3.5,5.5-.3-.8-.7-1.6-1-2.4a22.188,22.188,0,0,1-2.9,15.3,15.519,15.519,0,0,1-3.9,5.3c1.1-.2,2.3-.4,3.4-.5-4.7-.6-9.5-1.3-14.2-1.9-.9-.7-1.9-1.5-2.8-2.2-.8-.9-1.7-1.9-2.5-2.8a7.581,7.581,0,0,1-2.1-7.3c0-2.6-.4-4.3.9-6.5a5.9,5.9,0,0,1,2.8-2.6l-1.7-.8C128.1,236.4,126.6,235.6,126.4,235.7Z" transform="translate(-120.87 -231.653)" fill="#aaaf89" opacity="0.108"/>
            <path id="Path_717" data-name="Path 717" d="M126.2,232.3a13.165,13.165,0,0,0-3.7,5.8,14.785,14.785,0,0,0,.2,9.3,21.638,21.638,0,0,0,5.2,6.8c1.2.9,2.4,1.9,3.6,2.8a20.922,20.922,0,0,0,7.9,3.2,7.766,7.766,0,0,0,5.3-1.6,6.967,6.967,0,0,0,4-4.8,15.828,15.828,0,0,0,1.7-6.7,16.825,16.825,0,0,0-.1-6.7,6.7,6.7,0,0,0-2.5-5.2,10.092,10.092,0,0,0-4-3.1,17.317,17.317,0,0,0-6.8-.2,18.8,18.8,0,0,0-6.6,1.6,14.133,14.133,0,0,0-6.8,4.4c.2-.2,1.9.1,2.3.1a20.454,20.454,0,0,0,3.5,0,49.48,49.48,0,0,1,9.4-1.3,16.167,16.167,0,0,1,3.8.2,17.154,17.154,0,0,1,5.8,1.5c-1.3-1.9-2.7-3.7-4-5.6,1.4,2.1,2.9,4.1,4.3,6.2-.6-1.5-1.2-3-1.7-4.5.6,1.9,1.2,3.7,1.8,5.6.1-1.1.2-2.1.4-3.2a89.209,89.209,0,0,1-2.5,12.5,12.571,12.571,0,0,1-1.5,3.8,15.33,15.33,0,0,1-3.7,5.4c.4-.1.9-.2,1.3-.3-1.1.2-2.1.4-3.2.6.9.1,1.8.3,2.8.4-1.6-.3-3.3-.6-4.9-.9.4.3.7.6,1.1.9a46.142,46.142,0,0,1-7.6-7.7c-1.9-2.6-5.6-8.2-3.3-11.6.5-.6,1.1-1.2,1.6-1.8.3-.5.6-.9.9-1.4a8.2,8.2,0,0,1,4.3-2.5c-.3-.1-.5-.2-.8-.3-1.1-.3-2.1-.5-3.2-.8C130.2,233.2,126.6,232,126.2,232.3Z" transform="translate(-120.87 -231.653)" fill="#aaaf89" opacity="0.108"/>
            <path id="Path_718" data-name="Path 718" d="M127.3,235.2a14.64,14.64,0,0,0-3.8,6,14.135,14.135,0,0,0,.6,9.9,17.769,17.769,0,0,0,5.2,5.7c1.2.7,2.3,1.4,3.5,2.1a21.037,21.037,0,0,0,7.8,2.1,10.181,10.181,0,0,0,5.6-1.9,5.228,5.228,0,0,0,3.5-4.6,18.226,18.226,0,0,0-.2-10.7,6.463,6.463,0,0,0-2.6-4.3,12.178,12.178,0,0,0-4.2-2.9,11.805,11.805,0,0,0-5.6-.2,14.739,14.739,0,0,0-5.4,1.3,14.5,14.5,0,0,0-6.1,4.3c.1,0,.2.1.3.1,3.7,1.2,7.4,2.5,11.1,3.7a.849.849,0,0,1,.8-.7,1.612,1.612,0,0,1,1.7.9.965.965,0,0,1,.3,1.4c-.1.4-.3.9-.4,1.3.4.4,2.2-.9,2.3.5.1.6-.5.8-1.1.8h-2.1l-1.8-.9h-1.2l-1.2-.6c-1.5-1.2-1-3.5-.7-5l-.2.2a4.35,4.35,0,0,1,.7-.6c-2.7,1.1-5.4,2.3-8.1,3.4,3-1.2,6.1-2.5,9.1-3.7a3.072,3.072,0,0,1,1-1.5,5.445,5.445,0,0,1,3-1.3,6.118,6.118,0,0,0-1.2-.5c-1.6-.6-3.1-1.2-4.7-1.8s-3.1-1.2-4.7-1.8A1.525,1.525,0,0,0,127.3,235.2Z" transform="translate(-120.87 -231.653)" fill="#aaaf89" opacity="0.108"/>
            <path id="Path_719" data-name="Path 719" d="M126.3,233.8a13.785,13.785,0,0,0-4,5.8,14.086,14.086,0,0,0,.5,9.9,18.382,18.382,0,0,0,5.4,5.7c1.2.7,2.3,1.4,3.5,2.1a22.308,22.308,0,0,0,7.5,2.2,11.04,11.04,0,0,0,5.6-1.9,4.865,4.865,0,0,0,3.4-4.5,13.319,13.319,0,0,0,.7-5.6,13.9,13.9,0,0,0-.8-5.4,6.2,6.2,0,0,0-2.6-4.6,9.588,9.588,0,0,0-9.9-3.2,13.72,13.72,0,0,0-5.5,1.5,13.05,13.05,0,0,0-6.1,4.5,6.118,6.118,0,0,0,1.2.5c1.6.6,3.2,1.1,4.7,1.6,1.6.5,3.2,1.1,4.8,1.6a4.951,4.951,0,0,0,1.3.4.98.98,0,0,0,1.2.3q.45-.3.9.3c-.2-3.6-.5-7.1-.7-10.7-4,9-3.4,13.2,1.8,12.4.3.1.7.3,1,.4,1.3,1.3-1.1,1.3-1.8,1.3a2.94,2.94,0,0,1-2.3-1.2,2.016,2.016,0,0,1-1.8-.6c-2.1-1.6-1.6-4-1.1-6.2-3.1,2.7-6.3,5.4-9.4,8.2,3.4-2.9,6.9-5.7,10.3-8.6L123,245.4l12.6-5.7a2.73,2.73,0,0,1,1.2-.9,6.147,6.147,0,0,1,3.3-.3,7.838,7.838,0,0,0-1.4-.5c-1.8-.6-3.7-1.2-5.5-1.8s-3.7-1.2-5.5-1.8A2.512,2.512,0,0,0,126.3,233.8Z" transform="translate(-120.87 -231.653)" fill="#aaaf89" opacity="0.108"/>
          </g>
        </g>
      </g>
      <g id="Group_1082" data-name="Group 1082" transform="translate(146.296 370.547)">
        <path id="Path_720" data-name="Path 720" d="M166.9,386.4c18.4-.5,36.8-.6,55.3-.6,9.2.1,18.4.2,27.6.2s18.4-.1,27.6-.2c18.4-.2,36.8-.4,55.3-.4,18.4,0,36.8.1,55.3.5v.1c-18.4.4-36.8.6-55.3.7-18.4.1-36.8,0-55.3-.2-9.2-.1-18.4-.1-27.6-.1s-18.4.3-27.6.4c-18.4.1-36.8.1-55.3-.3Z" transform="translate(-166.9 -385.4)"/>
      </g>
      <g id="Group_1083" data-name="Group 1083" transform="translate(162.4 342.794)">
        <path id="Path_721" data-name="Path 721" d="M162.4,355.7c17.285-.5,34.661-.6,51.947-.6,8.643.1,17.285.2,25.928.2s17.285-.1,25.928-.2c17.285-.2,34.662-.5,51.947-.4,17.285,0,34.662.1,51.947.5v.1c-17.285.4-34.661.7-51.947.7-17.285.1-34.661,0-51.947-.2-8.643-.1-17.285-.1-25.928-.1s-17.285.3-25.928.4c-17.285.1-34.661.1-51.947-.3Z" transform="translate(-162.4 -354.68)"/>
      </g>
      <g id="Group_1084" data-name="Group 1084" transform="translate(156.5 314.973)">
        <path id="Path_722" data-name="Path 722" d="M156.5,324.9c18.283-.5,36.566-.6,54.849-.6,9.141.1,18.283.2,27.424.2s18.283-.1,27.425-.2c18.283-.2,36.566-.5,54.849-.4,18.283,0,36.566.1,54.849.4v.1c-18.283.4-36.566.7-54.849.7-18.283.1-36.566,0-54.849-.2-9.142-.1-18.283-.1-27.425-.1s-18.283.3-27.424.4c-18.283.1-36.566.1-54.849-.3Z" transform="translate(-156.5 -323.88)"/>
      </g>
      <line id="Line_81" data-name="Line 81" y1="0.5" x2="221.396" transform="translate(154.9 307.523)" fill="#fff"/>
      <g id="Group_1085" data-name="Group 1085" transform="translate(149.8 244.7)">
        <path id="Path_723" data-name="Path 723" d="M149.8,245.23c1.181,13.857,2.18,27.714,3.634,41.482.727,6.884,1.544,13.768,2.362,20.653l2.362,20.653,2.362,20.653c.818,6.884,1.635,13.769,2.907,20.653a18.309,18.309,0,0,0,1.454,4.943,44.759,44.759,0,0,0,2.453,4.59,104.564,104.564,0,0,0,5.724,8.826,154.684,154.684,0,0,0,13.355,16.24c1.181,1.324,2.453,2.56,3.634,3.8a15.747,15.747,0,0,0,4.27,2.913,40.516,40.516,0,0,0,10.084,3.177,20.944,20.944,0,0,0,5.269.53h16.081c14.264,0,28.618.088,42.882.177s28.618.265,42.882.353c14.264.177,28.618.265,42.882.53v.088c-14.264.088-28.618.088-42.882.088s-28.618,0-42.882-.088c-14.264,0-28.618-.177-42.882-.265l-10.72-.088-5.36-.088a26.936,26.936,0,0,1-5.36-.618,37.314,37.314,0,0,1-10.175-3.442,15.359,15.359,0,0,1-4.452-3.089c-1.181-1.236-2.453-2.56-3.634-3.883a179.592,179.592,0,0,1-13.264-16.416c-2-2.913-3.907-5.825-5.633-8.914-.818-1.5-1.726-3.089-2.453-4.678a20.146,20.146,0,0,1-1.544-5.031q-.954-5.163-1.635-10.326c-.545-3.442-1-6.884-1.454-10.326-.909-6.884-1.817-13.769-2.635-20.653-1.635-13.769-3.271-27.537-4.633-41.394s-2.09-27.714-2.907-41.57Z" transform="translate(-149.8 -244.7)"/>
      </g>
      <g id="Group_1086" data-name="Group 1086" transform="translate(175.586 267.184)">
        <path id="Path_724" data-name="Path 724" d="M195.9,414.9c-1.7-11.4-3.2-22.8-4.4-34.2-.6-5.7-1-11.5-1.7-17.2q-.9-8.55-2.1-17.1c-1.5-11.4-2.9-22.8-4.2-34.3-1.2-11.4-2.4-22.9-3.3-34.4h.1c1.7,11.4,3.1,22.8,4.5,34.2,1.3,11.4,2.5,22.9,3.6,34.3.6,5.7,1.1,11.5,1.8,17.2s1.5,11.4,2.3,17.1c1.4,11.4,2.6,22.9,3.5,34.4Z" transform="translate(-180.2 -277.7)"/>
      </g>
      <g id="Group_1087" data-name="Group 1087" transform="translate(336.396 267.956)">
        <path id="Path_725" data-name="Path 725" d="M357,415.9c.9-11.5,2.1-22.9,3.5-34.4.7-5.7,1.6-11.4,2.3-17.1s1.3-11.4,1.8-17.2c1.1-11.5,2.3-22.9,3.6-34.3,1.4-11.4,2.8-22.8,4.5-34.2h.1c-.9,11.5-2.1,22.9-3.3,34.4-1.3,11.4-2.7,22.9-4.2,34.3q-1.2,8.55-2.1,17.1c-.6,5.7-1.1,11.5-1.7,17.2-1.2,11.4-2.6,22.9-4.4,34.2Z" transform="translate(-357 -278.7)"/>
      </g>
      <g id="Group_1088" data-name="Group 1088" transform="translate(251.955 268.137)">
        <path id="Path_726" data-name="Path 726" d="M263.5,414.2c-.5-11.3-.6-22.6-.6-33.9.1-5.6.2-11.3.2-16.9s-.1-11.3-.2-16.9c-.3-11.3-.4-22.6-.5-33.9,0-11.3.1-22.6.5-33.9h.1c.4,11.3.6,22.6.8,33.9,0,11.3,0,22.6-.2,33.9-.1,5.6-.1,11.3-.1,16.9s.3,11.3.4,16.9c.1,11.3.1,22.6-.3,33.9Z" transform="translate(-262.4 -278.7)"/>
      </g>
      <g id="Group_1089" data-name="Group 1089" transform="translate(289.543 268.154)">
        <path id="Path_727" data-name="Path 727" d="M303.3,415.7c-.3-11.4-.4-22.8-.2-34.2.1-5.7.4-11.4.4-17.1q.15-8.55,0-17.1c-.2-11.4-.2-22.8-.1-34.2s.4-22.8.9-34.2h.1c.3,11.4.4,22.8.4,34.2q-.15,17.1-.6,34.2c-.1,5.7-.3,11.4-.2,17.1,0,5.7.1,11.4.2,17.1,0,11.4-.2,22.8-.7,34.2Z" transform="translate(-302.996 -278.9)"/>
      </g>
      <g id="Group_1090" data-name="Group 1090" transform="translate(213.702 269.334)">
        <path id="Path_728" data-name="Path 728" d="M229.6,416.1c-1.1-11.3-1.9-22.6-2.5-33.9-.3-5.7-.4-11.3-.7-17s-.7-11.3-1.2-17q-1.35-16.95-2.4-33.9c-.6-11.3-1.2-22.6-1.5-34h.1c1.1,11.3,1.9,22.6,2.7,33.9.7,11.3,1.3,22.6,1.8,34,.2,5.7.5,11.3.9,17s.9,11.3,1.3,17c.8,11.3,1.4,22.6,1.6,34Z" transform="translate(-221.3 -280.3)"/>
      </g>
      <g id="Group_1091" data-name="Group 1091" transform="translate(314.64 268.559)">
        <path id="Path_729" data-name="Path 729" d="M330.5,415.2c.3-11.3.8-22.7,1.6-34,.4-5.7,1-11.3,1.3-17,.4-5.7.7-11.3.9-17,.5-11.3,1.1-22.7,1.8-34,.8-11.3,1.6-22.6,2.7-33.9h.1c-.3,11.3-.8,22.7-1.5,34s-1.5,22.6-2.4,33.9c-.4,5.7-.9,11.3-1.2,17s-.5,11.3-.7,17c-.6,11.3-1.4,22.6-2.5,33.9Z" transform="translate(-330.5 -279.3)"/>
      </g>
      <g id="Group_1092" data-name="Group 1092" transform="translate(152.6 272.885)">
        <path id="Path_730" data-name="Path 730" d="M380,277.7c-18.98.6-37.869.8-56.849.9-9.444,0-18.98-.1-28.424-.1s-18.98.2-28.425.3c-18.98.3-37.869.7-56.849.7-18.98.1-37.869.1-56.849-.2v-.1c18.98-.5,37.869-.8,56.849-1s37.869-.2,56.849-.1c9.444,0,18.98,0,28.425-.1s18.98-.4,28.424-.5c18.98-.2,37.869-.3,56.849,0Z" transform="translate(-152.6 -277.311)"/>
      </g>
      <g id="Group_1093" data-name="Group 1093" transform="translate(161.196 396.136)">
        <path id="Path_731" data-name="Path 731" d="M385,413.9c-16.9.5-33.9.8-50.8.8-8.5,0-16.9-.2-25.4-.1-8.5,0-16.9.1-25.4.3-16.9.3-33.9.6-50.8.7s-33.9,0-50.8-.2v-.1c16.9-.5,33.9-.8,50.8-.9,16.9-.2,33.9-.1,50.8,0,8.5,0,16.9.1,25.4,0s16.9-.3,25.4-.5c16.9-.2,33.9-.2,50.8.1Z" transform="translate(-181.8 -413.761)"/>
      </g>
      <g id="Group_1094" data-name="Group 1094" transform="translate(361.396 266.361)">
        <path id="Path_732" data-name="Path 732" d="M401.6,276.7c-1.2,11.5-2.7,23-4.4,34.5-.9,5.7-1.9,11.4-2.7,17.2-.9,5.7-1.6,11.5-2.3,17.2-1.4,11.5-2.9,23-4.6,34.5s-3.5,22.9-5.5,34.3H382c1.2-11.5,2.7-23,4.3-34.5s3.4-22.9,5.2-34.4c.9-5.7,1.8-11.4,2.6-17.2.8-5.7,1.4-11.5,2.1-17.2,1.5-11.5,3.3-22.9,5.3-34.3Z" transform="translate(-382 -276.7)"/>
      </g>
      <g id="Group_1096" data-name="Group 1096" transform="translate(313.1 414.565)">
        <g id="Group_1095" data-name="Group 1095">
          <path id="Path_733" data-name="Path 733" d="M334.1,454.6a8.064,8.064,0,0,0,1.3,3,6.892,6.892,0,0,0,2.4,2.1,16.681,16.681,0,0,0,6.1,1.9c1.1.1,2.2.2,3.2.2a10.588,10.588,0,0,0,3.1-.5,16.408,16.408,0,0,0,5.8-2.8,15.191,15.191,0,0,0,4.3-4.8,18.771,18.771,0,0,0,1.2-3,11.236,11.236,0,0,0,.4-3.2,9.074,9.074,0,0,0-2.3-5.7,7.246,7.246,0,0,0-2.5-1.8,11.135,11.135,0,0,0-3-.8H354a14.874,14.874,0,0,0-3.6-.5,21.865,21.865,0,0,0-3.6.3,18.036,18.036,0,0,0-6.7,2.8,14.945,14.945,0,0,0-4.9,5.4A11.876,11.876,0,0,0,334.1,454.6Zm-.2,0a15.24,15.24,0,0,1,.7-7.6,14.285,14.285,0,0,1,4.7-6.2,17.538,17.538,0,0,1,7.1-3.2,15.844,15.844,0,0,1,7.8.4h-.1a12.6,12.6,0,0,1,3.3,1,9.342,9.342,0,0,1,2.7,2.1,9.952,9.952,0,0,1,2.2,6.4,13.956,13.956,0,0,1-1.8,6.4,18.776,18.776,0,0,1-4.2,5.1,16.124,16.124,0,0,1-5.9,3.2,9.671,9.671,0,0,1-3.4.5,18.7,18.7,0,0,1-3.4-.3,15.319,15.319,0,0,1-6.2-2.5A8.949,8.949,0,0,1,333.9,454.6Z" transform="translate(-333.704 -437.294)"/>
        </g>
      </g>
      <g id="Group_1098" data-name="Group 1098" transform="translate(209.974 414.565)">
        <g id="Group_1097" data-name="Group 1097">
          <path id="Path_734" data-name="Path 734" d="M218.2,454.6a8.063,8.063,0,0,0,1.3,3,6.892,6.892,0,0,0,2.4,2.1,16.681,16.681,0,0,0,6.1,1.9c1.1.1,2.2.2,3.2.2a10.588,10.588,0,0,0,3.1-.5,16.409,16.409,0,0,0,5.8-2.8,15.191,15.191,0,0,0,4.3-4.8,18.77,18.77,0,0,0,1.2-3,11.235,11.235,0,0,0,.4-3.2,9.074,9.074,0,0,0-2.3-5.7,7.246,7.246,0,0,0-2.5-1.8,11.135,11.135,0,0,0-3-.8h-.1a14.874,14.874,0,0,0-3.6-.5,21.865,21.865,0,0,0-3.6.3,18.036,18.036,0,0,0-6.7,2.8,14.945,14.945,0,0,0-4.9,5.4A11.876,11.876,0,0,0,218.2,454.6Zm-.1,0a15.24,15.24,0,0,1,.7-7.6,14.285,14.285,0,0,1,4.7-6.2,17.538,17.538,0,0,1,7.1-3.2,15.844,15.844,0,0,1,7.8.4h-.1a12.6,12.6,0,0,1,3.3,1,9.341,9.341,0,0,1,2.7,2.1,9.952,9.952,0,0,1,2.2,6.4,13.956,13.956,0,0,1-1.8,6.4,18.776,18.776,0,0,1-4.2,5.1,16.124,16.124,0,0,1-5.9,3.2,9.671,9.671,0,0,1-3.4.5,18.7,18.7,0,0,1-3.4-.3,15.319,15.319,0,0,1-6.2-2.5A8.143,8.143,0,0,1,218.1,454.6Z" transform="translate(-217.904 -437.294)"/>
        </g>
      </g>
      <g id="Group_1100" data-name="Group 1100" transform="translate(127.31 234.885)">
        <g id="Group_1099" data-name="Group 1099">
          <path id="Path_735" data-name="Path 735" d="M127.9,247.5a10.775,10.775,0,0,0,1.2,2.4,11.38,11.38,0,0,0,1.9,1.9,14.2,14.2,0,0,0,4.8,2.3,15.1,15.1,0,0,0,5.1.8,9.96,9.96,0,0,0,4.9-1.7,8.129,8.129,0,0,0,1.9-1.8,10.46,10.46,0,0,0,1.3-2.3,9.245,9.245,0,0,0,.3-5.2,9.6,9.6,0,0,0-7-6.9h0a14.513,14.513,0,0,0-5.5-1,8.082,8.082,0,0,0-2.7.5,18.887,18.887,0,0,0-2.5,1.1,8.062,8.062,0,0,0-3.4,4.3A8.253,8.253,0,0,0,127.9,247.5Zm-.1,0a11.421,11.421,0,0,1-.2-5.8,7.913,7.913,0,0,1,3.3-4.9,10.783,10.783,0,0,1,5.7-1.9,13.463,13.463,0,0,1,5.9,1.1h-.1a10.193,10.193,0,0,1,4.8,2.8,10.44,10.44,0,0,1,2.5,4.9,10.275,10.275,0,0,1-3.7,9.8,9.3,9.3,0,0,1-5.1,2.1,13.128,13.128,0,0,1-2.8-.1,19.733,19.733,0,0,1-2.6-.7,13.746,13.746,0,0,1-4.7-2.7A11.478,11.478,0,0,1,127.8,247.5Z" transform="translate(-127.31 -234.885)"/>
        </g>
      </g>
    </g>
    <path id="Polygon_2" data-name="Polygon 2" d="M87.5,0,175,164H0Z" transform="translate(1571.445 442.596) rotate(89)" fill="#aaaf89" opacity="0.766"/>
  </g>
</svg>
