<?xml version="1.0" encoding="utf-8"?>
<!-- Generator: Adobe Illustrator 24.3.0, SVG Export Plug-In . SVG Version: 6.00 Build 0)  -->
<svg version="1.1" id="Layer_1" xmlns="http://www.w3.org/2000/svg" xmlns:xlink="http://www.w3.org/1999/xlink" x="0px" y="0px"
	 viewBox="0 0 595.3 841.9" style="enable-background:new 0 0 595.3 841.9;" xml:space="preserve">
<style type="text/css">
	.st0{opacity:0.1082;fill:#AAAF89;}
	.st1{fill:#FFFFFF;}
</style>
<g>
	<g>
		<g>
			<path class="st0" d="M336,439.6c-1.8,1.7-3.1,3.4-3.9,5.8c-1.1,3.1-0.8,6.8,0.5,9.9c1.4,2.3,3.2,4.2,5.4,5.6
				c1.2,0.7,2.3,1.3,3.5,2c2.4,1.2,4.9,1.8,7.5,2c2.1-0.1,3.9-0.8,5.6-1.9c2-0.7,3.2-2.2,3.5-4.6c0.6-1.8,0.9-3.7,0.7-5.6
				c0.1-1.8-0.2-3.6-0.8-5.3c-0.2-2-1.1-3.4-2.6-4.4c-1.3-1.3-2.8-2.3-4.5-2.9c-1.9-0.5-3.7-0.5-5.6,0c-1.9,0.2-3.7,0.7-5.4,1.6
				c-2.5,0.9-4.5,2.4-6,4.5c0.1-0.1,6.2,2.6,6.2,2.6c1.6,0.7,3.3,1.3,4.9,2c0.4,0.2,0.9,0.4,1.3,0.5c3.8-1.2,7.7-2.4,11.5-3.6
				c-3.4,1.3-6.8,2.6-10.1,3.8c0.2,0,2.3,0.1,1.7,0.7c-0.2,0.2-1.9,0-2-0.1c-0.5-0.3-1-0.6-1.5-1c-0.3,0-0.6,0.1-0.9,0.1
				c-1.6-0.3-1.4-2.5-1.3-3.6c-2.8,3.4-5.6,6.9-8.4,10.3c1.2-1.4,7.7-13.1,13.9-13.2c-0.1,0-0.3,0-0.4-0.1c0.6,0.1,1.2,0.2,1.7,0.3
				c-0.5-0.2-1-0.4-1.5-0.6c-1.9-0.7-3.8-1.5-5.7-2.2c-1.9-0.7-3.8-1.4-5.7-2.1C337,439.9,336.5,439.8,336,439.6z"/>
			<path class="st0" d="M336.5,438.1c-1.9,1.7-3.2,3.5-4.1,5.9c-1.2,3.1-0.7,6.7,0.6,9.7c1.4,2.3,3.2,4.2,5.3,5.7
				c1.2,0.7,2.3,1.4,3.5,2.1c2.4,1.2,4.9,2,7.5,2.2c2.1-0.1,4-0.7,5.7-1.8c2-0.6,3.2-2.1,3.5-4.4c0.7-1.8,0.9-3.7,0.7-5.6
				c0.1-1.9-0.2-3.7-0.8-5.6c-0.2-2-1.1-3.6-2.6-4.7c-1.2-1.3-2.7-2.3-4.4-3c-1.9-0.5-3.8-0.6-5.7-0.1c-1.9,0.1-3.7,0.6-5.4,1.5
				c-2.4,0.9-4.4,2.4-6,4.5c0.4,0.2,0.8,0.3,1.2,0.5c1.5,0.5,3,1.1,4.5,1.6c1.5,0.5,3,1,4.6,1.5c0.4,0.2,0.8,0.3,1.2,0.4
				c0.5,0.4,1,0.6,1.6,0.4c0.4-0.1,0.8,0,1.1,0.4c-0.3-3.6-0.6-7.2-0.8-10.8c-3.9,9.1-3.2,13.4,2,12.9c0.3,0.2,0.7,0.3,1,0.5
				c1.2,1.4-1.1,1.5-1.9,1.4c-0.9,0-1.8-0.4-2.5-1.1c-0.8,0.1-1.4-0.1-1.9-0.6c-2.2-1.6-1.9-3.9-1.5-6.2c-2.9,2.5-5.9,5-8.8,7.4
				c3.2-2.6,6.4-5.3,9.6-7.9c-3.5,1.6-6.9,3.2-10.4,4.8c3.9-1.7,7.8-3.4,11.8-5.1c0.4-0.6,0.8-1.1,1.4-1.4c1.1-0.8,2.2-1,3.6-1.2
				c-0.5-0.2-0.9-0.3-1.4-0.5c-1.8-0.5-3.5-1-5.3-1.5c-1.8-0.5-3.6-1-5.3-1.5C337.5,438.3,337,438.2,336.5,438.1z"/>
			<path class="st0" d="M337,439.4c-1.9,1.7-3.1,3.4-4,5.8c-1.2,3.1-0.8,6.8,0.5,9.8c1.4,2.2,3.2,4,5.3,5.5c1.2,0.7,2.3,1.3,3.5,2
				c2.4,1.2,4.9,1.9,7.6,2.2c2.1-0.1,4-0.7,5.7-1.8c2.1-0.6,3.2-2.1,3.5-4.5c0.6-1.8,0.8-3.7,0.6-5.6c0-1.8-0.3-3.6-0.9-5.3
				c-0.2-1.9-1.1-3.4-2.6-4.5c-1.2-1.3-2.7-2.3-4.3-3c-1.9-0.4-3.8-0.4-5.6,0c-1.9,0.2-3.7,0.7-5.3,1.6c-2.4,0.9-4.4,2.4-5.9,4.5
				c0.1-0.1,6.4,2.9,6.3,2.9c1.7,0.8,3.3,1.5,5,2.2c0.4,0.2,0.9,0.4,1.4,0.5c-2.6-0.8-3.7-2.3-3-4.5c-2.8,3.4-5.6,6.9-8.3,10.3
				c3.8-4.1,7.6-8.3,11.4-12.4c0.3-0.4,0.7-0.6,1.1-0.7c1-0.4,2-0.2,3.1-0.1c-0.5-0.2-1-0.4-1.5-0.6c-1.9-0.7-3.9-1.4-5.8-2
				c-1.9-0.7-3.9-1.3-5.8-2C338,439.6,337.5,439.5,337,439.4z"/>
			<path class="st0" d="M336.4,440c-1.8,2.2-2.8,4.5-3.1,7.4c-0.2,1.5-0.3,3-0.3,4.6c-0.1,1.9,0.5,3.7,1.7,5.2
				c2.6,4.3,6.9,8.1,11.8,9.6c1.4,0.3,2.8,0.7,4.2,1c2.9-0.3,5.4-1.4,7.6-3.2c2.8-2.8,4-8.3,3.9-12c0-2-0.6-5.7-1.7-7.6
				c-1.2-1.8-2.7-3.1-4.6-4.1c-1.5-0.2-3-0.5-4.6-0.7c-3.1-0.1-6.1,0.2-9.1,1.1c-2.8,0.5-5.2,1.8-7.2,3.9c-0.3,0.2,0.9-0.2,0.7-0.1
				c2.3-0.8,4.7-1.6,7-2.4c-0.2,0-0.3,0-0.5,0.1c3.5-0.6,7-0.5,10.4,0.2c2.2,0.3,4.3,0.9,6.3,1.9c-0.9-1.2-1.9-2.4-2.8-3.5
				c1.2,1.7,2.5,3.4,3.7,5.1c-0.4-0.9-0.8-1.9-1.1-2.8c0.6,1.6,1.2,3.3,1.9,4.9c0-1.1-0.1-2.3-0.1-3.4c-0.5,5.8-1.8,19.1-11.1,18.9
				c-3.8-0.1-7.4-2.8-9.8-5.5c-1.2-1.3-2.2-2.7-2.9-4.4c-1.3-2.7-1.2-5.2,0.5-7.4c0.2-1.2,0.7-2.2,1.4-3.1c0.7-0.8,1.5-1.5,2.5-1.8
				c-0.1,0.1-2.3-1-2.3-1C338.7,440.9,336.5,439.9,336.4,440z"/>
			<path class="st0" d="M336.7,437.3c-1.8,1.7-2.9,3.4-3.7,5.7c-1,3-0.7,6.3,0.3,9.2c1.3,2.6,2.9,4.9,5.1,6.9
				c1.2,0.9,2.4,1.9,3.6,2.8c2.4,1.6,5.1,2.7,8,3.1c2.1,0.1,3.9-0.4,5.6-1.6c2.1-0.8,3.3-2.3,3.8-4.6c0.9-2,1.3-4.1,1.3-6.3
				c0.3-2.2,0.2-4.3-0.3-6.5c0-2.2-0.9-4-2.5-5.4c-1.1-1.4-2.5-2.5-4.2-3.2c-2.1-0.6-4.3-0.7-6.4-0.3c-2.1,0.1-4.2,0.6-6.2,1.5
				c-2.6,0.8-4.8,2.3-6.6,4.3c0.2,0,0.5,0.1,0.7,0c0.6,0,1.3,0,1.9-0.1c1.3-0.1,2.7-0.1,4-0.2c2.4-0.3,4.8-0.7,7.2-0.5
				c2.6,0.2,4.5,1.1,6.9,2.4c-0.1-0.2-0.1-0.5-0.2-0.7c0.9,3.3,1.5,6.4,0.9,9.8c-0.1,1.5-0.6,2.9-1.2,4.2c-1.1,2.6-2.9,4.4-5.6,5.4
				c1.4,0.3,2.9,0.6,4.3,1c-1.9-0.5-3.9-1-5.8-1.5c0.1,0.1,0.2,0.1,0.3,0.2c-1.8-1.7-3.7-3.4-5.2-5.3c-0.8-1.1-1.6-2.2-2.3-3.3
				c-2.1-2.3-2.4-4.8-1-7.5c0.6-2.8,0.5-4,2.4-5.6c1.2-1,2.4-1.4,3.9-1.8c-0.3-0.1-0.6-0.2-0.9-0.3c-1.1-0.3-2.3-0.6-3.4-0.8
				C340.9,438.2,337.1,437,336.7,437.3z"/>
			<path class="st0" d="M337.6,439.2c-4.1,4-5.2,9.7-3.1,15.1c1.4,3.7,5.1,6.6,8.4,8.7c2.4,1.5,5.1,2.5,7.9,3c2.2-0.1,4.1-0.7,5.9-2
				c2.1-0.7,3.3-2.3,3.7-4.7c0.7-1.9,1-3.8,0.9-5.8c0.1-1.9-0.1-3.8-0.7-5.7c-0.3-1.9-1.1-3.5-2.5-4.8c-1.1-1.4-2.4-2.5-4-3.3
				c-2-0.5-4.1-0.6-6.1-0.2c-2,0.1-4,0.6-5.8,1.4c-2.5,0.9-4.6,2.2-6.5,4.1c0,0,2.6,0.2,2,0.2c1.6,0.1,3.2,0.2,4.8,0.3
				c1.8,0,3.6,0,5.4,0c1,0,2,0.2,2.9,0.7c1.1,0.2,1.8,0.9,2.1,2.1c1,0.8,1.3,1.8,1,2.9c-0.3,0.7-0.2,1.2,0.2,1.7
				c0.3,0.3,0.4,0.7,0.4,1.2c0.2,0.8,0,1.6-0.5,2.3c-0.4,0.5-0.8,1-1.2,1.5c-0.6,0.4-1.3,0.7-1.9,1.1c-0.7-0.2-1.4-0.3-2.1-0.5
				c-0.8-0.4-1.6-0.9-2.4-1.3c-0.6-0.3-1.2-0.5-1.8-0.8c-1.1-0.6-1.9-1.5-2.6-2.5c-1.5-2.1-1.7-3.9-1.9-6.5
				c-0.2,0.3-0.4,0.5-0.5,0.8c0.4-0.6,0.9-1.2,1.3-1.7c-0.2,0.2-0.5,0.4-0.7,0.5c0.7-0.5,1.4-0.9,2.1-1.4c0.3-0.7,0.8-1.2,1.4-1.7
				c1.1-0.9,2.2-1.2,3.6-1.5c-0.3-0.2-0.6-0.3-1-0.4c-1.3-0.4-2.5-0.8-3.8-1.2C342.2,440.7,337.9,438.9,337.6,439.2z"/>
			<path class="st0" d="M334.9,437.6c-2.5,2.4-3.9,5.1-4.3,8.6c-0.3,2.2,0,4.4,0.7,6.6c1.3,2.6,3.1,4.9,5.2,6.8
				c1.6,1.6,3.5,2.9,5.6,3.8c1.8,1.1,3.8,1.8,5.9,2.1c2.3,0.1,5.1-0.9,6.8-2.4c1.3-0.9,2.2-2.3,2.6-4.1c1.3-2.9,2-6,2.1-9.1
				c0-2.5-0.2-6.3-1.5-8.4c-0.7-0.9-1.5-1.7-2.4-2.4c-2.2-1.8-4.7-2.5-7.5-2.2c-3.2,0-6.3,0.6-9.3,1.7c-2.8,0.7-5.1,2.2-6.9,4.4
				c0,0,1.6-0.3,1.3-0.3c1-0.3,2-0.5,3-0.8c3.8-1.3,7.7-2,11.7-2c2.9,0,5.8,0.5,8.6,1.4c-0.3-0.3-0.7-0.7-1-1c0.6,0.7,1.3,1.3,1.9,2
				c-0.5-0.8-0.9-1.6-1.4-2.3c0.7,1.3,1.4,2.6,2.1,3.9c-0.1-0.8-0.2-1.6-0.2-2.3c0.2,5-0.6,9.9-2.1,14.6c-1,3-2.5,5.6-4.6,7.9
				c1.1-0.3,2.1-0.6,3.2-0.9c-2.8,0.3-5.5,0.7-8.3,1c0.5,0.3,0.9,0.7,1.4,1c-3.1-2.4-5.9-4.7-8.3-7.8c-2-2.6-6-8.3-3.7-11.7
				c0.5-0.6,1-1.3,1.6-1.9c0.3-0.5,0.6-1,0.9-1.4c1-1.5,2.6-2.1,4.2-2.6c-0.2-0.1-0.5-0.2-0.8-0.3c-1-0.3-1.9-0.6-2.9-0.8
				C338.4,438.5,335.1,437.3,334.9,437.6z"/>
			<path class="st0" d="M335.4,439.4c-1.9,1.6-3.2,3.4-4.2,5.7c-1.2,3.1-0.8,6.7,0.5,9.8c1.5,3.7,5.4,6.4,8.7,8.2
				c2.4,1.3,4.9,2,7.6,2.1c2.1-0.1,3.9-0.8,5.6-1.8c2-0.6,3.2-2.1,3.4-4.4c0.6-1.8,0.9-3.6,0.7-5.4c0-3.5-0.8-7-3-9.9
				c-0.9-1.5-2.2-2.7-3.7-3.6c-1.9-0.6-3.9-0.7-5.8-0.3c-2,0.1-3.9,0.5-5.8,1.3c-2.5,0.9-4.6,2.3-6.4,4.3c0,0,3.5,0.5,2.8,0.4
				c2.2,0.3,4.4,0.6,6.5,0.9c1.1,0.1,2.1,0.3,3.2,0.4c0.6-0.2,1.2-0.3,1.8-0.1c1.7,0.2,2.6,1.1,3.8,2.2c0-0.8-0.1-1.6-0.1-2.4
				c0.2,2.2,0.1,4.4-0.3,6.6c0.7,0,1,0.3,1.1,0.9c0.1,1.5-2.2,2.3-3.2,2.2c-1.1-0.2-2-0.6-2.8-1.3c-0.7-0.7-1.5-1-2.4-1
				c-1.1-0.6-1.9-1.5-2.4-2.7c-0.5-1.5-0.6-2.9-0.2-4.5c-2.8,2.4-5.5,4.7-8.3,7.1c3-2.5,6-5,8.9-7.4c-3.3,1.4-6.5,2.8-9.8,4.3
				c3.7-1.5,7.3-3,11-4.5c0.3-0.6,0.6-1.1,1.2-1.4c1-0.8,2-0.9,3.2-1.1c-0.4-0.2-0.8-0.4-1.2-0.5c-1.6-0.6-3.1-1.2-4.7-1.8
				c-1.6-0.6-3.1-1.2-4.7-1.8C336.3,439.6,335.8,439.5,335.4,439.4z"/>
			<path class="st0" d="M335.4,440.6c-3.9,4.3-4.7,10.2-2.7,15.6c1.4,3.9,5.2,6.7,8.6,8.8c2.4,1.4,5.1,2.3,7.9,2.6
				c2.1-0.2,4-0.8,5.7-2.1c2-0.8,3.3-2.4,3.8-4.7c0.9-1.9,1.3-3.9,1.3-6c0.3-3.7-0.1-7.6-2.5-10.5c-0.8-1.2-2-2.2-3.4-2.9
				c-2.3-0.7-4.5-0.9-6.8-0.7c-2.3-0.1-4.6,0.3-6.8,1c-2.9,0.6-5.3,1.9-7.2,4.1c0.1-0.1,1.5-0.4,1.3-0.3c4.8-1.9,9.7-2.5,14.7-1.8
				c2.7,0.4,5.3,1.2,7.7,2.5c-0.9-1.5-1.8-2.9-2.6-4.4c1,1.9,2.1,3.7,3.1,5.6c-0.3-1.3-0.6-2.7-1-4c0.4,1.9,0.8,3.8,1.2,5.6
				c0.2-0.9,0.3-1.8,0.5-2.7c-1,4.6-1.8,9.3-5.2,12.8c-1.4,2.2-3.2,2.8-5.4,1.9c-1.6-0.7-3.2-1.4-4.8-2.1c-1.5-0.9-2.7-2.2-3.6-3.7
				c-1.6-2.3-1.5-4.8,0.2-7.4c0.6-2.1,1.3-3.1,3.3-4c-0.2-0.2-0.5-0.3-0.7-0.4c-0.9-0.4-1.9-0.9-2.9-1.3
				C339,442.2,335.6,440.4,335.4,440.6z"/>
			<path class="st0" d="M337.2,438.3c-4,4.1-5.1,9.8-2.9,15.2c1.3,2.3,2.9,4.3,5,6c1.1,0.8,2.3,1.6,3.4,2.4c2.4,1.5,4.9,2.4,7.7,2.9
				c2.1-0.1,4.1-0.7,5.8-1.9c2.1-0.7,3.3-2.2,3.7-4.5c0.7-1.8,1-3.7,0.9-5.6c0.1-1.9-0.1-3.8-0.7-5.6c-0.3-1.9-1.1-3.6-2.4-4.8
				c-1-1.4-2.3-2.5-3.9-3.3c-2-0.5-4-0.6-6-0.2c-2,0.1-3.9,0.5-5.8,1.3c-2.5,0.8-4.6,2.2-6.4,4c0.1-0.1,1.5,0.3,1.7,0.3
				c1.6,0.2,3.3,0.5,4.9,0.7c2.2,0.3,4.3,0.6,6.4,0.7c0.8,0.1,1.6,0.4,2.3,0.8c1,0.3,1.5,1.1,1.7,2.2c0.8,0.9,1,1.8,0.7,2.9
				c-0.4,0.7-0.3,1.1,0.2,1.4c0.3,0.1,0.4,0.4,0.4,0.7c0.2,0.6,0.1,1.1-0.4,1.6c-0.6,0.8-2,1.7-3.1,1.8c-1.6,0.1-3-1.2-4.3-1.9
				c-0.6-0.2-1.1-0.5-1.7-0.7c-1-0.6-1.8-1.4-2.3-2.4c-1.3-2.1-1.4-3.9-1.4-6.3c-0.6,0.7-1.1,1.4-1.7,2c0.8-1,1.7-2,2.5-3
				c-0.7,0.5-1.4,0.9-2.2,1.4c1.2-0.7,2.4-1.5,3.6-2.2c0.3-0.7,0.7-1.2,1.3-1.6c1-0.9,2-1.2,3.4-1.5c-0.3-0.2-0.7-0.3-1.1-0.4
				c-1.4-0.4-2.7-0.8-4.1-1.2C342.3,439.6,337.5,437.9,337.2,438.3z"/>
			<path class="st0" d="M335.2,440.1c-1.9,1.7-3.1,3.5-3.9,5.8c-1.1,3.2-0.7,6.7,0.5,9.8c1.5,3.7,5.3,6.5,8.7,8.3
				c2.4,1.3,5,2,7.7,2.2c2.1-0.1,4-0.7,5.7-1.9c2.1-0.7,3.2-2.2,3.5-4.6c0.6-1.8,0.9-3.7,0.8-5.6c0-3.6-0.7-7.1-3-10
				c-1-1.5-2.2-2.7-3.8-3.6c-2-0.5-4-0.6-6-0.3c-2,0.1-4,0.5-5.9,1.4c-2.6,0.9-4.8,2.3-6.7,4.3c0.3,0.1,0.6,0.1,1,0.1
				c0.9,0.1,1.7,0.1,2.6,0.2c1.8,0.1,3.7,0.3,5.5,0.3c0.9,0,1.7,0,2.6,0c0.8-0.3,1.6-0.5,2.4-0.4c1.9,0,3.2,0.8,4.8,1.9
				c0-0.3-0.1-0.5-0.1-0.8c0.2,1.7,0.2,3.4,0,5c0.7,0.5,1,1.1,1,2c-0.2,1.7-1.7,3.5-3.4,3.7c-1.1-0.1-2.1-0.5-3-1.2
				c-0.8-0.6-1.6-1-2.6-1.1c-1.2-0.6-2.1-1.6-2.6-2.8c-0.7-1.5-0.8-3-0.5-4.6c-0.3,0.3-0.6,0.6-0.9,0.8c0.5-0.4,0.9-0.8,1.4-1.3
				c-3,1.3-6,2.7-8.9,4c3.3-1.4,6.7-2.9,10-4.3c0.1-0.6,0.5-1.1,0.9-1.5c0.8-0.9,1.7-1.1,2.9-1.3c-0.3-0.2-0.7-0.4-1.1-0.5
				c-1.4-0.6-2.8-1.2-4.1-1.8C340.4,442.2,335.5,439.8,335.2,440.1z"/>
			<path class="st0" d="M334.8,438.4c-4.4,4-5.5,9.7-3.4,15.2c1.5,4,5.2,7.1,8.7,9.3c2.4,1.5,5,2.5,7.8,2.9c2,0.1,3.7-0.4,5.2-1.5
				c2-0.8,3.2-2.4,3.8-4.7c1-2.1,1.6-4.3,1.7-6.6c0.4-2.2,0.4-4.4,0-6.6c0-2.1-0.8-3.9-2.3-5.2c-1-1.3-2.3-2.4-3.8-3
				c-2.3-0.6-4.6-0.7-6.9-0.4c-2.3,0.1-4.6,0.6-6.8,1.4c-2.8,0.7-5.1,2.2-6.9,4.5c0.1-0.1,2.3-0.3,1.9-0.2c1.5-0.2,2.9-0.4,4.4-0.6
				c2.9-0.5,5.7-0.9,8.7-0.9c1.3-0.1,2.5,0.1,3.8,0.4c2,0.2,3.9,0.8,5.8,1.7c-1.2-1.9-2.5-3.8-3.7-5.7c1.3,2.6,2.6,5.3,3.9,7.9
				c0-0.1,0-0.3,0-0.4c-0.6,3.1-1.2,6.2-2.3,9.1c-0.3,1.3-0.9,2.5-1.6,3.7c-0.9,2-2.2,3.7-3.9,5.1c1.7-0.1,3.4-0.3,5.2-0.4
				c-2.2,0.1-4.4,0.2-6.6,0.3c1.3,0.4,2.6,0.8,3.9,1.3c-2.6-1.4-5.2-2.9-7.8-4.3c-0.7-0.9-1.5-1.8-2.2-2.7c-0.7-1.1-1.4-2.2-2-3.2
				c-1.8-2.2-2-4.4-0.8-6.8c0.5-2,0.6-3.5,2.1-4.9c1-1,2-1.3,3.3-1.7c-0.3-0.2-0.6-0.3-0.9-0.4c-1.2-0.4-2.3-0.8-3.5-1.2
				C339.1,439.8,335.1,438.1,334.8,438.4z"/>
			<path class="st0" d="M335.9,440.6c-1.3,1.4-2.1,2.7-2.7,4.5c-0.7,2.1-1.2,5.1-1,7.3c0.2,2.7,1.2,4.9,2.8,7.1
				c2.3,3.1,5.4,5.4,8.8,7c3.3,1.6,6.7,2.7,10.3,1.1c1.2-0.7,2.4-1.4,3.6-2.1c0.8-1.3,1.6-2.5,2.5-3.8c1.6-3.3,2-7,1.7-10.6
				c-0.1-0.9,0-2.5-0.2-3.5c-0.2-0.7-0.5-1.5-0.9-2.1c-0.6-1.1-2.7-4.2-2.9-4.3c-0.1-0.1-0.2-0.1-0.2-0.2c-0.7-0.4-1.5-0.8-2.3-1
				c-1.7-0.2-3.4-0.3-5-0.5c-1.7,0.1-3.4,0.3-5.1,0.4c-8.8,1-6.7,0.3-12.3,4.9c-0.2,0.1-0.1,1-0.1,1c2.3-2.7,5.2-4.3,8.8-4.9
				c-0.4,0.1-0.8,0.3-1.3,0.4c5.9-1.4,11.6-1.4,17.4,0c-0.8-0.4-1.6-0.8-2.5-1.1c1.4,1.4,2.9,2.7,4.3,4.1c-0.5-0.6-1-1.2-1.5-1.7
				c1.2,1.8,2.3,3.7,3.5,5.5c-0.3-0.8-0.7-1.6-1-2.4c0.8,5.7-0.1,10.8-2.9,15.3c-0.9,2-2.2,3.8-3.9,5.3c1.1-0.2,2.3-0.4,3.4-0.5
				c-4.7-0.6-9.5-1.3-14.2-1.9c-0.9-0.7-1.9-1.5-2.8-2.2c-0.8-0.9-1.7-1.9-2.5-2.8c-2-2-2.7-4.5-2.1-7.3c0-2.6-0.4-4.3,0.9-6.5
				c0.7-1.3,1.5-1.9,2.8-2.6c0,0-1.7-0.8-1.7-0.8C337.6,441.3,336,440.4,335.9,440.6z"/>
			<path class="st0" d="M335.7,437.2c-1.8,1.7-2.9,3.4-3.7,5.8c-1,3-0.8,6.4,0.2,9.3c1.3,2.6,3,4.9,5.2,6.8c1.2,0.9,2.4,1.9,3.6,2.8
				c2.4,1.6,5.1,2.7,7.9,3.2c2,0.1,3.7-0.4,5.3-1.6c2-0.9,3.4-2.5,4-4.8c1.1-2.1,1.6-4.4,1.7-6.7c0.4-2.2,0.4-4.4-0.1-6.7
				c-0.1-2.2-0.9-3.9-2.5-5.2c-1.1-1.4-2.4-2.4-4-3.1c-2.3-0.5-4.5-0.6-6.8-0.2c-2.3,0.1-4.5,0.7-6.6,1.6c-2.7,0.8-5,2.3-6.8,4.4
				c0.2-0.2,1.9,0.1,2.3,0.1c1.1,0,2.4,0.2,3.5,0c3.1-0.6,6.2-1.3,9.4-1.3c1.3-0.1,2.5,0,3.8,0.2c2,0.2,3.9,0.6,5.8,1.5
				c-1.3-1.9-2.7-3.7-4-5.6c1.4,2.1,2.9,4.1,4.3,6.2c-0.6-1.5-1.2-3-1.7-4.5c0.6,1.9,1.2,3.7,1.8,5.6c0.1-1.1,0.2-2.1,0.4-3.2
				c-0.7,4.2-1.2,8.4-2.5,12.5c-0.3,1.4-0.8,2.6-1.5,3.8c-0.8,2-2.1,3.9-3.7,5.4c0.4-0.1,0.9-0.2,1.3-0.3c-1.1,0.2-2.1,0.4-3.2,0.6
				c0.9,0.1,1.8,0.3,2.8,0.4c-1.6-0.3-3.3-0.6-4.9-0.9c0.4,0.3,0.7,0.6,1.1,0.9c-2.8-2.4-5.4-4.7-7.6-7.7c-1.9-2.6-5.6-8.2-3.3-11.6
				c0.5-0.6,1.1-1.2,1.6-1.8c0.3-0.5,0.6-0.9,0.9-1.4c1.1-1.4,2.7-2,4.3-2.5c-0.3-0.1-0.5-0.2-0.8-0.3c-1.1-0.3-2.1-0.5-3.2-0.8
				C339.6,438.1,336,436.9,335.7,437.2z"/>
			<path class="st0" d="M336.8,440.1c-1.8,1.8-3,3.6-3.8,6c-1.1,3.1-0.7,6.8,0.6,9.9c1.3,2.3,3.1,4.2,5.2,5.7
				c1.2,0.7,2.3,1.4,3.5,2.1c2.5,1.2,5,1.9,7.8,2.1c2.1-0.1,3.9-0.7,5.6-1.9c2-0.7,3.2-2.3,3.5-4.6c0.7-1.8,0.9-3.7,0.7-5.5
				c0-1.8-0.2-3.5-0.9-5.2c-0.3-1.8-1.2-3.3-2.6-4.3c-1.2-1.3-2.6-2.2-4.2-2.9c-1.9-0.5-3.7-0.6-5.6-0.2c-1.9,0.1-3.6,0.5-5.4,1.3
				c-2.4,0.9-4.4,2.3-6.1,4.3c0.1,0,0.2,0.1,0.3,0.1c3.7,1.2,7.4,2.5,11.1,3.7c0.1-0.4,0.4-0.7,0.8-0.7c0.7-0.2,1.3,0.3,1.7,0.9
				c0.5,0.3,0.6,0.8,0.3,1.4c-0.1,0.4-0.3,0.9-0.4,1.3c0.4,0.4,2.2-0.9,2.3,0.5c0.1,0.6-0.5,0.8-1.1,0.8c-0.7,0-1.4,0-2.1,0
				c-0.6-0.3-1.2-0.6-1.8-0.9c-0.4,0-0.8,0-1.2,0c-0.4-0.2-0.8-0.4-1.2-0.6c-1.5-1.2-1-3.5-0.7-5c-0.1,0.1-0.2,0.2-0.2,0.2
				c0.2-0.2,0.4-0.4,0.7-0.6c-2.7,1.1-5.4,2.3-8.1,3.4c3-1.2,6.1-2.5,9.1-3.7c0.2-0.6,0.5-1.1,1-1.5c0.9-0.8,1.8-1.1,3-1.3
				c-0.4-0.2-0.8-0.4-1.2-0.5c-1.6-0.6-3.1-1.2-4.7-1.8c-1.6-0.6-3.1-1.2-4.7-1.8C337.7,440.3,337.2,440.2,336.8,440.1z"/>
			<path class="st0" d="M335.7,438.6c-1.9,1.7-3.1,3.4-4,5.8c-1.1,3.1-0.8,6.9,0.5,9.9c1.4,2.3,3.2,4.2,5.4,5.7
				c1.2,0.7,2.3,1.4,3.5,2.1c2.4,1.2,4.9,1.9,7.5,2.2c2.1-0.1,3.9-0.8,5.6-1.9c2-0.7,3.2-2.2,3.4-4.5c0.6-1.8,0.9-3.7,0.7-5.6
				c0.1-1.9-0.2-3.7-0.8-5.4c-0.2-2-1.1-3.5-2.6-4.6c-1.2-1.3-2.6-2.3-4.3-3c-1.9-0.5-3.8-0.6-5.6-0.2c-1.9,0.1-3.7,0.6-5.5,1.5
				c-2.5,0.9-4.5,2.4-6.1,4.5c0.4,0.2,0.8,0.4,1.2,0.5c1.6,0.6,3.2,1.1,4.7,1.6c1.6,0.5,3.2,1.1,4.8,1.6c0.4,0.2,0.8,0.3,1.3,0.4
				c0.4,0.4,0.8,0.5,1.2,0.3c0.3-0.2,0.6-0.1,0.9,0.3c-0.2-3.6-0.5-7.1-0.7-10.7c-4,9-3.4,13.2,1.8,12.4c0.3,0.1,0.7,0.3,1,0.4
				c1.3,1.3-1.1,1.3-1.8,1.3c-0.9,0-1.6-0.4-2.3-1.2c-0.7,0.1-1.3-0.1-1.8-0.6c-2.1-1.6-1.6-4-1.1-6.2c-3.1,2.7-6.3,5.4-9.4,8.2
				c3.4-2.9,6.9-5.7,10.3-8.6c-3.7,1.8-7.4,3.6-11.1,5.4c4.2-1.9,8.4-3.8,12.6-5.7c0.3-0.4,0.7-0.7,1.2-0.9c1.1-0.5,2.1-0.4,3.3-0.3
				c-0.5-0.2-0.9-0.4-1.4-0.5c-1.8-0.6-3.7-1.2-5.5-1.8c-1.8-0.6-3.7-1.2-5.5-1.8C336.7,438.9,336.2,438.7,335.7,438.6z"/>
		</g>
	</g>
</g>
<g>
	<g>
		<g>
			<path class="st0" d="M223.2,439.6c-1.8,1.7-3.1,3.4-3.9,5.8c-1.1,3.1-0.8,6.8,0.5,9.9c1.4,2.3,3.2,4.2,5.4,5.6
				c1.2,0.7,2.3,1.3,3.5,2c2.4,1.2,4.9,1.8,7.5,2c2.1-0.1,3.9-0.8,5.6-1.9c2-0.7,3.2-2.2,3.5-4.6c0.6-1.8,0.9-3.7,0.7-5.6
				c0.1-1.8-0.2-3.6-0.8-5.3c-0.2-2-1.1-3.4-2.6-4.4c-1.3-1.3-2.8-2.3-4.5-2.9c-1.9-0.5-3.7-0.5-5.6,0c-1.9,0.2-3.7,0.7-5.4,1.6
				c-2.5,0.9-4.5,2.4-6,4.5c0.1-0.1,6.2,2.6,6.2,2.6c1.6,0.7,3.3,1.3,4.9,2c0.4,0.2,0.9,0.4,1.3,0.5c3.8-1.2,7.7-2.4,11.5-3.6
				c-3.4,1.3-6.8,2.6-10.1,3.8c0.2,0,2.3,0.1,1.7,0.7c-0.2,0.2-1.9,0-2-0.1c-0.5-0.3-1-0.6-1.5-1c-0.3,0-0.6,0.1-0.9,0.1
				c-1.6-0.3-1.4-2.5-1.3-3.6c-2.8,3.4-5.6,6.9-8.4,10.3c1.2-1.4,7.7-13.1,13.9-13.2c-0.1,0-0.3,0-0.4-0.1c0.6,0.1,1.2,0.2,1.7,0.3
				c-0.5-0.2-1-0.4-1.5-0.6c-1.9-0.7-3.8-1.5-5.7-2.2c-1.9-0.7-3.8-1.4-5.7-2.1C224.3,439.9,223.8,439.8,223.2,439.6z"/>
			<path class="st0" d="M223.8,438.1c-1.9,1.7-3.2,3.5-4.1,5.9c-1.2,3.1-0.7,6.7,0.6,9.7c1.4,2.3,3.2,4.2,5.3,5.7
				c1.2,0.7,2.3,1.4,3.5,2.1c2.4,1.2,4.9,2,7.5,2.2c2.1-0.1,4-0.7,5.7-1.8c2-0.6,3.2-2.1,3.5-4.4c0.7-1.8,0.9-3.7,0.7-5.6
				c0.1-1.9-0.2-3.7-0.8-5.6c-0.2-2-1.1-3.6-2.6-4.7c-1.2-1.3-2.7-2.3-4.4-3c-1.9-0.5-3.8-0.6-5.7-0.1c-1.9,0.1-3.7,0.6-5.4,1.5
				c-2.4,0.9-4.4,2.4-6,4.5c0.4,0.2,0.8,0.3,1.2,0.5c1.5,0.5,3,1.1,4.5,1.6c1.5,0.5,3,1,4.6,1.5c0.4,0.2,0.8,0.3,1.2,0.4
				c0.5,0.4,1,0.6,1.6,0.4c0.4-0.1,0.8,0,1.1,0.4c-0.3-3.6-0.6-7.2-0.8-10.8c-3.9,9.1-3.2,13.4,2,12.9c0.3,0.2,0.7,0.3,1,0.5
				c1.2,1.4-1.1,1.5-1.9,1.4c-0.9,0-1.8-0.4-2.5-1.1c-0.8,0.1-1.4-0.1-1.9-0.6c-2.2-1.6-1.9-3.9-1.5-6.2c-2.9,2.5-5.9,5-8.8,7.4
				c3.2-2.6,6.4-5.3,9.6-7.9c-3.5,1.6-6.9,3.2-10.4,4.8c3.9-1.7,7.8-3.4,11.8-5.1c0.4-0.6,0.8-1.1,1.4-1.4c1.1-0.8,2.2-1,3.6-1.2
				c-0.5-0.2-0.9-0.3-1.4-0.5c-1.8-0.5-3.5-1-5.3-1.5c-1.8-0.5-3.6-1-5.3-1.5C224.7,438.3,224.2,438.2,223.8,438.1z"/>
			<path class="st0" d="M224.2,439.4c-1.9,1.7-3.1,3.4-4,5.8c-1.2,3.1-0.8,6.8,0.5,9.8c1.4,2.2,3.2,4,5.3,5.5c1.2,0.7,2.3,1.3,3.5,2
				c2.4,1.2,4.9,1.9,7.6,2.2c2.1-0.1,4-0.7,5.7-1.8c2.1-0.6,3.2-2.1,3.5-4.5c0.6-1.8,0.8-3.7,0.6-5.6c0-1.8-0.3-3.6-0.9-5.3
				c-0.2-1.9-1.1-3.4-2.6-4.5c-1.2-1.3-2.7-2.3-4.3-3c-1.9-0.4-3.8-0.4-5.6,0c-1.9,0.2-3.7,0.7-5.3,1.6c-2.4,0.9-4.4,2.4-5.9,4.5
				c0.1-0.1,6.4,2.9,6.3,2.9c1.7,0.8,3.3,1.5,5,2.2c0.4,0.2,0.9,0.4,1.4,0.5c-2.6-0.8-3.7-2.3-3-4.5c-2.8,3.4-5.6,6.9-8.3,10.3
				c3.8-4.1,7.6-8.3,11.4-12.4c0.3-0.4,0.7-0.6,1.1-0.7c1-0.4,2-0.2,3.1-0.1c-0.5-0.2-1-0.4-1.5-0.6c-1.9-0.7-3.9-1.4-5.8-2
				c-1.9-0.7-3.9-1.3-5.8-2C225.3,439.6,224.7,439.5,224.2,439.4z"/>
			<path class="st0" d="M223.6,440c-1.8,2.2-2.8,4.5-3.1,7.4c-0.2,1.5-0.3,3-0.3,4.6c-0.1,1.9,0.5,3.7,1.7,5.2
				c2.6,4.3,6.9,8.1,11.8,9.6c1.4,0.3,2.8,0.7,4.2,1c2.9-0.3,5.4-1.4,7.6-3.2c2.8-2.8,4-8.3,3.9-12c0-2-0.6-5.7-1.7-7.6
				c-1.2-1.8-2.7-3.1-4.6-4.1c-1.5-0.2-3-0.5-4.6-0.7c-3.1-0.1-6.1,0.2-9.1,1.1c-2.8,0.5-5.2,1.8-7.2,3.9c-0.3,0.2,0.9-0.2,0.7-0.1
				c2.3-0.8,4.7-1.6,7-2.4c-0.2,0-0.3,0-0.5,0.1c3.5-0.6,7-0.5,10.4,0.2c2.2,0.3,4.3,0.9,6.3,1.9c-0.9-1.2-1.9-2.4-2.8-3.5
				c1.2,1.7,2.5,3.4,3.7,5.1c-0.4-0.9-0.8-1.9-1.1-2.8c0.6,1.6,1.2,3.3,1.9,4.9c0-1.1-0.1-2.3-0.1-3.4c-0.5,5.8-1.8,19.1-11.1,18.9
				c-3.8-0.1-7.4-2.8-9.8-5.5c-1.2-1.3-2.2-2.7-2.9-4.4c-1.3-2.7-1.2-5.2,0.5-7.4c0.2-1.2,0.7-2.2,1.4-3.1c0.7-0.8,1.5-1.5,2.5-1.8
				c-0.1,0.1-2.3-1-2.3-1C226,440.9,223.7,439.9,223.6,440z"/>
			<path class="st0" d="M224,437.3c-1.8,1.7-2.9,3.4-3.7,5.7c-1,3-0.7,6.3,0.3,9.2c1.3,2.6,2.9,4.9,5.1,6.9c1.2,0.9,2.4,1.9,3.6,2.8
				c2.4,1.6,5.1,2.7,8,3.1c2.1,0.1,3.9-0.4,5.6-1.6c2.1-0.8,3.3-2.3,3.8-4.6c0.9-2,1.3-4.1,1.3-6.3c0.3-2.2,0.2-4.3-0.3-6.5
				c0-2.2-0.9-4-2.5-5.4c-1.1-1.4-2.5-2.5-4.2-3.2c-2.1-0.6-4.3-0.7-6.4-0.3c-2.1,0.1-4.2,0.6-6.2,1.5c-2.6,0.8-4.8,2.3-6.6,4.3
				c0.2,0,0.5,0.1,0.7,0c0.6,0,1.3,0,1.9-0.1c1.3-0.1,2.7-0.1,4-0.2c2.4-0.3,4.8-0.7,7.2-0.5c2.6,0.2,4.5,1.1,6.9,2.4
				c-0.1-0.2-0.1-0.5-0.2-0.7c0.9,3.3,1.5,6.4,0.9,9.8c-0.1,1.5-0.6,2.9-1.2,4.2c-1.1,2.6-2.9,4.4-5.6,5.4c1.4,0.3,2.9,0.6,4.3,1
				c-1.9-0.5-3.9-1-5.8-1.5c0.1,0.1,0.2,0.1,0.3,0.2c-1.8-1.7-3.7-3.4-5.2-5.3c-0.8-1.1-1.6-2.2-2.3-3.3c-2.1-2.3-2.4-4.8-1-7.5
				c0.6-2.8,0.5-4,2.4-5.6c1.2-1,2.4-1.4,3.9-1.8c-0.3-0.1-0.6-0.2-0.9-0.3c-1.1-0.3-2.3-0.6-3.4-0.8
				C228.1,438.2,224.3,437,224,437.3z"/>
			<path class="st0" d="M224.8,439.2c-4.1,4-5.2,9.7-3.1,15.1c1.4,3.7,5.1,6.6,8.4,8.7c2.4,1.5,5.1,2.5,7.9,3c2.2-0.1,4.1-0.7,5.9-2
				c2.1-0.7,3.3-2.3,3.7-4.7c0.7-1.9,1-3.8,0.9-5.8c0.1-1.9-0.1-3.8-0.7-5.7c-0.3-1.9-1.1-3.5-2.5-4.8c-1.1-1.4-2.4-2.5-4-3.3
				c-2-0.5-4.1-0.6-6.1-0.2c-2,0.1-4,0.6-5.8,1.4c-2.5,0.9-4.6,2.2-6.5,4.1c0,0,2.6,0.2,2,0.2c1.6,0.1,3.2,0.2,4.8,0.3
				c1.8,0,3.6,0,5.4,0c1,0,2,0.2,2.9,0.7c1.1,0.2,1.8,0.9,2.1,2.1c1,0.8,1.3,1.8,1,2.9c-0.3,0.7-0.2,1.2,0.2,1.7
				c0.3,0.3,0.4,0.7,0.4,1.2c0.2,0.8,0,1.6-0.5,2.3c-0.4,0.5-0.8,1-1.2,1.5c-0.6,0.4-1.3,0.7-1.9,1.1c-0.7-0.2-1.4-0.3-2.1-0.5
				c-0.8-0.4-1.6-0.9-2.4-1.3c-0.6-0.3-1.2-0.5-1.8-0.8c-1.1-0.6-1.9-1.5-2.6-2.5c-1.5-2.1-1.7-3.9-1.9-6.5
				c-0.2,0.3-0.4,0.5-0.5,0.8c0.4-0.6,0.9-1.2,1.3-1.7c-0.2,0.2-0.5,0.4-0.7,0.5c0.7-0.5,1.4-0.9,2.1-1.4c0.3-0.7,0.8-1.2,1.4-1.7
				c1.1-0.9,2.2-1.2,3.6-1.5c-0.3-0.2-0.6-0.3-1-0.4c-1.3-0.4-2.5-0.8-3.8-1.2C229.5,440.7,225.1,438.9,224.8,439.2z"/>
			<path class="st0" d="M222.1,437.6c-2.5,2.4-3.9,5.1-4.3,8.6c-0.3,2.2,0,4.4,0.7,6.6c1.3,2.6,3.1,4.9,5.2,6.8
				c1.6,1.6,3.5,2.9,5.6,3.8c1.8,1.1,3.8,1.8,5.9,2.1c2.3,0.1,5.1-0.9,6.8-2.4c1.3-0.9,2.2-2.3,2.6-4.1c1.3-2.9,2-6,2.1-9.1
				c0-2.5-0.2-6.3-1.5-8.4c-0.7-0.9-1.5-1.7-2.4-2.4c-2.2-1.8-4.7-2.5-7.5-2.2c-3.2,0-6.3,0.6-9.3,1.7c-2.8,0.7-5.1,2.2-6.9,4.4
				c0,0,1.6-0.3,1.3-0.3c1-0.3,2-0.5,3-0.8c3.8-1.3,7.7-2,11.7-2c2.9,0,5.8,0.5,8.6,1.4c-0.3-0.3-0.7-0.7-1-1c0.6,0.7,1.3,1.3,1.9,2
				c-0.5-0.8-0.9-1.6-1.4-2.3c0.7,1.3,1.4,2.6,2.1,3.9c-0.1-0.8-0.2-1.6-0.2-2.3c0.2,5-0.6,9.9-2.1,14.6c-1,3-2.5,5.6-4.6,7.9
				c1.1-0.3,2.1-0.6,3.2-0.9c-2.8,0.3-5.5,0.7-8.3,1c0.5,0.3,0.9,0.7,1.4,1c-3.1-2.4-5.9-4.7-8.3-7.8c-2-2.6-6-8.3-3.7-11.7
				c0.5-0.6,1-1.3,1.6-1.9c0.3-0.5,0.6-1,0.9-1.4c1-1.5,2.6-2.1,4.2-2.6c-0.2-0.1-0.5-0.2-0.8-0.3c-1-0.3-1.9-0.6-2.9-0.8
				C225.7,438.5,222.4,437.3,222.1,437.6z"/>
			<path class="st0" d="M222.6,439.4c-1.9,1.6-3.2,3.4-4.2,5.7c-1.2,3.1-0.8,6.7,0.5,9.8c1.5,3.7,5.4,6.4,8.7,8.2
				c2.4,1.3,4.9,2,7.6,2.1c2.1-0.1,3.9-0.8,5.6-1.8c2-0.6,3.2-2.1,3.4-4.4c0.6-1.8,0.9-3.6,0.7-5.4c0-3.5-0.8-7-3-9.9
				c-0.9-1.5-2.2-2.7-3.7-3.6c-1.9-0.6-3.9-0.7-5.8-0.3c-2,0.1-3.9,0.5-5.8,1.3c-2.5,0.9-4.6,2.3-6.4,4.3c0,0,3.5,0.5,2.8,0.4
				c2.2,0.3,4.4,0.6,6.5,0.9c1.1,0.1,2.1,0.3,3.2,0.4c0.6-0.2,1.2-0.3,1.8-0.1c1.7,0.2,2.6,1.1,3.8,2.2c0-0.8-0.1-1.6-0.1-2.4
				c0.2,2.2,0.1,4.4-0.3,6.6c0.7,0,1,0.3,1.1,0.9c0.1,1.5-2.2,2.3-3.2,2.2c-1.1-0.2-2-0.6-2.8-1.3c-0.7-0.7-1.5-1-2.4-1
				c-1.1-0.6-1.9-1.5-2.4-2.7c-0.5-1.5-0.6-2.9-0.2-4.5c-2.8,2.4-5.5,4.7-8.3,7.1c3-2.5,6-5,8.9-7.4c-3.3,1.4-6.5,2.8-9.8,4.3
				c3.7-1.5,7.3-3,11-4.5c0.3-0.6,0.6-1.1,1.2-1.4c1-0.8,2-0.9,3.2-1.1c-0.4-0.2-0.8-0.4-1.2-0.5c-1.6-0.6-3.1-1.2-4.7-1.8
				c-1.6-0.6-3.1-1.2-4.7-1.8C223.5,439.6,223.1,439.5,222.6,439.4z"/>
			<path class="st0" d="M222.6,440.6c-3.9,4.3-4.7,10.2-2.7,15.6c1.4,3.9,5.2,6.7,8.6,8.8c2.4,1.4,5.1,2.3,7.9,2.6
				c2.1-0.2,4-0.8,5.7-2.1c2-0.8,3.3-2.4,3.8-4.7c0.9-1.9,1.3-3.9,1.3-6c0.3-3.7-0.1-7.6-2.5-10.5c-0.8-1.2-2-2.2-3.4-2.9
				c-2.3-0.7-4.5-0.9-6.8-0.7c-2.3-0.1-4.6,0.3-6.8,1c-2.9,0.6-5.3,1.9-7.2,4.1c0.1-0.1,1.5-0.4,1.3-0.3c4.8-1.9,9.7-2.5,14.7-1.8
				c2.7,0.4,5.3,1.2,7.7,2.5c-0.9-1.5-1.8-2.9-2.6-4.4c1,1.9,2.1,3.7,3.1,5.6c-0.3-1.3-0.6-2.7-1-4c0.4,1.9,0.8,3.8,1.2,5.6
				c0.2-0.9,0.3-1.8,0.5-2.7c-1,4.6-1.8,9.3-5.2,12.8c-1.4,2.2-3.2,2.8-5.4,1.9c-1.6-0.7-3.2-1.4-4.8-2.1c-1.5-0.9-2.7-2.2-3.6-3.7
				c-1.6-2.3-1.5-4.8,0.2-7.4c0.6-2.1,1.3-3.1,3.3-4c-0.2-0.2-0.5-0.3-0.7-0.4c-0.9-0.4-1.9-0.9-2.9-1.3
				C226.2,442.2,222.8,440.4,222.6,440.6z"/>
			<path class="st0" d="M224.4,438.3c-4,4.1-5.1,9.8-2.9,15.2c1.3,2.3,2.9,4.3,5,6c1.1,0.8,2.3,1.6,3.4,2.4c2.4,1.5,4.9,2.4,7.7,2.9
				c2.1-0.1,4.1-0.7,5.8-1.9c2.1-0.7,3.3-2.2,3.7-4.5c0.7-1.8,1-3.7,0.9-5.6c0.1-1.9-0.1-3.8-0.7-5.6c-0.3-1.9-1.1-3.6-2.4-4.8
				c-1-1.4-2.3-2.5-3.9-3.3c-2-0.5-4-0.6-6-0.2c-2,0.1-3.9,0.5-5.8,1.3c-2.5,0.8-4.6,2.2-6.4,4c0.1-0.1,1.5,0.3,1.7,0.3
				c1.6,0.2,3.3,0.5,4.9,0.7c2.2,0.3,4.3,0.6,6.4,0.7c0.8,0.1,1.6,0.4,2.3,0.8c1,0.3,1.5,1.1,1.7,2.2c0.8,0.9,1,1.8,0.7,2.9
				c-0.4,0.7-0.3,1.1,0.2,1.4c0.3,0.1,0.4,0.4,0.4,0.7c0.2,0.6,0.1,1.1-0.4,1.6c-0.6,0.8-2,1.7-3.1,1.8c-1.6,0.1-3-1.2-4.3-1.9
				c-0.6-0.2-1.1-0.5-1.7-0.7c-1-0.6-1.8-1.4-2.3-2.4c-1.3-2.1-1.4-3.9-1.4-6.3c-0.6,0.7-1.1,1.4-1.7,2c0.8-1,1.7-2,2.5-3
				c-0.7,0.5-1.4,0.9-2.2,1.4c1.2-0.7,2.4-1.5,3.6-2.2c0.3-0.7,0.7-1.2,1.3-1.6c1-0.9,2-1.2,3.4-1.5c-0.3-0.2-0.7-0.3-1.1-0.4
				c-1.4-0.4-2.7-0.8-4.1-1.2C229.5,439.6,224.8,437.9,224.4,438.3z"/>
			<path class="st0" d="M222.5,440.1c-1.9,1.7-3.1,3.5-3.9,5.8c-1.1,3.2-0.7,6.7,0.5,9.8c1.5,3.7,5.3,6.5,8.7,8.3
				c2.4,1.3,5,2,7.7,2.2c2.1-0.1,4-0.7,5.7-1.9c2.1-0.7,3.2-2.2,3.5-4.6c0.6-1.8,0.9-3.7,0.8-5.6c0-3.6-0.7-7.1-3-10
				c-1-1.5-2.2-2.7-3.8-3.6c-2-0.5-4-0.6-6-0.3c-2,0.1-4,0.5-5.9,1.4c-2.6,0.9-4.8,2.3-6.7,4.3c0.3,0.1,0.6,0.1,1,0.1
				c0.9,0.1,1.7,0.1,2.6,0.2c1.8,0.1,3.7,0.3,5.5,0.3c0.9,0,1.7,0,2.6,0c0.8-0.3,1.6-0.5,2.4-0.4c1.9,0,3.2,0.8,4.8,1.9
				c0-0.3-0.1-0.5-0.1-0.8c0.2,1.7,0.2,3.4,0,5c0.7,0.5,1,1.1,1,2c-0.2,1.7-1.7,3.5-3.4,3.7c-1.1-0.1-2.1-0.5-3-1.2
				c-0.8-0.6-1.6-1-2.6-1.1c-1.2-0.6-2.1-1.6-2.6-2.8c-0.7-1.5-0.8-3-0.5-4.6c-0.3,0.3-0.6,0.6-0.9,0.8c0.5-0.4,0.9-0.8,1.4-1.3
				c-3,1.3-6,2.7-8.9,4c3.3-1.4,6.7-2.9,10-4.3c0.1-0.6,0.5-1.1,0.9-1.5c0.8-0.9,1.7-1.1,2.9-1.3c-0.3-0.2-0.7-0.4-1.1-0.5
				c-1.4-0.6-2.8-1.2-4.1-1.8C227.7,442.2,222.8,439.8,222.5,440.1z"/>
			<path class="st0" d="M222,438.4c-4.4,4-5.5,9.7-3.4,15.2c1.5,4,5.2,7.1,8.7,9.3c2.4,1.5,5,2.5,7.8,2.9c2,0.1,3.7-0.4,5.2-1.5
				c2-0.8,3.2-2.4,3.8-4.7c1-2.1,1.6-4.3,1.7-6.6c0.4-2.2,0.4-4.4,0-6.6c0-2.1-0.8-3.9-2.3-5.2c-1-1.3-2.3-2.4-3.8-3
				c-2.3-0.6-4.6-0.7-6.9-0.4c-2.3,0.1-4.6,0.6-6.8,1.4c-2.8,0.7-5.1,2.2-6.9,4.5c0.1-0.1,2.3-0.3,1.9-0.2c1.5-0.2,2.9-0.4,4.4-0.6
				c2.9-0.5,5.7-0.9,8.7-0.9c1.3-0.1,2.5,0.1,3.8,0.4c2,0.2,3.9,0.8,5.8,1.7c-1.2-1.9-2.5-3.8-3.7-5.7c1.3,2.6,2.6,5.3,3.9,7.9
				c0-0.1,0-0.3,0-0.4c-0.6,3.1-1.2,6.2-2.3,9.1c-0.3,1.3-0.9,2.5-1.6,3.7c-0.9,2-2.2,3.7-3.9,5.1c1.7-0.1,3.4-0.3,5.2-0.4
				c-2.2,0.1-4.4,0.2-6.6,0.3c1.3,0.4,2.6,0.8,3.9,1.3c-2.6-1.4-5.2-2.9-7.8-4.3c-0.7-0.9-1.5-1.8-2.2-2.7c-0.7-1.1-1.4-2.2-2-3.2
				c-1.8-2.2-2-4.4-0.8-6.8c0.5-2,0.6-3.5,2.1-4.9c1-1,2-1.3,3.3-1.7c-0.3-0.2-0.6-0.3-0.9-0.4c-1.2-0.4-2.3-0.8-3.5-1.2
				C226.3,439.8,222.3,438.1,222,438.4z"/>
			<path class="st0" d="M223.1,440.6c-1.3,1.4-2.1,2.7-2.7,4.5c-0.7,2.1-1.2,5.1-1,7.3c0.2,2.7,1.2,4.9,2.8,7.1
				c2.3,3.1,5.4,5.4,8.8,7c3.3,1.6,6.7,2.7,10.3,1.1c1.2-0.7,2.4-1.4,3.6-2.1c0.8-1.3,1.6-2.5,2.5-3.8c1.6-3.3,2-7,1.7-10.6
				c-0.1-0.9,0-2.5-0.2-3.5c-0.2-0.7-0.5-1.5-0.9-2.1c-0.6-1.1-2.7-4.2-2.9-4.3c-0.1-0.1-0.2-0.1-0.2-0.2c-0.7-0.4-1.5-0.8-2.3-1
				c-1.7-0.2-3.4-0.3-5-0.5c-1.7,0.1-3.4,0.3-5.1,0.4c-8.8,1-6.7,0.3-12.3,4.9c-0.2,0.1-0.1,1-0.1,1c2.3-2.7,5.2-4.3,8.8-4.9
				c-0.4,0.1-0.8,0.3-1.3,0.4c5.9-1.4,11.6-1.4,17.4,0c-0.8-0.4-1.6-0.8-2.5-1.1c1.4,1.4,2.9,2.7,4.3,4.1c-0.5-0.6-1-1.2-1.5-1.7
				c1.2,1.8,2.3,3.7,3.5,5.5c-0.3-0.8-0.7-1.6-1-2.4c0.8,5.7-0.1,10.8-2.9,15.3c-0.9,2-2.2,3.8-3.9,5.3c1.1-0.2,2.3-0.4,3.4-0.5
				c-4.7-0.6-9.5-1.3-14.2-1.9c-0.9-0.7-1.9-1.5-2.8-2.2c-0.8-0.9-1.7-1.9-2.5-2.8c-2-2-2.7-4.5-2.1-7.3c0-2.6-0.4-4.3,0.9-6.5
				c0.7-1.3,1.5-1.9,2.8-2.6c0,0-1.7-0.8-1.7-0.8C224.8,441.3,223.3,440.4,223.1,440.6z"/>
			<path class="st0" d="M222.9,437.2c-1.8,1.7-2.9,3.4-3.7,5.8c-1,3-0.8,6.4,0.2,9.3c1.3,2.6,3,4.9,5.2,6.8c1.2,0.9,2.4,1.9,3.6,2.8
				c2.4,1.6,5.1,2.7,7.9,3.2c2,0.1,3.7-0.4,5.3-1.6c2-0.9,3.4-2.5,4-4.8c1.1-2.1,1.6-4.4,1.7-6.7c0.4-2.2,0.4-4.4-0.1-6.7
				c-0.1-2.2-0.9-3.9-2.5-5.2c-1.1-1.4-2.4-2.4-4-3.1c-2.3-0.5-4.5-0.6-6.8-0.2c-2.3,0.1-4.5,0.7-6.6,1.6c-2.7,0.8-5,2.3-6.8,4.4
				c0.2-0.2,1.9,0.1,2.3,0.1c1.1,0,2.4,0.2,3.5,0c3.1-0.6,6.2-1.3,9.4-1.3c1.3-0.1,2.5,0,3.8,0.2c2,0.2,3.9,0.6,5.8,1.5
				c-1.3-1.9-2.7-3.7-4-5.6c1.4,2.1,2.9,4.1,4.3,6.2c-0.6-1.5-1.2-3-1.7-4.5c0.6,1.9,1.2,3.7,1.8,5.6c0.1-1.1,0.2-2.1,0.4-3.2
				c-0.7,4.2-1.2,8.4-2.5,12.5c-0.3,1.4-0.8,2.6-1.5,3.8c-0.8,2-2.1,3.9-3.7,5.4c0.4-0.1,0.9-0.2,1.3-0.3c-1.1,0.2-2.1,0.4-3.2,0.6
				c0.9,0.1,1.8,0.3,2.8,0.4c-1.6-0.3-3.3-0.6-4.9-0.9c0.4,0.3,0.7,0.6,1.1,0.9c-2.8-2.4-5.4-4.7-7.6-7.7c-1.9-2.6-5.6-8.2-3.3-11.6
				c0.5-0.6,1.1-1.2,1.6-1.8c0.3-0.5,0.6-0.9,0.9-1.4c1.1-1.4,2.7-2,4.3-2.5c-0.3-0.1-0.5-0.2-0.8-0.3c-1.1-0.3-2.1-0.5-3.2-0.8
				C226.9,438.1,223.3,436.9,222.9,437.2z"/>
			<path class="st0" d="M224,440.1c-1.8,1.8-3,3.6-3.8,6c-1.1,3.1-0.7,6.8,0.6,9.9c1.3,2.3,3.1,4.2,5.2,5.7c1.2,0.7,2.3,1.4,3.5,2.1
				c2.5,1.2,5,1.9,7.8,2.1c2.1-0.1,3.9-0.7,5.6-1.9c2-0.7,3.2-2.3,3.5-4.6c0.7-1.8,0.9-3.7,0.7-5.5c0-1.8-0.2-3.5-0.9-5.2
				c-0.3-1.8-1.2-3.3-2.6-4.3c-1.2-1.3-2.6-2.2-4.2-2.9c-1.9-0.5-3.7-0.6-5.6-0.2c-1.9,0.1-3.6,0.5-5.4,1.3
				c-2.4,0.9-4.4,2.3-6.1,4.3c0.1,0,0.2,0.1,0.3,0.1c3.7,1.2,7.4,2.5,11.1,3.7c0.1-0.4,0.4-0.7,0.8-0.7c0.7-0.2,1.3,0.3,1.7,0.9
				c0.5,0.3,0.6,0.8,0.3,1.4c-0.1,0.4-0.3,0.9-0.4,1.3c0.4,0.4,2.2-0.9,2.3,0.5c0.1,0.6-0.5,0.8-1.1,0.8c-0.7,0-1.4,0-2.1,0
				c-0.6-0.3-1.2-0.6-1.8-0.9c-0.4,0-0.8,0-1.2,0c-0.4-0.2-0.8-0.4-1.2-0.6c-1.5-1.2-1-3.5-0.7-5c-0.1,0.1-0.2,0.2-0.2,0.2
				c0.2-0.2,0.4-0.4,0.7-0.6c-2.7,1.1-5.4,2.3-8.1,3.4c3-1.2,6.1-2.5,9.1-3.7c0.2-0.6,0.5-1.1,1-1.5c0.9-0.8,1.8-1.1,3-1.3
				c-0.4-0.2-0.8-0.4-1.2-0.5c-1.6-0.6-3.1-1.2-4.7-1.8c-1.6-0.6-3.1-1.2-4.7-1.8C224.9,440.3,224.5,440.2,224,440.1z"/>
			<path class="st0" d="M223,438.6c-1.9,1.7-3.1,3.4-4,5.8c-1.1,3.1-0.8,6.9,0.5,9.9c1.4,2.3,3.2,4.2,5.4,5.7
				c1.2,0.7,2.3,1.4,3.5,2.1c2.4,1.2,4.9,1.9,7.5,2.2c2.1-0.1,3.9-0.8,5.6-1.9c2-0.7,3.2-2.2,3.4-4.5c0.6-1.8,0.9-3.7,0.7-5.6
				c0.1-1.9-0.2-3.7-0.8-5.4c-0.2-2-1.1-3.5-2.6-4.6c-1.2-1.3-2.6-2.3-4.3-3c-1.9-0.5-3.8-0.6-5.6-0.2c-1.9,0.1-3.7,0.6-5.5,1.5
				c-2.5,0.9-4.5,2.4-6.1,4.5c0.4,0.2,0.8,0.4,1.2,0.5c1.6,0.6,3.2,1.1,4.7,1.6c1.6,0.5,3.2,1.1,4.8,1.6c0.4,0.2,0.8,0.3,1.3,0.4
				c0.4,0.4,0.8,0.5,1.2,0.3c0.3-0.2,0.6-0.1,0.9,0.3c-0.2-3.6-0.5-7.1-0.7-10.7c-4,9-3.4,13.2,1.8,12.4c0.3,0.1,0.7,0.3,1,0.4
				c1.3,1.3-1.1,1.3-1.8,1.3c-0.9,0-1.6-0.4-2.3-1.2c-0.7,0.1-1.3-0.1-1.8-0.6c-2.1-1.6-1.6-4-1.1-6.2c-3.1,2.7-6.3,5.4-9.4,8.2
				c3.4-2.9,6.9-5.7,10.3-8.6c-3.7,1.8-7.4,3.6-11.1,5.4c4.2-1.9,8.4-3.8,12.6-5.7c0.3-0.4,0.7-0.7,1.2-0.9c1.1-0.5,2.1-0.4,3.3-0.3
				c-0.5-0.2-0.9-0.4-1.4-0.5c-1.8-0.6-3.7-1.2-5.5-1.8c-1.8-0.6-3.7-1.2-5.5-1.8C224,438.9,223.5,438.7,223,438.6z"/>
		</g>
	</g>
</g>
<g>
	<g>
		<g>
			<path class="st0" d="M126.5,234.7c-1.8,1.7-3.1,3.4-3.9,5.8c-1.1,3.1-0.8,6.8,0.5,9.9c1.4,2.3,3.2,4.2,5.4,5.6
				c1.2,0.7,2.3,1.3,3.5,2c2.4,1.2,4.9,1.8,7.5,2c2.1-0.1,3.9-0.8,5.6-1.9c2-0.7,3.2-2.2,3.5-4.6c0.6-1.8,0.9-3.7,0.7-5.6
				c0.1-1.8-0.2-3.6-0.8-5.3c-0.2-2-1.1-3.4-2.6-4.4c-1.3-1.3-2.8-2.3-4.5-2.9c-1.9-0.5-3.7-0.5-5.6,0c-1.9,0.2-3.7,0.7-5.4,1.6
				c-2.5,0.9-4.5,2.4-6,4.5c0.1-0.1,6.2,2.6,6.2,2.6c1.6,0.7,3.3,1.3,4.9,2c0.4,0.2,0.9,0.4,1.3,0.5c3.8-1.2,7.7-2.4,11.5-3.6
				c-3.4,1.3-6.8,2.6-10.1,3.8c0.2,0,2.3,0.1,1.7,0.7c-0.2,0.2-1.9,0-2-0.1c-0.5-0.3-1-0.6-1.5-1c-0.3,0-0.6,0.1-0.9,0.1
				c-1.6-0.3-1.4-2.5-1.3-3.6c-2.8,3.4-5.6,6.9-8.4,10.3c1.2-1.4,7.7-13.1,13.9-13.2c-0.1,0-0.3,0-0.4-0.1c0.6,0.1,1.2,0.2,1.7,0.3
				c-0.5-0.2-1-0.4-1.5-0.6c-1.9-0.7-3.8-1.5-5.7-2.2c-1.9-0.7-3.8-1.4-5.7-2.1C127.6,235,127.1,234.9,126.5,234.7z"/>
			<path class="st0" d="M127.1,233.2c-1.9,1.7-3.2,3.5-4.1,5.9c-1.2,3.1-0.7,6.7,0.6,9.7c1.4,2.3,3.2,4.2,5.3,5.7
				c1.2,0.7,2.3,1.4,3.5,2.1c2.4,1.2,4.9,2,7.5,2.3c2.1-0.1,4-0.7,5.7-1.8c2-0.6,3.2-2.1,3.5-4.4c0.7-1.8,0.9-3.7,0.7-5.6
				c0.1-1.9-0.2-3.7-0.8-5.6c-0.2-2-1.1-3.6-2.6-4.7c-1.2-1.3-2.7-2.3-4.4-3c-1.9-0.5-3.8-0.6-5.7-0.1c-1.9,0.1-3.7,0.6-5.4,1.5
				c-2.4,0.9-4.4,2.4-6,4.5c0.4,0.2,0.8,0.3,1.2,0.5c1.5,0.5,3,1.1,4.5,1.6c1.5,0.5,3,1,4.6,1.5c0.4,0.2,0.8,0.3,1.2,0.4
				c0.5,0.4,1,0.6,1.6,0.4c0.4-0.1,0.8,0,1.1,0.4c-0.3-3.6-0.6-7.2-0.8-10.8c-3.9,9.1-3.2,13.4,2,12.9c0.3,0.2,0.7,0.3,1,0.5
				c1.2,1.4-1.1,1.5-1.9,1.4c-0.9,0-1.8-0.4-2.5-1.1c-0.8,0.1-1.4-0.1-1.9-0.6c-2.2-1.6-1.9-3.9-1.5-6.2c-2.9,2.5-5.9,5-8.8,7.4
				c3.2-2.6,6.4-5.3,9.6-7.9c-3.5,1.6-6.9,3.2-10.4,4.8c3.9-1.7,7.8-3.4,11.8-5.1c0.4-0.6,0.8-1.1,1.4-1.4c1.1-0.8,2.2-1,3.6-1.2
				c-0.5-0.2-0.9-0.3-1.4-0.5c-1.8-0.5-3.5-1-5.3-1.5c-1.8-0.5-3.6-1-5.3-1.5C128,233.4,127.5,233.3,127.1,233.2z"/>
			<path class="st0" d="M127.5,234.5c-1.9,1.7-3.1,3.4-4,5.8c-1.2,3.1-0.8,6.8,0.5,9.8c1.4,2.2,3.2,4,5.3,5.5c1.2,0.7,2.3,1.3,3.5,2
				c2.4,1.2,4.9,1.9,7.6,2.2c2.1-0.1,4-0.7,5.7-1.8c2.1-0.6,3.2-2.1,3.5-4.5c0.6-1.8,0.8-3.7,0.6-5.6c0-1.8-0.3-3.6-0.9-5.3
				c-0.2-1.9-1.1-3.4-2.6-4.5c-1.2-1.3-2.7-2.3-4.3-3c-1.9-0.4-3.8-0.4-5.6,0c-1.9,0.2-3.7,0.7-5.3,1.6c-2.4,0.9-4.4,2.4-5.9,4.5
				c0.1-0.1,6.4,2.9,6.3,2.9c1.7,0.8,3.3,1.5,5,2.2c0.4,0.2,0.9,0.4,1.4,0.5c-2.6-0.8-3.7-2.3-3-4.5c-2.8,3.4-5.6,6.9-8.3,10.3
				c3.8-4.1,7.6-8.3,11.4-12.4c0.3-0.4,0.7-0.6,1.1-0.7c1-0.4,2-0.2,3.1-0.1c-0.5-0.2-1-0.4-1.5-0.6c-1.9-0.7-3.9-1.4-5.8-2
				c-1.9-0.7-3.9-1.3-5.8-2C128.6,234.8,128.1,234.6,127.5,234.5z"/>
			<path class="st0" d="M126.9,235.1c-1.8,2.2-2.8,4.5-3.1,7.4c-0.2,1.5-0.3,3-0.3,4.6c-0.1,1.9,0.5,3.7,1.7,5.2
				c2.6,4.3,6.9,8.1,11.8,9.6c1.4,0.3,2.8,0.7,4.2,1c2.9-0.3,5.4-1.4,7.6-3.2c2.8-2.8,4-8.3,3.9-12c0-2-0.6-5.7-1.7-7.6
				c-1.2-1.8-2.7-3.1-4.6-4.1c-1.5-0.2-3-0.5-4.6-0.7c-3.1-0.1-6.1,0.2-9.1,1.1c-2.8,0.5-5.2,1.8-7.2,3.9c-0.3,0.2,0.9-0.2,0.7-0.1
				c2.3-0.8,4.7-1.6,7-2.4c-0.2,0-0.3,0-0.5,0.1c3.5-0.6,7-0.5,10.4,0.2c2.2,0.3,4.3,0.9,6.3,1.9c-0.9-1.2-1.9-2.4-2.8-3.5
				c1.2,1.7,2.5,3.4,3.7,5.1c-0.4-0.9-0.8-1.9-1.1-2.8c0.6,1.6,1.2,3.3,1.9,4.9c0-1.1-0.1-2.3-0.1-3.4c-0.5,5.8-1.8,19.1-11.1,18.9
				c-3.8-0.1-7.4-2.8-9.8-5.5c-1.2-1.3-2.2-2.7-2.9-4.4c-1.3-2.7-1.2-5.2,0.5-7.4c0.2-1.2,0.7-2.2,1.4-3.1c0.7-0.8,1.5-1.5,2.5-1.8
				c-0.1,0.1-2.3-1-2.3-1C129.3,236,127.1,235,126.9,235.1z"/>
			<path class="st0" d="M127.3,232.4c-1.8,1.7-2.9,3.4-3.7,5.7c-1,3-0.7,6.3,0.3,9.2c1.3,2.6,2.9,4.9,5.1,6.9
				c1.2,0.9,2.4,1.9,3.6,2.8c2.4,1.6,5.1,2.7,8,3.1c2.1,0.1,3.9-0.4,5.6-1.6c2.1-0.8,3.3-2.3,3.8-4.6c0.9-2,1.3-4.1,1.3-6.3
				c0.3-2.2,0.2-4.3-0.3-6.5c0-2.2-0.9-4-2.5-5.4c-1.1-1.4-2.5-2.5-4.2-3.2c-2.1-0.6-4.3-0.7-6.4-0.3c-2.1,0.1-4.2,0.6-6.2,1.5
				c-2.6,0.8-4.8,2.3-6.6,4.3c0.2,0,0.5,0.1,0.7,0c0.6,0,1.3,0,1.9-0.1c1.3-0.1,2.7-0.1,4-0.2c2.4-0.3,4.8-0.7,7.2-0.5
				c2.6,0.2,4.5,1.1,6.9,2.4c-0.1-0.2-0.1-0.5-0.2-0.7c0.9,3.3,1.5,6.4,0.9,9.8c-0.1,1.5-0.6,2.9-1.2,4.2c-1.1,2.6-2.9,4.4-5.6,5.4
				c1.4,0.3,2.9,0.6,4.3,1c-1.9-0.5-3.9-1-5.8-1.5c0.1,0.1,0.2,0.1,0.3,0.2c-1.8-1.7-3.7-3.4-5.2-5.3c-0.8-1.1-1.6-2.2-2.3-3.3
				c-2.1-2.3-2.4-4.8-1-7.5c0.6-2.8,0.5-4,2.4-5.6c1.2-1,2.4-1.4,3.9-1.8c-0.3-0.1-0.6-0.2-0.9-0.3c-1.1-0.3-2.3-0.6-3.4-0.8
				C131.4,233.3,127.6,232.1,127.3,232.4z"/>
			<path class="st0" d="M128.1,234.3c-4.1,4-5.2,9.7-3.1,15.1c1.4,3.7,5.1,6.6,8.4,8.7c2.4,1.5,5.1,2.5,7.9,3c2.2-0.1,4.1-0.7,5.9-2
				c2.1-0.7,3.3-2.3,3.7-4.7c0.7-1.9,1-3.8,0.9-5.8c0.1-1.9-0.1-3.8-0.7-5.7c-0.3-1.9-1.1-3.5-2.5-4.8c-1.1-1.4-2.4-2.5-4-3.3
				c-2-0.5-4.1-0.6-6.1-0.2c-2,0.1-4,0.6-5.8,1.4c-2.5,0.9-4.6,2.2-6.5,4.1c0,0,2.6,0.2,2,0.2c1.6,0.1,3.2,0.2,4.8,0.3
				c1.8,0,3.6,0,5.4,0c1,0,2,0.2,2.9,0.7c1.1,0.2,1.8,0.9,2.1,2.1c1,0.8,1.3,1.8,1,2.9c-0.3,0.7-0.2,1.2,0.2,1.7
				c0.3,0.3,0.4,0.7,0.4,1.2c0.2,0.8,0,1.6-0.5,2.3c-0.4,0.5-0.8,1-1.2,1.5c-0.6,0.4-1.3,0.7-1.9,1.1c-0.7-0.2-1.4-0.3-2.1-0.5
				c-0.8-0.4-1.6-0.9-2.4-1.3c-0.6-0.3-1.2-0.5-1.8-0.8c-1.1-0.6-1.9-1.5-2.6-2.5c-1.5-2.1-1.7-3.9-1.9-6.5
				c-0.2,0.3-0.4,0.5-0.5,0.8c0.4-0.6,0.9-1.2,1.3-1.7c-0.2,0.2-0.5,0.4-0.7,0.5c0.7-0.5,1.4-0.9,2.1-1.4c0.3-0.7,0.8-1.2,1.4-1.7
				c1.1-0.9,2.2-1.2,3.6-1.5c-0.3-0.2-0.6-0.3-1-0.4c-1.3-0.4-2.5-0.8-3.8-1.2C132.8,235.8,128.4,234,128.1,234.3z"/>
			<path class="st0" d="M125.4,232.7c-2.5,2.4-3.9,5.1-4.3,8.6c-0.3,2.2,0,4.4,0.7,6.6c1.3,2.6,3.1,4.9,5.2,6.8
				c1.6,1.6,3.5,2.9,5.6,3.8c1.8,1.1,3.8,1.8,5.9,2.1c2.3,0.1,5.1-0.9,6.8-2.4c1.3-0.9,2.2-2.3,2.6-4.1c1.3-2.9,2-6,2.1-9.1
				c0-2.5-0.2-6.3-1.5-8.4c-0.7-0.9-1.5-1.7-2.4-2.4c-2.2-1.8-4.7-2.5-7.5-2.2c-3.2,0-6.3,0.6-9.3,1.7c-2.8,0.7-5.1,2.2-6.9,4.4
				c0,0,1.6-0.3,1.3-0.3c1-0.3,2-0.5,3-0.8c3.8-1.3,7.7-2,11.7-2c2.9,0,5.8,0.5,8.6,1.4c-0.3-0.3-0.7-0.7-1-1c0.6,0.7,1.3,1.3,1.9,2
				c-0.5-0.8-0.9-1.6-1.4-2.3c0.7,1.3,1.4,2.6,2.1,3.9c-0.1-0.8-0.2-1.6-0.2-2.3c0.2,5-0.6,9.9-2.1,14.6c-1,3-2.5,5.6-4.6,7.9
				c1.1-0.3,2.1-0.6,3.2-0.9c-2.8,0.3-5.5,0.7-8.3,1c0.5,0.3,0.9,0.7,1.4,1c-3.1-2.4-5.9-4.7-8.3-7.8c-2-2.6-6-8.3-3.7-11.7
				c0.5-0.6,1-1.3,1.6-1.9c0.3-0.5,0.6-1,0.9-1.4c1-1.5,2.6-2.1,4.2-2.6c-0.2-0.1-0.5-0.2-0.8-0.3c-1-0.3-1.9-0.6-2.9-0.8
				C129,233.6,125.7,232.4,125.4,232.7z"/>
			<path class="st0" d="M125.9,234.5c-1.9,1.6-3.2,3.4-4.2,5.7c-1.2,3.1-0.8,6.7,0.5,9.8c1.5,3.7,5.4,6.4,8.7,8.2
				c2.4,1.3,4.9,2,7.6,2.1c2.1-0.1,3.9-0.8,5.6-1.8c2-0.6,3.2-2.1,3.4-4.4c0.6-1.8,0.9-3.6,0.7-5.4c0-3.5-0.8-7-3-9.9
				c-0.9-1.5-2.2-2.7-3.7-3.6c-1.9-0.6-3.9-0.7-5.8-0.3c-2,0.1-3.9,0.5-5.8,1.3c-2.5,0.9-4.6,2.3-6.4,4.3c0,0,3.5,0.5,2.8,0.4
				c2.2,0.3,4.4,0.6,6.5,0.9c1.1,0.1,2.1,0.3,3.2,0.4c0.6-0.2,1.2-0.3,1.8-0.1c1.7,0.2,2.6,1.1,3.8,2.2c0-0.8-0.1-1.6-0.1-2.4
				c0.2,2.2,0.1,4.4-0.3,6.6c0.7,0,1,0.3,1.1,0.9c0.1,1.5-2.2,2.3-3.2,2.2c-1.1-0.2-2-0.6-2.8-1.3c-0.7-0.7-1.5-1-2.4-1
				c-1.1-0.6-1.9-1.5-2.4-2.7c-0.5-1.5-0.6-2.9-0.2-4.5c-2.8,2.4-5.5,4.7-8.3,7.1c3-2.5,6-5,8.9-7.4c-3.3,1.4-6.5,2.8-9.8,4.3
				c3.7-1.5,7.3-3,11-4.5c0.3-0.6,0.6-1.1,1.2-1.4c1-0.8,2-0.9,3.2-1.1c-0.4-0.2-0.8-0.4-1.2-0.5c-1.6-0.6-3.1-1.2-4.7-1.8
				c-1.6-0.6-3.1-1.2-4.7-1.8C126.8,234.7,126.4,234.6,125.9,234.5z"/>
			<path class="st0" d="M125.9,235.8c-3.9,4.3-4.7,10.2-2.7,15.6c1.4,3.9,5.2,6.7,8.6,8.8c2.4,1.4,5.1,2.3,7.9,2.6
				c2.1-0.2,4-0.8,5.7-2.1c2-0.8,3.3-2.4,3.8-4.7c0.9-1.9,1.3-3.9,1.3-6c0.3-3.7-0.1-7.6-2.5-10.5c-0.8-1.2-2-2.2-3.4-2.9
				c-2.3-0.7-4.5-0.9-6.8-0.7c-2.3-0.1-4.6,0.3-6.8,1c-2.9,0.6-5.3,1.9-7.2,4.1c0.1-0.1,1.5-0.4,1.3-0.3c4.8-1.9,9.7-2.5,14.7-1.8
				c2.7,0.4,5.3,1.2,7.7,2.5c-0.9-1.5-1.8-2.9-2.6-4.4c1,1.9,2.1,3.7,3.1,5.6c-0.3-1.3-0.6-2.7-1-4c0.4,1.9,0.8,3.8,1.2,5.6
				c0.2-0.9,0.3-1.8,0.5-2.7c-1,4.6-1.8,9.3-5.2,12.8c-1.4,2.2-3.2,2.8-5.4,1.9c-1.6-0.7-3.2-1.4-4.8-2.1c-1.5-0.9-2.7-2.2-3.6-3.7
				c-1.6-2.3-1.5-4.8,0.2-7.4c0.6-2.1,1.3-3.1,3.3-4c-0.2-0.2-0.5-0.3-0.7-0.4c-0.9-0.4-1.9-0.9-2.9-1.3
				C129.5,237.3,126.1,235.6,125.9,235.8z"/>
			<path class="st0" d="M127.7,233.4c-4,4.1-5.1,9.8-2.9,15.2c1.3,2.3,2.9,4.3,5,6c1.1,0.8,2.3,1.6,3.4,2.4c2.4,1.5,4.9,2.4,7.7,2.9
				c2.1-0.1,4.1-0.7,5.8-1.9c2.1-0.7,3.3-2.2,3.7-4.5c0.7-1.8,1-3.7,0.9-5.6c0.1-1.9-0.1-3.8-0.7-5.6c-0.3-1.9-1.1-3.6-2.4-4.8
				c-1-1.4-2.3-2.5-3.9-3.3c-2-0.5-4-0.6-6-0.2c-2,0.1-3.9,0.5-5.8,1.3c-2.5,0.8-4.6,2.2-6.4,4c0.1-0.1,1.5,0.3,1.7,0.3
				c1.6,0.2,3.3,0.5,4.9,0.7c2.2,0.3,4.3,0.6,6.4,0.7c0.8,0.1,1.6,0.4,2.3,0.8c1,0.3,1.5,1.1,1.7,2.2c0.8,0.9,1,1.8,0.7,2.9
				c-0.4,0.7-0.3,1.1,0.2,1.4c0.3,0.1,0.4,0.4,0.4,0.7c0.2,0.6,0.1,1.1-0.4,1.6c-0.6,0.8-2,1.7-3.1,1.8c-1.6,0.1-3-1.2-4.3-1.9
				c-0.6-0.2-1.1-0.5-1.7-0.7c-1-0.6-1.8-1.4-2.3-2.4c-1.3-2.1-1.4-3.9-1.4-6.3c-0.6,0.7-1.1,1.4-1.7,2c0.8-1,1.7-2,2.5-3
				c-0.7,0.5-1.4,0.9-2.2,1.4c1.2-0.7,2.4-1.5,3.6-2.2c0.3-0.7,0.7-1.2,1.3-1.6c1-0.9,2-1.2,3.4-1.5c-0.3-0.2-0.7-0.3-1.1-0.4
				c-1.4-0.4-2.7-0.8-4.1-1.2C132.8,234.7,128.1,233,127.7,233.4z"/>
			<path class="st0" d="M125.8,235.2c-1.9,1.7-3.1,3.5-3.9,5.8c-1.1,3.2-0.7,6.7,0.5,9.8c1.5,3.7,5.3,6.5,8.7,8.3
				c2.4,1.3,5,2,7.7,2.2c2.1-0.1,4-0.7,5.7-1.9c2.1-0.7,3.2-2.2,3.5-4.6c0.6-1.8,0.9-3.7,0.8-5.6c0-3.6-0.7-7.1-3-10
				c-1-1.5-2.2-2.7-3.8-3.6c-2-0.5-4-0.6-6-0.3c-2,0.1-4,0.5-5.9,1.4c-2.6,0.9-4.8,2.3-6.7,4.3c0.3,0.1,0.6,0.1,1,0.1
				c0.9,0.1,1.7,0.1,2.6,0.2c1.8,0.1,3.7,0.3,5.5,0.3c0.9,0,1.7,0,2.6,0c0.8-0.3,1.6-0.5,2.4-0.4c1.9,0,3.2,0.8,4.8,1.9
				c0-0.3-0.1-0.5-0.1-0.8c0.2,1.7,0.2,3.4,0,5c0.7,0.5,1,1.1,1,2c-0.2,1.7-1.7,3.5-3.4,3.7c-1.1-0.1-2.1-0.5-3-1.2
				c-0.8-0.6-1.6-1-2.6-1.1c-1.2-0.6-2.1-1.6-2.6-2.8c-0.7-1.5-0.8-3-0.5-4.6c-0.3,0.3-0.6,0.6-0.9,0.8c0.5-0.4,0.9-0.8,1.4-1.3
				c-3,1.3-6,2.7-8.9,4c3.3-1.4,6.7-2.9,10-4.3c0.1-0.6,0.5-1.1,0.9-1.5c0.8-0.9,1.7-1.1,2.9-1.3c-0.3-0.2-0.7-0.4-1.1-0.5
				c-1.4-0.6-2.8-1.2-4.1-1.8C131,237.3,126.1,234.9,125.8,235.2z"/>
			<path class="st0" d="M125.3,233.5c-4.4,4-5.5,9.7-3.4,15.2c1.5,4,5.2,7.1,8.7,9.3c2.4,1.5,5,2.5,7.8,2.9c2,0.1,3.7-0.4,5.2-1.5
				c2-0.8,3.2-2.4,3.8-4.7c1-2.1,1.6-4.3,1.7-6.6c0.4-2.2,0.4-4.4,0-6.6c0-2.1-0.8-3.9-2.3-5.2c-1-1.3-2.3-2.4-3.8-3
				c-2.3-0.6-4.6-0.7-6.9-0.4c-2.3,0.1-4.6,0.6-6.8,1.4c-2.8,0.7-5.1,2.2-6.9,4.5c0.1-0.1,2.3-0.3,1.9-0.2c1.5-0.2,2.9-0.4,4.4-0.6
				c2.9-0.5,5.7-0.9,8.7-0.9c1.3-0.1,2.5,0.1,3.8,0.4c2,0.2,3.9,0.8,5.8,1.7c-1.2-1.9-2.5-3.8-3.7-5.7c1.3,2.6,2.6,5.3,3.9,7.9
				c0-0.1,0-0.3,0-0.4c-0.6,3.1-1.2,6.2-2.3,9.1c-0.3,1.3-0.9,2.5-1.6,3.7c-0.9,2-2.2,3.7-3.9,5.1c1.7-0.1,3.4-0.3,5.2-0.4
				c-2.2,0.1-4.4,0.2-6.6,0.3c1.3,0.4,2.6,0.8,3.9,1.3c-2.6-1.4-5.2-2.9-7.8-4.3c-0.7-0.9-1.5-1.8-2.2-2.7c-0.7-1.1-1.4-2.2-2-3.2
				c-1.8-2.2-2-4.4-0.8-6.8c0.5-2,0.6-3.5,2.1-4.9c1-1,2-1.3,3.3-1.7c-0.3-0.2-0.6-0.3-0.9-0.4c-1.2-0.4-2.3-0.8-3.5-1.2
				C129.6,234.9,125.6,233.2,125.3,233.5z"/>
			<path class="st0" d="M126.4,235.7c-1.3,1.4-2.1,2.7-2.7,4.5c-0.7,2.1-1.2,5.1-1,7.3c0.2,2.7,1.2,4.9,2.8,7.1
				c2.3,3.1,5.4,5.4,8.8,7c3.3,1.6,6.7,2.7,10.3,1.1c1.2-0.7,2.4-1.4,3.6-2.1c0.8-1.3,1.6-2.5,2.5-3.8c1.6-3.3,2-7,1.7-10.6
				c-0.1-0.9,0-2.5-0.2-3.5c-0.2-0.7-0.5-1.5-0.9-2.1c-0.6-1.1-2.7-4.2-2.9-4.3c-0.1-0.1-0.2-0.1-0.2-0.2c-0.7-0.4-1.5-0.8-2.3-1
				c-1.7-0.2-3.4-0.3-5-0.5c-1.7,0.1-3.4,0.3-5.1,0.4c-8.8,1-6.7,0.3-12.3,4.9c-0.2,0.1-0.1,1-0.1,1c2.3-2.7,5.2-4.3,8.8-4.9
				c-0.4,0.1-0.8,0.3-1.3,0.4c5.9-1.4,11.6-1.4,17.4,0c-0.8-0.4-1.6-0.8-2.5-1.1c1.4,1.4,2.9,2.7,4.3,4.1c-0.5-0.6-1-1.2-1.5-1.7
				c1.2,1.8,2.3,3.7,3.5,5.5c-0.3-0.8-0.7-1.6-1-2.4c0.8,5.7-0.1,10.8-2.9,15.3c-0.9,2-2.2,3.8-3.9,5.3c1.1-0.2,2.3-0.4,3.4-0.5
				c-4.7-0.6-9.5-1.3-14.2-1.9c-0.9-0.7-1.9-1.5-2.8-2.2c-0.8-0.9-1.7-1.9-2.5-2.8c-2-2-2.7-4.5-2.1-7.3c0-2.6-0.4-4.3,0.9-6.5
				c0.7-1.3,1.5-1.9,2.8-2.6c0,0-1.7-0.8-1.7-0.8C128.1,236.4,126.6,235.6,126.4,235.7z"/>
			<path class="st0" d="M126.2,232.3c-1.8,1.7-2.9,3.4-3.7,5.8c-1,3-0.8,6.4,0.2,9.3c1.3,2.6,3,4.9,5.2,6.8c1.2,0.9,2.4,1.9,3.6,2.8
				c2.4,1.6,5.1,2.7,7.9,3.2c2,0.1,3.7-0.4,5.3-1.6c2-0.9,3.4-2.5,4-4.8c1.1-2.1,1.6-4.4,1.7-6.7c0.4-2.2,0.4-4.4-0.1-6.7
				c-0.1-2.2-0.9-3.9-2.5-5.2c-1.1-1.4-2.4-2.4-4-3.1c-2.3-0.5-4.5-0.6-6.8-0.2c-2.3,0.1-4.5,0.7-6.6,1.6c-2.7,0.8-5,2.3-6.8,4.4
				c0.2-0.2,1.9,0.1,2.3,0.1c1.1,0,2.4,0.2,3.5,0c3.1-0.6,6.2-1.3,9.4-1.3c1.3-0.1,2.5,0,3.8,0.2c2,0.2,3.9,0.6,5.8,1.5
				c-1.3-1.9-2.7-3.7-4-5.6c1.4,2.1,2.9,4.1,4.3,6.2c-0.6-1.5-1.2-3-1.7-4.5c0.6,1.9,1.2,3.7,1.8,5.6c0.1-1.1,0.2-2.1,0.4-3.2
				c-0.7,4.2-1.2,8.4-2.5,12.5c-0.3,1.4-0.8,2.6-1.5,3.8c-0.8,2-2.1,3.9-3.7,5.4c0.4-0.1,0.9-0.2,1.3-0.3c-1.1,0.2-2.1,0.4-3.2,0.6
				c0.9,0.1,1.8,0.3,2.8,0.4c-1.6-0.3-3.3-0.6-4.9-0.9c0.4,0.3,0.7,0.6,1.1,0.9c-2.8-2.4-5.4-4.7-7.6-7.7c-1.9-2.6-5.6-8.2-3.3-11.6
				c0.5-0.6,1.1-1.2,1.6-1.8c0.3-0.5,0.6-0.9,0.9-1.4c1.1-1.4,2.7-2,4.3-2.5c-0.3-0.1-0.5-0.2-0.8-0.3c-1.1-0.3-2.1-0.5-3.2-0.8
				C130.2,233.2,126.6,232,126.2,232.3z"/>
			<path class="st0" d="M127.3,235.2c-1.8,1.8-3,3.6-3.8,6c-1.1,3.1-0.7,6.8,0.6,9.9c1.3,2.3,3.1,4.2,5.2,5.7
				c1.2,0.7,2.3,1.4,3.5,2.1c2.5,1.2,5,1.9,7.8,2.1c2.1-0.1,3.9-0.7,5.6-1.9c2-0.7,3.2-2.3,3.5-4.6c0.7-1.8,0.9-3.7,0.7-5.5
				c0.1-1.8-0.2-3.5-0.9-5.2c-0.3-1.8-1.2-3.3-2.6-4.3c-1.2-1.3-2.6-2.2-4.2-2.9c-1.9-0.5-3.7-0.6-5.6-0.2c-1.9,0.1-3.6,0.5-5.4,1.3
				c-2.4,0.9-4.4,2.3-6.1,4.3c0.1,0,0.2,0.1,0.3,0.1c3.7,1.2,7.4,2.5,11.1,3.7c0.1-0.4,0.4-0.7,0.8-0.7c0.7-0.2,1.3,0.3,1.7,0.9
				c0.5,0.3,0.6,0.8,0.3,1.4c-0.1,0.4-0.3,0.9-0.4,1.3c0.4,0.4,2.2-0.9,2.3,0.5c0.1,0.6-0.5,0.8-1.1,0.8c-0.7,0-1.4,0-2.1,0
				c-0.6-0.3-1.2-0.6-1.8-0.9c-0.4,0-0.8,0-1.2,0c-0.4-0.2-0.8-0.4-1.2-0.6c-1.5-1.2-1-3.5-0.7-5c-0.1,0.1-0.2,0.2-0.2,0.2
				c0.2-0.2,0.4-0.4,0.7-0.6c-2.7,1.1-5.4,2.3-8.1,3.4c3-1.2,6.1-2.5,9.1-3.7c0.2-0.6,0.5-1.1,1-1.5c0.9-0.8,1.8-1.1,3-1.3
				c-0.4-0.2-0.8-0.4-1.2-0.5c-1.6-0.6-3.1-1.2-4.7-1.8c-1.6-0.6-3.1-1.2-4.7-1.8C128.2,235.4,127.8,235.3,127.3,235.2z"/>
			<path class="st0" d="M126.3,233.8c-1.9,1.7-3.1,3.4-4,5.8c-1.1,3.1-0.8,6.9,0.5,9.9c1.4,2.3,3.2,4.2,5.4,5.7
				c1.2,0.7,2.3,1.4,3.5,2.1c2.4,1.2,4.9,1.9,7.5,2.2c2.1-0.1,3.9-0.8,5.6-1.9c2-0.7,3.2-2.2,3.4-4.5c0.6-1.8,0.9-3.7,0.7-5.6
				c0.1-1.9-0.2-3.7-0.8-5.4c-0.2-2-1.1-3.5-2.6-4.6c-1.2-1.3-2.6-2.3-4.3-3c-1.9-0.5-3.8-0.6-5.6-0.2c-1.9,0.1-3.7,0.6-5.5,1.5
				c-2.5,0.9-4.5,2.4-6.1,4.5c0.4,0.2,0.8,0.4,1.2,0.5c1.6,0.6,3.2,1.1,4.7,1.6c1.6,0.5,3.2,1.1,4.8,1.6c0.4,0.2,0.8,0.3,1.3,0.4
				c0.4,0.4,0.8,0.5,1.2,0.3c0.3-0.2,0.6-0.1,0.9,0.3c-0.2-3.6-0.5-7.1-0.7-10.7c-4,9-3.4,13.2,1.8,12.4c0.3,0.1,0.7,0.3,1,0.4
				c1.3,1.3-1.1,1.3-1.8,1.3c-0.9,0-1.6-0.4-2.3-1.2c-0.7,0.1-1.3-0.1-1.8-0.6c-2.1-1.6-1.6-4-1.1-6.2c-3.1,2.7-6.3,5.4-9.4,8.2
				c3.4-2.9,6.9-5.7,10.3-8.6c-3.7,1.8-7.4,3.6-11.1,5.4c4.2-1.9,8.4-3.8,12.6-5.7c0.3-0.4,0.7-0.7,1.2-0.9c1.1-0.5,2.1-0.4,3.3-0.3
				c-0.5-0.2-0.9-0.4-1.4-0.5c-1.8-0.6-3.7-1.2-5.5-1.8c-1.8-0.6-3.7-1.2-5.5-1.8C127.3,234,126.8,233.9,126.3,233.8z"/>
		</g>
	</g>
</g>
<g>
	<path d="M166.9,386.4c18.4-0.5,36.8-0.6,55.3-0.6c9.2,0.1,18.4,0.2,27.6,0.2c9.2,0,18.4-0.1,27.6-0.2c18.4-0.2,36.8-0.4,55.3-0.4
		c18.4,0,36.8,0.1,55.3,0.5l0,0.1c-18.4,0.4-36.8,0.6-55.3,0.7c-18.4,0.1-36.8,0-55.3-0.2c-9.2-0.1-18.4-0.1-27.6-0.1
		c-9.2,0-18.4,0.3-27.6,0.4c-18.4,0.1-36.8,0.1-55.3-0.3L166.9,386.4z"/>
</g>
<g>
	<path d="M162.4,355.7c19-0.5,38.1-0.6,57.1-0.6c9.5,0.1,19,0.2,28.5,0.2c9.5,0,19-0.1,28.5-0.2c19-0.2,38.1-0.5,57.1-0.4
		c19,0,38.1,0.1,57.1,0.5l0,0.1c-19,0.4-38.1,0.7-57.1,0.7c-19,0.1-38.1,0-57.1-0.2c-9.5-0.1-19-0.1-28.5-0.1
		c-9.5,0-19,0.3-28.5,0.4c-19,0.1-38.1,0.1-57.1-0.3L162.4,355.7z"/>
</g>
<g>
	<path d="M156.5,324.9c20-0.5,40-0.6,60-0.6c10,0.1,20,0.2,30,0.2c10,0,20-0.1,30-0.2c20-0.2,40-0.5,60-0.4c20,0,40,0.1,60,0.4
		l0,0.1c-20,0.4-40,0.7-60,0.7c-20,0.1-40,0-60-0.2c-10-0.1-20-0.1-30-0.1c-10,0-20,0.3-30,0.4c-20,0.1-40,0.1-60-0.3L156.5,324.9z"
		/>
</g>
<line class="st1" x1="154.9" y1="316.1" x2="396.9" y2="315.6"/>
<g>
	<path d="M149.8,245.3c1.3,15.7,2.4,31.4,4,47c0.8,7.8,1.7,15.6,2.6,23.4l2.6,23.4l2.6,23.4c0.9,7.8,1.8,15.6,3.2,23.4
		c0.4,1.9,0.7,3.9,1.6,5.6c0.8,1.8,1.7,3.5,2.7,5.2c1.9,3.4,4,6.7,6.3,10c4.5,6.5,9.4,12.6,14.7,18.4c1.3,1.5,2.7,2.9,4,4.3
		c1.3,1.4,3,2.4,4.7,3.3c3.5,1.7,7.3,2.9,11.1,3.6c1.9,0.4,3.8,0.7,5.8,0.6l5.9,0l11.8,0c15.7,0,31.5,0.1,47.2,0.2
		c15.7,0.1,31.5,0.3,47.2,0.4c15.7,0.2,31.5,0.3,47.2,0.6l0,0.1c-15.7,0.1-31.5,0.1-47.2,0.1c-15.7,0-31.5,0-47.2-0.1
		c-15.7,0-31.5-0.2-47.2-0.3l-11.8-0.1l-5.9-0.1c-2,0-4-0.3-5.9-0.7c-3.9-0.8-7.7-2-11.2-3.9c-1.8-0.9-3.5-2-4.9-3.5
		c-1.3-1.4-2.7-2.9-4-4.4c-5.2-5.9-10.1-12.1-14.6-18.6c-2.2-3.3-4.3-6.6-6.2-10.1c-0.9-1.7-1.9-3.5-2.7-5.3
		c-0.9-1.8-1.3-3.8-1.7-5.7c-0.7-3.9-1.3-7.8-1.8-11.7c-0.6-3.9-1.1-7.8-1.6-11.7c-1-7.8-2-15.6-2.9-23.4
		c-1.8-15.6-3.6-31.2-5.1-46.9c-1.5-15.7-2.3-31.4-3.2-47.1L149.8,245.3z"/>
</g>
<g>
	<path d="M195.9,414.9c-1.7-11.4-3.2-22.8-4.4-34.2c-0.6-5.7-1-11.5-1.7-17.2c-0.6-5.7-1.3-11.4-2.1-17.1
		c-1.5-11.4-2.9-22.8-4.2-34.3c-1.2-11.4-2.4-22.9-3.3-34.4l0.1,0c1.7,11.4,3.1,22.8,4.5,34.2c1.3,11.4,2.5,22.9,3.6,34.3
		c0.6,5.7,1.1,11.5,1.8,17.2c0.7,5.7,1.5,11.4,2.3,17.1c1.4,11.4,2.6,22.9,3.5,34.4L195.9,414.9z"/>
</g>
<g>
	<path d="M357,415.9c0.9-11.5,2.1-22.9,3.5-34.4c0.7-5.7,1.6-11.4,2.3-17.1c0.7-5.7,1.3-11.4,1.8-17.2c1.1-11.5,2.3-22.9,3.6-34.3
		c1.4-11.4,2.8-22.8,4.5-34.2l0.1,0c-0.9,11.5-2.1,22.9-3.3,34.4c-1.3,11.4-2.7,22.9-4.2,34.3c-0.8,5.7-1.5,11.4-2.1,17.1
		c-0.6,5.7-1.1,11.5-1.7,17.2c-1.2,11.4-2.6,22.9-4.4,34.2L357,415.9z"/>
</g>
<g>
	<path d="M263.5,414.2c-0.5-11.3-0.6-22.6-0.6-33.9c0.1-5.6,0.2-11.3,0.2-16.9c0-5.6-0.1-11.3-0.2-16.9c-0.3-11.3-0.4-22.6-0.5-33.9
		c0-11.3,0.1-22.6,0.5-33.9l0.1,0c0.4,11.3,0.6,22.6,0.8,33.9c0,11.3,0,22.6-0.2,33.9c-0.1,5.6-0.1,11.3-0.1,16.9
		c0,5.6,0.3,11.3,0.4,16.9c0.1,11.3,0.1,22.6-0.3,33.9L263.5,414.2z"/>
</g>
<g>
	<path d="M303.3,415.7c-0.3-11.4-0.4-22.8-0.2-34.2c0.1-5.7,0.4-11.4,0.4-17.1c0.1-5.7,0.1-11.4,0-17.1c-0.2-11.4-0.2-22.8-0.1-34.2
		c0.1-11.4,0.4-22.8,0.9-34.2l0.1,0c0.3,11.4,0.4,22.8,0.4,34.2c-0.1,11.4-0.3,22.8-0.6,34.2c-0.1,5.7-0.3,11.4-0.2,17.1
		c0,5.7,0.1,11.4,0.2,17.1c0,11.4-0.2,22.8-0.7,34.2L303.3,415.7z"/>
</g>
<g>
	<path d="M229.6,416.1c-1.1-11.3-1.9-22.6-2.5-33.9c-0.3-5.7-0.4-11.3-0.7-17c-0.3-5.7-0.7-11.3-1.2-17c-0.9-11.3-1.7-22.6-2.4-33.9
		c-0.6-11.3-1.2-22.6-1.5-34l0.1,0c1.1,11.3,1.9,22.6,2.7,33.9c0.7,11.3,1.3,22.6,1.8,34c0.2,5.7,0.5,11.3,0.9,17
		c0.4,5.7,0.9,11.3,1.3,17c0.8,11.3,1.4,22.6,1.6,34L229.6,416.1z"/>
</g>
<g>
	<path d="M330.5,415.2c0.3-11.3,0.8-22.7,1.6-34c0.4-5.7,1-11.3,1.3-17c0.4-5.7,0.7-11.3,0.9-17c0.5-11.3,1.1-22.7,1.8-34
		c0.8-11.3,1.6-22.6,2.7-33.9l0.1,0c-0.3,11.3-0.8,22.7-1.5,34c-0.7,11.3-1.5,22.6-2.4,33.9c-0.4,5.7-0.9,11.3-1.2,17
		c-0.3,5.7-0.5,11.3-0.7,17c-0.6,11.3-1.4,22.6-2.5,33.9L330.5,415.2z"/>
</g>
<g>
	<path d="M400.6,277.7c-20.7,0.6-41.3,0.8-62,0.9c-10.3,0-20.7-0.1-31-0.1c-10.3,0-20.7,0.2-31,0.3c-20.7,0.3-41.3,0.7-62,0.7
		c-20.7,0.1-41.3,0.1-62-0.2l0-0.1c20.7-0.5,41.3-0.8,62-1c20.7-0.2,41.3-0.2,62-0.1c10.3,0,20.7,0,31-0.1c10.3-0.1,20.7-0.4,31-0.5
		c20.7-0.2,41.3-0.3,62,0L400.6,277.7z"/>
</g>
<g>
	<path d="M385,413.9c-16.9,0.5-33.9,0.8-50.8,0.8c-8.5,0-16.9-0.2-25.4-0.1c-8.5,0-16.9,0.1-25.4,0.3c-16.9,0.3-33.9,0.6-50.8,0.7
		c-16.9,0.1-33.9,0-50.8-0.2l0-0.1c16.9-0.5,33.9-0.8,50.8-0.9c16.9-0.2,33.9-0.1,50.8,0c8.5,0,16.9,0.1,25.4,0
		c8.5-0.1,16.9-0.3,25.4-0.5c16.9-0.2,33.9-0.2,50.8,0.1L385,413.9z"/>
</g>
<g>
	<path d="M401.6,276.7c-1.2,11.5-2.7,23-4.4,34.5c-0.9,5.7-1.9,11.4-2.7,17.2c-0.9,5.7-1.6,11.5-2.3,17.2c-1.4,11.5-2.9,23-4.6,34.5
		c-1.7,11.5-3.5,22.9-5.5,34.3l-0.1,0c1.2-11.5,2.7-23,4.3-34.5c1.6-11.5,3.4-22.9,5.2-34.4c0.9-5.7,1.8-11.4,2.6-17.2
		c0.8-5.7,1.4-11.5,2.1-17.2c1.5-11.5,3.3-22.9,5.3-34.3L401.6,276.7z"/>
</g>
<g>
	<g>
		<path d="M334.1,454.6c0.2,1.1,0.7,2.1,1.3,3c0.6,0.9,1.5,1.6,2.4,2.1c1.9,1.1,4,1.6,6.1,1.9c1.1,0.1,2.2,0.2,3.2,0.2
			c1.1,0,2.1-0.2,3.1-0.5c2.1-0.5,4-1.5,5.8-2.8c1.8-1.3,3.2-2.9,4.3-4.8c0.5-1,0.9-2,1.2-3c0.3-1,0.4-2.1,0.4-3.2
			c-0.1-2.1-0.9-4.2-2.3-5.7c-0.7-0.8-1.6-1.4-2.5-1.8c-1-0.4-2-0.7-3-0.8l0,0l-0.1,0c-1.2-0.3-2.4-0.5-3.6-0.5
			c-1.2,0-2.4,0.1-3.6,0.3c-2.4,0.5-4.7,1.4-6.7,2.8c-2,1.4-3.8,3.2-4.9,5.4C334.1,449.5,333.6,452.1,334.1,454.6z M333.9,454.6
			c-0.4-2.5-0.2-5.1,0.7-7.6c0.9-2.4,2.6-4.6,4.7-6.2c2.1-1.6,4.6-2.7,7.1-3.2c2.6-0.5,5.3-0.4,7.8,0.4l-0.1,0
			c1.1,0.2,2.3,0.5,3.3,1c1,0.5,2,1.3,2.7,2.1c1.5,1.8,2.2,4.1,2.2,6.4c-0.1,2.3-0.7,4.5-1.8,6.4c-1.1,1.9-2.5,3.7-4.2,5.1
			c-1.7,1.4-3.7,2.6-5.9,3.2c-1.1,0.4-2.2,0.5-3.4,0.5c-1.2,0-2.3-0.1-3.4-0.3c-2.2-0.4-4.4-1.2-6.2-2.5
			C335.7,458.7,334.4,456.8,333.9,454.6z"/>
	</g>
</g>
<g>
	<g>
		<path d="M218.2,454.6c0.2,1.1,0.7,2.1,1.3,3c0.6,0.9,1.5,1.6,2.4,2.1c1.9,1.1,4,1.6,6.1,1.9c1.1,0.1,2.2,0.2,3.2,0.2
			c1.1,0,2.1-0.2,3.1-0.5c2.1-0.5,4-1.5,5.8-2.8c1.8-1.3,3.2-2.9,4.3-4.8c0.5-1,0.9-2,1.2-3c0.3-1,0.4-2.1,0.4-3.2
			c-0.1-2.1-0.9-4.2-2.3-5.7c-0.7-0.8-1.6-1.4-2.5-1.8c-1-0.4-2-0.7-3-0.8l0,0l-0.1,0c-1.2-0.3-2.4-0.5-3.6-0.5
			c-1.2,0-2.4,0.1-3.6,0.3c-2.4,0.5-4.7,1.4-6.7,2.8c-2,1.4-3.8,3.2-4.9,5.4C218.2,449.5,217.7,452.1,218.2,454.6z M218.1,454.6
			c-0.4-2.5-0.2-5.1,0.7-7.6c0.9-2.4,2.6-4.6,4.7-6.2c2.1-1.6,4.6-2.7,7.1-3.2c2.6-0.5,5.3-0.4,7.8,0.4l-0.1,0
			c1.1,0.2,2.3,0.5,3.3,1c1,0.5,2,1.3,2.7,2.1c1.5,1.8,2.2,4.1,2.2,6.4c-0.1,2.3-0.7,4.5-1.8,6.4c-1.1,1.9-2.5,3.7-4.2,5.1
			c-1.7,1.4-3.7,2.6-5.9,3.2c-1.1,0.4-2.2,0.5-3.4,0.5c-1.2,0-2.3-0.1-3.4-0.3c-2.2-0.4-4.4-1.2-6.2-2.5
			C219.8,458.7,218.5,456.8,218.1,454.6z"/>
	</g>
</g>
<g>
	<g>
		<path d="M127.9,247.5c0.3,0.8,0.7,1.7,1.2,2.4c0.5,0.7,1.2,1.3,1.9,1.9c1.4,1.1,3.1,1.8,4.8,2.3c1.7,0.5,3.4,0.9,5.1,0.8
			c1.7-0.1,3.4-0.7,4.9-1.7c0.7-0.5,1.4-1.1,1.9-1.8c0.5-0.7,1-1.5,1.3-2.3c0.6-1.7,0.7-3.5,0.3-5.2c-0.9-3.4-3.7-6.2-7-6.9l0,0l0,0
			c-1.7-0.7-3.6-1-5.5-1c-0.9,0-1.9,0.2-2.7,0.5c-0.9,0.3-1.7,0.7-2.5,1.1c-1.6,1-2.8,2.5-3.4,4.3
			C127.4,243.6,127.4,245.6,127.9,247.5z M127.8,247.5c-0.5-1.9-0.7-3.9-0.2-5.8c0.4-1.9,1.6-3.8,3.3-4.9c1.7-1.2,3.7-1.8,5.7-1.9
			c2-0.1,4,0.3,5.9,1.1l-0.1,0c1.8,0.5,3.5,1.4,4.8,2.8c1.3,1.4,2.1,3.1,2.5,4.9c0.7,3.6-0.8,7.5-3.7,9.8c-1.4,1.2-3.2,1.9-5.1,2.1
			c-0.9,0.1-1.9,0-2.8-0.1c-0.9-0.2-1.8-0.4-2.6-0.7c-1.7-0.6-3.4-1.5-4.7-2.7C129.4,250.8,128.4,249.2,127.8,247.5z"/>
	</g>
</g>
</svg>
