<svg xmlns="http://www.w3.org/2000/svg" viewBox="0 0 98.26 89.98"><defs><style>.cls-1{fill:#7d8558;}.cls-2{fill:#dae2b9;}.cls-3{fill:#aaaf89;}</style></defs><g id="Layer_2" data-name="Layer 2"><g id="Layer_1-2" data-name="Layer 1"><path class="cls-1" d="M77.16,62.74c-10.85,3.85-19.75,0-36.83-7.36C35,53.09,31,50.81,30.6,47.46s3-6.31,7-9.3c14.16-10.5,22.16-16.43,34.14-15.25,9.32.91,25,6.51,26.41,16.69C99.54,49.58,86.55,59.41,77.16,62.74Z"/><path class="cls-2" d="M36.09,89.86c-11.46-1-17.93-8.23-30.35-22.1C1.88,63.45-.82,59.67.23,56.45s5.34-4.54,10.25-5.6c17.24-3.71,27-5.81,37.36.26,8.08,4.73,20,16.4,17,26.31C61.89,87.14,46,90.72,36.09,89.86Z"/><path class="cls-3" d="M66.32,35c-6.56,9.46-16,11.53-34.2,15.52-5.65,1.25-10.25,1.74-12.52-.75s-1.27-6.86.26-11.64c5.37-16.79,8.4-26.27,18.82-32.31,8.1-4.71,24.1-9.31,31.18-1.87S72,26.79,66.32,35Z"/></g></g></svg>