<svg xmlns="http://www.w3.org/2000/svg" viewBox="0 0 451.73 471.19"><defs><style>.cls-1{fill:#7d8558;}.cls-2{fill:#dae2b9;}.cls-3{fill:#aaaf89;}</style></defs><g id="Layer_2" data-name="Layer 2"><g id="Layer_1-2" data-name="Layer 1"><path class="cls-1" d="M364,44.17c-11.48-.81-19,5.26-33.53,16.93-4.51,3.62-7.78,6.9-7.26,10.23s4.55,5.29,9.24,7.09c16.45,6.34,25.73,9.91,37,5.58,8.74-3.37,22.36-13,21-23.14C389.11,50.88,374,44.87,364,44.17Z"/><path class="cls-2" d="M317.21,29c-10.78,4-15.08,12.72-23.35,29.4-2.57,5.19-4.17,9.55-2.29,12.38s6.36,3,11.37,2.65c17.61-1,27.55-1.6,35.94-10.23,6.52-6.71,14.86-21.13,9.34-29.88C342.8,24.74,326.53,25.52,317.21,29Z"/><path class="cls-3" d="M361,73.83C352.15,66.47,342.47,67,323.9,68c-5.78.31-10.35,1.06-11.87,4.07s.61,7,3.36,11.15c9.66,14.75,15.11,23.07,26.76,26.11,9.07,2.37,25.72,2.54,30.55-6.53C377.44,93.91,368.66,80.2,361,73.83Z"/><path class="cls-1" d="M306.08,93.61c-10.85,3.85-19.75,0-36.83-7.36-5.31-2.29-9.34-4.57-9.73-7.92s3-6.31,7-9.3c14.16-10.5,22.15-16.43,34.14-15.25,9.32.91,25,6.51,26.41,16.69C328.45,80.45,315.47,90.28,306.08,93.61Z"/><path class="cls-2" d="M265,120.73c-11.46-1-17.93-8.22-30.35-22.1-3.86-4.31-6.57-8.08-5.51-11.31s5.34-4.54,10.25-5.6c17.24-3.71,27-5.81,37.36.27,8.08,4.72,20,16.39,17,26.3C290.81,118,274.92,121.6,265,120.73Z"/><path class="cls-3" d="M295.24,65.84c-6.56,9.46-16,11.54-34.2,15.53-5.65,1.24-10.26,1.74-12.52-.76s-1.27-6.86.26-11.64c5.37-16.79,8.4-26.27,18.81-32.31,8.11-4.7,24.11-9.31,31.19-1.87S300.92,57.66,295.24,65.84Z"/><path class="cls-1" d="M251.35,17.63c-11.49-.81-19,5.26-33.54,16.93-4.5,3.62-7.78,6.9-7.25,10.23s4.55,5.29,9.23,7.09c16.45,6.34,25.74,9.92,37,5.58,8.75-3.37,22.37-13,21-23.13C276.42,24.34,261.28,18.33,251.35,17.63Z"/><path class="cls-2" d="M204.52,2.46c-10.77,4-15.08,12.72-23.34,29.4-2.57,5.19-4.17,9.55-2.29,12.38s6.35,2.95,11.37,2.65c17.6-1,27.54-1.6,35.93-10.23,6.53-6.71,14.87-21.13,9.34-29.88C230.12-1.8,213.84-1,204.52,2.46Z"/><path class="cls-3" d="M248.32,47.29c-8.86-7.36-18.53-6.84-37.11-5.83-5.78.31-10.35,1.06-11.87,4.07s.61,6.95,3.36,11.15c9.66,14.75,15.11,23.07,26.76,26.11,9.07,2.37,25.72,2.54,30.56-6.53C264.76,67.37,256,53.66,248.32,47.29Z"/><path class="cls-1" d="M253.76,79.88c-11.49-.81-19,5.26-33.54,16.92-4.51,3.63-7.78,6.9-7.25,10.24s4.55,5.28,9.23,7.09c16.45,6.33,25.74,9.91,37,5.58,8.75-3.37,22.36-13,21-23.14C278.83,86.58,263.69,80.58,253.76,79.88Z"/><path class="cls-2" d="M206.93,64.71c-10.77,4-15.08,12.71-23.35,29.4-2.57,5.19-4.16,9.54-2.29,12.37s6.36,3,11.38,2.66c17.6-1,27.54-1.61,35.93-10.23,6.52-6.71,14.86-21.13,9.34-29.88C232.53,60.44,216.25,61.23,206.93,64.71Z"/><path class="cls-3" d="M250.73,109.53c-8.86-7.36-18.53-6.83-37.11-5.83-5.78.31-10.35,1.06-11.87,4.08s.61,6.94,3.36,11.14c9.66,14.75,15.11,23.08,26.76,26.12,9.07,2.36,25.72,2.53,30.55-6.53C267.17,129.61,258.38,115.9,250.73,109.53Z"/><path class="cls-1" d="M198.28,43c-11.48-.81-19,5.27-33.53,16.93-4.51,3.63-7.78,6.9-7.26,10.23s4.55,5.29,9.24,7.09c16.45,6.34,25.74,9.92,37,5.59,8.74-3.38,22.36-13,21-23.14C223.36,49.72,208.22,43.71,198.28,43Z"/><path class="cls-2" d="M151.46,27.85c-10.78,4-15.08,12.71-23.35,29.39-2.57,5.19-4.17,9.55-2.29,12.38s6.36,2.95,11.37,2.66c17.61-1,27.55-1.61,35.94-10.23,6.52-6.72,14.86-21.14,9.34-29.89C177.05,23.58,160.78,24.37,151.46,27.85Z"/><path class="cls-3" d="M195.25,72.67c-8.85-7.36-18.53-6.84-37.1-5.83-5.78.31-10.35,1.06-11.87,4.07s.61,7,3.36,11.15c9.66,14.75,15.11,23.07,26.76,26.11,9.07,2.37,25.72,2.54,30.55-6.53C211.7,92.75,202.91,79,195.25,72.67Z"/><path class="cls-1" d="M163.13,111c-10.86,3.85-19.75,0-36.84-7.36-5.31-2.29-9.34-4.57-9.72-7.92s3-6.31,7-9.3C137.73,76,145.73,70,157.71,71.2c9.33.91,25,6.51,26.41,16.69C185.5,97.87,172.51,107.7,163.13,111Z"/><path class="cls-2" d="M122.05,138.15c-11.46-1-17.92-8.23-30.35-22.1-3.86-4.31-6.56-8.08-5.51-11.31s5.34-4.54,10.25-5.6c17.24-3.71,27-5.81,37.36.27,8.08,4.72,20,16.39,17,26.3C147.86,135.43,132,139,122.05,138.15Z"/><path class="cls-3" d="M152.29,83.26c-6.57,9.46-16,11.53-34.21,15.53-5.65,1.24-10.25,1.74-12.52-.76s-1.27-6.86.26-11.64c5.37-16.79,8.4-26.27,18.82-32.31,8.1-4.7,24.11-9.31,31.19-1.87S158,75.08,152.29,83.26Z"/><path class="cls-1" d="M110.73,44.83c-11.49-.81-19,5.26-33.53,16.92-4.51,3.63-7.79,6.9-7.26,10.24s4.55,5.28,9.24,7.09c16.44,6.33,25.73,9.91,37,5.58,8.74-3.37,22.36-13,21-23.14C135.8,51.53,120.66,45.53,110.73,44.83Z"/><path class="cls-2" d="M63.91,29.66c-10.78,4-15.09,12.71-23.35,29.4C38,64.25,36.39,68.6,38.27,71.43s6.35,2.95,11.37,2.66c17.61-1,27.55-1.61,35.93-10.23C92.1,57.15,100.44,42.73,94.92,34,89.5,25.39,73.22,26.18,63.91,29.66Z"/><path class="cls-3" d="M107.7,74.48c-8.86-7.36-18.53-6.83-37.11-5.83-5.78.31-10.35,1.06-11.86,4.08s.6,6.94,3.36,11.14C71.74,98.62,77.19,107,88.84,110c9.07,2.36,25.72,2.53,30.56-6.53C124.14,94.56,115.35,80.85,107.7,74.48Z"/><path class="cls-3" d="M355.6,283.61c-8.48,7.79-9.25,17.45-10.73,36-.46,5.77-.33,10.4,2.46,12.31s7,.32,11.49-1.85c15.91-7.6,24.88-11.89,29.45-23,3.56-8.67,5.94-25.15-2.4-31.16C377.69,270,362.93,276.87,355.6,283.61Z"/><path class="cls-1" d="M424.23,266.26c-11.51-.16-18.71,6.32-32.53,18.78-4.3,3.88-7.38,7.33-6.67,10.63s4.84,5,9.62,6.56c16.78,5.4,26.25,8.45,37.23,3.5,8.54-3.86,21.6-14.2,19.66-24.29C449.64,271.55,434.19,266.4,424.23,266.26Z"/><path class="cls-2" d="M376.63,253.75c-10.53,4.62-14.34,13.54-21.66,30.66-2.28,5.33-3.62,9.77-1.59,12.49s6.51,2.58,11.5,2c17.52-2,27.41-3.15,35.3-12.23,6.14-7.07,13.66-21.94,7.65-30.36C401.94,248.05,385.74,249.75,376.63,253.75Z"/><path class="cls-3" d="M422.87,296c-9.25-6.85-18.88-5.78-37.37-3.74-5.76.64-10.28,1.65-11.62,4.74s1,6.9,4,10.94c10.47,14.18,16.38,22.19,28.18,24.57,9.19,1.85,25.82,1.08,30.14-8.24C440.42,315.17,430.87,302,422.87,296Z"/><path class="cls-1" d="M278,306.79c10.94,3.61,19.75-.42,36.67-8.16,5.26-2.41,9.24-4.78,9.55-8.13s-3.11-6.25-7.21-9.15c-14.39-10.18-22.51-15.93-34.46-14.5-9.31,1.12-24.86,7.06-26,17.27C255.34,294.13,268.54,303.67,278,306.79Z"/><path class="cls-2" d="M319.65,333c11.43-1.25,17.74-8.62,29.86-22.76,3.77-4.4,6.39-8.23,5.26-11.43s-5.43-4.42-10.37-5.37c-17.32-3.34-27.09-5.22-37.34,1.08-8,4.9-19.61,16.83-16.41,26.67C293.79,330.85,309.76,334.09,319.65,333Z"/><path class="cls-3" d="M288.22,278.79C295,288.1,304.5,290,322.76,293.57c5.67,1.11,10.29,1.51,12.5-1s1.12-6.89-.52-11.64c-5.73-16.66-9-26.08-19.51-31.89-8.21-4.52-24.31-8.78-31.23-1.18C277.22,255.28,282.37,270.74,288.22,278.79Z"/><path class="cls-1" d="M63.72,83.09c-2.35,11.27,2.65,19.57,12.26,35.5,3,5,5.79,8.65,9.16,8.57S91,123.37,93.41,119c8.49-15.45,13.29-24.17,10.51-35.88C101.76,74,94.1,59.18,83.82,59.17,73.75,59.15,65.75,73.34,63.72,83.09Z"/><path class="cls-2" d="M42.38,127.44c2.54,11.22,10.57,16.66,26,27.1,4.8,3.24,8.9,5.41,11.95,3.93s3.78-5.9,4.17-10.91c1.35-17.58,2.12-27.51-5.3-37C73.42,103.21,60.26,93,50.84,97.29,41.61,101.5,40.19,117.74,42.38,127.44Z"/><path class="cls-3" d="M92.7,90.09c-8.49,7.78-9.27,17.43-10.78,36-.46,5.77-.34,10.4,2.44,12.31s7,.33,11.5-1.83c15.91-7.58,24.9-11.86,29.48-23,3.57-8.66,6-25.14-2.35-31.15C114.82,76.5,100,83.36,92.7,90.09Z"/><path class="cls-1" d="M104.9,147.17c2.35,11.27-2.65,19.57-12.25,35.51-3,4.95-5.79,8.64-9.16,8.57s-5.85-3.8-8.27-8.2c-8.5-15.44-13.29-24.16-10.52-35.88,2.17-9.12,9.83-23.9,20.1-23.92C94.88,123.23,102.87,137.42,104.9,147.17Z"/><path class="cls-2" d="M126.24,191.52c-2.53,11.22-10.56,16.66-26,27.1-4.8,3.25-8.9,5.41-12,3.93s-3.78-5.9-4.16-10.91c-1.36-17.58-2.12-27.51,5.29-37,5.77-7.37,18.94-17.58,28.36-13.28C127,165.59,128.43,181.82,126.24,191.52Z"/><path class="cls-3" d="M75.92,154.17c8.49,7.78,9.28,17.44,10.78,36,.47,5.77.34,10.4-2.44,12.31s-7,.33-11.5-1.83c-15.91-7.58-24.89-11.86-29.48-23-3.56-8.66-6-25.14,2.36-31.15C53.81,140.58,68.58,147.44,75.92,154.17Z"/><path class="cls-1" d="M22.24,191.17c-2.35,11.27,2.65,19.57,12.26,35.51,3,4.95,5.79,8.64,9.16,8.57s5.85-3.8,8.27-8.2c8.49-15.44,13.29-24.17,10.51-35.88-2.16-9.12-9.82-23.9-20.1-23.92C32.27,167.23,24.28,181.42,22.24,191.17Z"/><path class="cls-2" d="M.9,235.52c2.54,11.22,10.57,16.66,26,27.1,4.8,3.25,8.9,5.41,12,3.93s3.78-5.9,4.17-10.91c1.35-17.58,2.12-27.51-5.3-37-5.77-7.37-18.93-17.58-28.35-13.28C.13,209.59-1.29,225.82.9,235.52Z"/><path class="cls-3" d="M51.22,198.17c-8.49,7.78-9.27,17.44-10.78,36-.46,5.77-.34,10.4,2.44,12.31s7,.33,11.5-1.83c15.91-7.58,24.9-11.86,29.48-23,3.57-8.66,6-25.14-2.35-31.15C73.34,184.58,58.56,191.44,51.22,198.17Z"/><path class="cls-1" d="M84.24,197.17c-2.35,11.27,2.65,19.57,12.26,35.51,3,4.95,5.79,8.64,9.16,8.57s5.85-3.8,8.27-8.2c8.49-15.44,13.29-24.17,10.51-35.88-2.16-9.12-9.82-23.9-20.1-23.92C94.27,173.23,86.28,187.42,84.24,197.17Z"/><path class="cls-2" d="M62.9,241.52c2.54,11.22,10.57,16.66,26,27.1,4.8,3.25,8.9,5.41,12,3.93s3.78-5.9,4.17-10.91c1.35-17.58,2.12-27.51-5.3-37-5.77-7.37-18.93-17.58-28.35-13.28C62.13,215.59,60.71,231.82,62.9,241.52Z"/><path class="cls-3" d="M113.22,204.17c-8.49,7.78-9.27,17.44-10.78,36-.46,5.77-.34,10.4,2.44,12.31s7,.33,11.5-1.83c15.91-7.58,24.9-11.86,29.48-23,3.57-8.66,6-25.14-2.35-31.15C135.34,190.58,120.56,197.44,113.22,204.17Z"/><path class="cls-1" d="M40.24,247.17c-2.35,11.27,2.65,19.57,12.26,35.51,3,4.95,5.79,8.64,9.16,8.57s5.85-3.8,8.27-8.2c8.49-15.44,13.29-24.17,10.51-35.88-2.16-9.12-9.82-23.9-20.1-23.92C50.27,223.23,42.28,237.42,40.24,247.17Z"/><path class="cls-2" d="M18.9,291.52c2.54,11.22,10.57,16.66,26,27.1,4.8,3.25,8.9,5.41,12,3.93s3.78-5.9,4.17-10.91c1.35-17.58,2.12-27.51-5.3-37-5.77-7.37-18.93-17.58-28.35-13.28C18.13,265.59,16.71,281.82,18.9,291.52Z"/><path class="cls-3" d="M69.22,254.17c-8.49,7.78-9.27,17.44-10.78,36-.46,5.77-.34,10.4,2.44,12.31s7,.33,11.5-1.83c15.91-7.58,24.9-11.86,29.48-23,3.57-8.66,6-25.14-2.35-31.15C91.34,240.58,76.56,247.44,69.22,254.17Z"/><path class="cls-1" d="M102.9,291.17c2.35,11.27-2.65,19.57-12.25,35.51-3,4.95-5.79,8.64-9.16,8.57s-5.85-3.8-8.27-8.2c-8.5-15.44-13.29-24.17-10.52-35.88,2.17-9.12,9.83-23.9,20.1-23.92C92.88,267.23,100.87,281.42,102.9,291.17Z"/><path class="cls-2" d="M124.24,335.52c-2.53,11.22-10.56,16.66-26,27.1-4.8,3.25-8.9,5.41-12,3.93s-3.78-5.9-4.16-10.91c-1.36-17.58-2.12-27.51,5.29-37,5.77-7.37,18.94-17.58,28.35-13.28C125,309.59,126.43,325.82,124.24,335.52Z"/><path class="cls-3" d="M73.92,298.17c8.49,7.78,9.28,17.44,10.78,36,.47,5.77.34,10.4-2.44,12.31s-7,.33-11.5-1.83c-15.91-7.58-24.89-11.86-29.48-23-3.56-8.66-6-25.14,2.36-31.15C51.81,284.58,66.58,291.44,73.92,298.17Z"/><path class="cls-1" d="M30.24,334.17c-2.35,11.27,2.65,19.57,12.26,35.51,3,4.95,5.79,8.64,9.16,8.57s5.85-3.8,8.27-8.2c8.49-15.44,13.29-24.17,10.51-35.88-2.16-9.12-9.82-23.9-20.1-23.92C40.27,310.23,32.28,324.42,30.24,334.17Z"/><path class="cls-2" d="M8.9,378.52c2.54,11.22,10.57,16.66,26,27.1,4.8,3.25,8.9,5.41,12,3.93s3.78-5.9,4.17-10.91c1.35-17.58,2.12-27.51-5.3-37-5.77-7.37-18.93-17.58-28.35-13.28C8.13,352.59,6.71,368.82,8.9,378.52Z"/><path class="cls-3" d="M59.22,341.17c-8.49,7.78-9.27,17.44-10.78,36-.46,5.77-.34,10.4,2.44,12.31s7,.33,11.5-1.83c15.91-7.58,24.9-11.86,29.48-23,3.57-8.66,6-25.14-2.35-31.15C81.34,327.58,66.56,334.44,59.22,341.17Z"/><path class="cls-1" d="M28.45,92.7C26.1,104,31.1,112.27,40.7,128.21c3,5,5.79,8.64,9.17,8.57s5.85-3.8,8.27-8.2c8.49-15.44,13.29-24.16,10.51-35.88-2.16-9.12-9.83-23.9-20.1-23.92C38.47,68.76,30.48,83,28.45,92.7Z"/><path class="cls-2" d="M7.11,137.06c2.54,11.22,10.57,16.65,26,27.09,4.79,3.25,8.89,5.42,11.95,3.94s3.78-5.9,4.16-10.91c1.36-17.59,2.12-27.51-5.29-37-5.77-7.37-18.94-17.57-28.35-13.28C6.33,111.12,4.92,127.35,7.11,137.06Z"/><path class="cls-1" d="M62.45,371.7C60.1,383,65.1,391.27,74.7,407.21c3,5,5.79,8.64,9.17,8.57s5.85-3.8,8.27-8.2c8.49-15.44,13.29-24.16,10.51-35.88-2.16-9.12-9.83-23.9-20.1-23.92C72.47,347.76,64.48,362,62.45,371.7Z"/><path class="cls-2" d="M41.11,416.06c2.54,11.22,10.57,16.65,26,27.09,4.79,3.25,8.89,5.42,12,3.94s3.78-5.9,4.16-10.91c1.36-17.59,2.12-27.51-5.29-37-5.77-7.37-18.94-17.57-28.35-13.28C40.33,390.12,38.92,406.35,41.11,416.06Z"/><path class="cls-3" d="M91.43,378.7c-8.49,7.78-9.27,17.44-10.78,36-.47,5.77-.34,10.4,2.44,12.31s7,.33,11.5-1.83c15.91-7.58,24.89-11.86,29.48-23,3.57-8.67,6-25.15-2.36-31.16C113.54,365.11,98.77,372,91.43,378.7Z"/><path class="cls-1" d="M375.31,427c-11.49.81-19-5.26-33.53-16.92-4.51-3.63-7.78-6.91-7.26-10.24s4.55-5.28,9.24-7.09c16.45-6.34,25.73-9.91,37-5.58,8.74,3.37,22.36,12.95,21,23.14C400.38,420.31,385.24,426.32,375.31,427Z"/><path class="cls-2" d="M328.49,442.19c-10.78-4-15.08-12.71-23.35-29.4-2.57-5.19-4.17-9.55-2.29-12.38s6.36-2.94,11.37-2.65c17.61,1,27.55,1.6,35.93,10.23,6.53,6.71,14.87,21.13,9.35,29.88C354.08,446.45,337.8,445.67,328.49,442.19Z"/><path class="cls-3" d="M372.28,397.36c-8.85,7.36-18.53,6.84-37.11,5.83-5.77-.31-10.35-1.06-11.86-4.07s.61-6.95,3.36-11.15c9.65-14.74,15.11-23.07,26.76-26.11,9.06-2.37,25.71-2.54,30.55,6.53C388.72,377.28,379.94,391,372.28,397.36Z"/><path class="cls-1" d="M317.36,377.58c-10.85-3.85-19.75,0-36.83,7.36-5.32,2.29-9.35,4.57-9.73,7.92s3,6.31,7,9.3C292,412.66,300,418.59,312,417.41c9.32-.91,25-6.51,26.41-16.69C339.73,390.74,326.75,380.91,317.36,377.58Z"/><path class="cls-2" d="M276.29,350.46c-11.46,1-17.93,8.23-30.35,22.1-3.87,4.31-6.57,8.09-5.51,11.31s5.33,4.54,10.25,5.6c17.24,3.71,27,5.81,37.35-.26,8.09-4.73,20-16.4,17-26.31C302.09,353.19,286.19,349.6,276.29,350.46Z"/><path class="cls-3" d="M306.52,405.35c-6.57-9.46-16-11.53-34.2-15.52-5.65-1.25-10.26-1.74-12.52.75s-1.27,6.86.26,11.64c5.37,16.79,8.4,26.27,18.81,32.31,8.11,4.71,24.11,9.31,31.19,1.87S312.2,413.53,306.52,405.35Z"/><path class="cls-1" d="M262.63,453.56c-11.49.81-19-5.26-33.54-16.93-4.51-3.62-7.78-6.9-7.25-10.23s4.55-5.29,9.23-7.09c16.45-6.34,25.74-9.91,37-5.58,8.75,3.37,22.36,12.95,21,23.14C287.7,446.85,272.56,452.86,262.63,453.56Z"/><path class="cls-2" d="M215.8,468.73c-10.77-4-15.08-12.72-23.35-29.4-2.57-5.19-4.16-9.55-2.29-12.38s6.36-2.95,11.38-2.65c17.6,1,27.54,1.6,35.93,10.23,6.52,6.71,14.86,21.13,9.34,29.88C241.4,473,225.12,472.21,215.8,468.73Z"/><path class="cls-3" d="M259.59,423.9c-8.85,7.36-18.52,6.84-37.1,5.83-5.78-.31-10.35-1.06-11.87-4.07s.61-7,3.36-11.15c9.66-14.74,15.11-23.07,26.76-26.11,9.07-2.37,25.72-2.54,30.55,6.53C276,403.82,267.25,417.53,259.59,423.9Z"/><path class="cls-1" d="M265,391.32c-11.48.81-19-5.27-33.53-16.93-4.51-3.63-7.78-6.9-7.26-10.23s4.55-5.29,9.24-7.09c16.45-6.34,25.74-9.92,37-5.59,8.74,3.37,22.36,13,21,23.14C290.11,384.61,275,390.62,265,391.32Z"/><path class="cls-2" d="M218.21,406.48c-10.78-4-15.08-12.71-23.35-29.39-2.57-5.19-4.17-9.55-2.29-12.38s6.36-2.95,11.37-2.66c17.61,1,27.55,1.61,35.94,10.23,6.52,6.72,14.86,21.14,9.34,29.89C243.8,410.75,227.53,410,218.21,406.48Z"/><path class="cls-1" d="M209.56,428.18c-11.49.81-19-5.26-33.53-16.93-4.51-3.62-7.78-6.9-7.26-10.23s4.55-5.29,9.24-7.09c16.45-6.34,25.73-9.91,37-5.58,8.74,3.37,22.36,12.95,21,23.14C234.63,421.47,219.49,427.48,209.56,428.18Z"/><path class="cls-2" d="M162.74,443.35c-10.78-4-15.08-12.72-23.35-29.4-2.57-5.19-4.17-9.55-2.29-12.38s6.36-2.95,11.37-2.65c17.61,1,27.55,1.6,35.93,10.23,6.53,6.71,14.87,21.13,9.35,29.88C188.33,447.61,172.05,446.83,162.74,443.35Z"/><path class="cls-3" d="M206.53,398.52c-8.85,7.36-18.53,6.84-37.11,5.83-5.77-.31-10.35-1.06-11.86-4.07s.61-6.95,3.36-11.15c9.65-14.75,15.11-23.07,26.76-26.11,9.06-2.37,25.71-2.54,30.55,6.53C223,378.44,214.19,392.15,206.53,398.52Z"/><path class="cls-1" d="M174.41,360.16c-10.86-3.85-19.75,0-36.84,7.36-5.31,2.29-9.34,4.57-9.73,7.92s3,6.31,7,9.3C149,395.24,157,401.17,169,400c9.33-.91,25-6.51,26.41-16.69C196.78,373.32,183.79,363.49,174.41,360.16Z"/><path class="cls-2" d="M133.33,333c-11.46,1-17.93,8.23-30.35,22.1-3.86,4.31-6.56,8.09-5.51,11.32s5.34,4.53,10.25,5.59c17.24,3.71,27,5.81,37.36-.26,8.08-4.73,20-16.4,17-26.31C159.13,335.77,143.24,332.18,133.33,333Z"/><path class="cls-3" d="M163.56,387.94c-6.56-9.46-16-11.54-34.2-15.53-5.65-1.25-10.25-1.74-12.52.75s-1.27,6.86.26,11.65c5.37,16.78,8.4,26.26,18.82,32.3,8.1,4.71,24.1,9.31,31.18,1.87S169.24,396.11,163.56,387.94Z"/><path class="cls-1" d="M122,426.37c-11.49.81-19-5.27-33.54-16.93-4.5-3.63-7.78-6.9-7.25-10.23s4.55-5.29,9.23-7.09c16.45-6.34,25.74-9.92,37-5.59,8.75,3.37,22.36,13,21,23.14C147.08,419.66,131.94,425.67,122,426.37Z"/><path class="cls-2" d="M75.18,441.53c-10.77-4-15.08-12.71-23.34-29.39-2.58-5.19-4.17-9.55-2.29-12.38s6.35-2.95,11.37-2.66c17.6,1,27.54,1.61,35.93,10.23,6.52,6.71,14.87,21.13,9.34,29.89C100.78,445.8,84.5,445,75.18,441.53Z"/><path class="cls-3" d="M119,396.71c-8.86,7.36-18.53,6.84-37.11,5.83-5.78-.31-10.35-1.06-11.87-4.07s.61-7,3.36-11.15c9.66-14.75,15.11-23.07,26.76-26.12,9.07-2.36,25.72-2.53,30.56,6.54C135.42,376.63,126.63,390.34,119,396.71Z"/><path class="cls-1" d="M316,319.4c-1.86,11.36,3.5,19.44,13.78,34.94,3.2,4.83,6.16,8.39,9.52,8.17s5.68-4,7.91-8.55c7.82-15.79,12.24-24.71,9-36.3-2.56-9-10.85-23.45-21.12-23C325,295.05,317.64,309.57,316,319.4Z"/><path class="cls-2" d="M296.63,364.63c3,11.1,11.27,16.19,27.13,25.95,4.93,3,9.12,5,12.11,3.42s3.52-6.06,3.69-11.08c.6-17.63.93-27.58-6.88-36.72-6.09-7.12-19.68-16.75-28.9-12.05C294.73,338.75,294,355,296.63,364.63Z"/><path class="cls-3" d="M345.29,325.14c-8.15,8.14-8.51,17.82-9.22,36.42-.22,5.78.11,10.4,3,12.19s7,0,11.41-2.33c15.57-8.26,24.36-12.92,28.46-24.24,3.19-8.81,4.89-25.38-3.7-31C366.8,310.61,352.33,318.1,345.29,325.14Z"/></g></g></svg>