<svg xmlns="http://www.w3.org/2000/svg" viewBox="0 0 40.88 75.88"><defs><style>.cls-1{fill:#1d1d1b;}.cls-2{fill:tan;opacity:0.08;}</style></defs><g id="Layer_2" data-name="Layer 2"><g id="Layer_1-2" data-name="Layer 1"><path class="cls-1" d="M36.15,20.74a14.53,14.53,0,0,0-1.74-10.41C32.66,7.27,29.58,4.85,26,4.9a14.44,14.44,0,0,0-5.19,1,48.76,48.76,0,0,0-5,2.22,12.57,12.57,0,0,0-4.28,3.21A12.65,12.65,0,0,0,9.2,16.1a12.48,12.48,0,0,0,1.31,10.16,9.77,9.77,0,0,0,3.86,3.38,14.3,14.3,0,0,0,5,1.41,18.07,18.07,0,0,0,10.25-2.12,13.87,13.87,0,0,0,4.15-3.36A12.23,12.23,0,0,0,36.15,20.74Zm.1,0A13.89,13.89,0,0,1,30,29.5,16.92,16.92,0,0,1,19.3,32.08a14.69,14.69,0,0,1-5.4-1.51,10.7,10.7,0,0,1-4.18-3.8,12.68,12.68,0,0,1-1-10.83,14.23,14.23,0,0,1,2.66-4.82,14.68,14.68,0,0,1,4.39-3.28C17.36,7,19,6.14,20.64,5.4A14.78,14.78,0,0,1,26,4.08,8.7,8.7,0,0,1,31.4,5.74,11.52,11.52,0,0,1,35,10,16.42,16.42,0,0,1,36.25,20.76Z"/><path class="cls-1" d="M34.18,70a9.77,9.77,0,0,0,2.25-3.38,17.88,17.88,0,0,0,1.14-3.93A34.32,34.32,0,0,0,38,54.55a43.8,43.8,0,0,0-1.26-8,29.52,29.52,0,0,0-3-7.53,14,14,0,0,0-5.52-5.7,15.83,15.83,0,0,0-7.89-1.53,12.66,12.66,0,0,0-7.54,2.66,9.37,9.37,0,0,0-2.38,3.24c-.61,1.22-1.17,2.47-1.7,3.73A107,107,0,0,0,3.6,56.94a54.12,54.12,0,0,0-1.4,8,24.7,24.7,0,0,0-.07,4,8.73,8.73,0,0,0,1,3.72l.26.39c.09.12.2.22.3.33a2.45,2.45,0,0,0,.68.54,2.41,2.41,0,0,0,1.69.16c1.25-.29,2.54-.84,3.85-1.26A40.2,40.2,0,0,1,18,71a44.75,44.75,0,0,1,8.26-.3l4.11.34a6.5,6.5,0,0,0,2-.12A4.26,4.26,0,0,0,34.18,70Zm.06.07a4.37,4.37,0,0,1-1.81,1,6.81,6.81,0,0,1-2.06.15C29,71.18,27.63,71,26.26,71a42.87,42.87,0,0,0-8.16.66,43.55,43.55,0,0,0-7.88,2.08,34.7,34.7,0,0,1-4,1.34,3.37,3.37,0,0,1-2.32-.23A3.51,3.51,0,0,1,3,74.13a4.28,4.28,0,0,1-.7-.9,9.53,9.53,0,0,1-1.17-4.14,22.63,22.63,0,0,1,.08-4.2,54.58,54.58,0,0,1,1.52-8.16A99.64,99.64,0,0,1,8.25,41.16c.57-1.25,1.17-2.5,1.82-3.71a10.4,10.4,0,0,1,2.52-3.3,10.64,10.64,0,0,1,3.66-2,17.12,17.12,0,0,1,4.08-.78,19.79,19.79,0,0,1,4.14.2,14.17,14.17,0,0,1,4,1.19,14.55,14.55,0,0,1,6,5.77,33.09,33.09,0,0,1,4.13,16,35.49,35.49,0,0,1-.75,8.23,21.5,21.5,0,0,1-1.25,3.94A9.7,9.7,0,0,1,34.24,70.09Z"/><path class="cls-2" d="M15.8,14.93A7.8,7.8,0,0,1,13.59,11l.1,1.29-.16-4.16-1,11.89L18.44,4.37,13,14.09l7-10.7L13.13,12.5,30.4,8.1l-11.35-2,15,9.79L25.78,7.16l7.73,15.32L29.66,11.72,32.4,24.36,30.61,14.28l.56,12.85-.11-10.24L29.47,29.74l1.67-10.67L24.55,34.13,30.3,23.91,17.35,31.85l10.56-4.19-11.33,2,9.55-1.42-9.22-.55,7.6.66L12,20.49l-.27-.14A12.63,12.63,0,0,0,13,25.13a29,29,0,0,0,2.49,4.79,9.81,9.81,0,0,0,6.44,4.49c3.65.61,6.44-2,8.42-4.72a20.43,20.43,0,0,0,3.85-9.62A12.59,12.59,0,0,0,33.46,14c-.68-1.77-2-3.15-2.75-4.88-1.61-3.83-5.26-9.27-12.17-5-1.84,1.13-3,2.85-5,3.77a4.16,4.16,0,0,0-.2,1.27c-.16,1.61-.29,3.21-.42,4.82s-.25,3.22-.36,4.84a4.57,4.57,0,0,0,0,1.28,18.88,18.88,0,0,0,3.62,7.28A4.72,4.72,0,0,0,16.2,26c0-1.64-.06-3.27-.1-4.91s-.1-3.26-.16-4.9A4.64,4.64,0,0,0,15.8,14.93Z"/><path class="cls-2" d="M16.23,13.32A7.66,7.66,0,0,1,14,9.41l.14,1.29L14,6.5l-.71,12L19,2.71l-5.35,9.87L20.57,1.79,13.79,11l14.06-8L17.94,6l13.2,2.44L22.56,4.66l10.11,6L25.34,5.28l8.14,6.84L26.87,5.83l7.3,8.05L28.37,6.6l6.06,11.45L31,9.77,33.81,20l-1.85-8L33,22.8l-.6-8-.58,9.37.54-6.49-2,9.18,1.54-6.43L28,30.4,31.26,23l-5.69,8.93,4.59-6.82-7,7.06L29,26.72l-3.26,1.87L28,27.44,12.17,18.89l-.24-.13a13,13,0,0,0,1.28,4.94l1.19,2.55A12.44,12.44,0,0,0,20,32.16c6.75,3.3,11.92-4.33,13.71-9.81a13.69,13.69,0,0,0,.9-4.1,15.33,15.33,0,0,0-1.61-5A73.84,73.84,0,0,0,30.35,6c-1.67-3.7-8.65-5.65-12-3a21.65,21.65,0,0,1-4.37,3.15,4.32,4.32,0,0,0-.17,1.29c-.11,1.63-.21,3.26-.29,4.89s-.17,3.26-.24,4.89a4.35,4.35,0,0,0,0,1.3,18.53,18.53,0,0,0,3.62,7.21,4.43,4.43,0,0,0,0-1.31c-.06-1.64-.14-3.28-.23-4.92s-.19-3.27-.3-4.91A4.66,4.66,0,0,0,16.23,13.32Z"/><path class="cls-2" d="M16.68,14.61a7.89,7.89,0,0,1-2.21-3.93l.28,3.57-.32-6.49-.53,13.1L19.33,4.05,13.44,15.19,21,3,13.52,13.56,31.38,7.88,18.45,6l14.83,6.07L23.11,5.87,34,13.55,24.6,6l10,9.32L25.86,6.05l8.49,16.08L30.29,10.35l0,20,2-11.95-6.7,15.34,6-10.26-13.25,8.1,10.62-4.31L17.51,29.36l9.67-1.51-14.6-7.79.4,2.31a25.18,25.18,0,0,0,2.07,5A16.36,16.36,0,0,0,18,31.71,9.45,9.45,0,0,0,24.15,34a2.82,2.82,0,0,0,2.58-.7,6.43,6.43,0,0,0,2.43-1.69,16.29,16.29,0,0,0,3.68-5,19.16,19.16,0,0,0,2.09-11,4.74,4.74,0,0,0-.88-1.07c-1.17-1.27-2.36-2.52-3.56-3.77S28.1,8.21,26.89,7a5,5,0,0,0-1-.93L14.39,7.41c-.34,0-.38,6.79-.38,6.72-.07,1.77-.12,3.54-.17,5.31a5.62,5.62,0,0,0,.06,1.42A20,20,0,0,0,17.7,28a5.54,5.54,0,0,0,0-1.41c-.12-1.76-.24-3.52-.38-5.28s-.27-3.53-.42-5.29A5,5,0,0,0,16.68,14.61Z"/><path class="cls-2" d="M17.56,14.4l-2-5.93-.18,3.76a25.6,25.6,0,0,1,6.34-8.52L18.48,6.45c4.39-2.7,7.39-1.32,12.12-.55l-4.45-1,5.34,2.15-4.39-2L31.22,7.7,27.73,5.31a45,45,0,0,1,8.32,11.12l-2.49-5,2.34,6-1.46-4.17,1.48,6.43-.85-4.19.5,6.8-.2-4.09-1.65,9,.64-2.31L31.7,31.11l1.42-3.06L29.22,34l2.25-3.09L26.64,35.5l2.75-2.32a14.4,14.4,0,0,1-10.83.62l1.79.39c-4.09-3.91-6.79-7.57-8.41-13.54-.16-.57-.36-.57-.25.07a28.48,28.48,0,0,0,2,6.43,21.06,21.06,0,0,0,4.19,6.72A12.35,12.35,0,0,0,23.42,36a18.28,18.28,0,0,0,3-.12,12.41,12.41,0,0,0,5-3.62,25,25,0,0,0,3.43-5.64,19,19,0,0,0,1.76-7.74c-.07-2.68-1.05-4.55-2.33-6.89a8.28,8.28,0,0,1-1.48-3,7.92,7.92,0,0,0-.73-1.79,8.52,8.52,0,0,0-3-3.1A7.84,7.84,0,0,0,22,3.31c-1.4.62-3.13,2.34-4.33,3.29A9.85,9.85,0,0,1,15.49,8c-.47.24-.3,3.83-.21,4.22.17.88.37,1.75.6,2.62a8.34,8.34,0,0,0,2.17,3.45,18.25,18.25,0,0,1-.11-2C17.88,15.87,17.91,14.81,17.56,14.4Z"/><path class="cls-2" d="M17.13,15A7.21,7.21,0,0,1,15,11.21l.64,7.94L14.92,8.33,14.61,19,21.45,3.49,15.17,12.3,31.94,8.41,20.66,6.57l14.8,9.61-8-8.47,7.41,15L31.51,12.53l2.23,12.06-1.36-9.27.13,12,.23-9.18L30.85,30l1.89-9.33L26.06,34.2l5.47-8.32L21.11,33.56,28.94,29l-2.33.67,1-.19-2.87.05.92,0a11.32,11.32,0,0,1-4.11-1.39l.79.42L13.18,20.9,13,20.77,13.4,23l1,2.51A25.86,25.86,0,0,0,17,30.26a9.33,9.33,0,0,0,5.22,3.86,4.18,4.18,0,0,0,2.51.36,2.9,2.9,0,0,0,2.57-.72c3.63-2,5.9-5.62,7.23-9.46,1.08-3.13,1.73-6.79.41-10-.72-1.73-1.93-3.2-2.66-4.91s-1.41-3.73-3-5a7.76,7.76,0,0,0-8.47-.69C18.61,4.93,17.07,6.92,14.87,8a3.67,3.67,0,0,0-.14,1.15c-.05,1.44-.1,2.89-.13,4.34s-.45,3.92,0,5.49a17.79,17.79,0,0,0,3.59,6.79,3.42,3.42,0,0,0,0-1.15q-.18-2.14-.39-4.29t-.45-4.29A3.6,3.6,0,0,0,17.13,15Z"/><path class="cls-2" d="M16.85,12.64,14.67,8.83l.17.89-.32-2.48.27,7.44-.08-8.1-.22,7.57,2.25-9.06-2,6.81,4.8-9.8-4,6.59,5.62-7.6L16.09,7l6.62-6L17.63,5.17,24.69.89,19.22,4l6.27-2.27L20.78,3.33l6.33-1L22.24,3l7.2.23-5.71-.56,7.94,3.87L27.13,3.61l8.7,10.44-2-4.4,1.66,5.09-1-3.59,1,5.85L35,13.5l.06,6.15.09-3.33L28.85,30.56l1.74-2.36-3.46,3.24,1.51-1.29c-4.26,1.92-7.23,1.2-10-1.73-2.57-2.74-4.4-6.3-6.33-9.43.06.1-.5-.88-.39-.35C13.17,24.48,16.2,32.26,23,33.09c3,.38,5.74-1.38,7.65-3.65a23.81,23.81,0,0,0,3.57-5.71c.68-1.55,1.72-4.13,1.64-5.77a23.9,23.9,0,0,0-.62-4.1l-.1-.38-2.68-5.8c-.29-.54-.54-1-.78-1.59C30.74,3.89,29.57,2,27.23,1c-4.66-2-8.53,2.76-12.6,4.66-.43.2-.24,4.2-.24,4.36a16.32,16.32,0,0,0,0,4.36,22.6,22.6,0,0,0,.86,3,10.75,10.75,0,0,0,2.38,3.74,2.1,2.1,0,0,0,0-.9c-.08-1.12-.18-2.24-.29-3.36s-.22-2.24-.35-3.36A2.17,2.17,0,0,0,16.85,12.64Z"/><path class="cls-2" d="M15.4,15a6.81,6.81,0,0,1-2.15-3.58l.09.93-.13-3.72L12.4,17l1.47-6.85L12.51,16l4-9.91-3.48,6.88,4.63-7.58-4.07,5.86,6-7.47L14.25,9.5l9.19-6.24L17,6.83l4.89-1.75L18.2,6.26l13.49,5.16L24.91,6.24l9,11.79-4.12-7.72,3.72,9.34-2.82-7.57,2,8.69-1.42-6.51.84,9.31L31.73,17l-.51,7.21.38-4.42L27.19,32.6l3.24-7.52-5.69,9,4.62-6.86-7.08,7.11L28.06,29l-6.94,4,5.73-3.08-2.36.54.93-.16-7.68-2.13,1.82,1-8.2-7.73-.19-.13a15.22,15.22,0,0,0,1.4,4.66,30.2,30.2,0,0,0,2.5,4.74A9.82,9.82,0,0,0,21.66,35c3.69.49,6.41-2.07,8.41-4.83A20.73,20.73,0,0,0,34,20.53a12.63,12.63,0,0,0-.71-6.19A62.61,62.61,0,0,0,30,8.29,8.71,8.71,0,0,0,28.48,5.8a8,8,0,0,0-4.9-2.7c-4.29-.66-6.75,3.47-10.41,5.31-.49.25-.54,4.13-.56,4.38a16.65,16.65,0,0,0-.3,4.4,15.79,15.79,0,0,0,3.14,6.87,2.51,2.51,0,0,0,.1-.95c0-1.19,0-2.38,0-3.57s0-2.39-.05-3.58A2.34,2.34,0,0,0,15.4,15Z"/><path class="cls-2" d="M17.73,14.14,15.46,9,16,16.55,15.66,8.4v7.72l.59-4.87-.65,4.29L20.46,3.9l-4.1,7.44L22,2.93,16.76,9.78l9.17-7.35L19,7.06l3.15-1.41L20,6.52l12.1,1.2L23.82,5.15l9.87,5.63L27.25,6.47l6.69,5.13-5.83-5L34.78,13,29.59,7.36l5.88,7.37L31.05,8.36l5,11.12L33.52,12l1.21,13,0-7.4-1.3,9.64,1.09-6.41-2.8,9.11,2.13-6-4.21,8.16,3.1-5.23-5.59,6.82,4-4.41-5.72,4.09,3.69-2.45-4.79,1.69L27,31.71l-3.51.2,1.62,0C18.86,29.72,18.23,27.39,13,20.49c-.15-.18-.19-.16-.1.06a43.11,43.11,0,0,0,1.55,4.79,25.65,25.65,0,0,0,2.87,4.94,9.89,9.89,0,0,0,4.19,3.44,8.86,8.86,0,0,0,5.18.55,13.19,13.19,0,0,0,2.62-1.51,16.7,16.7,0,0,0,2.21-2.08,20.35,20.35,0,0,0,3.73-6.93,12,12,0,0,0,.95-4.19,32.52,32.52,0,0,0-1.61-5.28c-.78-2.49-1.29-3.95-2.13-6a12.65,12.65,0,0,0-1.14-2.41,7.69,7.69,0,0,0-6.26-3.62C20.19,2,18.5,7,15.6,10.55a2.15,2.15,0,0,0,0,.91q.15,1.71.33,3.42c.12,1.13,0,3.21.6,4.3a10.3,10.3,0,0,0,2.39,3.55,2.32,2.32,0,0,0,0-.91c-.14-1.14-.28-2.27-.44-3.4S18.13,16.16,18,15A2.49,2.49,0,0,0,17.73,14.14Z"/><path class="cls-2" d="M15.05,12.55,12.73,7.2l-.2,4.14.34-5-.64,5.19c.78-2,1.6-4,2.47-6L13.21,8.86l6-7.88L16,3.41c4.31-1.94,6.27-2.13,11.52-1.6l-1.79-.27c5.08,2.34,6,4.52,7.47,9.78a9.42,9.42,0,0,1-.8,8.41,12.49,12.49,0,0,1-3.3,8.64l-8,3.83A7.6,7.6,0,0,1,17.05,30c-3.25-3.11-4.93-7.13-6.89-11.15.09.2-.4-.73-.3-.26a32.52,32.52,0,0,0,2.6,7.8A18.89,18.89,0,0,0,15.73,31c2,1.66,5.28,3.35,8,2.49,5.41-1.73,8.71-7.79,10.22-12.86a14,14,0,0,0-.13-8.83C33.2,10,32.26,8.35,31.64,6.56A8.17,8.17,0,0,0,30.42,4C28.57,1.53,25.05-.44,21.81.11A12,12,0,0,0,18.9,1.62a27.75,27.75,0,0,0-2.62,1.45,8,8,0,0,1-3.44,2.61c-.4.2-.34,1.87-.39,2.28a15.59,15.59,0,0,0-.34,3.53,14.17,14.17,0,0,0,2.83,7.25,1.2,1.2,0,0,0,.12-.65c0-.81.06-1.63.07-2.44C15.14,15.14,15.46,13.07,15.05,12.55Z"/><path class="cls-2" d="M15,14.35a7.33,7.33,0,0,1-2.37-5.27l-.26,4.48.36-5.06-1,8.22,3-9.74L12,14.17,17.55,3.9l-4.64,6.72,6.21-7.79-5.55,6L23,2.34,16.55,5.88,23.13,3.5,18,5.19l6.7-1.13-5.54.75,10,2.33-6.72-3,8.39,6.05L25.62,5.82l6.54,6.8L27.81,7.16,33.56,17,30.18,9.92l3,8.81L31,11.8,32.52,20l-1-5.94.37,8.74-.17-6-5,14.94,3.16-7L25.09,32l3.66-5.25-6.92,6.73,5.66-5.1L24.2,30.14l2.12-1a10.08,10.08,0,0,1-7.49-1.38l.76.44-8.68-7.88-.2-.14A14.6,14.6,0,0,0,12,24.9a25.21,25.21,0,0,0,2.57,4.84c1.67,2.24,3.77,4,6.68,4.41s5.54-1.42,7.46-3.54a20.24,20.24,0,0,0,4.64-9.72A13.29,13.29,0,0,0,33.4,15l-4-7.8A8.31,8.31,0,0,0,27.91,4.8c-1.05-1.22-.89-1.27-2-1.17q-7-1.95-11,2.45A5.47,5.47,0,0,1,12.7,7.5c-.52.25-.65,4.47-.68,4.71-.15,1.38-.67,3.33-.4,4.75a16,16,0,0,0,3.14,7.09,2.63,2.63,0,0,0,.13-1c0-1.28.08-2.56.1-3.84s0-2.56,0-3.83A2.9,2.9,0,0,0,15,14.35Z"/><path class="cls-2" d="M16.16,12.31,14,8.5l.27,3.67L14,5.54l-.42,7,2.16-6.91-1.6,4.49,3.09-6.73L14.58,8.49,20.47.64,16.05,5,20.4,1.78,18.1,3.37l9.23-1.73L24,1.66l4.83,1-2.89-.69,4.58,2L27.4,2.33,31.11,5,28.45,2.74q10,11.61-6.19,29a7.18,7.18,0,0,1-4-2.09c-3.18-2.87-5-7.49-6.91-11.14.1.19-.43-.8-.32-.3,1.17,5.52,4.08,14.35,11,14.92,3.08.26,5.56-1.12,7.62-3.42a23.2,23.2,0,0,0,4.37-7.09c1.1-2.8,2.06-5.79,1.58-8.82-.53-3.36-3-5.73-4.2-8.79a9.15,9.15,0,0,0-1.56-2.3L28.61,1.48A10.24,10.24,0,0,0,24.82,0a25.78,25.78,0,0,0-4,1.46A7.16,7.16,0,0,0,16.2,3.92a5.53,5.53,0,0,1-2.26,1.42c-.42.2-.27,2.4-.3,2.85a19.52,19.52,0,0,0-.19,4.38,14.7,14.7,0,0,0,3.1,7.07,1.65,1.65,0,0,0,.06-.77c0-1-.07-1.93-.12-2.9C16.45,15.31,16.67,13,16.16,12.31Z"/><path class="cls-2" d="M16,14.81,13.8,10.14v3.27L14,9.1l-.43,4.31c.56-1.39,1.15-2.78,1.76-4.15l-.91,2,5.76-7.17L16.82,6.73c4.67-2.76,7.3-1.47,12.24-.58l-4.27-1,5.73,3.29L26.33,5.48,33.89,15.7l-2.28-4.37,2.62,6.2-1.78-4.59,1.36,5.2L33,14.94l.11,8.6.13-3.22L27.79,33.84,30.62,29l-5.35,6.39L29,31.18l-8,2.39,1.42.08c-5.12-2.43-6.78-4.45-10.86-9.53L13.65,27c-.87-1.89-1.84-3.73-2.89-5.52-.07-.1-.11-.11-.1,0a9.8,9.8,0,0,0,.63,1.82c.46,1.12.69,2.2,1.11,3.35a24.51,24.51,0,0,0,2.13,3.77,18.46,18.46,0,0,0,2.66,3.45,9.52,9.52,0,0,0,7.71,2.08c1.55-.3,2.74-1.51,3.84-2.53a20,20,0,0,0,5.46-9.33,14.19,14.19,0,0,0,.08-9c-.61-1.79-1.81-3.2-2.6-4.87-.67-1.41-1-2.84-2.08-4.05a9,9,0,0,0-7.24-3,4.32,4.32,0,0,0-3,1.21C17.57,5.82,16,7.52,13.9,8.58c-.35.18-.26,1.54-.3,1.89a12.56,12.56,0,0,0-.19,2.93,12.69,12.69,0,0,0,2.81,6.45,19.4,19.4,0,0,1,0-2.53C16.24,16.88,16.4,15.24,16,14.81Z"/><path class="cls-2" d="M17.43,12.92,15.11,7.54l.46,7.31-.25-8-.05,7.5,2.06-9L15.5,12.25,20.15,2.4l-4,6.82,5.54-7.8-5,6.13L23.25,1.3,18.06,5.81l7.13-4.54L19.51,4.68,25.9,2.19,21,4l3.12-.57-2,.24L31.83,6,25.77,3.26l10.48,11L33.64,8.92l2.56,6.82-1.63-4.9L36.09,18l-.85-4.79.36,7.41,0-4.59L29.48,30.8l1.82-2.47L27,32.4l2.29-2C20,34.64,16.24,25.15,12.78,19.3c.09.14-.48-.87-.36-.34,1.13,5.11,3.29,11.47,8.47,13.71a8.89,8.89,0,0,0,5.5.57L29,31.76l2.22-2.07a21.59,21.59,0,0,0,4-7.21,12.84,12.84,0,0,0,1.05-4.32,19.06,19.06,0,0,0-.39-2.4,24.43,24.43,0,0,0-3.28-8.17c-.39-.68-.55-1.42-.88-2.13A8.66,8.66,0,0,0,29.4,2.32,9.17,9.17,0,0,0,25.81.76C21.7-.14,18.15,4.14,15.21,6c-.46.28-.13,4.08-.13,4.31a16.91,16.91,0,0,0,.13,4.32,17.67,17.67,0,0,0,.89,2.93,10.55,10.55,0,0,0,2.39,3.67,2.17,2.17,0,0,0,0-.88c-.12-1.09-.25-2.18-.4-3.27C18,16.2,18,13.71,17.43,12.92Z"/><path class="cls-2" d="M16.65,14.4l-1.9-6.13L14.6,10.4a30.34,30.34,0,0,1,6.46-6.57l-1.53,1a9.37,9.37,0,0,1,4.58-.49A16.68,16.68,0,0,1,30,6.79l-1.36-.93c3.52,3.26,5.09,8.09,6.59,12.48l-1-3.27L28.64,34.16,30.31,32,25.7,36.18l2.51-2a15.69,15.69,0,0,1-11,.26l1.32.38C14.92,30.69,11.57,26,11,20.36c0-.17-.43-.41-.39-.13.35,3.16.1,2.47,1.3,5.67A24.21,24.21,0,0,0,14,30.44a17.38,17.38,0,0,0,2.71,4.05c2.16,1.84,6,2.55,8.77,2,1.84-.35,3.76-2.25,5-3.6A21.19,21.19,0,0,0,35,24.29a15,15,0,0,0-.71-10.8,46.22,46.22,0,0,1-2.21-4.67,8.3,8.3,0,0,0-3.55-4.31c-2-1.26-4.78-2.18-7.08-1.2C18.9,4.4,17.15,6.81,14.66,8c-.34.16-.25,1.92-.22,2.18a23.06,23.06,0,0,0,.33,2.48,7.63,7.63,0,0,0,1.89,3.54S16.93,14.74,16.65,14.4Z"/><path class="cls-2" d="M14.7,13.23A7.06,7.06,0,0,1,12.37,8l-.19,3.17.32-4L11.69,13l2.53-6.51-1.69,3.85,6.19-8.5L15,4.88l10.44-2.3-1.83-.11L27.77,3.6l-2.4-.76,4,2.07L26.7,3.32,30,6l-2.35-2.2Q31.24,8.6,29,15.47q3.88,8.58-1.71,14.82l1.24-1.82q-6.83,4.92-11.56.46a27.63,27.63,0,0,1-6.84-9.16c.07.11-.48-.84-.37-.33a24.7,24.7,0,0,0,5.1,11c2.86,3.34,7.61,4.68,11.31,1.91s6.09-7.21,7.25-11.73a13.78,13.78,0,0,0-.83-9.48C31.87,9.4,31,7.79,30.28,6.06a8.5,8.5,0,0,0-4.73-4.49A9.34,9.34,0,0,0,21.12.93c-.94.47-1.85,1-2.74,1.53A13.05,13.05,0,0,0,15.86,3.9a15.68,15.68,0,0,1-3.38,2.56C12,6.67,12.08,8.57,12,9a16.84,16.84,0,0,0-.45,4,14.26,14.26,0,0,0,2.87,7.26,1.55,1.55,0,0,0,.14-.74c.05-.92.1-1.85.13-2.78C14.73,16.24,15.15,13.78,14.7,13.23Z"/><path class="cls-2" d="M18.17,13.05l-2-3.23.42,2.31L16.2,7.2v4.69A54.56,54.56,0,0,1,19,5.42L17.29,8.69l5-6.29L18.7,5.89,22.55,3.1,20.36,4.59a16.47,16.47,0,0,1,10.87-.15l-4.45-.81,5.35,2L28,3.83l4.73,2.89L28.73,4.09c3.55,3.62,6.45,6.15,8.26,12.43l-.8-3.11.59,4.45-.19-2-.12,5.62.17-2.65L27.2,34.23l.77-.48c-4.57.21-9.48.1-11.62-4.95C15.14,26,14.69,22.93,13.7,20a4.21,4.21,0,0,0-.72-1.2s-.36-.43-.31-.18c.88,4.58,1.68,9.92,4.85,13.58,1.11,1.27,2.86,1.69,4.39,2.16a9.52,9.52,0,0,0,4.84.5,14.93,14.93,0,0,0,2.79-1.54,10.69,10.69,0,0,0,3.36-3.49,24.54,24.54,0,0,0,3.73-7.42,13.73,13.73,0,0,0,.8-5.07,19.22,19.22,0,0,0-1-3.64,20,20,0,0,0-1.94-4C33.72,8.44,33.38,7,32.68,5.74,31.22,3.09,27.89.92,24.75,1.37c-3.56.51-5.55,3.75-8.66,5.27C15.76,6.8,16,8.38,16,8.71a10.91,10.91,0,0,0,.1,3.18c1.7,4.83.58,3.21,2.92,5.9a15.91,15.91,0,0,1-.28-2.39A6,6,0,0,0,18.17,13.05Z"/><path class="cls-2" d="M17,13.67a7.68,7.68,0,0,1-2.21-3.91l.72,8.81L14.82,6.83l-.26,11.82L19.81,3,14.62,13.1,23.35,1.58,15.56,9.52,28.81,3.23,18.41,6.71l14.66,3.37-9-4.69,8.82,5.4L25.53,5.68l8.82,7L27,6.13l8,8.26-6.46-7.6,6.66,11.7L31.32,9.61l2.59,14.28-.83-9L32.56,26l.64-8.12L30.89,28.64l2-7.95-4,10,3.32-7.28-5.75,8.83,4.64-6.57-7,6.82,5.74-5.11-5.11,2.84,3.92-2L13,19.42l-.23-.13a14.23,14.23,0,0,0,1.37,4.9l1.21,2.52c1.28,2.43,3,4.69,5.54,5.8a6.31,6.31,0,0,0,3.82.68,4.57,4.57,0,0,0,3.87-1.52A17.49,17.49,0,0,0,34,24.14a6.79,6.79,0,0,0,.77-3.84L32.39,9a5,5,0,0,1-.78-2l-.27-.12Q24.23-1.2,19.12,3.34a23.62,23.62,0,0,1-4.35,3.17,4.19,4.19,0,0,0-.13,1.27c-.05,1.6-.09,3.2-.11,4.8s0,3.2-.06,4.8a4.51,4.51,0,0,0,.09,1.27,19.23,19.23,0,0,0,3.69,7,4.16,4.16,0,0,0,0-1.27c-.14-1.59-.29-3.17-.45-4.75s-.32-3.16-.51-4.74A4.06,4.06,0,0,0,17,13.67Z"/><path class="cls-2" d="M16.27,15.19a7.24,7.24,0,0,1-2.19-3.72l.13,1.18-.18-4-.74,10.91L18.93,4.78l-5.08,9.1L20.51,3.8,14,12.36l20.6,4L26.39,7.75,34,23,30.26,12.37l2.61,12.49L31.15,15l.47,12.62-.09-9.93L29.92,30.23,31.55,20,25.09,34.49l5.58-9.58L20.09,33.74,28.61,28l-2.2.8,1.08-.31-2.85.37,1-.06-2.63-.3,1,.18-2.34-.77.92.38L12.47,21l-.24-.13a12.53,12.53,0,0,0,1.25,4.72A29.67,29.67,0,0,0,16,30.34,7.79,7.79,0,0,0,19.9,34l2.52.82c4.07.85,7.43-2.86,9.32-6a20.33,20.33,0,0,0,3-9.37A11.8,11.8,0,0,0,33.31,13c-.71-1.32-1.54-2.52-2.16-3.89a11.37,11.37,0,0,0-2.91-4.44C23.33.71,18.85,5.92,14,8.34a3.75,3.75,0,0,0-.18,1.16c-.11,1.48-.21,2.95-.3,4.43s-.63,4-.22,5.61a17.54,17.54,0,0,0,3.56,7,4,4,0,0,0,0-1.19c-.05-1.49-.12-3-.2-4.47s-.16-3-.26-4.47A3.87,3.87,0,0,0,16.27,15.19Z"/><path class="cls-2" d="M15.34,14a7.8,7.8,0,0,1-2.2-3.92l.09,1.13-.13-4-1,10.44,4.42-13-4,8.53,5.06-9.09-4.63,7.29,6.57-9-6,7.15,9.91-7.67-7.5,4.53,10.37-3L18.45,5l11,1.72L21.71,3.88,32.33,12l-4.87-5.6,5.66,7.42L28.9,7.49l4.85,11.14L31,10.85l2.07,9.82-1.39-7.54.49,8.95L32,15.89,27.14,31.06l3.25-7.14-5.72,8.62,4.57-6.6-7,6.85L28,27.56l-3.27,1.81,2.17-1.08-15.6-8.7-.23-.13.35,2.23a20.76,20.76,0,0,0,1.46,3.82,20.27,20.27,0,0,0,2.86,4.66,9.28,9.28,0,0,0,5.84,3.33c2.54.32,4.52-.87,6.33-2.55a19.6,19.6,0,0,0,5.93-12.12,14.49,14.49,0,0,0-.16-4.31A17.16,17.16,0,0,0,31.39,10a24.34,24.34,0,0,0-3.12-5.6,2.23,2.23,0,0,0-.89-.11c-.79,0-1.58,0-2.36,0-1.56,0-3.49-.34-5,.06A7,7,0,0,0,14.72,6a3.91,3.91,0,0,1-1.65,1A3.53,3.53,0,0,0,12.86,8c-.16,1.41-.3,2.82-.43,4.23s-.72,3.81-.38,5.38a17.72,17.72,0,0,0,3.31,7.26,3.67,3.67,0,0,0,.1-1.14c0-1.44,0-2.87,0-4.3s0-2.87,0-4.3A3.63,3.63,0,0,0,15.34,14Z"/><path class="cls-2" d="M14.53,13.83A6.2,6.2,0,0,1,12.23,9l-.14,2.37L12.37,8l-.68,4.48a26.94,26.94,0,0,1,7.08-9.89L15.83,4.69c4.53-1.84,6.84-1.75,11.45-.15L26,4,29.51,6.8,27.79,5Q31,9.83,29.08,16.27q3.62,9.06-2.43,15.9l2-3.2q-6.52,5.43-11.16,1.51a22.89,22.89,0,0,1-6.69-7l2,2.56q-1.58-2.89-3.3-5.7c-.09-.12-.13-.12-.11,0s.9,2.17.89,2.14A11.9,11.9,0,0,1,11,25.42a28.45,28.45,0,0,0,2.82,5l1.85,2.2c1.83,1.78,5.39,3,7.88,2.13a11.92,11.92,0,0,0,4.74-3.34,21.93,21.93,0,0,0,5.4-12.19c.36-3.64-1-6.65-2.59-9.8-.55-1.1-.77-2.3-1.41-3.36a8,8,0,0,0-3.16-3C24.4,2,21.25,1.17,18.94,2.29A11.67,11.67,0,0,0,17.3,3.38C15.56,4.64,15.48,5,14,7.19l1.72-2.41a13,13,0,0,1-3.42,2.69c-.38.2-.35,1.59-.41,2a13.19,13.19,0,0,0-.36,3.06,12.42,12.42,0,0,0,2.71,6.81,24.91,24.91,0,0,1,.26-2.74C14.56,16.18,14.9,14.25,14.53,13.83Z"/><path class="cls-2" d="M16,14a7.68,7.68,0,0,1-2.22-3.89l.12,1.39-.16-4.27-.91,12.93L18.68,3.45,12.83,14.08,20.3,2.44,13,12.41l14.93-9L16.58,7.18,32,10.27l-9.9-4.85,10.39,6-9-5.79L33.9,14.67,26.19,6.26l7.48,15.17L30.26,11,32.6,23.34l-1.52-9.68.29,12.47,0-9.78L29.68,28.78l1.66-10.15-6.49,14.5,5.57-9.76L17.51,31,27.89,26.7,16.72,28.83l9.55-1.48Q9.46,10.77,12.19,21.79a30.13,30.13,0,0,0,2.07,5,18.54,18.54,0,0,0,3,4.35,7.9,7.9,0,0,0,3.67,1.9,6.23,6.23,0,0,0,3.82.36A12.53,12.53,0,0,0,29.6,30c2.76-3.09,4-7,4.7-10.95a4.14,4.14,0,0,0-.46-1.11q-1-2-2-4t-2.08-4a3.79,3.79,0,0,0-.63-1L18.79,3.13C18,3.69,17.31,4.28,16.6,4.9a11.55,11.55,0,0,1-2.9,1.93,5.36,5.36,0,0,0-.19,1.39c-.14,1.74-.26,3.49-.37,5.24s-.23,3.5-.32,5.25a5.46,5.46,0,0,0,0,1.4,19.21,19.21,0,0,0,3.7,7.25,5.56,5.56,0,0,0,0-1.41c0-1.77-.11-3.53-.18-5.3s-.15-3.53-.24-5.3A5.52,5.52,0,0,0,16,14Z"/><path class="cls-2" d="M15.36,14.67,13.15,9.72l0,2.46.2-3.56-.43,3.32a24.18,24.18,0,0,1,6.92-8.45l-2.55,1.7a9.75,9.75,0,0,1,6-.91,33.81,33.81,0,0,1,5.27,1.55L26.22,5l3.16,1.86L27.17,5.41l2.77,2.44-2.15-2a36.82,36.82,0,0,1,5.67,10.9l-.8-2.49L27.06,34l2.54-4.14-4.46,4.9,2.75-2.84-7.42,1.83.48.1c-5.4-3.1-8.09-5.77-11-12.49-.14-.33-.29-.32-.2.06a28.53,28.53,0,0,0,3,7.55,22.19,22.19,0,0,0,3.54,4.85A9.57,9.57,0,0,0,24.2,36c1.63-.3,3.84-2.26,4.9-3.41a21.63,21.63,0,0,0,4.51-8.4,14.24,14.24,0,0,0,.21-9c-.76-2.33-2.15-4.37-3-6.67a8.75,8.75,0,0,0-2.75-3.72C26,3,22.11,2,19.69,3.32s-4,3.64-6.43,4.89c-.49.25-.55,3.29-.5,3.71a14.69,14.69,0,0,0,.9,3.81c.63,1.55.37.92,1.71,2.78,0-.07.13-1.85.13-1.92C15.49,16.21,15.66,15,15.36,14.67Z"/><path class="cls-2" d="M28.54,63.36a8.74,8.74,0,0,1,1.67,4.14l2.28-17.09L29.07,71.73l4.34-16.1L28.7,71.26,34.19,55,18,73,33,62.72,13.06,71.47l17-5L3.73,63.18l16.56,5.94L4.26,51l7.56,14.82L8.88,42.44,8.13,58.27l12.3-30.09L7.83,39.73l14-1.09-4.36-2.21a20.46,20.46,0,0,0,7.58,3.74q3,3.53,5.9,7.1c1.41,1.86,2.87,3.67,4.4,5.43A10.64,10.64,0,0,1,37.43,57L36.34,44.19l.87,13.42a4.51,4.51,0,0,0,.23,1.87l.07-.47c0-1,0-1.91,0-2.87-.09-2.56-.2-5.12-.31-7.68a40,40,0,0,0-.38-6.39,29.13,29.13,0,0,0-1.37-5l-1-2.25A7.56,7.56,0,0,0,31.23,31c-1.27-1.12-2.55-2.22-3.86-3.3q-2.82-2.4-5.66-4.77l-4.33,6.21A87.42,87.42,0,0,1,10,37.27l11.15-.69a49.36,49.36,0,0,1,.65-7,2.09,2.09,0,0,0-2.71-1.43,6,6,0,0,0-1.29,1.22q-2.25,2.46-4.47,4.95t-4.4,5a5.85,5.85,0,0,0-1.06,1.42c.26,2.87-.38,5.77-.6,8.64l6-14.9c-3,5.59-11.94,17.16-10.36,26,.69,3.84,4.16,7.41,7.21,9.65s6.52,2.9,10.25,2.87a40.19,40.19,0,0,1,7.91.21c.46.08,3.2-9.18,3.17-9.08q1.19-3.6,2.32-7.23a7.49,7.49,0,0,0,.48-2,31.2,31.2,0,0,0-1.26-6.52,18.39,18.39,0,0,0-2.05-4.29,7.89,7.89,0,0,0-.4,2q-.51,3.78-1,7.58c-.31,2.53-.61,5.07-.89,7.6A7.69,7.69,0,0,0,28.54,63.36Z"/><path class="cls-2" d="M29.17,61.14a8.54,8.54,0,0,1,1.66,4l2.34-15-22.28,18,15.39-1.25L3.68,58.53l13.2,8.32L5,49l6.71,14.06L9.5,40,8.82,55.19l3.77-20.58L8.35,49.31l10-22.48-9.18,13L21,26.26,8.73,37.2,22.38,37,15,33.68a112.49,112.49,0,0,0,10.9,5.52q2.14,2.27,4.29,4.56a56.73,56.73,0,0,1,7.16,8.7l-.13-.37.92,2.65L37,44.44l.92,11.26c0,.36,0,1.19.23,1.5a15.25,15.25,0,0,1,0-2.69c-.08-2.06-.19-4.12-.3-6.18a27.5,27.5,0,0,0-.36-5.13,33.69,33.69,0,0,0-1.17-3.82,20.16,20.16,0,0,0-3.19-5.92l-3.77-3-3.76-2.93Q22.24,21.93,20,27.1a40,40,0,0,1-8.92,8.5l10.54-.82a32.64,32.64,0,0,1,.91-7.3,2.05,2.05,0,0,0-2.64-1.62,5.65,5.65,0,0,0-1.29,1.2q-2.25,2.42-4.45,4.88c-1.47,1.64-2.94,3.28-4.38,4.94A5.8,5.8,0,0,0,8.7,38.29C8.86,41.18,8.26,44.07,8,47L14,32.08C10.83,37.67,1.44,49.44,3.27,58.38c.82,4,4.4,7.56,7.62,9.78A17,17,0,0,0,21,70.89c2.71-.06,5.21-.47,7.91-.07.49.07,2.77-7.08,2.77-7.06.68-1.87,1.35-3.75,2-5.64a4.67,4.67,0,0,0,.4-1.55,21.33,21.33,0,0,0-.92-6.41,16.82,16.82,0,0,0-2-4.21,4.68,4.68,0,0,0-.37,1.57q-.45,3-.85,6c-.27,2-.53,4-.76,6A4.9,4.9,0,0,0,29.17,61.14Z"/><path class="cls-2" d="M29.84,62.92a10.71,10.71,0,0,1,1.69,6l4-18.75L27.93,71.91,36.4,55.55l-17,16.91L35,62.27,12,69.61,29.6,67.52,4.16,60.14,19.72,69,5.8,50.85,13.92,66,10.26,41.84l.09,16.95,3-22.29L9.23,53.6,22,27.56l-13.52,14a41.17,41.17,0,0,1,17.19-2.33q3.27,3.65,6.42,7.42c1.45,1.91,3,3.76,4.59,5.55a10.6,10.6,0,0,1,2.14,4.23L38.78,56l0,2.35c0,.66.1.66.19,0,.14-1.52.24-3,.28-4.56q.21-4.39.37-8.79c.09-1.53.12-3.05.1-4.57-.33-2.71-.17-3.29-1.48-5.69l-1.34-2.23a10.16,10.16,0,0,0-3.81-3.86q-2.25-1.77-4.54-3.49L22,20.07l-4.21,7.76C15.46,31.45,13,35,10.42,38.34l12.12-2c.23-2.44.53-4.88.91-7.3a2.17,2.17,0,0,0-2.83-1.47,7.72,7.72,0,0,0-1.37,1.48Q16.87,32,14.52,35c-1.58,2-3.13,4-4.68,6a7.18,7.18,0,0,0-1.12,1.67c.6,2.73.18,5.58.19,8.38l5.75-17C12.08,39,.33,53.6,5.09,62.83a26.4,26.4,0,0,0,4.15,4.92,12.07,12.07,0,0,0,3.61,2.75,16.45,16.45,0,0,0,8.84,2L26,72.31a7.88,7.88,0,0,0,4.36-.53,7.72,7.72,0,0,0,.77-1.91c.81-2.45,1.61-4.9,2.38-7.36s1.56-4.92,2.31-7.39a7.78,7.78,0,0,0,.48-2,26.65,26.65,0,0,0-3.1-9.89,7.81,7.81,0,0,0-.5,2c-.47,2.59-.93,5.18-1.36,7.77s-.87,5.19-1.28,7.79A8.18,8.18,0,0,0,29.84,62.92Z"/><path class="cls-2" d="M31.16,65.32a7,7,0,0,1,1.33,6.32L34.76,65l-3.63,9,3.37-6.69a51,51,0,0,1-8.8,7.07l4.52-3-6.72,3.4,4.93-1.94L21.09,75l4.89-1-7.61,1,4.78-.1-8-.78,4.27.58L12.22,72.5,16.28,74,3.72,61.8l1.84,3L5,61.45A27,27,0,0,1,8.89,46.27,124.32,124.32,0,0,1,19.15,30.92l-3.46,3.94,7.59-6.25-6.35,3.17c.61.08.85.48.73,1.19a48.28,48.28,0,0,0,7.39,7.6l-3.24-3.43a110.44,110.44,0,0,1,7.71,9.94,12.35,12.35,0,0,0,1.13,1.27c2.72,3,5.7,5.63,8,8.95L34.8,49.57q2.25,6.09,4.72,12.09c.13.27.19.29.17.08a1.62,1.62,0,0,0-.15-.86q-.36-1.26-.75-2.52c-.32-1-.65-2.1-1-3.14Q36,50,39.7,59.69a24.34,24.34,0,0,0-1.14-3.14,41.42,41.42,0,0,0-5-8.93,15.79,15.79,0,0,1-3-3.85l-1.46-2a25.72,25.72,0,0,0-1.57-2.15,29.13,29.13,0,0,1-5.91-2.95l3.88,4.11-1.22-3.2a13.65,13.65,0,0,1,.13-5.73c.67-1.09.55-2-.37-2.6a1.45,1.45,0,0,0-2-.79c-.82,0-2.31,1.44-2.85,1.84s-2.51,1.44-2.62,2.15a35.13,35.13,0,0,1-4.13,6.73q-1.8,2.69-3.63,5.34A34,34,0,0,0,4,54.5,17.24,17.24,0,0,0,3.46,62c.56,2.61,2.73,5,4.43,6.87,1.86,2.07,4,4.51,6.83,5.36a16.89,16.89,0,0,0,2.54.45,37.68,37.68,0,0,0,14.39-.77,1.59,1.59,0,0,0,.49-.79c.34-.74.66-1.49,1-2.24A21.92,21.92,0,0,0,35,66a16.37,16.37,0,0,0-1.54-10.12,2,2,0,0,0-.39,1c-.33,1.23-.65,2.46-1,3.71s-.59,2.48-.86,3.72A2,2,0,0,0,31.16,65.32Z"/><path class="cls-2" d="M30.48,63.77a10.6,10.6,0,0,1,1.7,5.9l.93-4.53-1.37,5.6,4.63-15.57L28.62,72.61l7.79-13.74L20.58,72.92l12.6-7.27L15.41,71.93l14.07-2.85L4.84,61.28l11.37,8.37L6.13,52l4.59,12.26-3-14.29,2.18,12,2.24-22-3,13.29,4.33-14.84L9.27,50.42,22.52,28.29l-12.18,11q.42,6.86,13.57-.13l-7.49-4.11a65,65,0,0,0,10.65,6.18l5.75,6.93a62.66,62.66,0,0,0,4.37,5.25,10.22,10.22,0,0,1,2.13,4.2l-.6-8.44.44,9c0,.45-.09,1.37.19,1.78l.08-.45c0-.91,0-1.82,0-2.73,0-2.44-.07-4.88-.13-7.32a33.45,33.45,0,0,0-.22-6.09,19.82,19.82,0,0,0-1.53-5.06L36.38,36.1a9.56,9.56,0,0,0-3.28-3.74q-1.87-1.68-3.79-3.28l-5.57-4.72-4.19,5.76a69.72,69.72,0,0,1-7.11,7.37L23.21,37a49.76,49.76,0,0,1,.73-7.21,2.17,2.17,0,0,0-2.82-1.45,5,5,0,0,0-1.24,1.15C18.44,31,17,32.59,15.6,34.16s-2.82,3.16-4.21,4.76a5.3,5.3,0,0,0-1,1.35,4.93,4.93,0,0,1-.26,3.38c-.33,1.49-.6,3-.8,4.49l5.79-13.49L7.27,48.55l-1.35,3.1A22.39,22.39,0,0,0,4.6,58.33a11.13,11.13,0,0,0,1.29,5.58,22.3,22.3,0,0,0,5.41,5.8,15.57,15.57,0,0,0,10.07,3.5c1.45,0,2.88-.11,4.33-.19a10,10,0,0,1,1.89,0A6.64,6.64,0,0,0,31,72.46a5.6,5.6,0,0,0,.74-1.63Q32.92,67.68,34,64.5t2.19-6.36a5.88,5.88,0,0,0,.45-1.74,23.18,23.18,0,0,0-2.72-10,6.57,6.57,0,0,0-.52,1.79q-.74,3.42-1.41,6.84c-.46,2.29-.91,4.57-1.33,6.86A6.12,6.12,0,0,0,30.48,63.77Z"/><path class="cls-2" d="M29.81,62.29a5.26,5.26,0,0,1,1.78,4.15l1-5.1-1.38,6.15,1.62-5.63-2.25,7,2-5.53L29.88,69.9,32.64,64q-2,2.06-4.05,4l2.46-2.24-8.92,5,6-2.58-7.72,2.43,5.81-1.5-8.4,1.31,6.78-.62-9.68-.16,6.86.44-9.57-1.91,6.88,1.63L4.33,58.55l5.54,6.1-5-7.84L8.3,62.5,6,52.62l.69,4.64L7.93,44.18l-1.09,7L9.78,39.51,7.55,47.38l3.82-10.64L8.31,44.49,13,34.1,9.17,41.7l9.51-15.34L12,33.74l9.79-8.68L12.4,31.2l.87-.16-.31,0a1.87,1.87,0,0,0,1.39,1.31A59.45,59.45,0,0,0,23,36.82L18.06,34a51.84,51.84,0,0,1,11.06,9.24c1.1,1.2,2.22,2.36,3.37,3.51a43.79,43.79,0,0,1,5.21,6.31l-2.3-4.91q1.44,4.53,3.1,9a.71.71,0,0,0,.18.38c.22.07.06-.51,0-.75-.25-1.31-.63-2.6-1-3.89-.86-3.25-1.66-4.26-3.85-8.07-1.89-3.28-5-6-7.57-8.75A16.61,16.61,0,0,0,25,34.71l-2.56-4.53.83-3.77a2,2,0,0,0-2.59-1.63,2.75,2.75,0,0,0-1,.65c-1.17,1-2.31,1.92-3.45,2.9s-2.28,2-3.4,3a2.87,2.87,0,0,0-.8.9l-.31,1.72.13-.29a71.1,71.1,0,0,0-3.29,8.73L12.68,34c-2.93,5-6.54,10-8.28,15.6-.82,2.64-1.5,5.59-.86,8.36.7,3,3.08,5.94,5.31,8a21,21,0,0,0,5.3,3.81,8.29,8.29,0,0,0,3.67.93c3.94,0,8-.53,11.88,0l.16-.14A23.36,23.36,0,0,0,32.74,64c1.23-3.64.24-6.8-1.59-9.86a1.41,1.41,0,0,0-.29.82c-.21,1.07-.4,2.15-.57,3.22C30.2,58.68,29.33,61.68,29.81,62.29Z"/><path class="cls-2" d="M28,64a8.83,8.83,0,0,1,1.65,4.2L31.42,53,27.75,73.53,32.5,59,17.9,73.51l12-7.53L12.74,72.44l13.69-3.08L7.81,69.13l12.82,1.54-17-6.24L15.19,70.3,2.3,58.93l7.76,8.89L3.2,56.58,8.2,66,4.78,49.37,5.92,60,7.81,42.89,5.58,52.38,9.17,41l-3,8.26,4.51-10.92-3.8,7.92L12.2,35.83l-5,8.33L19.69,28.74,10.1,35.31l.39-.14-.32,0q1.1,5,9.53,1.86l-7.21-1.57,9,4.06L15.9,35.28q5.18,4,10,8.36c1.14,1.55,2.31,3.07,3.53,4.57A80.78,80.78,0,0,1,35.57,56L31.86,44.71,36,59.42c-.22-.77.75,2.45.52,1a12.3,12.3,0,0,0,0-2.27q-.73-2.72-1.62-5.38c-.87-2.74-1.72-5.48-2.67-8.19A32.09,32.09,0,0,0,30,39.54q-2.23-3-4.62-5.9-4.86-8.58-14.9,1.83l10-1.76q1.79-2.7-.15-4.26a1.39,1.39,0,0,0-2-.69,2.9,2.9,0,0,0-1,.68q-1.79,1.47-3.53,3t-3.47,3a2.8,2.8,0,0,0-.83.92A4.11,4.11,0,0,1,9,38.8q-.64,1.39-1.17,2.85c-.72,2-1.52,3.89-2.42,5.82a38.52,38.52,0,0,0-2.95,8.1c-.6,2.76-.74,6.25.8,8.79a20.22,20.22,0,0,0,11.92,9.07c4.15,1,8.37-.22,12.54.52.42.08,2.6-7.49,2.57-7.42q1-3,1.86-5.93A5.28,5.28,0,0,0,32.5,59a18.46,18.46,0,0,0-1.32-7.39,12.33,12.33,0,0,0-1.52-3.17,4.72,4.72,0,0,0-.32,1.62q-.37,3.08-.69,6.16t-.6,6.16A5.08,5.08,0,0,0,28,64Z"/><path class="cls-2" d="M31.31,63.67A7.62,7.62,0,0,1,33,67.36L33,67l.07,2,.69-3.27-.91,3.53,3-9.25L31.21,72.45,36,62l-3.59,5.55,3.25-4.7L23.76,72.65l8.8-5.06L22.25,72.44l8.45-3.23-11,3.21,8.78-1.78L16.78,71.83l8.66-.25L10.76,68.51l8.68,2.68-9-4.16,6,3L5.27,60.91l6.52,6.84-5.44-8L10,65.57,6.35,56.64,8.83,63l-2-9.73L8,60.3l1.1-13.15-1,7.28L11,42.35l-2.18,8.3,3.77-11.1L9.53,47.91l4.65-11L9.91,46.07l13.4-18.59L12.65,35.66l.65-.17-.35.09q.56,5.52,10.2.9l-7.91-.68L24.8,39l-6.14-3.76a32.4,32.4,0,0,1,11.45,9c1.22,1.47,2.48,2.89,3.8,4.26a44.27,44.27,0,0,1,5.27,6.62L39,54.83l.39,1.24-2.5-9.86c4.62,21.43,3.14,12.67,1.48,4a33.71,33.71,0,0,0-2.05-7.28,25.55,25.55,0,0,0-1.94-4.34q-2.87-3-5.85-5.92l-2.85-2.78-12.4,6.07,10.85-3.1c1.26-1.92,1.22-3.44-.14-4.57a1.48,1.48,0,0,0-2-.79,3.33,3.33,0,0,0-1.1.84c-1.26,1.17-2.52,2.36-3.75,3.56s-2.48,2.4-3.7,3.62a3.48,3.48,0,0,0-.88,1.07A18.27,18.27,0,0,1,9.24,47.8l3.41-9.16c-2.91,4.89-6.33,10-7.45,15.65-.76,3.87-.51,9.05,2.92,11.8a26.26,26.26,0,0,0,5.17,2.72,33.13,33.13,0,0,0,3.09,1.4l11.3,2.28a8,8,0,0,0,4.25-.68,3.18,3.18,0,0,0,.61-1.13c.61-1.48,1.21-3,1.78-4.47s1.94-3.91,2-5.74A17.08,17.08,0,0,0,34.26,51a3.38,3.38,0,0,0-.46,1.29q-.63,2.49-1.21,5c-.39,1.66-.77,3.34-1.12,5A3.38,3.38,0,0,0,31.31,63.67Z"/><path class="cls-2" d="M27.19,62.78l1.1,6,.82-3.63-1.86,5.08,1.66-3.35a55,55,0,0,1-9.3,4.25l4.47-1.46-6.76,1.49,4.86-.87-7.43.54,5.2-.19-7-.6,4.72.62-7.39-2L15,70.05,1.36,58.61l4.21,5.31L2.42,49.52l.2,4.91L7.17,38.74l-2,4.52A55.52,55.52,0,0,1,16.77,25.57l-3.59,3.17,4.88-3.9-4.18,2.71,6.59-1.47-4.86.7A147.26,147.26,0,0,0,26.74,43.55q1.83,2.58,3.79,5.07a6.48,6.48,0,0,0,1,1.7c2,2.44,5.07,10.55,5.22,8.5a11.73,11.73,0,0,0-.93-3.94,6.88,6.88,0,0,0-.67-1.1,24.47,24.47,0,0,0-1.73-2.19,28.92,28.92,0,0,1-7.15-12.08,54.48,54.48,0,0,1-5.83-5.74l1.67,2.47a10.89,10.89,0,0,0-1.78-7.11,38.26,38.26,0,0,0-3.2-4.1c-.2-.26-4.29,3.58-4.48,3.84A59.64,59.64,0,0,0,8.32,36c-1.8,3.41-3.81,6.7-5.47,10.19S-.19,54.4.79,58.29a14.36,14.36,0,0,0,3,5.43,23.32,23.32,0,0,0,7.53,6.4c4.91,2.49,10.45.66,15.6,1.42l.14-.09a11,11,0,0,0,2.14-5,12.82,12.82,0,0,0-1.54-8.87c-.2-.4-.39,1.66-.4,1.88C27.16,60.3,26.72,62,27.19,62.78Z"/><path class="cls-2" d="M27.3,63a8.16,8.16,0,0,1,1.64,4l.47-7.24-.95,10.21L31.06,56,19.32,72.21,30.23,62.8l-21.14,7,14.55-1-22-8.56,11.48,8.27L3,50.93,7,62.54,4.49,48.78,6.07,59.41,7.26,41.69,5,53,8.61,39.82l-2.95,9,4.43-11.73L6.21,45.68l7.27-14.14L7.64,40.22,16.3,28.27l-7.71,8.6L18.8,27.65,9.22,34.1l1.35-.55-1.21.39q1.82,3.93,8.15,1.69l-5.74-1.16,8.93,3.91-5.56-3.84A111.59,111.59,0,0,1,24,41.45a14.5,14.5,0,0,1,3.61,3.95L33.82,53l-.18-.27,1.23,2.05-3.7-10.06,4.14,13.58c-.21-.69.74,2.21.51.91a14.23,14.23,0,0,0-.06-2.26c-.31-1.06-.64-2.12-1-3.16-.91-2.77-1.92-5.51-3-8.23a31.52,31.52,0,0,0-2.75-5.92q-2.22-2.91-4.57-5.71Q20.11,26.2,10.58,34l9-1.55L16.44,28c-.09-.13-4.3,4.5-4.21,4.41Q10.61,34.17,9.05,36a3,3,0,0,0-.74,1c-.53,1.26-1,2.53-1.4,3.82-1.32,3.29-2.7,6.54-4.14,9.78-1.37,3.83-2.2,8.41-.23,12.2a24.39,24.39,0,0,0,4.15,4.91,18.18,18.18,0,0,0,5,3.5,19.57,19.57,0,0,0,8.57,1.23c1.06,0,2.11-.1,3.16-.18a12.32,12.32,0,0,1,3.63.27c1.28-.66,1.64-3.81,1.88-4.75.81-3.27,2-6.71,2.31-10.07s-1.33-6.55-2.88-9.26A4.57,4.57,0,0,0,28.07,50q-.26,2.85-.45,5.71c-.14,1.9-.27,3.81-.37,5.71A4.13,4.13,0,0,0,27.3,63Z"/><path class="cls-2" d="M28.79,62.07l1.58,4.8.52-3.38L30,68l1-3.79L28.6,70.31l2-4.06a39.12,39.12,0,0,1-9.38,4.36l4.33-1.3L18.9,70.63l4.67-.73-7.27.41,5-.09-6.81-.71,4.51.66-5.69-1.65,3,1L3,58,7.5,63.49,4.43,51.3l.3,3.9L6.81,43,5.5,48.67,8.79,38.55,6.5,44.78l3.95-9-2.9,6.06L18,25.48,12.4,30.94,21,24.36l-7.58,4.07,1.27.82,1.9,2.3,2.79,2.56a66.67,66.67,0,0,1,6.83,7c3.5,4,7.64,7.76,10.63,12.21l-1.66-3q1.22,3.8,2.74,7.46a.39.39,0,0,0,.19.29,2.92,2.92,0,0,0,0-.93,18.87,18.87,0,0,0-1-3.92,22.61,22.61,0,0,0-3-5c-1.94-2.58-4.1-5-6.1-7.56l-2.1-2.64c-2.08-1.44-4.19-2.83-6.33-4.19L23,36.44l-1.37-3.23a10.2,10.2,0,0,1,.31-5.67c.76-1,.71-1.89-.15-2.59a1.35,1.35,0,0,0-1.89-.83c-1,0-3.05,2-3.65,2.48s-3,1.77-3.41,2.78c-.81,1.72-1.64,3.42-2.51,5.11s-1.49,3.3-2.16,5l3-5.3c-2.52,4.13-5.48,8.45-7.3,13-1.25,3.16-2.26,7.08-1.4,10.48.79,3.12,3,5.84,5.26,8A16.64,16.64,0,0,0,18.48,71a37.83,37.83,0,0,0,4.64-.1,14.58,14.58,0,0,1,5.39,0c.7-.32,1.15-1.52,1.42-2.2a24.29,24.29,0,0,0,1.15-3.4c.78-3.45-.13-6.07-1.56-9a.8.8,0,0,0-.23.59c-.13.77-.24,1.53-.33,2.3C28.89,59.68,28.4,61.47,28.79,62.07Z"/><path class="cls-2" d="M28.93,65.53a8.23,8.23,0,0,1,1.66,4l-.05-.32V71l2.12-11-4,14.82,3.95-10.32-1.05,1.65.7-.93L21,74.86l8.43-5.28-10,5,8.13-3.35L16.21,74.75l9.18-2L14,73.9l8.1-.21-10.84-1L18.93,74l-9-3,5.51,2-9.3-4.7,5.91,3.28L4,65.76,9,69.9,2.78,63.32l4,5.12L3.42,52.49l.08,4.93L8.49,43,6.67,46.84,16.79,31.5l-3.7,4,7.82-6.41-6.25,3A15.88,15.88,0,0,0,16.24,34q3.17,3.49,6.63,6.7l-3.21-3.73q3.49,4.31,6.7,8.82a29.16,29.16,0,0,0,3.1,3.9,84.83,84.83,0,0,1,6.89,8L31.9,49.13q2.39,6.38,5.15,12.59a1.43,1.43,0,0,0,.35.62c.22-.08-1-3.53-.79-2.78l-.83-2.36q1.89,4.62,1.6,2.77c0-1.06-1-2.78-1.55-3.85a76.55,76.55,0,0,0-5-8.89l-2.64-3.87Q27,41.29,25.73,39.23l-.14-.2a31.08,31.08,0,0,1-6.07-2.62l3.85,4.47A8.48,8.48,0,0,1,22,35.83a12.64,12.64,0,0,1,.38-5.43L21,28.94H19.78c-.85,0-2.28,1.36-2.87,1.77s-2.45,1.35-2.64,2.09c-.39,1.54-1.62,3-2.42,4.33-1.16,1.94-2.44,3.77-3.64,5.68-1.76,2.82-3.92,6.1-5.05,9.24a31.24,31.24,0,0,0-1.25,7.37,7.78,7.78,0,0,0,.68,3.08,7.31,7.31,0,0,0,.78,3.08,28.36,28.36,0,0,0,4.4,5,10.13,10.13,0,0,0,2,.88c1.21.43,2.43.84,3.65,1.24l7.38,2.43q2.09-.14,4.17-.3a5.35,5.35,0,0,0,5.1-1.93,2.89,2.89,0,0,0,.45-1.15q.61-2.25,1.17-4.5c.41-1.62,1.39-4,1.24-5.75a18.51,18.51,0,0,0-2.28-7.72,3,3,0,0,0-.34,1.21c-.26,1.55-.51,3.1-.73,4.66s-.46,3.11-.66,4.67A3,3,0,0,0,28.93,65.53Z"/><path class="cls-2" d="M30.68,62.56a5.69,5.69,0,0,1,1.79,4.37l.8-3.68-1.14,4.66L34,62l-2.49,7.28,2.26-5.78-3,6.8,3-6.12a57.92,57.92,0,0,1-4.25,4.19L32,66.08l-6.4,4.56,5.21-3.31L23.49,71l5.4-2.21-7.7,2.37,5.68-1.4L18.57,71l6.52-.48-9.45-.31,6.5.54-9.23-2,6.42,1.67L5,59.06l5,5.81L6.5,59l2.06,3.65-2-9.77.55,4.42L8.34,46.83l-.81,4.59,3.07-11.5L8.35,47.68l3.84-10.51-3,7.73,4.65-10.34L10,42.22,16.81,30l-5.57,8.13L22.66,25.54,13,32.15l.81-.14-.32.05a1.26,1.26,0,0,0,1.32,1.13q4.48,2,9,4l-5.22-3a48.79,48.79,0,0,1,10.28,8.06q1.71,1.9,3.49,3.75a49.86,49.86,0,0,1,6.23,7.39l-2.32-5.71,2.94,9.36.22.65c.17.22.12.23.18,0a6.25,6.25,0,0,0-.41-2.08c-.34-1.55-.72-3.1-1.13-4.64a10.71,10.71,0,0,0-1.85-4,14.3,14.3,0,0,0-2.38-4.29,27,27,0,0,0-2.11-2.5c-1.63-1.77-3.3-3.51-5-5.24a2,2,0,0,0-3.08-1,18.61,18.61,0,0,1-5.22.19l6.05,3.35-1.14-2.93a19.38,19.38,0,0,1,.49-5.69c.71-1.11.61-2-.31-2.7a1.44,1.44,0,0,0-2-.85,2.93,2.93,0,0,0-1,.71Q18.74,27.47,17,29c-1.16,1-2.32,2.07-3.46,3.13a3,3,0,0,0-.82.94l-.2,1.67.13-.3a60.68,60.68,0,0,0-2.35,5.86L15.1,32c-3,4.81-7.22,10.67-9.41,16.3-1.14,2.95-2.16,7-1.41,10.2.64,2.67,2.42,4.87,4.24,6.84A19.59,19.59,0,0,0,15,70.37c3.15,1.32,6.75,1.16,10.07.81l2-.24a8.47,8.47,0,0,0,4.27-.88c.65-.21,1-2.16,1.27-2.73A19.76,19.76,0,0,0,34.22,63a13.76,13.76,0,0,0-1.8-9.2,1.76,1.76,0,0,0-.33.89c-.26,1.15-.51,2.31-.73,3.46s-.45,2.32-.65,3.48A1.71,1.71,0,0,0,30.68,62.56Z"/><path class="cls-2" d="M29.77,66.29a6.84,6.84,0,0,1,1.62,5.2l.73-3.79-1.06,4.76,1.75-6.12-2.37,7.45,2.15-5.92L29.71,74.8l2.87-6.24a57.87,57.87,0,0,1-8.26,6.68l4.21-2.79-6.35,3.22,4.67-1.8-7.14,2,4.58-1-7.36.87,4.42-.05-10.8-2.42L14,74.69A30.12,30.12,0,0,1,2.36,62.77l.52,1a31.23,31.23,0,0,1,.54-8.24,31.11,31.11,0,0,1,6.93-12.81c.5-.78,1-1.58,1.4-2.41a50.74,50.74,0,0,1,9.33-11.42l-2.4,1.55,2.93-1.31-2.81.92.94,1.63,1.1,3A115.5,115.5,0,0,0,27.3,47a6.89,6.89,0,0,0,2.06,2.89c.61.63,1.24,1.24,1.89,1.82A38.62,38.62,0,0,1,37,57.91l-3.06-5.14q2,5,4.29,9.87l.15.16c.22-.07-.63-2.49-.48-2-.48-1.53-1-3-1.56-4.54,2.06,6.18,2.74,5.3,1.16,2a30.6,30.6,0,0,0-3.4-5.58c-.91-1.15-1.9-2.22-2.89-3.29a62.12,62.12,0,0,1-7.9-10.66l1.54,2.83a16.67,16.67,0,0,1-1.45-7.91c1.18-2.11.9-3.8-.83-5.05a2.24,2.24,0,0,0-1.63.07c-2,.83-3.05,2.34-4.33,4-2.23,2.82-4.21,5.77-6.3,8.69C8.71,43.49,7.36,45,5.87,47.21a25.79,25.79,0,0,0-4.2,11c-.43,3.3-.41,3.95,1.11,6.75a18.91,18.91,0,0,0,2.11,3,38.93,38.93,0,0,0,5.25,5.41A10.52,10.52,0,0,0,14,75.25a28.26,28.26,0,0,0,3.43.46c4.22.38,5.86-.12,9.4-.3a5,5,0,0,0,4.33-2.27,23,23,0,0,0,1.4-4.54,13.14,13.14,0,0,0,.7-4.61,14.38,14.38,0,0,0-1.85-6,1.55,1.55,0,0,0-.32.84c-.24,1.09-.47,2.19-.67,3.28C30.26,62.71,29.32,65.54,29.77,66.29Z"/><path class="cls-2" d="M26.77,63.36l1.57,4.54.76-7.22L28,68.75l1.22-6.59L27.38,70l1.73-6.58-2,6.18,2.09-5.82c-1.24,1.5-2.48,3-3.71,4.49l2.83-3.15-14.2,6.25,9-2L12,70.44l8.38-.32-11-1.07,8.41,1.17-7.29-2.1,4.35,1.37L5.93,65.41l6.08,3L.84,59.24,7.41,66,1.89,57.89l3.58,5.57-3.6-8.82,2.2,5.91-2-10.69,1,7.55L5,43.39,3.7,49.53l2.89-9.35L4.34,45.91l3.94-8.55L5.54,42.74,16,26.86l-4.77,4.3,7.65-5.42-6.07,3A7.1,7.1,0,0,1,15.65,32,153.19,153.19,0,0,1,25.86,44.59c2.78,3.38,6.08,6.34,8.56,10l-2.25-3.84,3.25,8.05c-.09-.22.41,1.06.38.41a10.18,10.18,0,0,0-1.11-4.78,32,32,0,0,0-2-3.45c-1.4-2.15-3.22-4.13-4.71-6.21-1.14-1.68-2.28-3.37-3.43-5-1.09-.91-2.22-1.78-3.38-2.61l1.83,3q-4.71-5.41-3.12-11.33,1.35-2.66-2.12-3.13c-.44-.26-2.9,1.75-3.06,1.86-.77.53-2.35,1.29-2.84,2.19-.57,1.06-1.21,2.06-1.86,3.08a78.62,78.62,0,0,0-3.78,7.22C3.75,45,.51,50.1.35,55.9.2,61,3.34,64.84,7.11,68a15.29,15.29,0,0,0,9.31,3.87c2.8.14,5.57-.35,8.37-.26,2,.08,1.41.68,2.21-.33a3.78,3.78,0,0,0,.57-.9,23.15,23.15,0,0,0,1-3.6c.28-1.09.6-2.19.82-3.3.68-3.37-.51-6.13-2.19-8.82a1.54,1.54,0,0,0-.2.9c-.1,1.14-.17,2.29-.22,3.43C26.76,59.8,26.22,62.54,26.77,63.36Z"/><path class="cls-2" d="M31.8,64.39c2,2,2.2,4.36.67,7.26l1.65-3.6-2.41,4.67L33.89,69a59.53,59.53,0,0,1-10.55,4.49L26,73l-8.23,0,2.48.27a31.6,31.6,0,0,1-15-13L6,61.69A53.17,53.17,0,0,1,19.9,28.9l-4.21,4.89,8.46-7.26L17,30.48c.76.21.55.49.89,1.17C19,34,24.6,39.28,25,39.66c2.79,3,5.49,6,8.46,8.76a42.17,42.17,0,0,1,6.31,6.94l-2.2-4.13c.13.27,3.18,8.46,3.14,8.48.13-.07,0,.19.18,0s-.27-1.42-.31-1.61a31.91,31.91,0,0,0-.93-3.58,7.08,7.08,0,0,0-2-3.44,35,35,0,0,0-2-3.12c-.89-1.06-1.92-2-2.85-3-1.21-1.33-2.46-2.6-3.7-3.89-1.71-1.78-1-1-4.19-3l3.27,4.18L25,35.69a13.32,13.32,0,0,1,.31-5.86c.74-1.11.64-2-.29-2.69a1.46,1.46,0,0,0-2-.85c-.88,0-2.78,1.88-3.31,2.3s-2.91,1.77-3.07,2.61c-.5,2.73-4,7.14-5.81,9.84a53.27,53.27,0,0,0-4.6,7.77,21.16,21.16,0,0,0-2.07,8.75,6.51,6.51,0,0,0,1.1,4.36C8.15,67.47,13,72.74,19.49,73.59a33.11,33.11,0,0,0,8.37-.4c2.68-.31,1.32.31,3.63-1.27,1.12-.77,1.46-.73,1.95-1.56a14.29,14.29,0,0,0,1.46-4.19c.56-2.81-.28-5.18-1.57-7.63,0,.05-.95,2.84-.95,2.88C32.28,61.8,31.45,63.9,31.8,64.39Z"/><path class="cls-2" d="M30.38,61.85a9.87,9.87,0,0,1,1.73,5.65l3.48-14.83L22.41,71.35l11.27-8.59L18,70.82,30.81,66,12.64,68.7l13.61-.43-14.9-1.42,12.54,1.7L4.94,59.29,16.78,67.6,6.06,49.71l5.73,13.53.39-25.48L9.49,52.42l4-16.08L9.27,50,22.56,26.29,9.93,38.17a32.74,32.74,0,0,0,13.69-.61l-7.56-3.47a61.64,61.64,0,0,0,10.81,5.4q3,3.18,5.88,6.39Q35,48.43,37.21,51a10.72,10.72,0,0,1,2.15,4.27L39,51.2l.23,4.86c0,.39-.09,1.24.16,1.58l.09-.39c0-.81.08-1.61.06-2.41q0-3.24,0-6.48A31.16,31.16,0,0,0,39.39,43a15.38,15.38,0,0,0-1.66-5.41L36.4,35.25a9.07,9.07,0,0,0-3.51-3.75q-2-1.58-4-3.1l-5.82-4.48-4,5.48a62.76,62.76,0,0,1-6.93,7L23,35.32a41.66,41.66,0,0,1,1-7.45,2.14,2.14,0,0,0-2.76-1.59,5.51,5.51,0,0,0-1.3,1.25q-2.25,2.52-4.45,5.07T11,37.73a5.76,5.76,0,0,0-1,1.46c.29,2.73-.41,5.48-.66,8.23l5.84-14.85C12,38.19,2.53,50.12,4.57,59.15c.88,3.9,4.48,7.49,7.69,9.66a16.64,16.64,0,0,0,10.15,2.54c1.43-.1,2.85-.21,4.27-.33A8.15,8.15,0,0,0,31,70.33a4.66,4.66,0,0,0,.66-1.45c.68-1.86,1.34-3.74,2-5.62s1.29-3.76,1.91-5.65a4.68,4.68,0,0,0,.37-1.55,20.92,20.92,0,0,0-2.7-9.61A4.78,4.78,0,0,0,32.74,48q-.6,3-1.15,6.08T30.52,60.2A4.84,4.84,0,0,0,30.38,61.85Z"/><path class="cls-2" d="M29.23,64.08A8.73,8.73,0,0,1,30.9,68.2v-.5l0,2.34,2.51-13.43L30.74,69.7l3.57-14.27L29,73.44l6.17-17L18.74,73.57l14.11-9.33L14,72.11l15.74-4.2L4.63,64l14.61,6L4.86,51.93l5.91,13.66L9.39,43.14,8.08,57.06l4.37-19.35L8.05,51.13,21.12,28.76,9,39.5l13.69-.19-6.14-3.46a43,43,0,0,0,9.42,5.45c1.42,1.76,2.85,3.52,4.27,5.29a111,111,0,0,1,7.08,9.14l-.13-.45.77,4.57c.08.52.12.48.18,0a37.53,37.53,0,0,0-.25-6.35c-.13-2.54-.26-5.08-.43-7.62a16.56,16.56,0,0,0-.35-3.29,35.34,35.34,0,0,0-1.24-4.46l-1-2.17a7.81,7.81,0,0,0-3-3.7c-1.2-1.12-2.43-2.22-3.67-3.3L22.77,24.2,18.45,30a74.73,74.73,0,0,1-7.32,7.46l10.79-.27a44.36,44.36,0,0,1,.59-7,2.13,2.13,0,0,0-2.76-1.4,5.08,5.08,0,0,0-1.24,1.12c-1.45,1.52-2.87,3.05-4.29,4.6S11.39,37.6,10,39.16a5,5,0,0,0-1,1.33c.21,2.75-.65,5.51-1,8.24l5.88-13.6L6.2,48.89l-1.34,3A22.9,22.9,0,0,0,3.5,58.47,11.13,11.13,0,0,0,4.63,64a22.38,22.38,0,0,0,5.25,5.81,15.9,15.9,0,0,0,9.95,3.79c1.47.07,2.93,0,4.39-.09a11.54,11.54,0,0,1,2,0,6.27,6.27,0,0,0,3.54-.61,7,7,0,0,0,.71-1.82c.74-2.33,1.47-4.67,2.17-7s1.42-4.69,2.09-7a7,7,0,0,0,.42-1.9,24.87,24.87,0,0,0-3-9.77,7.12,7.12,0,0,0-.45,1.94Q31,51,30.46,54.71c-.38,2.46-.74,4.93-1.09,7.39A7,7,0,0,0,29.23,64.08Z"/><path class="cls-2" d="M27.83,62a8.38,8.38,0,0,1,1.65,4l.23-3.91L29,68.92l2.84-14L9.65,68.86,24.7,67.68,2.14,59.23l12.58,8.44L3.64,50,8.83,62.62,5.25,48,7.72,59.79,8,40.86,6.23,54l3.1-14.82L6.25,50.75,17,27.24,8.34,37.91,19.36,27l-11,8.22.83,0H8.88l10.34.16-8-.62L21,37.57,14.72,34q5.35,3.33,10.62,6.81c1.28,1.6,2.57,3.2,3.88,4.78a66.84,66.84,0,0,1,6.31,8.14l-3.6-11.86c.23,1.08.48,2.14.75,3.21q1.57,6.57,3.54,13c.17.44.23.43.18,0-.17-1.07-.39-2.13-.65-3.18C34.42,49,33.47,42.68,30.26,37.56q-2.75-3.14-5.62-6.13-5.88-9-15.49,3.55L20.3,31.77Q23,26.61,17,27.24a4,4,0,0,0-1.06,1c-1.2,1.42-2.39,2.84-3.56,4.28S10,35.44,8.85,36.9A3.91,3.91,0,0,0,8,38.14a41.32,41.32,0,0,0-1.9,14.71L8,40.49c-2.14,4-4.54,8-5.52,12.5a14.45,14.45,0,0,0-.29,6.24A10.43,10.43,0,0,0,5,64.52c2.68,3.18,5.93,5.74,10,6.64a27,27,0,0,0,7.93.27,24.66,24.66,0,0,1,2.85-.08c1.22.69,2.06.45,2.54-.74a4.36,4.36,0,0,0,.53-1.45q.77-2.8,1.48-5.63c.58-2.27,1.51-4.81,1.63-7.18a26.75,26.75,0,0,0-.94-4.94,16.1,16.1,0,0,0-1.92-4,4.61,4.61,0,0,0-.29,1.52c-.2,1.92-.39,3.84-.55,5.77s-.34,3.84-.48,5.77A4.68,4.68,0,0,0,27.83,62Z"/><path class="cls-2" d="M26.62,64.25l1.56,3.58.62-9.23L26.32,73.33l2.87-9q-1.89,2.56-3.82,5.09l2.77-3.5-8.9,6.87,7.31-4.7L13.92,73l9.18-2.28L11.78,72.08l8.43-.49L9.14,70.75l8.31,1.11L8,69.16l6.21,1.93L4.11,66.46l6.94,3.46-9-6,6.16,4.55L1,61.53l5,5.81L1.78,57.4l1,3.26L1.51,51.05l.37,5.83L6.39,41.19,4.52,45.11l11.67-17-3.49,3L19,27l-4.65,2a7.85,7.85,0,0,1,2.56,3.87q4.46,6.85,8.84,13.75c2.61,3.3,5.87,6,8.29,9.43l-2.86-4.72,3.86,9,.25.52c.32.3.11-.12.1-.34a9.17,9.17,0,0,0-.7-2.21c-.18-.54-.36-1.07-.56-1.61-.67-1.76-.26-1.12,1.26,1.93-1.18-4-4-7.69-6.93-10.58l2.24,3.25c-1.77-2.76-3.55-5.52-5.3-8.29a8.85,8.85,0,0,0-2.11-2.57A51.29,51.29,0,0,1,19.38,36l2.19,3.27a14.91,14.91,0,0,1-1.25-11c-.24-.86-.68-1.33-1.34-1.43a2.88,2.88,0,0,0-2.46.66,23.79,23.79,0,0,0-2.75,1.82,17.19,17.19,0,0,0-2.15,2.87c-1,1.31-1.86,2.72-2.7,4.11L4.51,44C3.34,46,2.27,48.17,1.3,50.36c-1.22,3.76-1.93,8.21-.52,12a11.31,11.31,0,0,0,2.59,4c2.1,2.33,4.48,4.69,7.41,5.93a19.09,19.09,0,0,0,7.67,1.21c2.33,0,4.67-.43,7-.05.81.39,1.37.12,1.68-.82a2.2,2.2,0,0,0,.4-1c.59-2,1-4,1.51-6a17.4,17.4,0,0,0,.45-2.61c.23-3.34-.85-5.94-2.38-8.73a2.11,2.11,0,0,0-.2,1c-.09,1.3-.17,2.61-.23,3.91s-.11,2.61-.14,3.92A2.08,2.08,0,0,0,26.62,64.25Z"/><path class="cls-2" d="M28.85,61.92a8.82,8.82,0,0,1,1.65,4.17l2.26-16.28L29.37,70.39l4.29-15.33L29,70l5.42-15.54L15.72,71.36l16.45-8L2.92,59.13,18.84,68,9.18,40.46,9.09,58.14l9.05-30.75L8.38,42.25l12.25-15L7.72,39.66a38.43,38.43,0,0,1,17.34-1q3.12,3.45,6.17,7,2.23,2.73,4.52,5.43a10.82,10.82,0,0,1,2.08,4.33l-.51-8.59L37.68,56a4.3,4.3,0,0,0,.18,1.79l.09-.45c0-.91.06-1.82,0-2.73,0-2.45,0-4.9-.08-7.35a41.51,41.51,0,0,0-.18-6.11,16.39,16.39,0,0,0-1.46-5.44l-1.19-2.29a8.18,8.18,0,0,0-3.44-3.82c-1.36-1.12-2.74-2.23-4.13-3.31l-6.07-4.78L17.2,28.15a95.93,95.93,0,0,1-7.31,8.79l11.48-1.4a57.51,57.51,0,0,1,.87-7.17,2.08,2.08,0,0,0-2.69-1.54,6.22,6.22,0,0,0-1.35,1.36c-1.58,1.81-3.13,3.64-4.68,5.47s-3.08,3.68-4.61,5.54A6.55,6.55,0,0,0,7.8,40.75c.37,2.9-.06,5.85-.11,8.78l6-16.41C10.56,38.6,1.3,50.29,2.92,59.13c.72,3.93,4.27,7.55,7.4,9.8A16.59,16.59,0,0,0,20.6,71.78c2.72,0,5.23-.36,7.93.12.47.08,3.16-8.73,3.13-8.65q1.17-3.44,2.29-6.89a7.2,7.2,0,0,0,.47-1.88,29.69,29.69,0,0,0-1.22-6.55,19.22,19.22,0,0,0-2-4.33,6.78,6.78,0,0,0-.4,1.9q-.51,3.61-1,7.24T28.94,60A7,7,0,0,0,28.85,61.92Z"/><path class="cls-2" d="M27.9,65.82A6.92,6.92,0,0,1,29.51,71l1-7.3-1.38,8.05,1.76-8.06L27.84,74.07,31,65.54q-2.65,3.67-5.55,7.18l4.22-5.2-9.68,7.37,7.76-4.7-9.41,4.45,7.52-2.91-10,2.81,7.8-1.46-10.79.79h7.47l-10.19-1.3,7,1.47L5.92,68.66l4.25,2.53-7.42-5.7,4.34,3.8L1.53,63,4.87,67.6,2.31,51.68l-.24,3.66a66.15,66.15,0,0,1,15.7-25.92L15.3,31.75l5.1-3.29L16,30.14a10.41,10.41,0,0,1,2.26,4.09q4.18,7.05,8.36,14.12c2.65,3.25,6,5.59,8.48,9.07l-3.51-5.88q2.14,5.33,4.64,10.5a1,1,0,0,0,.32.5c.21-.08-.85-2.86-.65-2.27-.41-1.17-2.9-6.62-.38-1.89,2.17,4.09.66.54,0-.84a37.46,37.46,0,0,0-3.76-6.1c-3.69-4.76-7.65-9.3-11.24-14.15l2.33,3.63-1.54-7.71q1.7-2.61-.16-4.16c-.91-1-.5-.76-2-.72-.47,0-1.58.88-1.86,1.05-.47.3-1.5.72-1.75,1.23a47.37,47.37,0,0,1-4.17,6c-1.26,1.74-2.5,3.48-3.69,5.28q-1.5,2.23-2.86,4.56a44.52,44.52,0,0,0-2.68,4.89A26.06,26.06,0,0,0,.76,59c.07,5.26,2.37,8.27,6,11.54a22.62,22.62,0,0,0,2.9,2.23c8.1,5.13,12.37,1.48,19.87-1.45a2.3,2.3,0,0,0,.32-1.06c.24-1.36.47-2.71.67-4.07s.9-3.66.61-5.19A17,17,0,0,0,29,55.35a2.22,2.22,0,0,0-.27,1.08c-.18,1.37-.34,2.75-.48,4.13s-.29,2.76-.4,4.15A2.31,2.31,0,0,0,27.9,65.82Z"/></g></g></svg>